<svg width="104" height="123" viewBox="0 0 104 123" fill="none" xmlns="http://www.w3.org/2000/svg">
<g filter="url(#filter0_d)">
<path fill-rule="evenodd" clip-rule="evenodd" d="M40.5575 0.150213C40.5575 0.237787 40.0569 0.300426 39.3558 0.300426H38.1541V4.95703V9.61363H33.4975H28.8409V10.8153C28.8409 11.5164 28.7783 12.017 28.6907 12.017C28.6081 12.017 28.5405 12.355 28.5405 12.7681C28.5405 13.1812 28.6081 13.5192 28.6907 13.5192C28.7841 13.5192 28.8409 14.3704 28.8409 15.7724C28.8409 17.1743 28.7841 18.0256 28.6907 18.0256C28.6081 18.0256 28.5405 18.2959 28.5405 18.6264V19.2273H23.8839H19.2273V28.8409V38.4545H23.8194C27.5991 38.4545 28.4497 38.4165 28.6263 38.2399C28.8077 38.0586 28.8409 36.5719 28.8409 28.6263V19.2273H33.4975H38.1541V14.4205V9.61363H47.7677H57.3814V14.4205V19.2273H62.038H66.6946V28.6263C66.6946 36.5719 66.7278 38.0586 66.9092 38.2399C67.0857 38.4165 67.9364 38.4545 71.7161 38.4545H76.3082V28.8409V19.2273H71.5014H66.6946V18.326C66.6946 17.8253 66.7613 17.4247 66.8448 17.4247C66.9274 17.4247 66.995 17.0867 66.995 16.6736C66.995 16.2606 66.9274 15.9226 66.8448 15.9226C66.7514 15.9226 66.6946 15.0713 66.6946 13.6694C66.6946 12.2674 66.7514 11.4162 66.8448 11.4162C67.0787 11.4162 67.0242 10.0719 66.7804 9.82829C66.6039 9.65164 65.7532 9.61363 61.9735 9.61363H57.3814V4.95703V0.300426H55.729C54.7276 0.300426 54.0767 0.241242 54.0767 0.150213C54.0767 0.0675959 53.7387 0 53.3256 0C52.9125 0 52.5746 0.0675959 52.5746 0.150213C52.5746 0.243646 51.7233 0.300426 50.3214 0.300426C48.9194 0.300426 48.0682 0.243646 48.0682 0.150213C48.0682 0.0675959 47.7302 0 47.3171 0C46.904 0 46.566 0.0675959 46.566 0.150213C46.566 0.243646 45.7148 0.300426 44.3128 0.300426C42.9109 0.300426 42.0596 0.243646 42.0596 0.150213C42.0596 0.0675959 41.7217 0 41.3086 0C40.8955 0 40.5575 0.0675959 40.5575 0.150213ZM32.446 38.3043C32.446 38.3961 31.745 38.4545 30.6435 38.4545H28.8409V40.2571C28.8409 41.3586 28.7825 42.0596 28.6907 42.0596C28.6081 42.0596 28.5405 42.3976 28.5405 42.8107C28.5405 43.2238 28.6081 43.5618 28.6907 43.5618C28.7837 43.5618 28.8409 44.3629 28.8409 45.6648V47.7677H33.4975H38.1541V52.5746V57.3814H33.3473H28.5405V61.9735C28.5405 65.7532 28.5785 66.6039 28.7551 66.7804C28.9387 66.9641 31.6849 66.995 47.8322 66.995H66.6946V71.5872C66.6946 76.5621 66.7021 76.6086 67.5101 76.6086C67.7225 76.6086 67.8963 76.5411 67.8963 76.4584C67.8963 76.365 68.7475 76.3082 70.1495 76.3082C71.5514 76.3082 72.4027 76.365 72.4027 76.4584C72.4027 76.5411 72.7407 76.6086 73.1537 76.6086C73.5668 76.6086 73.9048 76.5411 73.9048 76.4584C73.9048 76.3709 74.4055 76.3082 75.1065 76.3082H76.3082V71.6516V66.995H71.5014H66.6946V66.2439C66.6946 65.8309 66.7622 65.4929 66.8448 65.4929C66.9274 65.4929 66.995 65.1549 66.995 64.7418C66.995 64.3287 66.9274 63.9908 66.8448 63.9908C66.7514 63.9908 66.6946 63.1395 66.6946 61.7376C66.6946 60.3356 66.7514 59.4844 66.8448 59.4844C66.9274 59.4844 66.995 59.1464 66.995 58.7333C66.995 58.3202 66.9274 57.9822 66.8448 57.9822C66.7622 57.9822 66.6946 57.847 66.6946 57.6818C66.6946 57.3878 66.5944 57.3814 62.038 57.3814H57.3814V52.5746V47.7677H61.9735C65.7532 47.7677 66.6039 47.7297 66.7804 47.5531C67.0242 47.3094 67.0787 45.9652 66.8448 45.9652C66.7514 45.9652 66.6946 45.1139 66.6946 43.712C66.6946 42.3101 66.7514 41.4588 66.8448 41.4588C66.9274 41.4588 66.995 41.1208 66.995 40.7077C66.995 40.2946 66.9274 39.9567 66.8448 39.9567C66.7622 39.9567 66.6946 39.6187 66.6946 39.2056V38.4545H65.3427C64.5416 38.4545 63.9908 38.3934 63.9908 38.3043C63.9908 38.2217 63.6528 38.1541 63.2397 38.1541C62.8266 38.1541 62.4886 38.2217 62.4886 38.3043C62.4886 38.3978 61.6374 38.4545 60.2354 38.4545C58.8335 38.4545 57.9822 38.3978 57.9822 38.3043C57.9822 38.2217 57.847 38.1541 57.6818 38.1541C57.3877 38.1541 57.3814 38.2543 57.3814 42.9609V47.7677H47.7677H38.1541V43.1111V38.4545H36.0511C34.7492 38.4545 33.9481 38.3973 33.9481 38.3043C33.9481 38.2217 33.6102 38.1541 33.1971 38.1541C32.784 38.1541 32.446 38.2217 32.446 38.3043ZM19.2273 71.8018C19.2273 76.5085 19.2336 76.6086 19.5277 76.6086C19.6929 76.6086 19.8281 76.5411 19.8281 76.4584C19.8281 76.365 20.6794 76.3082 22.0813 76.3082C23.4833 76.3082 24.3345 76.365 24.3345 76.4584C24.3345 76.5411 24.6725 76.6086 25.0856 76.6086C25.4987 76.6086 25.8366 76.5411 25.8366 76.4584C25.8366 76.3683 26.4375 76.3082 27.3388 76.3082H28.8409V71.6516V66.995H24.0341H19.2273V71.8018ZM9.8014 76.5329C9.6599 76.6935 9.61363 77.8776 9.61363 81.334V85.9219H4.80682H0V100.192V114.462H2.10298C3.40488 114.462 4.20596 114.52 4.20596 114.613C4.20596 114.695 4.54394 114.763 4.95703 114.763C5.37012 114.763 5.7081 114.695 5.7081 114.613C5.7081 114.519 6.55935 114.462 7.96129 114.462C9.36323 114.462 10.2145 114.519 10.2145 114.613C10.2145 114.695 10.5525 114.763 10.9656 114.763C11.3786 114.763 11.7166 114.695 11.7166 114.613C11.7166 114.519 12.5679 114.462 13.9698 114.462C15.3718 114.462 16.223 114.519 16.223 114.613C16.223 114.695 16.561 114.763 16.9741 114.763C17.3872 114.763 17.7251 114.695 17.7251 114.613C17.7251 114.519 18.5764 114.462 19.9783 114.462C21.3803 114.462 22.2315 114.519 22.2315 114.613C22.2315 114.695 22.5695 114.763 22.9826 114.763C23.3957 114.763 23.7337 114.695 23.7337 114.613C23.7337 114.519 24.5849 114.462 25.9869 114.462C27.3888 114.462 28.2401 114.519 28.2401 114.613C28.2401 114.695 28.578 114.763 28.9911 114.763C29.4042 114.763 29.7422 114.695 29.7422 114.613C29.7422 114.519 30.5934 114.462 31.9954 114.462C33.3973 114.462 34.2486 114.519 34.2486 114.613C34.2486 114.695 34.5866 114.763 34.9996 114.763C35.4127 114.763 35.7507 114.695 35.7507 114.613C35.7507 114.519 36.602 114.462 38.0039 114.462C39.4058 114.462 40.2571 114.519 40.2571 114.613C40.2571 114.695 40.5951 114.763 41.0082 114.763C41.4212 114.763 41.7592 114.695 41.7592 114.613C41.7592 114.519 42.6105 114.462 44.0124 114.462C45.4144 114.462 46.2656 114.519 46.2656 114.613C46.2656 114.695 46.6036 114.763 47.0167 114.763C47.4298 114.763 47.7677 114.695 47.7677 114.613C47.7677 114.519 48.619 114.462 50.0209 114.462C51.4229 114.462 52.2741 114.519 52.2741 114.613C52.2741 114.695 52.6121 114.763 53.0252 114.763C53.4383 114.763 53.7763 114.695 53.7763 114.613C53.7763 114.519 54.6275 114.462 56.0295 114.462C57.4314 114.462 58.2827 114.519 58.2827 114.613C58.2827 114.695 58.6206 114.763 59.0337 114.763C59.4468 114.763 59.7848 114.695 59.7848 114.613C59.7848 114.519 60.636 114.462 62.038 114.462C63.4399 114.462 64.2912 114.519 64.2912 114.613C64.2912 114.695 64.6292 114.763 65.0422 114.763C65.4553 114.763 65.7933 114.695 65.7933 114.613C65.7933 114.519 66.6446 114.462 68.0465 114.462C69.4484 114.462 70.2997 114.519 70.2997 114.613C70.2997 114.695 70.6377 114.763 71.0508 114.763C71.4639 114.763 71.8018 114.695 71.8018 114.613C71.8018 114.519 72.6531 114.462 74.055 114.462C75.457 114.462 76.3082 114.519 76.3082 114.613C76.3082 114.695 76.6462 114.763 77.0593 114.763C77.4724 114.763 77.8104 114.695 77.8104 114.613C77.8104 114.519 78.6616 114.462 80.0635 114.462C81.4655 114.462 82.3167 114.519 82.3167 114.613C82.3167 114.695 82.6547 114.763 83.0678 114.763C83.4809 114.763 83.8189 114.695 83.8189 114.613C83.8189 114.519 84.6701 114.462 86.0721 114.462C87.474 114.462 88.3253 114.519 88.3253 114.613C88.3253 114.695 88.6632 114.763 89.0763 114.763C89.4894 114.763 89.8274 114.695 89.8274 114.613C89.8274 114.519 90.6787 114.462 92.0806 114.462C93.4825 114.462 94.3338 114.519 94.3338 114.613C94.3338 114.695 94.5076 114.763 94.72 114.763C95.5798 114.763 95.5355 115.559 95.5355 100.128V85.9219H90.7287H85.9219V81.115V76.3082H81.3297C77.55 76.3082 76.6994 76.3462 76.5229 76.5229C76.3462 76.6994 76.3082 77.55 76.3082 81.3297V85.9219H81.115H85.9219V95.5355V105.149H47.7677H9.61363V95.5355V85.9219H14.4205H19.2273V81.3297C19.2273 77.55 19.1893 76.6994 19.0126 76.5229C18.6961 76.2062 10.0806 76.2157 9.8014 76.5329Z" fill="#F9CC14"/>
<path d="M27.9887 67.5469L29.1083 66.0542L33.5865 63.815C34.1836 63.5165 37.0696 61.9491 38.438 61.2027L39.9307 48.8876L31.3474 41.797L25.3764 33.9601L24.6301 23.1377L32.0938 15.6739L43.6626 3.73193L55.6046 7.4638L62.6951 15.6739L67.9198 20.1522L69.4125 35.4528L59.3364 45.9021L57.0973 48.1412C56.351 48.2656 54.7836 48.589 54.485 48.8876C54.1118 49.2607 50.7531 53.3658 50.7531 53.739C50.7531 54.0375 57.7193 59.3368 61.2024 61.9491L71.2784 70.9056L84.34 83.9671C85.8327 85.4599 88.8182 88.52 88.8182 88.8186C88.8182 89.1918 90.311 92.9236 90.311 93.67V107.478L29.8547 110.837C24.6301 111.21 14.1062 111.956 13.8076 111.956C13.5091 111.956 8.20983 107.478 5.59752 105.239L3.3584 95.5359L9.32939 86.5795L27.9887 67.5469Z" fill="#F9CC14"/>
</g>
<defs>
<filter id="filter0_d" x="0" y="0" width="103.536" height="122.77" filterUnits="userSpaceOnUse" color-interpolation-filters="sRGB">
<feFlood flood-opacity="0" result="BackgroundImageFix"/>
<feColorMatrix in="SourceAlpha" type="matrix" values="0 0 0 0 0 0 0 0 0 0 0 0 0 0 0 0 0 0 127 0"/>
<feOffset dx="8" dy="8"/>
<feColorMatrix type="matrix" values="0 0 0 0 0 0 0 0 0 0.478431 0 0 0 0 0.878431 0 0 0 1 0"/>
<feBlend mode="normal" in2="BackgroundImageFix" result="effect1_dropShadow"/>
<feBlend mode="normal" in="SourceGraphic" in2="effect1_dropShadow" result="shape"/>
</filter>
</defs>
</svg>
