<svg width="3011" height="2414" viewBox="0 0 3011 2414" fill="none" xmlns="http://www.w3.org/2000/svg">
<rect x="2204.06" y="451.079" width="101.218" height="321.891" transform="rotate(-55.1647 2204.06 451.079)" fill="#CFD7A3"/>
<path fill-rule="evenodd" clip-rule="evenodd" d="M0 520.185H87.6766V2326.32H0V520.185ZM2922.55 520.185H3010.23V2326.32H2922.55V520.185ZM1291.77 2238.65H87.6768V2326.32L1209.94 2326.32V2414H1806.14V2326.32L2922.55 2326.32V2238.65H1718.46V2326.32H1291.77V2238.65Z" fill="#F9CC14"/>
<path fill-rule="evenodd" clip-rule="evenodd" d="M1461.28 263H257.185V350.677H1461.28V263ZM1461.28 2074.98V350.677H175.354V2074.98H1461.28Z" fill="#F3F3F3"/>
<path fill-rule="evenodd" clip-rule="evenodd" d="M1548.95 263H2753.05V350.677H1548.95V263ZM1548.95 2074.98V350.677H2834.88V2074.98H1548.95Z" fill="#F3F3F3"/>
<path fill-rule="evenodd" clip-rule="evenodd" d="M175.353 438.353H87.6768V2238.65H175.353V438.353ZM1367.76 2074.98H175.354V2238.65H1367.76L1367.76 2168.51H1461.28V2074.98H1367.76ZM2834.88 438.353H2922.55V2238.65H2834.88L1642.48 2238.65L1642.48 2168.51H1548.95V2074.98H1642.48H2834.88L2834.88 438.353Z" fill="#DBDBDB"/>
<path fill-rule="evenodd" clip-rule="evenodd" d="M1548.95 344.832H1461.28V2074.98V2168.51H1367.76V2238.65H1291.77V2326.32H1718.46V2238.65H1642.48V2168.51H1548.95V2074.98V344.832Z" fill="#CCCCCC"/>
<path d="M301.297 453.469V438.82H306.18V473H296.414V463.234H281.766V473H272V438.82H281.766V453.469H286.648V443.703H296.414V453.469H301.297ZM311.062 473V438.82H335.477V443.703H320.828V453.469H335.477V458.352H320.828V468.117H335.477V473H311.062ZM364.773 466.896V473H340.359V438.82H350.125V466.896H364.773ZM389.188 463.234H398.953V468.117H394.07V473H374.539V468.117H369.656V443.703H374.539V438.82H394.07V443.703H398.953V448.586H389.188V443.703H379.422V468.117H389.188V463.234ZM423.367 443.703H413.602V468.117H423.367V443.703ZM408.719 468.117H403.836V443.703H408.719V438.82H428.25V443.703H433.133V468.117H428.25V473H408.719V468.117ZM442.898 458.352V473H438.016V438.82H447.781V448.586H462.43V438.82H472.195V473H462.43V458.352H457.547V468.117H447.781V458.352H442.898ZM477.078 473V438.82H501.492V443.703H486.844V453.469H501.492V458.352H486.844V468.117H501.492V473H477.078ZM555.203 438.82V443.703H545.438V473H535.672V443.703H525.906V438.82H555.203ZM579.617 443.703H569.852V468.117H579.617V443.703ZM564.969 468.117H560.086V443.703H564.969V438.82H584.5V443.703H589.383V468.117H584.5V473H564.969V468.117ZM618.68 458.352V473H613.797V438.82H623.562V448.586H638.211V438.82H647.977V473H638.211V458.352H633.328V468.117H623.562V458.352H618.68ZM672.391 453.469V438.82H682.156V453.469H677.273V458.352H672.391V473H662.625V458.352H657.742V453.469H652.859V438.82H662.625V453.469H672.391ZM735.867 453.469V438.82H740.75V473H730.984V463.234H716.336V473H706.57V438.82H716.336V453.469H721.219V443.703H730.984V453.469H735.867ZM745.633 473V438.82H770.047V443.703H755.398V453.469H770.047V458.352H755.398V468.117H770.047V473H745.633ZM794.461 443.703H784.695V453.469H794.461V443.703ZM774.93 473V438.82H799.344V443.703H804.227V453.469H799.344V458.352H804.227V468.117H799.344V473H774.93ZM794.461 468.117V458.352H784.695V468.117H794.461ZM828.641 443.703H818.875V453.469H833.523V458.352H838.406V468.117H833.523V473H813.992V468.117H809.109V463.234H818.875V468.117H828.641V458.352H813.992V453.469H809.109V443.703H813.992V438.82H833.523V443.703H838.406V448.586H828.641V443.703ZM843.289 473V438.82H853.055V473H843.289ZM887.234 438.82V443.703H877.469V473H867.703V443.703H857.938V438.82H887.234ZM892.117 473V438.82H916.531V443.703H901.883V453.469H916.531V458.352H901.883V468.117H916.531V473H892.117ZM921.414 477.883V468.117H926.297V477.883H921.414ZM955.594 458.352V473H950.711V438.82H960.477V448.586H975.125V438.82H984.891V473H975.125V458.352H970.242V468.117H960.477V458.352H955.594ZM1009.3 453.469V438.82H1019.07V453.469H1014.19V458.352H1009.3V473H999.539V458.352H994.656V453.469H989.773V438.82H999.539V453.469H1009.3ZM1048.37 458.352V473H1043.48V438.82H1053.25V448.586H1058.13V458.352H1063.02V438.82H1072.78V473H1063.02V468.117H1053.25V458.352H1048.37ZM1097.2 458.352V443.703H1087.43V458.352H1097.2ZM1087.43 463.234V473H1077.66V443.703H1082.55V438.82H1102.08V443.703H1106.96V473H1097.2V463.234H1087.43ZM1116.73 458.352V473H1111.84V438.82H1121.61V448.586H1136.26V438.82H1146.02V473H1136.26V458.352H1131.38V468.117H1121.61V458.352H1116.73ZM1150.91 473V438.82H1175.32V443.703H1160.67V453.469H1175.32V458.352H1160.67V468.117H1175.32V473H1150.91ZM1199.73 473V438.82H1209.5V473H1199.73ZM1233.91 443.703H1224.15V453.469H1238.8V458.352H1243.68V468.117H1238.8V473H1219.27V468.117H1214.38V463.234H1224.15V468.117H1233.91V458.352H1219.27V453.469H1214.38V443.703H1219.27V438.82H1238.8V443.703H1243.68V448.586H1233.91V443.703ZM291.531 538.352V523.703H281.766V538.352H291.531ZM281.766 543.234V553H272V523.703H276.883V518.82H296.414V523.703H301.297V553H291.531V543.234H281.766ZM325.711 523.703H315.945V533.469H325.711V523.703ZM330.594 538.352H335.477V553H325.711V538.352H315.945V553H306.18V518.82H330.594V523.703H335.477V533.469H330.594V538.352ZM359.891 523.703H350.125V533.469H364.773V538.352H369.656V548.117H364.773V553H345.242V548.117H340.359V543.234H350.125V548.117H359.891V538.352H345.242V533.469H340.359V523.703H345.242V518.82H364.773V523.703H369.656V528.586H359.891V523.703ZM394.07 518.82H403.836V553H394.07V538.352H384.305V553H374.539V518.82H384.305V533.469H394.07V518.82ZM428.25 538.352V523.703H418.484V538.352H428.25ZM418.484 543.234V553H408.719V523.703H413.602V518.82H433.133V523.703H438.016V553H428.25V543.234H418.484ZM447.781 538.352V553H442.898V518.82H452.664V528.586H467.312V518.82H477.078V553H467.312V538.352H462.43V548.117H452.664V538.352H447.781ZM521.023 523.703H511.258V533.469H525.906V538.352H530.789V548.117H525.906V553H506.375V548.117H501.492V543.234H511.258V548.117H521.023V538.352H506.375V533.469H501.492V523.703H506.375V518.82H525.906V523.703H530.789V528.586H521.023V523.703ZM555.203 518.82H564.969V553H555.203V538.352H545.438V553H535.672V518.82H545.438V533.469H555.203V518.82ZM569.852 553V518.82H579.617V553H569.852ZM604.031 523.703H594.266V533.469H604.031V523.703ZM608.914 538.352H613.797V553H604.031V538.352H594.266V553H584.5V518.82H608.914V523.703H613.797V533.469H608.914V538.352ZM628.445 553H618.68V518.82H628.445V533.469H633.328V528.586H638.211V518.82H647.977V528.586H643.094V533.469H638.211V538.352H643.094V543.234H647.977V553H638.211V543.234H633.328V538.352H628.445V553ZM672.391 523.703H662.625V548.117H672.391V523.703ZM657.742 548.117H652.859V523.703H657.742V518.82H677.273V523.703H682.156V548.117H677.273V553H657.742V548.117ZM706.57 518.82H716.336V553H691.922V548.117H687.039V518.82H696.805V548.117H706.57V518.82ZM740.75 518.82H750.516V553H740.75V538.352H730.984V553H721.219V518.82H730.984V533.469H740.75V518.82ZM755.398 553V518.82H765.164V553H755.398ZM770.047 553V548.117H774.93V553H770.047ZM272 633V598.82H281.766V633H272ZM325.711 603.703H315.945V613.469H330.594V618.352H335.477V628.117H330.594V633H311.062V628.117H306.18V623.234H315.945V628.117H325.711V618.352H311.062V613.469H306.18V603.703H311.062V598.82H330.594V603.703H335.477V608.586H325.711V603.703ZM359.891 603.703H350.125V613.469H359.891V603.703ZM364.773 613.469V618.352H350.125V633H340.359V598.82H364.773V603.703H369.656V613.469H364.773ZM374.539 633V598.82H398.953V603.703H384.305V613.469H398.953V618.352H384.305V628.117H398.953V633H374.539ZM423.367 623.234H433.133V628.117H428.25V633H408.719V628.117H403.836V603.703H408.719V598.82H428.25V603.703H433.133V608.586H423.367V603.703H413.602V628.117H423.367V623.234ZM438.016 633V598.82H447.781V633H438.016ZM472.195 618.352V603.703H462.43V618.352H472.195ZM462.43 623.234V633H452.664V603.703H457.547V598.82H477.078V603.703H481.961V633H472.195V623.234H462.43ZM511.258 626.896V633H486.844V598.82H496.609V626.896H511.258ZM516.141 633V598.82H525.906V633H516.141ZM550.32 603.703H540.555V613.469H555.203V618.352H560.086V628.117H555.203V633H535.672V628.117H530.789V623.234H540.555V628.117H550.32V618.352H535.672V613.469H530.789V603.703H535.672V598.82H555.203V603.703H560.086V608.586H550.32V603.703ZM564.969 633V598.82H589.383V603.703H574.734V613.469H589.383V618.352H574.734V628.117H589.383V633H564.969ZM613.797 633V598.82H623.562V633H613.797ZM633.328 618.352V633H628.445V598.82H638.211V608.586H643.094V618.352H647.977V598.82H657.742V633H647.977V628.117H638.211V618.352H633.328ZM682.156 633V598.82H691.922V633H682.156ZM701.688 618.352V633H696.805V598.82H706.57V608.586H711.453V618.352H716.336V598.82H726.102V633H716.336V628.117H706.57V618.352H701.688ZM735.867 618.352V633H730.984V598.82H740.75V608.586H745.633V618.352H750.516V598.82H760.281V633H750.516V628.117H740.75V618.352H735.867ZM784.695 603.703H774.93V628.117H784.695V603.703ZM770.047 628.117H765.164V603.703H770.047V598.82H789.578V603.703H794.461V628.117H789.578V633H770.047V628.117ZM818.875 623.234V598.82H828.641V623.234H823.758V628.117H818.875V633H809.109V628.117H804.227V623.234H799.344V598.82H809.109V623.234H818.875ZM853.055 618.352V603.703H843.289V618.352H853.055ZM843.289 623.234V633H833.523V603.703H838.406V598.82H857.938V603.703H862.82V633H853.055V623.234H843.289ZM897 598.82V603.703H887.234V633H877.469V603.703H867.703V598.82H897ZM901.883 633V598.82H911.648V633H901.883ZM936.062 623.234V598.82H945.828V623.234H940.945V628.117H936.062V633H926.297V628.117H921.414V623.234H916.531V598.82H926.297V623.234H936.062ZM950.711 633V598.82H975.125V603.703H960.477V613.469H975.125V618.352H960.477V628.117H975.125V633H950.711ZM1028.84 613.469V598.82H1033.72V633H1023.95V623.234H1009.3V633H999.539V598.82H1009.3V613.469H1014.19V603.703H1023.95V613.469H1028.84ZM1038.6 633V598.82H1063.02V603.703H1048.37V613.469H1063.02V618.352H1048.37V628.117H1063.02V633H1038.6ZM1087.43 603.703H1077.66V613.469H1087.43V603.703ZM1067.9 633V598.82H1092.31V603.703H1097.2V613.469H1092.31V618.352H1097.2V628.117H1092.31V633H1067.9ZM1087.43 628.117V618.352H1077.66V628.117H1087.43ZM1141.14 618.352V603.703H1131.38V618.352H1141.14ZM1131.38 623.234V633H1121.61V603.703H1126.49V598.82H1146.02V603.703H1150.91V633H1141.14V623.234H1131.38ZM1160.67 618.352V633H1155.79V598.82H1165.55V608.586H1170.44V618.352H1175.32V598.82H1185.09V633H1175.32V628.117H1165.55V618.352H1160.67ZM1209.5 603.703H1199.73V628.117H1209.5V603.703ZM1189.97 633V598.82H1214.38V603.703H1219.27V628.117H1214.38V633H1189.97ZM1263.21 628.728V633H1248.56V628.117H1243.68V603.703H1248.56V598.82H1272.98V608.586H1268.09V603.703H1253.45V628.117H1262.6L1263.21 627.507V618.352H1258.33V613.469H1272.98V633H1268.09V628.117H1263.82L1263.21 628.728ZM1297.39 618.352V603.703H1287.62V618.352H1297.39ZM1287.62 623.234V633H1277.86V603.703H1282.74V598.82H1302.27V603.703H1307.16V633H1297.39V623.234H1287.62ZM1316.92 618.352V633H1312.04V598.82H1321.8V608.586H1336.45V598.82H1346.22V633H1336.45V618.352H1331.57V628.117H1321.8V618.352H1316.92ZM1351.1 633V598.82H1375.52V603.703H1360.87V613.469H1375.52V618.352H1360.87V628.117H1375.52V633H1351.1ZM291.531 683.703H281.766V708.117H291.531V683.703ZM272 713V678.82H296.414V683.703H301.297V708.117H296.414V713H272ZM306.18 713V678.82H330.594V683.703H315.945V693.469H330.594V698.352H315.945V708.117H330.594V713H306.18ZM355.008 703.234V678.82H364.773V703.234H359.891V708.117H355.008V713H345.242V708.117H340.359V703.234H335.477V678.82H345.242V703.234H355.008ZM369.656 713V678.82H394.07V683.703H379.422V693.469H394.07V698.352H379.422V708.117H394.07V713H369.656ZM423.367 706.896V713H398.953V678.82H408.719V706.896H423.367ZM447.781 683.703H438.016V708.117H447.781V683.703ZM433.133 708.117H428.25V683.703H433.133V678.82H452.664V683.703H457.547V708.117H452.664V713H433.133V708.117ZM481.961 683.703H472.195V693.469H481.961V683.703ZM486.844 693.469V698.352H472.195V713H462.43V678.82H486.844V683.703H491.727V693.469H486.844ZM501.492 698.352V713H496.609V678.82H506.375V688.586H521.023V678.82H530.789V713H521.023V698.352H516.141V708.117H506.375V698.352H501.492ZM535.672 713V678.82H560.086V683.703H545.438V693.469H560.086V698.352H545.438V708.117H560.086V713H535.672ZM569.852 698.352V713H564.969V678.82H574.734V688.586H579.617V698.352H584.5V678.82H594.266V713H584.5V708.117H574.734V698.352H569.852ZM628.445 678.82V683.703H618.68V713H608.914V683.703H599.148V678.82H628.445ZM633.328 713V708.117H638.211V713H633.328ZM687.039 678.82V683.703H672.391V693.469H687.039V698.352H672.391V713H662.625V678.82H687.039ZM711.453 683.703H701.688V708.117H711.453V683.703ZM696.805 708.117H691.922V683.703H696.805V678.82H716.336V683.703H721.219V708.117H716.336V713H696.805V708.117ZM745.633 683.703H735.867V693.469H745.633V683.703ZM750.516 698.352H755.398V713H745.633V698.352H735.867V713H726.102V678.82H750.516V683.703H755.398V693.469H750.516V698.352ZM784.695 698.352V713H779.812V678.82H789.578V688.586H804.227V678.82H813.992V713H804.227V698.352H799.344V708.117H789.578V698.352H784.695ZM838.406 683.703H828.641V708.117H838.406V683.703ZM823.758 708.117H818.875V683.703H823.758V678.82H843.289V683.703H848.172V708.117H843.289V713H823.758V708.117ZM872.586 683.703H862.82V693.469H872.586V683.703ZM877.469 698.352H882.352V713H872.586V698.352H862.82V713H853.055V678.82H877.469V683.703H882.352V693.469H877.469V698.352ZM887.234 713V678.82H911.648V683.703H897V693.469H911.648V698.352H897V708.117H911.648V713H887.234ZM965.359 678.82V683.703H955.594V713H945.828V683.703H936.062V678.82H965.359ZM989.773 678.82H999.539V713H989.773V698.352H980.008V713H970.242V678.82H980.008V693.469H989.773V678.82ZM1023.95 698.352V683.703H1014.19V698.352H1023.95ZM1014.19 703.234V713H1004.42V683.703H1009.3V678.82H1028.84V683.703H1033.72V713H1023.95V703.234H1014.19ZM1043.48 698.352V713H1038.6V678.82H1048.37V688.586H1053.25V698.352H1058.13V678.82H1067.9V713H1058.13V708.117H1048.37V698.352H1043.48ZM1116.73 683.703H1102.08V688.586H1116.73V693.469H1121.61V708.117H1116.73V713H1097.2V708.117H1092.31V698.352H1102.08V708.117H1111.84V693.469H1092.31V678.82H1116.73V683.703ZM1165.55 693.469V678.82H1175.32V693.469H1170.44V698.352H1165.55V713H1155.79V698.352H1150.91V693.469H1146.02V678.82H1155.79V693.469H1165.55ZM1180.2 713V678.82H1204.62V683.703H1189.97V693.469H1204.62V698.352H1189.97V708.117H1204.62V713H1180.2ZM1229.03 698.352V683.703H1219.27V698.352H1229.03ZM1219.27 703.234V713H1209.5V683.703H1214.38V678.82H1233.91V683.703H1238.8V713H1229.03V703.234H1219.27ZM1263.21 683.703H1253.45V693.469H1263.21V683.703ZM1268.09 698.352H1272.98V713H1263.21V698.352H1253.45V713H1243.68V678.82H1268.09V683.703H1272.98V693.469H1268.09V698.352ZM1297.39 683.703H1287.62V693.469H1302.27V698.352H1307.16V708.117H1302.27V713H1282.74V708.117H1277.86V703.234H1287.62V708.117H1297.39V698.352H1282.74V693.469H1277.86V683.703H1282.74V678.82H1302.27V683.703H1307.16V688.586H1297.39V683.703ZM1331.57 713V678.82H1341.34V713H1331.57ZM291.531 758.82H301.297V793H291.531V778.352H281.766V793H272V758.82H281.766V773.469H291.531V758.82ZM325.711 778.352V763.703H315.945V778.352H325.711ZM315.945 783.234V793H306.18V763.703H311.062V758.82H330.594V763.703H335.477V793H325.711V783.234H315.945ZM359.891 783.234V758.82H369.656V783.234H364.773V788.117H359.891V793H350.125V788.117H345.242V783.234H340.359V758.82H350.125V783.234H359.891ZM374.539 793V758.82H398.953V763.703H384.305V773.469H398.953V778.352H384.305V788.117H398.953V793H374.539ZM447.781 758.82V763.703H433.133V773.469H447.781V778.352H433.133V793H423.367V758.82H447.781ZM472.195 763.703H462.43V788.117H472.195V763.703ZM457.547 788.117H452.664V763.703H457.547V758.82H477.078V763.703H481.961V788.117H477.078V793H457.547V788.117ZM506.375 783.234H516.141V788.117H511.258V793H491.727V788.117H486.844V763.703H491.727V758.82H511.258V763.703H516.141V768.586H506.375V763.703H496.609V788.117H506.375V783.234ZM540.555 758.82H550.32V793H525.906V788.117H521.023V758.82H530.789V788.117H540.555V758.82ZM574.734 763.703H564.969V773.469H579.617V778.352H584.5V788.117H579.617V793H560.086V788.117H555.203V783.234H564.969V788.117H574.734V778.352H560.086V773.469H555.203V763.703H560.086V758.82H579.617V763.703H584.5V768.586H574.734V763.703ZM589.383 793V758.82H613.797V763.703H599.148V773.469H613.797V778.352H599.148V788.117H613.797V793H589.383ZM638.211 763.703H628.445V788.117H638.211V763.703ZM618.68 793V758.82H643.094V763.703H647.977V788.117H643.094V793H618.68ZM691.922 763.703H682.156V788.117H691.922V763.703ZM677.273 788.117H672.391V763.703H677.273V758.82H696.805V763.703H701.688V788.117H696.805V793H677.273V788.117ZM711.453 778.352V793H706.57V758.82H716.336V768.586H721.219V778.352H726.102V758.82H735.867V793H726.102V788.117H716.336V778.352H711.453ZM779.812 758.82H789.578V793H779.812V778.352H770.047V793H760.281V758.82H770.047V773.469H779.812V758.82ZM813.992 763.703H804.227V788.117H813.992V763.703ZM799.344 788.117H794.461V763.703H799.344V758.82H818.875V763.703H823.758V788.117H818.875V793H799.344V788.117ZM833.523 778.352V793H828.641V758.82H838.406V768.586H843.289V778.352H848.172V758.82H857.938V793H848.172V788.117H838.406V778.352H833.523ZM862.82 793V758.82H872.586V793H862.82ZM882.352 778.352V793H877.469V758.82H887.234V768.586H892.117V778.352H897V758.82H906.766V793H897V788.117H887.234V778.352H882.352ZM931.18 788.728V793H916.531V788.117H911.648V763.703H916.531V758.82H940.945V768.586H936.062V763.703H921.414V788.117H930.569L931.18 787.507V778.352H926.297V773.469H940.945V793H936.062V788.117H931.79L931.18 788.728ZM970.242 778.352V793H965.359V758.82H975.125V768.586H989.773V758.82H999.539V793H989.773V778.352H984.891V788.117H975.125V778.352H970.242ZM1023.95 773.469V758.82H1033.72V773.469H1028.84V778.352H1023.95V793H1014.19V778.352H1009.3V773.469H1004.42V758.82H1014.19V773.469H1023.95ZM1077.66 763.703H1067.9V773.469H1082.55V778.352H1087.43V788.117H1082.55V793H1063.02V788.117H1058.13V783.234H1067.9V788.117H1077.66V778.352H1063.02V773.469H1058.13V763.703H1063.02V758.82H1082.55V763.703H1087.43V768.586H1077.66V763.703ZM1102.08 793H1092.31V758.82H1102.08V773.469H1106.96V768.586H1111.84V758.82H1121.61V768.586H1116.73V773.469H1111.84V778.352H1116.73V783.234H1121.61V793H1111.84V783.234H1106.96V778.352H1102.08V793ZM1126.49 793V758.82H1136.26V793H1126.49ZM1165.55 786.896V793H1141.14V758.82H1150.91V786.896H1165.55ZM1194.85 786.896V793H1170.44V758.82H1180.2V786.896H1194.85ZM1219.27 763.703H1209.5V773.469H1224.15V778.352H1229.03V788.117H1224.15V793H1204.62V788.117H1199.73V783.234H1209.5V788.117H1219.27V778.352H1204.62V773.469H1199.73V763.703H1204.62V758.82H1224.15V763.703H1229.03V768.586H1219.27V763.703ZM1253.45 793V758.82H1263.21V793H1253.45ZM1272.98 778.352V793H1268.09V758.82H1277.86V768.586H1282.74V778.352H1287.62V758.82H1297.39V793H1287.62V788.117H1277.86V778.352H1272.98ZM291.531 843.703H281.766V853.469H291.531V843.703ZM296.414 853.469V858.352H281.766V873H272V838.82H296.414V843.703H301.297V853.469H296.414ZM325.711 843.703H315.945V853.469H325.711V843.703ZM330.594 858.352H335.477V873H325.711V858.352H315.945V873H306.18V838.82H330.594V843.703H335.477V853.469H330.594V858.352ZM359.891 843.703H350.125V868.117H359.891V843.703ZM345.242 868.117H340.359V843.703H345.242V838.82H364.773V843.703H369.656V868.117H364.773V873H345.242V868.117ZM394.07 868.728V873H379.422V868.117H374.539V843.703H379.422V838.82H403.836V848.586H398.953V843.703H384.305V868.117H393.46L394.07 867.507V858.352H389.188V853.469H403.836V873H398.953V868.117H394.681L394.07 868.728ZM428.25 843.703H418.484V853.469H428.25V843.703ZM433.133 858.352H438.016V873H428.25V858.352H418.484V873H408.719V838.82H433.133V843.703H438.016V853.469H433.133V858.352ZM462.43 858.352V843.703H452.664V858.352H462.43ZM452.664 863.234V873H442.898V843.703H447.781V838.82H467.312V843.703H472.195V873H462.43V863.234H452.664ZM481.961 858.352V873H477.078V838.82H486.844V848.586H501.492V838.82H511.258V873H501.492V858.352H496.609V868.117H486.844V858.352H481.961ZM521.023 858.352V873H516.141V838.82H525.906V848.586H540.555V838.82H550.32V873H540.555V858.352H535.672V868.117H525.906V858.352H521.023ZM555.203 873V838.82H564.969V873H555.203ZM574.734 858.352V873H569.852V838.82H579.617V848.586H584.5V858.352H589.383V838.82H599.148V873H589.383V868.117H579.617V858.352H574.734ZM623.562 868.728V873H608.914V868.117H604.031V843.703H608.914V838.82H633.328V848.586H628.445V843.703H613.797V868.117H622.952L623.562 867.507V858.352H618.68V853.469H633.328V873H628.445V868.117H624.173L623.562 868.728ZM657.742 873V838.82H667.508V873H657.742ZM677.273 858.352V873H672.391V838.82H682.156V848.586H687.039V858.352H691.922V838.82H701.688V873H691.922V868.117H682.156V858.352H677.273ZM745.633 843.703H735.867V853.469H745.633V843.703ZM750.516 853.469V858.352H735.867V873H726.102V838.82H750.516V843.703H755.398V853.469H750.516ZM779.812 853.469V838.82H789.578V853.469H784.695V858.352H779.812V873H770.047V858.352H765.164V853.469H760.281V838.82H770.047V853.469H779.812ZM823.758 838.82V843.703H813.992V873H804.227V843.703H794.461V838.82H823.758ZM848.172 838.82H857.938V873H848.172V858.352H838.406V873H828.641V838.82H838.406V853.469H848.172V838.82ZM882.352 843.703H872.586V868.117H882.352V843.703ZM867.703 868.117H862.82V843.703H867.703V838.82H887.234V843.703H892.117V868.117H887.234V873H867.703V868.117ZM901.883 858.352V873H897V838.82H906.766V848.586H911.648V858.352H916.531V838.82H926.297V873H916.531V868.117H906.766V858.352H901.883ZM931.18 877.883V868.117H936.062V877.883H931.18ZM975.125 838.82H984.891V868.117H980.008V873H960.477V863.234H965.359V868.117H975.125V838.82ZM1009.3 858.352V843.703H999.539V858.352H1009.3ZM999.539 863.234V873H989.773V843.703H994.656V838.82H1014.19V843.703H1019.07V873H1009.3V863.234H999.539ZM1043.48 863.234V838.82H1053.25V863.234H1048.37V868.117H1043.48V873H1033.72V868.117H1028.84V863.234H1023.95V838.82H1033.72V863.234H1043.48ZM1077.66 858.352V843.703H1067.9V858.352H1077.66ZM1067.9 863.234V873H1058.13V843.703H1063.02V838.82H1082.55V843.703H1087.43V873H1077.66V863.234H1067.9ZM1111.84 843.703H1102.08V853.469H1116.73V858.352H1121.61V868.117H1116.73V873H1097.2V868.117H1092.31V863.234H1102.08V868.117H1111.84V858.352H1097.2V853.469H1092.31V843.703H1097.2V838.82H1116.73V843.703H1121.61V848.586H1111.84V843.703ZM1146.02 863.234H1155.79V868.117H1150.91V873H1131.38V868.117H1126.49V843.703H1131.38V838.82H1150.91V843.703H1155.79V848.586H1146.02V843.703H1136.26V868.117H1146.02V863.234ZM1180.2 843.703H1170.44V853.469H1180.2V843.703ZM1185.09 858.352H1189.97V873H1180.2V858.352H1170.44V873H1160.67V838.82H1185.09V843.703H1189.97V853.469H1185.09V858.352ZM1194.85 873V838.82H1204.62V873H1194.85ZM1229.03 843.703H1219.27V853.469H1229.03V843.703ZM1233.91 853.469V858.352H1219.27V873H1209.5V838.82H1233.91V843.703H1238.8V853.469H1233.91ZM1272.98 838.82V843.703H1263.21V873H1253.45V843.703H1243.68V838.82H1272.98ZM1277.86 877.883V868.117H1282.74V877.883H1277.86ZM1326.69 863.234H1336.45V868.117H1331.57V873H1312.04V868.117H1307.16V843.703H1312.04V838.82H1331.57V843.703H1336.45V848.586H1326.69V843.703H1316.92V868.117H1326.69V863.234ZM1355.98 863.234H1351.1V868.117H1346.22V863.234H1341.34V858.352H1346.22V853.469H1341.34V848.586H1346.22V843.703H1351.1V848.586H1355.98V843.703H1360.87V848.586H1365.75V853.469H1360.87V858.352H1365.75V863.234H1360.87V868.117H1355.98V863.234ZM1351.1 858.352H1355.98V853.469H1351.1V858.352ZM291.531 938.352V923.703H281.766V938.352H291.531ZM281.766 943.234V953H272V923.703H276.883V918.82H296.414V923.703H301.297V953H291.531V943.234H281.766ZM311.062 938.352V953H306.18V918.82H315.945V928.586H320.828V938.352H325.711V918.82H335.477V953H325.711V948.117H315.945V938.352H311.062ZM359.891 923.703H350.125V948.117H359.891V923.703ZM340.359 953V918.82H364.773V923.703H369.656V948.117H364.773V953H340.359ZM413.602 918.82H423.367V953H413.602V938.352H403.836V953H394.07V918.82H403.836V933.469H413.602V918.82ZM457.547 918.82V923.703H447.781V953H438.016V923.703H428.25V918.82H457.547ZM467.312 938.352V953H462.43V918.82H472.195V928.586H486.844V918.82H496.609V953H486.844V938.352H481.961V948.117H472.195V938.352H467.312ZM525.906 946.896V953H501.492V918.82H511.258V946.896H525.906ZM530.789 953V948.117H535.672V953H530.789ZM301.297 1078.82V1083.7H291.531V1113H281.766V1083.7H272V1078.82H301.297ZM325.711 1078.82H335.477V1113H325.711V1098.35H315.945V1113H306.18V1078.82H315.945V1093.47H325.711V1078.82ZM359.891 1083.7H350.125V1093.47H359.891V1083.7ZM364.773 1098.35H369.656V1113H359.891V1098.35H350.125V1113H340.359V1078.82H364.773V1083.7H369.656V1093.47H364.773V1098.35ZM394.07 1083.7H384.305V1108.12H394.07V1083.7ZM379.422 1108.12H374.539V1083.7H379.422V1078.82H398.953V1083.7H403.836V1108.12H398.953V1113H379.422V1108.12ZM428.25 1078.82H438.016V1113H413.602V1108.12H408.719V1078.82H418.484V1108.12H428.25V1078.82ZM462.43 1108.73V1113H447.781V1108.12H442.898V1083.7H447.781V1078.82H472.195V1088.59H467.312V1083.7H452.664V1108.12H461.819L462.43 1107.51V1098.35H457.547V1093.47H472.195V1113H467.312V1108.12H463.04L462.43 1108.73ZM496.609 1078.82H506.375V1113H496.609V1098.35H486.844V1113H477.078V1078.82H486.844V1093.47H496.609V1078.82ZM550.32 1083.7H540.555V1093.47H550.32V1083.7ZM530.789 1113V1078.82H555.203V1083.7H560.086V1093.47H555.203V1098.35H560.086V1108.12H555.203V1113H530.789ZM550.32 1108.12V1098.35H540.555V1108.12H550.32ZM584.5 1083.7H574.734V1093.47H584.5V1083.7ZM589.383 1098.35H594.266V1113H584.5V1098.35H574.734V1113H564.969V1078.82H589.383V1083.7H594.266V1093.47H589.383V1098.35ZM618.68 1098.35V1083.7H608.914V1098.35H618.68ZM608.914 1103.23V1113H599.148V1083.7H604.031V1078.82H623.562V1083.7H628.445V1113H618.68V1103.23H608.914ZM633.328 1113V1078.82H643.094V1113H633.328ZM652.859 1098.35V1113H647.977V1078.82H657.742V1088.59H662.625V1098.35H667.508V1078.82H677.273V1113H667.508V1108.12H657.742V1098.35H652.859ZM701.688 1083.7H691.922V1093.47H706.57V1098.35H711.453V1108.12H706.57V1113H687.039V1108.12H682.156V1103.23H691.922V1108.12H701.688V1098.35H687.039V1093.47H682.156V1083.7H687.039V1078.82H706.57V1083.7H711.453V1088.59H701.688V1083.7ZM745.633 1078.82V1083.7H735.867V1113H726.102V1083.7H716.336V1078.82H745.633ZM770.047 1083.7H760.281V1108.12H770.047V1083.7ZM755.398 1108.12H750.516V1083.7H755.398V1078.82H774.93V1083.7H779.812V1108.12H774.93V1113H755.398V1108.12ZM804.227 1083.7H794.461V1093.47H804.227V1083.7ZM809.109 1098.35H813.992V1113H804.227V1098.35H794.461V1113H784.695V1078.82H809.109V1083.7H813.992V1093.47H809.109V1098.35ZM823.758 1098.35V1113H818.875V1078.82H828.641V1088.59H843.289V1078.82H853.055V1113H843.289V1098.35H838.406V1108.12H828.641V1098.35H823.758ZM857.938 1113V1078.82H867.703V1113H857.938ZM877.469 1098.35V1113H872.586V1078.82H882.352V1088.59H887.234V1098.35H892.117V1078.82H901.883V1113H892.117V1108.12H882.352V1098.35H877.469ZM926.297 1108.73V1113H911.648V1108.12H906.766V1083.7H911.648V1078.82H936.062V1088.59H931.18V1083.7H916.531V1108.12H925.687L926.297 1107.51V1098.35H921.414V1093.47H936.062V1113H931.18V1108.12H926.907L926.297 1108.73ZM940.945 1117.88V1108.12H945.828V1117.88H940.945ZM989.773 1103.23H999.539V1108.12H994.656V1113H975.125V1108.12H970.242V1083.7H975.125V1078.82H994.656V1083.7H999.539V1088.59H989.773V1083.7H980.008V1108.12H989.773V1103.23ZM1023.95 1083.7H1014.19V1093.47H1023.95V1083.7ZM1028.84 1098.35H1033.72V1113H1023.95V1098.35H1014.19V1113H1004.42V1078.82H1028.84V1083.7H1033.72V1093.47H1028.84V1098.35ZM1038.6 1113V1078.82H1063.02V1083.7H1048.37V1093.47H1063.02V1098.35H1048.37V1108.12H1063.02V1113H1038.6ZM1087.43 1098.35V1083.7H1077.66V1098.35H1087.43ZM1077.66 1103.23V1113H1067.9V1083.7H1072.78V1078.82H1092.31V1083.7H1097.2V1113H1087.43V1103.23H1077.66ZM1131.38 1078.82V1083.7H1121.61V1113H1111.84V1083.7H1102.08V1078.82H1131.38ZM1136.26 1113V1078.82H1146.02V1113H1136.26ZM1170.44 1103.23V1078.82H1180.2V1103.23H1175.32V1108.12H1170.44V1113H1160.67V1108.12H1155.79V1103.23H1150.91V1078.82H1160.67V1103.23H1170.44ZM1185.09 1113V1078.82H1209.5V1083.7H1194.85V1093.47H1209.5V1098.35H1194.85V1108.12H1209.5V1113H1185.09ZM291.531 1163.7H281.766V1173.47H291.531V1163.7ZM296.414 1173.47V1178.35H281.766V1193H272V1158.82H296.414V1163.7H301.297V1173.47H296.414ZM325.711 1163.7H315.945V1173.47H325.711V1163.7ZM330.594 1178.35H335.477V1193H325.711V1178.35H315.945V1193H306.18V1158.82H330.594V1163.7H335.477V1173.47H330.594V1178.35ZM359.891 1163.7H350.125V1188.12H359.891V1163.7ZM345.242 1188.12H340.359V1163.7H345.242V1158.82H364.773V1163.7H369.656V1188.12H364.773V1193H345.242V1188.12ZM394.07 1163.7H384.305V1188.12H394.07V1163.7ZM374.539 1193V1158.82H398.953V1163.7H403.836V1188.12H398.953V1193H374.539ZM428.25 1158.82H438.016V1193H413.602V1188.12H408.719V1158.82H418.484V1188.12H428.25V1158.82ZM462.43 1183.23H472.195V1188.12H467.312V1193H447.781V1188.12H442.898V1163.7H447.781V1158.82H467.312V1163.7H472.195V1168.59H462.43V1163.7H452.664V1188.12H462.43V1183.23ZM506.375 1158.82V1163.7H496.609V1193H486.844V1163.7H477.078V1158.82H506.375ZM511.258 1193V1158.82H521.023V1193H511.258ZM545.438 1163.7H535.672V1188.12H545.438V1163.7ZM530.789 1188.12H525.906V1163.7H530.789V1158.82H550.32V1163.7H555.203V1188.12H550.32V1193H530.789V1188.12ZM564.969 1178.35V1193H560.086V1158.82H569.852V1168.59H574.734V1178.35H579.617V1158.82H589.383V1193H579.617V1188.12H569.852V1178.35H564.969ZM633.328 1178.35V1163.7H623.562V1178.35H633.328ZM623.562 1183.23V1193H613.797V1163.7H618.68V1158.82H638.211V1163.7H643.094V1193H633.328V1183.23H623.562ZM652.859 1178.35V1193H647.977V1158.82H657.742V1168.59H662.625V1178.35H667.508V1158.82H677.273V1193H667.508V1188.12H657.742V1178.35H652.859ZM701.688 1163.7H691.922V1188.12H701.688V1163.7ZM682.156 1193V1158.82H706.57V1163.7H711.453V1188.12H706.57V1193H682.156ZM755.398 1178.35V1163.7H745.633V1178.35H755.398ZM745.633 1183.23V1193H735.867V1163.7H740.75V1158.82H760.281V1163.7H765.164V1193H755.398V1183.23H745.633ZM809.109 1163.7H799.344V1173.47H813.992V1178.35H818.875V1188.12H813.992V1193H794.461V1188.12H789.578V1183.23H799.344V1188.12H809.109V1178.35H794.461V1173.47H789.578V1163.7H794.461V1158.82H813.992V1163.7H818.875V1168.59H809.109V1163.7ZM823.758 1193V1158.82H848.172V1163.7H833.523V1173.47H848.172V1178.35H833.523V1188.12H848.172V1193H823.758ZM857.938 1178.35V1193H853.055V1158.82H862.82V1168.59H867.703V1178.35H872.586V1158.82H882.352V1193H872.586V1188.12H862.82V1178.35H857.938ZM906.766 1163.7H897V1173.47H911.648V1178.35H916.531V1188.12H911.648V1193H892.117V1188.12H887.234V1183.23H897V1188.12H906.766V1178.35H892.117V1173.47H887.234V1163.7H892.117V1158.82H911.648V1163.7H916.531V1168.59H906.766V1163.7ZM921.414 1193V1158.82H945.828V1163.7H931.18V1173.47H945.828V1178.35H931.18V1188.12H945.828V1193H921.414ZM989.773 1163.7H980.008V1188.12H989.773V1163.7ZM975.125 1188.12H970.242V1163.7H975.125V1158.82H994.656V1163.7H999.539V1188.12H994.656V1193H975.125V1188.12ZM1028.84 1158.82V1163.7H1014.19V1173.47H1028.84V1178.35H1014.19V1193H1004.42V1158.82H1028.84ZM1077.66 1158.82V1163.7H1063.02V1173.47H1077.66V1178.35H1063.02V1193H1053.25V1158.82H1077.66ZM1102.08 1158.82H1111.84V1193H1087.43V1188.12H1082.55V1158.82H1092.31V1188.12H1102.08V1158.82ZM1121.61 1178.35V1193H1116.73V1158.82H1126.49V1168.59H1131.38V1178.35H1136.26V1158.82H1146.02V1193H1136.26V1188.12H1126.49V1178.35H1121.61ZM1150.91 1197.88V1188.12H1155.79V1197.88H1150.91ZM1180.2 1193V1158.82H1189.97V1193H1180.2ZM1224.15 1158.82V1163.7H1214.38V1193H1204.62V1163.7H1194.85V1158.82H1224.15ZM1248.56 1193V1158.82H1258.33V1193H1248.56ZM1282.74 1163.7H1272.98V1173.47H1287.62V1178.35H1292.51V1188.12H1287.62V1193H1268.09V1188.12H1263.21V1183.23H1272.98V1188.12H1282.74V1178.35H1268.09V1173.47H1263.21V1163.7H1268.09V1158.82H1287.62V1163.7H1292.51V1168.59H1282.74V1163.7ZM291.531 1243.7H281.766V1253.47H291.531V1243.7ZM296.414 1253.47V1258.35H281.766V1273H272V1238.82H296.414V1243.7H301.297V1253.47H296.414ZM325.711 1243.7H315.945V1268.12H325.711V1243.7ZM311.062 1268.12H306.18V1243.7H311.062V1238.82H330.594V1243.7H335.477V1268.12H330.594V1273H311.062V1268.12ZM359.891 1243.7H350.125V1253.47H364.773V1258.35H369.656V1268.12H364.773V1273H345.242V1268.12H340.359V1263.23H350.125V1268.12H359.891V1258.35H345.242V1253.47H340.359V1243.7H345.242V1238.82H364.773V1243.7H369.656V1248.59H359.891V1243.7ZM394.07 1243.7H384.305V1253.47H398.953V1258.35H403.836V1268.12H398.953V1273H379.422V1268.12H374.539V1263.23H384.305V1268.12H394.07V1258.35H379.422V1253.47H374.539V1243.7H379.422V1238.82H398.953V1243.7H403.836V1248.59H394.07V1243.7ZM408.719 1273V1238.82H418.484V1273H408.719ZM442.898 1243.7H433.133V1253.47H442.898V1243.7ZM423.367 1273V1238.82H447.781V1243.7H452.664V1253.47H447.781V1258.35H452.664V1268.12H447.781V1273H423.367ZM442.898 1268.12V1258.35H433.133V1268.12H442.898ZM481.961 1266.9V1273H457.547V1238.82H467.312V1266.9H481.961ZM486.844 1273V1238.82H511.258V1243.7H496.609V1253.47H511.258V1258.35H496.609V1268.12H511.258V1273H486.844ZM564.969 1238.82V1243.7H555.203V1273H545.438V1243.7H535.672V1238.82H564.969ZM589.383 1243.7H579.617V1268.12H589.383V1243.7ZM574.734 1268.12H569.852V1243.7H574.734V1238.82H594.266V1243.7H599.148V1268.12H594.266V1273H574.734V1268.12ZM628.445 1258.35V1273H623.562V1238.82H633.328V1248.59H647.977V1238.82H657.742V1273H647.977V1258.35H643.094V1268.12H633.328V1258.35H628.445ZM682.156 1258.35V1243.7H672.391V1258.35H682.156ZM672.391 1263.23V1273H662.625V1243.7H667.508V1238.82H687.039V1243.7H691.922V1273H682.156V1263.23H672.391ZM701.688 1258.35V1273H696.805V1238.82H706.57V1248.59H711.453V1258.35H716.336V1238.82H726.102V1273H716.336V1268.12H706.57V1258.35H701.688ZM750.516 1258.35V1243.7H740.75V1258.35H750.516ZM740.75 1263.23V1273H730.984V1243.7H735.867V1238.82H755.398V1243.7H760.281V1273H750.516V1263.23H740.75ZM784.695 1268.73V1273H770.047V1268.12H765.164V1243.7H770.047V1238.82H794.461V1248.59H789.578V1243.7H774.93V1268.12H784.085L784.695 1267.51V1258.35H779.812V1253.47H794.461V1273H789.578V1268.12H785.306L784.695 1268.73ZM799.344 1273V1238.82H823.758V1243.7H809.109V1253.47H823.758V1258.35H809.109V1268.12H823.758V1273H799.344ZM867.703 1258.35V1243.7H857.938V1258.35H867.703ZM857.938 1263.23V1273H848.172V1243.7H853.055V1238.82H872.586V1243.7H877.469V1273H867.703V1263.23H857.938ZM887.234 1258.35V1273H882.352V1238.82H892.117V1248.59H897V1258.35H901.883V1238.82H911.648V1273H901.883V1268.12H892.117V1258.35H887.234ZM936.062 1253.47V1238.82H945.828V1253.47H940.945V1258.35H936.062V1273H926.297V1258.35H921.414V1253.47H916.531V1238.82H926.297V1253.47H936.062ZM989.773 1263.23H999.539V1268.12H994.656V1273H975.125V1268.12H970.242V1243.7H975.125V1238.82H994.656V1243.7H999.539V1248.59H989.773V1243.7H980.008V1268.12H989.773V1263.23ZM1028.84 1266.9V1273H1004.42V1238.82H1014.19V1266.9H1028.84ZM1033.72 1273V1238.82H1043.48V1273H1033.72ZM1048.37 1273V1238.82H1072.78V1243.7H1058.13V1253.47H1072.78V1258.35H1058.13V1268.12H1072.78V1273H1048.37ZM1082.55 1258.35V1273H1077.66V1238.82H1087.43V1248.59H1092.31V1258.35H1097.2V1238.82H1106.96V1273H1097.2V1268.12H1087.43V1258.35H1082.55ZM1141.14 1238.82V1243.7H1131.38V1273H1121.61V1243.7H1111.84V1238.82H1141.14ZM1184.48 1268.12L1185.09 1267.51V1243.7H1175.32V1268.12H1184.48ZM1190.58 1268.12H1194.85V1273H1189.97V1268.73L1189.36 1268.12H1185.7L1185.09 1268.73V1273H1170.44V1268.12H1165.55V1243.7H1170.44V1238.82H1189.97V1243.7H1194.85V1263.23H1189.97V1267.51L1190.58 1268.12ZM1219.27 1238.82H1229.03V1273H1204.62V1268.12H1199.73V1238.82H1209.5V1268.12H1219.27V1238.82ZM1233.91 1273V1238.82H1258.33V1243.7H1243.68V1253.47H1258.33V1258.35H1243.68V1268.12H1258.33V1273H1233.91ZM1282.74 1243.7H1272.98V1253.47H1282.74V1243.7ZM1287.62 1258.35H1292.51V1273H1282.74V1258.35H1272.98V1273H1263.21V1238.82H1287.62V1243.7H1292.51V1253.47H1287.62V1258.35ZM1316.92 1253.47V1238.82H1326.69V1253.47H1321.8V1258.35H1316.92V1273H1307.16V1258.35H1302.27V1253.47H1297.39V1238.82H1307.16V1253.47H1316.92ZM1331.57 1273V1268.12H1336.45V1273H1331.57ZM272 1353V1318.82H281.766V1353H272ZM330.594 1346.9V1353H306.18V1318.82H315.945V1346.9H330.594ZM355.008 1323.7H345.242V1348.12H355.008V1323.7ZM340.359 1348.12H335.477V1323.7H340.359V1318.82H359.891V1323.7H364.773V1348.12H359.891V1353H340.359V1348.12ZM389.188 1323.7H379.422V1348.12H389.188V1323.7ZM374.539 1348.12H369.656V1323.7H374.539V1318.82H394.07V1323.7H398.953V1348.12H394.07V1353H374.539V1348.12ZM413.602 1353H403.836V1318.82H413.602V1333.47H418.484V1328.59H423.367V1318.82H433.133V1328.59H428.25V1333.47H423.367V1338.35H428.25V1343.23H433.133V1353H423.367V1343.23H418.484V1338.35H413.602V1353ZM481.961 1318.82V1323.7H467.312V1333.47H481.961V1338.35H467.312V1353H457.547V1318.82H481.961ZM506.375 1323.7H496.609V1348.12H506.375V1323.7ZM491.727 1348.12H486.844V1323.7H491.727V1318.82H511.258V1323.7H516.141V1348.12H511.258V1353H491.727V1348.12ZM540.555 1323.7H530.789V1333.47H540.555V1323.7ZM545.438 1338.35H550.32V1353H540.555V1338.35H530.789V1353H521.023V1318.82H545.438V1323.7H550.32V1333.47H545.438V1338.35ZM584.5 1333.47V1318.82H589.383V1353H579.617V1343.23H564.969V1353H555.203V1318.82H564.969V1333.47H569.852V1323.7H579.617V1333.47H584.5ZM613.797 1338.35V1323.7H604.031V1338.35H613.797ZM604.031 1343.23V1353H594.266V1323.7H599.148V1318.82H618.68V1323.7H623.562V1353H613.797V1343.23H604.031ZM647.977 1323.7H638.211V1333.47H647.977V1323.7ZM652.859 1338.35H657.742V1353H647.977V1338.35H638.211V1353H628.445V1318.82H652.859V1323.7H657.742V1333.47H652.859V1338.35ZM682.156 1323.7H672.391V1348.12H682.156V1323.7ZM662.625 1353V1318.82H687.039V1323.7H691.922V1348.12H687.039V1353H662.625ZM745.633 1318.82V1323.7H735.867V1353H726.102V1323.7H716.336V1318.82H745.633ZM770.047 1323.7H760.281V1348.12H770.047V1323.7ZM755.398 1348.12H750.516V1323.7H755.398V1318.82H774.93V1323.7H779.812V1348.12H774.93V1353H755.398V1348.12ZM823.758 1323.7H813.992V1348.12H823.758V1323.7ZM804.227 1353V1318.82H828.641V1323.7H833.523V1348.12H828.641V1353H804.227ZM838.406 1353V1318.82H848.172V1353H838.406ZM872.586 1323.7H862.82V1333.47H877.469V1338.35H882.352V1348.12H877.469V1353H857.938V1348.12H853.055V1343.23H862.82V1348.12H872.586V1338.35H857.938V1333.47H853.055V1323.7H857.938V1318.82H877.469V1323.7H882.352V1328.59H872.586V1323.7ZM906.766 1343.23H916.531V1348.12H911.648V1353H892.117V1348.12H887.234V1323.7H892.117V1318.82H911.648V1323.7H916.531V1328.59H906.766V1323.7H897V1348.12H906.766V1343.23ZM940.945 1318.82H950.711V1353H926.297V1348.12H921.414V1318.82H931.18V1348.12H940.945V1318.82ZM975.125 1323.7H965.359V1333.47H980.008V1338.35H984.891V1348.12H980.008V1353H960.477V1348.12H955.594V1343.23H965.359V1348.12H975.125V1338.35H960.477V1333.47H955.594V1323.7H960.477V1318.82H980.008V1323.7H984.891V1328.59H975.125V1323.7ZM1009.3 1323.7H999.539V1333.47H1014.19V1338.35H1019.07V1348.12H1014.19V1353H994.656V1348.12H989.773V1343.23H999.539V1348.12H1009.3V1338.35H994.656V1333.47H989.773V1323.7H994.656V1318.82H1014.19V1323.7H1019.07V1328.59H1009.3V1323.7ZM1023.95 1353V1318.82H1033.72V1353H1023.95ZM1043.48 1338.35V1353H1038.6V1318.82H1048.37V1328.59H1053.25V1338.35H1058.13V1318.82H1067.9V1353H1058.13V1348.12H1048.37V1338.35H1043.48ZM1092.31 1348.73V1353H1077.66V1348.12H1072.78V1323.7H1077.66V1318.82H1102.08V1328.59H1097.2V1323.7H1082.55V1348.12H1091.7L1092.31 1347.51V1338.35H1087.43V1333.47H1102.08V1353H1097.2V1348.12H1092.92L1092.31 1348.73ZM1155.79 1333.47V1318.82H1160.67V1353H1150.91V1343.23H1136.26V1353H1126.49V1318.82H1136.26V1333.47H1141.14V1323.7H1150.91V1333.47H1155.79ZM1165.55 1353V1318.82H1175.32V1353H1165.55ZM1209.5 1318.82V1323.7H1199.73V1353H1189.97V1323.7H1180.2V1318.82H1209.5ZM1233.91 1318.82H1243.68V1353H1233.91V1338.35H1224.15V1353H1214.38V1318.82H1224.15V1333.47H1233.91V1318.82ZM1287.62 1333.47V1318.82H1297.39V1333.47H1292.51V1338.35H1287.62V1353H1277.86V1338.35H1272.98V1333.47H1268.09V1318.82H1277.86V1333.47H1287.62ZM1321.8 1323.7H1312.04V1348.12H1321.8V1323.7ZM1307.16 1348.12H1302.27V1323.7H1307.16V1318.82H1326.69V1323.7H1331.57V1348.12H1326.69V1353H1307.16V1348.12ZM1355.98 1318.82H1365.75V1353H1341.34V1348.12H1336.45V1318.82H1346.22V1348.12H1355.98V1318.82ZM291.531 1413.47V1398.82H301.297V1413.47H296.414V1418.35H291.531V1433H281.766V1418.35H276.883V1413.47H272V1398.82H281.766V1413.47H291.531ZM325.711 1403.7H315.945V1428.12H325.711V1403.7ZM311.062 1428.12H306.18V1403.7H311.062V1398.82H330.594V1403.7H335.477V1428.12H330.594V1433H311.062V1428.12ZM359.891 1398.82H369.656V1433H345.242V1428.12H340.359V1398.82H350.125V1428.12H359.891V1398.82ZM394.07 1403.7H384.305V1413.47H394.07V1403.7ZM398.953 1418.35H403.836V1433H394.07V1418.35H384.305V1433H374.539V1398.82H398.953V1403.7H403.836V1413.47H398.953V1418.35ZM447.781 1403.7H438.016V1413.47H447.781V1403.7ZM452.664 1413.47V1418.35H438.016V1433H428.25V1398.82H452.664V1403.7H457.547V1413.47H452.664ZM481.961 1403.7H472.195V1413.47H481.961V1403.7ZM486.844 1418.35H491.727V1433H481.961V1418.35H472.195V1433H462.43V1398.82H486.844V1403.7H491.727V1413.47H486.844V1418.35ZM516.141 1403.7H506.375V1428.12H516.141V1403.7ZM501.492 1428.12H496.609V1403.7H501.492V1398.82H521.023V1403.7H525.906V1428.12H521.023V1433H501.492V1428.12ZM545.438 1398.82H555.203V1428.12H550.32V1433H530.789V1423.23H535.672V1428.12H545.438V1398.82ZM560.086 1433V1398.82H584.5V1403.7H569.852V1413.47H584.5V1418.35H569.852V1428.12H584.5V1433H560.086ZM608.914 1423.23H618.68V1428.12H613.797V1433H594.266V1428.12H589.383V1403.7H594.266V1398.82H613.797V1403.7H618.68V1408.59H608.914V1403.7H599.148V1428.12H608.914V1423.23ZM652.859 1398.82V1403.7H643.094V1433H633.328V1403.7H623.562V1398.82H652.859ZM706.57 1413.47V1398.82H711.453V1433H701.688V1423.23H687.039V1433H677.273V1398.82H687.039V1413.47H691.922V1403.7H701.688V1413.47H706.57ZM716.336 1433V1398.82H726.102V1433H716.336ZM760.281 1398.82V1403.7H750.516V1433H740.75V1403.7H730.984V1398.82H760.281ZM784.695 1398.82H794.461V1433H784.695V1418.35H774.93V1433H765.164V1398.82H774.93V1413.47H784.695V1398.82ZM838.406 1418.35V1403.7H828.641V1418.35H838.406ZM828.641 1423.23V1433H818.875V1403.7H823.758V1398.82H843.289V1403.7H848.172V1433H838.406V1423.23H828.641ZM892.117 1423.23V1398.82H901.883V1423.23H897V1428.12H892.117V1433H882.352V1428.12H877.469V1423.23H872.586V1398.82H882.352V1423.23H892.117ZM906.766 1433V1398.82H916.531V1433H906.766ZM921.414 1433V1398.82H945.828V1403.7H931.18V1413.47H945.828V1418.35H931.18V1428.12H945.828V1433H921.414ZM980.008 1413.47V1398.82H984.891V1433H975.125V1423.23H960.477V1433H950.711V1398.82H960.477V1413.47H965.359V1403.7H975.125V1413.47H980.008ZM1038.6 1398.82V1403.7H1028.84V1433H1019.07V1403.7H1009.3V1398.82H1038.6ZM1063.02 1403.7H1053.25V1428.12H1063.02V1403.7ZM1048.37 1428.12H1043.48V1403.7H1048.37V1398.82H1067.9V1403.7H1072.78V1428.12H1067.9V1433H1048.37V1428.12ZM1116.73 1403.7H1106.96V1413.47H1116.73V1403.7ZM1121.61 1413.47V1418.35H1106.96V1433H1097.2V1398.82H1121.61V1403.7H1126.49V1413.47H1121.61ZM1150.91 1403.7H1141.14V1413.47H1150.91V1403.7ZM1155.79 1418.35H1160.67V1433H1150.91V1418.35H1141.14V1433H1131.38V1398.82H1155.79V1403.7H1160.67V1413.47H1155.79V1418.35ZM1185.09 1403.7H1175.32V1428.12H1185.09V1403.7ZM1170.44 1428.12H1165.55V1403.7H1170.44V1398.82H1189.97V1403.7H1194.85V1428.12H1189.97V1433H1170.44V1428.12ZM1219.27 1423.23V1398.82H1229.03V1423.23H1224.15V1428.12H1219.27V1433H1209.5V1428.12H1204.62V1423.23H1199.73V1398.82H1209.5V1423.23H1219.27ZM1233.91 1433V1398.82H1243.68V1433H1233.91ZM1268.09 1403.7H1258.33V1428.12H1268.09V1403.7ZM1248.56 1433V1398.82H1272.98V1403.7H1277.86V1428.12H1272.98V1433H1248.56ZM1282.74 1433V1398.82H1292.51V1433H1282.74ZM1302.27 1418.35V1433H1297.39V1398.82H1307.16V1408.59H1312.04V1418.35H1316.92V1398.82H1326.69V1433H1316.92V1428.12H1307.16V1418.35H1302.27ZM1351.1 1428.73V1433H1336.45V1428.12H1331.57V1403.7H1336.45V1398.82H1360.87V1408.59H1355.98V1403.7H1341.34V1428.12H1350.49L1351.1 1427.51V1418.35H1346.22V1413.47H1360.87V1433H1355.98V1428.12H1351.71L1351.1 1428.73ZM291.531 1498.35V1483.7H281.766V1498.35H291.531ZM281.766 1503.23V1513H272V1483.7H276.883V1478.82H296.414V1483.7H301.297V1513H291.531V1503.23H281.766ZM350.125 1478.82V1483.7H335.477V1493.47H350.125V1498.35H335.477V1513H325.711V1478.82H350.125ZM374.539 1498.35V1483.7H364.773V1498.35H374.539ZM364.773 1503.23V1513H355.008V1483.7H359.891V1478.82H379.422V1483.7H384.305V1513H374.539V1503.23H364.773ZM408.719 1483.7H398.953V1493.47H413.602V1498.35H418.484V1508.12H413.602V1513H394.07V1508.12H389.188V1503.23H398.953V1508.12H408.719V1498.35H394.07V1493.47H389.188V1483.7H394.07V1478.82H413.602V1483.7H418.484V1488.59H408.719V1483.7ZM452.664 1478.82V1483.7H442.898V1513H433.133V1483.7H423.367V1478.82H452.664ZM496.609 1498.35V1483.7H486.844V1498.35H496.609ZM486.844 1503.23V1513H477.078V1483.7H481.961V1478.82H501.492V1483.7H506.375V1513H496.609V1503.23H486.844ZM516.141 1498.35V1513H511.258V1478.82H521.023V1488.59H525.906V1498.35H530.789V1478.82H540.555V1513H530.789V1508.12H521.023V1498.35H516.141ZM564.969 1483.7H555.203V1508.12H564.969V1483.7ZM545.438 1513V1478.82H569.852V1483.7H574.734V1508.12H569.852V1513H545.438ZM618.68 1503.23H628.445V1508.12H623.562V1513H604.031V1508.12H599.148V1483.7H604.031V1478.82H623.562V1483.7H628.445V1488.59H618.68V1483.7H608.914V1508.12H618.68V1503.23ZM652.859 1483.7H643.094V1508.12H652.859V1483.7ZM638.211 1508.12H633.328V1483.7H638.211V1478.82H657.742V1483.7H662.625V1508.12H657.742V1513H638.211V1508.12ZM687.039 1483.7H677.273V1493.47H691.922V1498.35H696.805V1508.12H691.922V1513H672.391V1508.12H667.508V1503.23H677.273V1508.12H687.039V1498.35H672.391V1493.47H667.508V1483.7H672.391V1478.82H691.922V1483.7H696.805V1488.59H687.039V1483.7ZM730.984 1478.82V1483.7H721.219V1513H711.453V1483.7H701.688V1478.82H730.984ZM755.398 1513V1478.82H779.812V1483.7H765.164V1493.47H779.812V1498.35H765.164V1508.12H779.812V1513H755.398ZM809.109 1478.82V1483.7H794.461V1493.47H809.109V1498.35H794.461V1513H784.695V1478.82H809.109ZM838.406 1478.82V1483.7H823.758V1493.47H838.406V1498.35H823.758V1513H813.992V1478.82H838.406ZM843.289 1513V1478.82H867.703V1483.7H853.055V1493.47H867.703V1498.35H853.055V1508.12H867.703V1513H843.289ZM892.117 1503.23H901.883V1508.12H897V1513H877.469V1508.12H872.586V1483.7H877.469V1478.82H897V1483.7H901.883V1488.59H892.117V1483.7H882.352V1508.12H892.117V1503.23ZM936.062 1478.82V1483.7H926.297V1513H916.531V1483.7H906.766V1478.82H936.062ZM940.945 1513V1478.82H950.711V1513H940.945ZM975.125 1503.23V1478.82H984.891V1503.23H980.008V1508.12H975.125V1513H965.359V1508.12H960.477V1503.23H955.594V1478.82H965.359V1503.23H975.125ZM989.773 1513V1478.82H1014.19V1483.7H999.539V1493.47H1014.19V1498.35H999.539V1508.12H1014.19V1513H989.773ZM1058.13 1483.7H1048.37V1493.47H1063.02V1498.35H1067.9V1508.12H1063.02V1513H1043.48V1508.12H1038.6V1503.23H1048.37V1508.12H1058.13V1498.35H1043.48V1493.47H1038.6V1483.7H1043.48V1478.82H1063.02V1483.7H1067.9V1488.59H1058.13V1483.7ZM1092.31 1483.7H1082.55V1508.12H1092.31V1483.7ZM1077.66 1508.12H1072.78V1483.7H1077.66V1478.82H1097.2V1483.7H1102.08V1508.12H1097.2V1513H1077.66V1508.12ZM1131.38 1506.9V1513H1106.96V1478.82H1116.73V1506.9H1131.38ZM1155.79 1478.82H1165.55V1513H1141.14V1508.12H1136.26V1478.82H1146.02V1508.12H1155.79V1478.82ZM1199.73 1478.82V1483.7H1189.97V1513H1180.2V1483.7H1170.44V1478.82H1199.73ZM1204.62 1513V1478.82H1214.38V1513H1204.62ZM1238.8 1483.7H1229.03V1508.12H1238.8V1483.7ZM1224.15 1508.12H1219.27V1483.7H1224.15V1478.82H1243.68V1483.7H1248.56V1508.12H1243.68V1513H1224.15V1508.12ZM1258.33 1498.35V1513H1253.45V1478.82H1263.21V1488.59H1268.09V1498.35H1272.98V1478.82H1282.74V1513H1272.98V1508.12H1263.21V1498.35H1258.33ZM1287.62 1513V1508.12H1292.51V1513H1287.62Z" fill="black"/>
<path d="M694.062 50.6406H713.594V119H694.062V89.7031H674.531V119H655V50.6406H674.531V79.9375H694.062V50.6406ZM723.359 119V50.6406H742.891V119H723.359ZM762.422 89.7031V119H752.656V50.6406H772.188V70.1719H781.953V89.7031H791.719V50.6406H811.25V119H791.719V109.234H772.188V89.7031H762.422ZM879.609 50.6406V60.4062H860.078V119H840.547V60.4062H821.016V50.6406H879.609ZM967.5 99.4688H987.031V109.234H977.266V119H938.203V109.234H928.438V60.4062H938.203V50.6406H977.266V60.4062H987.031V70.1719H967.5V60.4062H947.969V109.234H967.5V99.4688ZM1045.62 106.793V119H996.797V50.6406H1016.33V106.793H1045.62ZM1055.39 119V50.6406H1074.92V119H1055.39ZM1123.75 99.4688H1143.28V109.234H1133.52V119H1094.45V109.234H1084.69V60.4062H1094.45V50.6406H1133.52V60.4062H1143.28V70.1719H1123.75V60.4062H1104.22V109.234H1123.75V99.4688ZM1172.58 119H1153.05V50.6406H1172.58V79.9375H1182.34V70.1719H1192.11V50.6406H1211.64V70.1719H1201.88V79.9375H1192.11V89.7031H1201.88V99.4688H1211.64V119H1192.11V99.4688H1182.34V89.7031H1172.58V119ZM1319.06 50.6406V60.4062H1299.53V119H1280V60.4062H1260.47V50.6406H1319.06ZM1367.89 50.6406H1387.42V119H1367.89V89.7031H1348.36V119H1328.83V50.6406H1348.36V79.9375H1367.89V50.6406ZM1397.19 119V50.6406H1446.02V60.4062H1416.72V79.9375H1446.02V89.7031H1416.72V109.234H1446.02V119H1397.19ZM1533.91 60.4062H1514.38V79.9375H1533.91V60.4062ZM1494.84 119V50.6406H1543.67V60.4062H1553.44V79.9375H1543.67V89.7031H1553.44V109.234H1543.67V119H1494.84ZM1533.91 109.234V89.7031H1514.38V109.234H1533.91ZM1602.27 60.4062H1582.73V109.234H1602.27V60.4062ZM1572.97 109.234H1563.2V60.4062H1572.97V50.6406H1612.03V60.4062H1621.8V109.234H1612.03V119H1572.97V109.234ZM1670.62 60.4062H1651.09V109.234H1670.62V60.4062ZM1641.33 109.234H1631.56V60.4062H1641.33V50.6406H1680.39V60.4062H1690.16V109.234H1680.39V119H1641.33V109.234ZM1719.45 119H1699.92V50.6406H1719.45V79.9375H1729.22V70.1719H1738.98V50.6406H1758.52V70.1719H1748.75V79.9375H1738.98V89.7031H1748.75V99.4688H1758.52V119H1738.98V99.4688H1729.22V89.7031H1719.45V119ZM1865.94 50.6406V60.4062H1846.41V119H1826.88V60.4062H1807.34V50.6406H1865.94ZM1914.77 60.4062H1895.23V109.234H1914.77V60.4062ZM1885.47 109.234H1875.7V60.4062H1885.47V50.6406H1924.53V60.4062H1934.3V109.234H1924.53V119H1885.47V109.234ZM2022.19 99.4688H2041.72V109.234H2031.95V119H1992.89V109.234H1983.12V60.4062H1992.89V50.6406H2031.95V60.4062H2041.72V70.1719H2022.19V60.4062H2002.66V109.234H2022.19V99.4688ZM2100.31 106.793V119H2051.48V50.6406H2071.02V106.793H2100.31ZM2149.14 60.4062H2129.61V109.234H2149.14V60.4062ZM2119.84 109.234H2110.08V60.4062H2119.84V50.6406H2158.91V60.4062H2168.67V109.234H2158.91V119H2119.84V109.234ZM2217.5 60.4062H2197.97V79.9375H2227.27V89.7031H2237.03V109.234H2227.27V119H2188.2V109.234H2178.44V99.4688H2197.97V109.234H2217.5V89.7031H2188.2V79.9375H2178.44V60.4062H2188.2V50.6406H2227.27V60.4062H2237.03V70.1719H2217.5V60.4062ZM2246.8 119V50.6406H2295.62V60.4062H2266.33V79.9375H2295.62V89.7031H2266.33V109.234H2295.62V119H2246.8ZM2305.39 119V106.793H2315.16V119H2305.39ZM2305.39 50.6406H2324.92V87.2617H2315.16V97.0273H2305.39V50.6406Z" fill="white"/>
<rect x="1780.04" y="537.065" width="651.417" height="651.417" transform="rotate(-8 1780.04 537.065)" fill="#EDF2CF"/>
<path d="M2203.43 891.836L2206.3 891.98C2206.33 891.981 2206.37 892.003 2206.39 892.035L2209.87 898.537L2210.89 900.303C2210.91 900.334 2210.94 900.354 2210.98 900.356L2226.48 901.13C2226.59 901.136 2226.63 901.004 2226.55 900.94L2214.29 891.554C2214.25 891.52 2214.24 891.457 2214.27 891.411L2215.89 888.98C2215.92 888.928 2215.99 888.917 2216.04 888.956L2235.13 904.447C2235.21 904.512 2235.16 904.641 2235.05 904.636L2209.02 903.335C2208.98 903.334 2208.94 903.312 2208.93 903.279L2206.35 898.362L2203.33 891.988C2203.29 891.915 2203.35 891.832 2203.43 891.836Z" fill="#007AE0"/>
<path d="M2203.43 891.836L2206.3 891.98C2206.33 891.981 2206.37 892.003 2206.39 892.035L2209.87 898.537L2210.89 900.303C2210.91 900.334 2210.94 900.354 2210.98 900.356L2226.48 901.13C2226.59 901.136 2226.63 901.004 2226.55 900.94L2214.29 891.554C2214.25 891.52 2214.24 891.457 2214.27 891.411L2215.89 888.98C2215.92 888.928 2215.99 888.917 2216.04 888.956L2235.13 904.447C2235.21 904.512 2235.16 904.641 2235.05 904.636L2209.02 903.335C2208.98 903.334 2208.94 903.312 2208.93 903.279L2206.35 898.362L2203.33 891.988C2203.29 891.915 2203.35 891.832 2203.43 891.836Z" stroke="#007AE0"/>
<path d="M2204.04 879.837L2206.9 879.98C2206.93 879.982 2206.97 880.003 2206.98 880.036L2216.73 898.463C2216.76 898.536 2216.71 898.623 2216.63 898.619L2213.36 898.456C2213.32 898.454 2213.28 898.432 2213.27 898.398L2203.94 879.991C2203.9 879.918 2203.95 879.833 2204.04 879.837Z" fill="#007AE0"/>
<path d="M2204.04 879.837L2206.9 879.98C2206.93 879.982 2206.97 880.003 2206.98 880.036L2216.73 898.463C2216.76 898.536 2216.71 898.623 2216.63 898.619L2213.36 898.456C2213.32 898.454 2213.28 898.432 2213.27 898.398L2203.94 879.991C2203.9 879.918 2203.95 879.833 2204.04 879.837Z" stroke="#007AE0"/>
<path d="M2185.84 897.03L2184.12 896.944C2184.03 896.939 2183.98 896.84 2184.04 896.772L2197.61 879.458C2197.64 879.431 2197.67 879.416 2197.7 879.417L2200.14 879.539C2200.23 879.543 2200.27 879.64 2200.22 879.708L2187.65 896.956C2187.6 897.024 2187.64 897.12 2187.73 897.124L2187.84 897.13L2189.28 897.202C2189.38 897.207 2189.42 897.339 2189.33 897.396L2182.91 901.665C2182.81 901.73 2182.69 901.61 2182.76 901.514L2185.92 897.198C2185.97 897.13 2185.92 897.034 2185.84 897.03Z" fill="#007AE0"/>
<path d="M2185.84 897.03L2184.12 896.944C2184.03 896.939 2183.98 896.84 2184.04 896.772L2197.61 879.458C2197.64 879.431 2197.67 879.416 2197.7 879.417L2200.14 879.539C2200.23 879.543 2200.27 879.64 2200.22 879.708L2187.65 896.956C2187.6 897.024 2187.64 897.12 2187.73 897.124L2187.84 897.13L2189.28 897.202C2189.38 897.207 2189.42 897.339 2189.33 897.396L2182.91 901.665C2182.81 901.73 2182.69 901.61 2182.76 901.514L2185.92 897.198C2185.97 897.13 2185.92 897.034 2185.84 897.03Z" stroke="#007AE0"/>
<path d="M2199.36 882.096L2200.52 880.291C2200.57 880.222 2200.67 880.228 2200.71 880.302L2205.85 890.768L2186.85 889.819C2186.77 889.815 2186.72 889.719 2186.77 889.651L2188.18 887.703C2188.2 887.674 2188.24 887.658 2188.27 887.66L2201.98 888.344L2199.35 882.195C2199.34 882.163 2199.34 882.126 2199.36 882.096Z" fill="#007AE0"/>
<path d="M2199.36 882.096L2200.52 880.291C2200.57 880.222 2200.67 880.228 2200.71 880.302L2205.85 890.768L2186.85 889.819C2186.77 889.815 2186.72 889.719 2186.77 889.651L2188.18 887.703C2188.2 887.674 2188.24 887.658 2188.27 887.66L2201.98 888.344L2199.35 882.195C2199.34 882.163 2199.34 882.126 2199.36 882.096Z" stroke="#007AE0"/>
<path d="M2212.36 888.6L2213.34 890.512C2213.38 890.585 2213.48 890.59 2213.52 890.52L2219.68 880.619L2208.29 880.05C2208.21 880.046 2208.15 880.136 2208.19 880.209L2209.4 882.287C2209.42 882.318 2209.45 882.338 2209.49 882.34L2215.59 882.644L2212.36 888.501C2212.35 888.532 2212.35 888.569 2212.36 888.6Z" fill="#007AE0"/>
<path d="M2212.36 888.6L2213.34 890.512C2213.38 890.585 2213.48 890.59 2213.52 890.52L2219.68 880.619L2208.29 880.05C2208.21 880.046 2208.15 880.136 2208.19 880.209L2209.4 882.287C2209.42 882.318 2209.45 882.338 2209.49 882.34L2215.59 882.644L2212.36 888.501C2212.35 888.532 2212.35 888.569 2212.36 888.6Z" stroke="#007AE0"/>
<rect x="1825.61" y="553.692" width="620.852" height="620.852" transform="rotate(-8 1825.61 553.692)"/>
<rect x="1778.47" y="1060.16" width="101.218" height="321.891" transform="rotate(-49.5357 1778.47 1060.16)" fill="#CFD7A3"/>
<rect x="2228" y="449.007" width="101.218" height="321.891" transform="rotate(-49.5357 2228 449.007)" fill="#CFD7A3"/>
</svg>
