<svg width="221" height="182" viewBox="0 0 221 182" fill="none" xmlns="http://www.w3.org/2000/svg">
<g filter="url(#filter0_d)">
<path fill-rule="evenodd" clip-rule="evenodd" d="M101.558 0.150213C101.558 0.237787 101.057 0.300426 100.356 0.300426H99.1541V4.95703V9.61363H94.4975H89.8409V10.8153C89.8409 11.5164 89.7783 12.017 89.6907 12.017C89.6081 12.017 89.5405 12.355 89.5405 12.7681C89.5405 13.1812 89.6081 13.5192 89.6907 13.5192C89.7841 13.5192 89.8409 14.3704 89.8409 15.7724C89.8409 17.1743 89.7841 18.0256 89.6907 18.0256C89.6081 18.0256 89.5405 18.2959 89.5405 18.6264V19.2273H84.8839H80.2273V28.8409V38.4545H84.8194C88.5991 38.4545 89.4497 38.4165 89.6263 38.2399C89.8077 38.0586 89.8409 36.5719 89.8409 28.6263V19.2273H94.4975H99.1541V14.4205V9.61363H108.768H118.381V14.4205V19.2273H123.038H127.695V28.6263C127.695 36.5719 127.728 38.0586 127.909 38.2399C128.086 38.4165 128.936 38.4545 132.716 38.4545H137.308V28.8409V19.2273H132.501H127.695V18.326C127.695 17.8253 127.761 17.4247 127.845 17.4247C127.927 17.4247 127.995 17.0867 127.995 16.6736C127.995 16.2606 127.927 15.9226 127.845 15.9226C127.751 15.9226 127.695 15.0713 127.695 13.6694C127.695 12.2674 127.751 11.4162 127.845 11.4162C128.079 11.4162 128.024 10.0719 127.78 9.82829C127.604 9.65164 126.753 9.61363 122.974 9.61363H118.381V4.95703V0.300426H116.729C115.728 0.300426 115.077 0.241242 115.077 0.150213C115.077 0.0675959 114.739 0 114.326 0C113.913 0 113.575 0.0675959 113.575 0.150213C113.575 0.243646 112.723 0.300426 111.321 0.300426C109.919 0.300426 109.068 0.243646 109.068 0.150213C109.068 0.0675959 108.73 0 108.317 0C107.904 0 107.566 0.0675959 107.566 0.150213C107.566 0.243646 106.715 0.300426 105.313 0.300426C103.911 0.300426 103.06 0.243646 103.06 0.150213C103.06 0.0675959 102.722 0 102.309 0C101.895 0 101.558 0.0675959 101.558 0.150213ZM93.446 38.3043C93.446 38.3961 92.745 38.4545 91.6435 38.4545H89.8409V40.2571C89.8409 41.3586 89.7825 42.0596 89.6907 42.0596C89.6081 42.0596 89.5405 42.3976 89.5405 42.8107C89.5405 43.2238 89.6081 43.5618 89.6907 43.5618C89.7837 43.5618 89.8409 44.3629 89.8409 45.6648V47.7677H94.4975H99.1541V52.5746V57.3814H94.3473H89.5405V61.9735C89.5405 65.7532 89.5785 66.6039 89.7551 66.7804C89.9387 66.9641 92.6849 66.995 108.832 66.995H127.695V71.5872C127.695 76.5621 127.702 76.6086 128.51 76.6086C128.722 76.6086 128.896 76.5411 128.896 76.4584C128.896 76.365 129.748 76.3082 131.149 76.3082C132.551 76.3082 133.403 76.365 133.403 76.4584C133.403 76.5411 133.741 76.6086 134.154 76.6086C134.567 76.6086 134.905 76.5411 134.905 76.4584C134.905 76.3709 135.405 76.3082 136.107 76.3082H137.308V71.6516V66.995H132.501H127.695V66.2439C127.695 65.8309 127.762 65.4929 127.845 65.4929C127.927 65.4929 127.995 65.1549 127.995 64.7418C127.995 64.3287 127.927 63.9908 127.845 63.9908C127.751 63.9908 127.695 63.1395 127.695 61.7376C127.695 60.3356 127.751 59.4844 127.845 59.4844C127.927 59.4844 127.995 59.1464 127.995 58.7333C127.995 58.3202 127.927 57.9822 127.845 57.9822C127.762 57.9822 127.695 57.847 127.695 57.6818C127.695 57.3878 127.594 57.3814 123.038 57.3814H118.381V52.5746V47.7677H122.974C126.753 47.7677 127.604 47.7297 127.78 47.5531C128.024 47.3094 128.079 45.9652 127.845 45.9652C127.751 45.9652 127.695 45.1139 127.695 43.712C127.695 42.3101 127.751 41.4588 127.845 41.4588C127.927 41.4588 127.995 41.1208 127.995 40.7077C127.995 40.2946 127.927 39.9567 127.845 39.9567C127.762 39.9567 127.695 39.6187 127.695 39.2056V38.4545H126.343C125.542 38.4545 124.991 38.3934 124.991 38.3043C124.991 38.2217 124.653 38.1541 124.24 38.1541C123.827 38.1541 123.489 38.2217 123.489 38.3043C123.489 38.3978 122.637 38.4545 121.235 38.4545C119.833 38.4545 118.982 38.3978 118.982 38.3043C118.982 38.2217 118.847 38.1541 118.682 38.1541C118.388 38.1541 118.381 38.2543 118.381 42.9609V47.7677H108.768H99.1541V43.1111V38.4545H97.0511C95.7492 38.4545 94.9481 38.3973 94.9481 38.3043C94.9481 38.2217 94.6102 38.1541 94.1971 38.1541C93.784 38.1541 93.446 38.2217 93.446 38.3043ZM80.2273 71.8018C80.2273 76.5085 80.2336 76.6086 80.5277 76.6086C80.6929 76.6086 80.8281 76.5411 80.8281 76.4584C80.8281 76.365 81.6794 76.3082 83.0813 76.3082C84.4833 76.3082 85.3345 76.365 85.3345 76.4584C85.3345 76.5411 85.6725 76.6086 86.0856 76.6086C86.4987 76.6086 86.8366 76.5411 86.8366 76.4584C86.8366 76.3683 87.4375 76.3082 88.3388 76.3082H89.8409V71.6516V66.995H85.0341H80.2273V71.8018ZM70.8014 76.5329C70.6599 76.6935 70.6136 77.8776 70.6136 81.334V85.9219H65.8068H61V100.192V114.462H63.103C64.4049 114.462 65.206 114.52 65.206 114.613C65.206 114.695 65.5439 114.763 65.957 114.763C66.3701 114.763 66.7081 114.695 66.7081 114.613C66.7081 114.519 67.5594 114.462 68.9613 114.462C70.3632 114.462 71.2145 114.519 71.2145 114.613C71.2145 114.695 71.5525 114.763 71.9656 114.763C72.3786 114.763 72.7166 114.695 72.7166 114.613C72.7166 114.519 73.5679 114.462 74.9698 114.462C76.3718 114.462 77.223 114.519 77.223 114.613C77.223 114.695 77.561 114.763 77.9741 114.763C78.3872 114.763 78.7251 114.695 78.7251 114.613C78.7251 114.519 79.5764 114.462 80.9783 114.462C82.3803 114.462 83.2315 114.519 83.2315 114.613C83.2315 114.695 83.5695 114.763 83.9826 114.763C84.3957 114.763 84.7337 114.695 84.7337 114.613C84.7337 114.519 85.5849 114.462 86.9869 114.462C88.3888 114.462 89.2401 114.519 89.2401 114.613C89.2401 114.695 89.578 114.763 89.9911 114.763C90.4042 114.763 90.7422 114.695 90.7422 114.613C90.7422 114.519 91.5934 114.462 92.9954 114.462C94.3973 114.462 95.2486 114.519 95.2486 114.613C95.2486 114.695 95.5866 114.763 95.9996 114.763C96.4127 114.763 96.7507 114.695 96.7507 114.613C96.7507 114.519 97.602 114.462 99.0039 114.462C100.406 114.462 101.257 114.519 101.257 114.613C101.257 114.695 101.595 114.763 102.008 114.763C102.421 114.763 102.759 114.695 102.759 114.613C102.759 114.519 103.61 114.462 105.012 114.462C106.414 114.462 107.266 114.519 107.266 114.613C107.266 114.695 107.604 114.763 108.017 114.763C108.43 114.763 108.768 114.695 108.768 114.613C108.768 114.519 109.619 114.462 111.021 114.462C112.423 114.462 113.274 114.519 113.274 114.613C113.274 114.695 113.612 114.763 114.025 114.763C114.438 114.763 114.776 114.695 114.776 114.613C114.776 114.519 115.628 114.462 117.029 114.462C118.431 114.462 119.283 114.519 119.283 114.613C119.283 114.695 119.621 114.763 120.034 114.763C120.447 114.763 120.785 114.695 120.785 114.613C120.785 114.519 121.636 114.462 123.038 114.462C124.44 114.462 125.291 114.519 125.291 114.613C125.291 114.695 125.629 114.763 126.042 114.763C126.455 114.763 126.793 114.695 126.793 114.613C126.793 114.519 127.645 114.462 129.047 114.462C130.448 114.462 131.3 114.519 131.3 114.613C131.3 114.695 131.638 114.763 132.051 114.763C132.464 114.763 132.802 114.695 132.802 114.613C132.802 114.519 133.653 114.462 135.055 114.462C136.457 114.462 137.308 114.519 137.308 114.613C137.308 114.695 137.646 114.763 138.059 114.763C138.472 114.763 138.81 114.695 138.81 114.613C138.81 114.519 139.662 114.462 141.064 114.462C142.465 114.462 143.317 114.519 143.317 114.613C143.317 114.695 143.655 114.763 144.068 114.763C144.481 114.763 144.819 114.695 144.819 114.613C144.819 114.519 145.67 114.462 147.072 114.462C148.474 114.462 149.325 114.519 149.325 114.613C149.325 114.695 149.663 114.763 150.076 114.763C150.489 114.763 150.827 114.695 150.827 114.613C150.827 114.519 151.679 114.462 153.081 114.462C154.483 114.462 155.334 114.519 155.334 114.613C155.334 114.695 155.508 114.763 155.72 114.763C156.58 114.763 156.535 115.559 156.535 100.128V85.9219H151.729H146.922V81.115V76.3082H142.33C138.55 76.3082 137.699 76.3462 137.523 76.5229C137.346 76.6994 137.308 77.55 137.308 81.3297V85.9219H142.115H146.922V95.5355V105.149H108.768H70.6136V95.5355V85.9219H75.4205H80.2273V81.3297C80.2273 77.55 80.1893 76.6994 80.0126 76.5229C79.6961 76.2062 71.0806 76.2157 70.8014 76.5329Z" fill="#F9CC14"/>
<path d="M88.9887 67.5469L90.1083 66.0542L94.5865 63.815C95.1836 63.5165 98.0696 61.9491 99.438 61.2027L100.931 48.8876L92.3474 41.797L86.3764 33.9601L85.6301 23.1377L93.0938 15.6739L104.663 3.73193L116.605 7.4638L123.695 15.6739L128.92 20.1522L130.412 35.4528L120.336 45.9021L118.097 48.1412C117.351 48.2656 115.784 48.589 115.485 48.8876C115.112 49.2607 111.753 53.3658 111.753 53.739C111.753 54.0375 118.719 59.3368 122.202 61.9491L132.278 70.9056L145.34 83.9671C146.833 85.4599 149.818 88.52 149.818 88.8186C149.818 89.1918 151.311 92.9236 151.311 93.67V107.478L90.8547 110.837C85.6301 111.21 75.1062 111.956 74.8076 111.956C74.5091 111.956 69.2098 107.478 66.5975 105.239L64.3584 95.5359L70.3294 86.5795L88.9887 67.5469Z" fill="#F9CC14"/>
</g>
<g filter="url(#filter1_d)">
<path d="M47.2188 163.938V149.875H37.8438V163.938H47.2188ZM37.8438 168.625V178H28.4688V149.875H33.1562V145.188H51.9062V149.875H56.5938V178H47.2188V168.625H37.8438ZM80.0312 149.875H70.6562V159.25H80.0312V149.875ZM61.2812 178V145.188H84.7188V149.875H89.4062V159.25H84.7188V163.938H89.4062V173.312H84.7188V178H61.2812ZM80.0312 173.312V163.938H70.6562V173.312H80.0312ZM112.844 149.875H103.469V173.312H112.844V149.875ZM98.7812 173.312H94.0938V149.875H98.7812V145.188H117.531V149.875H122.219V173.312H117.531V178H98.7812V173.312ZM145.656 145.188H155.031V178H131.594V173.312H126.906V145.188H136.281V173.312H145.656V145.188ZM187.844 145.188V149.875H178.469V178H169.094V149.875H159.719V145.188H187.844Z" fill="#F9CC14"/>
</g>
<defs>
<filter id="filter0_d" x="61" y="0" width="103.536" height="122.77" filterUnits="userSpaceOnUse" color-interpolation-filters="sRGB">
<feFlood flood-opacity="0" result="BackgroundImageFix"/>
<feColorMatrix in="SourceAlpha" type="matrix" values="0 0 0 0 0 0 0 0 0 0 0 0 0 0 0 0 0 0 127 0"/>
<feOffset dx="8" dy="8"/>
<feColorMatrix type="matrix" values="0 0 0 0 0 0 0 0 0 0.478431 0 0 0 0 0.878431 0 0 0 1 0"/>
<feBlend mode="normal" in2="BackgroundImageFix" result="effect1_dropShadow"/>
<feBlend mode="normal" in="SourceGraphic" in2="effect1_dropShadow" result="shape"/>
</filter>
<filter id="filter1_d" x="28.4688" y="145.188" width="163.375" height="36.8125" filterUnits="userSpaceOnUse" color-interpolation-filters="sRGB">
<feFlood flood-opacity="0" result="BackgroundImageFix"/>
<feColorMatrix in="SourceAlpha" type="matrix" values="0 0 0 0 0 0 0 0 0 0 0 0 0 0 0 0 0 0 127 0"/>
<feOffset dx="4" dy="4"/>
<feColorMatrix type="matrix" values="0 0 0 0 0 0 0 0 0 0.478431 0 0 0 0 0.878431 0 0 0 1 0"/>
<feBlend mode="normal" in2="BackgroundImageFix" result="effect1_dropShadow"/>
<feBlend mode="normal" in="SourceGraphic" in2="effect1_dropShadow" result="shape"/>
</filter>
</defs>
</svg>
