<svg width="1863" height="1187" viewBox="0 0 1863 1187" fill="none" xmlns="http://www.w3.org/2000/svg">
<path d="M769.624 189.682L693.829 94.494L779.446 101.798L776.635 198.488L769.624 189.682Z" fill="#007AE0"/>
<path d="M917.54 375.445L841.745 280.257L927.362 287.561L924.551 384.251L917.54 375.445Z" fill="#007AE0"/>
<path d="M831.308 267.957L787.298 212.686L837.011 216.927L835.379 273.07L831.308 267.957Z" fill="#007AE0"/>
<path d="M835.532 194.057L791.522 138.786L789.89 194.929L839.603 199.17L835.532 194.057Z" fill="#007AE0"/>
<path d="M857.527 194.199L790.29 109.758L866.24 116.238L863.747 202.011L857.527 194.199Z" fill="#007AE0"/>
<path d="M945.128 274.275L846.813 265.887L902.281 209.818L954.224 275.051L945.128 274.275Z" fill="#007AE0"/>
<path d="M2 0V1090.32L1863 1186.42V753.378L1327.18 899.308L629.108 0H2Z" fill="#007AE0"/>
<path d="M1863 902.883V404.488L1454.41 587.927L-4 1089.7V1153.75L1863 902.883Z" fill="#F9CC14"/>
<path d="M1862.07 138.585V10.7037L1802.67 80.5596L1862.07 150.415V138.585Z" fill="#F9CC14"/>
<path d="M1862.07 388.151V260.269L1802.67 330.125L1862.07 399.981V388.151Z" fill="#F9CC14"/>
<path d="M1862.55 243.26V169.006L1828.06 209.568L1862.55 250.129V243.26Z" fill="#F9CC14"/>
<path d="M1815.6 191.431V117.178L1850.09 157.739L1815.6 198.301V191.431Z" fill="#F9CC14"/>
<path d="M1799.32 208.086V94.6434L1746.62 156.612L1799.32 218.581V208.086Z" fill="#F9CC14"/>
<path d="M1781.57 333.603L1849.78 253.386H1775.26V341.023L1781.57 333.603Z" fill="#F9CC14"/>
<path d="M1349.72 614.354L1214.25 665.329L1311.93 717.362L1362.25 609.638L1349.72 614.354Z" fill="black"/>
<path d="M1614.09 514.872L1478.62 565.848L1576.3 617.881L1626.62 510.156L1614.09 514.872Z" fill="black"/>
<path d="M1460.41 571.984L1381.75 601.583L1438.47 631.795L1467.69 569.246L1460.41 571.984Z" fill="black"/>
<path d="M1424.22 655.774L1345.56 685.373L1374.78 622.823L1431.5 653.036L1424.22 655.774Z" fill="black"/>
<path d="M1448.36 671.037L1328.18 716.257L1414.83 762.416L1459.47 666.854L1448.36 671.037Z" fill="black"/>
<path d="M1588.39 644.868L1476.23 585.118L1505.93 685.329L1598.77 650.395L1588.39 644.868Z" fill="black"/>
<path d="M521.89 146.184L641.714 297.933L652.547 143.917L510.805 132.146L521.89 146.184Z" fill="#0A0C10"/>
<path d="M144.635 287.948L196.488 139.228L93.398 189.69L139.838 301.706L144.635 287.948Z" fill="#0A0C10"/>
<path d="M631.971 345.106L603.219 445.224L669.257 407.6L634.63 335.844L631.971 345.106Z" fill="#0A0C10"/>
<path d="M430.44 605.412L290.445 633.571L381.074 701.284L443.391 602.807L430.44 605.412Z" fill="#0A0C10"/>
<path d="M466.289 93.1936L630.955 310.949L539.446 574.83L283.272 620.954L118.606 403.199L210.115 139.318L466.289 93.1936Z" fill="#0A0C10"/>
<path d="M233.279 224.329V260.35H229.523V243.729H206.983V260.35H203.175V224.329H206.983V240.384H229.523V224.329H233.279ZM267.833 247.949H245.191C245.397 250.762 246.477 253.043 248.433 254.793C250.388 256.508 252.858 257.366 255.843 257.366C257.524 257.366 259.068 257.074 260.474 256.491C261.881 255.873 263.099 254.981 264.128 253.815L266.186 256.182C264.986 257.623 263.476 258.721 261.658 259.476C259.874 260.23 257.901 260.608 255.74 260.608C252.961 260.608 250.491 260.025 248.33 258.858C246.203 257.657 244.539 256.011 243.338 253.918C242.138 251.825 241.537 249.458 241.537 246.817C241.537 244.175 242.103 241.808 243.235 239.715C244.402 237.622 245.98 235.993 247.97 234.826C249.994 233.66 252.258 233.077 254.762 233.077C257.267 233.077 259.514 233.66 261.504 234.826C263.493 235.993 265.054 237.622 266.186 239.715C267.319 241.773 267.885 244.141 267.885 246.817L267.833 247.949ZM254.762 236.216C252.155 236.216 249.959 237.056 248.176 238.737C246.426 240.384 245.431 242.545 245.191 245.221H264.385C264.145 242.545 263.133 240.384 261.349 238.737C259.6 237.056 257.404 236.216 254.762 236.216ZM275.321 222.167H278.975V260.35H275.321V222.167ZM289.141 222.167H292.795V260.35H289.141V222.167ZM314.025 260.608C311.418 260.608 309.068 260.025 306.975 258.858C304.882 257.657 303.235 256.011 302.035 253.918C300.834 251.825 300.234 249.458 300.234 246.817C300.234 244.175 300.834 241.808 302.035 239.715C303.235 237.622 304.882 235.993 306.975 234.826C309.068 233.66 311.418 233.077 314.025 233.077C316.632 233.077 318.982 233.66 321.075 234.826C323.168 235.993 324.797 237.622 325.964 239.715C327.164 241.808 327.765 244.175 327.765 246.817C327.765 249.458 327.164 251.825 325.964 253.918C324.797 256.011 323.168 257.657 321.075 258.858C318.982 260.025 316.632 260.608 314.025 260.608ZM314.025 257.366C315.946 257.366 317.661 256.937 319.171 256.079C320.715 255.187 321.915 253.935 322.773 252.323C323.631 250.71 324.06 248.875 324.06 246.817C324.06 244.758 323.631 242.923 322.773 241.31C321.915 239.698 320.715 238.463 319.171 237.605C317.661 236.713 315.946 236.267 314.025 236.267C312.104 236.267 310.371 236.713 308.827 237.605C307.318 238.463 306.117 239.698 305.225 241.31C304.368 242.923 303.939 244.758 303.939 246.817C303.939 248.875 304.368 250.71 305.225 252.323C306.117 253.935 307.318 255.187 308.827 256.079C310.371 256.937 312.104 257.366 314.025 257.366ZM349.464 224.329H353.272V260.35H349.464V224.329ZM364.632 221.91C365.421 221.91 366.073 222.184 366.588 222.733C367.102 223.248 367.36 223.9 367.36 224.689C367.36 225.1 367.291 225.546 367.154 226.027C367.051 226.473 366.896 227.004 366.691 227.622L364.478 234.723H362.008L363.809 227.313C363.226 227.142 362.762 226.833 362.419 226.387C362.076 225.907 361.905 225.341 361.905 224.689C361.905 223.865 362.162 223.196 362.677 222.682C363.191 222.167 363.843 221.91 364.632 221.91ZM408.883 233.077C412.28 233.077 414.938 234.054 416.86 236.01C418.815 237.965 419.793 240.847 419.793 244.655V260.35H416.139V245.015C416.139 242.202 415.453 240.058 414.081 238.583C412.743 237.108 410.839 236.37 408.369 236.37C405.556 236.37 403.343 237.245 401.73 238.995C400.118 240.71 399.312 243.094 399.312 246.148V260.35H395.658V245.015C395.658 242.202 394.972 240.058 393.6 238.583C392.262 237.108 390.341 236.37 387.836 236.37C385.057 236.37 382.845 237.245 381.198 238.995C379.585 240.71 378.779 243.094 378.779 246.148V260.35H375.126V233.283H378.625V238.223C379.585 236.576 380.923 235.307 382.639 234.415C384.354 233.523 386.327 233.077 388.557 233.077C390.821 233.077 392.776 233.557 394.423 234.518C396.104 235.478 397.356 236.902 398.18 238.789C399.174 237.005 400.598 235.615 402.451 234.621C404.338 233.591 406.482 233.077 408.883 233.077Z" fill="white"/>
<g filter="url(#filter0_d)">
<path d="M259.629 359.042H222.995L216.006 375.95H197.294L232.463 297.045H250.499L285.781 375.95H266.618L259.629 359.042ZM253.88 345.177L241.368 314.968L228.856 345.177H253.88ZM309.523 323.309C311.627 320.378 314.445 318.162 317.977 316.659C321.584 315.156 325.717 314.404 330.376 314.404V330.636C328.422 330.486 327.107 330.411 326.431 330.411C321.396 330.411 317.451 331.838 314.595 334.694C311.74 337.475 310.312 341.683 310.312 347.319V375.95H292.727V315.306H309.523V323.309ZM361.455 376.852C356.42 376.852 351.498 376.251 346.688 375.048C341.879 373.771 338.046 372.193 335.191 370.314L341.052 357.689C343.757 359.418 347.026 360.846 350.859 361.973C354.691 363.025 358.449 363.551 362.131 363.551C369.571 363.551 373.291 361.71 373.291 358.028C373.291 356.299 372.276 355.059 370.247 354.308C368.218 353.556 365.099 352.917 360.891 352.391C355.931 351.64 351.836 350.776 348.605 349.799C345.373 348.822 342.555 347.093 340.15 344.614C337.821 342.134 336.656 338.602 336.656 334.018C336.656 330.185 337.746 326.804 339.925 323.873C342.179 320.867 345.411 318.537 349.619 316.884C353.902 315.231 358.937 314.404 364.724 314.404C369.007 314.404 373.253 314.893 377.461 315.87C381.745 316.771 385.277 318.049 388.057 319.702L382.196 332.214C376.86 329.208 371.036 327.705 364.724 327.705C360.966 327.705 358.148 328.231 356.27 329.283C354.391 330.336 353.452 331.688 353.452 333.341C353.452 335.22 354.466 336.535 356.495 337.287C358.524 338.038 361.755 338.752 366.189 339.428C371.149 340.255 375.207 341.157 378.363 342.134C381.519 343.036 384.262 344.726 386.592 347.206C388.921 349.686 390.086 353.143 390.086 357.577C390.086 361.334 388.959 364.678 386.704 367.609C384.45 370.54 381.144 372.832 376.785 374.485C372.502 376.063 367.391 376.852 361.455 376.852ZM437.796 314.404C445.31 314.404 451.36 316.659 455.944 321.167C460.603 325.676 462.933 332.365 462.933 341.232V375.95H445.348V343.937C445.348 339.128 444.296 335.558 442.192 333.229C440.088 330.824 437.044 329.622 433.061 329.622C428.628 329.622 425.096 331.012 422.465 333.792C419.835 336.498 418.52 340.556 418.52 345.966V375.95H400.936V292.311H418.52V321.618C420.85 319.289 423.668 317.523 426.974 316.32C430.281 315.043 433.888 314.404 437.796 314.404ZM503.333 314.404C512.726 314.404 519.94 316.659 524.975 321.167C530.01 325.601 532.528 332.327 532.528 341.345V375.95H516.07V368.398C512.764 374.034 506.602 376.852 497.584 376.852C492.925 376.852 488.867 376.063 485.41 374.485C482.028 372.907 479.436 370.727 477.632 367.947C475.829 365.167 474.927 362.01 474.927 358.478C474.927 352.842 477.031 348.409 481.239 345.177C485.523 341.946 492.098 340.33 500.966 340.33H514.943C514.943 336.498 513.778 333.567 511.449 331.538C509.119 329.434 505.625 328.382 500.966 328.382C497.734 328.382 494.54 328.908 491.384 329.96C488.303 330.937 485.673 332.289 483.494 334.018L477.181 321.731C480.488 319.402 484.433 317.598 489.017 316.32C493.676 315.043 498.448 314.404 503.333 314.404ZM501.98 365.016C504.986 365.016 507.654 364.34 509.983 362.987C512.313 361.559 513.966 359.493 514.943 356.788V350.588H502.882C495.668 350.588 492.061 352.955 492.061 357.689C492.061 359.944 492.925 361.747 494.653 363.1C496.457 364.377 498.899 365.016 501.98 365.016ZM626.108 314.404C633.698 314.404 639.71 316.659 644.143 321.167C648.652 325.601 650.907 332.289 650.907 341.232V375.95H633.322V343.937C633.322 339.128 632.308 335.558 630.279 333.229C628.325 330.824 625.507 329.622 621.824 329.622C617.691 329.622 614.422 330.974 612.018 333.68C609.613 336.31 608.41 340.255 608.41 345.515V375.95H590.826V343.937C590.826 334.394 586.993 329.622 579.328 329.622C575.27 329.622 572.039 330.974 569.634 333.68C567.229 336.31 566.027 340.255 566.027 345.515V375.95H548.443V315.306H565.238V322.295C567.493 319.74 570.235 317.786 573.467 316.433C576.773 315.081 580.38 314.404 584.288 314.404C588.571 314.404 592.442 315.268 595.898 316.997C599.355 318.65 602.136 321.092 604.24 324.324C606.72 321.167 609.838 318.725 613.596 316.997C617.428 315.268 621.599 314.404 626.108 314.404Z" fill="#F9CC14"/>
</g>
<path d="M208.64 431.255C211.907 431.255 214.416 432.039 216.167 433.607C217.919 435.149 218.794 437.489 218.794 440.625V452.662H213.07V450.035C211.92 451.995 209.777 452.976 206.64 452.976C205.019 452.976 203.608 452.701 202.406 452.152C201.229 451.603 200.328 450.845 199.7 449.878C199.073 448.911 198.759 447.813 198.759 446.585C198.759 444.624 199.491 443.082 200.955 441.958C202.445 440.834 204.732 440.272 207.816 440.272H212.678C212.678 438.939 212.273 437.92 211.463 437.214C210.652 436.482 209.437 436.116 207.816 436.116C206.692 436.116 205.581 436.299 204.484 436.665C203.412 437.005 202.497 437.475 201.739 438.077L199.543 433.803C200.694 432.993 202.066 432.365 203.66 431.921C205.281 431.477 206.941 431.255 208.64 431.255ZM208.169 448.859C209.215 448.859 210.143 448.623 210.953 448.153C211.763 447.656 212.338 446.938 212.678 445.997V443.84H208.483C205.973 443.84 204.719 444.664 204.719 446.31C204.719 447.094 205.019 447.722 205.621 448.192C206.248 448.637 207.097 448.859 208.169 448.859ZM257.194 431.568V449.133C257.194 453.002 256.188 455.877 254.175 457.759C252.162 459.641 249.222 460.582 245.353 460.582C243.314 460.582 241.38 460.333 239.55 459.837C237.721 459.34 236.205 458.621 235.002 457.68L237.433 453.289C238.322 454.021 239.446 454.596 240.805 455.014C242.164 455.459 243.523 455.681 244.883 455.681C247 455.681 248.555 455.197 249.548 454.23C250.568 453.289 251.077 451.852 251.077 449.917V449.016C249.483 450.767 247.261 451.642 244.412 451.642C242.478 451.642 240.701 451.224 239.08 450.388C237.486 449.525 236.218 448.323 235.277 446.781C234.336 445.239 233.865 443.461 233.865 441.449C233.865 439.436 234.336 437.658 235.277 436.116C236.218 434.574 237.486 433.385 239.08 432.548C240.701 431.686 242.478 431.255 244.412 431.255C247.47 431.255 249.797 432.261 251.391 434.274V431.568H257.194ZM245.628 446.624C247.248 446.624 248.568 446.153 249.588 445.212C250.633 444.245 251.156 442.991 251.156 441.449C251.156 439.906 250.633 438.665 249.588 437.724C248.568 436.757 247.248 436.273 245.628 436.273C244.007 436.273 242.674 436.757 241.628 437.724C240.583 438.665 240.06 439.906 240.06 441.449C240.06 442.991 240.583 444.245 241.628 445.212C242.674 446.153 244.007 446.624 245.628 446.624ZM271.395 431.255C274.662 431.255 277.171 432.039 278.922 433.607C280.674 435.149 281.549 437.489 281.549 440.625V452.662H275.825V450.035C274.675 451.995 272.532 452.976 269.395 452.976C267.774 452.976 266.363 452.701 265.161 452.152C263.984 451.603 263.083 450.845 262.455 449.878C261.828 448.911 261.514 447.813 261.514 446.585C261.514 444.624 262.246 443.082 263.71 441.958C265.2 440.834 267.487 440.272 270.571 440.272H275.433C275.433 438.939 275.028 437.92 274.218 437.214C273.407 436.482 272.192 436.116 270.571 436.116C269.447 436.116 268.336 436.299 267.239 436.665C266.167 437.005 265.252 437.475 264.494 438.077L262.298 433.803C263.449 432.993 264.821 432.365 266.415 431.921C268.036 431.477 269.696 431.255 271.395 431.255ZM270.924 448.859C271.97 448.859 272.898 448.623 273.708 448.153C274.518 447.656 275.093 446.938 275.433 445.997V443.84H271.238C268.729 443.84 267.474 444.664 267.474 446.31C267.474 447.094 267.774 447.722 268.376 448.192C269.003 448.637 269.852 448.859 270.924 448.859ZM314.099 431.255C316.739 431.255 318.83 432.039 320.372 433.607C321.941 435.149 322.725 437.475 322.725 440.586V452.662H316.608V441.527C316.608 439.854 316.255 438.612 315.55 437.802C314.87 436.966 313.89 436.548 312.609 436.548C311.172 436.548 310.035 437.018 309.198 437.959C308.362 438.874 307.943 440.246 307.943 442.076V452.662H301.827V441.527C301.827 438.207 300.494 436.548 297.828 436.548C296.416 436.548 295.292 437.018 294.456 437.959C293.62 438.874 293.201 440.246 293.201 442.076V452.662H287.085V431.568H292.927V433.999C293.711 433.11 294.665 432.431 295.789 431.96C296.939 431.49 298.194 431.255 299.553 431.255C301.043 431.255 302.389 431.555 303.591 432.156C304.794 432.731 305.761 433.581 306.493 434.705C307.355 433.607 308.44 432.757 309.747 432.156C311.08 431.555 312.531 431.255 314.099 431.255ZM349.099 442.193C349.099 442.272 349.06 442.821 348.982 443.84H333.024C333.312 445.147 333.991 446.18 335.063 446.938C336.134 447.696 337.468 448.075 339.062 448.075C340.16 448.075 341.127 447.918 341.963 447.604C342.826 447.264 343.623 446.742 344.355 446.036L347.609 449.564C345.623 451.839 342.721 452.976 338.905 452.976C336.527 452.976 334.422 452.518 332.593 451.603C330.763 450.662 329.352 449.368 328.358 447.722C327.365 446.075 326.868 444.206 326.868 442.115C326.868 440.05 327.352 438.194 328.319 436.548C329.312 434.875 330.659 433.581 332.358 432.666C334.083 431.725 336.004 431.255 338.121 431.255C340.186 431.255 342.055 431.699 343.728 432.588C345.401 433.476 346.707 434.757 347.648 436.43C348.616 438.077 349.099 439.998 349.099 442.193ZM338.16 435.881C336.775 435.881 335.612 436.273 334.671 437.057C333.73 437.841 333.155 438.913 332.946 440.272H343.336C343.127 438.939 342.551 437.881 341.61 437.096C340.67 436.286 339.519 435.881 338.16 435.881ZM385.761 423.57V452.662H379.919V450.231C378.403 452.061 376.207 452.976 373.332 452.976C371.345 452.976 369.542 452.531 367.921 451.642C366.327 450.754 365.072 449.486 364.157 447.839C363.242 446.193 362.785 444.285 362.785 442.115C362.785 439.946 363.242 438.037 364.157 436.391C365.072 434.744 366.327 433.476 367.921 432.588C369.542 431.699 371.345 431.255 373.332 431.255C376.024 431.255 378.128 432.104 379.644 433.803V423.57H385.761ZM374.39 447.957C375.933 447.957 377.213 447.434 378.233 446.389C379.252 445.317 379.762 443.892 379.762 442.115C379.762 440.338 379.252 438.926 378.233 437.881C377.213 436.809 375.933 436.273 374.39 436.273C372.822 436.273 371.528 436.809 370.509 437.881C369.489 438.926 368.98 440.338 368.98 442.115C368.98 443.892 369.489 445.317 370.509 446.389C371.528 447.434 372.822 447.957 374.39 447.957ZM412.084 442.193C412.084 442.272 412.045 442.821 411.966 443.84H396.009C396.296 445.147 396.976 446.18 398.048 446.938C399.119 447.696 400.452 448.075 402.047 448.075C403.145 448.075 404.112 447.918 404.948 447.604C405.811 447.264 406.608 446.742 407.34 446.036L410.594 449.564C408.608 451.839 405.706 452.976 401.89 452.976C399.511 452.976 397.407 452.518 395.578 451.603C393.748 450.662 392.336 449.368 391.343 447.722C390.35 446.075 389.853 444.206 389.853 442.115C389.853 440.05 390.337 438.194 391.304 436.548C392.297 434.875 393.643 433.581 395.342 432.666C397.067 431.725 398.989 431.255 401.106 431.255C403.171 431.255 405.04 431.699 406.712 432.588C408.385 433.476 409.692 434.757 410.633 436.43C411.6 438.077 412.084 439.998 412.084 442.193ZM401.145 435.881C399.76 435.881 398.597 436.273 397.656 437.057C396.715 437.841 396.14 438.913 395.93 440.272H406.32C406.111 438.939 405.536 437.881 404.595 437.096C403.654 436.286 402.504 435.881 401.145 435.881ZM436.71 431.568L427.81 452.662H421.497L412.637 431.568H418.949L424.791 445.918L430.829 431.568H436.71ZM459.294 442.193C459.294 442.272 459.255 442.821 459.176 443.84H443.219C443.506 445.147 444.186 446.18 445.257 446.938C446.329 447.696 447.662 448.075 449.257 448.075C450.354 448.075 451.322 447.918 452.158 447.604C453.021 447.264 453.818 446.742 454.55 446.036L457.804 449.564C455.817 451.839 452.916 452.976 449.1 452.976C446.721 452.976 444.617 452.518 442.787 451.603C440.958 450.662 439.546 449.368 438.553 447.722C437.56 446.075 437.063 444.206 437.063 442.115C437.063 440.05 437.547 438.194 438.514 436.548C439.507 434.875 440.853 433.581 442.552 432.666C444.277 431.725 446.198 431.255 448.316 431.255C450.381 431.255 452.25 431.699 453.922 432.588C455.595 433.476 456.902 434.757 457.843 436.43C458.81 438.077 459.294 439.998 459.294 442.193ZM448.355 435.881C446.97 435.881 445.806 436.273 444.865 437.057C443.924 437.841 443.349 438.913 443.14 440.272H453.53C453.321 438.939 452.746 437.881 451.805 437.096C450.864 436.286 449.714 435.881 448.355 435.881ZM463.366 423.57H469.482V452.662H463.366V423.57ZM485.196 452.976C482.974 452.976 480.975 452.518 479.197 451.603C477.446 450.662 476.074 449.368 475.08 447.722C474.087 446.075 473.59 444.206 473.59 442.115C473.59 440.024 474.087 438.155 475.08 436.508C476.074 434.862 477.446 433.581 479.197 432.666C480.975 431.725 482.974 431.255 485.196 431.255C487.418 431.255 489.404 431.725 491.155 432.666C492.907 433.581 494.279 434.862 495.272 436.508C496.265 438.155 496.762 440.024 496.762 442.115C496.762 444.206 496.265 446.075 495.272 447.722C494.279 449.368 492.907 450.662 491.155 451.603C489.404 452.518 487.418 452.976 485.196 452.976ZM485.196 447.957C486.764 447.957 488.045 447.434 489.038 446.389C490.058 445.317 490.567 443.892 490.567 442.115C490.567 440.338 490.058 438.926 489.038 437.881C488.045 436.809 486.764 436.273 485.196 436.273C483.628 436.273 482.334 436.809 481.314 437.881C480.295 438.926 479.785 440.338 479.785 442.115C479.785 443.892 480.295 445.317 481.314 446.389C482.334 447.434 483.628 447.957 485.196 447.957ZM513.318 431.255C515.279 431.255 517.056 431.712 518.651 432.627C520.271 433.516 521.539 434.783 522.454 436.43C523.369 438.051 523.826 439.946 523.826 442.115C523.826 444.285 523.369 446.193 522.454 447.839C521.539 449.46 520.271 450.728 518.651 451.642C517.056 452.531 515.279 452.976 513.318 452.976C510.626 452.976 508.509 452.126 506.967 450.427V460.268H500.85V431.568H506.692V433.999C508.208 432.169 510.417 431.255 513.318 431.255ZM512.26 447.957C513.828 447.957 515.109 447.434 516.102 446.389C517.122 445.317 517.631 443.892 517.631 442.115C517.631 440.338 517.122 438.926 516.102 437.881C515.109 436.809 513.828 436.273 512.26 436.273C510.692 436.273 509.398 436.809 508.378 437.881C507.385 438.926 506.888 440.338 506.888 442.115C506.888 443.892 507.385 445.317 508.378 446.389C509.398 447.434 510.692 447.957 512.26 447.957ZM548.583 442.193C548.583 442.272 548.544 442.821 548.465 443.84H532.508C532.795 445.147 533.475 446.18 534.547 446.938C535.618 447.696 536.951 448.075 538.546 448.075C539.644 448.075 540.611 447.918 541.447 447.604C542.31 447.264 543.107 446.742 543.839 446.036L547.093 449.564C545.106 451.839 542.205 452.976 538.389 452.976C536.01 452.976 533.906 452.518 532.077 451.603C530.247 450.662 528.835 449.368 527.842 447.722C526.849 446.075 526.352 444.206 526.352 442.115C526.352 440.05 526.836 438.194 527.803 436.548C528.796 434.875 530.142 433.581 531.841 432.666C533.566 431.725 535.488 431.255 537.605 431.255C539.67 431.255 541.539 431.699 543.211 432.588C544.884 433.476 546.191 434.757 547.132 436.43C548.099 438.077 548.583 439.998 548.583 442.193ZM537.644 435.881C536.259 435.881 535.095 436.273 534.155 437.057C533.214 437.841 532.638 438.913 532.429 440.272H542.819C542.61 438.939 542.035 437.881 541.094 437.096C540.153 436.286 539.003 435.881 537.644 435.881ZM558.497 434.352C559.229 433.333 560.209 432.561 561.437 432.039C562.692 431.516 564.13 431.255 565.75 431.255V436.9C565.071 436.848 564.613 436.822 564.378 436.822C562.627 436.822 561.254 437.319 560.261 438.312C559.268 439.279 558.771 440.743 558.771 442.703V452.662H552.655V431.568H558.497V434.352ZM589.466 419.649H594.916L581.977 456.583H576.527L589.466 419.649ZM628.862 431.568V449.133C628.862 453.002 627.855 455.877 625.843 457.759C623.83 459.641 620.889 460.582 617.021 460.582C614.982 460.582 613.048 460.333 611.218 459.837C609.388 459.34 607.872 458.621 606.67 457.68L609.101 453.289C609.99 454.021 611.114 454.596 612.473 455.014C613.832 455.459 615.191 455.681 616.55 455.681C618.668 455.681 620.223 455.197 621.216 454.23C622.236 453.289 622.745 451.852 622.745 449.917V449.016C621.151 450.767 618.929 451.642 616.08 451.642C614.146 451.642 612.368 451.224 610.748 450.388C609.153 449.525 607.886 448.323 606.945 446.781C606.004 445.239 605.533 443.461 605.533 441.449C605.533 439.436 606.004 437.658 606.945 436.116C607.886 434.574 609.153 433.385 610.748 432.548C612.368 431.686 614.146 431.255 616.08 431.255C619.138 431.255 621.464 432.261 623.059 434.274V431.568H628.862ZM617.295 446.624C618.916 446.624 620.236 446.153 621.255 445.212C622.301 444.245 622.824 442.991 622.824 441.449C622.824 439.906 622.301 438.665 621.255 437.724C620.236 436.757 618.916 436.273 617.295 436.273C615.675 436.273 614.342 436.757 613.296 437.724C612.251 438.665 611.728 439.906 611.728 441.449C611.728 442.991 612.251 444.245 613.296 445.212C614.342 446.153 615.675 446.624 617.295 446.624ZM643.062 431.255C646.33 431.255 648.839 432.039 650.59 433.607C652.341 435.149 653.217 437.489 653.217 440.625V452.662H647.493V450.035C646.343 451.995 644.199 452.976 641.063 452.976C639.442 452.976 638.031 452.701 636.828 452.152C635.652 451.603 634.75 450.845 634.123 449.878C633.496 448.911 633.182 447.813 633.182 446.585C633.182 444.624 633.914 443.082 635.378 441.958C636.868 440.834 639.155 440.272 642.239 440.272H647.101C647.101 438.939 646.696 437.92 645.885 437.214C645.075 436.482 643.86 436.116 642.239 436.116C641.115 436.116 640.004 436.299 638.906 436.665C637.835 437.005 636.92 437.475 636.162 438.077L633.966 433.803C635.116 432.993 636.489 432.365 638.083 431.921C639.704 431.477 641.363 431.255 643.062 431.255ZM642.592 448.859C643.637 448.859 644.565 448.623 645.376 448.153C646.186 447.656 646.761 446.938 647.101 445.997V443.84H642.906C640.396 443.84 639.142 444.664 639.142 446.31C639.142 447.094 639.442 447.722 640.043 448.192C640.671 448.637 641.52 448.859 642.592 448.859ZM685.767 431.255C688.407 431.255 690.498 432.039 692.04 433.607C693.608 435.149 694.392 437.475 694.392 440.586V452.662H688.276V441.527C688.276 439.854 687.923 438.612 687.217 437.802C686.538 436.966 685.558 436.548 684.277 436.548C682.839 436.548 681.702 437.018 680.866 437.959C680.029 438.874 679.611 440.246 679.611 442.076V452.662H673.495V441.527C673.495 438.207 672.162 436.548 669.496 436.548C668.084 436.548 666.96 437.018 666.124 437.959C665.287 438.874 664.869 440.246 664.869 442.076V452.662H658.753V431.568H664.595V433.999C665.379 433.11 666.333 432.431 667.457 431.96C668.607 431.49 669.862 431.255 671.221 431.255C672.711 431.255 674.057 431.555 675.259 432.156C676.462 432.731 677.429 433.581 678.16 434.705C679.023 433.607 680.108 432.757 681.415 432.156C682.748 431.555 684.198 431.255 685.767 431.255ZM720.767 442.193C720.767 442.272 720.728 442.821 720.649 443.84H704.692C704.979 445.147 705.659 446.18 706.731 446.938C707.802 447.696 709.135 448.075 710.73 448.075C711.828 448.075 712.795 447.918 713.631 447.604C714.494 447.264 715.291 446.742 716.023 446.036L719.277 449.564C717.29 451.839 714.389 452.976 710.573 452.976C708.194 452.976 706.09 452.518 704.26 451.603C702.431 450.662 701.019 449.368 700.026 447.722C699.033 446.075 698.536 444.206 698.536 442.115C698.536 440.05 699.02 438.194 699.987 436.548C700.98 434.875 702.326 433.581 704.025 432.666C705.75 431.725 707.672 431.255 709.789 431.255C711.854 431.255 713.723 431.699 715.395 432.588C717.068 433.476 718.375 434.757 719.316 436.43C720.283 438.077 720.767 439.998 720.767 442.193ZM709.828 435.881C708.443 435.881 707.279 436.273 706.338 437.057C705.397 437.841 704.822 438.913 704.613 440.272H715.003C714.794 438.939 714.219 437.881 713.278 437.096C712.337 436.286 711.187 435.881 709.828 435.881ZM730.681 434.352C731.413 433.333 732.393 432.561 733.621 432.039C734.876 431.516 736.314 431.255 737.934 431.255V436.9C737.255 436.848 736.797 436.822 736.562 436.822C734.811 436.822 733.438 437.319 732.445 438.312C731.452 439.279 730.955 440.743 730.955 442.703V452.662H724.839V431.568H730.681V434.352Z" fill="white"/>
<defs>
<filter id="filter0_d" x="197.295" y="292.311" width="468.315" height="99.2441" filterUnits="userSpaceOnUse" color-interpolation-filters="sRGB">
<feFlood flood-opacity="0" result="BackgroundImageFix"/>
<feColorMatrix in="SourceAlpha" type="matrix" values="0 0 0 0 0 0 0 0 0 0 0 0 0 0 0 0 0 0 127 0"/>
<feOffset dx="9.80189" dy="9.80189"/>
<feGaussianBlur stdDeviation="2.45047"/>
<feColorMatrix type="matrix" values="0 0 0 0 0 0 0 0 0 0 0 0 0 0 0 0 0 0 0.25 0"/>
<feBlend mode="normal" in2="BackgroundImageFix" result="effect1_dropShadow"/>
<feBlend mode="normal" in="SourceGraphic" in2="effect1_dropShadow" result="shape"/>
</filter>
</defs>
</svg>
