<svg width="466" height="934" viewBox="0 0 466 934" fill="none" xmlns="http://www.w3.org/2000/svg">
<rect width="466" height="934" fill="#F9CC14"/>
<path fill-rule="evenodd" clip-rule="evenodd" d="M295.462 160.455V191.909H248.615H201.769V199.773V207.636H193.962H186.154V215.5V223.364H170.538H154.923V231.227V239.091H139.308H123.692V215.5V191.909H108.077H92.4615V184.045V176.182H76.8462H61.2308V184.045V191.909H45.6154H30V215.5V239.091H37.8077H45.6154V254.818V270.545H100.269H154.923V262.682V254.818H170.538H186.154V246.955V239.091H201.769H217.385V246.955V254.818H209.577H201.769V278.409V302H193.962H186.154V309.864V317.727H178.346H170.538V333.455V349.182H162.731H154.923V396.364V443.545V451.409V459.273H170.538V467.136V475H115.885H61.2308V490.727V506.455H53.4231H45.6154V514.318V522.182H37.8077H30V545.773V569.364H37.8077H45.6154V561.5V553.636H53.4231H61.2308V545.773V537.909H76.8462H92.4615V530.045V522.182H100.269H108.077V514.318V506.455H131.5H154.923V522.182V537.909H139.308H123.692V545.773V553.636H115.885H108.077V561.5V569.364H84.6539H61.2308V577.227V585.091H53.4231H45.6154V600.818V616.545H53.4231H61.2308V624.409V632.273H69.0385H76.8462V640.136V648H100.269H123.692V640.136V632.273H115.885H108.077V608.682V585.091H123.692H139.308V577.227V569.364H154.923H170.538V561.5V553.636H186.154H201.769V545.773V537.909H217.385H233V522.182V506.455H240.808H248.615V490.727V475H256.423H264.231V459.273V443.545H272.038H279.846V427.818V412.091H287.654H295.462V388.5V364.909H303.269H311.077V349.182V333.455H318.885H326.692V325.591V317.727H334.5H342.308V294.136V270.545H357.923H373.538V286.273V302H381.346H389.154V309.864V317.727H396.962H404.769V325.591V333.455H389.154H373.538V341.318V349.182H381.346H389.154V357.045V364.909H412.577H436V341.318V317.727H428.192H420.385V302V286.273H412.577H404.769V270.545V254.818H396.962H389.154V246.955V239.091H381.346H373.538V231.227V223.364H365.731H357.923V215.5V207.636H350.115H342.308V191.909V176.182H350.115H357.923V160.455V144.727H350.115H342.308V136.864V129H318.885H295.462V160.455Z" fill="#007AE0"/>
<path d="M78.0527 824.773H67.3105V835.516H78.0527V824.773ZM56.5684 857V819.402H83.4238V824.773H88.7949V835.516H83.4238V840.887H88.7949V851.629H83.4238V857H56.5684ZM78.0527 851.629V840.887H67.3105V851.629H78.0527ZM115.65 840.887V824.773H104.908V840.887H115.65ZM104.908 846.258V857H94.166V824.773H99.5371V819.402H121.021V824.773H126.393V857H115.65V846.258H104.908ZM153.248 824.773H142.506V835.516H158.619V840.887H163.99V851.629H158.619V857H137.135V851.629H131.764V846.258H142.506V851.629H153.248V840.887H137.135V835.516H131.764V824.773H137.135V819.402H158.619V824.773H163.99V830.145H153.248V824.773ZM180.104 857H169.361V819.402H180.104V835.516H185.475V830.145H190.846V819.402H201.588V830.145H196.217V835.516H190.846V840.887H196.217V846.258H201.588V857H190.846V846.258H185.475V840.887H180.104V857ZM206.959 857V819.402H233.814V824.773H217.701V835.516H233.814V840.887H217.701V851.629H233.814V857H206.959ZM271.412 819.402V824.773H260.67V857H249.928V824.773H239.186V819.402H271.412ZM298.268 824.773H287.525V835.516H298.268V824.773ZM276.783 857V819.402H303.639V824.773H309.01V835.516H303.639V840.887H309.01V851.629H303.639V857H276.783ZM298.268 851.629V840.887H287.525V851.629H298.268ZM335.865 840.887V824.773H325.123V840.887H335.865ZM325.123 846.258V857H314.381V824.773H319.752V819.402H341.236V824.773H346.607V857H335.865V846.258H325.123ZM378.834 850.286V857H351.979V819.402H362.721V850.286H378.834ZM411.061 850.286V857H384.205V819.402H394.947V850.286H411.061Z" fill="white"/>
<path d="M78.0527 824.773H67.3105V835.516H78.0527V824.773ZM56.5684 857V819.402H83.4238V824.773H88.7949V835.516H83.4238V840.887H88.7949V851.629H83.4238V857H56.5684ZM78.0527 851.629V840.887H67.3105V851.629H78.0527ZM115.65 840.887V824.773H104.908V840.887H115.65ZM104.908 846.258V857H94.166V824.773H99.5371V819.402H121.021V824.773H126.393V857H115.65V846.258H104.908ZM153.248 824.773H142.506V835.516H158.619V840.887H163.99V851.629H158.619V857H137.135V851.629H131.764V846.258H142.506V851.629H153.248V840.887H137.135V835.516H131.764V824.773H137.135V819.402H158.619V824.773H163.99V830.145H153.248V824.773ZM180.104 857H169.361V819.402H180.104V835.516H185.475V830.145H190.846V819.402H201.588V830.145H196.217V835.516H190.846V840.887H196.217V846.258H201.588V857H190.846V846.258H185.475V840.887H180.104V857ZM206.959 857V819.402H233.814V824.773H217.701V835.516H233.814V840.887H217.701V851.629H233.814V857H206.959ZM271.412 819.402V824.773H260.67V857H249.928V824.773H239.186V819.402H271.412ZM298.268 824.773H287.525V835.516H298.268V824.773ZM276.783 857V819.402H303.639V824.773H309.01V835.516H303.639V840.887H309.01V851.629H303.639V857H276.783ZM298.268 851.629V840.887H287.525V851.629H298.268ZM335.865 840.887V824.773H325.123V840.887H335.865ZM325.123 846.258V857H314.381V824.773H319.752V819.402H341.236V824.773H346.607V857H335.865V846.258H325.123ZM378.834 850.286V857H351.979V819.402H362.721V850.286H378.834ZM411.061 850.286V857H384.205V819.402H394.947V850.286H411.061Z" fill="black"/>
</svg>
