<svg viewBox="0 0 1861 296" fill="none" xmlns="http://www.w3.org/2000/svg">
<path d="M1417.88 171.479L1290 171.479L1359.86 230.879L1429.71 171.479L1417.88 171.479Z" fill="#007AE0"/>
<path d="M1667.45 171.479L1539.57 171.479L1609.42 230.879L1679.28 171.479L1667.45 171.479Z" fill="#007AE0"/>
<path d="M1522.56 171L1448.3 171L1488.86 205.49L1529.43 171L1522.56 171Z" fill="#007AE0"/>
<path d="M1470.73 217.945L1396.47 217.945L1437.04 183.455L1477.6 217.945L1470.73 217.945Z" fill="#007AE0"/>
<path d="M1487.38 234.232L1373.94 234.232L1435.91 286.926L1497.88 234.232L1487.38 234.232Z" fill="#007AE0"/>
<path d="M1612.9 251.978L1532.68 183.768V258.288L1620.32 258.288L1612.9 251.978Z" fill="#007AE0"/>
<rect y="112" width="1867" height="61" fill="#007AE0"/>
<path d="M868.058 89.1741L845.87 110.918L845.578 111.204L867.894 133.976L875.485 126.537L882.637 133.836L890.52 126.112L898.245 133.994L905.543 126.842L912.982 134.432L920.573 126.994L928.011 134.585L935.894 126.86L942.76 133.867L949.767 127L957.206 134.591L964.797 127.153L972.521 135.035L980.112 127.597L987.264 134.895L994.855 127.457L995.141 127.749L1002.29 135.048L1009.88 127.609L1017.32 135.2L1024.62 128.047L1031.49 135.054L1039.37 127.329L1040.52 128.497L1046.52 134.628L1060.83 120.609L1053.68 113.31L1061.27 105.872L1046.68 90.9823L1039.09 98.4209L1032.22 91.4141L1025.5 97.9944L1017.78 90.1117L1009.9 97.8364L1002.17 89.9537L994.581 97.3923L987.715 90.3854L980.416 97.5379L972.692 89.6553L964.809 97.3799L957.656 90.0812L950.066 97.5198L942.627 89.929L935.036 97.3676L927.884 90.0688L920.293 97.5074L913.141 90.2086L905.55 97.6472L898.111 90.0565L890.812 97.209L883.374 89.6182L875.783 97.0568L868.058 89.1741Z" fill="#393939"/>
<path d="M1046.68 90.9823L1039.09 98.4209L1032.08 105.287L1039.23 112.586L1031.93 119.739L1039.37 127.329L1040.52 128.497L1046.52 134.628L1060.83 120.609L1053.68 113.31L1061.27 105.872L1046.68 90.9823Z" fill="#F9CC14"/>
<path d="M1031.49 135.054L1039.37 127.329L1031.93 119.738L1039.23 112.586L1032.08 105.287L1032.37 105.001L1039.09 98.4208L1032.22 91.4139L1025.5 97.9942L1017.91 105.433L1025.07 112.732L1017.18 120.456L1024.62 128.047L1031.49 135.054Z" fill="white"/>
<path d="M867.316 105.354L876.075 96.7709L868.064 88.5962L845.292 110.912L867.894 133.976L875.485 126.538L866.902 117.779L873.324 111.485L867.316 105.354Z" fill="white"/>
<path d="M852.591 103.759L860.029 111.35L852.439 118.789L845 111.198L852.591 103.759Z" fill="#F9CC14"/>
</svg>
