<svg width="547" height="821" viewBox="0 0 547 821" fill="none" xmlns="http://www.w3.org/2000/svg">
<path d="M0.163086 820.214H546.527V114.972H0.163086V820.214Z" fill="#F9CC14"/>
<path d="M391.683 115.135L499.082 115.549L447.177 60.246L381.747 115.097L391.683 115.135Z" fill="#F9CC14"/>
<path d="M182.547 115.078L289.946 115.491L238.042 60.1882L172.612 115.039L182.547 115.078Z" fill="#F9CC14"/>
<path d="M304.177 115.99L366.538 116.23L336.4 84.1187L298.408 115.968L304.177 115.99Z" fill="#F9CC14"/>
<path d="M353.049 72.6287L415.41 72.8685L377.418 104.718L347.28 72.6065L353.049 72.6287Z" fill="#F9CC14"/>
<path d="M340.916 57.4727L436.189 57.8392L390.145 8.78052L332.102 57.4388L340.916 57.4727Z" fill="#F9CC14"/>
<path d="M237.524 40.6135L297.127 104.118L305.611 35.0217L269.209 34.7386L232.01 34.7386L237.524 40.6135Z" fill="#F9CC14"/>
</svg>
