<svg width="531" height="820" viewBox="0 0 531 820" fill="none" xmlns="http://www.w3.org/2000/svg">
<path d="M284.524 704.08L177.125 703.667L229.03 758.969L294.46 704.118L284.524 704.08Z" fill="#F9CC14"/>
<path d="M494.119 704.886L386.72 704.472L438.624 759.775L504.054 704.924L494.119 704.886Z" fill="#F9CC14"/>
<path d="M372.489 703.973L310.128 703.733L340.266 735.844L378.258 703.995L372.489 703.973Z" fill="#F9CC14"/>
<path d="M323.617 747.335L261.256 747.095L299.248 715.246L329.386 747.357L323.617 747.335Z" fill="#F9CC14"/>
<path d="M335.75 762.49L240.477 762.124L286.521 811.183L344.564 762.524L335.75 762.49Z" fill="#F9CC14"/>
<path d="M439.142 779.35L379.539 715.846L371.055 784.942L444.656 785.225L439.142 779.35Z" fill="#F9CC14"/>
<path d="M407.055 785.309L390.726 727.054L445.45 785.309L407.055 785.309Z" fill="#F9CC14"/>
<path d="M530.593 0.377502H0.116516V705.62H530.593V0.377502Z" fill="#F9CC14"/>
</svg>
