<svg width="542" height="934" viewBox="0 0 542 934" fill="none" xmlns="http://www.w3.org/2000/svg">
<rect x="38" width="466" height="934" fill="#F9CC14"/>
<path fill-rule="evenodd" clip-rule="evenodd" d="M354.385 85.7576V127.515H291.846H229.308V137.955V148.394H218.885H208.462V158.833V169.273H187.615H166.769V179.712V190.152H145.923H125.077V158.833V127.515H104.231H83.3846V117.076V106.636H62.5385H41.6923V117.076V127.515H20.8462H0V158.833V190.152H10.4231H20.8462V211.03V231.909H93.8077H166.769V221.47V211.03H187.615H208.462V200.591V190.152H229.308H250.154V200.591V211.03H239.731H229.308V242.348V273.667H218.885H208.462V284.106V294.545H198.038H187.615V315.424V336.303H177.192H166.769V398.939V461.576V472.015V482.455H187.615V492.894V503.333H114.654H41.6923V524.212V545.091H31.2692H20.8462V555.53V565.97H10.4231H0V597.288V628.606H10.4231H20.8462V618.167V607.727H31.2692H41.6923V597.288V586.848H62.5385H83.3846V576.409V565.97H93.8077H104.231V555.53V545.091H135.5H166.769V565.97V586.848H145.923H125.077V597.288V607.727H114.654H104.231V618.167V628.606H72.9615H41.6923V639.045V649.485H31.2692H20.8462V670.364V691.242H31.2692H41.6923V701.682V712.121H52.1154H62.5385V722.561V733H93.8077H125.077V722.561V712.121H114.654H104.231V680.803V649.485H125.077H145.923V639.045V628.606H166.769H187.615V618.167V607.727H208.462H229.308V597.288V586.848H250.154H271V565.97V545.091H281.423H291.846V524.212V503.333H302.269H312.692V482.455V461.576H323.115H333.538V440.697V419.818H343.962H354.385V388.5V357.182H364.808H375.231V336.303V315.424H385.654H396.077V304.985V294.545H406.5H416.923V263.227V231.909H437.769H458.615V252.788V273.667H469.038H479.462V284.106V294.545H489.885H500.308V304.985V315.424H479.462H458.615V325.864V336.303H469.038H479.462V346.742V357.182H510.731H542V325.864V294.545H531.577H521.154V273.667V252.788H510.731H500.308V231.909V211.03H489.885H479.462V200.591V190.152H469.038H458.615V179.712V169.273H448.192H437.769V158.833V148.394H427.346H416.923V127.515V106.636H427.346H437.769V85.7576V64.8788H427.346H416.923V54.4394V44H385.654H354.385V85.7576Z" fill="#007AE0"/>
<path d="M116.053 824.773H105.311V835.516H116.053V824.773ZM94.5684 857V819.402H121.424V824.773H126.795V835.516H121.424V840.887H126.795V851.629H121.424V857H94.5684ZM116.053 851.629V840.887H105.311V851.629H116.053ZM153.65 840.887V824.773H142.908V840.887H153.65ZM142.908 846.258V857H132.166V824.773H137.537V819.402H159.021V824.773H164.393V857H153.65V846.258H142.908ZM191.248 824.773H180.506V835.516H196.619V840.887H201.99V851.629H196.619V857H175.135V851.629H169.764V846.258H180.506V851.629H191.248V840.887H175.135V835.516H169.764V824.773H175.135V819.402H196.619V824.773H201.99V830.145H191.248V824.773ZM218.104 857H207.361V819.402H218.104V835.516H223.475V830.145H228.846V819.402H239.588V830.145H234.217V835.516H228.846V840.887H234.217V846.258H239.588V857H228.846V846.258H223.475V840.887H218.104V857ZM244.959 857V819.402H271.814V824.773H255.701V835.516H271.814V840.887H255.701V851.629H271.814V857H244.959ZM309.412 819.402V824.773H298.67V857H287.928V824.773H277.186V819.402H309.412ZM336.268 824.773H325.525V835.516H336.268V824.773ZM314.783 857V819.402H341.639V824.773H347.01V835.516H341.639V840.887H347.01V851.629H341.639V857H314.783ZM336.268 851.629V840.887H325.525V851.629H336.268ZM373.865 840.887V824.773H363.123V840.887H373.865ZM363.123 846.258V857H352.381V824.773H357.752V819.402H379.236V824.773H384.607V857H373.865V846.258H363.123ZM416.834 850.286V857H389.979V819.402H400.721V850.286H416.834ZM449.061 850.286V857H422.205V819.402H432.947V850.286H449.061Z" fill="white"/>
<path d="M116.053 824.773H105.311V835.516H116.053V824.773ZM94.5684 857V819.402H121.424V824.773H126.795V835.516H121.424V840.887H126.795V851.629H121.424V857H94.5684ZM116.053 851.629V840.887H105.311V851.629H116.053ZM153.65 840.887V824.773H142.908V840.887H153.65ZM142.908 846.258V857H132.166V824.773H137.537V819.402H159.021V824.773H164.393V857H153.65V846.258H142.908ZM191.248 824.773H180.506V835.516H196.619V840.887H201.99V851.629H196.619V857H175.135V851.629H169.764V846.258H180.506V851.629H191.248V840.887H175.135V835.516H169.764V824.773H175.135V819.402H196.619V824.773H201.99V830.145H191.248V824.773ZM218.104 857H207.361V819.402H218.104V835.516H223.475V830.145H228.846V819.402H239.588V830.145H234.217V835.516H228.846V840.887H234.217V846.258H239.588V857H228.846V846.258H223.475V840.887H218.104V857ZM244.959 857V819.402H271.814V824.773H255.701V835.516H271.814V840.887H255.701V851.629H271.814V857H244.959ZM309.412 819.402V824.773H298.67V857H287.928V824.773H277.186V819.402H309.412ZM336.268 824.773H325.525V835.516H336.268V824.773ZM314.783 857V819.402H341.639V824.773H347.01V835.516H341.639V840.887H347.01V851.629H341.639V857H314.783ZM336.268 851.629V840.887H325.525V851.629H336.268ZM373.865 840.887V824.773H363.123V840.887H373.865ZM363.123 846.258V857H352.381V824.773H357.752V819.402H379.236V824.773H384.607V857H373.865V846.258H363.123ZM416.834 850.286V857H389.979V819.402H400.721V850.286H416.834ZM449.061 850.286V857H422.205V819.402H432.947V850.286H449.061Z" fill="black"/>
</svg>
