<svg width="1523" height="2021" viewBox="0 0 1523 2021" fill="none" xmlns="http://www.w3.org/2000/svg">
<path d="M2 2021H1522.5V265.588V0H1202.7H2V2021Z" fill="#007AE0"/>
<path fill-rule="evenodd" clip-rule="evenodd" d="M131.809 983.152L132.847 987.259L128.568 988.34L124.29 989.421L125.372 993.699L126.453 997.978L122.346 999.016L118.239 1000.05L127.711 1037.53L137.183 1075.01L141.29 1073.97L145.397 1072.93L146.479 1077.21L147.56 1081.49L151.838 1080.41L156.116 1079.33L157.154 1083.43L158.192 1087.54L229.039 1069.63L299.886 1051.73L298.848 1047.62L297.81 1043.51L302.088 1042.43L306.366 1041.35L305.285 1037.07L304.204 1032.79L308.311 1031.76L312.418 1030.72L302.946 993.241L293.474 955.764L289.367 956.802L285.259 957.84L284.178 953.562L283.097 949.283L278.819 950.365L274.541 951.446L273.502 947.339L272.464 943.232L201.617 961.138L130.771 979.045L131.809 983.152ZM196.649 993.344L197.687 997.451L205.828 995.394C212.655 993.668 214.018 993.366 214.275 993.519C214.523 993.667 214.775 994.467 215.601 997.735L216.62 1001.77L220.727 1000.73L224.834 999.693L225.872 1003.8L226.911 1007.91L231.018 1006.87L235.125 1005.83L236.206 1010.11L237.287 1014.39L233.18 1015.43L229.073 1016.46L230.111 1020.57L231.149 1024.68L227.042 1025.72L222.935 1026.75L223.955 1030.79C224.781 1034.06 224.939 1034.88 224.791 1035.13C224.638 1035.38 223.295 1035.77 216.468 1037.49L208.327 1039.55L209.365 1043.66L210.403 1047.76L206.125 1048.84L201.847 1049.93L194.451 1020.66L187.055 991.4L191.333 990.318L195.611 989.237L196.649 993.344Z" fill="#F8CC14"/>
<path fill-rule="evenodd" clip-rule="evenodd" d="M212.41 1191.49L211.739 1194.19L206.121 1192.8L200.503 1191.41L199.831 1194.12L199.16 1196.83L196.351 1196.13L193.542 1195.43L192.87 1198.14L192.199 1200.85L189.39 1200.15L186.581 1199.46L185.909 1202.17L185.238 1204.87L182.429 1204.18L179.62 1203.48L178.948 1206.19L178.277 1208.9L175.468 1208.2L172.659 1207.51L171.987 1210.21L171.315 1212.92L168.507 1212.23L165.698 1211.53L164.354 1216.95L163.011 1222.36L160.202 1221.67L157.393 1220.97L156.05 1226.39L154.707 1231.8L151.898 1231.11L149.089 1230.41L143.044 1254.79L137 1279.17L139.808 1279.86L142.617 1280.56L141.274 1285.98L139.931 1291.39L142.74 1292.09L145.549 1292.79L144.877 1295.49L144.205 1298.2L147.014 1298.9L149.823 1299.6L149.151 1302.31L148.48 1305.01L151.289 1305.71L154.098 1306.41L153.426 1309.12L152.754 1311.82L155.563 1312.52L158.372 1313.22L157.7 1315.93L157.029 1318.63L159.838 1319.33L162.647 1320.03L161.975 1322.74L161.303 1325.44L164.112 1326.14L166.921 1326.84L166.249 1329.55L165.578 1332.25L171.196 1333.65L176.813 1335.04L176.142 1337.75L175.47 1340.46L181.088 1341.85L186.706 1343.24L189.392 1332.41L192.079 1321.58L180.843 1318.79L169.608 1316L170.279 1313.29L170.951 1310.59L168.142 1309.89L165.333 1309.19L166.005 1306.48L166.676 1303.78L163.868 1303.08L161.059 1302.38L161.73 1299.67L162.402 1296.97L159.593 1296.27L156.784 1295.57L157.456 1292.86L158.127 1290.16L163.745 1291.55L169.363 1292.94L168.691 1295.65L168.02 1298.36L170.829 1299.06L173.637 1299.75L172.966 1302.46L172.294 1305.17L175.103 1305.87L177.912 1306.56L177.24 1309.27L176.569 1311.98L182.186 1313.37L187.804 1314.76L188.476 1312.06L189.148 1309.35L191.956 1310.04L194.765 1310.74L195.437 1308.03L196.109 1305.32L198.917 1306.02L201.726 1306.72L202.398 1304.01L203.07 1301.3L191.834 1298.51L180.599 1295.73L181.27 1293.02L181.942 1290.31L179.133 1289.61L176.324 1288.92L176.996 1286.21L177.667 1283.5L174.858 1282.8L172.05 1282.11L172.721 1279.4L173.393 1276.69L170.584 1275.99L167.775 1275.3L171.805 1259.05L175.835 1242.79L178.644 1243.49L181.452 1244.19L182.124 1241.48L182.796 1238.77L185.605 1239.47L188.413 1240.16L189.085 1237.45L189.757 1234.75L186.948 1234.05L184.139 1233.35L186.154 1225.23L188.169 1217.1L196.595 1219.19L205.022 1221.28L204.351 1223.99L203.679 1226.7L206.488 1227.39L209.297 1228.09L208.625 1230.8L207.953 1233.51L210.762 1234.2L213.571 1234.9L214.243 1232.19L214.914 1229.48L228.959 1232.97L243.003 1236.45L242.332 1239.16L241.66 1241.87L244.469 1242.56L247.278 1243.26L247.949 1240.55L248.621 1237.84L251.43 1238.54L254.239 1239.23L254.911 1236.53L255.582 1233.82L264.009 1235.91L272.436 1238L270.421 1246.12L268.406 1254.25L265.597 1253.55L262.788 1252.86L262.116 1255.56L261.445 1258.27L264.254 1258.97L267.062 1259.67L266.391 1262.37L265.719 1265.08L268.528 1265.78L271.337 1266.48L267.307 1282.73L263.277 1298.98L260.468 1298.28L257.66 1297.59L256.988 1300.29L256.316 1303L253.507 1302.31L250.698 1301.61L250.027 1304.32L249.355 1307.03L246.546 1306.33L243.737 1305.63L243.066 1308.34L242.394 1311.05L231.159 1308.26L219.923 1305.48L219.251 1308.19L218.58 1310.9L221.389 1311.59L224.197 1312.29L223.526 1315L222.854 1317.71L225.663 1318.4L228.472 1319.1L224.442 1335.35L220.412 1351.6L226.03 1352.99L231.648 1354.39L232.32 1351.68L232.991 1348.97L235.8 1349.67L238.609 1350.36L239.281 1347.66L239.952 1344.95L242.761 1345.64L245.57 1346.34L246.242 1343.63L246.913 1340.92L249.722 1341.62L252.531 1342.32L253.203 1339.61L253.874 1336.9L256.683 1337.59L259.492 1338.29L260.164 1335.58L260.835 1332.87L263.644 1333.57L266.453 1334.27L267.125 1331.56L267.796 1328.85L270.605 1329.55L273.414 1330.24L274.086 1327.53L274.758 1324.83L277.566 1325.52L280.375 1326.22L281.719 1320.8L283.062 1315.38L285.871 1316.08L288.68 1316.78L294.724 1292.4L300.769 1268.02L297.96 1267.33L295.151 1266.63L296.495 1261.21L297.838 1255.8L295.029 1255.1L292.22 1254.4L293.563 1248.99L294.907 1243.57L292.098 1242.87L289.289 1242.18L289.961 1239.47L290.632 1236.76L287.823 1236.06L285.014 1235.37L285.686 1232.66L286.358 1229.95L283.549 1229.25L280.74 1228.56L281.411 1225.85L282.083 1223.14L279.274 1222.44L276.465 1221.75L277.137 1219.04L277.809 1216.33L275 1215.63L272.191 1214.94L272.862 1212.23L273.534 1209.52L267.916 1208.12L262.299 1206.73L262.97 1204.02L263.642 1201.31L238.362 1195.05L213.082 1188.78L212.41 1191.49Z" fill="#F8CC14"/>
<path fill-rule="evenodd" clip-rule="evenodd" d="M168.226 668.362L167.266 673.491L162.137 672.531L157.007 671.571L146.504 727.691L136 783.813L141.129 784.768L146.258 785.732L145.298 790.857L144.338 795.99L174.812 801.695L205.285 807.4L209.069 787.181L212.852 766.963L203.025 765.129C194.911 763.612 193.137 763.202 192.848 762.776C192.416 762.145 192.528 761.394 193.071 761.284C193.378 761.224 193.382 761.096 193.089 760.772C192.797 760.439 192.801 760.32 193.108 760.252C193.588 760.158 193.864 759.041 193.428 758.956C193.234 758.922 193.664 756.031 194.627 750.889C195.852 744.339 196.221 742.804 196.639 742.518C197.062 742.228 198.863 742.487 206.979 744.007L216.806 745.849L220.589 725.63L224.373 705.415L229.502 706.376L234.631 707.336L235.592 702.207L236.552 697.077L251.94 699.957L267.327 702.838L265.407 713.096L263.487 723.355L253.659 721.515C244.883 719.872 243.769 719.719 243.234 720.085C242.799 720.383 242.732 720.547 242.987 720.69C243.445 720.944 243.139 722.563 242.608 722.7C242.28 722.784 242.267 722.854 242.542 723.052C242.983 723.367 238.446 748.023 237.963 747.93C237.515 747.844 237.433 748.748 237.834 749.337C238.123 749.755 239.897 750.164 248.013 751.69L257.84 753.524L255.944 763.654C254.249 772.71 253.985 773.827 253.45 774.194C253.015 774.493 252.837 774.493 252.797 774.203C252.733 773.734 251.611 773.461 251.529 773.896C251.494 774.083 248.657 773.665 243.628 772.727C238.599 771.789 235.804 771.15 235.84 770.954C235.871 770.792 235.625 770.604 235.293 770.544C234.961 770.476 234.664 770.561 234.633 770.732C234.602 770.894 234.305 770.979 233.973 770.92C233.641 770.86 233.345 770.945 233.313 771.107C233.282 771.278 233.392 771.431 233.559 771.465C233.757 771.499 232.599 778.262 230.19 791.138C227.78 804.006 226.415 810.726 226.217 810.691C226.051 810.657 225.89 810.768 225.859 810.939C225.822 811.135 231.133 812.235 241.19 814.119L256.578 816.993L257.538 811.868L258.498 806.735L263.627 807.698L268.756 808.662L279.26 752.543L289.764 696.419L284.635 695.459L279.506 694.499L280.465 689.37L281.426 684.241L225.306 673.737L169.186 663.233L168.226 668.362Z" fill="#F8CC14"/>
<path d="M375.027 176.071H388.104L379.077 221.459H366L375.027 176.071ZM383.801 169.743C381.552 169.743 379.696 169.096 378.233 167.803C376.827 166.453 376.124 164.822 376.124 162.91C376.124 160.66 376.911 158.804 378.486 157.341C380.117 155.823 382.227 155.063 384.814 155.063C387.12 155.063 388.976 155.71 390.382 157.004C391.844 158.241 392.575 159.788 392.575 161.644C392.575 164.063 391.76 166.031 390.129 167.55C388.498 169.012 386.389 169.743 383.801 169.743ZM426.727 175.396C431.789 175.396 435.811 176.746 438.791 179.445C441.772 182.089 443.263 185.885 443.263 190.835C443.263 192.691 443.066 194.519 442.672 196.318L437.61 221.459H424.449L429.342 197.162C429.567 196.206 429.68 195.165 429.68 194.041C429.68 191.678 429.033 189.878 427.74 188.641C426.446 187.404 424.506 186.785 421.918 186.785C418.544 186.785 415.731 187.769 413.482 189.738C411.288 191.65 409.798 194.547 409.01 198.428L404.455 221.459H391.293L400.321 176.071H412.807L411.794 180.964C415.844 177.252 420.822 175.396 426.727 175.396ZM480.418 168.562C478.393 168.562 476.79 169.124 475.609 170.249C474.484 171.318 473.697 173.033 473.247 175.396L472.91 177.083H484.468L482.443 187.207H471.222L464.389 221.459H451.228L458.061 187.207H450.974L452.999 177.083H460.086L460.592 174.468C461.661 169.406 463.854 165.44 467.173 162.572C470.547 159.647 474.934 158.185 480.334 158.185C482.359 158.185 484.271 158.41 486.071 158.86C487.927 159.31 489.502 159.929 490.795 160.716L485.649 170.165C484.243 169.096 482.499 168.562 480.418 168.562ZM505.381 222.134C500.825 222.134 496.803 221.291 493.316 219.603C489.885 217.916 487.214 215.554 485.301 212.517C483.445 209.423 482.517 205.852 482.517 201.802C482.517 196.796 483.699 192.297 486.061 188.304C488.423 184.31 491.685 181.161 495.847 178.855C500.009 176.549 504.706 175.396 509.936 175.396C514.548 175.396 518.57 176.239 522.001 177.927C525.432 179.614 528.075 182.004 529.931 185.098C531.843 188.135 532.8 191.678 532.8 195.728C532.8 200.734 531.618 205.233 529.256 209.226C526.95 213.22 523.688 216.369 519.47 218.675C515.308 220.981 510.611 222.134 505.381 222.134ZM506.224 211.251C508.755 211.251 511.033 210.633 513.058 209.395C515.083 208.102 516.657 206.33 517.782 204.08C518.907 201.83 519.47 199.243 519.47 196.318C519.47 193.225 518.57 190.778 516.77 188.979C514.97 187.179 512.439 186.279 509.177 186.279C506.59 186.279 504.284 186.926 502.259 188.219C500.234 189.457 498.659 191.2 497.535 193.45C496.41 195.7 495.847 198.287 495.847 201.212C495.847 204.305 496.747 206.752 498.547 208.551C500.403 210.351 502.962 211.251 506.224 211.251ZM584.878 161.56C592.078 161.56 598.293 162.853 603.523 165.44C608.81 168.028 612.832 171.655 615.588 176.324C618.343 180.936 619.721 186.335 619.721 192.522C619.721 197.696 618.822 202.562 617.022 207.117C615.278 211.617 612.803 215.245 609.598 218C606.448 220.7 602.848 222.05 598.799 222.05C595.874 222.05 593.456 221.544 591.543 220.531C589.687 219.519 588.394 218.057 587.662 216.144C584.063 220.081 579.254 222.05 573.236 222.05C569.974 222.05 567.021 221.319 564.377 219.857C561.79 218.394 559.737 216.313 558.219 213.613C556.7 210.857 555.941 207.68 555.941 204.08C555.941 199.637 556.897 195.531 558.809 191.763C560.778 187.994 563.449 185.013 566.824 182.82C570.255 180.57 574.079 179.445 578.298 179.445C584.541 179.445 588.956 181.667 591.543 186.11L592.809 180.036H604.282L598.799 207.455C598.63 208.186 598.546 208.833 598.546 209.395C598.546 211.645 599.699 212.77 602.005 212.77C603.861 212.77 605.492 211.757 606.898 209.733C608.304 207.652 609.373 205.092 610.104 202.055C610.835 198.962 611.201 195.953 611.201 193.028C611.201 185.66 608.866 179.923 604.198 175.818C599.53 171.655 592.696 169.574 583.697 169.574C576.554 169.574 570.227 171.149 564.715 174.299C559.259 177.449 555.013 181.779 551.976 187.291C548.938 192.747 547.42 198.849 547.42 205.599C547.42 210.604 548.46 215.02 550.541 218.844C552.622 222.612 555.66 225.537 559.653 227.618C563.646 229.699 568.427 230.74 573.995 230.74C579.676 230.74 584.991 229.671 589.94 227.534L591.796 235.295C589.209 236.364 586.256 237.208 582.938 237.826C579.676 238.501 576.47 238.839 573.32 238.839C566.121 238.839 559.85 237.461 554.507 234.705C549.163 231.949 545.058 228.096 542.189 223.147C539.377 218.254 537.971 212.629 537.971 206.274C537.971 197.781 539.968 190.132 543.961 183.326C547.954 176.521 553.494 171.205 560.581 167.381C567.724 163.5 575.823 161.56 584.878 161.56ZM576.779 212.348C579.198 212.348 581.335 211.729 583.191 210.492C585.047 209.255 586.481 207.567 587.494 205.43C588.562 203.293 589.097 200.959 589.097 198.428C589.097 195.503 588.253 193.253 586.566 191.678C584.935 190.047 582.657 189.232 579.732 189.232C576.189 189.232 573.292 190.497 571.042 193.028C568.793 195.503 567.668 198.849 567.668 203.068C567.668 206.049 568.483 208.355 570.114 209.986C571.745 211.561 573.967 212.348 576.779 212.348ZM642.504 205.43C642.391 205.88 642.335 206.499 642.335 207.286C642.335 210.211 643.938 211.673 647.144 211.673C648.887 211.673 650.659 211.139 652.459 210.07L654.399 219.435C651.474 221.234 647.706 222.134 643.094 222.134C638.82 222.134 635.389 221.01 632.801 218.76C630.214 216.51 628.921 213.417 628.921 209.48C628.921 208.355 629.061 207.033 629.342 205.514L632.97 187.207H625.968L627.993 177.083H634.995L637.189 166.031H650.35L648.156 177.083H659.461L657.436 187.207H646.131L642.504 205.43ZM696.715 175.396C701.777 175.396 705.798 176.746 708.779 179.445C711.76 182.145 713.25 185.97 713.25 190.919C713.25 192.719 713.053 194.519 712.66 196.318L707.598 221.459H694.437L699.33 197.162C699.555 196.206 699.667 195.165 699.667 194.041C699.667 191.678 699.021 189.878 697.727 188.641C696.433 187.404 694.493 186.785 691.906 186.785C688.531 186.785 685.719 187.769 683.469 189.738C681.276 191.65 679.785 194.547 678.998 198.428L674.442 221.459H661.281L673.767 158.86H686.928L682.71 180.205C686.591 176.999 691.259 175.396 696.715 175.396ZM769.379 195.39C769.379 197.471 769.119 199.777 768.619 202.308H733.859C734.309 208.495 738.219 211.589 745.589 211.589C747.889 211.589 750.089 211.223 752.169 210.492C754.299 209.761 756.159 208.72 757.729 207.37L763.219 216.06C760.689 218.085 757.789 219.603 754.529 220.616C751.269 221.628 747.839 222.134 744.239 222.134C739.569 222.134 735.459 221.319 731.919 219.688C728.429 218 725.729 215.61 723.819 212.517C721.962 209.423 721.034 205.852 721.034 201.802C721.034 196.796 722.159 192.297 724.409 188.304C726.719 184.254 729.889 181.104 733.939 178.855C737.989 176.549 742.599 175.396 747.779 175.396C752.169 175.396 755.959 176.211 759.169 177.842C762.429 179.473 764.929 181.807 766.679 184.845C768.479 187.882 769.379 191.397 769.379 195.39ZM747.189 185.266C744.099 185.266 741.479 186.11 739.339 187.797C737.209 189.429 735.689 191.706 734.789 194.631H757.309C757.309 191.706 756.379 189.429 754.529 187.797C752.729 186.11 750.279 185.266 747.189 185.266ZM828.169 176.071L819.149 221.459H806.659L807.499 216.988C803.739 220.419 799.099 222.134 793.579 222.134C790.039 222.134 786.779 221.319 783.799 219.688C780.819 218.057 778.429 215.723 776.629 212.685C774.879 209.592 774.009 205.964 774.009 201.802C774.009 196.796 775.109 192.297 777.299 188.304C779.549 184.254 782.589 181.104 786.409 178.855C790.239 176.549 794.459 175.396 799.069 175.396C806.039 175.396 810.959 177.674 813.829 182.229L815.009 176.071H828.169ZM797.629 211.251C800.219 211.251 802.529 210.633 804.549 209.395C806.579 208.102 808.149 206.33 809.279 204.08C810.399 201.83 810.959 199.243 810.959 196.318C810.959 193.225 810.039 190.778 808.179 188.979C806.379 187.179 803.849 186.279 800.589 186.279C797.999 186.279 795.689 186.926 793.669 188.219C791.639 189.457 790.069 191.2 788.939 193.45C787.819 195.7 787.259 198.287 787.259 201.212C787.259 204.305 788.159 206.752 789.959 208.551C791.809 210.351 794.369 211.251 797.629 211.251ZM851.749 181.47C853.719 179.333 856.079 177.786 858.839 176.83C861.649 175.874 864.939 175.396 868.709 175.396L866.339 187.544C864.769 187.432 863.759 187.376 863.309 187.376C859.309 187.376 856.109 188.36 853.689 190.328C851.329 192.297 849.719 195.362 848.879 199.524L844.489 221.459H831.329L840.359 176.071H852.849L851.749 181.47ZM884.039 222.134C880.099 222.134 876.359 221.713 872.819 220.869C869.329 219.969 866.599 218.816 864.629 217.41L869.689 207.877C871.659 209.17 874.049 210.211 876.869 210.998C879.729 211.786 882.599 212.179 885.469 212.179C888.449 212.179 890.669 211.814 892.139 211.082C893.599 210.295 894.329 209.198 894.329 207.792C894.329 206.667 893.679 205.852 892.389 205.346C891.089 204.839 889.009 204.305 886.149 203.743C882.879 203.124 880.179 202.449 878.049 201.718C875.969 200.987 874.139 199.806 872.559 198.174C871.039 196.487 870.279 194.209 870.279 191.341C870.279 186.335 872.369 182.426 876.529 179.614C880.749 176.802 886.259 175.396 893.059 175.396C896.209 175.396 899.279 175.733 902.259 176.408C905.239 177.083 907.769 178.011 909.849 179.192L905.129 188.81C901.419 186.504 896.939 185.351 891.709 185.351C888.849 185.351 886.649 185.773 885.129 186.616C883.669 187.46 882.939 188.529 882.939 189.822C882.939 191.003 883.589 191.875 884.879 192.438C886.169 192.944 888.339 193.506 891.379 194.125C894.579 194.744 897.199 195.419 899.219 196.15C901.299 196.825 903.099 197.978 904.619 199.609C906.139 201.24 906.899 203.461 906.899 206.274C906.899 211.336 904.759 215.245 900.489 218C896.269 220.756 890.789 222.134 884.039 222.134ZM947.749 175.396C952.819 175.396 956.839 176.746 959.819 179.445C962.799 182.145 964.289 185.97 964.289 190.919C964.289 192.719 964.089 194.519 963.699 196.318L958.639 221.459H945.479L950.369 197.162C950.589 196.206 950.709 195.165 950.709 194.041C950.709 191.678 950.059 189.878 948.769 188.641C947.469 187.404 945.529 186.785 942.939 186.785C939.569 186.785 936.759 187.769 934.509 189.738C932.309 191.65 930.819 194.547 930.039 198.428L925.479 221.459H912.319L924.809 158.86H937.969L933.749 180.205C937.629 176.999 942.299 175.396 947.749 175.396ZM1026.24 176.071L1017.21 221.459H1004.72L1005.57 216.988C1001.8 220.419 997.159 222.134 991.649 222.134C988.099 222.134 984.839 221.319 981.859 219.688C978.879 218.057 976.489 215.723 974.689 212.685C972.949 209.592 972.069 205.964 972.069 201.802C972.069 196.796 973.169 192.297 975.359 188.304C977.609 184.254 980.649 181.104 984.479 178.855C988.299 176.549 992.519 175.396 997.129 175.396C1004.1 175.396 1009.03 177.674 1011.89 182.229L1013.08 176.071H1026.24ZM995.699 211.251C998.279 211.251 1000.59 210.633 1002.61 209.395C1004.64 208.102 1006.21 206.33 1007.34 204.08C1008.46 201.83 1009.03 199.243 1009.03 196.318C1009.03 193.225 1008.1 190.778 1006.24 188.979C1004.44 187.179 1001.91 186.279 998.649 186.279C996.059 186.279 993.759 186.926 991.729 188.219C989.709 189.457 988.129 191.2 987.009 193.45C985.879 195.7 985.319 198.287 985.319 201.212C985.319 204.305 986.219 206.752 988.019 208.551C989.869 210.351 992.429 211.251 995.699 211.251ZM1095.37 175.396C1100.32 175.396 1104.25 176.746 1107.18 179.445C1110.1 182.089 1111.57 185.857 1111.57 190.75C1111.57 192.55 1111.37 194.406 1110.98 196.318L1106 221.459H1092.84L1097.65 197.246C1097.87 196.122 1097.98 194.969 1097.98 193.787C1097.98 191.481 1097.36 189.738 1096.13 188.557C1094.95 187.376 1093.17 186.785 1090.81 186.785C1084.46 186.785 1080.49 190.582 1078.92 198.174L1074.28 221.459H1061.12L1065.92 197.246C1066.15 196.122 1066.26 194.997 1066.26 193.872C1066.26 191.566 1065.64 189.822 1064.41 188.641C1063.22 187.404 1061.45 186.785 1059.09 186.785C1052.74 186.785 1048.74 190.638 1047.11 198.343L1042.56 221.459H1029.39L1038.42 176.071H1050.91L1049.9 180.795C1053.83 177.195 1058.58 175.396 1064.15 175.396C1067.3 175.396 1070.09 176.042 1072.51 177.336C1074.98 178.573 1076.84 180.401 1078.07 182.82C1080.27 180.401 1082.83 178.573 1085.75 177.336C1088.68 176.042 1091.88 175.396 1095.37 175.396ZM1123.87 222.134C1121.62 222.134 1119.76 221.431 1118.3 220.025C1116.84 218.563 1116.11 216.735 1116.11 214.541C1116.11 211.954 1116.95 209.845 1118.64 208.214C1120.33 206.583 1122.41 205.767 1124.88 205.767C1127.13 205.767 1128.96 206.47 1130.37 207.877C1131.83 209.283 1132.56 211.111 1132.56 213.36C1132.56 215.891 1131.69 218 1129.94 219.688C1128.26 221.319 1126.23 222.134 1123.87 222.134ZM1163.34 222.134C1158.67 222.134 1154.6 221.291 1151.11 219.603C1147.62 217.916 1144.92 215.554 1143.01 212.517C1141.15 209.423 1140.23 205.852 1140.23 201.802C1140.23 196.796 1141.41 192.297 1143.77 188.304C1146.13 184.31 1149.42 181.161 1153.64 178.855C1157.86 176.549 1162.61 175.396 1167.9 175.396C1172.74 175.396 1176.9 176.408 1180.38 178.433C1183.93 180.401 1186.57 183.214 1188.32 186.869L1177.18 192.438C1175.21 188.332 1171.84 186.279 1167.06 186.279C1164.47 186.279 1162.13 186.926 1160.05 188.219C1158.03 189.457 1156.42 191.2 1155.24 193.45C1154.12 195.7 1153.56 198.259 1153.56 201.127C1153.56 204.221 1154.48 206.695 1156.34 208.551C1158.2 210.351 1160.78 211.251 1164.1 211.251C1168.94 211.251 1172.65 209.226 1175.24 205.177L1184.94 211.251C1182.75 214.682 1179.74 217.354 1175.91 219.266C1172.15 221.178 1167.95 222.134 1163.34 222.134ZM1212.36 222.134C1207.8 222.134 1203.78 221.291 1200.29 219.603C1196.86 217.916 1194.19 215.554 1192.28 212.517C1190.42 209.423 1189.5 205.852 1189.5 201.802C1189.5 196.796 1190.68 192.297 1193.04 188.304C1195.4 184.31 1198.66 181.161 1202.82 178.855C1206.99 176.549 1211.68 175.396 1216.91 175.396C1221.53 175.396 1225.55 176.239 1228.98 177.927C1232.41 179.614 1235.05 182.004 1236.91 185.098C1238.82 188.135 1239.78 191.678 1239.78 195.728C1239.78 200.734 1238.6 205.233 1236.23 209.226C1233.93 213.22 1230.67 216.369 1226.45 218.675C1222.29 220.981 1217.59 222.134 1212.36 222.134ZM1213.2 211.251C1215.73 211.251 1218.01 210.633 1220.04 209.395C1222.06 208.102 1223.64 206.33 1224.76 204.08C1225.88 201.83 1226.45 199.243 1226.45 196.318C1226.45 193.225 1225.55 190.778 1223.75 188.979C1221.95 187.179 1219.42 186.279 1216.15 186.279C1213.57 186.279 1211.26 186.926 1209.24 188.219C1207.21 189.457 1205.64 191.2 1204.51 193.45C1203.39 195.7 1202.82 198.287 1202.82 201.212C1202.82 204.305 1203.72 206.752 1205.52 208.551C1207.38 210.351 1209.94 211.251 1213.2 211.251ZM1309.83 175.396C1314.78 175.396 1318.71 176.746 1321.64 179.445C1324.56 182.089 1326.02 185.857 1326.02 190.75C1326.02 192.55 1325.83 194.406 1325.43 196.318L1320.46 221.459H1307.29L1312.1 197.246C1312.33 196.122 1312.44 194.969 1312.44 193.787C1312.44 191.481 1311.82 189.738 1310.59 188.557C1309.4 187.376 1307.63 186.785 1305.27 186.785C1298.91 186.785 1294.95 190.582 1293.37 198.174L1288.73 221.459H1275.57L1280.38 197.246C1280.61 196.122 1280.72 194.997 1280.72 193.872C1280.72 191.566 1280.1 189.822 1278.86 188.641C1277.68 187.404 1275.91 186.785 1273.55 186.785C1267.19 186.785 1263.2 190.638 1261.57 198.343L1257.01 221.459H1243.85L1252.88 176.071H1265.37L1264.35 180.795C1268.29 177.195 1273.04 175.396 1278.61 175.396C1281.76 175.396 1284.54 176.042 1286.96 177.336C1289.44 178.573 1291.29 180.401 1292.53 182.82C1294.72 180.401 1297.28 178.573 1300.21 177.336C1303.13 176.042 1306.34 175.396 1309.83 175.396Z" fill="white"/>
<path d="M412.776 491.741H385.272L377.595 504.396H363L401.217 445.34H414.716L429.227 504.396H415.56L412.776 491.741ZM410.498 481.364L405.52 458.586L391.6 481.364H410.498ZM454.927 464.407C456.895 462.27 459.258 460.723 462.014 459.767C464.826 458.811 468.116 458.332 471.884 458.332L469.522 470.481C467.947 470.369 466.935 470.312 466.485 470.312C462.492 470.312 459.286 471.297 456.867 473.265C454.505 475.234 452.902 478.299 452.058 482.461L447.671 504.396H434.51L443.537 459.007H456.024L454.927 464.407ZM487.215 505.071C483.278 505.071 479.537 504.649 475.994 503.806C472.507 502.906 469.779 501.753 467.81 500.347L472.872 490.813C474.841 492.107 477.231 493.148 480.044 493.935C482.912 494.722 485.78 495.116 488.649 495.116C491.63 495.116 493.851 494.75 495.314 494.019C496.776 493.232 497.507 492.135 497.507 490.729C497.507 489.604 496.86 488.789 495.567 488.282C494.273 487.776 492.192 487.242 489.324 486.679C486.062 486.061 483.362 485.386 481.225 484.655C479.144 483.923 477.316 482.742 475.741 481.111C474.222 479.424 473.463 477.146 473.463 474.278C473.463 469.272 475.544 465.363 479.706 462.551C483.924 459.739 489.436 458.332 496.242 458.332C499.391 458.332 502.457 458.67 505.438 459.345C508.419 460.02 510.95 460.948 513.031 462.129L508.306 471.747C504.594 469.441 500.123 468.288 494.892 468.288C492.023 468.288 489.83 468.71 488.311 469.553C486.849 470.397 486.118 471.465 486.118 472.759C486.118 473.94 486.765 474.812 488.058 475.374C489.352 475.881 491.517 476.443 494.554 477.062C497.76 477.68 500.376 478.355 502.4 479.087C504.482 479.761 506.281 480.914 507.8 482.546C509.318 484.177 510.078 486.398 510.078 489.21C510.078 494.272 507.941 498.181 503.666 500.937C499.448 503.693 493.964 505.071 487.215 505.071ZM550.932 458.332C555.994 458.332 560.015 459.682 562.996 462.382C565.977 465.082 567.468 468.906 567.468 473.856C567.468 475.656 567.271 477.455 566.877 479.255L561.815 504.396H548.654L553.547 480.099C553.772 479.143 553.885 478.102 553.885 476.977C553.885 474.615 553.238 472.815 551.944 471.578C550.651 470.341 548.71 469.722 546.123 469.722C542.748 469.722 539.936 470.706 537.687 472.675C535.493 474.587 534.003 477.484 533.215 481.364L528.659 504.396H515.498L527.984 441.797H541.146L536.927 463.141C540.808 459.935 545.476 458.332 550.932 458.332ZM629.415 459.007L620.388 504.396H607.901L608.745 499.925C604.977 503.356 600.337 505.071 594.825 505.071C591.281 505.071 588.019 504.256 585.038 502.625C582.057 500.994 579.667 498.659 577.867 495.622C576.124 492.529 575.252 488.901 575.252 484.739C575.252 479.733 576.349 475.234 578.542 471.24C580.792 467.191 583.829 464.041 587.654 461.792C591.478 459.486 595.696 458.332 600.308 458.332C607.283 458.332 612.204 460.61 615.073 465.166L616.254 459.007H629.415ZM598.874 494.188C601.461 494.188 603.767 493.569 605.792 492.332C607.817 491.038 609.392 489.267 610.517 487.017C611.642 484.767 612.204 482.18 612.204 479.255C612.204 476.162 611.276 473.715 609.42 471.915C607.62 470.116 605.089 469.216 601.827 469.216C599.24 469.216 596.934 469.863 594.909 471.156C592.884 472.393 591.309 474.137 590.185 476.387C589.06 478.637 588.497 481.224 588.497 484.148C588.497 487.242 589.397 489.689 591.197 491.488C593.053 493.288 595.612 494.188 598.874 494.188ZM698.547 458.332C703.496 458.332 707.433 459.682 710.358 462.382C713.283 465.026 714.743 468.794 714.743 473.687C714.743 475.487 714.553 477.343 714.153 479.255L709.177 504.396H696.016L700.825 480.183C701.05 479.058 701.162 477.905 701.162 476.724C701.162 474.418 700.543 472.675 699.306 471.494C698.125 470.312 696.353 469.722 693.991 469.722C687.635 469.722 683.67 473.518 682.095 481.111L677.455 504.396H664.294L669.103 480.183C669.328 479.058 669.44 477.934 669.44 476.809C669.44 474.503 668.822 472.759 667.584 471.578C666.403 470.341 664.632 469.722 662.269 469.722C655.914 469.722 651.92 473.575 650.289 481.28L645.734 504.396H632.573L641.6 459.007H654.086L653.073 463.732C657.011 460.132 661.763 458.332 667.331 458.332C670.481 458.332 673.265 458.979 675.684 460.273C678.158 461.51 680.014 463.338 681.252 465.757C683.445 463.338 686.004 461.51 688.929 460.273C691.854 458.979 695.06 458.332 698.547 458.332ZM766.383 505.409C761.713 505.409 757.243 504.79 752.963 503.553C748.693 502.315 745.263 500.74 742.673 498.828L748.243 488.282C750.943 490.251 753.973 491.77 757.353 492.838C760.723 493.907 764.183 494.441 767.733 494.441C771.493 494.441 774.483 493.822 776.673 492.585C778.863 491.348 779.963 489.66 779.963 487.523C779.963 485.78 779.093 484.458 777.343 483.558C775.603 482.602 772.823 481.589 768.993 480.521C765.173 479.396 762.053 478.327 759.633 477.315C757.213 476.246 755.103 474.671 753.303 472.59C751.563 470.509 750.683 467.753 750.683 464.322C750.683 460.329 751.783 456.814 753.973 453.777C756.223 450.74 759.373 448.405 763.423 446.774C767.533 445.143 772.283 444.328 777.683 444.328C781.673 444.328 785.443 444.778 788.993 445.678C792.533 446.521 795.573 447.759 798.103 449.39L792.953 459.851C790.763 458.332 788.283 457.208 785.533 456.476C782.773 455.689 779.903 455.295 776.923 455.295C773.043 455.295 769.983 455.97 767.733 457.32C765.483 458.67 764.353 460.414 764.353 462.551C764.353 463.844 764.833 464.941 765.793 465.841C766.743 466.685 767.953 467.388 769.413 467.95C770.883 468.456 772.933 469.075 775.573 469.806C779.343 470.819 782.433 471.859 784.853 472.928C787.273 473.94 789.323 475.459 791.013 477.484C792.753 479.452 793.633 482.067 793.633 485.33C793.633 489.379 792.503 492.923 790.253 495.96C788.003 498.941 784.823 501.275 780.723 502.962C776.613 504.593 771.833 505.409 766.383 505.409ZM834.183 458.332C839.243 458.332 843.263 459.682 846.253 462.382C849.233 465.082 850.723 468.906 850.723 473.856C850.723 475.656 850.523 477.455 850.133 479.255L845.063 504.396H831.903L836.803 480.099C837.023 479.143 837.133 478.102 837.133 476.977C837.133 474.615 836.493 472.815 835.193 471.578C833.903 470.341 831.963 469.722 829.373 469.722C826.003 469.722 823.193 470.706 820.943 472.675C818.743 474.587 817.253 477.484 816.463 481.364L811.913 504.396H798.753L811.233 441.797H824.393L820.183 463.141C824.063 459.935 828.733 458.332 834.183 458.332ZM866.113 459.007H879.183L870.163 504.396H857.083L866.113 459.007ZM874.883 452.68C872.633 452.68 870.773 452.033 869.313 450.74C867.913 449.39 867.203 447.759 867.203 445.846C867.203 443.597 867.993 441.741 869.563 440.278C871.203 438.76 873.303 438 875.893 438C878.203 438 880.053 438.647 881.463 439.941C882.923 441.178 883.653 442.725 883.653 444.581C883.653 446.999 882.843 448.968 881.213 450.486C879.583 451.949 877.473 452.68 874.883 452.68ZM902.793 464.407C904.763 462.27 907.123 460.723 909.883 459.767C912.693 458.811 915.983 458.332 919.753 458.332L917.383 470.481C915.813 470.369 914.803 470.312 914.353 470.312C910.353 470.312 907.153 471.297 904.733 473.265C902.373 475.234 900.763 478.299 899.923 482.461L895.533 504.396H882.373L891.403 459.007H903.893L902.793 464.407ZM952.213 478.749L967.813 504.396H952.543L941.743 486.764L933.733 493.429L931.543 504.396H918.383L930.863 441.797H944.023L937.023 476.809L958.793 459.007H975.913L952.213 478.749ZM994.483 505.071C989.933 505.071 985.903 504.228 982.423 502.54C978.993 500.853 976.313 498.491 974.403 495.454C972.553 492.36 971.623 488.789 971.623 484.739C971.623 479.733 972.803 475.234 975.163 471.24C977.523 467.247 980.793 464.098 984.953 461.792C989.113 459.486 993.813 458.332 999.043 458.332C1003.65 458.332 1007.67 459.176 1011.1 460.863C1014.53 462.551 1017.18 464.941 1019.03 468.035C1020.94 471.072 1021.9 474.615 1021.9 478.665C1021.9 483.67 1020.72 488.17 1018.36 492.163C1016.05 496.157 1012.79 499.306 1008.57 501.612C1004.41 503.918 999.713 505.071 994.483 505.071ZM995.333 494.188C997.863 494.188 1000.13 493.569 1002.16 492.332C1004.18 491.038 1005.76 489.267 1006.88 487.017C1008.01 484.767 1008.57 482.18 1008.57 479.255C1008.57 476.162 1007.67 473.715 1005.87 471.915C1004.07 470.116 1001.54 469.216 998.283 469.216C995.693 469.216 993.383 469.863 991.363 471.156C989.343 472.393 987.763 474.137 986.643 476.387C985.513 478.637 984.953 481.224 984.953 484.148C984.953 487.242 985.853 489.689 987.653 491.488C989.503 493.288 992.063 494.188 995.333 494.188ZM1080.73 459.007L1071.7 504.396H1059.22L1060.14 499.503C1058.17 501.359 1055.92 502.765 1053.39 503.721C1050.86 504.621 1048.19 505.071 1045.38 505.071C1040.43 505.071 1036.46 503.721 1033.48 501.022C1030.56 498.322 1029.1 494.525 1029.1 489.632C1029.1 487.776 1029.29 485.948 1029.69 484.148L1034.66 459.007H1047.83L1043.02 483.305C1042.79 484.373 1042.68 485.47 1042.68 486.595C1042.68 491.32 1045.21 493.682 1050.27 493.682C1053.59 493.682 1056.32 492.726 1058.46 490.813C1060.65 488.845 1062.14 485.92 1062.93 482.039L1067.57 459.007H1080.73ZM1119.33 458.332C1124.39 458.332 1128.41 459.682 1131.39 462.382C1134.37 465.082 1135.86 468.906 1135.86 473.856C1135.86 475.656 1135.67 477.455 1135.27 479.255L1130.21 504.396H1117.05L1121.94 480.099C1122.17 479.143 1122.28 478.102 1122.28 476.977C1122.28 474.615 1121.63 472.815 1120.34 471.578C1119.05 470.341 1117.11 469.722 1114.52 469.722C1111.14 469.722 1108.33 470.706 1106.08 472.675C1103.89 474.587 1102.4 477.484 1101.61 481.364L1097.06 504.396H1083.89L1096.38 441.797H1109.54L1105.32 463.141C1109.2 459.935 1113.87 458.332 1119.33 458.332ZM1151.25 459.007H1164.33L1155.3 504.396H1142.23L1151.25 459.007ZM1160.03 452.68C1157.78 452.68 1155.92 452.033 1154.46 450.74C1153.05 449.39 1152.35 447.759 1152.35 445.846C1152.35 443.597 1153.14 441.741 1154.71 440.278C1156.34 438.76 1158.45 438 1161.04 438C1163.35 438 1165.2 438.647 1166.61 439.941C1168.07 441.178 1168.8 442.725 1168.8 444.581C1168.8 446.999 1167.99 448.968 1166.35 450.486C1164.72 451.949 1162.61 452.68 1160.03 452.68Z" fill="white"/>
<path d="M395.163 1251.21L386.136 1296.6H373.649L374.493 1292.12C370.725 1295.56 366.085 1297.27 360.573 1297.27C357.029 1297.27 353.767 1296.46 350.786 1294.82C347.805 1293.19 345.415 1290.86 343.615 1287.82C341.872 1284.73 341 1281.1 341 1276.94C341 1271.93 342.097 1267.43 344.29 1263.44C346.54 1259.39 349.577 1256.24 353.402 1253.99C357.226 1251.68 361.444 1250.53 366.056 1250.53C373.031 1250.53 377.952 1252.81 380.821 1257.37L382.002 1251.21H395.163ZM364.622 1286.39C367.209 1286.39 369.515 1285.77 371.54 1284.53C373.565 1283.24 375.14 1281.47 376.265 1279.22C377.39 1276.97 377.952 1274.38 377.952 1271.45C377.952 1268.36 377.024 1265.91 375.168 1264.11C373.368 1262.32 370.837 1261.42 367.575 1261.42C364.988 1261.42 362.682 1262.06 360.657 1263.36C358.632 1264.59 357.057 1266.34 355.933 1268.59C354.808 1270.84 354.245 1273.42 354.245 1276.35C354.245 1279.44 355.145 1281.89 356.945 1283.69C358.801 1285.49 361.36 1286.39 364.622 1286.39ZM418.737 1256.61C420.706 1254.47 423.068 1252.92 425.824 1251.97C428.636 1251.01 431.926 1250.53 435.695 1250.53L433.332 1262.68C431.758 1262.57 430.745 1262.51 430.295 1262.51C426.302 1262.51 423.096 1263.5 420.677 1265.46C418.315 1267.43 416.712 1270.5 415.869 1274.66L411.482 1296.6H398.321L407.348 1251.21H419.834L418.737 1256.61ZM451.025 1297.27C447.088 1297.27 443.348 1296.85 439.804 1296.01C436.317 1295.11 433.589 1293.95 431.621 1292.55L436.683 1283.01C438.651 1284.31 441.042 1285.35 443.854 1286.13C446.722 1286.92 449.591 1287.32 452.459 1287.32C455.44 1287.32 457.662 1286.95 459.124 1286.22C460.586 1285.43 461.317 1284.33 461.317 1282.93C461.317 1281.8 460.671 1280.99 459.377 1280.48C458.083 1279.98 456.002 1279.44 453.134 1278.88C449.872 1278.26 447.172 1277.59 445.035 1276.85C442.954 1276.12 441.126 1274.94 439.551 1273.31C438.032 1271.62 437.273 1269.35 437.273 1266.48C437.273 1261.47 439.354 1257.56 443.516 1254.75C447.735 1251.94 453.246 1250.53 460.052 1250.53C463.202 1250.53 466.267 1250.87 469.248 1251.54C472.229 1252.22 474.76 1253.15 476.841 1254.33L472.116 1263.95C468.404 1261.64 463.933 1260.49 458.702 1260.49C455.834 1260.49 453.64 1260.91 452.122 1261.75C450.659 1262.6 449.928 1263.66 449.928 1264.96C449.928 1266.14 450.575 1267.01 451.868 1267.57C453.162 1268.08 455.327 1268.64 458.365 1269.26C461.571 1269.88 464.186 1270.55 466.211 1271.29C468.292 1271.96 470.092 1273.11 471.61 1274.75C473.129 1276.38 473.888 1278.6 473.888 1281.41C473.888 1286.47 471.751 1290.38 467.476 1293.14C463.258 1295.89 457.774 1297.27 451.025 1297.27ZM514.742 1250.53C519.804 1250.53 523.826 1251.88 526.807 1254.58C529.787 1257.28 531.278 1261.11 531.278 1266.06C531.278 1267.86 531.081 1269.65 530.687 1271.45L525.625 1296.6H512.464L517.358 1272.3C517.583 1271.34 517.695 1270.3 517.695 1269.18C517.695 1266.81 517.048 1265.01 515.755 1263.78C514.461 1262.54 512.521 1261.92 509.933 1261.92C506.559 1261.92 503.747 1262.91 501.497 1264.87C499.303 1266.79 497.813 1269.68 497.025 1273.56L492.47 1296.6H479.309L491.795 1234H504.956L500.737 1255.34C504.618 1252.13 509.287 1250.53 514.742 1250.53ZM593.225 1251.21L584.198 1296.6H571.712L572.555 1292.12C568.787 1295.56 564.147 1297.27 558.635 1297.27C555.092 1297.27 551.829 1296.46 548.848 1294.82C545.868 1293.19 543.477 1290.86 541.677 1287.82C539.934 1284.73 539.062 1281.1 539.062 1276.94C539.062 1271.93 540.159 1267.43 542.352 1263.44C544.602 1259.39 547.639 1256.24 551.464 1253.99C555.288 1251.68 559.507 1250.53 564.119 1250.53C571.093 1250.53 576.014 1252.81 578.883 1257.37L580.064 1251.21H593.225ZM562.684 1286.39C565.272 1286.39 567.578 1285.77 569.602 1284.53C571.627 1283.24 573.202 1281.47 574.327 1279.22C575.452 1276.97 576.014 1274.38 576.014 1271.45C576.014 1268.36 575.086 1265.91 573.23 1264.11C571.43 1262.32 568.899 1261.42 565.637 1261.42C563.05 1261.42 560.744 1262.06 558.719 1263.36C556.694 1264.59 555.12 1266.34 553.995 1268.59C552.87 1270.84 552.307 1273.42 552.307 1276.35C552.307 1279.44 553.207 1281.89 555.007 1283.69C556.863 1285.49 559.422 1286.39 562.684 1286.39ZM662.357 1250.53C667.306 1250.53 671.243 1251.88 674.168 1254.58C677.093 1257.23 678.555 1260.99 678.555 1265.89C678.555 1267.69 678.358 1269.54 677.965 1271.45L672.987 1296.6H659.826L664.635 1272.38C664.86 1271.26 664.972 1270.1 664.972 1268.92C664.972 1266.62 664.354 1264.87 663.116 1263.69C661.935 1262.51 660.163 1261.92 657.801 1261.92C651.446 1261.92 647.48 1265.72 645.906 1273.31L641.265 1296.6H628.104L632.913 1272.38C633.138 1271.26 633.251 1270.13 633.251 1269.01C633.251 1266.7 632.632 1264.96 631.395 1263.78C630.213 1262.54 628.442 1261.92 626.08 1261.92C619.724 1261.92 615.731 1265.77 614.1 1273.48L609.544 1296.6H596.383L605.41 1251.21H617.896L616.884 1255.93C620.821 1252.33 625.573 1250.53 631.141 1250.53C634.291 1250.53 637.075 1251.18 639.494 1252.47C641.968 1253.71 643.824 1255.54 645.062 1257.96C647.255 1255.54 649.814 1253.71 652.739 1252.47C655.664 1251.18 658.87 1250.53 662.357 1250.53ZM715.024 1237.54L703.213 1296.6H689.546L699.163 1248.51H687.352L689.546 1237.54H715.024ZM739.961 1297.61C733.381 1297.61 728.18 1295.64 724.355 1291.7C720.531 1287.71 718.618 1282.23 718.618 1275.25C718.618 1268.16 719.912 1261.67 722.499 1255.76C725.143 1249.86 728.799 1245.19 733.471 1241.76C738.131 1238.27 743.451 1236.53 749.411 1236.53C755.991 1236.53 761.191 1238.52 765.021 1242.52C768.841 1246.45 770.761 1251.91 770.761 1258.88C770.761 1265.97 769.431 1272.47 766.791 1278.37C764.201 1284.28 760.581 1288.97 755.911 1292.46C751.241 1295.89 745.921 1297.61 739.961 1297.61ZM741.231 1286.05C744.491 1286.05 747.301 1284.64 749.661 1281.83C752.081 1279.02 753.911 1275.53 755.151 1271.37C756.391 1267.15 757.001 1263.1 757.001 1259.22C757.001 1255.45 756.221 1252.67 754.641 1250.87C753.121 1249.01 750.961 1248.09 748.151 1248.09C744.881 1248.09 742.041 1249.49 739.621 1252.3C737.261 1255.12 735.461 1258.63 734.231 1262.85C732.991 1267.01 732.371 1271.03 732.371 1274.91C732.371 1278.68 733.131 1281.49 734.651 1283.35C736.221 1285.15 738.421 1286.05 741.231 1286.05Z" fill="white"/>
<path d="M159.597 118.382L161.59 113.632L163.582 108.883L238.556 140.337L313.53 171.792L311.537 176.541L309.544 181.291L303.594 178.795C298.523 176.667 297.503 176.634 296.689 178.575C296.164 179.826 294.951 180.841 293.994 180.829C292.659 180.812 292.531 181.243 293.443 182.681C295.253 185.535 290.183 187.133 285.522 185.177C280.334 183.001 277.37 184.593 274.68 191.003L272.403 196.43L266.453 193.934L260.503 191.437L258.012 197.375L255.521 203.312L249.571 200.815L243.62 198.319L241.13 204.256L238.639 210.193L232.688 207.697L226.738 205.2L223.749 212.325L220.76 219.449L227.9 222.445L235.041 225.441L237.532 219.504L240.022 213.566L245.973 216.063L251.923 218.559L254.414 212.622L256.905 206.685L262.855 209.181L268.805 211.678L271.794 204.553L274.783 197.429L280.223 199.711C283.718 201.177 286.672 201.583 288.483 200.845C290.533 200.009 290.955 199.393 290.03 198.585C289.331 197.973 289.413 195.916 290.213 194.011C291.624 190.646 291.836 190.619 297.616 193.044L303.566 195.54L288.123 232.35L272.68 269.16L199.407 238.419C137.489 212.442 125.979 207.305 125.145 205.268C124.334 203.294 126.689 196.82 138.176 169.441C153.722 132.385 153.568 132.61 161.27 135.841L165.519 137.624L163.029 143.561L160.538 149.498L164.788 151.281C170.029 153.48 171.497 156.735 169.449 161.615C167.402 166.496 168.87 169.751 174.111 171.95C178.191 173.661 178.29 173.903 176.582 177.973C174.388 183.202 175.628 186.551 180.52 188.603C185.411 190.655 186.651 194.003 184.457 199.232L182.678 203.472L188.629 205.969L194.579 208.465L192.088 214.402L189.597 220.339L202.688 225.832L215.778 231.324L218.056 225.896C221.343 218.059 220.239 216.438 208.155 211.368L197.955 207.089L199.734 202.849C202.118 197.166 200.678 194.267 194.096 191.506L188.656 189.223L191.147 183.286L193.638 177.349L187.688 174.853L181.737 172.356L184.228 166.419L186.719 160.482L180.769 157.986L174.818 155.49L177.096 150.062C179.851 143.494 178.841 140.42 173.146 138.031L168.896 136.248L171.387 130.311L173.878 124.374L166.737 121.378L159.597 118.382Z" fill="#F8CC14"/>
<path fill-rule="evenodd" clip-rule="evenodd" d="M137.5 432.835L138.042 434.856L136.021 435.398L134 435.939L151.328 500.606L168.655 565.274L170.677 564.733L172.697 564.191L173.238 566.212L173.781 568.233L238.447 550.905L303.115 533.578L302.574 531.557L302.033 529.536L304.053 528.995L306.074 528.453L288.746 463.786L271.419 399.118L269.398 399.659L267.377 400.201L266.836 398.18L266.294 396.16L201.627 413.487L136.959 430.814L137.5 432.835ZM179.833 445.318L180.915 449.36L182.937 448.818L184.957 448.277L185.498 450.297L186.04 452.319L184.019 452.86L181.998 453.401L183.081 457.443L184.164 461.485L180.122 462.568L176.081 463.651L176.623 465.671L177.164 467.693L175.143 468.234L173.122 468.775L172.581 466.755L172.04 464.734L167.998 465.817L163.956 466.9L161.79 458.816L159.624 450.733L161.645 450.191L163.666 449.65L163.124 447.629L162.583 445.608L170.666 443.442L178.749 441.276L179.833 445.318ZM243.456 456.428L243.997 458.448L250.06 456.824L256.122 455.2L256.664 457.22L257.206 459.241L259.226 458.7L261.247 458.158L262.33 462.2L263.413 466.241L265.434 465.7L267.455 465.159L274.494 491.43L281.533 517.701L271.429 520.409L261.325 523.116L255.369 500.887L249.412 478.657L247.391 479.199L245.37 479.74L244.829 477.719L244.287 475.698L236.204 477.864L228.12 480.03L229.204 484.072L230.286 488.114L228.266 488.655L226.245 489.196L231.659 509.405L237.074 529.614L226.97 532.321L216.866 535.028L208.202 502.695L199.538 470.361L209.643 467.654L219.747 464.947L220.83 468.988L221.913 473.029L223.934 472.488L225.955 471.947L225.413 469.926L224.872 467.905L226.893 467.364L228.913 466.822L228.372 464.801L227.831 462.781L231.872 461.697L235.914 460.614L235.372 458.593L234.831 456.573L238.873 455.49L242.914 454.406L243.456 456.428ZM196.077 505.944L204.741 538.277L194.637 540.985L184.532 543.693L175.868 511.359L167.205 479.025L177.309 476.318L187.413 473.61L196.077 505.944Z" fill="#F8CC14"/>
<path d="M376.94 1000.6H359.036L361.194 990.049H409.951L407.793 1000.6H389.969L380.856 1046H367.908L376.94 1000.6ZM438.499 1002.36C443.295 1002.36 447.105 1003.64 449.929 1006.19C452.753 1008.75 454.165 1012.38 454.165 1017.07C454.165 1018.77 453.979 1020.48 453.606 1022.18L448.81 1046H436.341L440.977 1022.98C441.19 1022.07 441.297 1021.09 441.297 1020.02C441.297 1017.78 440.684 1016.08 439.458 1014.91C438.233 1013.73 436.394 1013.15 433.943 1013.15C430.746 1013.15 428.082 1014.08 425.95 1015.95C423.872 1017.76 422.46 1020.5 421.714 1024.18L417.398 1046H404.929L416.758 986.692H429.227L425.231 1006.91C428.908 1003.88 433.33 1002.36 438.499 1002.36ZM507.34 1021.3C507.34 1023.27 507.1 1025.46 506.621 1027.86H473.69C474.116 1033.72 477.819 1036.65 484.8 1036.65C486.985 1036.65 489.063 1036.3 491.034 1035.61C493.059 1034.92 494.818 1033.93 496.31 1032.65L501.505 1040.88C499.107 1042.8 496.363 1044.24 493.272 1045.2C490.182 1046.16 486.931 1046.64 483.521 1046.64C479.098 1046.64 475.208 1045.87 471.851 1044.32C468.547 1042.72 465.99 1040.46 464.178 1037.53C462.419 1034.6 461.54 1031.21 461.54 1027.38C461.54 1022.63 462.606 1018.37 464.737 1014.59C466.922 1010.75 469.933 1007.77 473.769 1005.64C477.606 1003.45 481.976 1002.36 486.878 1002.36C491.034 1002.36 494.631 1003.13 497.669 1004.68C500.759 1006.22 503.13 1008.43 504.782 1011.31C506.488 1014.19 507.34 1017.52 507.34 1021.3ZM486.318 1011.71C483.388 1011.71 480.91 1012.51 478.885 1014.11C476.86 1015.65 475.421 1017.81 474.569 1020.58H495.91C495.91 1017.81 495.031 1015.65 493.272 1014.11C491.567 1012.51 489.249 1011.71 486.318 1011.71ZM574.092 1034.01H548.035L540.761 1046H526.934L563.142 990.049H575.931L589.679 1046H576.73L574.092 1034.01ZM571.934 1024.18L567.218 1002.6L554.03 1024.18H571.934ZM614.027 1008.11C615.892 1006.09 618.13 1004.62 620.741 1003.72C623.406 1002.81 626.523 1002.36 630.093 1002.36L627.855 1013.87C626.363 1013.76 625.404 1013.71 624.978 1013.71C621.194 1013.71 618.157 1014.64 615.866 1016.51C613.628 1018.37 612.109 1021.27 611.31 1025.22L607.153 1046H594.684L603.237 1003H615.066L614.027 1008.11ZM644.617 1046.64C640.887 1046.64 637.344 1046.24 633.987 1045.44C630.683 1044.59 628.098 1043.5 626.233 1042.16L631.029 1033.13C632.894 1034.36 635.159 1035.34 637.823 1036.09C640.541 1036.83 643.259 1037.21 645.976 1037.21C648.8 1037.21 650.905 1036.86 652.291 1036.17C653.676 1035.42 654.369 1034.38 654.369 1033.05C654.369 1031.99 653.756 1031.21 652.53 1030.73C651.305 1030.25 649.333 1029.75 646.616 1029.21C643.525 1028.63 640.967 1027.99 638.942 1027.3C636.971 1026.6 635.239 1025.48 633.747 1023.94C632.308 1022.34 631.589 1020.18 631.589 1017.46C631.589 1012.72 633.56 1009.02 637.504 1006.35C641.5 1003.69 646.722 1002.36 653.17 1002.36C656.154 1002.36 659.058 1002.68 661.882 1003.32C664.706 1003.96 667.104 1004.84 669.076 1005.96L664.6 1015.07C661.083 1012.88 656.847 1011.79 651.891 1011.79C649.173 1011.79 647.095 1012.19 645.656 1012.99C644.271 1013.79 643.578 1014.8 643.578 1016.03C643.578 1017.15 644.191 1017.97 645.417 1018.5C646.642 1018.98 648.694 1019.52 651.571 1020.1C654.609 1020.69 657.086 1021.33 659.005 1022.02C660.976 1022.66 662.682 1023.75 664.12 1025.3C665.559 1026.84 666.278 1028.95 666.278 1031.61C666.278 1036.41 664.253 1040.11 660.204 1042.72C656.207 1045.33 651.012 1046.64 644.617 1046.64ZM704.985 1002.36C709.78 1002.36 713.59 1003.64 716.414 1006.19C719.239 1008.75 720.651 1012.38 720.651 1017.07C720.651 1018.77 720.464 1020.48 720.091 1022.18L715.295 1046H702.826L707.462 1022.98C707.675 1022.07 707.782 1021.09 707.782 1020.02C707.782 1017.78 707.169 1016.08 705.944 1014.91C704.718 1013.73 702.88 1013.15 700.428 1013.15C697.231 1013.15 694.567 1014.08 692.435 1015.95C690.357 1017.76 688.945 1020.5 688.199 1024.18L683.883 1046H671.414L683.244 986.692H695.713L691.716 1006.91C695.393 1003.88 699.816 1002.36 704.985 1002.36ZM779.341 1003L770.788 1046H758.958L759.758 1041.76C756.188 1045.01 751.791 1046.64 746.569 1046.64C743.212 1046.64 740.122 1045.87 737.297 1044.32C734.473 1042.78 732.209 1040.56 730.503 1037.69C728.851 1034.76 728.026 1031.32 728.026 1027.38C728.026 1022.63 729.065 1018.37 731.143 1014.59C733.274 1010.75 736.152 1007.77 739.775 1005.64C743.399 1003.45 747.395 1002.36 751.765 1002.36C758.372 1002.36 763.035 1004.52 765.753 1008.83L766.872 1003H779.341ZM750.406 1036.33C752.857 1036.33 755.042 1035.74 756.96 1034.57C758.879 1033.34 760.371 1031.67 761.436 1029.53C762.502 1027.4 763.035 1024.95 763.035 1022.18C763.035 1019.25 762.156 1016.93 760.397 1015.23C758.692 1013.52 756.294 1012.67 753.204 1012.67C750.752 1012.67 748.568 1013.28 746.649 1014.51C744.731 1015.68 743.239 1017.33 742.173 1019.46C741.107 1021.59 740.575 1024.05 740.575 1026.82C740.575 1029.75 741.427 1032.07 743.132 1033.77C744.891 1035.48 747.315 1036.33 750.406 1036.33ZM844.838 1002.36C849.527 1002.36 853.257 1003.64 856.028 1006.19C858.799 1008.7 860.184 1012.27 860.184 1016.91C860.184 1018.61 859.998 1020.37 859.625 1022.18L854.909 1046H842.44L846.996 1023.06C847.209 1021.99 847.315 1020.9 847.315 1019.78C847.315 1017.6 846.729 1015.95 845.557 1014.83C844.438 1013.71 842.759 1013.15 840.521 1013.15C834.5 1013.15 830.743 1016.75 829.251 1023.94L824.855 1046H812.386L816.942 1023.06C817.155 1021.99 817.262 1020.93 817.262 1019.86C817.262 1017.68 816.676 1016.03 815.503 1014.91C814.384 1013.73 812.706 1013.15 810.468 1013.15C804.446 1013.15 800.663 1016.8 799.118 1024.1L794.801 1046H782.332L790.885 1003H802.715L801.755 1007.47C805.485 1004.06 809.988 1002.36 815.264 1002.36C818.248 1002.36 820.885 1002.97 823.177 1004.2C825.521 1005.37 827.28 1007.1 828.452 1009.39C830.53 1007.1 832.955 1005.37 835.726 1004.2C838.497 1002.97 841.534 1002.36 844.838 1002.36Z" fill="white"/>
<path d="M376.94 735.6H359.036L361.194 725.049H409.951L407.793 735.6H389.969L380.856 781H367.908L376.94 735.6ZM438.499 737.358C443.295 737.358 447.105 738.637 449.929 741.195C452.753 743.753 454.165 747.376 454.165 752.065C454.165 753.771 453.979 755.476 453.606 757.181L448.81 781H436.341L440.977 757.98C441.19 757.074 441.297 756.088 441.297 755.023C441.297 752.785 440.684 751.08 439.458 749.907C438.233 748.735 436.394 748.149 433.943 748.149C430.746 748.149 428.082 749.081 425.95 750.946C423.872 752.758 422.46 755.502 421.714 759.179L417.398 781H404.929L416.758 721.692H429.227L425.231 741.914C428.908 738.877 433.33 737.358 438.499 737.358ZM507.34 756.302C507.34 758.273 507.1 760.458 506.621 762.856H473.69C474.116 768.717 477.819 771.648 484.8 771.648C486.985 771.648 489.063 771.302 491.034 770.609C493.059 769.916 494.818 768.931 496.31 767.652L501.505 775.884C499.107 777.803 496.363 779.242 493.272 780.201C490.182 781.16 486.931 781.639 483.521 781.639C479.098 781.639 475.208 780.867 471.851 779.321C468.547 777.723 465.99 775.458 464.178 772.527C462.419 769.597 461.54 766.213 461.54 762.376C461.54 757.634 462.606 753.371 464.737 749.588C466.922 745.751 469.933 742.767 473.769 740.635C477.606 738.451 481.976 737.358 486.878 737.358C491.034 737.358 494.631 738.131 497.669 739.676C500.759 741.222 503.13 743.433 504.782 746.31C506.488 749.188 507.34 752.518 507.34 756.302ZM486.318 746.71C483.388 746.71 480.91 747.509 478.885 749.108C476.86 750.653 475.421 752.811 474.569 755.582H495.91C495.91 752.811 495.031 750.653 493.272 749.108C491.567 747.509 489.249 746.71 486.318 746.71ZM574.092 769.01H548.035L540.761 781H526.934L563.142 725.049H575.931L589.679 781H576.73L574.092 769.01ZM571.934 759.179L567.218 737.598L554.03 759.179H571.934ZM614.027 743.113C615.892 741.088 618.13 739.623 620.741 738.717C623.406 737.811 626.523 737.358 630.093 737.358L627.855 748.868C626.363 748.762 625.404 748.708 624.978 748.708C621.194 748.708 618.157 749.641 615.866 751.506C613.628 753.371 612.109 756.275 611.31 760.218L607.153 781H594.684L603.237 737.998H615.066L614.027 743.113ZM644.617 781.639C640.887 781.639 637.344 781.24 633.987 780.44C630.683 779.588 628.098 778.496 626.233 777.163L631.029 768.131C632.894 769.357 635.159 770.343 637.823 771.089C640.541 771.835 643.259 772.208 645.976 772.208C648.8 772.208 650.905 771.861 652.291 771.169C653.676 770.423 654.369 769.384 654.369 768.051C654.369 766.986 653.756 766.213 652.53 765.733C651.305 765.254 649.333 764.748 646.616 764.215C643.525 763.629 640.967 762.989 638.942 762.296C636.971 761.604 635.239 760.485 633.747 758.939C632.308 757.341 631.589 755.183 631.589 752.465C631.589 747.722 633.56 744.019 637.504 741.355C641.5 738.69 646.722 737.358 653.17 737.358C656.154 737.358 659.058 737.678 661.882 738.317C664.706 738.957 667.104 739.836 669.076 740.955L664.6 750.067C661.083 747.882 656.847 746.79 651.891 746.79C649.173 746.79 647.095 747.19 645.656 747.989C644.271 748.788 643.578 749.801 643.578 751.026C643.578 752.145 644.191 752.971 645.417 753.504C646.642 753.984 648.694 754.517 651.571 755.103C654.609 755.689 657.086 756.328 659.005 757.021C660.976 757.66 662.682 758.753 664.12 760.298C665.559 761.843 666.278 763.948 666.278 766.613C666.278 771.408 664.253 775.112 660.204 777.723C656.207 780.334 651.012 781.639 644.617 781.639ZM704.985 737.358C709.78 737.358 713.59 738.637 716.414 741.195C719.239 743.753 720.651 747.376 720.651 752.065C720.651 753.771 720.464 755.476 720.091 757.181L715.295 781H702.826L707.462 757.98C707.675 757.074 707.782 756.088 707.782 755.023C707.782 752.785 707.169 751.08 705.944 749.907C704.718 748.735 702.88 748.149 700.428 748.149C697.231 748.149 694.567 749.081 692.435 750.946C690.357 752.758 688.945 755.502 688.199 759.179L683.883 781H671.414L683.244 721.692H695.713L691.716 741.914C695.393 738.877 699.816 737.358 704.985 737.358ZM779.341 737.998L770.788 781H758.958L759.758 776.764C756.188 780.014 751.791 781.639 746.569 781.639C743.212 781.639 740.122 780.867 737.297 779.321C734.473 777.776 732.209 775.565 730.503 772.687C728.851 769.757 728.026 766.32 728.026 762.376C728.026 757.634 729.065 753.371 731.143 749.588C733.274 745.751 736.152 742.767 739.775 740.635C743.399 738.451 747.395 737.358 751.765 737.358C758.372 737.358 763.035 739.516 765.753 743.833L766.872 737.998H779.341ZM750.406 771.328C752.857 771.328 755.042 770.742 756.96 769.57C758.879 768.344 760.371 766.666 761.436 764.534C762.502 762.403 763.035 759.952 763.035 757.181C763.035 754.25 762.156 751.932 760.397 750.227C758.692 748.522 756.294 747.669 753.204 747.669C750.752 747.669 748.568 748.282 746.649 749.508C744.731 750.68 743.239 752.332 742.173 754.463C741.107 756.595 740.575 759.046 740.575 761.817C740.575 764.748 741.427 767.066 743.132 768.771C744.891 770.476 747.315 771.328 750.406 771.328ZM844.838 737.358C849.527 737.358 853.257 738.637 856.028 741.195C858.799 743.699 860.184 747.27 860.184 751.905C860.184 753.611 859.998 755.369 859.625 757.181L854.909 781H842.44L846.996 758.06C847.209 756.994 847.315 755.902 847.315 754.783C847.315 752.598 846.729 750.946 845.557 749.827C844.438 748.708 842.759 748.149 840.521 748.149C834.5 748.149 830.743 751.746 829.251 758.939L824.855 781H812.386L816.942 758.06C817.155 756.994 817.262 755.929 817.262 754.863C817.262 752.678 816.676 751.026 815.503 749.907C814.384 748.735 812.706 748.149 810.468 748.149C804.446 748.149 800.663 751.799 799.118 759.099L794.801 781H782.332L790.885 737.998H802.715L801.755 742.474C805.485 739.063 809.988 737.358 815.264 737.358C818.248 737.358 820.885 737.971 823.177 739.197C825.521 740.369 827.28 742.101 828.452 744.392C830.53 742.101 832.955 740.369 835.726 739.197C838.497 737.971 841.534 737.358 844.838 737.358Z" fill="white"/>
<rect x="626" y="663" width="886.332" height="1339"/>
<path d="M0.5 1468L1522.5 2021H0.5V1468Z" fill="#F8CC14"/>
<path d="M509.068 1653L640.504 1700.84L589.308 1618.11L496.909 1648.58L509.068 1653Z" fill="#F8CC14"/>
<path d="M252.564 1559.65L384 1607.49L332.804 1524.75L240.405 1555.22L252.564 1559.65Z" fill="#F8CC14"/>
<path d="M401.316 1614.31L477.634 1642.08L447.907 1594.04L394.256 1611.74L401.316 1614.31Z" fill="#F8CC14"/>
<path d="M470.867 1588.96L547.185 1616.74L493.534 1634.43L463.807 1586.39L470.867 1588.96Z" fill="#F8CC14"/>
<path d="M459.398 1567.21L575.994 1609.65L530.578 1536.25L448.611 1563.28L459.398 1567.21Z" fill="#F8CC14"/>
<path d="M336.549 1503.35L395.338 1598.35L421.183 1527.34L331.11 1494.56L336.549 1503.35Z" fill="#F8CC14"/>
</svg>
