<svg width="682" height="669" viewBox="0 0 682 669" fill="none" xmlns="http://www.w3.org/2000/svg">
<path d="M86.731 111.767V22.3706L45.207 71.204L86.731 120.037V111.767Z" fill="#007AE0"/>
<path d="M86.731 286.228V196.832L45.207 245.665L86.731 294.498V286.228Z" fill="#007AE0"/>
<path d="M87.0658 184.941V133.033L62.9551 161.388L87.0658 189.743V184.941Z" fill="#007AE0"/>
<path d="M54.2487 148.71V96.8022L78.3594 125.157L54.2487 153.512V148.71Z" fill="#007AE0"/>
<path d="M42.8631 160.353V81.0498L6.02734 124.37L42.8631 167.69V160.353Z" fill="#007AE0"/>
<path d="M30.4581 248.097L78.1406 192.021H26.0469V253.284L30.4581 248.097Z" fill="#007AE0"/>
<path d="M587.903 464.638V375.241L629.427 424.075L587.903 472.908V464.638Z" fill="#007AE0"/>
<path d="M587.903 639.099V549.702L629.427 598.536L587.903 647.369V639.099Z" fill="#007AE0"/>
<path d="M587.568 537.812V485.904L611.679 514.259L587.568 542.614V537.812Z" fill="#007AE0"/>
<path d="M620.385 501.581V449.673L596.274 478.028L620.385 506.383V501.581Z" fill="#007AE0"/>
<path d="M631.772 513.223V433.92L668.607 477.24L631.772 520.56V513.223Z" fill="#007AE0"/>
<path d="M644.176 600.967L596.493 544.891H648.587V606.154L644.176 600.967Z" fill="#007AE0"/>
<path d="M84.9912 669H588.314V87.9161V-5.1856e-06H482.453H84.9912V669Z" fill="#007AE0"/>
<path fill-rule="evenodd" clip-rule="evenodd" d="M164.415 540.654L164.192 541.55L162.333 541.089L160.473 540.628L160.251 541.525L160.028 542.421L159.099 542.191L158.169 541.96L157.946 542.857L157.724 543.753L156.794 543.523L155.865 543.292L155.642 544.189L155.42 545.085L154.49 544.855L153.56 544.624L153.338 545.521L153.116 546.417L152.186 546.187L151.256 545.956L151.034 546.853L150.811 547.75L149.882 547.519L148.952 547.288L148.507 549.082L148.062 550.875L147.133 550.644L146.203 550.414L145.758 552.207L145.313 554L144.384 553.77L143.454 553.539L141.453 561.608L139.452 569.678L140.382 569.908L141.312 570.139L140.867 571.932L140.422 573.725L141.352 573.956L142.282 574.187L142.06 575.083L141.837 575.98L142.767 576.21L143.697 576.441L143.474 577.337L143.252 578.234L144.182 578.465L145.112 578.695L144.889 579.592L144.667 580.488L145.597 580.719L146.527 580.95L146.304 581.846L146.082 582.743L147.012 582.973L147.942 583.204L147.719 584.1L147.497 584.997L148.427 585.228L149.357 585.458L149.134 586.355L148.912 587.251L150.772 587.713L152.631 588.174L152.409 589.07L152.187 589.967L154.046 590.428L155.906 590.889L156.795 587.303L157.684 583.716L153.965 582.794L150.246 581.872L150.468 580.975L150.691 580.079L149.761 579.848L148.831 579.617L149.053 578.721L149.276 577.824L148.346 577.594L147.416 577.363L147.638 576.467L147.861 575.57L146.931 575.339L146.001 575.109L146.223 574.212L146.446 573.316L148.305 573.777L150.165 574.238L149.943 575.134L149.72 576.031L150.65 576.262L151.58 576.492L151.358 577.389L151.135 578.285L152.065 578.516L152.995 578.746L152.773 579.643L152.55 580.54L154.41 581.001L156.27 581.462L156.492 580.565L156.714 579.669L157.644 579.899L158.574 580.13L158.796 579.233L159.018 578.337L159.948 578.567L160.878 578.798L161.1 577.901L161.323 577.005L157.603 576.082L153.884 575.16L154.107 574.263L154.329 573.367L153.399 573.136L152.469 572.906L152.692 572.009L152.914 571.113L151.984 570.882L151.054 570.651L151.277 569.755L151.499 568.858L150.569 568.628L149.639 568.397L150.973 563.017L152.307 557.638L153.237 557.868L154.167 558.099L154.389 557.202L154.612 556.306L155.541 556.536L156.471 556.767L156.694 555.87L156.916 554.974L155.986 554.743L155.056 554.513L155.723 551.823L156.39 549.133L159.18 549.825L161.969 550.516L161.747 551.413L161.524 552.31L162.454 552.54L163.384 552.771L163.162 553.667L162.939 554.564L163.869 554.794L164.799 555.025L165.021 554.128L165.244 553.232L169.893 554.385L174.542 555.537L174.319 556.434L174.097 557.331L175.027 557.561L175.957 557.792L176.179 556.895L176.401 555.999L177.331 556.229L178.261 556.46L178.483 555.563L178.706 554.666L181.495 555.358L184.285 556.05L183.618 558.74L182.951 561.429L182.021 561.199L181.091 560.968L180.869 561.865L180.646 562.762L181.576 562.992L182.506 563.223L182.284 564.119L182.061 565.016L182.991 565.246L183.921 565.477L182.587 570.857L181.253 576.236L180.323 576.006L179.393 575.775L179.171 576.672L178.949 577.568L178.019 577.338L177.089 577.107L176.867 578.004L176.644 578.9L175.715 578.67L174.785 578.439L174.562 579.336L174.34 580.232L170.621 579.31L166.902 578.388L166.679 579.285L166.457 580.181L167.387 580.412L168.317 580.642L168.094 581.539L167.872 582.435L168.802 582.666L169.732 582.897L168.398 588.276L167.064 593.656L168.923 594.117L170.783 594.578L171.005 593.681L171.227 592.785L172.157 593.015L173.087 593.246L173.309 592.349L173.532 591.453L174.462 591.683L175.391 591.914L175.614 591.017L175.836 590.121L176.766 590.351L177.696 590.582L177.918 589.685L178.14 588.789L179.07 589.019L180 589.25L180.222 588.353L180.445 587.457L181.374 587.687L182.304 587.918L182.527 587.021L182.749 586.124L183.679 586.355L184.609 586.586L184.831 585.689L185.053 584.792L185.983 585.023L186.913 585.254L187.357 583.46L187.802 581.667L188.732 581.898L189.662 582.128L191.663 574.059L193.664 565.989L192.734 565.759L191.804 565.528L192.249 563.735L192.693 561.942L191.764 561.711L190.834 561.481L191.278 559.688L191.723 557.894L190.793 557.664L189.863 557.433L190.086 556.537L190.308 555.64L189.378 555.409L188.448 555.179L188.671 554.282L188.893 553.386L187.963 553.155L187.033 552.925L187.256 552.028L187.478 551.131L186.548 550.901L185.618 550.67L185.841 549.774L186.063 548.877L185.133 548.646L184.204 548.416L184.426 547.519L184.648 546.623L182.789 546.162L180.929 545.7L181.151 544.804L181.374 543.907L173.005 541.832L164.637 539.757L164.415 540.654Z" fill="#F8CC14"/>
<path fill-rule="evenodd" clip-rule="evenodd" d="M153.989 301.053L153.617 303.044L151.626 302.672L149.635 302.299L145.557 324.084L141.48 345.869L143.471 346.242L145.462 346.615L145.089 348.606L144.716 350.597L156.546 352.811L168.375 355.025L169.844 347.178L171.313 339.33L167.498 338.616C164.348 338.027 163.66 337.868 163.547 337.704C163.379 337.459 163.423 337.167 163.634 337.124C163.753 337.1 163.755 337.051 163.641 336.925C163.527 336.798 163.529 336.749 163.648 336.725C163.835 336.687 163.942 336.254 163.773 336.222C163.697 336.208 163.864 335.085 164.238 333.088C164.714 330.547 164.857 329.951 165.019 329.84C165.183 329.727 165.883 329.828 169.033 330.418L172.848 331.132L174.316 323.284L175.785 315.437L177.776 315.81L179.767 316.182L180.14 314.191L180.513 312.2L186.486 313.318L192.459 314.436L191.714 318.419L190.969 322.401L187.154 321.687C183.747 321.049 183.314 320.99 183.107 321.132C182.938 321.247 182.912 321.311 183.011 321.366C183.188 321.465 183.07 322.094 182.864 322.147C182.736 322.179 182.731 322.207 182.838 322.283C183.009 322.406 181.248 331.977 181.061 331.942C180.887 331.909 180.855 332.259 181.011 332.486C181.123 332.65 181.811 332.809 184.962 333.399L188.776 334.113L188.04 338.045C187.382 341.562 187.28 341.994 187.072 342.136C186.904 342.252 186.834 342.253 186.819 342.141C186.794 341.957 186.359 341.85 186.327 342.019C186.313 342.094 185.212 341.932 183.26 341.566C181.308 341.201 180.222 340.954 180.236 340.879C180.248 340.815 180.153 340.743 180.024 340.718C179.895 340.694 179.78 340.727 179.768 340.792C179.756 340.856 179.641 340.889 179.512 340.865C179.383 340.841 179.268 340.874 179.256 340.938C179.243 341.003 179.286 341.065 179.351 341.077C179.428 341.092 178.978 343.715 178.043 348.712C177.108 353.71 176.578 356.318 176.501 356.303C176.436 356.291 176.374 356.334 176.362 356.399C176.347 356.475 178.409 356.903 182.313 357.634L188.287 358.752L188.659 356.761L189.032 354.77L191.023 355.142L193.014 355.515L197.092 333.73L201.169 311.945L199.178 311.572L197.187 311.199L197.56 309.208L197.932 307.217L176.147 303.14L154.362 299.062L153.989 301.053Z" fill="#F8CC14"/>
<path fill-rule="evenodd" clip-rule="evenodd" d="M140.373 432.411L140.864 434.32L138.954 434.811L137.045 435.302L142.414 456.192L147.783 477.083L149.692 476.592L151.602 476.101L152.092 478.011L152.583 479.92L163.927 477.004L175.271 474.089L173.337 466.564L171.403 459.039L167.744 459.979C164.724 460.755 164.051 460.899 163.884 460.8C163.636 460.653 163.554 460.378 163.723 460.253C163.818 460.183 163.799 460.139 163.647 460.074C163.494 460.009 163.476 459.965 163.571 459.895C163.72 459.785 163.636 459.359 163.473 459.4C163.401 459.419 163.086 458.36 162.594 456.445C161.968 454.008 161.849 453.424 161.946 453.259C162.045 453.092 162.703 452.893 165.724 452.117L169.382 451.177L167.448 443.652L165.514 436.127L167.423 435.636L169.333 435.145L168.842 433.236L168.351 431.327L174.079 429.854L179.807 428.382L180.789 432.201L181.77 436.02L178.112 436.96C174.845 437.8 174.439 437.925 174.314 438.136C174.213 438.307 174.216 438.374 174.326 438.382C174.524 438.396 174.678 438.999 174.518 439.131C174.419 439.212 174.426 439.238 174.551 439.262C174.753 439.3 177.138 448.465 176.959 448.511C176.792 448.554 176.907 448.876 177.139 449.012C177.305 449.111 177.978 448.968 180.999 448.191L184.657 447.251L185.626 451.022C186.492 454.394 186.58 454.817 186.456 455.028C186.354 455.199 186.294 455.229 186.234 455.136C186.136 454.985 185.708 455.069 185.75 455.232C185.768 455.304 184.731 455.614 182.859 456.095C180.987 456.576 179.928 456.805 179.91 456.733C179.894 456.671 179.78 456.646 179.656 456.678C179.533 456.71 179.444 456.787 179.46 456.848C179.476 456.91 179.388 456.987 179.265 457.018C179.141 457.05 179.053 457.127 179.069 457.188C179.085 457.25 179.148 457.288 179.21 457.272C179.284 457.253 179.967 459.751 181.199 464.543C206.558 460.144 179.39 470.76 179.316 470.778C173.081 465.569 175.255 474.027 175.271 474.089C175.289 474.163 184.892 471.616 188.636 470.654L194.364 469.182L193.873 467.273L193.383 465.363L195.292 464.873L197.201 464.382L191.832 443.491L186.463 422.601L184.554 423.091L182.645 423.582L182.154 421.673L181.663 419.763L160.773 425.132L139.882 430.501L140.373 432.411Z" fill="#F8CC14"/>
<rect x="151.446" y="434.796" width="32.5501" height="43.9866" transform="rotate(-14.4134 151.446 434.796)" fill="#F8CC14"/>
<path fill-rule="evenodd" clip-rule="evenodd" d="M170.609 435.322L157.251 438.754L157.823 440.98L155.152 441.666L156.296 446.119L158.968 445.432L158.396 443.207L171.753 439.774L170.609 435.322ZM173.853 436.861L171.182 437.547L172.326 442L174.996 441.314L178.543 455.115L182.996 453.971L179.448 440.169L177.668 440.626L176.982 437.956L174.311 438.642L173.853 436.861ZM155.609 443.448L152.938 444.134L153.624 446.805L151.843 447.263L155.39 461.066L159.843 459.921L156.296 446.119L156.296 446.119L155.609 443.448ZM164.233 465.913L177.59 462.48L177.018 460.255L179.689 459.568L179.231 457.787L181.902 457.101L181.215 454.429L178.544 455.116L178.544 455.116L175.873 455.802L176.445 458.028L163.089 461.461L164.233 465.913ZM163.659 463.688L160.987 464.374L160.529 462.593L157.86 463.279L157.173 460.608L159.845 459.921L159.845 459.922L162.514 459.235L163.659 463.688Z" fill="#007AE0"/>
<rect x="176.046" y="426.981" width="6.9906" height="6.29154" transform="rotate(-14.4134 176.046 426.981)" fill="#007AE0"/>
<rect x="177.124" y="431.134" width="2.29855" height="6.89564" transform="rotate(-104.413 177.124 431.134)" fill="#007AE0"/>
<path d="M215.04 97.8624H219.369L216.381 112.887H212.052L215.04 97.8624ZM217.945 95.7679C217.2 95.7679 216.586 95.5537 216.102 95.1255C215.636 94.6787 215.403 94.1388 215.403 93.5058C215.403 92.761 215.664 92.1466 216.185 91.6626C216.725 91.1599 217.423 90.9085 218.28 90.9085C219.043 90.9085 219.658 91.1226 220.123 91.5509C220.607 91.9604 220.849 92.4724 220.849 93.0868C220.849 93.8874 220.579 94.5391 220.039 95.0417C219.499 95.5258 218.801 95.7679 217.945 95.7679ZM232.154 97.639C233.83 97.639 235.161 98.0858 236.148 98.9795C237.135 99.8545 237.628 101.111 237.628 102.75C237.628 103.364 237.563 103.969 237.432 104.565L235.757 112.887H231.4L233.02 104.844C233.094 104.528 233.132 104.183 233.132 103.811C233.132 103.029 232.918 102.433 232.489 102.024C232.061 101.614 231.419 101.409 230.562 101.409C229.445 101.409 228.514 101.735 227.77 102.387C227.044 103.02 226.55 103.978 226.29 105.263L224.781 112.887H220.425L223.413 97.8624H227.546L227.211 99.4822C228.552 98.2534 230.199 97.639 232.154 97.639ZM249.927 95.3769C249.257 95.3769 248.726 95.5631 248.335 95.9354C247.963 96.2892 247.702 96.857 247.553 97.639L247.442 98.1975H251.268L250.597 101.549H246.883L244.621 112.887H240.264L242.527 101.549H240.181L240.851 98.1975H243.197L243.364 97.3318C243.718 95.6561 244.444 94.3436 245.543 93.394C246.66 92.4259 248.112 91.9418 249.899 91.9418C250.57 91.9418 251.203 92.0163 251.798 92.1652C252.413 92.3142 252.934 92.519 253.362 92.7796L251.659 95.9075C251.193 95.5537 250.616 95.3769 249.927 95.3769ZM258.19 113.111C256.682 113.111 255.351 112.831 254.197 112.273C253.061 111.714 252.177 110.932 251.544 109.927C250.929 108.903 250.622 107.721 250.622 106.38C250.622 104.723 251.013 103.234 251.795 101.912C252.577 100.59 253.657 99.5473 255.035 98.784C256.412 98.0206 257.967 97.639 259.698 97.639C261.225 97.639 262.556 97.9182 263.692 98.4768C264.828 99.0353 265.703 99.8266 266.317 100.851C266.95 101.856 267.267 103.029 267.267 104.369C267.267 106.026 266.876 107.516 266.094 108.838C265.33 110.16 264.251 111.202 262.854 111.966C261.476 112.729 259.922 113.111 258.19 113.111ZM258.47 109.508C259.307 109.508 260.062 109.303 260.732 108.894C261.402 108.465 261.923 107.879 262.296 107.134C262.668 106.389 262.854 105.533 262.854 104.565C262.854 103.541 262.556 102.731 261.961 102.135C261.365 101.539 260.527 101.242 259.447 101.242C258.591 101.242 257.827 101.456 257.157 101.884C256.487 102.294 255.966 102.871 255.593 103.615C255.221 104.36 255.035 105.217 255.035 106.185C255.035 107.209 255.333 108.019 255.928 108.614C256.543 109.21 257.39 109.508 258.47 109.508ZM284.506 93.0589C286.889 93.0589 288.946 93.4871 290.678 94.3436C292.428 95.2 293.759 96.4009 294.672 97.9462C295.584 99.4729 296.04 101.26 296.04 103.308C296.04 105.021 295.742 106.632 295.146 108.14C294.569 109.629 293.75 110.83 292.689 111.742C291.646 112.636 290.455 113.083 289.114 113.083C288.146 113.083 287.345 112.915 286.712 112.58C286.098 112.245 285.67 111.761 285.428 111.128C284.236 112.431 282.644 113.083 280.652 113.083C279.572 113.083 278.595 112.841 277.72 112.357C276.863 111.873 276.184 111.184 275.681 110.29C275.178 109.378 274.927 108.326 274.927 107.134C274.927 105.663 275.244 104.304 275.877 103.057C276.528 101.809 277.413 100.823 278.53 100.097C279.665 99.3518 280.931 98.9795 282.328 98.9795C284.394 98.9795 285.856 99.7149 286.712 101.186L287.131 99.175H290.929L289.114 108.251C289.058 108.493 289.03 108.707 289.03 108.894C289.03 109.638 289.412 110.011 290.175 110.011C290.79 110.011 291.33 109.676 291.795 109.005C292.261 108.316 292.614 107.469 292.856 106.464C293.098 105.44 293.219 104.444 293.219 103.476C293.219 101.037 292.447 99.1377 290.901 97.7786C289.356 96.4009 287.094 95.712 284.115 95.712C281.751 95.712 279.656 96.2333 277.831 97.2759C276.026 98.3185 274.62 99.7521 273.614 101.577C272.609 103.383 272.106 105.403 272.106 107.637C272.106 109.294 272.451 110.755 273.14 112.021C273.829 113.269 274.834 114.237 276.156 114.926C277.478 115.615 279.06 115.959 280.903 115.959C282.784 115.959 284.543 115.605 286.182 114.898L286.796 117.467C285.94 117.821 284.962 118.1 283.864 118.305C282.784 118.528 281.723 118.64 280.68 118.64C278.297 118.64 276.221 118.184 274.452 117.272C272.684 116.359 271.324 115.084 270.375 113.446C269.444 111.826 268.979 109.964 268.979 107.86C268.979 105.049 269.64 102.517 270.961 100.264C272.283 98.0113 274.117 96.2519 276.463 94.9859C278.828 93.7012 281.509 93.0589 284.506 93.0589ZM281.825 109.871C282.626 109.871 283.333 109.666 283.948 109.257C284.562 108.847 285.037 108.289 285.372 107.581C285.726 106.874 285.902 106.101 285.902 105.263C285.902 104.295 285.623 103.55 285.065 103.029C284.525 102.489 283.771 102.219 282.803 102.219C281.63 102.219 280.671 102.638 279.926 103.476C279.181 104.295 278.809 105.403 278.809 106.799C278.809 107.786 279.079 108.549 279.619 109.089C280.159 109.61 280.894 109.871 281.825 109.871ZM303.581 107.581C303.544 107.73 303.526 107.935 303.526 108.195C303.526 109.164 304.056 109.648 305.117 109.648C305.695 109.648 306.281 109.471 306.877 109.117L307.519 112.217C306.551 112.813 305.304 113.111 303.777 113.111C302.362 113.111 301.226 112.738 300.37 111.994C299.513 111.249 299.085 110.225 299.085 108.922C299.085 108.549 299.132 108.112 299.225 107.609L300.426 101.549H298.108L298.778 98.1975H301.096L301.822 94.5391H306.179L305.453 98.1975H309.195L308.525 101.549H304.782L303.581 107.581ZM321.527 97.639C323.202 97.639 324.533 98.0858 325.52 98.9795C326.507 99.8731 327 101.139 327 102.778C327 103.373 326.935 103.969 326.805 104.565L325.129 112.887H320.773L322.392 104.844C322.467 104.528 322.504 104.183 322.504 103.811C322.504 103.029 322.29 102.433 321.862 102.024C321.433 101.614 320.791 101.409 319.935 101.409C318.818 101.409 317.887 101.735 317.142 102.387C316.416 103.02 315.923 103.978 315.662 105.263L314.154 112.887H309.797L313.93 92.1652H318.287L316.891 99.2308C318.175 98.1696 319.721 97.639 321.527 97.639ZM345.579 104.258C345.579 104.947 345.496 105.71 345.328 106.548H333.822C333.971 108.596 335.265 109.62 337.704 109.62C338.467 109.62 339.193 109.499 339.882 109.257C340.59 109.015 341.204 108.67 341.725 108.223L343.541 111.1C342.703 111.77 341.744 112.273 340.664 112.608C339.584 112.943 338.449 113.111 337.257 113.111C335.712 113.111 334.353 112.841 333.18 112.301C332.025 111.742 331.132 110.951 330.499 109.927C329.884 108.903 329.577 107.721 329.577 106.38C329.577 104.723 329.949 103.234 330.694 101.912C331.457 100.571 332.509 99.5287 333.85 98.784C335.19 98.0206 336.717 97.639 338.43 97.639C339.882 97.639 341.139 97.9089 342.2 98.4489C343.28 98.9888 344.108 99.7614 344.686 100.767C345.281 101.772 345.579 102.936 345.579 104.258ZM338.234 100.906C337.21 100.906 336.345 101.186 335.637 101.744C334.93 102.284 334.427 103.038 334.129 104.006H341.586C341.586 103.038 341.279 102.284 340.664 101.744C340.068 101.186 339.258 100.906 338.234 100.906ZM365.043 97.8624L362.054 112.887H357.921L358.2 111.407C356.953 112.543 355.417 113.111 353.592 113.111C352.419 113.111 351.34 112.841 350.353 112.301C349.366 111.761 348.575 110.988 347.979 109.983C347.402 108.959 347.113 107.758 347.113 106.38C347.113 104.723 347.476 103.234 348.202 101.912C348.947 100.571 349.953 99.5287 351.219 98.784C352.485 98.0206 353.881 97.639 355.408 97.639C357.716 97.639 359.345 98.393 360.295 99.9011L360.686 97.8624H365.043ZM354.933 109.508C355.789 109.508 356.553 109.303 357.223 108.894C357.893 108.465 358.415 107.879 358.787 107.134C359.159 106.389 359.345 105.533 359.345 104.565C359.345 103.541 359.038 102.731 358.424 102.135C357.828 101.539 356.99 101.242 355.91 101.242C355.054 101.242 354.291 101.456 353.62 101.884C352.95 102.294 352.429 102.871 352.056 103.615C351.684 104.36 351.498 105.217 351.498 106.185C351.498 107.209 351.796 108.019 352.392 108.614C353.006 109.21 353.853 109.508 354.933 109.508ZM372.846 99.6497C373.498 98.9422 374.28 98.4302 375.192 98.1137C376.123 97.7972 377.212 97.639 378.46 97.639L377.678 101.66C377.156 101.623 376.821 101.605 376.672 101.605C375.35 101.605 374.289 101.93 373.489 102.582C372.707 103.234 372.176 104.248 371.897 105.626L370.445 112.887H366.088L369.076 97.8624H373.209L372.846 99.6497ZM383.534 113.111C382.231 113.111 380.993 112.971 379.82 112.692C378.666 112.394 377.763 112.012 377.111 111.547L378.787 108.391C379.438 108.819 380.23 109.164 381.16 109.424C382.11 109.685 383.06 109.815 384.009 109.815C384.996 109.815 385.731 109.694 386.215 109.452C386.699 109.192 386.941 108.828 386.941 108.363C386.941 107.991 386.727 107.721 386.299 107.553C385.871 107.386 385.182 107.209 384.232 107.023C383.153 106.818 382.259 106.594 381.551 106.352C380.863 106.11 380.257 105.719 379.736 105.179C379.233 104.621 378.982 103.867 378.982 102.917C378.982 101.26 379.671 99.9662 381.049 99.0353C382.445 98.1044 384.27 97.639 386.522 97.639C387.565 97.639 388.58 97.7507 389.567 97.9741C390.553 98.1975 391.391 98.5047 392.08 98.8957L390.516 102.079C389.287 101.316 387.807 100.934 386.076 100.934C385.126 100.934 384.4 101.074 383.897 101.353C383.413 101.633 383.171 101.986 383.171 102.415C383.171 102.805 383.385 103.094 383.814 103.28C384.242 103.448 384.959 103.634 385.964 103.839C387.025 104.044 387.891 104.267 388.561 104.509C389.25 104.732 389.846 105.114 390.349 105.654C390.851 106.194 391.103 106.929 391.103 107.86C391.103 109.536 390.395 110.83 388.98 111.742C387.584 112.654 385.768 113.111 383.534 113.111ZM404.626 97.639C406.302 97.639 407.633 98.0858 408.62 98.9795C409.607 99.8731 410.1 101.139 410.1 102.778C410.1 103.373 410.035 103.969 409.905 104.565L408.229 112.887H403.872L405.492 104.844C405.566 104.528 405.604 104.183 405.604 103.811C405.604 103.029 405.39 102.433 404.961 102.024C404.533 101.614 403.891 101.409 403.034 101.409C401.917 101.409 400.986 101.735 400.242 102.387C399.516 103.02 399.022 103.978 398.762 105.263L397.253 112.887H392.897L397.03 92.1652H401.387L399.99 99.2308C401.275 98.1696 402.82 97.639 404.626 97.639ZM430.606 97.8624L427.618 112.887H423.485L423.764 111.407C422.516 112.543 420.98 113.111 419.156 113.111C417.983 113.111 416.903 112.841 415.916 112.301C414.93 111.761 414.138 110.988 413.542 109.983C412.965 108.959 412.677 107.758 412.677 106.38C412.677 104.723 413.04 103.234 413.766 101.912C414.511 100.571 415.516 99.5287 416.782 98.784C418.048 98.0206 419.444 97.639 420.971 97.639C423.28 97.639 424.909 98.393 425.858 99.9011L426.249 97.8624H430.606ZM420.496 109.508C421.353 109.508 422.116 109.303 422.786 108.894C423.457 108.465 423.978 107.879 424.35 107.134C424.723 106.389 424.909 105.533 424.909 104.565C424.909 103.541 424.602 102.731 423.987 102.135C423.391 101.539 422.554 101.242 421.474 101.242C420.617 101.242 419.854 101.456 419.184 101.884C418.513 102.294 417.992 102.871 417.62 103.615C417.247 104.36 417.061 105.217 417.061 106.185C417.061 107.209 417.359 108.019 417.955 108.614C418.569 109.21 419.416 109.508 420.496 109.508ZM453.49 97.639C455.129 97.639 456.432 98.0858 457.4 98.9795C458.368 99.8545 458.852 101.102 458.852 102.722C458.852 103.317 458.787 103.932 458.657 104.565L457.009 112.887H452.652L454.244 104.872C454.319 104.5 454.356 104.118 454.356 103.727C454.356 102.964 454.151 102.387 453.742 101.996C453.351 101.605 452.764 101.409 451.982 101.409C449.878 101.409 448.566 102.666 448.044 105.179L446.509 112.887H442.152L443.744 104.872C443.818 104.5 443.855 104.127 443.855 103.755C443.855 102.992 443.651 102.415 443.241 102.024C442.85 101.614 442.264 101.409 441.482 101.409C439.378 101.409 438.056 102.684 437.516 105.235L436.008 112.887H431.651L434.639 97.8624H438.773L438.438 99.4263C439.741 98.2348 441.314 97.639 443.157 97.639C444.2 97.639 445.121 97.8531 445.922 98.2813C446.741 98.6909 447.356 99.296 447.765 100.097C448.491 99.296 449.338 98.6909 450.307 98.2813C451.275 97.8531 452.336 97.639 453.49 97.639ZM462.925 113.111C462.18 113.111 461.566 112.878 461.082 112.412C460.598 111.928 460.356 111.323 460.356 110.597C460.356 109.741 460.635 109.043 461.193 108.503C461.752 107.963 462.441 107.693 463.26 107.693C464.005 107.693 464.61 107.925 465.075 108.391C465.559 108.856 465.801 109.461 465.801 110.206C465.801 111.044 465.513 111.742 464.936 112.301C464.377 112.841 463.707 113.111 462.925 113.111ZM475.992 113.111C474.446 113.111 473.096 112.831 471.942 112.273C470.788 111.714 469.894 110.932 469.261 109.927C468.647 108.903 468.339 107.721 468.339 106.38C468.339 104.723 468.73 103.234 469.512 101.912C470.294 100.59 471.384 99.5473 472.78 98.784C474.176 98.0206 475.749 97.639 477.5 97.639C479.101 97.639 480.478 97.9741 481.633 98.6444C482.806 99.296 483.681 100.227 484.258 101.437L480.572 103.28C479.92 101.921 478.803 101.242 477.22 101.242C476.364 101.242 475.591 101.456 474.902 101.884C474.232 102.294 473.702 102.871 473.311 103.615C472.938 104.36 472.752 105.207 472.752 106.157C472.752 107.181 473.059 108 473.674 108.614C474.288 109.21 475.144 109.508 476.243 109.508C477.844 109.508 479.073 108.838 479.929 107.497L483.141 109.508C482.415 110.644 481.419 111.528 480.153 112.161C478.905 112.794 477.518 113.111 475.992 113.111ZM492.217 113.111C490.709 113.111 489.378 112.831 488.223 112.273C487.087 111.714 486.203 110.932 485.57 109.927C484.956 108.903 484.649 107.721 484.649 106.38C484.649 104.723 485.039 103.234 485.821 101.912C486.603 100.59 487.683 99.5473 489.061 98.784C490.439 98.0206 491.993 97.639 493.725 97.639C495.252 97.639 496.583 97.9182 497.718 98.4768C498.854 99.0353 499.729 99.8266 500.344 100.851C500.977 101.856 501.293 103.029 501.293 104.369C501.293 106.026 500.902 107.516 500.12 108.838C499.357 110.16 498.277 111.202 496.881 111.966C495.503 112.729 493.948 113.111 492.217 113.111ZM492.496 109.508C493.334 109.508 494.088 109.303 494.758 108.894C495.428 108.465 495.95 107.879 496.322 107.134C496.694 106.389 496.881 105.533 496.881 104.565C496.881 103.541 496.583 102.731 495.987 102.135C495.391 101.539 494.553 101.242 493.473 101.242C492.617 101.242 491.854 101.456 491.183 101.884C490.513 102.294 489.992 102.871 489.62 103.615C489.247 104.36 489.061 105.217 489.061 106.185C489.061 107.209 489.359 108.019 489.955 108.614C490.569 109.21 491.416 109.508 492.496 109.508ZM524.481 97.639C526.119 97.639 527.423 98.0858 528.391 98.9795C529.359 99.8545 529.843 101.102 529.843 102.722C529.843 103.317 529.778 103.932 529.647 104.565L528 112.887H523.643L525.235 104.872C525.309 104.5 525.347 104.118 525.347 103.727C525.347 102.964 525.142 102.387 524.732 101.996C524.341 101.605 523.755 101.409 522.973 101.409C520.869 101.409 519.556 102.666 519.035 105.179L517.499 112.887H513.142L514.734 104.872C514.809 104.5 514.846 104.127 514.846 103.755C514.846 102.992 514.641 102.415 514.232 102.024C513.841 101.614 513.254 101.409 512.472 101.409C510.368 101.409 509.047 102.684 508.507 105.235L506.999 112.887H502.642L505.63 97.8624H509.763L509.428 99.4263C510.731 98.2348 512.305 97.639 514.148 97.639C515.19 97.639 516.112 97.8531 516.913 98.2813C517.732 98.6909 518.346 99.296 518.756 100.097C519.482 99.296 520.329 98.6909 521.297 98.2813C522.265 97.8531 523.327 97.639 524.481 97.639Z" fill="white"/>
<path d="M224.489 59.3164L223.651 63.5613H232.727L232.029 67.0801H222.925L222.031 71.6043H232.699L231.945 75.2349H216.809L220.719 55.6858H235.492L234.738 59.3164H224.489ZM257.105 59.9866C258.743 59.9866 260.047 60.4335 261.015 61.3271C261.983 62.2022 262.467 63.4496 262.467 65.0694C262.467 65.6652 262.402 66.2796 262.272 66.9126L260.624 75.2349H256.267L257.859 67.2198C257.933 66.8474 257.971 66.4657 257.971 66.0748C257.971 65.3114 257.766 64.7342 257.356 64.3433C256.965 63.9523 256.379 63.7568 255.597 63.7568C253.493 63.7568 252.18 65.0135 251.659 67.527L250.123 75.2349H245.767L247.358 67.2198C247.433 66.8474 247.47 66.475 247.47 66.1027C247.47 65.3393 247.265 64.7622 246.856 64.3712C246.465 63.9616 245.878 63.7568 245.096 63.7568C242.992 63.7568 241.671 65.0321 241.131 67.5828L239.623 75.2349H235.266L238.254 60.21H242.387L242.052 61.774C243.356 60.5824 244.929 59.9866 246.772 59.9866C247.815 59.9866 248.736 60.2007 249.537 60.629C250.356 61.0386 250.97 61.6436 251.38 62.4442C252.106 61.6436 252.953 61.0386 253.921 60.629C254.889 60.2007 255.951 59.9866 257.105 59.9866ZM282.957 60.21L279.969 75.2349H275.835L276.115 73.7547C274.867 74.8904 273.331 75.4583 271.507 75.4583C270.334 75.4583 269.254 75.1883 268.267 74.6484C267.28 74.1085 266.489 73.3358 265.893 72.3304C265.316 71.3064 265.028 70.1056 265.028 68.7278C265.028 67.0708 265.391 65.5814 266.117 64.2595C266.861 62.919 267.867 61.8764 269.133 61.1316C270.399 60.3683 271.795 59.9866 273.322 59.9866C275.631 59.9866 277.26 60.7407 278.209 62.2487L278.6 60.21H282.957ZM272.847 71.8557C273.704 71.8557 274.467 71.6509 275.137 71.2413C275.807 70.8131 276.329 70.2266 276.701 69.4819C277.073 68.7371 277.26 67.8807 277.26 66.9126C277.26 65.8886 276.952 65.0787 276.338 64.4829C275.742 63.8871 274.904 63.5892 273.825 63.5892C272.968 63.5892 272.205 63.8033 271.535 64.2316C270.864 64.6412 270.343 65.2183 269.971 65.963C269.598 66.7078 269.412 67.5642 269.412 68.5323C269.412 69.5563 269.71 70.3662 270.306 70.962C270.92 71.5578 271.767 71.8557 272.847 71.8557ZM286.99 60.21H291.319L288.331 75.2349H284.002L286.99 60.21ZM289.895 58.1155C289.15 58.1155 288.536 57.9014 288.052 57.4732C287.586 57.0264 287.353 56.4864 287.353 55.8534C287.353 55.1087 287.614 54.4943 288.135 54.0102C288.675 53.5075 289.373 53.2562 290.23 53.2562C290.993 53.2562 291.608 53.4703 292.073 53.8985C292.557 54.3081 292.799 54.8201 292.799 55.4345C292.799 56.2351 292.529 56.8867 291.989 57.3894C291.449 57.8735 290.751 58.1155 289.895 58.1155ZM296.508 54.5129H300.865L296.731 75.2349H292.375L296.508 54.5129ZM304.768 65.4324C304.024 65.4324 303.409 65.1997 302.925 64.7342C302.441 64.2502 302.199 63.6451 302.199 62.919C302.199 62.0625 302.478 61.3644 303.037 60.8244C303.595 60.2845 304.284 60.0146 305.103 60.0146C305.848 60.0146 306.453 60.2473 306.919 60.7127C307.403 61.1782 307.645 61.7833 307.645 62.528C307.645 63.3658 307.356 64.064 306.779 64.6225C306.221 65.1625 305.55 65.4324 304.768 65.4324ZM302.758 75.4583C302.013 75.4583 301.398 75.2256 300.914 74.7601C300.43 74.276 300.188 73.6709 300.188 72.9448C300.188 72.0884 300.468 71.3902 301.026 70.8503C301.585 70.3104 302.274 70.0404 303.093 70.0404C303.837 70.0404 304.443 70.2731 304.908 70.7386C305.392 71.204 305.634 71.8091 305.634 72.5539C305.634 73.3917 305.346 74.0898 304.768 74.6484C304.21 75.1883 303.54 75.4583 302.758 75.4583Z" fill="white"/>
<path d="M230.892 233.228H221.788L219.247 237.417H214.415L227.066 217.868H231.535L236.338 237.417H231.814L230.892 233.228ZM230.138 229.793L228.491 222.253L223.883 229.793H230.138ZM244.846 224.18C245.497 223.472 246.279 222.96 247.191 222.644C248.122 222.327 249.211 222.169 250.459 222.169L249.677 226.19C249.156 226.153 248.82 226.134 248.672 226.134C247.35 226.134 246.288 226.46 245.488 227.112C244.706 227.764 244.175 228.778 243.896 230.156L242.444 237.417H238.087L241.075 222.392H245.209L244.846 224.18ZM255.534 237.64C254.23 237.64 252.992 237.501 251.819 237.222C250.665 236.924 249.762 236.542 249.11 236.076L250.786 232.921C251.438 233.349 252.229 233.693 253.16 233.954C254.109 234.215 255.059 234.345 256.008 234.345C256.995 234.345 257.73 234.224 258.215 233.982C258.699 233.721 258.941 233.358 258.941 232.893C258.941 232.52 258.727 232.25 258.298 232.083C257.87 231.915 257.181 231.738 256.232 231.552C255.152 231.347 254.258 231.124 253.551 230.882C252.862 230.64 252.257 230.249 251.735 229.709C251.233 229.151 250.981 228.397 250.981 227.447C250.981 225.79 251.67 224.496 253.048 223.565C254.444 222.634 256.269 222.169 258.522 222.169C259.564 222.169 260.579 222.28 261.566 222.504C262.553 222.727 263.39 223.035 264.079 223.425L262.515 226.609C261.287 225.846 259.806 225.464 258.075 225.464C257.125 225.464 256.399 225.604 255.897 225.883C255.413 226.162 255.171 226.516 255.171 226.944C255.171 227.335 255.385 227.624 255.813 227.81C256.241 227.978 256.958 228.164 257.963 228.369C259.024 228.573 259.89 228.797 260.56 229.039C261.249 229.262 261.845 229.644 262.348 230.184C262.85 230.724 263.102 231.459 263.102 232.39C263.102 234.066 262.394 235.36 260.979 236.272C259.583 237.184 257.768 237.64 255.534 237.64ZM276.626 222.169C278.301 222.169 279.632 222.616 280.619 223.509C281.606 224.403 282.099 225.669 282.099 227.307C282.099 227.903 282.034 228.499 281.904 229.095L280.228 237.417H275.872L277.491 229.374C277.566 229.057 277.603 228.713 277.603 228.341C277.603 227.559 277.389 226.963 276.961 226.553C276.532 226.144 275.89 225.939 275.034 225.939C273.917 225.939 272.986 226.265 272.241 226.916C271.515 227.549 271.022 228.508 270.761 229.793L269.253 237.417H264.896L269.029 216.695H273.386L271.99 223.761C273.274 222.699 274.82 222.169 276.626 222.169ZM302.605 222.392L299.617 237.417H295.484L295.763 235.937C294.516 237.073 292.98 237.64 291.155 237.64C289.982 237.64 288.902 237.37 287.916 236.831C286.929 236.291 286.138 235.518 285.542 234.513C284.965 233.489 284.676 232.288 284.676 230.91C284.676 229.253 285.039 227.764 285.765 226.442C286.51 225.101 287.515 224.058 288.781 223.314C290.047 222.55 291.444 222.169 292.97 222.169C295.279 222.169 296.908 222.923 297.858 224.431L298.249 222.392H302.605ZM292.496 234.038C293.352 234.038 294.115 233.833 294.786 233.423C295.456 232.995 295.977 232.409 296.35 231.664C296.722 230.919 296.908 230.063 296.908 229.095C296.908 228.071 296.601 227.261 295.986 226.665C295.391 226.069 294.553 225.771 293.473 225.771C292.617 225.771 291.853 225.985 291.183 226.414C290.513 226.823 289.991 227.4 289.619 228.145C289.247 228.89 289.061 229.746 289.061 230.714C289.061 231.738 289.358 232.548 289.954 233.144C290.569 233.74 291.416 234.038 292.496 234.038ZM325.49 222.169C327.128 222.169 328.431 222.616 329.399 223.509C330.368 224.384 330.852 225.632 330.852 227.252C330.852 227.847 330.786 228.462 330.656 229.095L329.008 237.417H324.652L326.244 229.402C326.318 229.03 326.355 228.648 326.355 228.257C326.355 227.494 326.151 226.916 325.741 226.525C325.35 226.134 324.763 225.939 323.982 225.939C321.878 225.939 320.565 227.196 320.044 229.709L318.508 237.417H314.151L315.743 229.402C315.817 229.03 315.855 228.657 315.855 228.285C315.855 227.521 315.65 226.944 315.24 226.553C314.849 226.144 314.263 225.939 313.481 225.939C311.377 225.939 310.055 227.214 309.515 229.765L308.007 237.417H303.651L306.639 222.392H310.772L310.437 223.956C311.74 222.765 313.313 222.169 315.157 222.169C316.199 222.169 317.121 222.383 317.921 222.811C318.741 223.221 319.355 223.826 319.765 224.626C320.491 223.826 321.338 223.221 322.306 222.811C323.274 222.383 324.335 222.169 325.49 222.169ZM347.944 237.752C346.399 237.752 344.918 237.547 343.503 237.138C342.088 236.728 340.953 236.207 340.096 235.574L341.94 232.083C342.833 232.735 343.839 233.237 344.956 233.591C346.073 233.945 347.218 234.122 348.391 234.122C349.638 234.122 350.625 233.917 351.351 233.507C352.077 233.098 352.44 232.539 352.44 231.832C352.44 231.254 352.152 230.817 351.574 230.519C350.997 230.202 350.076 229.867 348.81 229.514C347.544 229.141 346.51 228.787 345.71 228.452C344.909 228.099 344.211 227.577 343.615 226.888C343.038 226.2 342.749 225.287 342.749 224.152C342.749 222.83 343.112 221.666 343.839 220.661C344.583 219.655 345.626 218.883 346.966 218.343C348.326 217.803 349.899 217.533 351.686 217.533C353.008 217.533 354.255 217.682 355.428 217.98C356.601 218.259 357.607 218.669 358.445 219.208L356.741 222.671C356.015 222.169 355.196 221.796 354.283 221.554C353.371 221.294 352.422 221.163 351.435 221.163C350.15 221.163 349.135 221.387 348.391 221.834C347.646 222.28 347.274 222.858 347.274 223.565C347.274 223.993 347.432 224.356 347.748 224.654C348.065 224.934 348.465 225.166 348.949 225.352C349.433 225.52 350.113 225.725 350.988 225.967C352.235 226.302 353.259 226.646 354.06 227C354.861 227.335 355.54 227.838 356.099 228.508C356.676 229.16 356.964 230.026 356.964 231.105C356.964 232.446 356.592 233.619 355.847 234.624C355.103 235.611 354.051 236.384 352.692 236.942C351.332 237.482 349.75 237.752 347.944 237.752ZM370.389 222.169C372.064 222.169 373.396 222.616 374.382 223.509C375.369 224.403 375.863 225.669 375.863 227.307C375.863 227.903 375.797 228.499 375.667 229.095L373.991 237.417H369.635L371.255 229.374C371.329 229.057 371.366 228.713 371.366 228.341C371.366 227.559 371.152 226.963 370.724 226.553C370.296 226.144 369.653 225.939 368.797 225.939C367.68 225.939 366.749 226.265 366.004 226.916C365.278 227.549 364.785 228.508 364.524 229.793L363.016 237.417H358.659L362.793 216.695H367.149L365.753 223.761C367.038 222.699 368.583 222.169 370.389 222.169ZM380.957 222.392H385.285L382.297 237.417H377.968L380.957 222.392ZM383.861 220.298C383.116 220.298 382.502 220.084 382.018 219.655C381.552 219.208 381.32 218.669 381.32 218.036C381.32 217.291 381.58 216.676 382.102 216.192C382.642 215.69 383.34 215.438 384.196 215.438C384.96 215.438 385.574 215.652 386.039 216.081C386.523 216.49 386.765 217.002 386.765 217.617C386.765 218.417 386.496 219.069 385.956 219.572C385.416 220.056 384.718 220.298 383.861 220.298ZM393.1 224.18C393.751 223.472 394.533 222.96 395.445 222.644C396.376 222.327 397.465 222.169 398.713 222.169L397.931 226.19C397.41 226.153 397.074 226.134 396.926 226.134C395.604 226.134 394.542 226.46 393.742 227.112C392.96 227.764 392.429 228.778 392.15 230.156L390.698 237.417H386.341L389.329 222.392H393.463L393.1 224.18ZM409.458 228.927L414.625 237.417H409.57L405.995 231.58L403.342 233.786L402.616 237.417H398.259L402.392 216.695H406.749L404.431 228.285L411.636 222.392H417.306L409.458 228.927ZM423.452 237.64C421.944 237.64 420.613 237.361 419.459 236.803C418.323 236.244 417.439 235.462 416.806 234.457C416.191 233.433 415.884 232.25 415.884 230.91C415.884 229.253 416.275 227.764 417.057 226.442C417.839 225.12 418.919 224.077 420.296 223.314C421.674 222.55 423.229 222.169 424.96 222.169C426.487 222.169 427.818 222.448 428.954 223.007C430.09 223.565 430.965 224.356 431.579 225.38C432.212 226.386 432.529 227.559 432.529 228.899C432.529 230.556 432.138 232.046 431.356 233.368C430.592 234.689 429.512 235.732 428.116 236.495C426.738 237.259 425.184 237.64 423.452 237.64ZM423.731 234.038C424.569 234.038 425.323 233.833 425.994 233.423C426.664 232.995 427.185 232.409 427.557 231.664C427.93 230.919 428.116 230.063 428.116 229.095C428.116 228.071 427.818 227.261 427.222 226.665C426.627 226.069 425.789 225.771 424.709 225.771C423.852 225.771 423.089 225.985 422.419 226.414C421.749 226.823 421.227 227.4 420.855 228.145C420.483 228.89 420.296 229.746 420.296 230.714C420.296 231.738 420.594 232.548 421.19 233.144C421.804 233.74 422.652 234.038 423.731 234.038ZM452.002 222.392L449.014 237.417H444.881L445.188 235.797C444.536 236.412 443.791 236.877 442.954 237.194C442.116 237.491 441.231 237.64 440.301 237.64C438.662 237.64 437.35 237.194 436.363 236.3C435.395 235.406 434.911 234.15 434.911 232.53C434.911 231.915 434.976 231.31 435.106 230.714L436.754 222.392H441.11L439.519 230.435C439.444 230.789 439.407 231.152 439.407 231.524C439.407 233.088 440.245 233.87 441.92 233.87C443.019 233.87 443.922 233.554 444.629 232.921C445.355 232.269 445.849 231.301 446.109 230.016L447.645 222.392H452.002ZM464.779 222.169C466.455 222.169 467.786 222.616 468.773 223.509C469.76 224.403 470.253 225.669 470.253 227.307C470.253 227.903 470.188 228.499 470.058 229.095L468.382 237.417H464.025L465.645 229.374C465.72 229.057 465.757 228.713 465.757 228.341C465.757 227.559 465.543 226.963 465.115 226.553C464.686 226.144 464.044 225.939 463.188 225.939C462.07 225.939 461.14 226.265 460.395 226.916C459.669 227.549 459.175 228.508 458.915 229.793L457.407 237.417H453.05L457.183 216.695H461.54L460.143 223.761C461.428 222.699 462.973 222.169 464.779 222.169ZM475.347 222.392H479.676L476.688 237.417H472.359L475.347 222.392ZM478.252 220.298C477.507 220.298 476.892 220.084 476.408 219.655C475.943 219.208 475.71 218.669 475.71 218.036C475.71 217.291 475.971 216.676 476.492 216.192C477.032 215.69 477.73 215.438 478.587 215.438C479.35 215.438 479.964 215.652 480.43 216.081C480.914 216.49 481.156 217.002 481.156 217.617C481.156 218.417 480.886 219.069 480.346 219.572C479.806 220.056 479.108 220.298 478.252 220.298Z" fill="white"/>
<path d="M222.114 182.915H226.666L223.483 198.777H233.285L232.531 202.464H218.204L222.114 182.915ZM237.768 187.439H242.097L239.108 202.464H234.78L237.768 187.439ZM240.672 185.345C239.928 185.345 239.313 185.13 238.829 184.702C238.364 184.255 238.131 183.715 238.131 183.082C238.131 182.338 238.392 181.723 238.913 181.239C239.453 180.737 240.151 180.485 241.007 180.485C241.771 180.485 242.385 180.699 242.851 181.128C243.335 181.537 243.577 182.049 243.577 182.664C243.577 183.464 243.307 184.116 242.767 184.618C242.227 185.102 241.529 185.345 240.672 185.345ZM254.882 187.216C256.557 187.216 257.889 187.662 258.875 188.556C259.862 189.431 260.355 190.688 260.355 192.326C260.355 192.941 260.29 193.546 260.16 194.142L258.484 202.464H254.128L255.747 194.421C255.822 194.104 255.859 193.76 255.859 193.388C255.859 192.606 255.645 192.01 255.217 191.6C254.789 191.191 254.146 190.986 253.29 190.986C252.173 190.986 251.242 191.312 250.497 191.963C249.771 192.596 249.278 193.555 249.017 194.84L247.509 202.464H243.152L246.141 187.439H250.274L249.939 189.059C251.279 187.83 252.927 187.216 254.882 187.216ZM273.66 193.974L278.827 202.464H273.772L270.197 196.627L267.544 198.833L266.818 202.464H262.461L266.595 181.742H270.951L268.633 193.332L275.838 187.439H281.508L273.66 193.974ZM296.116 193.834C296.116 194.523 296.032 195.287 295.865 196.124H284.359C284.508 198.172 285.802 199.196 288.241 199.196C289.004 199.196 289.73 199.075 290.419 198.833C291.127 198.591 291.741 198.247 292.262 197.8L294.078 200.677C293.24 201.347 292.281 201.849 291.201 202.185C290.121 202.52 288.985 202.687 287.794 202.687C286.249 202.687 284.889 202.417 283.717 201.877C282.562 201.319 281.669 200.528 281.036 199.504C280.421 198.48 280.114 197.297 280.114 195.957C280.114 194.3 280.486 192.81 281.231 191.488C281.994 190.148 283.046 189.105 284.387 188.361C285.727 187.597 287.254 187.216 288.967 187.216C290.419 187.216 291.676 187.486 292.737 188.026C293.817 188.565 294.645 189.338 295.223 190.343C295.818 191.349 296.116 192.512 296.116 193.834ZM288.771 190.483C287.747 190.483 286.882 190.762 286.174 191.321C285.467 191.861 284.964 192.615 284.666 193.583H292.123C292.123 192.615 291.815 191.861 291.201 191.321C290.605 190.762 289.795 190.483 288.771 190.483ZM316.752 181.742L312.619 202.464H308.486L308.793 200.956C307.527 202.11 305.991 202.687 304.185 202.687C303.012 202.687 301.932 202.417 300.946 201.877C299.959 201.337 299.168 200.565 298.572 199.559C297.995 198.535 297.706 197.335 297.706 195.957C297.706 194.3 298.069 192.81 298.795 191.488C299.54 190.148 300.545 189.105 301.811 188.361C303.077 187.597 304.474 187.216 306 187.216C307.099 187.216 308.058 187.402 308.877 187.774C309.715 188.147 310.376 188.696 310.86 189.422L312.396 181.742H316.752ZM305.526 199.085C306.382 199.085 307.145 198.88 307.816 198.47C308.486 198.042 309.007 197.456 309.38 196.711C309.752 195.966 309.938 195.11 309.938 194.142C309.938 193.118 309.631 192.308 309.017 191.712C308.421 191.116 307.583 190.818 306.503 190.818C305.647 190.818 304.883 191.032 304.213 191.461C303.543 191.87 303.022 192.447 302.649 193.192C302.277 193.937 302.091 194.793 302.091 195.761C302.091 196.785 302.389 197.595 302.984 198.191C303.599 198.787 304.446 199.085 305.526 199.085ZM319.668 187.439H323.996L321.008 202.464H316.679L319.668 187.439ZM322.572 185.345C321.827 185.345 321.213 185.13 320.729 184.702C320.263 184.255 320.031 183.715 320.031 183.082C320.031 182.338 320.291 181.723 320.813 181.239C321.352 180.737 322.051 180.485 322.907 180.485C323.67 180.485 324.285 180.699 324.75 181.128C325.234 181.537 325.476 182.049 325.476 182.664C325.476 183.464 325.206 184.116 324.666 184.618C324.127 185.102 323.428 185.345 322.572 185.345ZM336.781 187.216C338.457 187.216 339.788 187.662 340.775 188.556C341.762 189.431 342.255 190.688 342.255 192.326C342.255 192.941 342.19 193.546 342.06 194.142L340.384 202.464H336.027L337.647 194.421C337.722 194.104 337.759 193.76 337.759 193.388C337.759 192.606 337.545 192.01 337.117 191.6C336.688 191.191 336.046 190.986 335.19 190.986C334.072 190.986 333.142 191.312 332.397 191.963C331.671 192.596 331.177 193.555 330.917 194.84L329.409 202.464H325.052L328.04 187.439H332.173L331.838 189.059C333.179 187.83 334.827 187.216 336.781 187.216ZM348.355 192.661C347.61 192.661 346.995 192.429 346.511 191.963C346.027 191.479 345.785 190.874 345.785 190.148C345.785 189.292 346.065 188.593 346.623 188.053C347.182 187.514 347.871 187.244 348.69 187.244C349.434 187.244 350.04 187.476 350.505 187.942C350.989 188.407 351.231 189.012 351.231 189.757C351.231 190.595 350.943 191.293 350.365 191.852C349.807 192.391 349.137 192.661 348.355 192.661ZM346.344 202.687C345.599 202.687 344.985 202.455 344.501 201.989C344.017 201.505 343.775 200.9 343.775 200.174C343.775 199.317 344.054 198.619 344.612 198.079C345.171 197.539 345.86 197.269 346.679 197.269C347.424 197.269 348.029 197.502 348.494 197.968C348.978 198.433 349.22 199.038 349.22 199.783C349.22 200.621 348.932 201.319 348.355 201.877C347.796 202.417 347.126 202.687 346.344 202.687Z" fill="white"/>
<path d="M224.841 352.068H215.736L213.195 356.257H208.364L221.015 336.708H225.483L230.286 356.257H225.762L224.841 352.068ZM224.087 348.633L222.439 341.092L217.831 348.633H224.087ZM238.794 343.019C239.445 342.312 240.227 341.8 241.14 341.483C242.071 341.167 243.16 341.009 244.407 341.009L243.625 345.03C243.104 344.993 242.769 344.974 242.62 344.974C241.298 344.974 240.237 345.3 239.436 345.952C238.654 346.603 238.124 347.618 237.844 348.996L236.392 356.257H232.035L235.024 341.232H239.157L238.794 343.019ZM249.482 356.48C248.179 356.48 246.94 356.341 245.767 356.061C244.613 355.763 243.71 355.382 243.059 354.916L244.734 351.761C245.386 352.189 246.177 352.533 247.108 352.794C248.058 353.055 249.007 353.185 249.957 353.185C250.943 353.185 251.679 353.064 252.163 352.822C252.647 352.561 252.889 352.198 252.889 351.733C252.889 351.36 252.675 351.09 252.247 350.923C251.818 350.755 251.13 350.578 250.18 350.392C249.1 350.187 248.206 349.964 247.499 349.722C246.81 349.48 246.205 349.089 245.684 348.549C245.181 347.99 244.93 347.236 244.93 346.287C244.93 344.63 245.619 343.336 246.996 342.405C248.393 341.474 250.217 341.009 252.47 341.009C253.513 341.009 254.527 341.12 255.514 341.344C256.501 341.567 257.339 341.874 258.028 342.265L256.464 345.449C255.235 344.686 253.755 344.304 252.023 344.304C251.074 344.304 250.348 344.444 249.845 344.723C249.361 345.002 249.119 345.356 249.119 345.784C249.119 346.175 249.333 346.464 249.761 346.65C250.189 346.817 250.906 347.004 251.911 347.208C252.973 347.413 253.838 347.637 254.509 347.879C255.198 348.102 255.793 348.484 256.296 349.024C256.799 349.564 257.05 350.299 257.05 351.23C257.05 352.906 256.343 354.2 254.928 355.112C253.531 356.024 251.716 356.48 249.482 356.48ZM270.574 341.009C272.249 341.009 273.581 341.455 274.567 342.349C275.554 343.243 276.048 344.509 276.048 346.147C276.048 346.743 275.982 347.339 275.852 347.935L274.176 356.257H269.82L271.44 348.214C271.514 347.897 271.551 347.553 271.551 347.181C271.551 346.399 271.337 345.803 270.909 345.393C270.481 344.984 269.838 344.779 268.982 344.779C267.865 344.779 266.934 345.105 266.189 345.756C265.463 346.389 264.97 347.348 264.709 348.633L263.201 356.257H258.844L262.978 335.535H267.334L265.938 342.6C267.223 341.539 268.768 341.009 270.574 341.009ZM296.553 341.232L293.565 356.257H289.432L289.711 354.777C288.464 355.912 286.928 356.48 285.103 356.48C283.93 356.48 282.851 356.21 281.864 355.67C280.877 355.13 280.086 354.358 279.49 353.352C278.913 352.328 278.624 351.128 278.624 349.75C278.624 348.093 278.987 346.603 279.713 345.281C280.458 343.941 281.463 342.898 282.73 342.154C283.996 341.39 285.392 341.009 286.919 341.009C289.227 341.009 290.856 341.763 291.806 343.271L292.197 341.232H296.553ZM286.444 352.878C287.3 352.878 288.064 352.673 288.734 352.263C289.404 351.835 289.925 351.249 290.298 350.504C290.67 349.759 290.856 348.903 290.856 347.935C290.856 346.911 290.549 346.101 289.935 345.505C289.339 344.909 288.501 344.611 287.421 344.611C286.565 344.611 285.802 344.825 285.131 345.254C284.461 345.663 283.94 346.24 283.567 346.985C283.195 347.73 283.009 348.586 283.009 349.554C283.009 350.578 283.307 351.388 283.902 351.984C284.517 352.58 285.364 352.878 286.444 352.878ZM319.438 341.009C321.076 341.009 322.379 341.455 323.348 342.349C324.316 343.224 324.8 344.472 324.8 346.091C324.8 346.687 324.735 347.302 324.604 347.935L322.957 356.257H318.6L320.192 348.242C320.266 347.869 320.304 347.488 320.304 347.097C320.304 346.333 320.099 345.756 319.689 345.365C319.298 344.974 318.712 344.779 317.93 344.779C315.826 344.779 314.513 346.035 313.992 348.549L312.456 356.257H308.099L309.691 348.242C309.766 347.869 309.803 347.497 309.803 347.125C309.803 346.361 309.598 345.784 309.189 345.393C308.798 344.984 308.211 344.779 307.429 344.779C305.325 344.779 304.003 346.054 303.463 348.605L301.955 356.257H297.599L300.587 341.232H304.72L304.385 342.796C305.688 341.604 307.262 341.009 309.105 341.009C310.147 341.009 311.069 341.223 311.87 341.651C312.689 342.061 313.303 342.666 313.713 343.466C314.439 342.666 315.286 342.061 316.254 341.651C317.222 341.223 318.284 341.009 319.438 341.009ZM340.272 356.48C338.969 356.48 337.731 356.341 336.558 356.061C335.404 355.763 334.501 355.382 333.849 354.916L335.525 351.761C336.176 352.189 336.968 352.533 337.899 352.794C338.848 353.055 339.798 353.185 340.747 353.185C341.734 353.185 342.469 353.064 342.953 352.822C343.437 352.561 343.679 352.198 343.679 351.733C343.679 351.36 343.465 351.09 343.037 350.923C342.609 350.755 341.92 350.578 340.971 350.392C339.891 350.187 338.997 349.964 338.29 349.722C337.601 349.48 336.996 349.089 336.474 348.549C335.972 347.99 335.72 347.236 335.72 346.287C335.72 344.63 336.409 343.336 337.787 342.405C339.183 341.474 341.008 341.009 343.261 341.009C344.303 341.009 345.318 341.12 346.305 341.344C347.291 341.567 348.129 341.874 348.818 342.265L347.254 345.449C346.025 344.686 344.545 344.304 342.814 344.304C341.864 344.304 341.138 344.444 340.635 344.723C340.151 345.002 339.909 345.356 339.909 345.784C339.909 346.175 340.123 346.464 340.552 346.65C340.98 346.817 341.697 347.004 342.702 347.208C343.763 347.413 344.629 347.637 345.299 347.879C345.988 348.102 346.584 348.484 347.087 349.024C347.589 349.564 347.841 350.299 347.841 351.23C347.841 352.906 347.133 354.2 345.718 355.112C344.322 356.024 342.507 356.48 340.272 356.48ZM361.364 341.009C363.04 341.009 364.371 341.455 365.358 342.349C366.345 343.243 366.838 344.509 366.838 346.147C366.838 346.743 366.773 347.339 366.643 347.935L364.967 356.257H360.61L362.23 348.214C362.305 347.897 362.342 347.553 362.342 347.181C362.342 346.399 362.128 345.803 361.699 345.393C361.271 344.984 360.629 344.779 359.773 344.779C358.655 344.779 357.725 345.105 356.98 345.756C356.254 346.389 355.76 347.348 355.5 348.633L353.992 356.257H349.635L353.768 335.535H358.125L356.728 342.6C358.013 341.539 359.558 341.009 361.364 341.009ZM371.932 341.232H376.261L373.273 356.257H368.944L371.932 341.232ZM374.837 339.137C374.092 339.137 373.477 338.923 372.993 338.495C372.528 338.048 372.295 337.508 372.295 336.875C372.295 336.131 372.556 335.516 373.077 335.032C373.617 334.529 374.315 334.278 375.172 334.278C375.935 334.278 376.549 334.492 377.015 334.92C377.499 335.33 377.741 335.842 377.741 336.456C377.741 337.257 377.471 337.909 376.931 338.411C376.391 338.895 375.693 339.137 374.837 339.137ZM384.075 343.019C384.727 342.312 385.509 341.8 386.421 341.483C387.352 341.167 388.441 341.009 389.688 341.009L388.906 345.03C388.385 344.993 388.05 344.974 387.901 344.974C386.579 344.974 385.518 345.3 384.717 345.952C383.935 346.603 383.405 347.618 383.126 348.996L381.673 356.257H377.317L380.305 341.232H384.438L384.075 343.019ZM400.434 347.767L405.6 356.257H400.545L396.971 350.42L394.318 352.626L393.591 356.257H389.235L393.368 335.535H397.725L395.407 347.125L402.612 341.232H408.281L400.434 347.767ZM414.428 356.48C412.92 356.48 411.588 356.201 410.434 355.642C409.298 355.084 408.414 354.302 407.781 353.297C407.167 352.273 406.859 351.09 406.859 349.75C406.859 348.093 407.25 346.603 408.032 345.281C408.814 343.96 409.894 342.917 411.272 342.154C412.65 341.39 414.204 341.009 415.936 341.009C417.462 341.009 418.794 341.288 419.929 341.846C421.065 342.405 421.94 343.196 422.555 344.22C423.188 345.226 423.504 346.399 423.504 347.739C423.504 349.396 423.113 350.886 422.331 352.207C421.568 353.529 420.488 354.572 419.092 355.335C417.714 356.099 416.159 356.48 414.428 356.48ZM414.707 352.878C415.545 352.878 416.299 352.673 416.969 352.263C417.639 351.835 418.161 351.249 418.533 350.504C418.905 349.759 419.092 348.903 419.092 347.935C419.092 346.911 418.794 346.101 418.198 345.505C417.602 344.909 416.764 344.611 415.684 344.611C414.828 344.611 414.065 344.825 413.394 345.254C412.724 345.663 412.203 346.24 411.83 346.985C411.458 347.73 411.272 348.586 411.272 349.554C411.272 350.578 411.57 351.388 412.166 351.984C412.78 352.58 413.627 352.878 414.707 352.878ZM442.978 341.232L439.989 356.257H435.856L436.163 354.637C435.512 355.251 434.767 355.717 433.929 356.033C433.091 356.331 432.207 356.48 431.276 356.48C429.638 356.48 428.325 356.033 427.338 355.14C426.37 354.246 425.886 352.989 425.886 351.37C425.886 350.755 425.951 350.15 426.082 349.554L427.729 341.232H432.086L430.494 349.275C430.42 349.629 430.382 349.992 430.382 350.364C430.382 351.928 431.22 352.71 432.896 352.71C433.994 352.71 434.897 352.394 435.605 351.761C436.331 351.109 436.824 350.141 437.085 348.856L438.621 341.232H442.978ZM455.755 341.009C457.431 341.009 458.762 341.455 459.748 342.349C460.735 343.243 461.229 344.509 461.229 346.147C461.229 346.743 461.163 347.339 461.033 347.935L459.358 356.257H455.001L456.621 348.214C456.695 347.897 456.732 347.553 456.732 347.181C456.732 346.399 456.518 345.803 456.09 345.393C455.662 344.984 455.019 344.779 454.163 344.779C453.046 344.779 452.115 345.105 451.37 345.756C450.644 346.389 450.151 347.348 449.89 348.633L448.382 356.257H444.025L448.159 335.535H452.515L451.119 342.6C452.404 341.539 453.949 341.009 455.755 341.009ZM466.323 341.232H470.651L467.663 356.257H463.335L466.323 341.232ZM469.227 339.137C468.482 339.137 467.868 338.923 467.384 338.495C466.918 338.048 466.686 337.508 466.686 336.875C466.686 336.131 466.946 335.516 467.468 335.032C468.008 334.529 468.706 334.278 469.562 334.278C470.326 334.278 470.94 334.492 471.405 334.92C471.89 335.33 472.132 335.842 472.132 336.456C472.132 337.257 471.862 337.909 471.322 338.411C470.782 338.895 470.084 339.137 469.227 339.137Z" fill="white"/>
<path d="M219.861 305.385L218.827 310.552H227.904L227.15 314.182H218.129L216.705 321.304H212.153L216.062 301.755H230.836L230.082 305.385H219.861ZM247.564 306.279L244.576 321.304H240.443L240.722 319.824C239.475 320.959 237.939 321.527 236.114 321.527C234.941 321.527 233.861 321.257 232.875 320.717C231.888 320.177 231.097 319.405 230.501 318.399C229.924 317.375 229.635 316.174 229.635 314.797C229.635 313.14 229.998 311.65 230.724 310.328C231.469 308.988 232.474 307.945 233.74 307.2C235.006 306.437 236.403 306.055 237.929 306.055C240.238 306.055 241.867 306.81 242.817 308.318L243.208 306.279H247.564ZM237.455 317.925C238.311 317.925 239.074 317.72 239.745 317.31C240.415 316.882 240.936 316.295 241.309 315.551C241.681 314.806 241.867 313.95 241.867 312.981C241.867 311.957 241.56 311.148 240.946 310.552C240.35 309.956 239.512 309.658 238.432 309.658C237.576 309.658 236.812 309.872 236.142 310.3C235.472 310.71 234.951 311.287 234.578 312.032C234.206 312.777 234.02 313.633 234.02 314.601C234.02 315.625 234.318 316.435 234.913 317.031C235.528 317.627 236.375 317.925 237.455 317.925ZM256.541 321.527C254.996 321.527 253.646 321.248 252.491 320.689C251.337 320.131 250.443 319.349 249.81 318.343C249.196 317.319 248.889 316.137 248.889 314.797C248.889 313.14 249.28 311.65 250.062 310.328C250.844 309.006 251.933 307.964 253.329 307.2C254.726 306.437 256.299 306.055 258.049 306.055C259.65 306.055 261.028 306.391 262.182 307.061C263.355 307.712 264.23 308.643 264.807 309.854L261.121 311.697C260.469 310.338 259.352 309.658 257.77 309.658C256.913 309.658 256.141 309.872 255.452 310.3C254.782 310.71 254.251 311.287 253.86 312.032C253.488 312.777 253.301 313.624 253.301 314.573C253.301 315.597 253.609 316.416 254.223 317.031C254.837 317.627 255.694 317.925 256.792 317.925C258.393 317.925 259.622 317.254 260.479 315.914L263.69 317.925C262.964 319.06 261.968 319.945 260.702 320.578C259.455 321.211 258.068 321.527 256.541 321.527ZM281.228 312.674C281.228 313.363 281.144 314.126 280.977 314.964H269.471C269.62 317.012 270.914 318.036 273.353 318.036C274.116 318.036 274.842 317.915 275.531 317.673C276.238 317.431 276.853 317.087 277.374 316.64L279.189 319.516C278.352 320.187 277.393 320.689 276.313 321.024C275.233 321.36 274.097 321.527 272.906 321.527C271.361 321.527 270.001 321.257 268.828 320.717C267.674 320.159 266.78 319.367 266.147 318.343C265.533 317.319 265.226 316.137 265.226 314.797C265.226 313.14 265.598 311.65 266.343 310.328C267.106 308.988 268.158 307.945 269.499 307.2C270.839 306.437 272.366 306.055 274.079 306.055C275.531 306.055 276.788 306.325 277.849 306.865C278.929 307.405 279.757 308.178 280.334 309.183C280.93 310.189 281.228 311.352 281.228 312.674ZM273.883 309.323C272.859 309.323 271.994 309.602 271.286 310.161C270.579 310.701 270.076 311.455 269.778 312.423H277.235C277.235 311.455 276.927 310.701 276.313 310.161C275.717 309.602 274.907 309.323 273.883 309.323ZM293.877 306.055C295.05 306.055 296.13 306.325 297.117 306.865C298.122 307.405 298.913 308.187 299.491 309.211C300.086 310.217 300.384 311.408 300.384 312.786C300.384 314.443 300.012 315.942 299.267 317.282C298.541 318.604 297.545 319.647 296.279 320.41C295.013 321.155 293.607 321.527 292.062 321.527C290.889 321.527 289.874 321.322 289.018 320.913C288.161 320.503 287.5 319.889 287.035 319.07L286.588 321.304H282.455L286.588 300.582H290.945L289.548 307.564C290.759 306.558 292.202 306.055 293.877 306.055ZM291.559 317.925C292.416 317.925 293.179 317.72 293.849 317.31C294.519 316.882 295.041 316.295 295.413 315.551C295.786 314.806 295.972 313.95 295.972 312.981C295.972 311.957 295.664 311.148 295.05 310.552C294.454 309.956 293.616 309.658 292.537 309.658C291.699 309.658 290.945 309.872 290.275 310.3C289.604 310.71 289.083 311.287 288.711 312.032C288.338 312.777 288.152 313.633 288.152 314.601C288.152 315.625 288.45 316.435 289.046 317.031C289.642 317.627 290.479 317.925 291.559 317.925ZM309.584 321.527C308.076 321.527 306.745 321.248 305.591 320.689C304.455 320.131 303.571 319.349 302.938 318.343C302.323 317.319 302.016 316.137 302.016 314.797C302.016 313.14 302.407 311.65 303.189 310.328C303.971 309.006 305.051 307.964 306.428 307.2C307.806 306.437 309.361 306.055 311.092 306.055C312.619 306.055 313.95 306.335 315.086 306.893C316.222 307.452 317.097 308.243 317.711 309.267C318.344 310.272 318.661 311.445 318.661 312.786C318.661 314.443 318.27 315.932 317.488 317.254C316.724 318.576 315.644 319.619 314.248 320.382C312.87 321.145 311.316 321.527 309.584 321.527ZM309.863 317.925C310.701 317.925 311.455 317.72 312.126 317.31C312.796 316.882 313.317 316.295 313.69 315.551C314.062 314.806 314.248 313.95 314.248 312.981C314.248 311.957 313.95 311.148 313.354 310.552C312.759 309.956 311.921 309.658 310.841 309.658C309.985 309.658 309.221 309.872 308.551 310.3C307.881 310.71 307.359 311.287 306.987 312.032C306.615 312.777 306.428 313.633 306.428 314.601C306.428 315.625 306.726 316.435 307.322 317.031C307.937 317.627 308.784 317.925 309.863 317.925ZM327.857 321.527C326.349 321.527 325.018 321.248 323.863 320.689C322.728 320.131 321.843 319.349 321.21 318.343C320.596 317.319 320.289 316.137 320.289 314.797C320.289 313.14 320.68 311.65 321.462 310.328C322.244 309.006 323.323 307.964 324.701 307.2C326.079 306.437 327.633 306.055 329.365 306.055C330.892 306.055 332.223 306.335 333.359 306.893C334.494 307.452 335.369 308.243 335.984 309.267C336.617 310.272 336.933 311.445 336.933 312.786C336.933 314.443 336.542 315.932 335.76 317.254C334.997 318.576 333.917 319.619 332.521 320.382C331.143 321.145 329.588 321.527 327.857 321.527ZM328.136 317.925C328.974 317.925 329.728 317.72 330.398 317.31C331.068 316.882 331.59 316.295 331.962 315.551C332.335 314.806 332.521 313.95 332.521 312.981C332.521 311.957 332.223 311.148 331.627 310.552C331.031 309.956 330.193 309.658 329.114 309.658C328.257 309.658 327.494 309.872 326.824 310.3C326.153 310.71 325.632 311.287 325.26 312.032C324.887 312.777 324.701 313.633 324.701 314.601C324.701 315.625 324.999 316.435 325.595 317.031C326.209 317.627 327.056 317.925 328.136 317.925ZM349.481 312.814L354.647 321.304H349.592L346.018 315.467L343.365 317.673L342.639 321.304H338.282L342.415 300.582H346.772L344.454 312.172L351.659 306.279H357.328L349.481 312.814ZM360.276 311.501C359.531 311.501 358.916 311.269 358.432 310.803C357.948 310.319 357.706 309.714 357.706 308.988C357.706 308.131 357.985 307.433 358.544 306.893C359.103 306.353 359.791 306.083 360.611 306.083C361.355 306.083 361.96 306.316 362.426 306.782C362.91 307.247 363.152 307.852 363.152 308.597C363.152 309.435 362.863 310.133 362.286 310.691C361.728 311.231 361.057 311.501 360.276 311.501ZM358.265 321.527C357.52 321.527 356.906 321.294 356.422 320.829C355.937 320.345 355.695 319.74 355.695 319.014C355.695 318.157 355.975 317.459 356.533 316.919C357.092 316.379 357.781 316.109 358.6 316.109C359.345 316.109 359.95 316.342 360.415 316.807C360.899 317.273 361.141 317.878 361.141 318.623C361.141 319.461 360.853 320.159 360.276 320.717C359.717 321.257 359.047 321.527 358.265 321.527Z" fill="white"/>
<path d="M227.492 460.072L224.503 475.097H220.37L220.65 473.617C219.402 474.753 217.866 475.321 216.042 475.321C214.869 475.321 213.789 475.051 212.802 474.511C211.815 473.971 211.024 473.198 210.428 472.193C209.851 471.169 209.562 469.968 209.562 468.59C209.562 466.933 209.925 465.444 210.652 464.122C211.396 462.781 212.402 461.739 213.668 460.994C214.934 460.231 216.33 459.849 217.857 459.849C220.165 459.849 221.795 460.603 222.744 462.111L223.135 460.072H227.492ZM217.382 471.718C218.238 471.718 219.002 471.513 219.672 471.104C220.342 470.675 220.864 470.089 221.236 469.344C221.608 468.599 221.795 467.743 221.795 466.775C221.795 465.751 221.487 464.941 220.873 464.345C220.277 463.749 219.439 463.452 218.359 463.452C217.503 463.452 216.74 463.666 216.069 464.094C215.399 464.503 214.878 465.081 214.506 465.825C214.133 466.57 213.947 467.427 213.947 468.395C213.947 469.419 214.245 470.229 214.841 470.824C215.455 471.42 216.302 471.718 217.382 471.718ZM235.295 461.86C235.947 461.152 236.729 460.64 237.641 460.324C238.572 460.007 239.661 459.849 240.909 459.849L240.127 463.87C239.605 463.833 239.27 463.815 239.121 463.815C237.799 463.815 236.738 464.14 235.938 464.792C235.156 465.444 234.625 466.458 234.346 467.836L232.894 475.097H228.537L231.525 460.072H235.658L235.295 461.86ZM245.983 475.321C244.68 475.321 243.442 475.181 242.269 474.902C241.115 474.604 240.212 474.222 239.56 473.757L241.236 470.601C241.887 471.029 242.679 471.374 243.61 471.634C244.559 471.895 245.509 472.025 246.458 472.025C247.445 472.025 248.18 471.904 248.664 471.662C249.148 471.401 249.39 471.038 249.39 470.573C249.39 470.201 249.176 469.931 248.748 469.763C248.32 469.596 247.631 469.419 246.682 469.232C245.602 469.028 244.708 468.804 244.001 468.562C243.312 468.32 242.707 467.929 242.185 467.389C241.683 466.831 241.431 466.077 241.431 465.127C241.431 463.47 242.12 462.176 243.498 461.245C244.894 460.314 246.719 459.849 248.972 459.849C250.014 459.849 251.029 459.961 252.016 460.184C253.002 460.407 253.84 460.715 254.529 461.106L252.965 464.289C251.736 463.526 250.256 463.144 248.525 463.144C247.575 463.144 246.849 463.284 246.346 463.563C245.862 463.843 245.62 464.196 245.62 464.624C245.62 465.015 245.834 465.304 246.263 465.49C246.691 465.658 247.408 465.844 248.413 466.049C249.474 466.254 250.34 466.477 251.01 466.719C251.699 466.942 252.295 467.324 252.798 467.864C253.3 468.404 253.552 469.139 253.552 470.07C253.552 471.746 252.844 473.04 251.429 473.952C250.033 474.864 248.218 475.321 245.983 475.321ZM267.075 459.849C268.751 459.849 270.082 460.296 271.069 461.189C272.056 462.083 272.549 463.349 272.549 464.988C272.549 465.583 272.484 466.179 272.354 466.775L270.678 475.097H266.321L267.941 467.054C268.016 466.738 268.053 466.393 268.053 466.021C268.053 465.239 267.839 464.643 267.41 464.233C266.982 463.824 266.34 463.619 265.484 463.619C264.366 463.619 263.436 463.945 262.691 464.597C261.965 465.23 261.471 466.188 261.211 467.473L259.703 475.097H255.346L259.479 454.375H263.836L262.439 461.441C263.724 460.38 265.269 459.849 267.075 459.849ZM293.055 460.072L290.067 475.097H285.934L286.213 473.617C284.965 474.753 283.429 475.321 281.605 475.321C280.432 475.321 279.352 475.051 278.365 474.511C277.379 473.971 276.587 473.198 275.992 472.193C275.414 471.169 275.126 469.968 275.126 468.59C275.126 466.933 275.489 465.444 276.215 464.122C276.96 462.781 277.965 461.739 279.231 460.994C280.497 460.231 281.893 459.849 283.42 459.849C285.729 459.849 287.358 460.603 288.307 462.111L288.698 460.072H293.055ZM282.945 471.718C283.802 471.718 284.565 471.513 285.235 471.104C285.906 470.675 286.427 470.089 286.799 469.344C287.172 468.599 287.358 467.743 287.358 466.775C287.358 465.751 287.051 464.941 286.436 464.345C285.841 463.749 285.003 463.452 283.923 463.452C283.066 463.452 282.303 463.666 281.633 464.094C280.963 464.503 280.441 465.081 280.069 465.825C279.697 466.57 279.51 467.427 279.51 468.395C279.51 469.419 279.808 470.229 280.404 470.824C281.018 471.42 281.866 471.718 282.945 471.718ZM315.939 459.849C317.578 459.849 318.881 460.296 319.849 461.189C320.817 462.064 321.301 463.312 321.301 464.932C321.301 465.527 321.236 466.142 321.106 466.775L319.458 475.097H315.102L316.693 467.082C316.768 466.71 316.805 466.328 316.805 465.937C316.805 465.174 316.6 464.597 316.191 464.206C315.8 463.815 315.213 463.619 314.431 463.619C312.327 463.619 311.015 464.876 310.494 467.389L308.958 475.097H304.601L306.193 467.082C306.267 466.71 306.305 466.337 306.305 465.965C306.305 465.202 306.1 464.624 305.69 464.233C305.299 463.824 304.713 463.619 303.931 463.619C301.827 463.619 300.505 464.894 299.965 467.445L298.457 475.097H294.1L297.089 460.072H301.222L300.887 461.636C302.19 460.445 303.763 459.849 305.606 459.849C306.649 459.849 307.571 460.063 308.371 460.491C309.19 460.901 309.805 461.506 310.214 462.307C310.94 461.506 311.788 460.901 312.756 460.491C313.724 460.063 314.785 459.849 315.939 459.849ZM321.352 475.097H335.316L334.813 477.611H320.85L321.352 475.097ZM343.101 475.321C341.798 475.321 340.56 475.181 339.387 474.902C338.233 474.604 337.33 474.222 336.678 473.757L338.354 470.601C339.005 471.029 339.796 471.374 340.727 471.634C341.677 471.895 342.626 472.025 343.576 472.025C344.563 472.025 345.298 471.904 345.782 471.662C346.266 471.401 346.508 471.038 346.508 470.573C346.508 470.201 346.294 469.931 345.866 469.763C345.438 469.596 344.749 469.419 343.799 469.232C342.72 469.028 341.826 468.804 341.118 468.562C340.429 468.32 339.824 467.929 339.303 467.389C338.8 466.831 338.549 466.077 338.549 465.127C338.549 463.47 339.238 462.176 340.616 461.245C342.012 460.314 343.837 459.849 346.089 459.849C347.132 459.849 348.147 459.961 349.133 460.184C350.12 460.407 350.958 460.715 351.647 461.106L350.083 464.289C348.854 463.526 347.374 463.144 345.643 463.144C344.693 463.144 343.967 463.284 343.464 463.563C342.98 463.843 342.738 464.196 342.738 464.624C342.738 465.015 342.952 465.304 343.38 465.49C343.809 465.658 344.525 465.844 345.531 466.049C346.592 466.254 347.458 466.477 348.128 466.719C348.817 466.942 349.413 467.324 349.915 467.864C350.418 468.404 350.669 469.139 350.669 470.07C350.669 471.746 349.962 473.04 348.547 473.952C347.151 474.864 345.335 475.321 343.101 475.321ZM364.193 459.849C365.869 459.849 367.2 460.296 368.187 461.189C369.174 462.083 369.667 463.349 369.667 464.988C369.667 465.583 369.602 466.179 369.471 466.775L367.796 475.097H363.439L365.059 467.054C365.133 466.738 365.171 466.393 365.171 466.021C365.171 465.239 364.957 464.643 364.528 464.233C364.1 463.824 363.458 463.619 362.601 463.619C361.484 463.619 360.553 463.945 359.809 464.597C359.083 465.23 358.589 466.188 358.328 467.473L356.82 475.097H352.464L356.597 454.375H360.954L359.557 461.441C360.842 460.38 362.387 459.849 364.193 459.849ZM374.761 460.072H379.09L376.101 475.097H371.773L374.761 460.072ZM377.665 457.978C376.921 457.978 376.306 457.764 375.822 457.335C375.357 456.889 375.124 456.349 375.124 455.716C375.124 454.971 375.385 454.357 375.906 453.873C376.446 453.37 377.144 453.118 378.001 453.118C378.764 453.118 379.378 453.333 379.844 453.761C380.328 454.17 380.57 454.682 380.57 455.297C380.57 456.097 380.3 456.749 379.76 457.252C379.22 457.736 378.522 457.978 377.665 457.978ZM386.904 461.86C387.555 461.152 388.337 460.64 389.25 460.324C390.181 460.007 391.27 459.849 392.517 459.849L391.735 463.87C391.214 463.833 390.879 463.815 390.73 463.815C389.408 463.815 388.347 464.14 387.546 464.792C386.764 465.444 386.234 466.458 385.954 467.836L384.502 475.097H380.145L383.134 460.072H387.267L386.904 461.86ZM403.262 466.607L408.429 475.097H403.374L399.799 469.26L397.146 471.467L396.42 475.097H392.064L396.197 454.375H400.553L398.236 465.965L405.441 460.072H411.11L403.262 466.607ZM417.257 475.321C415.748 475.321 414.417 475.041 413.263 474.483C412.127 473.924 411.243 473.142 410.61 472.137C409.995 471.113 409.688 469.931 409.688 468.59C409.688 466.933 410.079 465.444 410.861 464.122C411.643 462.8 412.723 461.757 414.101 460.994C415.479 460.231 417.033 459.849 418.765 459.849C420.291 459.849 421.622 460.128 422.758 460.687C423.894 461.245 424.769 462.037 425.383 463.061C426.016 464.066 426.333 465.239 426.333 466.579C426.333 468.236 425.942 469.726 425.16 471.048C424.397 472.37 423.317 473.412 421.92 474.176C420.543 474.939 418.988 475.321 417.257 475.321ZM417.536 471.718C418.374 471.718 419.128 471.513 419.798 471.104C420.468 470.675 420.989 470.089 421.362 469.344C421.734 468.599 421.92 467.743 421.92 466.775C421.92 465.751 421.622 464.941 421.027 464.345C420.431 463.749 419.593 463.452 418.513 463.452C417.657 463.452 416.893 463.666 416.223 464.094C415.553 464.503 415.032 465.081 414.659 465.825C414.287 466.57 414.101 467.427 414.101 468.395C414.101 469.419 414.399 470.229 414.994 470.824C415.609 471.42 416.456 471.718 417.536 471.718ZM445.806 460.072L442.818 475.097H438.685L438.992 473.477C438.341 474.092 437.596 474.557 436.758 474.874C435.92 475.172 435.036 475.321 434.105 475.321C432.467 475.321 431.154 474.874 430.167 473.98C429.199 473.086 428.715 471.83 428.715 470.21C428.715 469.596 428.78 468.99 428.91 468.395L430.558 460.072H434.915L433.323 468.115C433.248 468.469 433.211 468.832 433.211 469.205C433.211 470.768 434.049 471.55 435.725 471.55C436.823 471.55 437.726 471.234 438.434 470.601C439.16 469.949 439.653 468.981 439.914 467.696L441.45 460.072H445.806ZM458.584 459.849C460.259 459.849 461.591 460.296 462.577 461.189C463.564 462.083 464.057 463.349 464.057 464.988C464.057 465.583 463.992 466.179 463.862 466.775L462.186 475.097H457.83L459.449 467.054C459.524 466.738 459.561 466.393 459.561 466.021C459.561 465.239 459.347 464.643 458.919 464.233C458.491 463.824 457.848 463.619 456.992 463.619C455.875 463.619 454.944 463.945 454.199 464.597C453.473 465.23 452.98 466.188 452.719 467.473L451.211 475.097H446.854L450.988 454.375H455.344L453.948 461.441C455.232 460.38 456.778 459.849 458.584 459.849ZM469.152 460.072H473.48L470.492 475.097H466.163L469.152 460.072ZM472.056 457.978C471.311 457.978 470.697 457.764 470.213 457.335C469.747 456.889 469.515 456.349 469.515 455.716C469.515 454.971 469.775 454.357 470.297 453.873C470.836 453.37 471.535 453.118 472.391 453.118C473.154 453.118 473.769 453.333 474.234 453.761C474.718 454.17 474.96 454.682 474.96 455.297C474.96 456.097 474.69 456.749 474.151 457.252C473.611 457.736 472.912 457.978 472.056 457.978Z" fill="white"/>
<path d="M214.664 420.595H219.216L215.306 440.144H210.754L214.664 420.595ZM231.368 424.896C233.044 424.896 234.375 425.343 235.362 426.236C236.348 427.111 236.842 428.368 236.842 430.006C236.842 430.621 236.777 431.226 236.646 431.822L234.971 440.144H230.614L232.234 432.101C232.308 431.785 232.345 431.44 232.345 431.068C232.345 430.286 232.131 429.69 231.703 429.28C231.275 428.871 230.633 428.666 229.776 428.666C228.659 428.666 227.728 428.992 226.983 429.643C226.257 430.276 225.764 431.235 225.503 432.52L223.995 440.144H219.639L222.627 425.119H226.76L226.425 426.739C227.765 425.51 229.413 424.896 231.368 424.896ZM244.421 440.367C243.118 440.367 241.88 440.228 240.707 439.949C239.553 439.651 238.65 439.269 237.998 438.804L239.674 435.648C240.325 436.076 241.117 436.42 242.047 436.681C242.997 436.942 243.947 437.072 244.896 437.072C245.883 437.072 246.618 436.951 247.102 436.709C247.586 436.448 247.828 436.085 247.828 435.62C247.828 435.247 247.614 434.978 247.186 434.81C246.758 434.642 246.069 434.466 245.119 434.279C244.04 434.075 243.146 433.851 242.438 433.609C241.75 433.367 241.145 432.976 240.623 432.436C240.121 431.878 239.869 431.124 239.869 430.174C239.869 428.517 240.558 427.223 241.936 426.292C243.332 425.361 245.157 424.896 247.41 424.896C248.452 424.896 249.467 425.008 250.454 425.231C251.44 425.454 252.278 425.762 252.967 426.153L251.403 429.336C250.174 428.573 248.694 428.191 246.963 428.191C246.013 428.191 245.287 428.331 244.784 428.61C244.3 428.889 244.058 429.243 244.058 429.671C244.058 430.062 244.272 430.351 244.701 430.537C245.129 430.705 245.846 430.891 246.851 431.096C247.912 431.3 248.778 431.524 249.448 431.766C250.137 431.989 250.733 432.371 251.236 432.911C251.738 433.451 251.99 434.186 251.99 435.117C251.99 436.793 251.282 438.087 249.867 438.999C248.471 439.911 246.655 440.367 244.421 440.367ZM259.704 434.838C259.667 434.987 259.649 435.192 259.649 435.452C259.649 436.42 260.179 436.904 261.24 436.904C261.818 436.904 262.404 436.728 263 436.374L263.642 439.474C262.674 440.07 261.427 440.367 259.9 440.367C258.485 440.367 257.349 439.995 256.493 439.25C255.636 438.506 255.208 437.482 255.208 436.178C255.208 435.806 255.255 435.368 255.348 434.866L256.549 428.806H254.231L254.901 425.454H257.219L257.945 421.796H262.302L261.576 425.454H265.318L264.648 428.806H260.905L259.704 434.838ZM283.693 425.119L280.705 440.144H276.572L276.851 438.664C275.603 439.8 274.067 440.367 272.243 440.367C271.07 440.367 269.99 440.097 269.003 439.558C268.017 439.018 267.225 438.245 266.629 437.24C266.052 436.216 265.764 435.015 265.764 433.637C265.764 431.98 266.127 430.491 266.853 429.169C267.598 427.828 268.603 426.786 269.869 426.041C271.135 425.277 272.531 424.896 274.058 424.896C276.367 424.896 277.996 425.65 278.945 427.158L279.336 425.119H283.693ZM273.583 436.765C274.44 436.765 275.203 436.56 275.873 436.15C276.544 435.722 277.065 435.136 277.437 434.391C277.81 433.646 277.996 432.79 277.996 431.822C277.996 430.798 277.689 429.988 277.074 429.392C276.478 428.796 275.641 428.498 274.561 428.498C273.704 428.498 272.941 428.713 272.271 429.141C271.601 429.55 271.079 430.127 270.707 430.872C270.335 431.617 270.148 432.473 270.148 433.442C270.148 434.466 270.446 435.275 271.042 435.871C271.656 436.467 272.504 436.765 273.583 436.765ZM303.226 425.119L300.741 437.631C300.182 440.461 299.102 442.527 297.501 443.83C295.918 445.134 293.796 445.785 291.134 445.785C289.681 445.785 288.341 445.618 287.112 445.283C285.902 444.948 284.859 444.454 283.984 443.803L286.051 440.647C286.647 441.149 287.41 441.54 288.341 441.82C289.29 442.118 290.287 442.267 291.329 442.267C292.8 442.267 293.917 441.941 294.68 441.289C295.444 440.656 295.965 439.688 296.244 438.385L296.356 437.742C295.146 438.859 293.619 439.418 291.776 439.418C290.529 439.418 289.402 439.167 288.397 438.664C287.391 438.143 286.591 437.407 285.995 436.458C285.418 435.508 285.129 434.391 285.129 433.106C285.129 431.58 285.492 430.193 286.218 428.945C286.945 427.698 287.941 426.711 289.207 425.985C290.491 425.259 291.925 424.896 293.507 424.896C294.68 424.896 295.704 425.119 296.579 425.566C297.473 425.994 298.143 426.665 298.59 427.577L299.065 425.119H303.226ZM292.949 435.843C294.215 435.843 295.258 435.434 296.077 434.614C296.896 433.795 297.306 432.743 297.306 431.459C297.306 430.546 297.008 429.83 296.412 429.308C295.816 428.768 294.988 428.498 293.926 428.498C292.642 428.498 291.58 428.908 290.743 429.727C289.923 430.546 289.514 431.598 289.514 432.883C289.514 433.795 289.821 434.521 290.435 435.061C291.05 435.583 291.888 435.843 292.949 435.843ZM311.051 426.907C311.703 426.199 312.485 425.687 313.397 425.371C314.328 425.054 315.417 424.896 316.665 424.896L315.883 428.917C315.361 428.88 315.026 428.861 314.877 428.861C313.555 428.861 312.494 429.187 311.693 429.839C310.912 430.491 310.381 431.505 310.102 432.883L308.649 440.144H304.293L307.281 425.119H311.414L311.051 426.907ZM334.311 425.119L331.323 440.144H327.19L327.469 438.664C326.221 439.8 324.685 440.367 322.861 440.367C321.688 440.367 320.608 440.097 319.621 439.558C318.635 439.018 317.843 438.245 317.247 437.24C316.67 436.216 316.382 435.015 316.382 433.637C316.382 431.98 316.745 430.491 317.471 429.169C318.216 427.828 319.221 426.786 320.487 426.041C321.753 425.277 323.149 424.896 324.676 424.896C326.985 424.896 328.614 425.65 329.563 427.158L329.954 425.119H334.311ZM324.201 436.765C325.058 436.765 325.821 436.56 326.491 436.15C327.162 435.722 327.683 435.136 328.055 434.391C328.428 433.646 328.614 432.79 328.614 431.822C328.614 430.798 328.307 429.988 327.692 429.392C327.096 428.796 326.259 428.498 325.179 428.498C324.322 428.498 323.559 428.713 322.889 429.141C322.219 429.55 321.697 430.127 321.325 430.872C320.952 431.617 320.766 432.473 320.766 433.442C320.766 434.466 321.064 435.275 321.66 435.871C322.274 436.467 323.122 436.765 324.201 436.765ZM357.195 424.896C358.834 424.896 360.137 425.343 361.105 426.236C362.073 427.111 362.557 428.359 362.557 429.979C362.557 430.574 362.492 431.189 362.362 431.822L360.714 440.144H356.358L357.949 432.129C358.024 431.757 358.061 431.375 358.061 430.984C358.061 430.221 357.856 429.643 357.447 429.252C357.056 428.861 356.469 428.666 355.687 428.666C353.583 428.666 352.271 429.923 351.75 432.436L350.214 440.144H345.857L347.449 432.129C347.523 431.757 347.56 431.384 347.56 431.012C347.56 430.249 347.356 429.671 346.946 429.28C346.555 428.871 345.969 428.666 345.187 428.666C343.083 428.666 341.761 429.941 341.221 432.492L339.713 440.144H335.356L338.344 425.119H342.478L342.143 426.683C343.446 425.492 345.019 424.896 346.862 424.896C347.905 424.896 348.826 425.11 349.627 425.538C350.446 425.948 351.061 426.553 351.47 427.353C352.196 426.553 353.043 425.948 354.012 425.538C354.98 425.11 356.041 424.896 357.195 424.896ZM368.641 430.342C367.896 430.342 367.282 430.109 366.797 429.643C366.313 429.159 366.071 428.554 366.071 427.828C366.071 426.972 366.351 426.274 366.909 425.734C367.468 425.194 368.157 424.924 368.976 424.924C369.721 424.924 370.326 425.156 370.791 425.622C371.275 426.087 371.517 426.692 371.517 427.437C371.517 428.275 371.229 428.973 370.651 429.532C370.093 430.072 369.423 430.342 368.641 430.342ZM366.63 440.367C365.885 440.367 365.271 440.135 364.787 439.669C364.303 439.185 364.061 438.58 364.061 437.854C364.061 436.998 364.34 436.299 364.898 435.759C365.457 435.22 366.146 434.95 366.965 434.95C367.71 434.95 368.315 435.182 368.78 435.648C369.264 436.113 369.506 436.718 369.506 437.463C369.506 438.301 369.218 438.999 368.641 439.558C368.082 440.097 367.412 440.367 366.63 440.367Z" fill="white"/>
<path d="M218.404 578.912L215.416 593.937H211.282L211.562 592.457C210.314 593.593 208.778 594.16 206.954 594.16C205.781 594.16 204.701 593.89 203.714 593.351C202.727 592.811 201.936 592.038 201.34 591.033C200.763 590.009 200.475 588.808 200.475 587.43C200.475 585.773 200.838 584.284 201.564 582.962C202.308 581.621 203.314 580.579 204.58 579.834C205.846 579.07 207.242 578.689 208.769 578.689C211.078 578.689 212.707 579.443 213.656 580.951L214.047 578.912H218.404ZM208.294 590.558C209.151 590.558 209.914 590.353 210.584 589.943C211.254 589.515 211.776 588.929 212.148 588.184C212.52 587.439 212.707 586.583 212.707 585.615C212.707 584.591 212.399 583.781 211.785 583.185C211.189 582.589 210.351 582.291 209.272 582.291C208.415 582.291 207.652 582.505 206.982 582.934C206.311 583.343 205.79 583.92 205.418 584.665C205.045 585.41 204.859 586.266 204.859 587.234C204.859 588.258 205.157 589.068 205.753 589.664C206.367 590.26 207.214 590.558 208.294 590.558ZM226.207 580.7C226.859 579.992 227.641 579.48 228.553 579.164C229.484 578.847 230.573 578.689 231.821 578.689L231.039 582.71C230.518 582.673 230.182 582.654 230.033 582.654C228.712 582.654 227.65 582.98 226.85 583.632C226.068 584.284 225.537 585.298 225.258 586.676L223.806 593.937H219.449L222.437 578.912H226.571L226.207 580.7ZM236.895 594.16C235.592 594.16 234.354 594.021 233.181 593.742C232.027 593.444 231.124 593.062 230.472 592.597L232.148 589.441C232.8 589.869 233.591 590.213 234.522 590.474C235.471 590.735 236.421 590.865 237.37 590.865C238.357 590.865 239.092 590.744 239.576 590.502C240.061 590.241 240.303 589.878 240.303 589.413C240.303 589.04 240.088 588.77 239.66 588.603C239.232 588.435 238.543 588.258 237.594 588.072C236.514 587.868 235.62 587.644 234.913 587.402C234.224 587.16 233.619 586.769 233.097 586.229C232.595 585.671 232.343 584.917 232.343 583.967C232.343 582.31 233.032 581.016 234.41 580.085C235.806 579.154 237.631 578.689 239.884 578.689C240.926 578.689 241.941 578.8 242.928 579.024C243.915 579.247 244.752 579.555 245.441 579.946L243.877 583.129C242.648 582.366 241.168 581.984 239.437 581.984C238.487 581.984 237.761 582.124 237.259 582.403C236.774 582.682 236.532 583.036 236.532 583.464C236.532 583.855 236.747 584.144 237.175 584.33C237.603 584.498 238.32 584.684 239.325 584.889C240.386 585.093 241.252 585.317 241.922 585.559C242.611 585.782 243.207 586.164 243.71 586.704C244.212 587.244 244.464 587.979 244.464 588.91C244.464 590.586 243.756 591.88 242.341 592.792C240.945 593.704 239.13 594.16 236.895 594.16ZM257.987 578.689C259.663 578.689 260.994 579.136 261.981 580.029C262.968 580.923 263.461 582.189 263.461 583.827C263.461 584.423 263.396 585.019 263.266 585.615L261.59 593.937H257.233L258.853 585.894C258.928 585.577 258.965 585.233 258.965 584.861C258.965 584.079 258.751 583.483 258.323 583.073C257.894 582.664 257.252 582.459 256.396 582.459C255.279 582.459 254.348 582.785 253.603 583.436C252.877 584.069 252.383 585.028 252.123 586.313L250.615 593.937H246.258L250.391 573.215H254.748L253.352 580.281C254.636 579.219 256.182 578.689 257.987 578.689ZM283.967 578.912L280.979 593.937H276.846L277.125 592.457C275.878 593.593 274.342 594.16 272.517 594.16C271.344 594.16 270.264 593.89 269.277 593.351C268.291 592.811 267.499 592.038 266.904 591.033C266.326 590.009 266.038 588.808 266.038 587.43C266.038 585.773 266.401 584.284 267.127 582.962C267.872 581.621 268.877 580.579 270.143 579.834C271.409 579.07 272.806 578.689 274.332 578.689C276.641 578.689 278.27 579.443 279.22 580.951L279.611 578.912H283.967ZM273.858 590.558C274.714 590.558 275.477 590.353 276.148 589.943C276.818 589.515 277.339 588.929 277.711 588.184C278.084 587.439 278.27 586.583 278.27 585.615C278.27 584.591 277.963 583.781 277.348 583.185C276.753 582.589 275.915 582.291 274.835 582.291C273.979 582.291 273.215 582.505 272.545 582.934C271.875 583.343 271.353 583.92 270.981 584.665C270.609 585.41 270.422 586.266 270.422 587.234C270.422 588.258 270.72 589.068 271.316 589.664C271.931 590.26 272.778 590.558 273.858 590.558ZM306.852 578.689C308.49 578.689 309.793 579.136 310.761 580.029C311.729 580.904 312.214 582.152 312.214 583.772C312.214 584.367 312.148 584.982 312.018 585.615L310.37 593.937H306.014L307.606 585.922C307.68 585.55 307.717 585.168 307.717 584.777C307.717 584.014 307.512 583.436 307.103 583.045C306.712 582.654 306.125 582.459 305.343 582.459C303.24 582.459 301.927 583.716 301.406 586.229L299.87 593.937H295.513L297.105 585.922C297.179 585.55 297.217 585.177 297.217 584.805C297.217 584.041 297.012 583.464 296.602 583.073C296.211 582.664 295.625 582.459 294.843 582.459C292.739 582.459 291.417 583.734 290.877 586.285L289.369 593.937H285.012L288.001 578.912H292.134L291.799 580.476C293.102 579.285 294.675 578.689 296.518 578.689C297.561 578.689 298.483 578.903 299.283 579.331C300.102 579.741 300.717 580.346 301.126 581.146C301.853 580.346 302.7 579.741 303.668 579.331C304.636 578.903 305.697 578.689 306.852 578.689ZM324.286 574.388L320.376 593.937H315.852L319.035 578.019H315.126L315.852 574.388H324.286ZM332.541 594.272C330.363 594.272 328.641 593.621 327.374 592.317C326.108 590.995 325.475 589.18 325.475 586.871C325.475 584.526 325.904 582.375 326.76 580.42C327.635 578.465 328.845 576.92 330.391 575.784C331.936 574.63 333.695 574.053 335.669 574.053C337.847 574.053 339.569 574.714 340.835 576.036C342.101 577.339 342.734 579.145 342.734 581.454C342.734 583.799 342.297 585.95 341.422 587.905C340.565 589.86 339.365 591.414 337.819 592.569C336.274 593.704 334.515 594.272 332.541 594.272ZM332.96 590.446C334.04 590.446 334.971 589.981 335.753 589.05C336.553 588.119 337.158 586.965 337.568 585.587C337.978 584.19 338.182 582.85 338.182 581.565C338.182 580.318 337.922 579.396 337.4 578.8C336.898 578.186 336.181 577.879 335.25 577.879C334.17 577.879 333.23 578.344 332.429 579.275C331.647 580.206 331.052 581.37 330.642 582.766C330.232 584.144 330.028 585.475 330.028 586.76C330.028 588.007 330.279 588.938 330.782 589.552C331.303 590.148 332.029 590.446 332.96 590.446Z" fill="white"/>
<path d="M216.915 548.902H221.048L219.428 556.945C218.441 557.709 217.296 558.295 215.993 558.705C214.69 559.114 213.34 559.319 211.944 559.319C209.989 559.319 208.285 558.965 206.833 558.258C205.381 557.55 204.254 556.554 203.454 555.27C202.672 553.985 202.281 552.505 202.281 550.829C202.281 548.614 202.793 546.612 203.817 544.825C204.841 543.037 206.284 541.641 208.145 540.636C210.007 539.612 212.148 539.1 214.569 539.1C216.43 539.1 218.041 539.388 219.4 539.965C220.778 540.543 221.886 541.39 222.723 542.507L219.484 545.132C218.832 544.369 218.097 543.819 217.278 543.484C216.458 543.131 215.49 542.954 214.373 542.954C212.884 542.954 211.571 543.289 210.435 543.959C209.3 544.611 208.415 545.514 207.782 546.668C207.168 547.822 206.861 549.116 206.861 550.55C206.861 552.058 207.345 553.259 208.313 554.152C209.3 555.028 210.705 555.465 212.53 555.465C213.684 555.465 214.764 555.232 215.77 554.767L216.915 548.902ZM225.921 543.959H230.249L227.261 558.984H222.932L225.921 543.959ZM228.825 541.865C228.08 541.865 227.466 541.65 226.982 541.222C226.516 540.775 226.284 540.235 226.284 539.602C226.284 538.858 226.544 538.243 227.066 537.759C227.606 537.257 228.304 537.005 229.16 537.005C229.924 537.005 230.538 537.219 231.003 537.648C231.487 538.057 231.729 538.569 231.729 539.184C231.729 539.984 231.46 540.636 230.92 541.138C230.38 541.622 229.681 541.865 228.825 541.865ZM237.226 553.678C237.188 553.827 237.17 554.031 237.17 554.292C237.17 555.26 237.7 555.744 238.762 555.744C239.339 555.744 239.925 555.567 240.521 555.214L241.163 558.314C240.195 558.909 238.948 559.207 237.421 559.207C236.006 559.207 234.87 558.835 234.014 558.09C233.158 557.345 232.729 556.321 232.729 555.018C232.729 554.646 232.776 554.208 232.869 553.706L234.07 547.645H231.752L232.422 544.294H234.74L235.466 540.636H239.823L239.097 544.294H242.839L242.169 547.645H238.427L237.226 553.678ZM255.171 543.736C256.846 543.736 258.178 544.182 259.164 545.076C260.151 545.97 260.645 547.236 260.645 548.874C260.645 549.47 260.579 550.066 260.449 550.662L258.773 558.984H254.417L256.037 550.941C256.111 550.624 256.148 550.28 256.148 549.908C256.148 549.126 255.934 548.53 255.506 548.12C255.078 547.711 254.435 547.506 253.579 547.506C252.462 547.506 251.531 547.832 250.786 548.483C250.06 549.116 249.567 550.075 249.306 551.36L247.798 558.984H243.441L247.575 538.262H251.931L250.535 545.328C251.82 544.266 253.365 543.736 255.171 543.736ZM280.875 543.959L277.887 558.984H273.754L274.061 557.364C273.409 557.979 272.665 558.444 271.827 558.76C270.989 559.058 270.105 559.207 269.174 559.207C267.535 559.207 266.223 558.76 265.236 557.867C264.268 556.973 263.784 555.716 263.784 554.097C263.784 553.482 263.849 552.877 263.979 552.281L265.627 543.959H269.984L268.392 552.002C268.317 552.356 268.28 552.719 268.28 553.091C268.28 554.655 269.118 555.437 270.793 555.437C271.892 555.437 272.795 555.121 273.502 554.488C274.229 553.836 274.722 552.868 274.983 551.583L276.519 543.959H280.875ZM293.345 543.736C294.518 543.736 295.598 544.006 296.585 544.546C297.59 545.085 298.382 545.867 298.959 546.891C299.554 547.897 299.852 549.088 299.852 550.466C299.852 552.123 299.48 553.622 298.735 554.962C298.009 556.284 297.013 557.327 295.747 558.09C294.481 558.835 293.075 559.207 291.53 559.207C290.357 559.207 289.342 559.003 288.486 558.593C287.63 558.183 286.969 557.569 286.503 556.75L286.056 558.984H281.923L286.056 538.262H290.413L289.017 545.244C290.227 544.238 291.67 543.736 293.345 543.736ZM291.027 555.605C291.884 555.605 292.647 555.4 293.317 554.99C293.988 554.562 294.509 553.976 294.881 553.231C295.254 552.486 295.44 551.63 295.44 550.662C295.44 549.638 295.133 548.828 294.518 548.232C293.922 547.636 293.085 547.338 292.005 547.338C291.167 547.338 290.413 547.552 289.743 547.981C289.072 548.39 288.551 548.967 288.179 549.712C287.806 550.457 287.62 551.313 287.62 552.281C287.62 553.305 287.918 554.115 288.514 554.711C289.11 555.307 289.948 555.605 291.027 555.605ZM305.198 549.181C304.454 549.181 303.839 548.949 303.355 548.483C302.871 547.999 302.629 547.394 302.629 546.668C302.629 545.812 302.908 545.113 303.467 544.573C304.026 544.034 304.714 543.764 305.534 543.764C306.278 543.764 306.883 543.996 307.349 544.462C307.833 544.927 308.075 545.532 308.075 546.277C308.075 547.115 307.786 547.813 307.209 548.372C306.651 548.911 305.98 549.181 305.198 549.181ZM303.188 559.207C302.443 559.207 301.829 558.975 301.344 558.509C300.86 558.025 300.618 557.42 300.618 556.694C300.618 555.837 300.898 555.139 301.456 554.599C302.015 554.059 302.704 553.789 303.523 553.789C304.268 553.789 304.873 554.022 305.338 554.488C305.822 554.953 306.064 555.558 306.064 556.303C306.064 557.141 305.776 557.839 305.198 558.397C304.64 558.937 303.97 559.207 303.188 559.207Z" fill="white"/>
<path d="M143.623 56.7314L144.283 55.1592L144.942 53.5869L169.76 63.9991L194.579 74.4113L193.919 75.9836L193.259 77.5558L191.29 76.7295C189.611 76.0252 189.273 76.0143 189.004 76.6566C188.83 77.0709 188.429 77.4068 188.112 77.4028C187.67 77.3972 187.627 77.5399 187.929 78.016C188.529 78.9608 186.85 79.4895 185.307 78.8421C183.59 78.1217 182.609 78.6488 181.719 80.7705L180.965 82.5672L178.995 81.7409L177.025 80.9145L176.201 82.8798L175.376 84.8452L173.407 84.0188L171.437 83.1924L170.612 85.1578L169.788 87.1231L167.818 86.2967L165.848 85.4703L164.859 87.8287L163.87 90.1871L166.233 91.1788L168.597 92.1704L169.421 90.2051L170.246 88.2398L172.216 89.0661L174.185 89.8925L175.01 87.9272L175.834 85.9618L177.804 86.7882L179.774 87.6146L180.763 85.2562L181.753 82.8978L183.553 83.6533C184.71 84.1387 185.688 84.2729 186.288 84.0285C186.966 83.7519 187.106 83.548 186.8 83.2804C186.568 83.0779 186.596 82.3969 186.86 81.7664C187.327 80.6525 187.397 80.6435 189.311 81.4462L191.28 82.2726L186.168 94.4576L181.056 106.643L156.801 96.4666C136.305 87.8676 132.495 86.167 132.219 85.4927C131.95 84.8393 132.73 82.6961 136.532 73.6332C141.678 61.3668 141.627 61.4411 144.177 62.5107L145.584 63.1009L144.759 65.0663L143.935 67.0316L145.341 67.6218C147.076 68.3496 147.562 69.4272 146.885 71.0427C146.207 72.6582 146.693 73.7358 148.428 74.4636C149.778 75.0302 149.811 75.11 149.246 76.4575C148.519 78.1885 148.93 79.2968 150.549 79.9761C152.168 80.6554 152.579 81.7637 151.852 83.4948L151.264 84.8984L153.233 85.7248L155.203 86.5511L154.378 88.5164L153.554 90.4818L157.887 92.2998L162.221 94.1178L162.974 92.3211C164.063 89.7269 163.697 89.1903 159.697 87.5121L156.321 86.0955L156.91 84.6919C157.699 82.8107 157.222 81.8512 155.043 80.9371L153.242 80.1816L154.067 78.2163L154.892 76.251L152.922 75.4246L150.952 74.5982L151.777 72.6329L152.601 70.6676L150.632 69.8412L148.662 69.0149L149.416 67.2182C150.328 65.0441 149.993 64.0265 148.108 63.2356L146.701 62.6454L147.526 60.68L148.35 58.7147L145.987 57.7231L143.623 56.7314Z" fill="#F8CC14"/>
<path fill-rule="evenodd" clip-rule="evenodd" d="M131.893 194.241L132.106 195.035L131.311 195.248L130.517 195.461L137.33 220.889L144.143 246.316L144.938 246.103L145.732 245.891L145.945 246.685L146.158 247.48L171.586 240.666L197.013 233.853L196.8 233.059L196.588 232.264L197.382 232.051L198.177 231.838L191.363 206.411L184.55 180.983L183.756 181.196L182.961 181.409L182.748 180.614L182.535 179.82L157.108 186.633L131.68 193.446L131.893 194.241ZM148.538 199.149L148.964 200.738L149.758 200.525L150.553 200.312L150.766 201.107L150.979 201.902L150.184 202.115L149.39 202.328L149.816 203.917L150.241 205.506L148.652 205.932L147.063 206.358L147.276 207.152L147.489 207.947L146.694 208.16L145.899 208.373L145.687 207.578L145.474 206.783L143.884 207.209L142.295 207.635L141.444 204.457L140.592 201.278L141.387 201.065L142.181 200.852L141.968 200.058L141.755 199.263L144.934 198.412L148.112 197.56L148.538 199.149ZM173.555 203.517L173.768 204.312L176.152 203.673L178.536 203.035L178.748 203.829L178.961 204.624L179.756 204.411L180.551 204.198L180.976 205.787L181.402 207.376L182.197 207.163L182.992 206.951L185.759 217.28L188.527 227.61L184.554 228.675L180.581 229.74L178.239 220.999L175.897 212.258L175.102 212.471L174.308 212.684L174.095 211.889L173.882 211.095L170.704 211.946L167.525 212.798L167.951 214.387L168.377 215.976L167.582 216.189L166.788 216.402L168.917 224.348L171.046 232.295L167.073 233.359L163.1 234.424L159.693 221.71L156.286 208.996L160.26 207.932L164.233 206.867L164.658 208.456L165.084 210.045L165.879 209.833L166.673 209.62L166.461 208.825L166.248 208.03L167.042 207.817L167.837 207.605L167.624 206.81L167.411 206.015L169 205.59L170.589 205.164L170.377 204.369L170.164 203.574L171.753 203.149L173.342 202.723L173.555 203.517ZM154.925 222.987L158.332 235.701L154.359 236.766L150.386 237.83L146.979 225.117L143.573 212.403L147.546 211.338L151.519 210.274L154.925 222.987Z" fill="#F8CC14"/>
</svg>
