<svg width="494" height="934" viewBox="0 0 494 934" fill="none" xmlns="http://www.w3.org/2000/svg">
<rect x="16" width="467" height="934" fill="#999999"/>
<rect x="16" width="467" height="934" fill="#007AE0"/>
<path fill-rule="evenodd" clip-rule="evenodd" d="M204.358 205.04V216.079H193.094H181.831V250.202V284.324H193.094H204.358V295.558V306.792L215.723 306.898L227.087 307.005V318.246V329.486L215.723 329.593L204.358 329.699V352.174V374.648H193.094H181.831V340.726V306.805H159.102H136.373V318.246V329.687H124.908H113.443V340.927V352.167H124.908H136.373V363.608V375.049H147.637H158.901V386.29V397.53H170.366H181.831V408.77V420.011H159.102H136.373V408.77V397.53H113.644H90.9153V386.29V375.049H68.1865H45.4577V363.608V352.167H22.7288H0V386.29V420.412H45.4577H90.9153V431.652V442.893H113.644H136.373V454.334V465.775H170.366H204.358V454.334V442.893H215.823H227.288V476.814V510.736H215.823H204.358V544.858V578.981H193.094H181.831V590.221V601.461H170.366H158.901V635.584V669.706H147.637H136.373V737.543V805.38L125.009 805.487L113.644 805.593L113.54 828.174L113.436 850.755H102.176H90.9153V862.196V873.637H79.4503H67.9853V884.878V896.118H101.978H135.971V884.878V873.637H147.436H158.901V828.275V782.912H170.366H181.831V737.549V692.187H215.823H249.816V669.505V646.824H261.073H272.331L272.438 658.165L272.545 669.505L283.909 669.612L295.274 669.718V703.634V737.549H318.002H340.731V748.79V760.03H351.995H363.259V771.471V782.912H385.988H408.717V794.146V805.38L420.081 805.487L431.445 805.593L431.552 816.934L431.659 828.275H442.917H454.174V873.637V919H474.087H494V884.878V850.755H485.555H477.111L477.007 828.174L476.903 805.593L465.539 805.487L454.174 805.38V782.705V760.03H442.91H431.647V748.79V737.549H408.918H386.189V680.953V624.356L374.825 624.249L363.46 624.143L363.358 567.439L363.256 510.736H351.994H340.731V476.814V442.893H351.995H363.259V374.849V306.805H351.995H340.731V295.564V284.324H318.002H295.274V272.883V261.442H284.01H272.746V227.721V194H238.552H204.358V205.04Z" fill="#F9CC14"/>
<path d="M168.934 96.7734H158.191V107.516H168.934V96.7734ZM147.449 129V91.4023H174.305V96.7734H179.676V107.516H174.305V112.887H179.676V123.629H174.305V129H147.449ZM168.934 123.629V112.887H158.191V123.629H168.934ZM206.531 96.7734H195.789V123.629H206.531V96.7734ZM190.418 123.629H185.047V96.7734H190.418V91.4023H211.902V96.7734H217.273V123.629H211.902V129H190.418V123.629ZM238.758 102.145H244.129V91.4023H254.871V102.145H249.5V107.516H244.129V112.887H249.5V118.258H254.871V129H244.129V118.258H238.758V112.887H233.387V129H222.645V112.887H228.016V107.516H233.387V102.145H228.016V96.7734H222.645V91.4023H233.387V96.7734H238.758V102.145ZM260.242 129V91.4023H270.984V129H260.242ZM281.727 112.887V129H276.355V91.4023H287.098V102.145H292.469V112.887H297.84V91.4023H308.582V129H297.84V123.629H287.098V112.887H281.727ZM335.438 124.3V129H319.324V123.629H313.953V96.7734H319.324V91.4023H346.18V102.145H340.809V96.7734H324.695V123.629H334.766L335.438 122.958V112.887H330.066V107.516H346.18V129H340.809V123.629H336.109L335.438 124.3Z" fill="white"/>
<path d="M168.934 96.7734H158.191V107.516H168.934V96.7734ZM147.449 129V91.4023H174.305V96.7734H179.676V107.516H174.305V112.887H179.676V123.629H174.305V129H147.449ZM168.934 123.629V112.887H158.191V123.629H168.934ZM206.531 96.7734H195.789V123.629H206.531V96.7734ZM190.418 123.629H185.047V96.7734H190.418V91.4023H211.902V96.7734H217.273V123.629H211.902V129H190.418V123.629ZM238.758 102.145H244.129V91.4023H254.871V102.145H249.5V107.516H244.129V112.887H249.5V118.258H254.871V129H244.129V118.258H238.758V112.887H233.387V129H222.645V112.887H228.016V107.516H233.387V102.145H228.016V96.7734H222.645V91.4023H233.387V96.7734H238.758V102.145ZM260.242 129V91.4023H270.984V129H260.242ZM281.727 112.887V129H276.355V91.4023H287.098V102.145H292.469V112.887H297.84V91.4023H308.582V129H297.84V123.629H287.098V112.887H281.727ZM335.438 124.3V129H319.324V123.629H313.953V96.7734H319.324V91.4023H346.18V102.145H340.809V96.7734H324.695V123.629H334.766L335.438 122.958V112.887H330.066V107.516H346.18V129H340.809V123.629H336.109L335.438 124.3Z" fill="white"/>
</svg>
