<svg width="3011" height="2151" viewBox="0 0 3011 2151" fill="none" xmlns="http://www.w3.org/2000/svg">
<rect y="257.185" width="87.6766" height="1806.14" fill="#F9CC14"/>
<rect x="2922.55" y="257.185" width="87.6766" height="1806.14" fill="#F9CC14"/>
<rect x="87.6768" y="1975.65" width="1204.09" height="87.6766" fill="#F9CC14"/>
<rect x="1718.46" y="1975.65" width="1204.09" height="87.6766" fill="#F9CC14"/>
<rect x="1209.94" y="2063.32" width="596.201" height="87.6766" fill="#F9CC14"/>
<rect x="175.354" y="87.6768" width="1285.92" height="1724.31" fill="#F3F3F3"/>
<rect x="257.185" width="1204.09" height="87.6766" fill="#F3F3F3"/>
<rect width="1285.92" height="1724.31" transform="matrix(-1 0 0 1 2834.88 87.6768)" fill="#F3F3F3"/>
<rect width="1204.09" height="87.6766" transform="matrix(-1 0 0 1 2753.05 0)" fill="#F3F3F3"/>
<rect x="87.6768" y="175.353" width="87.6766" height="1800.29" fill="#DBDBDB"/>
<rect x="175.354" y="1811.98" width="1192.4" height="163.663" fill="#DBDBDB"/>
<rect x="1367.76" y="1811.98" width="93.5217" height="93.5217" fill="#DBDBDB"/>
<rect width="87.6766" height="1800.29" transform="matrix(-1 0 0 1 2922.55 175.353)" fill="#DBDBDB"/>
<rect width="1192.4" height="163.663" transform="matrix(-1 0 0 1 2834.88 1811.98)" fill="#DBDBDB"/>
<rect width="93.5217" height="93.5217" transform="matrix(-1 0 0 1 1642.48 1811.98)" fill="#DBDBDB"/>
<rect x="1291.77" y="1975.65" width="426.693" height="87.6766" fill="#CCCCCC"/>
<rect x="1367.76" y="1905.51" width="274.72" height="70.1413" fill="#CCCCCC"/>
<rect x="1461.28" y="1811.98" width="87.6766" height="93.5217" fill="#CCCCCC"/>
<rect x="1461.28" y="81.8315" width="87.6766" height="1730.15" fill="#CCCCCC"/>
<path d="M331.344 210.148H345.016V258H331.344V237.492H317.672V258H304V210.148H317.672V230.656H331.344V210.148ZM351.852 258V210.148H365.523V258H351.852ZM372.359 264.836V251.164H379.195V264.836H372.359ZM420.211 237.492V258H413.375V210.148H427.047V223.82H447.555V210.148H461.227V258H447.555V237.492H440.719V251.164H427.047V237.492H420.211ZM495.406 230.656V210.148H509.078V230.656H502.242V237.492H495.406V258H481.734V237.492H474.898V230.656H468.062V210.148H481.734V230.656H495.406ZM550.094 237.492V258H543.258V210.148H556.93V223.82H563.766V237.492H570.602V210.148H584.273V258H570.602V251.164H556.93V237.492H550.094ZM618.453 237.492V216.984H604.781V237.492H618.453ZM604.781 244.328V258H591.109V216.984H597.945V210.148H625.289V216.984H632.125V258H618.453V244.328H604.781ZM645.797 237.492V258H638.961V210.148H652.633V223.82H673.141V210.148H686.812V258H673.141V237.492H666.305V251.164H652.633V237.492H645.797ZM693.648 258V210.148H727.828V216.984H707.32V230.656H727.828V237.492H707.32V251.164H727.828V258H693.648ZM762.008 258V210.148H775.68V258H762.008ZM809.859 216.984H796.188V230.656H816.695V237.492H823.531V251.164H816.695V258H789.352V251.164H782.516V244.328H796.188V251.164H809.859V237.492H789.352V230.656H782.516V216.984H789.352V210.148H816.695V216.984H823.531V223.82H809.859V216.984ZM885.055 237.492V216.984H871.383V237.492H885.055ZM871.383 244.328V258H857.711V216.984H864.547V210.148H891.891V216.984H898.727V258H885.055V244.328H871.383ZM932.906 216.984H919.234V230.656H932.906V216.984ZM939.742 237.492H946.578V258H932.906V237.492H919.234V258H905.562V210.148H939.742V216.984H946.578V230.656H939.742V237.492ZM980.758 216.984H967.086V230.656H987.594V237.492H994.43V251.164H987.594V258H960.25V251.164H953.414V244.328H967.086V251.164H980.758V237.492H960.25V230.656H953.414V216.984H960.25V210.148H987.594V216.984H994.43V223.82H980.758V216.984ZM1028.61 210.148H1042.28V258H1028.61V237.492H1014.94V258H1001.27V210.148H1014.94V230.656H1028.61V210.148ZM1076.46 237.492V216.984H1062.79V237.492H1076.46ZM1062.79 244.328V258H1049.12V216.984H1055.95V210.148H1083.3V216.984H1090.13V258H1076.46V244.328H1062.79ZM1103.8 237.492V258H1096.97V210.148H1110.64V223.82H1131.15V210.148H1144.82V258H1131.15V237.492H1124.31V251.164H1110.64V237.492H1103.8ZM1179 258V210.148H1192.67V258H1179ZM1254.2 237.492V216.984H1240.52V237.492H1254.2ZM1240.52 244.328V258H1226.85V216.984H1233.69V210.148H1261.03V216.984H1267.87V258H1254.2V244.328H1240.52ZM1281.54 237.492V258H1274.7V210.148H1288.38V223.82H1308.88V210.148H1322.55V258H1308.88V237.492H1302.05V251.164H1288.38V237.492H1281.54ZM331.344 349.492V328.984H317.672V349.492H331.344ZM317.672 356.328V370H304V328.984H310.836V322.148H338.18V328.984H345.016V370H331.344V356.328H317.672ZM406.539 364.019V370H386.031V363.164H379.195V328.984H386.031V322.148H420.211V335.82H413.375V328.984H392.867V363.164H405.685L406.539 362.31V349.492H399.703V342.656H420.211V370H413.375V363.164H407.394L406.539 364.019ZM454.391 349.492V328.984H440.719V349.492H454.391ZM440.719 356.328V370H427.047V328.984H433.883V322.148H461.227V328.984H468.062V370H454.391V356.328H440.719ZM481.734 349.492V370H474.898V322.148H488.57V335.82H509.078V322.148H522.75V370H509.078V349.492H502.242V363.164H488.57V349.492H481.734ZM529.586 370V322.148H563.766V328.984H543.258V342.656H563.766V349.492H543.258V363.164H563.766V370H529.586ZM597.945 328.984H584.273V342.656H597.945V328.984ZM604.781 349.492H611.617V370H597.945V349.492H584.273V370H570.602V322.148H604.781V328.984H611.617V342.656H604.781V349.492ZM673.141 349.492V328.984H659.469V349.492H673.141ZM659.469 356.328V370H645.797V328.984H652.633V322.148H679.977V328.984H686.812V370H673.141V356.328H659.469ZM700.484 349.492V370H693.648V322.148H707.32V335.82H714.156V349.492H720.992V322.148H734.664V370H720.992V363.164H707.32V349.492H700.484ZM768.844 328.984H755.172V363.164H768.844V328.984ZM741.5 370V322.148H775.68V328.984H782.516V363.164H775.68V370H741.5ZM844.039 349.492V328.984H830.367V349.492H844.039ZM830.367 356.328V370H816.695V328.984H823.531V322.148H850.875V328.984H857.711V370H844.039V356.328H830.367ZM919.234 364.019V370H898.727V363.164H891.891V328.984H898.727V322.148H932.906V335.82H926.07V328.984H905.562V363.164H918.38L919.234 362.31V349.492H912.398V342.656H932.906V370H926.07V363.164H920.089L919.234 364.019ZM967.086 349.492V328.984H953.414V349.492H967.086ZM953.414 356.328V370H939.742V328.984H946.578V322.148H973.922V328.984H980.758V370H967.086V356.328H953.414ZM994.43 349.492V370H987.594V322.148H1001.27V335.82H1021.77V322.148H1035.45V370H1021.77V349.492H1014.94V363.164H1001.27V349.492H994.43ZM1042.28 370V322.148H1076.46V328.984H1055.95V342.656H1076.46V349.492H1055.95V363.164H1076.46V370H1042.28ZM331.344 440.984H317.672V475.164H331.344V440.984ZM304 482V434.148H338.18V440.984H345.016V475.164H338.18V482H304ZM351.852 482V434.148H386.031V440.984H365.523V454.656H386.031V461.492H365.523V475.164H386.031V482H351.852ZM420.211 468.328V434.148H433.883V468.328H427.047V475.164H420.211V482H406.539V475.164H399.703V468.328H392.867V434.148H406.539V468.328H420.211ZM440.719 482V434.148H474.898V440.984H454.391V454.656H474.898V461.492H454.391V475.164H474.898V482H440.719ZM515.914 473.455V482H481.734V434.148H495.406V473.455H515.914ZM550.094 440.984H536.422V475.164H550.094V440.984ZM529.586 475.164H522.75V440.984H529.586V434.148H556.93V440.984H563.766V475.164H556.93V482H529.586V475.164ZM597.945 440.984H584.273V454.656H597.945V440.984ZM604.781 454.656V461.492H584.273V482H570.602V434.148H604.781V440.984H611.617V454.656H604.781ZM618.453 482V434.148H652.633V440.984H632.125V454.656H652.633V461.492H632.125V475.164H652.633V482H618.453ZM686.812 440.984H673.141V454.656H686.812V440.984ZM693.648 461.492H700.484V482H686.812V461.492H673.141V482H659.469V434.148H693.648V440.984H700.484V454.656H693.648V461.492ZM707.32 482V475.164H714.156V482H707.32ZM755.172 461.492V482H748.336V434.148H762.008V447.82H782.516V434.148H796.188V482H782.516V461.492H775.68V475.164H762.008V461.492H755.172ZM830.367 454.656V434.148H844.039V454.656H837.203V461.492H830.367V482H816.695V461.492H809.859V454.656H803.023V434.148H816.695V454.656H830.367ZM905.562 440.984H891.891V475.164H905.562V440.984ZM878.219 482V434.148H912.398V440.984H919.234V475.164H912.398V482H878.219ZM953.414 440.984H939.742V454.656H953.414V440.984ZM960.25 461.492H967.086V482H953.414V461.492H939.742V482H926.07V434.148H960.25V440.984H967.086V454.656H960.25V461.492ZM973.922 482V434.148H1008.1V440.984H987.594V454.656H1008.1V461.492H987.594V475.164H1008.1V482H973.922ZM1042.28 461.492V440.984H1028.61V461.492H1042.28ZM1028.61 468.328V482H1014.94V440.984H1021.77V434.148H1049.12V440.984H1055.95V482H1042.28V468.328H1028.61ZM1069.62 461.492V482H1062.79V434.148H1076.46V447.82H1096.97V434.148H1110.64V482H1096.97V461.492H1090.13V475.164H1076.46V461.492H1069.62ZM1165.33 434.148H1179V475.164H1172.16V482H1144.82V468.328H1151.66V475.164H1165.33V434.148ZM1213.18 440.984H1199.51V475.164H1213.18V440.984ZM1192.67 475.164H1185.84V440.984H1192.67V434.148H1220.02V440.984H1226.85V475.164H1220.02V482H1192.67V475.164ZM1261.03 440.984H1247.36V454.656H1261.03V440.984ZM1233.69 482V434.148H1267.87V440.984H1274.7V454.656H1267.87V461.492H1274.7V475.164H1267.87V482H1233.69ZM1261.03 475.164V461.492H1247.36V475.164H1261.03ZM1308.88 482V434.148H1322.55V482H1308.88ZM1356.73 440.984H1343.06V454.656H1363.57V461.492H1370.41V475.164H1363.57V482H1336.23V475.164H1329.39V468.328H1343.06V475.164H1356.73V461.492H1336.23V454.656H1329.39V440.984H1336.23V434.148H1363.57V440.984H1370.41V447.82H1356.73V440.984ZM345.016 546.148V552.984H331.344V594H317.672V552.984H304V546.148H345.016ZM379.195 546.148H392.867V594H379.195V573.492H365.523V594H351.852V546.148H365.523V566.656H379.195V546.148ZM427.047 573.492V552.984H413.375V573.492H427.047ZM413.375 580.328V594H399.703V552.984H406.539V546.148H433.883V552.984H440.719V594H427.047V580.328H413.375ZM488.57 546.148V552.984H474.898V594H461.227V552.984H447.555V546.148H488.57ZM522.75 594V546.148H536.422V594H522.75ZM611.617 566.656V546.148H618.453V594H604.781V580.328H584.273V594H570.602V546.148H584.273V566.656H591.109V552.984H604.781V566.656H611.617ZM652.633 573.492V552.984H638.961V573.492H652.633ZM638.961 580.328V594H625.289V552.984H632.125V546.148H659.469V552.984H666.305V594H652.633V580.328H638.961ZM679.977 573.492V594H673.141V546.148H686.812V559.82H693.648V573.492H700.484V546.148H714.156V594H700.484V587.164H686.812V573.492H679.977ZM762.008 546.148V552.984H748.336V594H734.664V552.984H720.992V546.148H762.008ZM837.203 546.148V552.984H823.531V594H809.859V552.984H796.188V546.148H837.203ZM871.383 552.984H857.711V587.164H871.383V552.984ZM850.875 587.164H844.039V552.984H850.875V546.148H878.219V552.984H885.055V587.164H878.219V594H850.875V587.164ZM946.578 552.984H932.906V566.656H946.578V552.984ZM919.234 594V546.148H953.414V552.984H960.25V566.656H953.414V573.492H960.25V587.164H953.414V594H919.234ZM946.578 587.164V573.492H932.906V587.164H946.578ZM967.086 594V546.148H1001.27V552.984H980.758V566.656H1001.27V573.492H980.758V587.164H1001.27V594H967.086ZM1062.79 573.492V552.984H1049.12V573.492H1062.79ZM1049.12 580.328V594H1035.45V552.984H1042.28V546.148H1069.62V552.984H1076.46V594H1062.79V580.328H1049.12ZM1137.98 588.019V594H1117.48V587.164H1110.64V552.984H1117.48V546.148H1151.66V559.82H1144.82V552.984H1124.31V587.164H1137.13L1137.98 586.31V573.492H1131.15V566.656H1151.66V594H1144.82V587.164H1138.84L1137.98 588.019ZM1185.84 573.492V552.984H1172.16V573.492H1185.84ZM1172.16 580.328V594H1158.49V552.984H1165.33V546.148H1192.67V552.984H1199.51V594H1185.84V580.328H1172.16ZM1213.18 573.492V594H1206.34V546.148H1220.02V559.82H1240.52V546.148H1254.2V594H1240.52V573.492H1233.69V587.164H1220.02V573.492H1213.18ZM1261.03 594V546.148H1295.21V552.984H1274.7V566.656H1295.21V573.492H1274.7V587.164H1295.21V594H1261.03ZM331.344 664.984H317.672V699.164H331.344V664.984ZM304 706V658.148H338.18V664.984H345.016V699.164H338.18V706H304ZM351.852 706V658.148H386.031V664.984H365.523V678.656H386.031V685.492H365.523V699.164H386.031V706H351.852ZM420.211 692.328V658.148H433.883V692.328H427.047V699.164H420.211V706H406.539V699.164H399.703V692.328H392.867V658.148H406.539V692.328H420.211ZM440.719 706V658.148H474.898V664.984H454.391V678.656H474.898V685.492H454.391V699.164H474.898V706H440.719ZM515.914 697.455V706H481.734V658.148H495.406V697.455H515.914ZM550.094 664.984H536.422V699.164H550.094V664.984ZM529.586 699.164H522.75V664.984H529.586V658.148H556.93V664.984H563.766V699.164H556.93V706H529.586V699.164ZM597.945 664.984H584.273V678.656H597.945V664.984ZM604.781 678.656V685.492H584.273V706H570.602V658.148H604.781V664.984H611.617V678.656H604.781ZM618.453 706V658.148H652.633V664.984H632.125V678.656H652.633V685.492H632.125V699.164H652.633V706H618.453ZM686.812 664.984H673.141V678.656H686.812V664.984ZM693.648 685.492H700.484V706H686.812V685.492H673.141V706H659.469V658.148H693.648V664.984H700.484V678.656H693.648V685.492ZM768.844 658.148V664.984H748.336V678.656H768.844V685.492H748.336V706H734.664V658.148H768.844ZM803.023 664.984H789.352V699.164H803.023V664.984ZM782.516 699.164H775.68V664.984H782.516V658.148H809.859V664.984H816.695V699.164H809.859V706H782.516V699.164ZM850.875 664.984H837.203V678.656H850.875V664.984ZM857.711 685.492H864.547V706H850.875V685.492H837.203V706H823.531V658.148H857.711V664.984H864.547V678.656H857.711V685.492ZM932.906 658.148V664.984H912.398V678.656H932.906V685.492H912.398V706H898.727V658.148H932.906ZM967.086 685.492V664.984H953.414V685.492H967.086ZM953.414 692.328V706H939.742V664.984H946.578V658.148H973.922V664.984H980.758V706H967.086V692.328H953.414ZM994.43 685.492V706H987.594V658.148H1001.27V671.82H1021.77V658.148H1035.45V706H1021.77V685.492H1014.94V699.164H1001.27V685.492H994.43ZM1069.62 664.984H1055.95V699.164H1069.62V664.984ZM1049.12 699.164H1042.28V664.984H1049.12V658.148H1076.46V664.984H1083.3V699.164H1076.46V706H1049.12V699.164ZM1117.48 658.148H1131.15V706H1096.97V699.164H1090.13V658.148H1103.8V699.164H1117.48V658.148ZM1165.33 664.984H1151.66V678.656H1172.16V685.492H1179V699.164H1172.16V706H1144.82V699.164H1137.98V692.328H1151.66V699.164H1165.33V685.492H1144.82V678.656H1137.98V664.984H1144.82V658.148H1172.16V664.984H1179V671.82H1165.33V664.984ZM331.344 812.019V818H310.836V811.164H304V776.984H310.836V770.148H345.016V783.82H338.18V776.984H317.672V811.164H330.489L331.344 810.31V797.492H324.508V790.656H345.016V818H338.18V811.164H332.198L331.344 812.019ZM379.195 797.492V776.984H365.523V797.492H379.195ZM365.523 804.328V818H351.852V776.984H358.688V770.148H386.031V776.984H392.867V818H379.195V804.328H365.523ZM406.539 797.492V818H399.703V770.148H413.375V783.82H433.883V770.148H447.555V818H433.883V797.492H427.047V811.164H413.375V797.492H406.539ZM454.391 818V770.148H488.57V776.984H468.062V790.656H488.57V797.492H468.062V811.164H488.57V818H454.391ZM529.586 797.492V818H522.75V770.148H536.422V783.82H556.93V770.148H570.602V818H556.93V797.492H550.094V811.164H536.422V797.492H529.586ZM604.781 797.492V776.984H591.109V797.492H604.781ZM591.109 804.328V818H577.438V776.984H584.273V770.148H611.617V776.984H618.453V818H604.781V804.328H591.109ZM638.961 818H625.289V770.148H638.961V790.656H645.797V783.82H652.633V770.148H666.305V783.82H659.469V790.656H652.633V797.492H659.469V804.328H666.305V818H652.633V804.328H645.797V797.492H638.961V818ZM673.141 818V770.148H686.812V818H673.141ZM700.484 797.492V818H693.648V770.148H707.32V783.82H714.156V797.492H720.992V770.148H734.664V818H720.992V811.164H707.32V797.492H700.484ZM768.844 812.019V818H748.336V811.164H741.5V776.984H748.336V770.148H782.516V783.82H775.68V776.984H755.172V811.164H767.989L768.844 810.31V797.492H762.008V790.656H782.516V818H775.68V811.164H769.698L768.844 812.019ZM844.039 804.328H857.711V811.164H850.875V818H823.531V811.164H816.695V776.984H823.531V770.148H850.875V776.984H857.711V783.82H844.039V776.984H830.367V811.164H844.039V804.328ZM891.891 776.984H878.219V811.164H891.891V776.984ZM871.383 811.164H864.547V776.984H871.383V770.148H898.727V776.984H905.562V811.164H898.727V818H871.383V811.164ZM919.234 797.492V818H912.398V770.148H926.07V783.82H946.578V770.148H960.25V818H946.578V797.492H939.742V811.164H926.07V797.492H919.234ZM994.43 776.984H980.758V790.656H994.43V776.984ZM1001.27 790.656V797.492H980.758V818H967.086V770.148H1001.27V776.984H1008.1V790.656H1001.27ZM1042.28 797.492V776.984H1028.61V797.492H1042.28ZM1028.61 804.328V818H1014.94V776.984H1021.77V770.148H1049.12V776.984H1055.95V818H1042.28V804.328H1028.61ZM1069.62 797.492V818H1062.79V770.148H1076.46V783.82H1083.3V797.492H1090.13V770.148H1103.8V818H1090.13V811.164H1076.46V797.492H1069.62ZM1110.64 818V770.148H1124.31V818H1110.64ZM1131.15 818V770.148H1165.33V776.984H1144.82V790.656H1165.33V797.492H1144.82V811.164H1165.33V818H1131.15ZM1199.51 776.984H1185.84V790.656H1206.34V797.492H1213.18V811.164H1206.34V818H1179V811.164H1172.16V804.328H1185.84V811.164H1199.51V797.492H1179V790.656H1172.16V776.984H1179V770.148H1206.34V776.984H1213.18V783.82H1199.51V776.984ZM1220.02 824.836V811.164H1226.85V824.836H1220.02ZM1220.02 797.492V790.656H1226.85V797.492H1220.02ZM338.18 921.455V930H304V882.148H317.672V921.455H338.18ZM345.016 930V882.148H358.688V930H345.016ZM379.195 930H365.523V882.148H379.195V902.656H386.031V895.82H392.867V882.148H406.539V895.82H399.703V902.656H392.867V909.492H399.703V916.328H406.539V930H392.867V916.328H386.031V909.492H379.195V930ZM413.375 930V882.148H447.555V888.984H427.047V902.656H447.555V909.492H427.047V923.164H447.555V930H413.375ZM481.734 930V882.148H495.406V930H481.734ZM509.078 909.492V930H502.242V882.148H515.914V895.82H522.75V909.492H529.586V882.148H543.258V930H529.586V923.164H515.914V909.492H509.078ZM577.438 888.984H563.766V902.656H584.273V909.492H591.109V923.164H584.273V930H556.93V923.164H550.094V916.328H563.766V923.164H577.438V909.492H556.93V902.656H550.094V888.984H556.93V882.148H584.273V888.984H591.109V895.82H577.438V888.984ZM625.289 888.984H611.617V923.164H625.289V888.984ZM604.781 923.164H597.945V888.984H604.781V882.148H632.125V888.984H638.961V923.164H632.125V930H604.781V923.164ZM652.633 909.492V930H645.797V882.148H659.469V895.82H679.977V882.148H693.648V930H679.977V909.492H673.141V923.164H659.469V909.492H652.633ZM707.32 909.492V930H700.484V882.148H714.156V895.82H720.992V909.492H727.828V882.148H741.5V930H727.828V923.164H714.156V909.492H707.32ZM748.336 930V882.148H762.008V930H748.336ZM796.188 909.492V888.984H782.516V909.492H796.188ZM782.516 916.328V930H768.844V888.984H775.68V882.148H803.023V888.984H809.859V930H796.188V916.328H782.516ZM844.039 916.328H857.711V923.164H850.875V930H823.531V923.164H816.695V888.984H823.531V882.148H850.875V888.984H857.711V895.82H844.039V888.984H830.367V923.164H844.039V916.328ZM919.234 909.492V888.984H905.562V909.492H919.234ZM905.562 916.328V930H891.891V888.984H898.727V882.148H926.07V888.984H932.906V930H919.234V916.328H905.562ZM946.578 909.492V930H939.742V882.148H953.414V895.82H960.25V909.492H967.086V882.148H980.758V930H967.086V923.164H953.414V909.492H946.578ZM1014.94 888.984H1001.27V923.164H1014.94V888.984ZM987.594 930V882.148H1021.77V888.984H1028.61V923.164H1021.77V930H987.594ZM331.344 1021.49V1000.98H317.672V1021.49H331.344ZM317.672 1028.33V1042H304V1000.98H310.836V994.148H338.18V1000.98H345.016V1042H331.344V1028.33H317.672ZM379.195 1028.33H392.867V1035.16H386.031V1042H358.688V1035.16H351.852V1000.98H358.688V994.148H386.031V1000.98H392.867V1007.82H379.195V1000.98H365.523V1035.16H379.195V1028.33ZM440.719 994.148V1000.98H427.047V1042H413.375V1000.98H399.703V994.148H440.719ZM447.555 1042V994.148H461.227V1042H447.555ZM495.406 1028.33V994.148H509.078V1028.33H502.242V1035.16H495.406V1042H481.734V1035.16H474.898V1028.33H468.062V994.148H481.734V1028.33H495.406ZM515.914 1042V994.148H529.586V1042H515.914ZM563.766 1000.98H550.094V1014.66H570.602V1021.49H577.438V1035.16H570.602V1042H543.258V1035.16H536.422V1028.33H550.094V1035.16H563.766V1021.49H543.258V1014.66H536.422V1000.98H543.258V994.148H570.602V1000.98H577.438V1007.82H563.766V1000.98ZM584.273 1042V994.148H597.945V1042H584.273ZM632.125 1000.98H618.453V1035.16H632.125V1000.98ZM611.617 1035.16H604.781V1000.98H611.617V994.148H638.961V1000.98H645.797V1035.16H638.961V1042H611.617V1035.16ZM659.469 1021.49V1042H652.633V994.148H666.305V1007.82H673.141V1021.49H679.977V994.148H693.648V1042H679.977V1035.16H666.305V1021.49H659.469ZM700.484 1042V1035.16H707.32V1042H700.484ZM768.844 994.148H782.516V1042H768.844V1021.49H755.172V1042H741.5V994.148H755.172V1014.66H768.844V994.148ZM816.695 1000.98H803.023V1035.16H816.695V1000.98ZM796.188 1035.16H789.352V1000.98H796.188V994.148H823.531V1000.98H830.367V1035.16H823.531V1042H796.188V1035.16ZM878.219 1014.66V994.148H885.055V1042H871.383V1028.33H850.875V1042H837.203V994.148H850.875V1014.66H857.711V1000.98H871.383V1014.66H878.219ZM891.891 1042V994.148H926.07V1000.98H905.562V1014.66H926.07V1021.49H905.562V1035.16H926.07V1042H891.891ZM960.25 1028.33V994.148H973.922V1028.33H967.086V1035.16H960.25V1042H946.578V1035.16H939.742V1028.33H932.906V994.148H946.578V1028.33H960.25ZM980.758 1042V994.148H1014.94V1000.98H994.43V1014.66H1014.94V1021.49H994.43V1035.16H1014.94V1042H980.758ZM1049.12 1000.98H1035.45V1014.66H1049.12V1000.98ZM1055.95 1021.49H1062.79V1042H1049.12V1021.49H1035.45V1042H1021.77V994.148H1055.95V1000.98H1062.79V1014.66H1055.95V1021.49ZM1069.62 1048.84V1035.16H1076.46V1048.84H1069.62ZM1110.64 1042V994.148H1124.31V1042H1110.64ZM1137.98 1021.49V1042H1131.15V994.148H1144.82V1007.82H1151.66V1021.49H1158.49V994.148H1172.16V1042H1158.49V1035.16H1144.82V1021.49H1137.98ZM331.344 1112.98H317.672V1147.16H331.344V1112.98ZM310.836 1147.16H304V1112.98H310.836V1106.15H338.18V1112.98H345.016V1147.16H338.18V1154H310.836V1147.16ZM379.195 1112.98H365.523V1126.66H379.195V1112.98ZM386.031 1133.49H392.867V1154H379.195V1133.49H365.523V1154H351.852V1106.15H386.031V1112.98H392.867V1126.66H386.031V1133.49ZM427.047 1112.98H413.375V1147.16H427.047V1112.98ZM399.703 1154V1106.15H433.883V1112.98H440.719V1147.16H433.883V1154H399.703ZM447.555 1154V1106.15H481.734V1112.98H461.227V1126.66H481.734V1133.49H461.227V1147.16H481.734V1154H447.555ZM515.914 1112.98H502.242V1126.66H515.914V1112.98ZM522.75 1133.49H529.586V1154H515.914V1133.49H502.242V1154H488.57V1106.15H522.75V1112.98H529.586V1126.66H522.75V1133.49ZM604.781 1106.15V1112.98H591.109V1154H577.438V1112.98H563.766V1106.15H604.781ZM638.961 1112.98H625.289V1147.16H638.961V1112.98ZM618.453 1147.16H611.617V1112.98H618.453V1106.15H645.797V1112.98H652.633V1147.16H645.797V1154H618.453V1147.16ZM714.156 1112.98H700.484V1147.16H714.156V1112.98ZM686.812 1154V1106.15H720.992V1112.98H727.828V1147.16H720.992V1154H686.812ZM762.008 1112.98H748.336V1147.16H762.008V1112.98ZM741.5 1147.16H734.664V1112.98H741.5V1106.15H768.844V1112.98H775.68V1147.16H768.844V1154H741.5V1147.16ZM837.203 1112.98H823.531V1126.66H844.039V1133.49H850.875V1147.16H844.039V1154H816.695V1147.16H809.859V1140.33H823.531V1147.16H837.203V1133.49H816.695V1126.66H809.859V1112.98H816.695V1106.15H844.039V1112.98H850.875V1119.82H837.203V1112.98ZM885.055 1112.98H871.383V1147.16H885.055V1112.98ZM864.547 1147.16H857.711V1112.98H864.547V1106.15H891.891V1112.98H898.727V1147.16H891.891V1154H864.547V1147.16ZM905.562 1160.84V1147.16H912.398V1160.84H905.562ZM987.594 1126.66V1106.15H994.43V1154H980.758V1140.33H960.25V1154H946.578V1106.15H960.25V1126.66H967.086V1112.98H980.758V1126.66H987.594ZM1001.27 1154V1106.15H1035.45V1112.98H1014.94V1126.66H1035.45V1133.49H1014.94V1147.16H1035.45V1154H1001.27ZM1096.97 1133.49V1112.98H1083.3V1133.49H1096.97ZM1083.3 1140.33V1154H1069.62V1112.98H1076.46V1106.15H1103.8V1112.98H1110.64V1154H1096.97V1140.33H1083.3ZM1151.66 1145.46V1154H1117.48V1106.15H1131.15V1145.46H1151.66ZM1192.67 1145.46V1154H1158.49V1106.15H1172.16V1145.46H1192.67ZM331.344 1218.15H345.016V1266H331.344V1245.49H317.672V1266H304V1218.15H317.672V1238.66H331.344V1218.15ZM379.195 1245.49V1224.98H365.523V1245.49H379.195ZM365.523 1252.33V1266H351.852V1224.98H358.688V1218.15H386.031V1224.98H392.867V1266H379.195V1252.33H365.523ZM427.047 1252.33V1218.15H440.719V1252.33H433.883V1259.16H427.047V1266H413.375V1259.16H406.539V1252.33H399.703V1218.15H413.375V1252.33H427.047ZM447.555 1266V1218.15H481.734V1224.98H461.227V1238.66H481.734V1245.49H461.227V1259.16H481.734V1266H447.555ZM556.93 1218.15V1224.98H543.258V1266H529.586V1224.98H515.914V1218.15H556.93ZM591.109 1224.98H577.438V1259.16H591.109V1224.98ZM570.602 1259.16H563.766V1224.98H570.602V1218.15H597.945V1224.98H604.781V1259.16H597.945V1266H570.602V1259.16ZM666.305 1224.98H652.633V1238.66H673.141V1245.49H679.977V1259.16H673.141V1266H645.797V1259.16H638.961V1252.33H652.633V1259.16H666.305V1245.49H645.797V1238.66H638.961V1224.98H645.797V1218.15H673.141V1224.98H679.977V1231.82H666.305V1224.98ZM727.828 1218.15V1224.98H714.156V1266H700.484V1224.98H686.812V1218.15H727.828ZM762.008 1245.49V1224.98H748.336V1245.49H762.008ZM748.336 1252.33V1266H734.664V1224.98H741.5V1218.15H768.844V1224.98H775.68V1266H762.008V1252.33H748.336ZM809.859 1224.98H796.188V1238.66H809.859V1224.98ZM816.695 1245.49H823.531V1266H809.859V1245.49H796.188V1266H782.516V1218.15H816.695V1224.98H823.531V1238.66H816.695V1245.49ZM871.383 1218.15V1224.98H857.711V1266H844.039V1224.98H830.367V1218.15H871.383ZM932.906 1224.98H919.234V1238.66H939.742V1245.49H946.578V1259.16H939.742V1266H912.398V1259.16H905.562V1252.33H919.234V1259.16H932.906V1245.49H912.398V1238.66H905.562V1224.98H912.398V1218.15H939.742V1224.98H946.578V1231.82H932.906V1224.98ZM980.758 1224.98H967.086V1259.16H980.758V1224.98ZM960.25 1259.16H953.414V1224.98H960.25V1218.15H987.594V1224.98H994.43V1259.16H987.594V1266H960.25V1259.16ZM1008.1 1245.49V1266H1001.27V1218.15H1014.94V1231.82H1035.45V1218.15H1049.12V1266H1035.45V1245.49H1028.61V1259.16H1014.94V1245.49H1008.1ZM1055.95 1266V1218.15H1090.13V1224.98H1069.62V1238.66H1090.13V1245.49H1069.62V1259.16H1090.13V1266H1055.95ZM1137.98 1238.66V1218.15H1144.82V1266H1131.15V1252.33H1110.64V1266H1096.97V1218.15H1110.64V1238.66H1117.48V1224.98H1131.15V1238.66H1137.98ZM1179 1218.15H1192.67V1266H1179V1245.49H1165.33V1266H1151.66V1218.15H1165.33V1238.66H1179V1218.15ZM1199.51 1266V1218.15H1233.69V1224.98H1213.18V1238.66H1233.69V1245.49H1213.18V1259.16H1233.69V1266H1199.51ZM1267.87 1224.98H1254.2V1238.66H1267.87V1224.98ZM1274.7 1245.49H1281.54V1266H1267.87V1245.49H1254.2V1266H1240.52V1218.15H1274.7V1224.98H1281.54V1238.66H1274.7V1245.49ZM1288.38 1266V1218.15H1322.55V1224.98H1302.05V1238.66H1322.55V1245.49H1302.05V1259.16H1322.55V1266H1288.38ZM331.344 1357.49V1336.98H317.672V1357.49H331.344ZM317.672 1364.33V1378H304V1336.98H310.836V1330.15H338.18V1336.98H345.016V1378H331.344V1364.33H317.672ZM358.688 1357.49V1378H351.852V1330.15H365.523V1343.82H372.359V1357.49H379.195V1330.15H392.867V1378H379.195V1371.16H365.523V1357.49H358.688ZM427.047 1336.98H413.375V1371.16H427.047V1336.98ZM399.703 1378V1330.15H433.883V1336.98H440.719V1371.16H433.883V1378H399.703ZM515.914 1330.15V1336.98H502.242V1378H488.57V1336.98H474.898V1330.15H515.914ZM550.094 1330.15H563.766V1378H550.094V1357.49H536.422V1378H522.75V1330.15H536.422V1350.66H550.094V1330.15ZM570.602 1378V1330.15H584.273V1378H570.602ZM618.453 1336.98H604.781V1350.66H625.289V1357.49H632.125V1371.16H625.289V1378H597.945V1371.16H591.109V1364.33H604.781V1371.16H618.453V1357.49H597.945V1350.66H591.109V1336.98H597.945V1330.15H625.289V1336.98H632.125V1343.82H618.453V1336.98ZM666.305 1378V1330.15H679.977V1378H666.305ZM714.156 1336.98H700.484V1350.66H720.992V1357.49H727.828V1371.16H720.992V1378H693.648V1371.16H686.812V1364.33H700.484V1371.16H714.156V1357.49H693.648V1350.66H686.812V1336.98H693.648V1330.15H720.992V1336.98H727.828V1343.82H714.156V1336.98ZM803.023 1350.66V1330.15H809.859V1378H796.188V1364.33H775.68V1378H762.008V1330.15H775.68V1350.66H782.516V1336.98H796.188V1350.66H803.023ZM844.039 1330.15H857.711V1378H844.039V1357.49H830.367V1378H816.695V1330.15H830.367V1350.66H844.039V1330.15ZM864.547 1378V1330.15H898.727V1336.98H878.219V1350.66H898.727V1357.49H878.219V1371.16H898.727V1378H864.547ZM932.906 1336.98H919.234V1350.66H932.906V1336.98ZM939.742 1357.49H946.578V1378H932.906V1357.49H919.234V1378H905.562V1330.15H939.742V1336.98H946.578V1350.66H939.742V1357.49ZM953.414 1378V1330.15H987.594V1336.98H967.086V1350.66H987.594V1357.49H967.086V1371.16H987.594V1378H953.414ZM1021.77 1378V1330.15H1035.45V1378H1021.77ZM1096.97 1336.98H1083.3V1350.66H1096.97V1336.98ZM1069.62 1378V1330.15H1103.8V1336.98H1110.64V1350.66H1103.8V1357.49H1110.64V1371.16H1103.8V1378H1069.62ZM1096.97 1371.16V1357.49H1083.3V1371.16H1096.97ZM1117.48 1378V1330.15H1151.66V1336.98H1131.15V1350.66H1151.66V1357.49H1131.15V1371.16H1151.66V1378H1117.48ZM1185.84 1372.02V1378H1165.33V1371.16H1158.49V1336.98H1165.33V1330.15H1199.51V1343.82H1192.67V1336.98H1172.16V1371.16H1184.98L1185.84 1370.31V1357.49H1179V1350.66H1199.51V1378H1192.67V1371.16H1186.69L1185.84 1372.02ZM1233.69 1357.49V1336.98H1220.02V1357.49H1233.69ZM1220.02 1364.33V1378H1206.34V1336.98H1213.18V1330.15H1240.52V1336.98H1247.36V1378H1233.69V1364.33H1220.02ZM1261.03 1357.49V1378H1254.2V1330.15H1267.87V1343.82H1274.7V1357.49H1281.54V1330.15H1295.21V1378H1281.54V1371.16H1267.87V1357.49H1261.03ZM331.344 1448.98H317.672V1462.66H331.344V1448.98ZM304 1490V1442.15H338.18V1448.98H345.016V1462.66H338.18V1469.49H345.016V1483.16H338.18V1490H304ZM331.344 1483.16V1469.49H317.672V1483.16H331.344ZM379.195 1462.66V1442.15H392.867V1462.66H386.031V1469.49H379.195V1490H365.523V1469.49H358.688V1462.66H351.852V1442.15H365.523V1462.66H379.195ZM433.883 1469.49V1490H427.047V1442.15H440.719V1455.82H461.227V1442.15H474.898V1490H461.227V1469.49H454.391V1483.16H440.719V1469.49H433.883ZM509.078 1469.49V1448.98H495.406V1469.49H509.078ZM495.406 1476.33V1490H481.734V1448.98H488.57V1442.15H515.914V1448.98H522.75V1490H509.078V1476.33H495.406ZM543.258 1490H529.586V1442.15H543.258V1462.66H550.094V1455.82H556.93V1442.15H570.602V1455.82H563.766V1462.66H556.93V1469.49H563.766V1476.33H570.602V1490H556.93V1476.33H550.094V1469.49H543.258V1490ZM577.438 1490V1442.15H591.109V1490H577.438ZM604.781 1469.49V1490H597.945V1442.15H611.617V1455.82H618.453V1469.49H625.289V1442.15H638.961V1490H625.289V1483.16H611.617V1469.49H604.781ZM673.141 1484.02V1490H652.633V1483.16H645.797V1448.98H652.633V1442.15H686.812V1455.82H679.977V1448.98H659.469V1483.16H672.286L673.141 1482.31V1469.49H666.305V1462.66H686.812V1490H679.977V1483.16H673.995L673.141 1484.02ZM748.336 1469.49V1448.98H734.664V1469.49H748.336ZM734.664 1476.33V1490H720.992V1448.98H727.828V1442.15H755.172V1448.98H762.008V1490H748.336V1476.33H734.664ZM823.531 1448.98H809.859V1462.66H830.367V1469.49H837.203V1483.16H830.367V1490H803.023V1483.16H796.188V1476.33H809.859V1483.16H823.531V1469.49H803.023V1462.66H796.188V1448.98H803.023V1442.15H830.367V1448.98H837.203V1455.82H823.531V1448.98ZM844.039 1490V1442.15H857.711V1490H844.039ZM871.383 1469.49V1490H864.547V1442.15H878.219V1455.82H898.727V1442.15H912.398V1490H898.727V1469.49H891.891V1483.16H878.219V1469.49H871.383ZM946.578 1448.98H932.906V1462.66H946.578V1448.98ZM953.414 1462.66V1469.49H932.906V1490H919.234V1442.15H953.414V1448.98H960.25V1462.66H953.414ZM1001.27 1481.46V1490H967.086V1442.15H980.758V1481.46H1001.27ZM1008.1 1490V1442.15H1042.28V1448.98H1021.77V1462.66H1042.28V1469.49H1021.77V1483.16H1042.28V1490H1008.1ZM1103.8 1484.02V1490H1083.3V1483.16H1076.46V1448.98H1083.3V1442.15H1117.48V1455.82H1110.64V1448.98H1090.13V1483.16H1102.95L1103.8 1482.31V1469.49H1096.97V1462.66H1117.48V1490H1110.64V1483.16H1104.66L1103.8 1484.02ZM1151.66 1469.49V1448.98H1137.98V1469.49H1151.66ZM1137.98 1476.33V1490H1124.31V1448.98H1131.15V1442.15H1158.49V1448.98H1165.33V1490H1151.66V1476.33H1137.98ZM1179 1469.49V1490H1172.16V1442.15H1185.84V1455.82H1206.34V1442.15H1220.02V1490H1206.34V1469.49H1199.51V1483.16H1185.84V1469.49H1179ZM1226.85 1490V1442.15H1261.03V1448.98H1240.52V1462.66H1261.03V1469.49H1240.52V1483.16H1261.03V1490H1226.85ZM345.016 1574.66V1554.15H351.852V1602H338.18V1588.33H317.672V1602H304V1554.15H317.672V1574.66H324.508V1560.98H338.18V1574.66H345.016ZM358.688 1602V1554.15H372.359V1602H358.688ZM420.211 1554.15V1560.98H406.539V1602H392.867V1560.98H379.195V1554.15H420.211ZM454.391 1554.15H468.062V1602H454.391V1581.49H440.719V1602H427.047V1554.15H440.719V1574.66H454.391V1554.15ZM509.078 1581.49V1602H502.242V1554.15H515.914V1567.82H536.422V1554.15H550.094V1602H536.422V1581.49H529.586V1595.16H515.914V1581.49H509.078ZM584.273 1574.66V1554.15H597.945V1574.66H591.109V1581.49H584.273V1602H570.602V1581.49H563.766V1574.66H556.93V1554.15H570.602V1574.66H584.273ZM645.797 1602H632.125V1554.15H645.797V1574.66H652.633V1567.82H659.469V1554.15H673.141V1567.82H666.305V1574.66H659.469V1581.49H666.305V1588.33H673.141V1602H659.469V1588.33H652.633V1581.49H645.797V1602ZM686.812 1581.49V1602H679.977V1554.15H693.648V1567.82H700.484V1581.49H707.32V1554.15H720.992V1602H707.32V1595.16H693.648V1581.49H686.812ZM755.172 1560.98H741.5V1595.16H755.172V1560.98ZM734.664 1595.16H727.828V1560.98H734.664V1554.15H762.008V1560.98H768.844V1595.16H762.008V1602H734.664V1595.16ZM816.695 1574.66V1554.15H823.531V1602H809.859V1588.33H789.352V1602H775.68V1554.15H789.352V1574.66H796.188V1560.98H809.859V1574.66H816.695ZM864.547 1593.46V1602H830.367V1554.15H844.039V1593.46H864.547ZM871.383 1602V1554.15H905.562V1560.98H885.055V1574.66H905.562V1581.49H885.055V1595.16H905.562V1602H871.383ZM939.742 1560.98H926.07V1595.16H939.742V1560.98ZM912.398 1602V1554.15H946.578V1560.98H953.414V1595.16H946.578V1602H912.398ZM987.594 1596.02V1602H967.086V1595.16H960.25V1560.98H967.086V1554.15H1001.27V1567.82H994.43V1560.98H973.922V1595.16H986.739L987.594 1594.31V1581.49H980.758V1574.66H1001.27V1602H994.43V1595.16H988.448L987.594 1596.02ZM1008.1 1602V1554.15H1042.28V1560.98H1021.77V1574.66H1042.28V1581.49H1021.77V1595.16H1042.28V1602H1008.1ZM1049.12 1602V1595.16H1055.95V1602H1049.12Z" fill="#3E3E3E"/>
<path d="M1664 258V210.148H1677.67V258H1664ZM1739.2 237.492V216.984H1725.52V237.492H1739.2ZM1725.52 244.328V258H1711.85V216.984H1718.69V210.148H1746.03V216.984H1752.87V258H1739.2V244.328H1725.52ZM1766.54 237.492V258H1759.7V210.148H1773.38V223.82H1793.88V210.148H1807.55V258H1793.88V237.492H1787.05V251.164H1773.38V237.492H1766.54ZM1869.08 216.984H1855.41V230.656H1875.91V237.492H1882.75V251.164H1875.91V258H1848.57V251.164H1841.73V244.328H1855.41V251.164H1869.08V237.492H1848.57V230.656H1841.73V216.984H1848.57V210.148H1875.91V216.984H1882.75V223.82H1869.08V216.984ZM1930.6 210.148V216.984H1916.93V258H1903.26V216.984H1889.59V210.148H1930.6ZM1964.78 210.148H1978.45V258H1944.27V251.164H1937.44V210.148H1951.11V251.164H1964.78V210.148ZM2012.63 216.984H1998.96V251.164H2012.63V216.984ZM1985.29 258V210.148H2019.47V216.984H2026.3V251.164H2019.47V258H1985.29ZM2060.48 230.656V210.148H2074.16V230.656H2067.32V237.492H2060.48V258H2046.81V237.492H2039.98V230.656H2033.14V210.148H2046.81V230.656H2060.48ZM2080.99 258V210.148H2094.66V258H2080.99ZM2108.34 237.492V258H2101.5V210.148H2115.17V223.82H2122.01V237.492H2128.84V210.148H2142.52V258H2128.84V251.164H2115.17V237.492H2108.34ZM2176.7 252.019V258H2156.19V251.164H2149.35V216.984H2156.19V210.148H2190.37V223.82H2183.53V216.984H2163.02V251.164H2175.84L2176.7 250.31V237.492H2169.86V230.656H2190.37V258H2183.53V251.164H2177.55L2176.7 252.019ZM2251.89 237.492V216.984H2238.22V237.492H2251.89ZM2238.22 244.328V258H2224.55V216.984H2231.38V210.148H2258.73V216.984H2265.56V258H2251.89V244.328H2238.22ZM2313.41 210.148V216.984H2299.74V258H2286.07V216.984H2272.4V210.148H2313.41ZM2374.94 237.492V216.984H2361.27V237.492H2374.94ZM2361.27 244.328V258H2347.59V216.984H2354.43V210.148H2381.77V216.984H2388.61V258H2374.94V244.328H2361.27ZM2450.13 244.328H2463.8V251.164H2456.97V258H2429.62V251.164H2422.79V216.984H2429.62V210.148H2456.97V216.984H2463.8V223.82H2450.13V216.984H2436.46V251.164H2450.13V244.328ZM2470.64 258V210.148H2504.82V216.984H2484.31V230.656H2504.82V237.492H2484.31V251.164H2504.82V258H2470.64ZM2518.49 237.492V258H2511.66V210.148H2525.33V223.82H2532.16V237.492H2539V210.148H2552.67V258H2539V251.164H2525.33V237.492H2518.49ZM2600.52 210.148V216.984H2586.85V258H2573.18V216.984H2559.51V210.148H2600.52ZM2607.36 258V210.148H2641.54V216.984H2621.03V230.656H2641.54V237.492H2621.03V251.164H2641.54V258H2607.36ZM2675.72 216.984H2662.05V230.656H2675.72V216.984ZM2682.55 237.492H2689.39V258H2675.72V237.492H2662.05V258H2648.38V210.148H2682.55V216.984H2689.39V230.656H2682.55V237.492ZM1691.34 356.328H1705.02V363.164H1698.18V370H1670.84V363.164H1664V328.984H1670.84V322.148H1698.18V328.984H1705.02V335.82H1691.34V328.984H1677.67V363.164H1691.34V356.328ZM1739.2 349.492V328.984H1725.52V349.492H1739.2ZM1725.52 356.328V370H1711.85V328.984H1718.69V322.148H1746.03V328.984H1752.87V370H1739.2V356.328H1725.52ZM1793.88 361.455V370H1759.7V322.148H1773.38V361.455H1793.88ZM1834.9 361.455V370H1800.72V322.148H1814.39V361.455H1834.9ZM1841.73 370V322.148H1875.91V328.984H1855.41V342.656H1875.91V349.492H1855.41V363.164H1875.91V370H1841.73ZM1910.09 328.984H1896.42V363.164H1910.09V328.984ZM1882.75 370V322.148H1916.93V328.984H1923.77V363.164H1916.93V370H1882.75ZM1971.62 370H1957.95V322.148H1971.62V342.656H1978.45V335.82H1985.29V322.148H1998.96V335.82H1992.12V342.656H1985.29V349.492H1992.12V356.328H1998.96V370H1985.29V356.328H1978.45V349.492H1971.62V370ZM2005.8 370V322.148H2019.47V370H2005.8ZM2053.65 328.984H2039.98V363.164H2053.65V328.984ZM2026.3 370V322.148H2060.48V328.984H2067.32V363.164H2060.48V370H2026.3ZM2101.5 356.328H2115.17V363.164H2108.34V370H2080.99V363.164H2074.16V328.984H2080.99V322.148H2108.34V328.984H2115.17V335.82H2101.5V328.984H2087.83V363.164H2101.5V356.328ZM2149.35 328.984H2135.68V363.164H2149.35V328.984ZM2128.84 363.164H2122.01V328.984H2128.84V322.148H2156.19V328.984H2163.02V363.164H2156.19V370H2128.84V363.164ZM2197.2 328.984H2183.53V363.164H2197.2V328.984ZM2169.86 370V322.148H2204.04V328.984H2210.88V363.164H2204.04V370H2169.86ZM2217.71 370V322.148H2251.89V328.984H2231.38V342.656H2251.89V349.492H2231.38V363.164H2251.89V370H2217.71ZM2320.25 322.148V328.984H2299.74V342.656H2320.25V349.492H2299.74V370H2286.07V322.148H2320.25ZM2354.43 328.984H2340.76V363.164H2354.43V328.984ZM2333.92 363.164H2327.09V328.984H2333.92V322.148H2361.27V328.984H2368.1V363.164H2361.27V370H2333.92V363.164ZM2402.28 328.984H2388.61V342.656H2402.28V328.984ZM2409.12 349.492H2415.95V370H2402.28V349.492H2388.61V370H2374.94V322.148H2409.12V328.984H2415.95V342.656H2409.12V349.492ZM2477.48 349.492V328.984H2463.8V349.492H2477.48ZM2463.8 356.328V370H2450.13V328.984H2456.97V322.148H2484.31V328.984H2491.15V370H2477.48V356.328H2463.8ZM2525.33 328.984H2511.66V342.656H2525.33V328.984ZM2532.16 349.492H2539V370H2525.33V349.492H2511.66V370H2497.98V322.148H2532.16V328.984H2539V342.656H2532.16V349.492ZM2573.18 328.984H2559.51V363.164H2573.18V328.984ZM2552.67 363.164H2545.84V328.984H2552.67V322.148H2580.02V328.984H2586.85V363.164H2580.02V370H2552.67V363.164ZM2621.03 322.148H2634.7V370H2600.52V363.164H2593.69V322.148H2607.36V363.164H2621.03V322.148ZM2648.38 349.492V370H2641.54V322.148H2655.21V335.82H2662.05V349.492H2668.88V322.148H2682.55V370H2668.88V363.164H2655.21V349.492H2648.38ZM2716.73 328.984H2703.06V363.164H2716.73V328.984ZM2689.39 370V322.148H2723.57V328.984H2730.41V363.164H2723.57V370H2689.39ZM1698.18 468.328V482H1684.51V468.328H1664V434.148H1670.84V461.492H1684.51V434.148H1698.18V461.492H1705.02V468.328H1698.18ZM1766.54 454.656V434.148H1780.21V454.656H1773.38V461.492H1766.54V482H1752.87V461.492H1746.03V454.656H1739.2V434.148H1752.87V454.656H1766.54ZM1787.05 482V434.148H1821.23V440.984H1800.72V454.656H1821.23V461.492H1800.72V475.164H1821.23V482H1787.05ZM1855.41 461.492V440.984H1841.73V461.492H1855.41ZM1841.73 468.328V482H1828.06V440.984H1834.9V434.148H1862.24V440.984H1869.08V482H1855.41V468.328H1841.73ZM1903.26 440.984H1889.59V454.656H1903.26V440.984ZM1910.09 461.492H1916.93V482H1903.26V461.492H1889.59V482H1875.91V434.148H1910.09V440.984H1916.93V454.656H1910.09V461.492ZM1951.11 440.984H1937.44V454.656H1957.95V461.492H1964.78V475.164H1957.95V482H1930.6V475.164H1923.77V468.328H1937.44V475.164H1951.11V461.492H1930.6V454.656H1923.77V440.984H1930.6V434.148H1957.95V440.984H1964.78V447.82H1951.11V440.984ZM1971.62 482V475.164H1978.45V482H1971.62ZM2046.81 434.148V440.984H2026.3V454.656H2046.81V461.492H2026.3V482H2012.63V434.148H2046.81ZM2080.99 440.984H2067.32V454.656H2080.99V440.984ZM2087.83 461.492H2094.66V482H2080.99V461.492H2067.32V482H2053.65V434.148H2087.83V440.984H2094.66V454.656H2087.83V461.492ZM2128.84 440.984H2115.17V475.164H2128.84V440.984ZM2108.34 475.164H2101.5V440.984H2108.34V434.148H2135.68V440.984H2142.52V475.164H2135.68V482H2108.34V475.164ZM2156.19 461.492V482H2149.35V434.148H2163.02V447.82H2183.53V434.148H2197.2V482H2183.53V461.492H2176.7V475.164H2163.02V461.492H2156.19ZM2272.4 434.148V440.984H2258.73V482H2245.05V440.984H2231.38V434.148H2272.4ZM2306.58 434.148H2320.25V482H2306.58V461.492H2292.91V482H2279.23V434.148H2292.91V454.656H2306.58V434.148ZM2327.09 482V434.148H2361.27V440.984H2340.76V454.656H2361.27V461.492H2340.76V475.164H2361.27V482H2327.09ZM2395.45 440.984H2381.77V454.656H2395.45V440.984ZM2402.28 461.492H2409.12V482H2395.45V461.492H2381.77V482H2368.1V434.148H2402.28V440.984H2409.12V454.656H2402.28V461.492ZM2415.95 482V434.148H2450.13V440.984H2429.62V454.656H2450.13V461.492H2429.62V475.164H2450.13V482H2415.95ZM2456.97 488.836V475.164H2463.8V488.836H2456.97ZM2497.98 482V434.148H2511.66V482H2497.98ZM2573.18 434.148H2586.85V482H2573.18V461.492H2559.51V482H2545.84V434.148H2559.51V454.656H2573.18V434.148ZM2621.03 461.492V440.984H2607.36V461.492H2621.03ZM2607.36 468.328V482H2593.69V440.984H2600.52V434.148H2627.87V440.984H2634.7V482H2621.03V468.328H2607.36ZM2668.88 468.328V434.148H2682.55V468.328H2675.72V475.164H2668.88V482H2655.21V475.164H2648.38V468.328H2641.54V434.148H2655.21V468.328H2668.88ZM2689.39 482V434.148H2723.57V440.984H2703.06V454.656H2723.57V461.492H2703.06V475.164H2723.57V482H2689.39ZM1698.18 585.455V594H1664V546.148H1677.67V585.455H1698.18ZM1705.02 594V546.148H1739.2V552.984H1718.69V566.656H1739.2V573.492H1718.69V587.164H1739.2V594H1705.02ZM1773.38 573.492V552.984H1759.7V573.492H1773.38ZM1759.7 580.328V594H1746.03V552.984H1752.87V546.148H1780.21V552.984H1787.05V594H1773.38V580.328H1759.7ZM1821.23 552.984H1807.55V566.656H1821.23V552.984ZM1828.06 573.492H1834.9V594H1821.23V573.492H1807.55V594H1793.88V546.148H1828.06V552.984H1834.9V566.656H1828.06V573.492ZM1848.57 573.492V594H1841.73V546.148H1855.41V559.82H1862.24V573.492H1869.08V546.148H1882.75V594H1869.08V587.164H1855.41V573.492H1848.57ZM1889.59 594V546.148H1923.77V552.984H1903.26V566.656H1923.77V573.492H1903.26V587.164H1923.77V594H1889.59ZM1957.95 552.984H1944.27V587.164H1957.95V552.984ZM1930.6 594V546.148H1964.78V552.984H1971.62V587.164H1964.78V594H1930.6ZM2033.14 573.492V552.984H2019.47V573.492H2033.14ZM2019.47 580.328V594H2005.8V552.984H2012.63V546.148H2039.98V552.984H2046.81V594H2033.14V580.328H2019.47ZM2115.17 585.455V594H2080.99V546.148H2094.66V585.455H2115.17ZM2149.35 552.984H2135.68V587.164H2149.35V552.984ZM2128.84 587.164H2122.01V552.984H2128.84V546.148H2156.19V552.984H2163.02V587.164H2156.19V594H2128.84V587.164ZM2210.88 546.148V552.984H2197.2V594H2183.53V552.984H2169.86V546.148H2210.88ZM2272.4 552.984H2258.73V587.164H2272.4V552.984ZM2251.89 587.164H2245.05V552.984H2251.89V546.148H2279.23V552.984H2286.07V587.164H2279.23V594H2251.89V587.164ZM2327.09 546.148V552.984H2306.58V566.656H2327.09V573.492H2306.58V594H2292.91V546.148H2327.09ZM2402.28 546.148V552.984H2388.61V594H2374.94V552.984H2361.27V546.148H2402.28ZM2436.46 546.148H2450.13V594H2436.46V573.492H2422.79V594H2409.12V546.148H2422.79V566.656H2436.46V546.148ZM2456.97 594V546.148H2470.64V594H2456.97ZM2484.31 573.492V594H2477.48V546.148H2491.15V559.82H2497.98V573.492H2504.82V546.148H2518.49V594H2504.82V587.164H2491.15V573.492H2484.31ZM2552.67 588.019V594H2532.16V587.164H2525.33V552.984H2532.16V546.148H2566.34V559.82H2559.51V552.984H2539V587.164H2551.82L2552.67 586.31V573.492H2545.84V566.656H2566.34V594H2559.51V587.164H2553.53L2552.67 588.019ZM2600.52 552.984H2586.85V566.656H2607.36V573.492H2614.2V587.164H2607.36V594H2580.02V587.164H2573.18V580.328H2586.85V587.164H2600.52V573.492H2580.02V566.656H2573.18V552.984H2580.02V546.148H2607.36V552.984H2614.2V559.82H2600.52V552.984ZM1691.34 685.492V664.984H1677.67V685.492H1691.34ZM1677.67 692.328V706H1664V664.984H1670.84V658.148H1698.18V664.984H1705.02V706H1691.34V692.328H1677.67ZM1746.03 697.455V706H1711.85V658.148H1725.52V697.455H1746.03ZM1780.21 664.984H1766.54V699.164H1780.21V664.984ZM1759.7 699.164H1752.87V664.984H1759.7V658.148H1787.05V664.984H1793.88V699.164H1787.05V706H1759.7V699.164ZM1807.55 685.492V706H1800.72V658.148H1814.39V671.82H1821.23V685.492H1828.06V658.148H1841.73V706H1828.06V699.164H1814.39V685.492H1807.55ZM1875.91 700.019V706H1855.41V699.164H1848.57V664.984H1855.41V658.148H1889.59V671.82H1882.75V664.984H1862.24V699.164H1875.06L1875.91 698.31V685.492H1869.08V678.656H1889.59V706H1882.75V699.164H1876.77L1875.91 700.019ZM1964.78 658.148V664.984H1951.11V706H1937.44V664.984H1923.77V658.148H1964.78ZM1998.96 658.148H2012.63V706H1998.96V685.492H1985.29V706H1971.62V658.148H1985.29V678.656H1998.96V658.148ZM2019.47 706V658.148H2053.65V664.984H2033.14V678.656H2053.65V685.492H2033.14V699.164H2053.65V706H2019.47ZM2128.84 678.656V658.148H2135.68V706H2122.01V692.328H2101.5V706H2087.83V658.148H2101.5V678.656H2108.34V664.984H2122.01V678.656H2128.84ZM2169.86 685.492V664.984H2156.19V685.492H2169.86ZM2156.19 692.328V706H2142.52V664.984H2149.35V658.148H2176.7V664.984H2183.53V706H2169.86V692.328H2156.19ZM2217.71 678.656V658.148H2231.38V678.656H2224.55V685.492H2217.71V706H2204.04V685.492H2197.2V678.656H2190.37V658.148H2204.04V678.656H2217.71ZM2238.22 712.836V699.164H2245.05V712.836H2238.22ZM2306.58 664.984H2292.91V678.656H2313.41V685.492H2320.25V699.164H2313.41V706H2286.07V699.164H2279.23V692.328H2292.91V699.164H2306.58V685.492H2286.07V678.656H2279.23V664.984H2286.07V658.148H2313.41V664.984H2320.25V671.82H2306.58V664.984ZM2354.43 658.148H2368.1V706H2333.92V699.164H2327.09V658.148H2340.76V699.164H2354.43V658.148ZM2402.28 692.328H2415.95V699.164H2409.12V706H2381.77V699.164H2374.94V664.984H2381.77V658.148H2409.12V664.984H2415.95V671.82H2402.28V664.984H2388.61V699.164H2402.28V692.328ZM2450.13 658.148H2463.8V706H2450.13V685.492H2436.46V706H2422.79V658.148H2436.46V678.656H2450.13V658.148ZM2525.33 685.492V664.984H2511.66V685.492H2525.33ZM2511.66 692.328V706H2497.98V664.984H2504.82V658.148H2532.16V664.984H2539V706H2525.33V692.328H2511.66ZM2573.18 664.984H2559.51V678.656H2580.02V685.492H2586.85V699.164H2580.02V706H2552.67V699.164H2545.84V692.328H2559.51V699.164H2573.18V685.492H2552.67V678.656H2545.84V664.984H2552.67V658.148H2580.02V664.984H2586.85V671.82H2573.18V664.984ZM2593.69 712.836V699.164H2600.52V712.836H2593.69ZM1705.02 790.656V770.148H1711.85V818H1698.18V804.328H1677.67V818H1664V770.148H1677.67V790.656H1684.51V776.984H1698.18V790.656H1705.02ZM1718.69 818V770.148H1752.87V776.984H1732.36V790.656H1752.87V797.492H1732.36V811.164H1752.87V818H1718.69ZM1787.05 776.984H1773.38V790.656H1787.05V776.984ZM1759.7 818V770.148H1793.88V776.984H1800.72V790.656H1793.88V797.492H1800.72V811.164H1793.88V818H1759.7ZM1787.05 811.164V797.492H1773.38V811.164H1787.05ZM1862.24 776.984H1848.57V811.164H1862.24V776.984ZM1834.9 818V770.148H1869.08V776.984H1875.91V811.164H1869.08V818H1834.9ZM1882.75 818V770.148H1916.93V776.984H1896.42V790.656H1916.93V797.492H1896.42V811.164H1916.93V818H1882.75ZM1951.11 804.328V770.148H1964.78V804.328H1957.95V811.164H1951.11V818H1937.44V811.164H1930.6V804.328H1923.77V770.148H1937.44V804.328H1951.11ZM1971.62 818V770.148H2005.8V776.984H1985.29V790.656H2005.8V797.492H1985.29V811.164H2005.8V818H1971.62ZM2046.81 809.455V818H2012.63V770.148H2026.3V809.455H2046.81ZM2080.99 776.984H2067.32V811.164H2080.99V776.984ZM2060.48 811.164H2053.65V776.984H2060.48V770.148H2087.83V776.984H2094.66V811.164H2087.83V818H2060.48V811.164ZM2128.84 776.984H2115.17V790.656H2128.84V776.984ZM2135.68 790.656V797.492H2115.17V818H2101.5V770.148H2135.68V776.984H2142.52V790.656H2135.68ZM2156.19 797.492V818H2149.35V770.148H2163.02V783.82H2183.53V770.148H2197.2V818H2183.53V797.492H2176.7V811.164H2163.02V797.492H2156.19ZM2204.04 818V770.148H2238.22V776.984H2217.71V790.656H2238.22V797.492H2217.71V811.164H2238.22V818H2204.04ZM2251.89 797.492V818H2245.05V770.148H2258.73V783.82H2265.56V797.492H2272.4V770.148H2286.07V818H2272.4V811.164H2258.73V797.492H2251.89ZM2333.92 770.148V776.984H2320.25V818H2306.58V776.984H2292.91V770.148H2333.92ZM2340.76 824.836V811.164H2347.59V824.836H2340.76ZM2409.12 812.019V818H2388.61V811.164H2381.77V776.984H2388.61V770.148H2422.79V783.82H2415.95V776.984H2395.45V811.164H2408.26L2409.12 810.31V797.492H2402.28V790.656H2422.79V818H2415.95V811.164H2409.97L2409.12 812.019ZM2456.97 797.492V776.984H2443.3V797.492H2456.97ZM2443.3 804.328V818H2429.62V776.984H2436.46V770.148H2463.8V776.984H2470.64V818H2456.97V804.328H2443.3ZM2484.31 797.492V818H2477.48V770.148H2491.15V783.82H2511.66V770.148H2525.33V818H2511.66V797.492H2504.82V811.164H2491.15V797.492H2484.31ZM2532.16 818V770.148H2566.34V776.984H2545.84V790.656H2566.34V797.492H2545.84V811.164H2566.34V818H2532.16ZM1691.34 888.984H1677.67V923.164H1691.34V888.984ZM1664 930V882.148H1698.18V888.984H1705.02V923.164H1698.18V930H1664ZM1711.85 930V882.148H1746.03V888.984H1725.52V902.656H1746.03V909.492H1725.52V923.164H1746.03V930H1711.85ZM1780.21 916.328V882.148H1793.88V916.328H1787.05V923.164H1780.21V930H1766.54V923.164H1759.7V916.328H1752.87V882.148H1766.54V916.328H1780.21ZM1800.72 930V882.148H1834.9V888.984H1814.39V902.656H1834.9V909.492H1814.39V923.164H1834.9V930H1800.72ZM1875.91 921.455V930H1841.73V882.148H1855.41V921.455H1875.91ZM1910.09 888.984H1896.42V923.164H1910.09V888.984ZM1889.59 923.164H1882.75V888.984H1889.59V882.148H1916.93V888.984H1923.77V923.164H1916.93V930H1889.59V923.164ZM1957.95 888.984H1944.27V902.656H1957.95V888.984ZM1964.78 902.656V909.492H1944.27V930H1930.6V882.148H1964.78V888.984H1971.62V902.656H1964.78ZM1985.29 909.492V930H1978.45V882.148H1992.12V895.82H2012.63V882.148H2026.3V930H2012.63V909.492H2005.8V923.164H1992.12V909.492H1985.29ZM2033.14 930V882.148H2067.32V888.984H2046.81V902.656H2067.32V909.492H2046.81V923.164H2067.32V930H2033.14ZM2080.99 909.492V930H2074.16V882.148H2087.83V895.82H2094.66V909.492H2101.5V882.148H2115.17V930H2101.5V923.164H2087.83V909.492H2080.99ZM2163.02 882.148V888.984H2149.35V930H2135.68V888.984H2122.01V882.148H2163.02ZM2169.86 936.836V923.164H2176.7V936.836H2169.86ZM2238.22 888.984H2224.55V923.164H2238.22V888.984ZM2210.88 930V882.148H2245.05V888.984H2251.89V923.164H2245.05V930H2210.88ZM2258.73 930V882.148H2292.91V888.984H2272.4V902.656H2292.91V909.492H2272.4V923.164H2292.91V930H2258.73ZM2327.09 888.984H2313.41V902.656H2333.92V909.492H2340.76V923.164H2333.92V930H2306.58V923.164H2299.74V916.328H2313.41V923.164H2327.09V909.492H2306.58V902.656H2299.74V888.984H2306.58V882.148H2333.92V888.984H2340.76V895.82H2327.09V888.984ZM2347.59 930V882.148H2361.27V930H2347.59ZM2395.45 924.019V930H2374.94V923.164H2368.1V888.984H2374.94V882.148H2409.12V895.82H2402.28V888.984H2381.77V923.164H2394.59L2395.45 922.31V909.492H2388.61V902.656H2409.12V930H2402.28V923.164H2396.3L2395.45 924.019ZM2422.79 909.492V930H2415.95V882.148H2429.62V895.82H2436.46V909.492H2443.3V882.148H2456.97V930H2443.3V923.164H2429.62V909.492H2422.79ZM2463.8 930V882.148H2477.48V930H2463.8ZM2491.15 909.492V930H2484.31V882.148H2497.98V895.82H2504.82V909.492H2511.66V882.148H2525.33V930H2511.66V923.164H2497.98V909.492H2491.15ZM2559.51 924.019V930H2539V923.164H2532.16V888.984H2539V882.148H2573.18V895.82H2566.34V888.984H2545.84V923.164H2558.65L2559.51 922.31V909.492H2552.67V902.656H2573.18V930H2566.34V923.164H2560.36L2559.51 924.019ZM1691.34 1021.49V1000.98H1677.67V1021.49H1691.34ZM1677.67 1028.33V1042H1664V1000.98H1670.84V994.148H1698.18V1000.98H1705.02V1042H1691.34V1028.33H1677.67ZM1718.69 1021.49V1042H1711.85V994.148H1725.52V1007.82H1732.36V1021.49H1739.2V994.148H1752.87V1042H1739.2V1035.16H1725.52V1021.49H1718.69ZM1787.05 1000.98H1773.38V1035.16H1787.05V1000.98ZM1759.7 1042V994.148H1793.88V1000.98H1800.72V1035.16H1793.88V1042H1759.7ZM1841.73 1021.49V1042H1834.9V994.148H1848.57V1007.82H1869.08V994.148H1882.75V1042H1869.08V1021.49H1862.24V1035.16H1848.57V1021.49H1841.73ZM1916.93 1000.98H1903.26V1035.16H1916.93V1000.98ZM1896.42 1035.16H1889.59V1000.98H1896.42V994.148H1923.77V1000.98H1930.6V1035.16H1923.77V1042H1896.42V1035.16ZM1964.78 1000.98H1951.11V1014.66H1964.78V1000.98ZM1971.62 1021.49H1978.45V1042H1964.78V1021.49H1951.11V1042H1937.44V994.148H1971.62V1000.98H1978.45V1014.66H1971.62V1021.49ZM1985.29 1042V994.148H2019.47V1000.98H1998.96V1014.66H2019.47V1021.49H1998.96V1035.16H2019.47V1042H1985.29ZM2026.3 1042V1035.16H2033.14V1042H2026.3ZM2094.66 1028.33H2108.34V1035.16H2101.5V1042H2074.16V1035.16H2067.32V1000.98H2074.16V994.148H2101.5V1000.98H2108.34V1007.82H2094.66V1000.98H2080.99V1035.16H2094.66V1028.33ZM2142.52 994.148H2156.19V1042H2122.01V1035.16H2115.17V994.148H2128.84V1035.16H2142.52V994.148ZM2190.37 1000.98H2176.7V1014.66H2190.37V1000.98ZM2197.2 1021.49H2204.04V1042H2190.37V1021.49H2176.7V1042H2163.02V994.148H2197.2V1000.98H2204.04V1014.66H2197.2V1021.49ZM2238.22 1000.98H2224.55V1014.66H2238.22V1000.98ZM2245.05 1021.49H2251.89V1042H2238.22V1021.49H2224.55V1042H2210.88V994.148H2245.05V1000.98H2251.89V1014.66H2245.05V1021.49ZM2258.73 1042V994.148H2292.91V1000.98H2272.4V1014.66H2292.91V1021.49H2272.4V1035.16H2292.91V1042H2258.73ZM2306.58 1021.49V1042H2299.74V994.148H2313.41V1007.82H2320.25V1021.49H2327.09V994.148H2340.76V1042H2327.09V1035.16H2313.41V1021.49H2306.58ZM2388.61 994.148V1000.98H2374.94V1042H2361.27V1000.98H2347.59V994.148H2388.61ZM2429.62 1033.46V1042H2395.45V994.148H2409.12V1033.46H2429.62ZM2463.8 1014.66V994.148H2477.48V1014.66H2470.64V1021.49H2463.8V1042H2450.13V1021.49H2443.3V1014.66H2436.46V994.148H2450.13V1014.66H2463.8ZM2484.31 1048.84V1035.16H2491.15V1048.84H2484.31ZM2525.33 1042V994.148H2539V1042H2525.33ZM2600.52 1021.49V1000.98H2586.85V1021.49H2600.52ZM2586.85 1028.33V1042H2573.18V1000.98H2580.02V994.148H2607.36V1000.98H2614.2V1042H2600.52V1028.33H2586.85ZM2627.87 1021.49V1042H2621.03V994.148H2634.7V1007.82H2655.21V994.148H2668.88V1042H2655.21V1021.49H2648.38V1035.16H2634.7V1021.49H2627.87ZM1691.34 1133.49V1112.98H1677.67V1133.49H1691.34ZM1677.67 1140.33V1154H1664V1112.98H1670.84V1106.15H1698.18V1112.98H1705.02V1154H1691.34V1140.33H1677.67ZM1766.54 1112.98H1752.87V1126.66H1773.38V1133.49H1780.21V1147.16H1773.38V1154H1746.03V1147.16H1739.2V1140.33H1752.87V1147.16H1766.54V1133.49H1746.03V1126.66H1739.2V1112.98H1746.03V1106.15H1773.38V1112.98H1780.21V1119.82H1766.54V1112.98ZM1828.06 1106.15V1112.98H1814.39V1154H1800.72V1112.98H1787.05V1106.15H1828.06ZM1862.24 1106.15H1875.91V1154H1841.73V1147.16H1834.9V1106.15H1848.57V1147.16H1862.24V1106.15ZM1910.09 1112.98H1896.42V1147.16H1910.09V1112.98ZM1882.75 1154V1106.15H1916.93V1112.98H1923.77V1147.16H1916.93V1154H1882.75ZM1930.6 1154V1106.15H1964.78V1112.98H1944.27V1126.66H1964.78V1133.49H1944.27V1147.16H1964.78V1154H1930.6ZM1978.45 1133.49V1154H1971.62V1106.15H1985.29V1119.82H1992.12V1133.49H1998.96V1106.15H2012.63V1154H1998.96V1147.16H1985.29V1133.49H1978.45ZM2060.48 1106.15V1112.98H2046.81V1154H2033.14V1112.98H2019.47V1106.15H2060.48ZM2067.32 1126.66H2101.5V1133.49H2067.32V1126.66ZM2108.34 1154V1106.15H2122.01V1154H2108.34ZM2135.68 1133.49V1154H2128.84V1106.15H2142.52V1119.82H2149.35V1133.49H2156.19V1106.15H2169.86V1154H2156.19V1147.16H2142.52V1133.49H2135.68ZM2217.71 1106.15V1112.98H2204.04V1154H2190.37V1112.98H2176.7V1106.15H2217.71ZM2224.55 1154V1106.15H2258.73V1112.98H2238.22V1126.66H2258.73V1133.49H2238.22V1147.16H2258.73V1154H2224.55ZM2292.91 1112.98H2279.23V1126.66H2292.91V1112.98ZM2299.74 1133.49H2306.58V1154H2292.91V1133.49H2279.23V1154H2265.56V1106.15H2299.74V1112.98H2306.58V1126.66H2299.74V1133.49ZM2320.25 1133.49V1154H2313.41V1106.15H2327.09V1119.82H2333.92V1133.49H2340.76V1106.15H2354.43V1154H2340.76V1147.16H2327.09V1133.49H2320.25ZM2415.95 1133.49V1112.98H2402.28V1133.49H2415.95ZM2402.28 1140.33V1154H2388.61V1112.98H2395.45V1106.15H2422.79V1112.98H2429.62V1154H2415.95V1140.33H2402.28ZM2443.3 1133.49V1154H2436.46V1106.15H2450.13V1119.82H2456.97V1133.49H2463.8V1106.15H2477.48V1154H2463.8V1147.16H2450.13V1133.49H2443.3ZM2511.66 1112.98H2497.98V1147.16H2511.66V1112.98ZM2484.31 1154V1106.15H2518.49V1112.98H2525.33V1147.16H2518.49V1154H2484.31ZM2566.34 1133.49V1154H2559.51V1106.15H2573.18V1119.82H2593.69V1106.15H2607.36V1154H2593.69V1133.49H2586.85V1147.16H2573.18V1133.49H2566.34ZM2641.54 1126.66V1106.15H2655.21V1126.66H2648.38V1133.49H2641.54V1154H2627.87V1133.49H2621.03V1126.66H2614.2V1106.15H2627.87V1126.66H2641.54ZM1684.51 1218.15H1698.18V1259.16H1691.34V1266H1664V1252.33H1670.84V1259.16H1684.51V1218.15ZM1732.36 1224.98H1718.69V1259.16H1732.36V1224.98ZM1711.85 1259.16H1705.02V1224.98H1711.85V1218.15H1739.2V1224.98H1746.03V1259.16H1739.2V1266H1711.85V1259.16ZM1780.21 1224.98H1766.54V1238.66H1780.21V1224.98ZM1752.87 1266V1218.15H1787.05V1224.98H1793.88V1238.66H1787.05V1245.49H1793.88V1259.16H1787.05V1266H1752.87ZM1780.21 1259.16V1245.49H1766.54V1259.16H1780.21ZM1828.06 1266V1218.15H1841.73V1266H1828.06ZM1875.91 1224.98H1862.24V1238.66H1882.75V1245.49H1889.59V1259.16H1882.75V1266H1855.41V1259.16H1848.57V1252.33H1862.24V1259.16H1875.91V1245.49H1855.41V1238.66H1848.57V1224.98H1855.41V1218.15H1882.75V1224.98H1889.59V1231.82H1875.91V1224.98ZM1964.78 1218.15V1224.98H1951.11V1266H1937.44V1224.98H1923.77V1218.15H1964.78ZM1998.96 1224.98H1985.29V1259.16H1998.96V1224.98ZM1978.45 1259.16H1971.62V1224.98H1978.45V1218.15H2005.8V1224.98H2012.63V1259.16H2005.8V1266H1978.45V1259.16ZM2087.83 1218.15V1224.98H2074.16V1266H2060.48V1224.98H2046.81V1218.15H2087.83ZM2122.01 1224.98H2108.34V1238.66H2122.01V1224.98ZM2128.84 1245.49H2135.68V1266H2122.01V1245.49H2108.34V1266H2094.66V1218.15H2128.84V1224.98H2135.68V1238.66H2128.84V1245.49ZM2169.86 1245.49V1224.98H2156.19V1245.49H2169.86ZM2156.19 1252.33V1266H2142.52V1224.98H2149.35V1218.15H2176.7V1224.98H2183.53V1266H2169.86V1252.33H2156.19ZM2190.37 1266V1218.15H2204.04V1266H2190.37ZM2217.71 1245.49V1266H2210.88V1218.15H2224.55V1231.82H2231.38V1245.49H2238.22V1218.15H2251.89V1266H2238.22V1259.16H2224.55V1245.49H2217.71ZM2313.41 1224.98H2299.74V1238.66H2320.25V1245.49H2327.09V1259.16H2320.25V1266H2292.91V1259.16H2286.07V1252.33H2299.74V1259.16H2313.41V1245.49H2292.91V1238.66H2286.07V1224.98H2292.91V1218.15H2320.25V1224.98H2327.09V1231.82H2313.41V1224.98ZM2374.94 1218.15V1224.98H2361.27V1266H2347.59V1224.98H2333.92V1218.15H2374.94ZM2409.12 1218.15H2422.79V1266H2388.61V1259.16H2381.77V1218.15H2395.45V1259.16H2409.12V1218.15ZM2456.97 1224.98H2443.3V1259.16H2456.97V1224.98ZM2429.62 1266V1218.15H2463.8V1224.98H2470.64V1259.16H2463.8V1266H2429.62ZM2477.48 1266V1218.15H2511.66V1224.98H2491.15V1238.66H2511.66V1245.49H2491.15V1259.16H2511.66V1266H2477.48ZM2525.33 1245.49V1266H2518.49V1218.15H2532.16V1231.82H2539V1245.49H2545.84V1218.15H2559.51V1266H2545.84V1259.16H2532.16V1245.49H2525.33ZM2607.36 1218.15V1224.98H2593.69V1266H2580.02V1224.98H2566.34V1218.15H2607.36ZM2641.54 1224.98H2627.87V1238.66H2648.38V1245.49H2655.21V1259.16H2648.38V1266H2621.03V1259.16H2614.2V1252.33H2627.87V1259.16H2641.54V1245.49H2621.03V1238.66H2614.2V1224.98H2621.03V1218.15H2648.38V1224.98H2655.21V1231.82H2641.54V1224.98ZM1705.02 1350.66V1330.15H1711.85V1378H1698.18V1364.33H1677.67V1378H1664V1330.15H1677.67V1350.66H1684.51V1336.98H1698.18V1350.66H1705.02ZM1746.03 1330.15H1759.7V1378H1746.03V1357.49H1732.36V1378H1718.69V1330.15H1732.36V1350.66H1746.03V1330.15ZM1766.54 1378V1330.15H1800.72V1336.98H1780.21V1350.66H1800.72V1357.49H1780.21V1371.16H1800.72V1378H1766.54ZM1814.39 1357.49V1378H1807.55V1330.15H1821.23V1343.82H1828.06V1357.49H1834.9V1330.15H1848.57V1378H1834.9V1371.16H1821.23V1357.49H1814.39ZM1923.77 1330.15V1336.98H1910.09V1378H1896.42V1336.98H1882.75V1330.15H1923.77ZM1957.95 1330.15H1971.62V1378H1957.95V1357.49H1944.27V1378H1930.6V1330.15H1944.27V1350.66H1957.95V1330.15ZM1978.45 1378V1330.15H2012.63V1336.98H1992.12V1350.66H2012.63V1357.49H1992.12V1371.16H2012.63V1378H1978.45ZM2046.81 1350.66V1330.15H2060.48V1350.66H2053.65V1357.49H2046.81V1378H2033.14V1357.49H2026.3V1350.66H2019.47V1330.15H2033.14V1350.66H2046.81ZM2122.01 1364.33H2135.68V1371.16H2128.84V1378H2101.5V1371.16H2094.66V1336.98H2101.5V1330.15H2128.84V1336.98H2135.68V1343.82H2122.01V1336.98H2108.34V1371.16H2122.01V1364.33ZM2169.86 1336.98H2156.19V1371.16H2169.86V1336.98ZM2149.35 1371.16H2142.52V1336.98H2149.35V1330.15H2176.7V1336.98H2183.53V1371.16H2176.7V1378H2149.35V1371.16ZM2197.2 1357.49V1378H2190.37V1330.15H2204.04V1343.82H2224.55V1330.15H2238.22V1378H2224.55V1357.49H2217.71V1371.16H2204.04V1357.49H2197.2ZM2245.05 1378V1330.15H2279.23V1336.98H2258.73V1350.66H2279.23V1357.49H2258.73V1371.16H2279.23V1378H2245.05ZM2354.43 1330.15V1336.98H2340.76V1378H2327.09V1336.98H2313.41V1330.15H2354.43ZM2388.61 1336.98H2374.94V1371.16H2388.61V1336.98ZM2368.1 1371.16H2361.27V1336.98H2368.1V1330.15H2395.45V1336.98H2402.28V1371.16H2395.45V1378H2368.1V1371.16ZM1677.67 1490H1664V1442.15H1677.67V1462.66H1684.51V1455.82H1691.34V1442.15H1705.02V1455.82H1698.18V1462.66H1691.34V1469.49H1698.18V1476.33H1705.02V1490H1691.34V1476.33H1684.51V1469.49H1677.67V1490ZM1711.85 1490V1442.15H1725.52V1490H1711.85ZM1759.7 1448.98H1746.03V1483.16H1759.7V1448.98ZM1732.36 1490V1442.15H1766.54V1448.98H1773.38V1483.16H1766.54V1490H1732.36ZM1807.55 1476.33H1821.23V1483.16H1814.39V1490H1787.05V1483.16H1780.21V1448.98H1787.05V1442.15H1814.39V1448.98H1821.23V1455.82H1807.55V1448.98H1793.88V1483.16H1807.55V1476.33ZM1855.41 1448.98H1841.73V1483.16H1855.41V1448.98ZM1834.9 1483.16H1828.06V1448.98H1834.9V1442.15H1862.24V1448.98H1869.08V1483.16H1862.24V1490H1834.9V1483.16ZM1903.26 1448.98H1889.59V1483.16H1903.26V1448.98ZM1875.91 1490V1442.15H1910.09V1448.98H1916.93V1483.16H1910.09V1490H1875.91ZM1923.77 1490V1442.15H1957.95V1448.98H1937.44V1462.66H1957.95V1469.49H1937.44V1483.16H1957.95V1490H1923.77ZM1964.78 1490V1483.16H1971.62V1490H1964.78Z" fill="#3E3E3E"/>
</svg>
