<svg width="1861" height="184" viewBox="0 0 1861 184" fill="none" xmlns="http://www.w3.org/2000/svg">
<path d="M1417.88 59.4789L1290 59.4789L1359.86 118.879L1429.71 59.4789L1417.88 59.4789Z" fill="#007AE0"/>
<path d="M1667.45 59.4789L1539.57 59.4789L1609.42 118.879L1679.28 59.4789L1667.45 59.4789Z" fill="#007AE0"/>
<path d="M1522.56 58.9998L1448.3 58.9998L1488.86 93.49L1529.43 58.9998L1522.56 58.9998Z" fill="#007AE0"/>
<path d="M1470.73 105.945L1396.47 105.945L1437.04 71.4548L1477.6 105.945L1470.73 105.945Z" fill="#007AE0"/>
<path d="M1487.38 122.232L1373.94 122.232L1435.91 174.926L1497.88 122.232L1487.38 122.232Z" fill="#007AE0"/>
<path d="M1612.9 139.978L1532.68 71.7682V146.288L1620.32 146.288L1612.9 139.978Z" fill="#007AE0"/>
<rect width="1867" height="61" fill="#007AE0"/>
</svg>
