<svg width="494" height="934" viewBox="0 0 494 934" fill="none" xmlns="http://www.w3.org/2000/svg">
<rect x="16" width="467" height="934" fill="#999999"/>
<rect x="16" width="467" height="934" fill="#007AE0"/>
<path fill-rule="evenodd" clip-rule="evenodd" d="M204.358 205.04V216.079H193.094H181.831V250.202V284.324H193.094H204.358V295.558V306.792L215.723 306.898L227.087 307.005V318.246V329.486L215.723 329.593L204.358 329.699V352.174V374.648H193.094H181.831V340.726V306.805H159.102H136.373V318.246V329.687H124.908H113.443V340.927V352.167H124.908H136.373V363.608V375.049H147.637H158.901V386.29V397.53H170.366H181.831V408.77V420.011H159.102H136.373V408.77V397.53H113.644H90.9153V386.29V375.049H68.1865H45.4577V363.608V352.167H22.7288H0V386.29V420.412H45.4577H90.9153V431.652V442.893H113.644H136.373V454.334V465.775H170.366H204.358V454.334V442.893H215.823H227.288V476.814V510.736H215.823H204.358V544.858V578.981H193.094H181.831V590.221V601.461H170.366H158.901V635.584V669.706H147.637H136.373V737.543V805.38L125.009 805.487L113.644 805.593L113.54 828.174L113.436 850.755H102.176H90.9153V862.196V873.637H79.4503H67.9853V884.878V896.118H101.978H135.971V884.878V873.637H147.436H158.901V828.275V782.912H170.366H181.831V737.549V692.187H215.823H249.816V669.505V646.824H261.073H272.331L272.438 658.165L272.545 669.505L283.909 669.612L295.274 669.718V703.634V737.549H318.002H340.731V748.79V760.03H351.995H363.259V771.471V782.912H385.988H408.717V794.146V805.38L420.081 805.487L431.445 805.593L431.552 816.934L431.659 828.275H442.917H454.174V873.637V919H474.087H494V884.878V850.755H485.555H477.111L477.007 828.174L476.903 805.593L465.539 805.487L454.174 805.38V782.705V760.03H442.91H431.647V748.79V737.549H408.918H386.189V680.953V624.356L374.825 624.249L363.46 624.143L363.358 567.439L363.256 510.736H351.994H340.731V476.814V442.893H351.995H363.259V374.849V306.805H351.995H340.731V295.564V284.324H318.002H295.274V272.883V261.442H284.01H272.746V227.721V194H238.552H204.358V205.04Z" fill="#F9CC14"/>
</svg>
