<svg width="467" height="934" viewBox="0 0 467 934" fill="none" xmlns="http://www.w3.org/2000/svg">
<rect width="467" height="934" fill="#999999"/>
<rect width="467" height="934" fill="#007AE0"/>
<path fill-rule="evenodd" clip-rule="evenodd" d="M196.99 275.816V284.633H188.007H179.023V311.884V339.135H188.007H196.99V348.106V357.078L206.054 357.163L215.118 357.248V366.225V375.202L206.054 375.287L196.99 375.372V393.321V411.269H188.007H179.023V384.179V357.088H160.895H142.767V366.225V375.362H133.623H124.479V384.339V393.316H133.623H142.767V402.453V411.59H151.751H160.735V420.566V429.543H169.879H179.023V438.52V447.497H160.895H142.767V438.52V429.543H124.639H106.511V420.566V411.59H88.3836H70.2557V402.453V393.316H52.1279H34V420.566V447.817H70.2557H106.511V456.794V465.771H124.639H142.767V474.908V484.045H169.879H196.99V474.908V465.771H206.134H215.279V492.861V519.952H206.134H196.99V547.203V574.453H188.007H179.023V583.43V592.407H169.879H160.735V619.658V646.909H151.751H142.767V701.085V755.261L133.703 755.346L124.639 755.431L124.556 773.465L124.473 791.498H115.493H106.511V800.635V809.772H97.3673H88.2231V818.749V827.726H115.335H142.446V818.749V809.772H151.59H160.735V773.545V737.317H169.879H179.023V701.09V664.862H206.134H233.246V646.748V628.635H242.225H251.203L251.288 637.691L251.374 646.748L260.438 646.834L269.502 646.919V674.004V701.09H287.629H305.757V710.066V719.043H314.741H323.725V728.18V737.317H341.853H359.98V746.289V755.261L369.044 755.346L378.108 755.431L378.194 764.488L378.279 773.545H387.258H396.236V809.772V846H412.118H428V818.749V791.498H421.265H414.53L414.447 773.465L414.364 755.431L405.3 755.346L396.236 755.261V737.152V719.043H387.252H378.269V710.066V701.09H360.141H342.013V655.891V610.691L332.949 610.606L323.885 610.521L323.804 565.236L323.723 519.952H314.74H305.757V492.861V465.771H314.741H323.725V411.429V357.088H314.741H305.757V348.111V339.135H287.629H269.502V329.998V320.86H260.518H251.534V293.93V267H224.262H196.99V275.816Z" fill="#F9CC14"/>
<path d="M152.934 96.7734H142.191V107.516H152.934V96.7734ZM131.449 129V91.4023H158.305V96.7734H163.676V107.516H158.305V112.887H163.676V123.629H158.305V129H131.449ZM152.934 123.629V112.887H142.191V123.629H152.934ZM190.531 96.7734H179.789V123.629H190.531V96.7734ZM174.418 123.629H169.047V96.7734H174.418V91.4023H195.902V96.7734H201.273V123.629H195.902V129H174.418V123.629ZM222.758 102.145H228.129V91.4023H238.871V102.145H233.5V107.516H228.129V112.887H233.5V118.258H238.871V129H228.129V118.258H222.758V112.887H217.387V129H206.645V112.887H212.016V107.516H217.387V102.145H212.016V96.7734H206.645V91.4023H217.387V96.7734H222.758V102.145ZM244.242 129V91.4023H254.984V129H244.242ZM265.727 112.887V129H260.355V91.4023H271.098V102.145H276.469V112.887H281.84V91.4023H292.582V129H281.84V123.629H271.098V112.887H265.727ZM319.438 124.3V129H303.324V123.629H297.953V96.7734H303.324V91.4023H330.18V102.145H324.809V96.7734H308.695V123.629H318.766L319.438 122.958V112.887H314.066V107.516H330.18V129H324.809V123.629H320.109L319.438 124.3Z" fill="white"/>
<path d="M152.934 96.7734H142.191V107.516H152.934V96.7734ZM131.449 129V91.4023H158.305V96.7734H163.676V107.516H158.305V112.887H163.676V123.629H158.305V129H131.449ZM152.934 123.629V112.887H142.191V123.629H152.934ZM190.531 96.7734H179.789V123.629H190.531V96.7734ZM174.418 123.629H169.047V96.7734H174.418V91.4023H195.902V96.7734H201.273V123.629H195.902V129H174.418V123.629ZM222.758 102.145H228.129V91.4023H238.871V102.145H233.5V107.516H228.129V112.887H233.5V118.258H238.871V129H228.129V118.258H222.758V112.887H217.387V129H206.645V112.887H212.016V107.516H217.387V102.145H212.016V96.7734H206.645V91.4023H217.387V96.7734H222.758V102.145ZM244.242 129V91.4023H254.984V129H244.242ZM265.727 112.887V129H260.355V91.4023H271.098V102.145H276.469V112.887H281.84V91.4023H292.582V129H281.84V123.629H271.098V112.887H265.727ZM319.438 124.3V129H303.324V123.629H297.953V96.7734H303.324V91.4023H330.18V102.145H324.809V96.7734H308.695V123.629H318.766L319.438 122.958V112.887H314.066V107.516H330.18V129H324.809V123.629H320.109L319.438 124.3Z" fill="white"/>
</svg>
