<svg width="500" height="206" viewBox="0 0 500 206" fill="none" xmlns="http://www.w3.org/2000/svg">
<path d="M39.2178 50.6846H500L464.253 154.672H0L39.2178 50.6846Z" fill="#007AE0"/>
<path d="M408.666 50.8581H455.539L429.934 26.748L404.329 50.8581H408.666Z" fill="#007AE0"/>
<path d="M317.19 50.8591H364.063L338.459 26.749L312.854 50.8591H317.19Z" fill="#007AE0"/>
<path d="M370.299 51.0541H397.516L382.648 37.0547L367.781 51.0541H370.299Z" fill="#007AE0"/>
<path d="M389.296 31.9996H416.513L401.645 45.999L386.778 31.9996H389.296Z" fill="#007AE0"/>
<path d="M383.19 25.388L424.771 25.388L402.057 4L379.343 25.388H383.19Z" fill="#007AE0"/>
<path d="M337.184 18.1847L366.586 45.8707V15.6235H334.464L337.184 18.1847Z" fill="#007AE0"/>
<path d="M82.727 154.697H35.8535L61.4584 178.807L87.0633 154.697H82.727Z" fill="#007AE0"/>
<path d="M174.203 154.696H127.329L152.934 178.806L178.539 154.696H174.203Z" fill="#007AE0"/>
<path d="M121.094 154.501H93.877L108.744 168.5L123.612 154.501H121.094Z" fill="#007AE0"/>
<path d="M102.097 173.555H74.8799L89.7472 159.556L104.615 173.555H102.097Z" fill="#007AE0"/>
<path d="M108.202 180.167H66.6211L89.3351 201.555L112.049 180.167H108.202Z" fill="#007AE0"/>
<path d="M154.209 187.37L124.806 159.684V189.931H156.929L154.209 187.37Z" fill="#007AE0"/>
</svg>
