<svg width="22" height="32" viewBox="0 0 22 32" fill="none" xmlns="http://www.w3.org/2000/svg">
<path fill-rule="evenodd" clip-rule="evenodd" d="M8.03574 9.95781C7.97141 10.0309 7.95435 12.0645 7.95435 19.6578V29.2653H8.67063H9.38692V28.6141V27.9629H9.64739C9.79065 27.9629 9.90786 27.9336 9.90786 27.8978C9.90786 27.862 9.96646 27.8327 10.0381 27.8327C10.1097 27.8327 10.1683 27.862 10.1683 27.8978C10.1683 27.9336 10.2562 27.9629 10.3637 27.9629C10.4711 27.9629 10.559 27.9336 10.559 27.8978C10.559 27.862 10.6176 27.8327 10.6893 27.8327C10.8108 27.8327 10.8195 27.7893 10.8195 27.1815V26.5304H11.4707H12.1218V25.8141V25.0978H12.8381H13.5544V25.8141V26.5304H14.2056H14.8568V27.8978V29.2653H15.573H16.2893V30.6327V32.0002H17.6568H19.0242V30.6327V29.2653H18.3731H17.7219V27.8978V26.5304H17.0056H16.2893V25.1629V23.7954H18.9963C21.9307 23.7954 21.8894 23.8005 21.8894 23.4419C21.8894 23.3499 21.8601 23.2745 21.8243 23.2745C21.7885 23.2745 21.7592 23.2159 21.7592 23.1443C21.7592 23.0726 21.7885 23.014 21.8243 23.014C21.9185 23.014 21.9044 22.7706 21.808 22.7314C21.7456 22.706 21.748 22.6834 21.8185 22.6342C21.8969 22.5796 21.8952 22.5547 21.807 22.4665C21.7267 22.3862 21.5631 22.3629 21.0801 22.3629H20.4568V21.7396C20.4568 21.2863 20.4315 21.091 20.3638 21.0233C20.2961 20.9556 20.1008 20.9303 19.6475 20.9303H19.0242V20.2791V19.628H18.3731H17.7219V18.9117V18.1954H17.0056H16.2893V17.5442V16.893H15.6661C15.2127 16.893 15.0175 16.8677 14.9498 16.8C14.8821 16.7323 14.8568 16.537 14.8568 16.0837V15.4605H14.2056H13.5544V14.7442V14.0279H12.8381H12.1218V13.3767V12.7255H11.4707H10.8195V12.1023C10.8195 11.649 10.7942 11.4537 10.7264 11.386C10.6588 11.3183 10.4635 11.293 10.0102 11.293H9.38692V10.6697C9.38692 10.2164 9.36159 10.0211 9.29387 9.95345C9.16403 9.82361 8.1508 9.82712 8.03574 9.95781Z" fill="#7D7D7D"/>
<path fill-rule="evenodd" clip-rule="evenodd" d="M0.956152 0.0999038C0.891817 0.172965 0.874756 2.20657 0.874756 9.79987V19.4074H1.59104H2.30733V18.7562V18.105H2.5678C2.71106 18.105 2.82827 18.0757 2.82827 18.0399C2.82827 18.0041 2.88687 17.9748 2.9585 17.9748C3.03013 17.9748 3.08874 18.0041 3.08874 18.0399C3.08874 18.0757 3.17664 18.105 3.28409 18.105C3.39153 18.105 3.47944 18.0757 3.47944 18.0399C3.47944 18.0041 3.53804 17.9748 3.60967 17.9748C3.73125 17.9748 3.73991 17.9314 3.73991 17.3236V16.6725H4.39108H5.04225V15.9562V15.2399H5.75853H6.47482V15.9562V16.6725H7.12599H7.77716V18.0399V19.4074H8.49345H9.20974V20.7748V22.1423H10.5772H11.9447V20.7748V19.4074H11.2935H10.6423V18.0399V16.6725H9.92603H9.20974V15.305V13.9375H11.9167C14.8512 13.9375 14.8098 13.9426 14.8098 13.584C14.8098 13.4919 14.7805 13.4166 14.7447 13.4166C14.7089 13.4166 14.6796 13.358 14.6796 13.2864C14.6796 13.2147 14.7089 13.1561 14.7447 13.1561C14.8389 13.1561 14.8248 12.9127 14.7284 12.8735C14.666 12.8481 14.6684 12.8255 14.739 12.7763C14.8173 12.7217 14.8156 12.6968 14.7274 12.6086C14.6471 12.5283 14.4835 12.505 14.0005 12.505H13.3772V11.8817C13.3772 11.4284 13.3519 11.2331 13.2842 11.1654C13.2165 11.0977 13.0212 11.0724 12.5679 11.0724H11.9447V10.4212V9.77005H11.2935H10.6423V9.05376V8.33747H9.92603H9.20974V7.6863V7.03513H8.5865C8.13316 7.03513 7.93787 7.0098 7.87022 6.94208C7.80249 6.87442 7.77716 6.67913 7.77716 6.22579V5.60255H7.12599H6.47482V4.88627V4.16998H5.75853H5.04225V3.51881V2.86764H4.39108H3.73991V2.2444C3.73991 1.79106 3.71458 1.59577 3.64685 1.52812C3.5792 1.46039 3.38391 1.43506 2.93057 1.43506H2.30733V0.811828C2.30733 0.358484 2.282 0.163197 2.21428 0.0955409C2.08444 -0.0343025 1.07121 -0.0307861 0.956152 0.0999038Z" fill="white"/>
</svg>
