<svg width="2060" height="2021" viewBox="0 0 2060 2021" fill="none" xmlns="http://www.w3.org/2000/svg">
<path d="M262.177 337.639V67.5781L136.736 215.1L262.177 362.622V337.639Z" fill="#007AE0"/>
<path d="M262.177 864.673V594.612L136.736 742.134L262.177 889.657V864.673Z" fill="#007AE0"/>
<path d="M263.189 558.691V401.882L190.353 487.54L263.189 573.198V558.691Z" fill="#007AE0"/>
<path d="M164.05 449.24V292.43L236.887 378.088L164.05 463.746V449.24Z" fill="#007AE0"/>
<path d="M129.654 484.412V244.842L18.376 375.709L129.654 506.575V484.412Z" fill="#007AE0"/>
<path d="M92.1793 749.478L236.225 580.077H78.8535V765.15L92.1793 749.478Z" fill="#007AE0"/>
<path d="M1776.18 1403.64V1133.58L1901.62 1281.1L1776.18 1428.62V1403.64Z" fill="#007AE0"/>
<path d="M1776.18 1930.67V1660.61L1901.62 1808.13L1776.18 1955.66V1930.67Z" fill="#007AE0"/>
<path d="M1775.17 1624.69V1467.88L1848 1553.54L1775.17 1639.2V1624.69Z" fill="#007AE0"/>
<path d="M1874.31 1515.24V1358.43L1801.47 1444.09L1874.31 1529.75V1515.24Z" fill="#007AE0"/>
<path d="M1908.7 1550.41V1310.84L2019.98 1441.71L1908.7 1572.58V1550.41Z" fill="#007AE0"/>
<path d="M1946.18 1815.48L1802.13 1646.08H1959.5V1831.15L1946.18 1815.48Z" fill="#007AE0"/>
<path d="M256.921 2021H1777.42V265.588V0H1457.62H256.921V2021Z" fill="#007AE0"/>
<path fill-rule="evenodd" clip-rule="evenodd" d="M496.857 1633.28L496.186 1635.98L490.568 1634.59L484.95 1633.2L484.278 1635.91L483.607 1638.62L480.798 1637.92L477.989 1637.22L477.317 1639.93L476.646 1642.64L473.837 1641.94L471.028 1641.25L470.356 1643.96L469.685 1646.66L466.876 1645.97L464.067 1645.27L463.395 1647.98L462.724 1650.69L459.915 1649.99L457.106 1649.3L456.434 1652L455.762 1654.71L452.954 1654.02L450.145 1653.32L448.801 1658.74L447.458 1664.15L444.649 1663.46L441.84 1662.76L440.497 1668.18L439.154 1673.59L436.345 1672.9L433.536 1672.2L427.491 1696.58L421.447 1720.96L424.255 1721.65L427.064 1722.35L425.721 1727.77L424.378 1733.18L427.187 1733.88L429.996 1734.58L429.324 1737.28L428.652 1739.99L431.461 1740.69L434.27 1741.39L433.598 1744.1L432.927 1746.8L435.736 1747.5L438.545 1748.2L437.873 1750.91L437.201 1753.61L440.01 1754.31L442.819 1755.01L442.147 1757.72L441.476 1760.42L444.285 1761.12L447.094 1761.82L446.422 1764.53L445.75 1767.23L448.559 1767.93L451.368 1768.63L450.696 1771.34L450.025 1774.04L455.643 1775.44L461.26 1776.83L460.589 1779.54L459.917 1782.25L465.535 1783.64L471.153 1785.03L473.839 1774.2L476.526 1763.37L465.29 1760.58L454.055 1757.79L454.726 1755.08L455.398 1752.38L452.589 1751.68L449.78 1750.98L450.452 1748.27L451.123 1745.57L448.315 1744.87L445.506 1744.17L446.177 1741.46L446.849 1738.76L444.04 1738.06L441.231 1737.36L441.903 1734.65L442.574 1731.95L448.192 1733.34L453.81 1734.73L453.138 1737.44L452.467 1740.15L455.276 1740.85L458.084 1741.54L457.413 1744.25L456.741 1746.96L459.55 1747.66L462.359 1748.35L461.687 1751.06L461.016 1753.77L466.633 1755.16L472.251 1756.55L472.923 1753.85L473.595 1751.14L476.403 1751.83L479.212 1752.53L479.884 1749.82L480.556 1747.11L483.364 1747.81L486.173 1748.51L486.845 1745.8L487.517 1743.09L476.281 1740.3L465.046 1737.52L465.717 1734.81L466.389 1732.1L463.58 1731.4L460.771 1730.71L461.443 1728L462.114 1725.29L459.305 1724.59L456.497 1723.9L457.168 1721.19L457.84 1718.48L455.031 1717.78L452.222 1717.09L456.252 1700.84L460.282 1684.58L463.091 1685.28L465.899 1685.98L466.571 1683.27L467.243 1680.56L470.052 1681.26L472.86 1681.95L473.532 1679.24L474.204 1676.54L471.395 1675.84L468.586 1675.14L470.601 1667.02L472.616 1658.89L481.042 1660.98L489.469 1663.07L488.798 1665.78L488.126 1668.49L490.935 1669.18L493.744 1669.88L493.072 1672.59L492.4 1675.3L495.209 1675.99L498.018 1676.69L498.69 1673.98L499.361 1671.27L513.406 1674.76L527.45 1678.24L526.779 1680.95L526.107 1683.66L528.916 1684.35L531.725 1685.05L532.396 1682.34L533.068 1679.63L535.877 1680.33L538.686 1681.02L539.358 1678.32L540.029 1675.61L548.456 1677.7L556.883 1679.79L554.868 1687.91L552.853 1696.04L550.044 1695.34L547.235 1694.65L546.563 1697.35L545.892 1700.06L548.701 1700.76L551.509 1701.46L550.838 1704.16L550.166 1706.87L552.975 1707.57L555.784 1708.27L551.754 1724.52L547.724 1740.77L544.915 1740.07L542.107 1739.38L541.435 1742.08L540.763 1744.79L537.954 1744.1L535.145 1743.4L534.474 1746.11L533.802 1748.82L530.993 1748.12L528.184 1747.42L527.513 1750.13L526.841 1752.84L515.606 1750.05L504.37 1747.27L503.698 1749.98L503.027 1752.69L505.836 1753.38L508.644 1754.08L507.973 1756.79L507.301 1759.5L510.11 1760.19L512.919 1760.89L508.889 1777.14L504.859 1793.39L510.477 1794.78L516.095 1796.18L516.767 1793.47L517.438 1790.76L520.247 1791.46L523.056 1792.15L523.728 1789.45L524.399 1786.74L527.208 1787.43L530.017 1788.13L530.689 1785.42L531.36 1782.71L534.169 1783.41L536.978 1784.11L537.65 1781.4L538.321 1778.69L541.13 1779.38L543.939 1780.08L544.611 1777.37L545.282 1774.66L548.091 1775.36L550.9 1776.06L551.572 1773.35L552.243 1770.64L555.052 1771.34L557.861 1772.03L558.533 1769.32L559.205 1766.62L562.013 1767.31L564.822 1768.01L566.166 1762.59L567.509 1757.17L570.318 1757.87L573.127 1758.57L579.171 1734.19L585.216 1709.81L582.407 1709.12L579.598 1708.42L580.942 1703L582.285 1697.59L579.476 1696.89L576.667 1696.19L578.01 1690.78L579.354 1685.36L576.545 1684.66L573.736 1683.97L574.408 1681.26L575.079 1678.55L572.27 1677.85L569.461 1677.16L570.133 1674.45L570.805 1671.74L567.996 1671.04L565.187 1670.35L565.858 1667.64L566.53 1664.93L563.721 1664.23L560.912 1663.54L561.584 1660.83L562.256 1658.12L559.447 1657.42L556.638 1656.73L557.309 1654.02L557.981 1651.31L552.363 1649.91L546.746 1648.52L547.417 1645.81L548.089 1643.1L522.809 1636.84L497.529 1630.57L496.857 1633.28Z" fill="#F8CC14"/>
<path fill-rule="evenodd" clip-rule="evenodd" d="M465.361 909.462L464.235 915.477L458.22 914.351L452.205 913.225L439.888 979.036L427.57 1044.85L433.585 1045.97L439.6 1047.1L438.474 1053.11L437.348 1059.13L473.084 1065.82L508.82 1072.51L513.257 1048.8L517.694 1025.09L506.17 1022.94C496.654 1021.16 494.574 1020.68 494.235 1020.18C493.728 1019.44 493.86 1018.56 494.497 1018.43C494.856 1018.36 494.861 1018.21 494.518 1017.83C494.175 1017.44 494.18 1017.3 494.54 1017.22C495.103 1017.11 495.427 1015.8 494.915 1015.7C494.688 1015.66 495.192 1012.27 496.321 1006.24C497.758 998.559 498.191 996.759 498.681 996.424C499.177 996.084 501.289 996.388 510.806 998.17L522.33 1000.33L526.767 976.62L531.204 952.914L537.219 954.04L543.234 955.166L544.36 949.151L545.486 943.136L563.531 946.513L581.576 949.891L579.324 961.921L577.073 973.951L565.548 971.794C555.256 969.867 553.949 969.688 553.322 970.117C552.812 970.466 552.733 970.659 553.033 970.826C553.569 971.124 553.211 973.023 552.588 973.183C552.203 973.282 552.188 973.364 552.511 973.596C553.028 973.966 547.707 1002.88 547.141 1002.77C546.616 1002.67 546.519 1003.73 546.99 1004.42C547.329 1004.91 549.409 1005.39 558.926 1007.18L570.45 1009.33L568.227 1021.21C566.239 1031.83 565.93 1033.14 565.302 1033.57C564.792 1033.92 564.583 1033.92 564.537 1033.58C564.461 1033.03 563.146 1032.71 563.05 1033.22C563.008 1033.44 559.682 1032.95 553.784 1031.85C547.887 1030.75 544.609 1030 544.651 1029.77C544.688 1029.58 544.399 1029.36 544.01 1029.29C543.621 1029.21 543.272 1029.31 543.236 1029.51C543.2 1029.7 542.851 1029.8 542.462 1029.73C542.073 1029.66 541.725 1029.76 541.688 1029.95C541.652 1030.15 541.781 1030.33 541.976 1030.37C542.208 1030.41 540.851 1038.34 538.025 1053.44C535.199 1068.53 533.599 1076.41 533.367 1076.37C533.172 1076.33 532.983 1076.46 532.947 1076.66C532.903 1076.89 539.131 1078.18 550.925 1080.39L568.97 1083.76L570.096 1077.75L571.222 1071.73L577.237 1072.86L583.252 1073.99L595.57 1008.18L607.887 942.364L601.873 941.238L595.858 940.113L596.983 934.098L598.109 928.083L532.298 915.765L466.487 903.447L465.361 909.462Z" fill="#F8CC14"/>
<path fill-rule="evenodd" clip-rule="evenodd" d="M424.225 1306.28L425.708 1312.05L419.94 1313.53L414.172 1315.01L430.391 1378.12L446.611 1441.23L452.379 1439.75L458.147 1438.27L459.629 1444.04L461.111 1449.8L495.38 1441L529.649 1432.19L523.806 1409.46L517.964 1386.72L506.913 1389.56C497.787 1391.91 495.755 1392.34 495.252 1392.04C494.5 1391.6 494.255 1390.77 494.763 1390.39C495.05 1390.18 494.994 1390.05 494.534 1389.85C494.073 1389.65 494.017 1389.52 494.304 1389.31C494.754 1388.98 494.501 1387.69 494.01 1387.82C493.793 1387.87 492.841 1384.67 491.354 1378.89C489.462 1371.53 489.103 1369.76 489.397 1369.26C489.694 1368.76 491.683 1368.16 500.809 1365.81L511.86 1362.97L506.017 1340.24L500.175 1317.51L505.943 1316.02L511.711 1314.54L510.229 1308.77L508.746 1303.01L526.05 1298.56L543.354 1294.11L546.319 1305.65L549.284 1317.18L538.233 1320.02C528.363 1322.56 527.136 1322.94 526.76 1323.58C526.454 1324.09 526.464 1324.3 526.797 1324.32C527.393 1324.36 527.858 1326.18 527.375 1326.58C527.076 1326.83 527.096 1326.91 527.476 1326.98C528.085 1327.09 535.29 1354.78 534.748 1354.92C534.244 1355.05 534.593 1356.02 535.292 1356.43C535.795 1356.73 537.827 1356.3 546.953 1353.95L558.004 1351.11L560.931 1362.5C563.549 1372.69 563.814 1373.97 563.438 1374.61C563.132 1375.12 562.949 1375.21 562.768 1374.93C562.473 1374.48 561.18 1374.73 561.306 1375.22C561.362 1375.44 558.227 1376.38 552.572 1377.83C546.917 1379.28 543.719 1379.97 543.663 1379.76C543.615 1379.57 543.27 1379.5 542.897 1379.59C542.524 1379.69 542.258 1379.92 542.306 1380.11C542.354 1380.29 542.088 1380.52 541.714 1380.62C541.341 1380.72 541.075 1380.95 541.123 1381.13C541.171 1381.32 541.363 1381.43 541.55 1381.38C541.772 1381.33 543.836 1388.88 547.557 1403.35C624.165 1390.06 542.094 1422.13 541.871 1422.19C523.034 1406.45 529.601 1432 529.649 1432.19C529.706 1432.41 558.715 1424.72 570.025 1421.81L587.329 1417.36L585.846 1411.6L584.364 1405.83L590.132 1404.35L595.9 1402.86L579.681 1339.75L563.461 1276.65L557.693 1278.13L551.925 1279.61L550.443 1273.84L548.96 1268.08L485.852 1284.29L422.743 1300.51L424.225 1306.28Z" fill="#F8CC14"/>
<rect x="457.683" y="1313.49" width="98.3314" height="132.88" transform="rotate(-14.4134 457.683 1313.49)" fill="#F8CC14"/>
<path fill-rule="evenodd" clip-rule="evenodd" d="M515.559 1315.07L475.208 1325.44L476.936 1332.17L468.866 1334.24L470.249 1339.62L462.182 1341.7L464.256 1349.77L458.874 1351.15L469.591 1392.85L483.041 1389.39L472.325 1347.69L472.326 1347.69L472.326 1347.69L480.393 1345.62L478.665 1338.9L519.016 1328.52L515.559 1315.07ZM525.362 1319.72L517.291 1321.8L520.748 1335.25L528.816 1333.17L539.532 1374.87L552.982 1371.41L542.266 1329.72L536.887 1331.1L534.813 1323.03L526.745 1325.11L525.362 1319.72ZM496.299 1407.49L536.65 1397.12L534.922 1390.4L542.992 1388.32L541.609 1382.94L549.676 1380.87L547.602 1372.8L539.532 1374.87L539.532 1374.87L531.465 1376.95L533.193 1383.67L492.842 1394.04L496.299 1407.49ZM494.567 1400.77L486.497 1402.84L485.113 1397.46L477.045 1399.53L474.971 1391.46L483.041 1389.39L483.042 1389.39L491.11 1387.32L494.567 1400.77Z" fill="#007AE0"/>
<rect x="531.996" y="1289.88" width="21.1181" height="19.0063" transform="rotate(-14.4134 531.996 1289.88)" fill="#007AE0"/>
<rect x="535.253" y="1302.42" width="6.94374" height="20.8312" transform="rotate(-104.413 535.253 1302.42)" fill="#007AE0"/>
<path d="M649.788 296.071H662.865L653.838 341.459H640.761L649.788 296.071ZM658.562 289.743C656.313 289.743 654.457 289.096 652.994 287.803C651.588 286.453 650.885 284.822 650.885 282.91C650.885 280.66 651.672 278.804 653.247 277.341C654.878 275.823 656.988 275.063 659.575 275.063C661.881 275.063 663.737 275.71 665.143 277.004C666.605 278.241 667.336 279.788 667.336 281.644C667.336 284.063 666.521 286.031 664.89 287.55C663.259 289.012 661.15 289.743 658.562 289.743ZM701.488 295.396C706.55 295.396 710.572 296.746 713.552 299.445C716.533 302.089 718.024 305.885 718.024 310.835C718.024 312.691 717.827 314.519 717.433 316.318L712.371 341.459H699.21L704.103 317.162C704.328 316.206 704.441 315.165 704.441 314.041C704.441 311.678 703.794 309.878 702.501 308.641C701.207 307.404 699.267 306.785 696.679 306.785C693.305 306.785 690.492 307.769 688.243 309.738C686.049 311.65 684.559 314.547 683.771 318.428L679.216 341.459H666.054L675.082 296.071H687.568L686.555 300.964C690.605 297.252 695.583 295.396 701.488 295.396ZM755.179 288.562C753.154 288.562 751.551 289.124 750.37 290.249C749.245 291.318 748.458 293.033 748.008 295.396L747.671 297.083H759.229L757.204 307.207H745.983L739.15 341.459H725.989L732.822 307.207H725.735L727.76 297.083H734.847L735.353 294.468C736.422 289.406 738.615 285.44 741.934 282.572C745.308 279.647 749.695 278.185 755.095 278.185C757.12 278.185 759.032 278.41 760.832 278.86C762.688 279.31 764.263 279.929 765.556 280.716L760.41 290.165C759.004 289.096 757.26 288.562 755.179 288.562ZM780.142 342.134C775.586 342.134 771.564 341.291 768.077 339.603C764.646 337.916 761.975 335.554 760.062 332.517C758.206 329.423 757.278 325.852 757.278 321.802C757.278 316.796 758.46 312.297 760.822 308.304C763.184 304.31 766.446 301.161 770.608 298.855C774.77 296.549 779.467 295.396 784.697 295.396C789.309 295.396 793.331 296.239 796.762 297.927C800.193 299.614 802.836 302.004 804.692 305.098C806.604 308.135 807.561 311.678 807.561 315.728C807.561 320.734 806.379 325.233 804.017 329.226C801.711 333.22 798.449 336.369 794.231 338.675C790.069 340.981 785.372 342.134 780.142 342.134ZM780.985 331.251C783.516 331.251 785.794 330.633 787.819 329.395C789.844 328.102 791.418 326.33 792.543 324.08C793.668 321.83 794.231 319.243 794.231 316.318C794.231 313.225 793.331 310.778 791.531 308.979C789.731 307.179 787.2 306.279 783.938 306.279C781.351 306.279 779.045 306.926 777.02 308.219C774.995 309.457 773.42 311.2 772.296 313.45C771.171 315.7 770.608 318.287 770.608 321.212C770.608 324.305 771.508 326.752 773.308 328.551C775.164 330.351 777.723 331.251 780.985 331.251ZM859.639 281.56C866.839 281.56 873.054 282.853 878.284 285.44C883.571 288.028 887.593 291.655 890.349 296.324C893.104 300.936 894.482 306.335 894.482 312.522C894.482 317.696 893.583 322.562 891.783 327.117C890.039 331.617 887.564 335.245 884.359 338C881.209 340.7 877.609 342.05 873.56 342.05C870.635 342.05 868.217 341.544 866.304 340.531C864.448 339.519 863.155 338.057 862.423 336.144C858.824 340.081 854.015 342.05 847.997 342.05C844.735 342.05 841.782 341.319 839.138 339.857C836.551 338.394 834.498 336.313 832.98 333.613C831.461 330.857 830.702 327.68 830.702 324.08C830.702 319.637 831.658 315.531 833.57 311.763C835.539 307.994 838.21 305.013 841.585 302.82C845.016 300.57 848.84 299.445 853.059 299.445C859.302 299.445 863.717 301.667 866.304 306.11L867.57 300.036H879.043L873.56 327.455C873.391 328.186 873.307 328.833 873.307 329.395C873.307 331.645 874.46 332.77 876.766 332.77C878.622 332.77 880.253 331.757 881.659 329.733C883.065 327.652 884.134 325.092 884.865 322.055C885.596 318.962 885.962 315.953 885.962 313.028C885.962 305.66 883.627 299.923 878.959 295.818C874.291 291.655 867.457 289.574 858.458 289.574C851.315 289.574 844.988 291.149 839.476 294.299C834.02 297.449 829.774 301.779 826.737 307.291C823.699 312.747 822.181 318.849 822.181 325.599C822.181 330.604 823.221 335.02 825.302 338.844C827.383 342.612 830.421 345.537 834.414 347.618C838.407 349.699 843.188 350.74 848.756 350.74C854.437 350.74 859.752 349.671 864.701 347.534L866.557 355.295C863.97 356.364 861.017 357.208 857.699 357.826C854.437 358.501 851.231 358.839 848.081 358.839C840.882 358.839 834.611 357.461 829.268 354.705C823.924 351.949 819.819 348.096 816.95 343.147C814.138 338.254 812.732 332.629 812.732 326.274C812.732 317.781 814.729 310.132 818.722 303.326C822.715 296.521 828.255 291.205 835.342 287.381C842.485 283.5 850.584 281.56 859.639 281.56ZM851.54 332.348C853.959 332.348 856.096 331.729 857.952 330.492C859.808 329.255 861.242 327.567 862.255 325.43C863.323 323.293 863.858 320.959 863.858 318.428C863.858 315.503 863.014 313.253 861.327 311.678C859.696 310.047 857.418 309.232 854.493 309.232C850.95 309.232 848.053 310.497 845.803 313.028C843.554 315.503 842.429 318.849 842.429 323.068C842.429 326.049 843.244 328.355 844.875 329.986C846.506 331.561 848.728 332.348 851.54 332.348ZM917.265 325.43C917.152 325.88 917.096 326.499 917.096 327.286C917.096 330.211 918.699 331.673 921.905 331.673C923.648 331.673 925.42 331.139 927.22 330.07L929.16 339.435C926.235 341.234 922.467 342.134 917.855 342.134C913.581 342.134 910.15 341.01 907.562 338.76C904.975 336.51 903.682 333.417 903.682 329.48C903.682 328.355 903.822 327.033 904.103 325.514L907.731 307.207H900.729L902.754 297.083H909.756L911.95 286.031H925.111L922.917 297.083H934.222L932.197 307.207H920.892L917.265 325.43ZM971.476 295.396C976.538 295.396 980.559 296.746 983.54 299.445C986.521 302.145 988.011 305.97 988.011 310.919C988.011 312.719 987.814 314.519 987.421 316.318L982.359 341.459H969.198L974.091 317.162C974.316 316.206 974.428 315.165 974.428 314.041C974.428 311.678 973.782 309.878 972.488 308.641C971.194 307.404 969.254 306.785 966.667 306.785C963.292 306.785 960.48 307.769 958.23 309.738C956.037 311.65 954.546 314.547 953.759 318.428L949.203 341.459H936.042L948.528 278.86H961.689L957.471 300.205C961.352 296.999 966.02 295.396 971.476 295.396ZM1044.14 315.39C1044.14 317.471 1043.88 319.777 1043.38 322.308H1008.62C1009.07 328.495 1012.98 331.589 1020.35 331.589C1022.65 331.589 1024.85 331.223 1026.93 330.492C1029.06 329.761 1030.92 328.72 1032.49 327.37L1037.98 336.06C1035.45 338.085 1032.55 339.603 1029.29 340.616C1026.03 341.628 1022.6 342.134 1019 342.134C1014.33 342.134 1010.22 341.319 1006.68 339.688C1003.19 338 1000.49 335.61 998.579 332.517C996.723 329.423 995.795 325.852 995.795 321.802C995.795 316.796 996.92 312.297 999.17 308.304C1001.48 304.254 1004.65 301.104 1008.7 298.855C1012.75 296.549 1017.36 295.396 1022.54 295.396C1026.93 295.396 1030.72 296.211 1033.93 297.842C1037.19 299.473 1039.69 301.807 1041.44 304.845C1043.24 307.882 1044.14 311.397 1044.14 315.39ZM1021.95 305.266C1018.86 305.266 1016.24 306.11 1014.1 307.797C1011.97 309.429 1010.45 311.706 1009.55 314.631H1032.07C1032.07 311.706 1031.14 309.429 1029.29 307.797C1027.49 306.11 1025.04 305.266 1021.95 305.266ZM1102.93 296.071L1093.91 341.459H1081.42L1082.26 336.988C1078.5 340.419 1073.86 342.134 1068.34 342.134C1064.8 342.134 1061.54 341.319 1058.56 339.688C1055.58 338.057 1053.19 335.723 1051.39 332.685C1049.64 329.592 1048.77 325.964 1048.77 321.802C1048.77 316.796 1049.87 312.297 1052.06 308.304C1054.31 304.254 1057.35 301.104 1061.17 298.855C1065 296.549 1069.22 295.396 1073.83 295.396C1080.8 295.396 1085.72 297.674 1088.59 302.229L1089.77 296.071H1102.93ZM1072.39 331.251C1074.98 331.251 1077.29 330.633 1079.31 329.395C1081.34 328.102 1082.91 326.33 1084.04 324.08C1085.16 321.83 1085.72 319.243 1085.72 316.318C1085.72 313.225 1084.8 310.778 1082.94 308.979C1081.14 307.179 1078.61 306.279 1075.35 306.279C1072.76 306.279 1070.45 306.926 1068.43 308.219C1066.4 309.457 1064.83 311.2 1063.7 313.45C1062.58 315.7 1062.02 318.287 1062.02 321.212C1062.02 324.305 1062.92 326.752 1064.72 328.551C1066.57 330.351 1069.13 331.251 1072.39 331.251ZM1126.51 301.47C1128.48 299.333 1130.84 297.786 1133.6 296.83C1136.41 295.874 1139.7 295.396 1143.47 295.396L1141.1 307.544C1139.53 307.432 1138.52 307.376 1138.07 307.376C1134.07 307.376 1130.87 308.36 1128.45 310.328C1126.09 312.297 1124.48 315.362 1123.64 319.524L1119.25 341.459H1106.09L1115.12 296.071H1127.61L1126.51 301.47ZM1158.8 342.134C1154.86 342.134 1151.12 341.713 1147.58 340.869C1144.09 339.969 1141.36 338.816 1139.39 337.41L1144.45 327.877C1146.42 329.17 1148.81 330.211 1151.63 330.998C1154.49 331.786 1157.36 332.179 1160.23 332.179C1163.21 332.179 1165.43 331.814 1166.9 331.082C1168.36 330.295 1169.09 329.198 1169.09 327.792C1169.09 326.667 1168.44 325.852 1167.15 325.346C1165.85 324.839 1163.77 324.305 1160.91 323.743C1157.64 323.124 1154.94 322.449 1152.81 321.718C1150.73 320.987 1148.9 319.806 1147.32 318.174C1145.8 316.487 1145.04 314.209 1145.04 311.341C1145.04 306.335 1147.13 302.426 1151.29 299.614C1155.51 296.802 1161.02 295.396 1167.82 295.396C1170.97 295.396 1174.04 295.733 1177.02 296.408C1180 297.083 1182.53 298.011 1184.61 299.192L1179.89 308.81C1176.18 306.504 1171.7 305.351 1166.47 305.351C1163.61 305.351 1161.41 305.773 1159.89 306.616C1158.43 307.46 1157.7 308.529 1157.7 309.822C1157.7 311.003 1158.35 311.875 1159.64 312.438C1160.93 312.944 1163.1 313.506 1166.14 314.125C1169.34 314.744 1171.96 315.419 1173.98 316.15C1176.06 316.825 1177.86 317.978 1179.38 319.609C1180.9 321.24 1181.66 323.461 1181.66 326.274C1181.66 331.336 1179.52 335.245 1175.25 338C1171.03 340.756 1165.55 342.134 1158.8 342.134ZM1222.51 295.396C1227.58 295.396 1231.6 296.746 1234.58 299.445C1237.56 302.145 1239.05 305.97 1239.05 310.919C1239.05 312.719 1238.85 314.519 1238.46 316.318L1233.4 341.459H1220.24L1225.13 317.162C1225.35 316.206 1225.47 315.165 1225.47 314.041C1225.47 311.678 1224.82 309.878 1223.53 308.641C1222.23 307.404 1220.29 306.785 1217.7 306.785C1214.33 306.785 1211.52 307.769 1209.27 309.738C1207.07 311.65 1205.58 314.547 1204.8 318.428L1200.24 341.459H1187.08L1199.57 278.86H1212.73L1208.51 300.205C1212.39 296.999 1217.06 295.396 1222.51 295.396ZM1301 296.071L1291.97 341.459H1279.48L1280.33 336.988C1276.56 340.419 1271.92 342.134 1266.41 342.134C1262.86 342.134 1259.6 341.319 1256.62 339.688C1253.64 338.057 1251.25 335.723 1249.45 332.685C1247.71 329.592 1246.83 325.964 1246.83 321.802C1246.83 316.796 1247.93 312.297 1250.12 308.304C1252.37 304.254 1255.41 301.104 1259.24 298.855C1263.06 296.549 1267.28 295.396 1271.89 295.396C1278.86 295.396 1283.79 297.674 1286.65 302.229L1287.84 296.071H1301ZM1270.46 331.251C1273.04 331.251 1275.35 330.633 1277.37 329.395C1279.4 328.102 1280.97 326.33 1282.1 324.08C1283.22 321.83 1283.79 319.243 1283.79 316.318C1283.79 313.225 1282.86 310.778 1281 308.979C1279.2 307.179 1276.67 306.279 1273.41 306.279C1270.82 306.279 1268.52 306.926 1266.49 308.219C1264.47 309.457 1262.89 311.2 1261.77 313.45C1260.64 315.7 1260.08 318.287 1260.08 321.212C1260.08 324.305 1260.98 326.752 1262.78 328.551C1264.63 330.351 1267.19 331.251 1270.46 331.251ZM1370.13 295.396C1375.08 295.396 1379.01 296.746 1381.94 299.445C1384.86 302.089 1386.33 305.857 1386.33 310.75C1386.33 312.55 1386.13 314.406 1385.74 316.318L1380.76 341.459H1367.6L1372.41 317.246C1372.63 316.122 1372.74 314.969 1372.74 313.787C1372.74 311.481 1372.12 309.738 1370.89 308.557C1369.71 307.376 1367.93 306.785 1365.57 306.785C1359.22 306.785 1355.25 310.582 1353.68 318.174L1349.04 341.459H1335.88L1340.68 317.246C1340.91 316.122 1341.02 314.997 1341.02 313.872C1341.02 311.566 1340.4 309.822 1339.17 308.641C1337.98 307.404 1336.21 306.785 1333.85 306.785C1327.5 306.785 1323.5 310.638 1321.87 318.343L1317.32 341.459H1304.15L1313.18 296.071H1325.67L1324.66 300.795C1328.59 297.195 1333.34 295.396 1338.91 295.396C1342.06 295.396 1344.85 296.042 1347.27 297.336C1349.74 298.573 1351.6 300.401 1352.83 302.82C1355.03 300.401 1357.59 298.573 1360.51 297.336C1363.44 296.042 1366.64 295.396 1370.13 295.396ZM1398.63 342.134C1396.38 342.134 1394.52 341.431 1393.06 340.025C1391.6 338.563 1390.87 336.735 1390.87 334.541C1390.87 331.954 1391.71 329.845 1393.4 328.214C1395.09 326.583 1397.17 325.767 1399.64 325.767C1401.89 325.767 1403.72 326.47 1405.13 327.877C1406.59 329.283 1407.32 331.111 1407.32 333.36C1407.32 335.891 1406.45 338 1404.7 339.688C1403.02 341.319 1400.99 342.134 1398.63 342.134ZM1438.1 342.134C1433.43 342.134 1429.36 341.291 1425.87 339.603C1422.38 337.916 1419.68 335.554 1417.77 332.517C1415.91 329.423 1414.99 325.852 1414.99 321.802C1414.99 316.796 1416.17 312.297 1418.53 308.304C1420.89 304.31 1424.18 301.161 1428.4 298.855C1432.62 296.549 1437.37 295.396 1442.66 295.396C1447.5 295.396 1451.66 296.408 1455.14 298.433C1458.69 300.401 1461.33 303.214 1463.08 306.869L1451.94 312.438C1449.97 308.332 1446.6 306.279 1441.82 306.279C1439.23 306.279 1436.89 306.926 1434.81 308.219C1432.79 309.457 1431.18 311.2 1430 313.45C1428.88 315.7 1428.32 318.259 1428.32 321.127C1428.32 324.221 1429.24 326.695 1431.1 328.551C1432.96 330.351 1435.54 331.251 1438.86 331.251C1443.7 331.251 1447.41 329.226 1450 325.177L1459.7 331.251C1457.51 334.682 1454.5 337.354 1450.67 339.266C1446.91 341.178 1442.71 342.134 1438.1 342.134ZM1487.12 342.134C1482.56 342.134 1478.54 341.291 1475.05 339.603C1471.62 337.916 1468.95 335.554 1467.04 332.517C1465.18 329.423 1464.26 325.852 1464.26 321.802C1464.26 316.796 1465.44 312.297 1467.8 308.304C1470.16 304.31 1473.42 301.161 1477.58 298.855C1481.75 296.549 1486.44 295.396 1491.67 295.396C1496.29 295.396 1500.31 296.239 1503.74 297.927C1507.17 299.614 1509.81 302.004 1511.67 305.098C1513.58 308.135 1514.54 311.678 1514.54 315.728C1514.54 320.734 1513.36 325.233 1510.99 329.226C1508.69 333.22 1505.43 336.369 1501.21 338.675C1497.05 340.981 1492.35 342.134 1487.12 342.134ZM1487.96 331.251C1490.49 331.251 1492.77 330.633 1494.8 329.395C1496.82 328.102 1498.4 326.33 1499.52 324.08C1500.64 321.83 1501.21 319.243 1501.21 316.318C1501.21 313.225 1500.31 310.778 1498.51 308.979C1496.71 307.179 1494.18 306.279 1490.91 306.279C1488.33 306.279 1486.02 306.926 1484 308.219C1481.97 309.457 1480.4 311.2 1479.27 313.45C1478.15 315.7 1477.58 318.287 1477.58 321.212C1477.58 324.305 1478.48 326.752 1480.28 328.551C1482.14 330.351 1484.7 331.251 1487.96 331.251ZM1584.59 295.396C1589.54 295.396 1593.47 296.746 1596.4 299.445C1599.32 302.089 1600.78 305.857 1600.78 310.75C1600.78 312.55 1600.59 314.406 1600.19 316.318L1595.22 341.459H1582.05L1586.86 317.246C1587.09 316.122 1587.2 314.969 1587.2 313.787C1587.2 311.481 1586.58 309.738 1585.35 308.557C1584.16 307.376 1582.39 306.785 1580.03 306.785C1573.67 306.785 1569.71 310.582 1568.13 318.174L1563.49 341.459H1550.33L1555.14 317.246C1555.37 316.122 1555.48 314.997 1555.48 313.872C1555.48 311.566 1554.86 309.822 1553.62 308.641C1552.44 307.404 1550.67 306.785 1548.31 306.785C1541.95 306.785 1537.96 310.638 1536.33 318.343L1531.77 341.459H1518.61L1527.64 296.071H1540.13L1539.11 300.795C1543.05 297.195 1547.8 295.396 1553.37 295.396C1556.52 295.396 1559.3 296.042 1561.72 297.336C1564.2 298.573 1566.05 300.401 1567.29 302.82C1569.48 300.401 1572.04 298.573 1574.97 297.336C1577.89 296.042 1581.1 295.396 1584.59 295.396Z" fill="white"/>
<path d="M678.33 179.626L675.799 192.45H703.218L701.109 203.08H673.605L670.906 216.747H703.133L700.856 227.715H655.129L666.94 168.659H711.57L709.292 179.626H678.33ZM776.861 181.651C781.81 181.651 785.747 183.001 788.672 185.701C791.597 188.344 793.059 192.112 793.059 197.006C793.059 198.805 792.862 200.662 792.468 202.574L787.491 227.715H774.33L779.139 203.502C779.364 202.377 779.476 201.224 779.476 200.043C779.476 197.737 778.857 195.993 777.62 194.812C776.439 193.631 774.667 193.04 772.305 193.04C765.949 193.04 761.984 196.837 760.409 204.43L755.769 227.715H742.608L747.417 203.502C747.642 202.377 747.754 201.252 747.754 200.127C747.754 197.821 747.136 196.078 745.898 194.896C744.717 193.659 742.946 193.04 740.583 193.04C734.228 193.04 730.234 196.893 728.603 204.599L724.048 227.715H710.887L719.914 182.326H732.4L731.387 187.05C735.325 183.451 740.077 181.651 745.645 181.651C748.795 181.651 751.579 182.298 753.998 183.591C756.472 184.829 758.328 186.657 759.566 189.075C761.759 186.657 764.318 184.829 767.243 183.591C770.168 182.298 773.374 181.651 776.861 181.651ZM854.957 182.326L845.93 227.715H833.444L834.288 223.243C830.519 226.674 825.879 228.39 820.367 228.39C816.824 228.39 813.562 227.574 810.581 225.943C807.6 224.312 805.209 221.978 803.41 218.941C801.666 215.847 800.794 212.22 800.794 208.058C800.794 203.052 801.891 198.552 804.085 194.559C806.334 190.509 809.371 187.36 813.196 185.11C817.021 182.804 821.239 181.651 825.851 181.651C832.825 181.651 837.747 183.929 840.615 188.485L841.796 182.326H854.957ZM824.417 217.507C827.004 217.507 829.31 216.888 831.335 215.651C833.36 214.357 834.934 212.585 836.059 210.335C837.184 208.086 837.747 205.498 837.747 202.574C837.747 199.48 836.819 197.034 834.962 195.234C833.163 193.434 830.632 192.534 827.37 192.534C824.782 192.534 822.476 193.181 820.452 194.475C818.427 195.712 816.852 197.456 815.727 199.705C814.602 201.955 814.04 204.542 814.04 207.467C814.04 210.56 814.94 213.007 816.739 214.807C818.595 216.607 821.155 217.507 824.417 217.507ZM867.142 182.326H880.219L871.192 227.715H858.115L867.142 182.326ZM875.916 175.999C873.666 175.999 871.81 175.352 870.348 174.058C868.942 172.708 868.239 171.077 868.239 169.165C868.239 166.915 869.026 165.059 870.601 163.597C872.232 162.078 874.341 161.319 876.929 161.319C879.235 161.319 881.091 161.966 882.497 163.259C883.959 164.497 884.69 166.043 884.69 167.899C884.69 170.318 883.875 172.286 882.244 173.805C880.613 175.267 878.503 175.999 875.916 175.999ZM895.894 165.115H909.056L896.569 227.715H883.408L895.894 165.115ZM920.848 198.102C918.599 198.102 916.742 197.399 915.28 195.993C913.818 194.531 913.087 192.703 913.087 190.509C913.087 187.922 913.93 185.813 915.618 184.182C917.305 182.551 919.386 181.735 921.861 181.735C924.11 181.735 925.938 182.438 927.344 183.845C928.807 185.251 929.538 187.079 929.538 189.328C929.538 191.859 928.666 193.968 926.923 195.656C925.235 197.287 923.211 198.102 920.848 198.102ZM914.774 228.39C912.524 228.39 910.668 227.687 909.206 226.281C907.743 224.818 907.012 222.99 907.012 220.797C907.012 218.21 907.856 216.1 909.543 214.469C911.231 212.838 913.312 212.023 915.786 212.023C918.036 212.023 919.864 212.726 921.27 214.132C922.732 215.538 923.464 217.366 923.464 219.616C923.464 222.147 922.592 224.256 920.848 225.943C919.161 227.574 917.136 228.39 914.774 228.39Z" fill="white"/>
<path d="M697.683 704.999H670.179L662.502 717.654H647.907L686.124 658.598H699.623L714.134 717.654H700.467L697.683 704.999ZM695.405 694.622L690.427 671.844L676.507 694.622H695.405ZM739.834 677.665C741.802 675.528 744.165 673.981 746.921 673.025C749.733 672.069 753.023 671.59 756.791 671.59L754.429 683.739C752.854 683.627 751.842 683.57 751.392 683.57C747.399 683.57 744.193 684.555 741.774 686.523C739.412 688.492 737.809 691.557 736.965 695.719L732.578 717.654H719.417L728.444 672.265H740.931L739.834 677.665ZM772.122 718.329C768.185 718.329 764.444 717.907 760.901 717.064C757.414 716.164 754.686 715.011 752.717 713.605L757.779 704.071C759.748 705.365 762.138 706.406 764.951 707.193C767.819 707.98 770.687 708.374 773.556 708.374C776.537 708.374 778.758 708.008 780.221 707.277C781.683 706.49 782.414 705.393 782.414 703.987C782.414 702.862 781.767 702.047 780.474 701.54C779.18 701.034 777.099 700.5 774.231 699.937C770.969 699.319 768.269 698.644 766.132 697.913C764.051 697.181 762.223 696 760.648 694.369C759.129 692.682 758.37 690.404 758.37 687.536C758.37 682.53 760.451 678.621 764.613 675.809C768.831 672.997 774.343 671.59 781.149 671.59C784.298 671.59 787.364 671.928 790.345 672.603C793.326 673.278 795.857 674.206 797.938 675.387L793.213 685.005C789.501 682.699 785.03 681.546 779.799 681.546C776.93 681.546 774.737 681.968 773.218 682.811C771.756 683.655 771.025 684.723 771.025 686.017C771.025 687.198 771.672 688.07 772.965 688.632C774.259 689.139 776.424 689.701 779.461 690.32C782.667 690.938 785.283 691.613 787.307 692.345C789.389 693.019 791.188 694.172 792.707 695.804C794.225 697.435 794.985 699.656 794.985 702.468C794.985 707.53 792.848 711.439 788.573 714.195C784.355 716.951 778.871 718.329 772.122 718.329ZM835.839 671.59C840.901 671.59 844.922 672.94 847.903 675.64C850.884 678.34 852.375 682.164 852.375 687.114C852.375 688.914 852.178 690.713 851.784 692.513L846.722 717.654H833.561L838.454 693.357C838.679 692.401 838.792 691.36 838.792 690.235C838.792 687.873 838.145 686.073 836.851 684.836C835.558 683.599 833.617 682.98 831.03 682.98C827.655 682.98 824.843 683.964 822.594 685.933C820.4 687.845 818.91 690.742 818.122 694.622L813.566 717.654H800.405L812.891 655.055H826.053L821.834 676.399C825.715 673.193 830.383 671.59 835.839 671.59ZM914.322 672.265L905.295 717.654H892.808L893.652 713.183C889.884 716.614 885.244 718.329 879.732 718.329C876.188 718.329 872.926 717.514 869.945 715.883C866.964 714.252 864.574 711.917 862.774 708.88C861.031 705.787 860.159 702.159 860.159 697.997C860.159 692.991 861.256 688.492 863.449 684.498C865.699 680.449 868.736 677.299 872.561 675.05C876.385 672.744 880.603 671.59 885.215 671.59C892.19 671.59 897.111 673.868 899.98 678.424L901.161 672.265H914.322ZM883.781 707.446C886.368 707.446 888.674 706.827 890.699 705.59C892.724 704.296 894.299 702.525 895.424 700.275C896.549 698.025 897.111 695.438 897.111 692.513C897.111 689.42 896.183 686.973 894.327 685.173C892.527 683.374 889.996 682.474 886.734 682.474C884.147 682.474 881.841 683.121 879.816 684.414C877.791 685.651 876.216 687.395 875.092 689.645C873.967 691.895 873.404 694.482 873.404 697.406C873.404 700.5 874.304 702.947 876.104 704.746C877.96 706.546 880.519 707.446 883.781 707.446ZM983.454 671.59C988.403 671.59 992.34 672.94 995.265 675.64C998.19 678.284 999.652 682.052 999.652 686.945C999.652 688.745 999.455 690.601 999.061 692.513L994.084 717.654H980.923L985.732 693.441C985.957 692.316 986.069 691.163 986.069 689.982C986.069 687.676 985.45 685.933 984.213 684.752C983.032 683.57 981.26 682.98 978.898 682.98C972.542 682.98 968.577 686.776 967.002 694.369L962.362 717.654H949.201L954.01 693.441C954.235 692.316 954.347 691.192 954.347 690.067C954.347 687.761 953.729 686.017 952.491 684.836C951.31 683.599 949.539 682.98 947.176 682.98C940.821 682.98 936.827 686.833 935.196 694.538L930.641 717.654H917.48L926.507 672.265H938.993L937.98 676.99C941.918 673.39 946.67 671.59 952.238 671.59C955.388 671.59 958.172 672.237 960.591 673.531C963.065 674.768 964.921 676.596 966.159 679.015C968.352 676.596 970.911 674.768 973.836 673.531C976.761 672.237 979.967 671.59 983.454 671.59ZM1051.29 718.667C1046.62 718.667 1042.15 718.048 1037.87 716.811C1033.6 715.573 1030.17 713.998 1027.58 712.086L1033.15 701.54C1035.85 703.509 1038.88 705.028 1042.26 706.096C1045.63 707.165 1049.09 707.699 1052.64 707.699C1056.4 707.699 1059.39 707.08 1061.58 705.843C1063.77 704.606 1064.87 702.918 1064.87 700.781C1064.87 699.038 1064 697.716 1062.25 696.816C1060.51 695.86 1057.73 694.847 1053.9 693.779C1050.08 692.654 1046.96 691.585 1044.54 690.573C1042.12 689.504 1040.01 687.929 1038.21 685.848C1036.47 683.767 1035.59 681.011 1035.59 677.58C1035.59 673.587 1036.69 670.072 1038.88 667.035C1041.13 663.998 1044.28 661.663 1048.33 660.032C1052.44 658.401 1057.19 657.586 1062.59 657.586C1066.58 657.586 1070.35 658.036 1073.9 658.936C1077.44 659.779 1080.48 661.017 1083.01 662.648L1077.86 673.109C1075.67 671.59 1073.19 670.466 1070.44 669.734C1067.68 668.947 1064.81 668.553 1061.83 668.553C1057.95 668.553 1054.89 669.228 1052.64 670.578C1050.39 671.928 1049.26 673.672 1049.26 675.809C1049.26 677.102 1049.74 678.199 1050.7 679.099C1051.65 679.943 1052.86 680.646 1054.32 681.208C1055.79 681.714 1057.84 682.333 1060.48 683.064C1064.25 684.077 1067.34 685.117 1069.76 686.186C1072.18 687.198 1074.23 688.717 1075.92 690.742C1077.66 692.71 1078.54 695.325 1078.54 698.588C1078.54 702.637 1077.41 706.181 1075.16 709.218C1072.91 712.199 1069.73 714.533 1065.63 716.22C1061.52 717.851 1056.74 718.667 1051.29 718.667ZM1119.09 671.59C1124.15 671.59 1128.17 672.94 1131.16 675.64C1134.14 678.34 1135.63 682.164 1135.63 687.114C1135.63 688.914 1135.43 690.713 1135.04 692.513L1129.97 717.654H1116.81L1121.71 693.357C1121.93 692.401 1122.04 691.36 1122.04 690.235C1122.04 687.873 1121.4 686.073 1120.1 684.836C1118.81 683.599 1116.87 682.98 1114.28 682.98C1110.91 682.98 1108.1 683.964 1105.85 685.933C1103.65 687.845 1102.16 690.742 1101.37 694.622L1096.82 717.654H1083.66L1096.14 655.055H1109.3L1105.09 676.399C1108.97 673.193 1113.64 671.59 1119.09 671.59ZM1151.02 672.265H1164.09L1155.07 717.654H1141.99L1151.02 672.265ZM1159.79 665.938C1157.54 665.938 1155.68 665.291 1154.22 663.998C1152.82 662.648 1152.11 661.017 1152.11 659.104C1152.11 656.855 1152.9 654.999 1154.47 653.536C1156.11 652.018 1158.21 651.258 1160.8 651.258C1163.11 651.258 1164.96 651.905 1166.37 653.199C1167.83 654.436 1168.56 655.983 1168.56 657.839C1168.56 660.257 1167.75 662.226 1166.12 663.744C1164.49 665.207 1162.38 665.938 1159.79 665.938ZM1187.7 677.665C1189.67 675.528 1192.03 673.981 1194.79 673.025C1197.6 672.069 1200.89 671.59 1204.66 671.59L1202.29 683.739C1200.72 683.627 1199.71 683.57 1199.26 683.57C1195.26 683.57 1192.06 684.555 1189.64 686.523C1187.28 688.492 1185.67 691.557 1184.83 695.719L1180.44 717.654H1167.28L1176.31 672.265H1188.8L1187.7 677.665ZM1237.12 692.007L1252.72 717.654H1237.45L1226.65 700.022L1218.64 706.687L1216.45 717.654H1203.29L1215.77 655.055H1228.93L1221.93 690.067L1243.7 672.265H1260.82L1237.12 692.007ZM1279.39 718.329C1274.84 718.329 1270.81 717.486 1267.33 715.798C1263.9 714.111 1261.22 711.749 1259.31 708.712C1257.46 705.618 1256.53 702.047 1256.53 697.997C1256.53 692.991 1257.71 688.492 1260.07 684.498C1262.43 680.505 1265.7 677.356 1269.86 675.05C1274.02 672.744 1278.72 671.59 1283.95 671.59C1288.56 671.59 1292.58 672.434 1296.01 674.121C1299.44 675.809 1302.09 678.199 1303.94 681.293C1305.85 684.33 1306.81 687.873 1306.81 691.923C1306.81 696.928 1305.63 701.428 1303.27 705.421C1300.96 709.415 1297.7 712.564 1293.48 714.87C1289.32 717.176 1284.62 718.329 1279.39 718.329ZM1280.24 707.446C1282.77 707.446 1285.04 706.827 1287.07 705.59C1289.09 704.296 1290.67 702.525 1291.79 700.275C1292.92 698.025 1293.48 695.438 1293.48 692.513C1293.48 689.42 1292.58 686.973 1290.78 685.173C1288.98 683.374 1286.45 682.474 1283.19 682.474C1280.6 682.474 1278.29 683.121 1276.27 684.414C1274.25 685.651 1272.67 687.395 1271.55 689.645C1270.42 691.895 1269.86 694.482 1269.86 697.406C1269.86 700.5 1270.76 702.947 1272.56 704.746C1274.41 706.546 1276.97 707.446 1280.24 707.446ZM1365.64 672.265L1356.61 717.654H1344.13L1345.05 712.761C1343.08 714.617 1340.83 716.023 1338.3 716.979C1335.77 717.879 1333.1 718.329 1330.29 718.329C1325.34 718.329 1321.37 716.979 1318.39 714.28C1315.47 711.58 1314.01 707.783 1314.01 702.89C1314.01 701.034 1314.2 699.206 1314.6 697.406L1319.57 672.265H1332.74L1327.93 696.563C1327.7 697.631 1327.59 698.728 1327.59 699.853C1327.59 704.578 1330.12 706.94 1335.18 706.94C1338.5 706.94 1341.23 705.984 1343.37 704.071C1345.56 702.103 1347.05 699.178 1347.84 695.297L1352.48 672.265H1365.64ZM1404.24 671.59C1409.3 671.59 1413.32 672.94 1416.3 675.64C1419.28 678.34 1420.77 682.164 1420.77 687.114C1420.77 688.914 1420.58 690.713 1420.18 692.513L1415.12 717.654H1401.96L1406.85 693.357C1407.08 692.401 1407.19 691.36 1407.19 690.235C1407.19 687.873 1406.54 686.073 1405.25 684.836C1403.96 683.599 1402.02 682.98 1399.43 682.98C1396.05 682.98 1393.24 683.964 1390.99 685.933C1388.8 687.845 1387.31 690.742 1386.52 694.622L1381.97 717.654H1368.8L1381.29 655.055H1394.45L1390.23 676.399C1394.11 673.193 1398.78 671.59 1404.24 671.59ZM1436.16 672.265H1449.24L1440.21 717.654H1427.14L1436.16 672.265ZM1444.94 665.938C1442.69 665.938 1440.83 665.291 1439.37 663.998C1437.96 662.648 1437.26 661.017 1437.26 659.104C1437.26 656.855 1438.05 654.999 1439.62 653.536C1441.25 652.018 1443.36 651.258 1445.95 651.258C1448.26 651.258 1450.11 651.905 1451.52 653.199C1452.98 654.436 1453.71 655.983 1453.71 657.839C1453.71 660.257 1452.9 662.226 1451.26 663.744C1449.63 665.207 1447.52 665.938 1444.94 665.938Z" fill="white"/>
<path d="M671.165 553.008H684.917L675.299 600.928H704.911L702.634 612.064H659.354L671.165 553.008ZM718.453 566.675H731.53L722.503 612.064H709.426L718.453 566.675ZM727.228 560.348C724.978 560.348 723.122 559.701 721.659 558.407C720.253 557.057 719.55 555.426 719.55 553.514C719.55 551.264 720.338 549.408 721.912 547.946C723.544 546.427 725.653 545.668 728.24 545.668C730.546 545.668 732.402 546.315 733.808 547.608C735.27 548.846 736.002 550.392 736.002 552.249C736.002 554.667 735.186 556.636 733.555 558.154C731.924 559.616 729.815 560.348 727.228 560.348ZM770.153 566C775.215 566 779.237 567.35 782.218 570.05C785.199 572.693 786.689 576.49 786.689 581.439C786.689 583.295 786.492 585.123 786.098 586.923L781.037 612.064H767.875L772.769 587.767C772.994 586.81 773.106 585.77 773.106 584.645C773.106 582.283 772.459 580.483 771.166 579.246C769.872 578.008 767.932 577.39 765.344 577.39C761.97 577.39 759.158 578.374 756.908 580.342C754.714 582.255 753.224 585.151 752.436 589.032L747.881 612.064H734.72L743.747 566.675H756.233L755.221 571.568C759.27 567.856 764.248 566 770.153 566ZM826.882 586.417L842.489 612.064H827.219L816.42 594.431L808.405 601.096L806.212 612.064H793.051L805.537 549.464H818.698L811.696 584.476L833.462 566.675H850.588L826.882 586.417ZM894.72 585.995C894.72 588.076 894.467 590.382 893.96 592.913H859.202C859.652 599.1 863.56 602.193 870.928 602.193C873.234 602.193 875.428 601.828 877.509 601.096C879.646 600.365 881.502 599.325 883.077 597.975L888.561 606.665C886.03 608.689 883.133 610.208 879.871 611.22C876.609 612.233 873.178 612.739 869.579 612.739C864.91 612.739 860.805 611.923 857.261 610.292C853.774 608.605 851.074 606.215 849.162 603.121C847.306 600.028 846.378 596.456 846.378 592.407C846.378 587.401 847.503 582.901 849.753 578.908C852.059 574.859 855.236 571.709 859.286 569.459C863.336 567.153 867.948 566 873.122 566C877.509 566 881.305 566.816 884.511 568.447C887.773 570.078 890.276 572.412 892.02 575.449C893.82 578.486 894.72 582.002 894.72 585.995ZM872.531 575.871C869.438 575.871 866.823 576.715 864.685 578.402C862.548 580.033 861.029 582.311 860.13 585.236H882.655C882.655 582.311 881.727 580.033 879.871 578.402C878.071 576.715 875.625 575.871 872.531 575.871ZM957.06 549.464L944.574 612.064H932.088L933.016 607.508C929.191 610.995 924.551 612.739 919.095 612.739C915.552 612.739 912.29 611.923 909.309 610.292C906.328 608.661 903.938 606.327 902.138 603.29C900.394 600.196 899.523 596.569 899.523 592.407C899.523 587.401 900.619 582.901 902.813 578.908C905.063 574.859 908.1 571.709 911.924 569.459C915.749 567.153 919.967 566 924.579 566C927.898 566 930.794 566.563 933.269 567.687C935.8 568.812 937.797 570.472 939.259 572.665L943.899 549.464H957.06ZM923.145 601.856C925.732 601.856 928.038 601.237 930.063 600C932.088 598.706 933.663 596.934 934.788 594.685C935.912 592.435 936.475 589.848 936.475 586.923C936.475 583.829 935.547 581.383 933.691 579.583C931.891 577.783 929.36 576.883 926.098 576.883C923.511 576.883 921.205 577.53 919.18 578.824C917.155 580.061 915.58 581.805 914.455 584.054C913.33 586.304 912.768 588.891 912.768 591.816C912.768 594.91 913.668 597.356 915.468 599.156C917.324 600.956 919.883 601.856 923.145 601.856ZM965.866 566.675H978.943L969.916 612.064H956.839L965.866 566.675ZM974.641 560.348C972.391 560.348 970.535 559.701 969.072 558.407C967.666 557.057 966.963 555.426 966.963 553.514C966.963 551.264 967.751 549.408 969.325 547.946C970.957 546.427 973.066 545.668 975.653 545.668C977.959 545.668 979.815 546.315 981.221 547.608C982.683 548.846 983.415 550.392 983.415 552.249C983.415 554.667 982.599 556.636 980.968 558.154C979.337 559.616 977.228 560.348 974.641 560.348ZM1017.57 566C1022.63 566 1026.65 567.35 1029.63 570.05C1032.61 572.693 1034.1 576.49 1034.1 581.439C1034.1 583.295 1033.91 585.123 1033.51 586.923L1028.45 612.064H1015.29L1020.18 587.767C1020.41 586.81 1020.52 585.77 1020.52 584.645C1020.52 582.283 1019.87 580.483 1018.58 579.246C1017.29 578.008 1015.34 577.39 1012.76 577.39C1009.38 577.39 1006.57 578.374 1004.32 580.342C1002.13 582.255 1000.64 585.151 999.849 589.032L995.294 612.064H982.133L991.16 566.675H1003.65L1002.63 571.568C1006.68 567.856 1011.66 566 1017.57 566ZM1052.53 582.452C1050.28 582.452 1048.42 581.748 1046.96 580.342C1045.5 578.88 1044.77 577.052 1044.77 574.859C1044.77 572.271 1045.61 570.162 1047.3 568.531C1048.98 566.9 1051.07 566.085 1053.54 566.085C1055.79 566.085 1057.62 566.788 1059.02 568.194C1060.49 569.6 1061.22 571.428 1061.22 573.677C1061.22 576.208 1060.35 578.318 1058.6 580.005C1056.92 581.636 1054.89 582.452 1052.53 582.452ZM1046.45 612.739C1044.2 612.739 1042.35 612.036 1040.89 610.63C1039.42 609.167 1038.69 607.339 1038.69 605.146C1038.69 602.559 1039.54 600.45 1041.22 598.819C1042.91 597.187 1044.99 596.372 1047.47 596.372C1049.72 596.372 1051.54 597.075 1052.95 598.481C1054.41 599.887 1055.14 601.715 1055.14 603.965C1055.14 606.496 1054.27 608.605 1052.53 610.292C1050.84 611.923 1048.82 612.739 1046.45 612.739Z" fill="white"/>
<path d="M679.395 1064.01H651.892L644.215 1076.66H629.62L667.837 1017.6H681.336L695.847 1076.66H682.179L679.395 1064.01ZM677.118 1053.63L672.14 1030.85L658.22 1053.63H677.118ZM721.547 1036.67C723.515 1034.53 725.878 1032.99 728.633 1032.03C731.446 1031.08 734.736 1030.6 738.504 1030.6L736.142 1042.75C734.567 1042.63 733.555 1042.58 733.105 1042.58C729.112 1042.58 725.906 1043.56 723.487 1045.53C721.125 1047.5 719.522 1050.56 718.678 1054.73L714.291 1076.66H701.13L710.157 1031.27H722.644L721.547 1036.67ZM753.835 1077.34C749.897 1077.34 746.157 1076.91 742.614 1076.07C739.127 1075.17 736.399 1074.02 734.43 1072.61L739.492 1063.08C741.461 1064.37 743.851 1065.41 746.663 1066.2C749.532 1066.99 752.4 1067.38 755.269 1067.38C758.25 1067.38 760.471 1067.02 761.934 1066.28C763.396 1065.5 764.127 1064.4 764.127 1062.99C764.127 1061.87 763.48 1061.05 762.187 1060.55C760.893 1060.04 758.812 1059.51 755.944 1058.94C752.682 1058.33 749.982 1057.65 747.845 1056.92C745.763 1056.19 743.936 1055.01 742.361 1053.38C740.842 1051.69 740.083 1049.41 740.083 1046.54C740.083 1041.54 742.164 1037.63 746.326 1034.82C750.544 1032 756.056 1030.6 762.862 1030.6C766.011 1030.6 769.077 1030.93 772.058 1031.61C775.038 1032.28 777.569 1033.21 779.65 1034.39L774.926 1044.01C771.214 1041.71 766.742 1040.55 761.512 1040.55C758.643 1040.55 756.45 1040.97 754.931 1041.82C753.469 1042.66 752.738 1043.73 752.738 1045.02C752.738 1046.21 753.385 1047.08 754.678 1047.64C755.972 1048.15 758.137 1048.71 761.174 1049.33C764.38 1049.95 766.996 1050.62 769.02 1051.35C771.101 1052.03 772.901 1053.18 774.42 1054.81C775.938 1056.44 776.698 1058.66 776.698 1061.48C776.698 1066.54 774.56 1070.45 770.286 1073.2C766.068 1075.96 760.584 1077.34 753.835 1077.34ZM817.552 1030.6C822.614 1030.6 826.635 1031.95 829.616 1034.65C832.597 1037.35 834.088 1041.17 834.088 1046.12C834.088 1047.92 833.891 1049.72 833.497 1051.52L828.435 1076.66H815.274L820.167 1052.36C820.392 1051.41 820.505 1050.37 820.505 1049.24C820.505 1046.88 819.858 1045.08 818.564 1043.84C817.271 1042.61 815.33 1041.99 812.743 1041.99C809.368 1041.99 806.556 1042.97 804.306 1044.94C802.113 1046.85 800.622 1049.75 799.835 1053.63L795.279 1076.66H782.118L794.604 1014.06H807.765L803.547 1035.41C807.428 1032.2 812.096 1030.6 817.552 1030.6ZM896.035 1031.27L887.007 1076.66H874.521L875.365 1072.19C871.597 1075.62 866.956 1077.34 861.445 1077.34C857.901 1077.34 854.639 1076.52 851.658 1074.89C848.677 1073.26 846.287 1070.92 844.487 1067.89C842.743 1064.79 841.872 1061.17 841.872 1057C841.872 1052 842.968 1047.5 845.162 1043.51C847.412 1039.46 850.449 1036.31 854.273 1034.06C858.098 1031.75 862.316 1030.6 866.928 1030.6C873.903 1030.6 878.824 1032.88 881.692 1037.43L882.874 1031.27H896.035ZM865.494 1066.45C868.081 1066.45 870.387 1065.83 872.412 1064.6C874.437 1063.3 876.012 1061.53 877.137 1059.28C878.262 1057.03 878.824 1054.44 878.824 1051.52C878.824 1048.43 877.896 1045.98 876.04 1044.18C874.24 1042.38 871.709 1041.48 868.447 1041.48C865.86 1041.48 863.554 1042.13 861.529 1043.42C859.504 1044.66 857.929 1046.4 856.804 1048.65C855.68 1050.9 855.117 1053.49 855.117 1056.41C855.117 1059.51 856.017 1061.95 857.817 1063.75C859.673 1065.55 862.232 1066.45 865.494 1066.45ZM965.167 1030.6C970.116 1030.6 974.053 1031.95 976.978 1034.65C979.902 1037.29 981.365 1041.06 981.365 1045.95C981.365 1047.75 981.168 1049.61 980.774 1051.52L975.797 1076.66H962.636L967.444 1052.45C967.669 1051.32 967.782 1050.17 967.782 1048.99C967.782 1046.68 967.163 1044.94 965.926 1043.76C964.745 1042.58 962.973 1041.99 960.611 1041.99C954.255 1041.99 950.29 1045.78 948.715 1053.38L944.075 1076.66H930.914L935.723 1052.45C935.948 1051.32 936.06 1050.2 936.06 1049.07C936.06 1046.77 935.442 1045.02 934.204 1043.84C933.023 1042.61 931.251 1041.99 928.889 1041.99C922.534 1041.99 918.54 1045.84 916.909 1053.54L912.353 1076.66H899.192L908.22 1031.27H920.706L919.693 1036C923.63 1032.4 928.383 1030.6 933.951 1030.6C937.101 1030.6 939.885 1031.24 942.303 1032.54C944.778 1033.78 946.634 1035.6 947.872 1038.02C950.065 1035.6 952.624 1033.78 955.549 1032.54C958.474 1031.24 961.679 1030.6 965.167 1030.6ZM1028.11 1077.34C1024.17 1077.34 1020.43 1076.91 1016.89 1076.07C1013.4 1075.17 1010.67 1074.02 1008.7 1072.61L1013.76 1063.08C1015.73 1064.37 1018.12 1065.41 1020.94 1066.2C1023.8 1066.99 1026.67 1067.38 1029.54 1067.38C1032.52 1067.38 1034.74 1067.02 1036.21 1066.28C1037.67 1065.5 1038.4 1064.4 1038.4 1062.99C1038.4 1061.87 1037.75 1061.05 1036.46 1060.55C1035.16 1060.04 1033.08 1059.51 1030.22 1058.94C1026.95 1058.33 1024.25 1057.65 1022.12 1056.92C1020.04 1056.19 1018.21 1055.01 1016.63 1053.38C1015.11 1051.69 1014.35 1049.41 1014.35 1046.54C1014.35 1041.54 1016.44 1037.63 1020.6 1034.82C1024.82 1032 1030.33 1030.6 1037.13 1030.6C1040.28 1030.6 1043.35 1030.93 1046.33 1031.61C1049.31 1032.28 1051.84 1033.21 1053.92 1034.39L1049.2 1044.01C1045.49 1041.71 1041.01 1040.55 1035.78 1040.55C1032.92 1040.55 1030.72 1040.97 1029.2 1041.82C1027.74 1042.66 1027.01 1043.73 1027.01 1045.02C1027.01 1046.21 1027.66 1047.08 1028.95 1047.64C1030.24 1048.15 1032.41 1048.71 1035.45 1049.33C1038.65 1049.95 1041.27 1050.62 1043.29 1051.35C1045.37 1052.03 1047.17 1053.18 1048.69 1054.81C1050.21 1056.44 1050.97 1058.66 1050.97 1061.48C1050.97 1066.54 1048.83 1070.45 1044.56 1073.2C1040.34 1075.96 1034.86 1077.34 1028.11 1077.34ZM1091.82 1030.6C1096.89 1030.6 1100.91 1031.95 1103.89 1034.65C1106.87 1037.35 1108.36 1041.17 1108.36 1046.12C1108.36 1047.92 1108.16 1049.72 1107.77 1051.52L1102.71 1076.66H1089.55L1094.44 1052.36C1094.66 1051.41 1094.78 1050.37 1094.78 1049.24C1094.78 1046.88 1094.13 1045.08 1092.84 1043.84C1091.54 1042.61 1089.6 1041.99 1087.01 1041.99C1083.64 1041.99 1080.83 1042.97 1078.58 1044.94C1076.38 1046.85 1074.89 1049.75 1074.11 1053.63L1069.55 1076.66H1056.39L1068.88 1014.06H1082.04L1077.82 1035.41C1081.7 1032.2 1086.37 1030.6 1091.82 1030.6ZM1123.75 1031.27H1136.82L1127.8 1076.66H1114.72L1123.75 1031.27ZM1132.52 1024.94C1130.27 1024.94 1128.42 1024.3 1126.95 1023C1125.55 1021.65 1124.84 1020.02 1124.84 1018.11C1124.84 1015.86 1125.63 1014.01 1127.21 1012.54C1128.84 1011.02 1130.95 1010.27 1133.53 1010.27C1135.84 1010.27 1137.7 1010.91 1139.1 1012.21C1140.57 1013.44 1141.3 1014.99 1141.3 1016.85C1141.3 1019.26 1140.48 1021.23 1138.85 1022.75C1137.22 1024.21 1135.11 1024.94 1132.52 1024.94ZM1160.43 1036.67C1162.4 1034.53 1164.76 1032.99 1167.52 1032.03C1170.33 1031.08 1173.62 1030.6 1177.39 1030.6L1175.03 1042.75C1173.45 1042.63 1172.44 1042.58 1171.99 1042.58C1168 1042.58 1164.79 1043.56 1162.37 1045.53C1160.01 1047.5 1158.41 1050.56 1157.56 1054.73L1153.18 1076.66H1140.01L1149.04 1031.27H1161.53L1160.43 1036.67ZM1209.85 1051.01L1225.46 1076.66H1210.19L1199.39 1059.03L1191.37 1065.69L1189.18 1076.66H1176.02L1188.5 1014.06H1201.67L1194.66 1049.07L1216.43 1031.27H1233.56L1209.85 1051.01ZM1252.12 1077.34C1247.57 1077.34 1243.55 1076.49 1240.06 1074.81C1236.63 1073.12 1233.96 1070.76 1232.04 1067.72C1230.19 1064.62 1229.26 1061.05 1229.26 1057C1229.26 1052 1230.44 1047.5 1232.8 1043.51C1235.17 1039.51 1238.43 1036.36 1242.59 1034.06C1246.75 1031.75 1251.45 1030.6 1256.68 1030.6C1261.29 1030.6 1265.31 1031.44 1268.74 1033.13C1272.18 1034.82 1274.82 1037.21 1276.67 1040.3C1278.59 1043.34 1279.54 1046.88 1279.54 1050.93C1279.54 1055.94 1278.36 1060.43 1276 1064.43C1273.69 1068.42 1270.43 1071.57 1266.21 1073.88C1262.05 1076.18 1257.35 1077.34 1252.12 1077.34ZM1252.97 1066.45C1255.5 1066.45 1257.78 1065.83 1259.8 1064.6C1261.83 1063.3 1263.4 1061.53 1264.53 1059.28C1265.65 1057.03 1266.21 1054.44 1266.21 1051.52C1266.21 1048.43 1265.31 1045.98 1263.51 1044.18C1261.71 1042.38 1259.18 1041.48 1255.92 1041.48C1253.33 1041.48 1251.03 1042.13 1249 1043.42C1246.98 1044.66 1245.4 1046.4 1244.28 1048.65C1243.15 1050.9 1242.59 1053.49 1242.59 1056.41C1242.59 1059.51 1243.49 1061.95 1245.29 1063.75C1247.15 1065.55 1249.71 1066.45 1252.97 1066.45ZM1338.37 1031.27L1329.34 1076.66H1316.86L1317.79 1071.77C1315.82 1073.62 1313.57 1075.03 1311.04 1075.99C1308.51 1076.89 1305.83 1077.34 1303.02 1077.34C1298.07 1077.34 1294.11 1075.99 1291.13 1073.29C1288.2 1070.59 1286.74 1066.79 1286.74 1061.9C1286.74 1060.04 1286.94 1058.21 1287.33 1056.41L1292.31 1031.27H1305.47L1300.66 1055.57C1300.43 1056.64 1300.32 1057.74 1300.32 1058.86C1300.32 1063.58 1302.85 1065.95 1307.91 1065.95C1311.23 1065.95 1313.96 1064.99 1316.1 1063.08C1318.29 1061.11 1319.78 1058.18 1320.57 1054.3L1325.21 1031.27H1338.37ZM1376.97 1030.6C1382.03 1030.6 1386.05 1031.95 1389.03 1034.65C1392.02 1037.35 1393.51 1041.17 1393.51 1046.12C1393.51 1047.92 1393.31 1049.72 1392.92 1051.52L1387.85 1076.66H1374.69L1379.59 1052.36C1379.81 1051.41 1379.92 1050.37 1379.92 1049.24C1379.92 1046.88 1379.28 1045.08 1377.98 1043.84C1376.69 1042.61 1374.75 1041.99 1372.16 1041.99C1368.79 1041.99 1365.97 1042.97 1363.73 1044.94C1361.53 1046.85 1360.04 1049.75 1359.25 1053.63L1354.7 1076.66H1341.54L1354.02 1014.06H1367.18L1362.97 1035.41C1366.85 1032.2 1371.51 1030.6 1376.97 1030.6ZM1408.9 1031.27H1421.97L1412.94 1076.66H1399.87L1408.9 1031.27ZM1417.67 1024.94C1415.42 1024.94 1413.56 1024.3 1412.1 1023C1410.69 1021.65 1409.99 1020.02 1409.99 1018.11C1409.99 1015.86 1410.78 1014.01 1412.35 1012.54C1413.99 1011.02 1416.09 1010.27 1418.68 1010.27C1420.99 1010.27 1422.84 1010.91 1424.25 1012.21C1425.71 1013.44 1426.44 1014.99 1426.44 1016.85C1426.44 1019.26 1425.63 1021.23 1424 1022.75C1422.37 1024.21 1420.26 1024.94 1417.67 1024.94Z" fill="white"/>
<path d="M664.352 922.982L661.23 938.59H688.649L686.371 949.557H659.121L654.818 971.071H641.067L652.878 912.015H697.508L695.23 922.982H664.352ZM748.043 925.682L739.016 971.071H726.529L727.373 966.599C723.605 970.03 718.965 971.746 713.453 971.746C709.909 971.746 706.647 970.93 703.666 969.299C700.685 967.668 698.295 965.334 696.495 962.297C694.752 959.203 693.88 955.576 693.88 951.414C693.88 946.408 694.977 941.908 697.17 937.915C699.42 933.865 702.457 930.716 706.282 928.466C710.106 926.16 714.324 925.007 718.936 925.007C725.911 925.007 730.832 927.285 733.701 931.841L734.882 925.682H748.043ZM717.502 960.863C720.089 960.863 722.395 960.244 724.42 959.006C726.445 957.713 728.02 955.941 729.145 953.691C730.27 951.442 730.832 948.854 730.832 945.93C730.832 942.836 729.904 940.39 728.048 938.59C726.248 936.79 723.717 935.89 720.455 935.89C717.868 935.89 715.562 936.537 713.537 937.831C711.512 939.068 709.937 940.812 708.813 943.061C707.688 945.311 707.125 947.898 707.125 950.823C707.125 953.916 708.025 956.363 709.825 958.163C711.681 959.963 714.24 960.863 717.502 960.863ZM775.16 971.746C770.492 971.746 766.415 970.902 762.927 969.215C759.44 967.527 756.741 965.165 754.828 962.128C752.972 959.035 752.044 955.463 752.044 951.414C752.044 946.408 753.225 941.908 755.588 937.915C757.95 933.922 761.24 930.772 765.458 928.466C769.677 926.16 774.429 925.007 779.716 925.007C784.553 925.007 788.715 926.019 792.202 928.044C795.746 930.013 798.389 932.825 800.133 936.481L788.996 942.049C787.028 937.943 783.653 935.89 778.873 935.89C776.285 935.89 773.951 936.537 771.87 937.831C769.845 939.068 768.242 940.812 767.061 943.061C765.936 945.311 765.374 947.87 765.374 950.739C765.374 953.832 766.302 956.307 768.158 958.163C770.014 959.963 772.601 960.863 775.92 960.863C780.757 960.863 784.469 958.838 787.056 954.788L796.758 960.863C794.565 964.293 791.556 966.965 787.731 968.877C783.963 970.79 779.772 971.746 775.16 971.746ZM849.739 945.002C849.739 947.083 849.486 949.389 848.979 951.92H814.221C814.671 958.107 818.579 961.2 825.947 961.2C828.253 961.2 830.447 960.834 832.528 960.103C834.665 959.372 836.521 958.332 838.096 956.982L843.58 965.671C841.049 967.696 838.152 969.215 834.89 970.227C831.628 971.24 828.197 971.746 824.598 971.746C819.929 971.746 815.824 970.93 812.28 969.299C808.793 967.612 806.093 965.221 804.181 962.128C802.325 959.035 801.397 955.463 801.397 951.414C801.397 946.408 802.522 941.908 804.772 937.915C807.078 933.865 810.255 930.716 814.305 928.466C818.354 926.16 822.966 925.007 828.141 925.007C832.528 925.007 836.324 925.823 839.53 927.454C842.792 929.085 845.295 931.419 847.039 934.456C848.839 937.493 849.739 941.008 849.739 945.002ZM827.55 934.878C824.457 934.878 821.842 935.721 819.704 937.409C817.567 939.04 816.048 941.318 815.149 944.242H837.674C837.674 941.318 836.746 939.04 834.89 937.409C833.09 935.721 830.644 934.878 827.55 934.878ZM887.95 925.007C891.494 925.007 894.756 925.823 897.737 927.454C900.774 929.085 903.164 931.447 904.908 934.54C906.708 937.578 907.608 941.177 907.608 945.339C907.608 950.345 906.483 954.873 904.233 958.922C902.04 962.915 899.031 966.065 895.206 968.371C891.381 970.621 887.135 971.746 882.467 971.746C878.923 971.746 875.858 971.127 873.271 969.89C870.684 968.652 868.687 966.796 867.281 964.322L865.931 971.071H853.445L865.931 908.471H879.092L874.874 929.563C878.53 926.526 882.888 925.007 887.95 925.007ZM880.948 960.863C883.535 960.863 885.841 960.244 887.866 959.006C889.891 957.713 891.466 955.941 892.591 953.691C893.715 951.442 894.278 948.854 894.278 945.93C894.278 942.836 893.35 940.39 891.494 938.59C889.694 936.79 887.163 935.89 883.901 935.89C881.37 935.89 879.092 936.537 877.067 937.831C875.042 939.068 873.468 940.812 872.343 943.061C871.218 945.311 870.655 947.898 870.655 950.823C870.655 953.916 871.555 956.363 873.355 958.163C875.155 959.963 877.686 960.863 880.948 960.863ZM935.4 971.746C930.845 971.746 926.823 970.902 923.336 969.215C919.905 967.527 917.234 965.165 915.321 962.128C913.465 959.035 912.537 955.463 912.537 951.414C912.537 946.408 913.718 941.908 916.081 937.915C918.443 933.922 921.705 930.772 925.867 928.466C930.029 926.16 934.725 925.007 939.956 925.007C944.568 925.007 948.59 925.851 952.02 927.538C955.451 929.225 958.095 931.616 959.951 934.709C961.863 937.746 962.819 941.29 962.819 945.339C962.819 950.345 961.638 954.844 959.276 958.838C956.97 962.831 953.708 965.981 949.489 968.287C945.327 970.593 940.631 971.746 935.4 971.746ZM936.244 960.863C938.775 960.863 941.053 960.244 943.078 959.006C945.102 957.713 946.677 955.941 947.802 953.691C948.927 951.442 949.489 948.854 949.489 945.93C949.489 942.836 948.59 940.39 946.79 938.59C944.99 936.79 942.459 935.89 939.197 935.89C936.61 935.89 934.304 936.537 932.279 937.831C930.254 939.068 928.679 940.812 927.554 943.061C926.429 945.311 925.867 947.898 925.867 950.823C925.867 953.916 926.767 956.363 928.567 958.163C930.423 959.963 932.982 960.863 936.244 960.863ZM990.601 971.746C986.045 971.746 982.024 970.902 978.536 969.215C975.105 967.527 972.434 965.165 970.522 962.128C968.666 959.035 967.738 955.463 967.738 951.414C967.738 946.408 968.919 941.908 971.281 937.915C973.643 933.922 976.905 930.772 981.067 928.466C985.229 926.16 989.926 925.007 995.156 925.007C999.768 925.007 1003.79 925.851 1007.22 927.538C1010.65 929.225 1013.3 931.616 1015.15 934.709C1017.06 937.746 1018.02 941.29 1018.02 945.339C1018.02 950.345 1016.84 954.844 1014.48 958.838C1012.17 962.831 1008.91 965.981 1004.69 968.287C1000.53 970.593 995.831 971.746 990.601 971.746ZM991.444 960.863C993.975 960.863 996.253 960.244 998.278 959.006C1000.3 957.713 1001.88 955.941 1003 953.691C1004.13 951.442 1004.69 948.854 1004.69 945.93C1004.69 942.836 1003.79 940.39 1001.99 938.59C1000.19 936.79 997.659 935.89 994.397 935.89C991.81 935.89 989.504 936.537 987.479 937.831C985.454 939.068 983.88 940.812 982.755 943.061C981.63 945.311 981.067 947.898 981.067 950.823C981.067 953.916 981.967 956.363 983.767 958.163C985.623 959.963 988.182 960.863 991.444 960.863ZM1055.92 945.424L1071.53 971.071H1056.26L1045.46 953.438L1037.45 960.103L1035.26 971.071H1022.09L1034.58 908.471H1047.74L1040.74 943.483L1062.51 925.682H1079.63L1055.92 945.424ZM1088.54 941.458C1086.29 941.458 1084.43 940.755 1082.97 939.349C1081.5 937.887 1080.77 936.059 1080.77 933.865C1080.77 931.278 1081.62 929.169 1083.3 927.538C1084.99 925.907 1087.07 925.091 1089.55 925.091C1091.8 925.091 1093.63 925.794 1095.03 927.201C1096.49 928.607 1097.22 930.435 1097.22 932.684C1097.22 935.215 1096.35 937.324 1094.61 939.012C1092.92 940.643 1090.9 941.458 1088.54 941.458ZM1082.46 971.746C1080.21 971.746 1078.35 971.043 1076.89 969.637C1075.43 968.174 1074.7 966.346 1074.7 964.153C1074.7 961.566 1075.54 959.456 1077.23 957.825C1078.92 956.194 1081 955.379 1083.47 955.379C1085.72 955.379 1087.55 956.082 1088.96 957.488C1090.42 958.894 1091.15 960.722 1091.15 962.972C1091.15 965.503 1090.28 967.612 1088.54 969.299C1086.85 970.93 1084.82 971.746 1082.46 971.746Z" fill="white"/>
<path d="M687.405 1390.28L678.378 1435.67H665.892L666.735 1431.2C662.967 1434.63 658.327 1436.34 652.815 1436.34C649.271 1436.34 646.009 1435.53 643.028 1433.9C640.047 1432.27 637.657 1429.93 635.857 1426.89C634.114 1423.8 633.242 1420.17 633.242 1416.01C633.242 1411.01 634.339 1406.51 636.532 1402.51C638.782 1398.46 641.819 1395.31 645.644 1393.06C649.468 1390.76 653.687 1389.6 658.299 1389.6C665.273 1389.6 670.194 1391.88 673.063 1396.44L674.244 1390.28H687.405ZM656.864 1425.46C659.452 1425.46 661.758 1424.84 663.782 1423.6C665.807 1422.31 667.382 1420.54 668.507 1418.29C669.632 1416.04 670.194 1413.45 670.194 1410.53C670.194 1407.43 669.266 1404.99 667.41 1403.19C665.61 1401.39 663.079 1400.49 659.817 1400.49C657.23 1400.49 654.924 1401.13 652.899 1402.43C650.874 1403.67 649.3 1405.41 648.175 1407.66C647.05 1409.91 646.487 1412.5 646.487 1415.42C646.487 1418.51 647.387 1420.96 649.187 1422.76C651.043 1424.56 653.602 1425.46 656.864 1425.46ZM710.979 1395.68C712.948 1393.54 715.31 1392 718.066 1391.04C720.878 1390.08 724.168 1389.6 727.937 1389.6L725.574 1401.75C724 1401.64 722.987 1401.58 722.537 1401.58C718.544 1401.58 715.338 1402.57 712.92 1404.54C710.557 1406.51 708.954 1409.57 708.111 1413.73L703.724 1435.67H690.563L699.59 1390.28H712.076L710.979 1395.68ZM743.267 1436.34C739.33 1436.34 735.59 1435.92 732.046 1435.08C728.559 1434.18 725.831 1433.02 723.863 1431.62L728.925 1422.09C730.893 1423.38 733.284 1424.42 736.096 1425.21C738.964 1425.99 741.833 1426.39 744.701 1426.39C747.682 1426.39 749.904 1426.02 751.366 1425.29C752.828 1424.5 753.56 1423.41 753.56 1422C753.56 1420.88 752.913 1420.06 751.619 1419.55C750.326 1419.05 748.245 1418.51 745.376 1417.95C742.114 1417.33 739.414 1416.66 737.277 1415.93C735.196 1415.2 733.368 1414.01 731.793 1412.38C730.275 1410.7 729.515 1408.42 729.515 1405.55C729.515 1400.54 731.596 1396.64 735.758 1393.82C739.977 1391.01 745.489 1389.6 752.294 1389.6C755.444 1389.6 758.509 1389.94 761.49 1390.62C764.471 1391.29 767.002 1392.22 769.083 1393.4L764.358 1403.02C760.646 1400.71 756.175 1399.56 750.944 1399.56C748.076 1399.56 745.882 1399.98 744.364 1400.83C742.901 1401.67 742.17 1402.74 742.17 1404.03C742.17 1405.21 742.817 1406.08 744.111 1406.65C745.404 1407.15 747.57 1407.72 750.607 1408.33C753.813 1408.95 756.428 1409.63 758.453 1410.36C760.534 1411.03 762.334 1412.19 763.852 1413.82C765.371 1415.45 766.13 1417.67 766.13 1420.48C766.13 1425.54 763.993 1429.45 759.718 1432.21C755.5 1434.97 750.016 1436.34 743.267 1436.34ZM806.984 1389.6C812.046 1389.6 816.068 1390.95 819.049 1393.65C822.03 1396.35 823.52 1400.18 823.52 1405.13C823.52 1406.93 823.323 1408.73 822.929 1410.53L817.868 1435.67H804.706L809.6 1411.37C809.825 1410.41 809.937 1409.37 809.937 1408.25C809.937 1405.89 809.29 1404.09 807.997 1402.85C806.703 1401.61 804.763 1400.99 802.175 1400.99C798.801 1400.99 795.989 1401.98 793.739 1403.95C791.545 1405.86 790.055 1408.76 789.267 1412.64L784.712 1435.67H771.551L784.037 1373.07H797.198L792.98 1394.41C796.86 1391.21 801.529 1389.6 806.984 1389.6ZM885.467 1390.28L876.44 1435.67H863.954L864.797 1431.2C861.029 1434.63 856.389 1436.34 850.877 1436.34C847.334 1436.34 844.071 1435.53 841.091 1433.9C838.11 1432.27 835.719 1429.93 833.919 1426.89C832.176 1423.8 831.304 1420.17 831.304 1416.01C831.304 1411.01 832.401 1406.51 834.594 1402.51C836.844 1398.46 839.881 1395.31 843.706 1393.06C847.53 1390.76 851.749 1389.6 856.361 1389.6C863.335 1389.6 868.256 1391.88 871.125 1396.44L872.306 1390.28H885.467ZM854.927 1425.46C857.514 1425.46 859.82 1424.84 861.845 1423.6C863.869 1422.31 865.444 1420.54 866.569 1418.29C867.694 1416.04 868.256 1413.45 868.256 1410.53C868.256 1407.43 867.328 1404.99 865.472 1403.19C863.673 1401.39 861.142 1400.49 857.879 1400.49C855.292 1400.49 852.986 1401.13 850.961 1402.43C848.937 1403.67 847.362 1405.41 846.237 1407.66C845.112 1409.91 844.55 1412.5 844.55 1415.42C844.55 1418.51 845.449 1420.96 847.249 1422.76C849.105 1424.56 851.664 1425.46 854.927 1425.46ZM954.599 1389.6C959.548 1389.6 963.486 1390.95 966.41 1393.65C969.335 1396.3 970.797 1400.07 970.797 1404.96C970.797 1406.76 970.6 1408.62 970.207 1410.53L965.229 1435.67H952.068L956.877 1411.46C957.102 1410.33 957.214 1409.18 957.214 1408C957.214 1405.69 956.596 1403.95 955.358 1402.77C954.177 1401.58 952.405 1400.99 950.043 1400.99C943.688 1400.99 939.722 1404.79 938.148 1412.38L933.508 1435.67H920.346L925.155 1411.46C925.38 1410.33 925.493 1409.21 925.493 1408.08C925.493 1405.77 924.874 1404.03 923.637 1402.85C922.456 1401.61 920.684 1400.99 918.322 1400.99C911.966 1400.99 907.973 1404.85 906.342 1412.55L901.786 1435.67H888.625L897.652 1390.28H910.138L909.126 1395C913.063 1391.4 917.815 1389.6 923.384 1389.6C926.533 1389.6 929.317 1390.25 931.736 1391.55C934.211 1392.78 936.067 1394.61 937.304 1397.03C939.497 1394.61 942.057 1392.78 944.981 1391.55C947.906 1390.25 951.112 1389.6 954.599 1389.6ZM970.951 1435.67H1013.13L1011.62 1443.26H969.433L970.951 1435.67ZM1036.65 1436.34C1032.72 1436.34 1028.98 1435.92 1025.43 1435.08C1021.94 1434.18 1019.22 1433.02 1017.25 1431.62L1022.31 1422.09C1024.28 1423.38 1026.67 1424.42 1029.48 1425.21C1032.35 1425.99 1035.22 1426.39 1038.09 1426.39C1041.07 1426.39 1043.29 1426.02 1044.75 1425.29C1046.21 1424.5 1046.95 1423.41 1046.95 1422C1046.95 1420.88 1046.3 1420.06 1045.01 1419.55C1043.71 1419.05 1041.63 1418.51 1038.76 1417.95C1035.5 1417.33 1032.8 1416.66 1030.66 1415.93C1028.58 1415.2 1026.75 1414.01 1025.18 1412.38C1023.66 1410.7 1022.9 1408.42 1022.9 1405.55C1022.9 1400.54 1024.98 1396.64 1029.14 1393.82C1033.36 1391.01 1038.87 1389.6 1045.68 1389.6C1048.83 1389.6 1051.89 1389.94 1054.88 1390.62C1057.86 1391.29 1060.39 1392.22 1062.47 1393.4L1057.74 1403.02C1054.03 1400.71 1049.56 1399.56 1044.33 1399.56C1041.46 1399.56 1039.27 1399.98 1037.75 1400.83C1036.29 1401.67 1035.56 1402.74 1035.56 1404.03C1035.56 1405.21 1036.2 1406.08 1037.5 1406.65C1038.79 1407.15 1040.96 1407.72 1043.99 1408.33C1047.2 1408.95 1049.81 1409.63 1051.84 1410.36C1053.92 1411.03 1055.72 1412.19 1057.24 1413.82C1058.76 1415.45 1059.52 1417.67 1059.52 1420.48C1059.52 1425.54 1057.38 1429.45 1053.1 1432.21C1048.89 1434.97 1043.4 1436.34 1036.65 1436.34ZM1100.37 1389.6C1105.43 1389.6 1109.45 1390.95 1112.43 1393.65C1115.42 1396.35 1116.91 1400.18 1116.91 1405.13C1116.91 1406.93 1116.71 1408.73 1116.32 1410.53L1111.25 1435.67H1098.09L1102.99 1411.37C1103.21 1410.41 1103.32 1409.37 1103.32 1408.25C1103.32 1405.89 1102.68 1404.09 1101.38 1402.85C1100.09 1401.61 1098.15 1400.99 1095.56 1400.99C1092.19 1400.99 1089.37 1401.98 1087.12 1403.95C1084.93 1405.86 1083.44 1408.76 1082.65 1412.64L1078.1 1435.67H1064.94L1077.42 1373.07H1090.58L1086.37 1394.41C1090.25 1391.21 1094.91 1389.6 1100.37 1389.6ZM1132.29 1390.28H1145.37L1136.34 1435.67H1123.27L1132.29 1390.28ZM1141.07 1383.95C1138.82 1383.95 1136.96 1383.31 1135.5 1382.01C1134.09 1380.66 1133.39 1379.03 1133.39 1377.12C1133.39 1374.87 1134.18 1373.01 1135.75 1371.55C1137.38 1370.03 1139.49 1369.27 1142.08 1369.27C1144.39 1369.27 1146.24 1369.92 1147.65 1371.21C1149.11 1372.45 1149.84 1374 1149.84 1375.85C1149.84 1378.27 1149.03 1380.24 1147.4 1381.76C1145.77 1383.22 1143.66 1383.95 1141.07 1383.95ZM1168.98 1395.68C1170.95 1393.54 1173.31 1392 1176.06 1391.04C1178.88 1390.08 1182.17 1389.6 1185.94 1389.6L1183.57 1401.75C1182 1401.64 1180.99 1401.58 1180.54 1401.58C1176.54 1401.58 1173.34 1402.57 1170.92 1404.54C1168.56 1406.51 1166.95 1409.57 1166.11 1413.73L1161.72 1435.67H1148.56L1157.59 1390.28H1170.07L1168.98 1395.68ZM1218.4 1410.02L1234 1435.67H1218.73L1207.93 1418.04L1199.92 1424.7L1197.73 1435.67H1184.56L1197.05 1373.07H1210.21L1203.21 1408.08L1224.98 1390.28H1242.1L1218.4 1410.02ZM1260.67 1436.34C1256.11 1436.34 1252.09 1435.5 1248.61 1433.81C1245.18 1432.13 1242.5 1429.76 1240.59 1426.73C1238.74 1423.63 1237.81 1420.06 1237.81 1416.01C1237.81 1411.01 1238.99 1406.51 1241.35 1402.51C1243.71 1398.52 1246.98 1395.37 1251.14 1393.06C1255.3 1390.76 1260 1389.6 1265.23 1389.6C1269.84 1389.6 1273.86 1390.45 1277.29 1392.14C1280.72 1393.82 1283.37 1396.21 1285.22 1399.31C1287.13 1402.34 1288.09 1405.89 1288.09 1409.94C1288.09 1414.94 1286.91 1419.44 1284.55 1423.44C1282.24 1427.43 1278.98 1430.58 1274.76 1432.88C1270.6 1435.19 1265.9 1436.34 1260.67 1436.34ZM1261.51 1425.46C1264.05 1425.46 1266.32 1424.84 1268.35 1423.6C1270.37 1422.31 1271.95 1420.54 1273.07 1418.29C1274.2 1416.04 1274.76 1413.45 1274.76 1410.53C1274.76 1407.43 1273.86 1404.99 1272.06 1403.19C1270.26 1401.39 1267.73 1400.49 1264.47 1400.49C1261.88 1400.49 1259.57 1401.13 1257.55 1402.43C1255.52 1403.67 1253.95 1405.41 1252.82 1407.66C1251.7 1409.91 1251.14 1412.5 1251.14 1415.42C1251.14 1418.51 1252.04 1420.96 1253.84 1422.76C1255.69 1424.56 1258.25 1425.46 1261.51 1425.46ZM1346.92 1390.28L1337.89 1435.67H1325.4L1326.33 1430.78C1324.36 1432.63 1322.11 1434.04 1319.58 1434.99C1317.05 1435.89 1314.38 1436.34 1311.57 1436.34C1306.62 1436.34 1302.65 1434.99 1299.67 1432.29C1296.75 1429.59 1295.29 1425.8 1295.29 1420.9C1295.29 1419.05 1295.48 1417.22 1295.88 1415.42L1300.85 1390.28H1314.02L1309.21 1414.58C1308.98 1415.65 1308.87 1416.74 1308.87 1417.87C1308.87 1422.59 1311.4 1424.95 1316.46 1424.95C1319.78 1424.95 1322.51 1424 1324.65 1422.09C1326.84 1420.12 1328.33 1417.19 1329.12 1413.31L1333.76 1390.28H1346.92ZM1385.52 1389.6C1390.58 1389.6 1394.6 1390.95 1397.58 1393.65C1400.56 1396.35 1402.05 1400.18 1402.05 1405.13C1402.05 1406.93 1401.86 1408.73 1401.46 1410.53L1396.4 1435.67H1383.24L1388.13 1411.37C1388.36 1410.41 1388.47 1409.37 1388.47 1408.25C1388.47 1405.89 1387.82 1404.09 1386.53 1402.85C1385.24 1401.61 1383.3 1400.99 1380.71 1400.99C1377.33 1400.99 1374.52 1401.98 1372.27 1403.95C1370.08 1405.86 1368.59 1408.76 1367.8 1412.64L1363.24 1435.67H1350.08L1362.57 1373.07H1375.73L1371.51 1394.41C1375.39 1391.21 1380.06 1389.6 1385.52 1389.6ZM1417.44 1390.28H1430.52L1421.49 1435.67H1408.41L1417.44 1390.28ZM1426.22 1383.95C1423.97 1383.95 1422.11 1383.31 1420.65 1382.01C1419.24 1380.66 1418.54 1379.03 1418.54 1377.12C1418.54 1374.87 1419.33 1373.01 1420.9 1371.55C1422.53 1370.03 1424.64 1369.27 1427.23 1369.27C1429.53 1369.27 1431.39 1369.92 1432.8 1371.21C1434.26 1372.45 1434.99 1374 1434.99 1375.85C1434.99 1378.27 1434.17 1380.24 1432.54 1381.76C1430.91 1383.22 1428.8 1383.95 1426.22 1383.95Z" fill="white"/>
<path d="M648.654 1271.02H662.406L650.595 1330.08H636.843L648.654 1271.02ZM699.116 1284.01C704.178 1284.01 708.199 1285.36 711.18 1288.06C714.161 1290.71 715.651 1294.5 715.651 1299.45C715.651 1301.31 715.455 1303.14 715.061 1304.94L709.999 1330.08H696.838L701.731 1305.78C701.956 1304.82 702.069 1303.78 702.069 1302.66C702.069 1300.3 701.422 1298.5 700.128 1297.26C698.834 1296.02 696.894 1295.4 694.307 1295.4C690.932 1295.4 688.12 1296.39 685.87 1298.36C683.677 1300.27 682.186 1303.17 681.399 1307.05L676.843 1330.08H663.682L672.709 1284.69H685.195L684.183 1289.58C688.232 1285.87 693.21 1284.01 699.116 1284.01ZM738.549 1330.75C734.612 1330.75 730.872 1330.33 727.328 1329.49C723.841 1328.59 721.113 1327.43 719.145 1326.03L724.207 1316.5C726.175 1317.79 728.566 1318.83 731.378 1319.62C734.246 1320.4 737.115 1320.8 739.983 1320.8C742.964 1320.8 745.186 1320.43 746.648 1319.7C748.11 1318.91 748.842 1317.82 748.842 1316.41C748.842 1315.29 748.195 1314.47 746.901 1313.96C745.607 1313.46 743.526 1312.92 740.658 1312.36C737.396 1311.74 734.696 1311.07 732.559 1310.34C730.478 1309.61 728.65 1308.42 727.075 1306.79C725.557 1305.11 724.797 1302.83 724.797 1299.96C724.797 1294.95 726.878 1291.04 731.04 1288.23C735.259 1285.42 740.77 1284.01 747.576 1284.01C750.726 1284.01 753.791 1284.35 756.772 1285.03C759.753 1285.7 762.284 1286.63 764.365 1287.81L759.64 1297.43C755.928 1295.12 751.457 1293.97 746.226 1293.97C743.358 1293.97 741.164 1294.39 739.646 1295.23C738.183 1296.08 737.452 1297.15 737.452 1298.44C737.452 1299.62 738.099 1300.49 739.393 1301.06C740.686 1301.56 742.852 1302.12 745.889 1302.74C749.095 1303.36 751.71 1304.04 753.735 1304.77C755.816 1305.44 757.616 1306.6 759.134 1308.23C760.653 1309.86 761.412 1312.08 761.412 1314.89C761.412 1319.95 759.275 1323.86 755 1326.62C750.782 1329.38 745.298 1330.75 738.549 1330.75ZM784.718 1314.05C784.606 1314.5 784.549 1315.12 784.549 1315.9C784.549 1318.83 786.152 1320.29 789.358 1320.29C791.102 1320.29 792.873 1319.76 794.673 1318.69L796.614 1328.05C793.689 1329.85 789.921 1330.75 785.309 1330.75C781.034 1330.75 777.603 1329.63 775.016 1327.38C772.429 1325.13 771.135 1322.04 771.135 1318.1C771.135 1316.97 771.276 1315.65 771.557 1314.13L775.185 1295.83H768.182L770.207 1285.7H777.21L779.403 1274.65H792.564L790.371 1285.7H801.676L799.651 1295.83H788.346L784.718 1314.05ZM857.186 1284.69L848.159 1330.08H835.673L836.516 1325.61C832.748 1329.04 828.108 1330.75 822.596 1330.75C819.052 1330.75 815.79 1329.94 812.809 1328.31C809.828 1326.68 807.438 1324.34 805.638 1321.3C803.895 1318.21 803.023 1314.58 803.023 1310.42C803.023 1305.42 804.12 1300.92 806.313 1296.92C808.563 1292.87 811.6 1289.72 815.425 1287.47C819.249 1285.17 823.468 1284.01 828.08 1284.01C835.054 1284.01 839.975 1286.29 842.844 1290.85L844.025 1284.69H857.186ZM826.645 1319.87C829.233 1319.87 831.539 1319.25 833.563 1318.01C835.588 1316.72 837.163 1314.95 838.288 1312.7C839.413 1310.45 839.975 1307.86 839.975 1304.94C839.975 1301.84 839.047 1299.4 837.191 1297.6C835.391 1295.8 832.86 1294.9 829.598 1294.9C827.011 1294.9 824.705 1295.54 822.68 1296.84C820.655 1298.08 819.081 1299.82 817.956 1302.07C816.831 1304.32 816.268 1306.91 816.268 1309.83C816.268 1312.92 817.168 1315.37 818.968 1317.17C820.824 1318.97 823.383 1319.87 826.645 1319.87ZM916.194 1284.69L908.685 1322.49C906.998 1331.03 903.736 1337.28 898.899 1341.21C894.118 1345.15 887.706 1347.12 879.663 1347.12C875.276 1347.12 871.227 1346.61 867.515 1345.6C863.859 1344.59 860.709 1343.1 858.066 1341.13L864.309 1331.6C866.109 1333.12 868.415 1334.3 871.227 1335.14C874.095 1336.04 877.104 1336.49 880.254 1336.49C884.697 1336.49 888.072 1335.51 890.378 1333.54C892.684 1331.62 894.259 1328.7 895.102 1324.76L895.44 1322.82C891.784 1326.2 887.172 1327.88 881.604 1327.88C877.835 1327.88 874.433 1327.13 871.396 1325.61C868.358 1324.03 865.94 1321.81 864.14 1318.94C862.397 1316.07 861.525 1312.7 861.525 1308.82C861.525 1304.21 862.621 1300.02 864.815 1296.25C867.009 1292.48 870.018 1289.5 873.842 1287.3C877.723 1285.11 882.054 1284.01 886.835 1284.01C890.378 1284.01 893.471 1284.69 896.115 1286.04C898.814 1287.33 900.839 1289.36 902.189 1292.11L903.623 1284.69H916.194ZM885.147 1317.09C888.972 1317.09 892.121 1315.85 894.596 1313.37C897.071 1310.9 898.308 1307.72 898.308 1303.84C898.308 1301.08 897.408 1298.92 895.609 1297.34C893.809 1295.71 891.306 1294.9 888.1 1294.9C884.219 1294.9 881.013 1296.13 878.482 1298.61C876.008 1301.08 874.77 1304.26 874.77 1308.14C874.77 1310.9 875.698 1313.09 877.554 1314.72C879.41 1316.3 881.941 1317.09 885.147 1317.09ZM939.833 1290.09C941.801 1287.95 944.164 1286.4 946.92 1285.45C949.732 1284.49 953.022 1284.01 956.79 1284.01L954.428 1296.16C952.853 1296.05 951.841 1295.99 951.391 1295.99C947.398 1295.99 944.192 1296.98 941.773 1298.95C939.411 1300.92 937.808 1303.98 936.964 1308.14L932.577 1330.08H919.416L928.443 1284.69H940.93L939.833 1290.09ZM1010.1 1284.69L1001.07 1330.08H988.586L989.429 1325.61C985.661 1329.04 981.021 1330.75 975.509 1330.75C971.966 1330.75 968.704 1329.94 965.723 1328.31C962.742 1326.68 960.351 1324.34 958.551 1321.3C956.808 1318.21 955.936 1314.58 955.936 1310.42C955.936 1305.42 957.033 1300.92 959.226 1296.92C961.476 1292.87 964.513 1289.72 968.338 1287.47C972.163 1285.17 976.381 1284.01 980.993 1284.01C987.967 1284.01 992.888 1286.29 995.757 1290.85L996.938 1284.69H1010.1ZM979.559 1319.87C982.146 1319.87 984.452 1319.25 986.477 1318.01C988.501 1316.72 990.076 1314.95 991.201 1312.7C992.326 1310.45 992.888 1307.86 992.888 1304.94C992.888 1301.84 991.96 1299.4 990.104 1297.6C988.305 1295.8 985.774 1294.9 982.511 1294.9C979.924 1294.9 977.618 1295.54 975.593 1296.84C973.569 1298.08 971.994 1299.82 970.869 1302.07C969.744 1304.32 969.182 1306.91 969.182 1309.83C969.182 1312.92 970.081 1315.37 971.881 1317.17C973.737 1318.97 976.296 1319.87 979.559 1319.87ZM1079.23 1284.01C1084.18 1284.01 1088.12 1285.36 1091.04 1288.06C1093.97 1290.71 1095.43 1294.48 1095.43 1299.37C1095.43 1301.17 1095.23 1303.02 1094.84 1304.94L1089.86 1330.08H1076.7L1081.51 1305.87C1081.73 1304.74 1081.85 1303.59 1081.85 1302.41C1081.85 1300.1 1081.23 1298.36 1079.99 1297.18C1078.81 1295.99 1077.04 1295.4 1074.68 1295.4C1068.32 1295.4 1064.35 1299.2 1062.78 1306.79L1058.14 1330.08H1044.98L1049.79 1305.87C1050.01 1304.74 1050.12 1303.62 1050.12 1302.49C1050.12 1300.18 1049.51 1298.44 1048.27 1297.26C1047.09 1296.02 1045.32 1295.4 1042.95 1295.4C1036.6 1295.4 1032.6 1299.26 1030.97 1306.96L1026.42 1330.08H1013.26L1022.28 1284.69H1034.77L1033.76 1289.41C1037.69 1285.81 1042.45 1284.01 1048.02 1284.01C1051.17 1284.01 1053.95 1284.66 1056.37 1285.95C1058.84 1287.19 1060.7 1289.02 1061.94 1291.44C1064.13 1289.02 1066.69 1287.19 1069.61 1285.95C1072.54 1284.66 1075.74 1284.01 1079.23 1284.01ZM1113.81 1300.47C1111.56 1300.47 1109.7 1299.76 1108.24 1298.36C1106.78 1296.89 1106.04 1295.07 1106.04 1292.87C1106.04 1290.29 1106.89 1288.18 1108.58 1286.55C1110.26 1284.91 1112.34 1284.1 1114.82 1284.1C1117.07 1284.1 1118.9 1284.8 1120.3 1286.21C1121.77 1287.61 1122.5 1289.44 1122.5 1291.69C1122.5 1294.22 1121.62 1296.33 1119.88 1298.02C1118.19 1299.65 1116.17 1300.47 1113.81 1300.47ZM1107.73 1330.75C1105.48 1330.75 1103.63 1330.05 1102.16 1328.64C1100.7 1327.18 1099.97 1325.35 1099.97 1323.16C1099.97 1320.57 1100.81 1318.46 1102.5 1316.83C1104.19 1315.2 1106.27 1314.39 1108.74 1314.39C1110.99 1314.39 1112.82 1315.09 1114.23 1316.5C1115.69 1317.9 1116.42 1319.73 1116.42 1321.98C1116.42 1324.51 1115.55 1326.62 1113.81 1328.31C1112.12 1329.94 1110.09 1330.75 1107.73 1330.75Z" fill="white"/>
<path d="M659.952 1749.29L650.925 1794.68H638.438L639.282 1790.2C635.514 1793.64 630.874 1795.35 625.362 1795.35C621.818 1795.35 618.556 1794.54 615.575 1792.9C612.594 1791.27 610.204 1788.94 608.404 1785.9C606.661 1782.81 605.789 1779.18 605.789 1775.02C605.789 1770.01 606.886 1765.51 609.079 1761.52C611.329 1757.47 614.366 1754.32 618.191 1752.07C622.015 1749.76 626.233 1748.61 630.845 1748.61C637.82 1748.61 642.741 1750.89 645.61 1755.45L646.791 1749.29H659.952ZM629.411 1784.47C631.998 1784.47 634.304 1783.85 636.329 1782.61C638.354 1781.32 639.929 1779.55 641.054 1777.3C642.179 1775.05 642.741 1772.46 642.741 1769.53C642.741 1766.44 641.813 1763.99 639.957 1762.19C638.157 1760.4 635.626 1759.5 632.364 1759.5C629.777 1759.5 627.471 1760.14 625.446 1761.44C623.421 1762.67 621.846 1764.42 620.722 1766.67C619.597 1768.92 619.034 1771.5 619.034 1774.43C619.034 1777.52 619.934 1779.97 621.734 1781.77C623.59 1783.57 626.149 1784.47 629.411 1784.47ZM683.526 1754.69C685.495 1752.55 687.857 1751 690.613 1750.05C693.425 1749.09 696.715 1748.61 700.484 1748.61L698.121 1760.76C696.547 1760.65 695.534 1760.59 695.084 1760.59C691.091 1760.59 687.885 1761.58 685.466 1763.54C683.104 1765.51 681.501 1768.58 680.658 1772.74L676.271 1794.68H663.11L672.137 1749.29H684.623L683.526 1754.69ZM715.814 1795.35C711.877 1795.35 708.137 1794.93 704.593 1794.09C701.106 1793.19 698.378 1792.03 696.41 1790.63L701.472 1781.09C703.44 1782.39 705.831 1783.43 708.643 1784.21C711.511 1785 714.38 1785.4 717.248 1785.4C720.229 1785.4 722.451 1785.03 723.913 1784.3C725.375 1783.51 726.106 1782.41 726.106 1781.01C726.106 1779.88 725.46 1779.07 724.166 1778.56C722.872 1778.06 720.791 1777.52 717.923 1776.96C714.661 1776.34 711.961 1775.67 709.824 1774.93C707.743 1774.2 705.915 1773.02 704.34 1771.39C702.821 1769.7 702.062 1767.43 702.062 1764.56C702.062 1759.55 704.143 1755.64 708.305 1752.83C712.524 1750.02 718.035 1748.61 724.841 1748.61C727.991 1748.61 731.056 1748.95 734.037 1749.62C737.018 1750.3 739.549 1751.23 741.63 1752.41L736.905 1762.03C733.193 1759.72 728.722 1758.57 723.491 1758.57C720.623 1758.57 718.429 1758.99 716.911 1759.83C715.448 1760.68 714.717 1761.74 714.717 1763.04C714.717 1764.22 715.364 1765.09 716.657 1765.65C717.951 1766.16 720.116 1766.72 723.154 1767.34C726.36 1767.96 728.975 1768.63 731 1769.37C733.081 1770.04 734.881 1771.19 736.399 1772.83C737.918 1774.46 738.677 1776.68 738.677 1779.49C738.677 1784.55 736.54 1788.46 732.265 1791.22C728.047 1793.97 722.563 1795.35 715.814 1795.35ZM779.531 1748.61C784.593 1748.61 788.615 1749.96 791.596 1752.66C794.576 1755.36 796.067 1759.19 796.067 1764.14C796.067 1765.94 795.87 1767.73 795.476 1769.53L790.414 1794.68H777.253L782.147 1770.38C782.372 1769.42 782.484 1768.38 782.484 1767.26C782.484 1764.89 781.837 1763.09 780.544 1761.86C779.25 1760.62 777.31 1760 774.722 1760C771.348 1760 768.536 1760.99 766.286 1762.95C764.092 1764.87 762.602 1767.76 761.814 1771.64L757.259 1794.68H744.098L756.584 1732.08H769.745L765.526 1753.42C769.407 1750.21 774.076 1748.61 779.531 1748.61ZM858.014 1749.29L848.987 1794.68H836.501L837.344 1790.2C833.576 1793.64 828.936 1795.35 823.424 1795.35C819.881 1795.35 816.618 1794.54 813.637 1792.9C810.657 1791.27 808.266 1788.94 806.466 1785.9C804.723 1782.81 803.851 1779.18 803.851 1775.02C803.851 1770.01 804.948 1765.51 807.141 1761.52C809.391 1757.47 812.428 1754.32 816.253 1752.07C820.077 1749.76 824.296 1748.61 828.908 1748.61C835.882 1748.61 840.803 1750.89 843.672 1755.45L844.853 1749.29H858.014ZM827.473 1784.47C830.061 1784.47 832.367 1783.85 834.391 1782.61C836.416 1781.32 837.991 1779.55 839.116 1777.3C840.241 1775.05 840.803 1772.46 840.803 1769.53C840.803 1766.44 839.875 1763.99 838.019 1762.19C836.219 1760.4 833.688 1759.5 830.426 1759.5C827.839 1759.5 825.533 1760.14 823.508 1761.44C821.483 1762.67 819.909 1764.42 818.784 1766.67C817.659 1768.92 817.096 1771.5 817.096 1774.43C817.096 1777.52 817.996 1779.97 819.796 1781.77C821.652 1783.57 824.211 1784.47 827.473 1784.47ZM927.146 1748.61C932.095 1748.61 936.032 1749.96 938.957 1752.66C941.882 1755.31 943.344 1759.07 943.344 1763.97C943.344 1765.77 943.147 1767.62 942.754 1769.53L937.776 1794.68H924.615L929.424 1770.46C929.649 1769.34 929.761 1768.18 929.761 1767C929.761 1764.7 929.143 1762.95 927.905 1761.77C926.724 1760.59 924.952 1760 922.59 1760C916.235 1760 912.269 1763.8 910.695 1771.39L906.054 1794.68H892.893L897.702 1770.46C897.927 1769.34 898.04 1768.21 898.04 1767.09C898.04 1764.78 897.421 1763.04 896.184 1761.86C895.002 1760.62 893.231 1760 890.869 1760C884.513 1760 880.52 1763.85 878.889 1771.56L874.333 1794.68H861.172L870.199 1749.29H882.685L881.673 1754.01C885.61 1750.41 890.362 1748.61 895.93 1748.61C899.08 1748.61 901.864 1749.26 904.283 1750.55C906.757 1751.79 908.613 1753.62 909.851 1756.04C912.044 1753.62 914.603 1751.79 917.528 1750.55C920.453 1749.26 923.659 1748.61 927.146 1748.61ZM979.813 1735.62L968.002 1794.68H954.335L963.952 1746.59H952.141L954.335 1735.62H979.813ZM1004.75 1795.69C998.171 1795.69 992.969 1793.72 989.144 1789.78C985.32 1785.79 983.407 1780.31 983.407 1773.33C983.407 1766.24 984.701 1759.75 987.288 1753.84C989.932 1747.94 993.588 1743.27 998.256 1739.84C1002.92 1736.35 1008.24 1734.61 1014.2 1734.61C1020.78 1734.61 1025.98 1736.6 1029.81 1740.6C1033.63 1744.53 1035.55 1749.99 1035.55 1756.96C1035.55 1764.05 1034.22 1770.55 1031.58 1776.45C1028.99 1782.36 1025.37 1787.05 1020.7 1790.54C1016.03 1793.97 1010.71 1795.69 1004.75 1795.69ZM1006.02 1784.13C1009.28 1784.13 1012.09 1782.72 1014.45 1779.91C1016.87 1777.1 1018.7 1773.61 1019.94 1769.45C1021.18 1765.23 1021.79 1761.18 1021.79 1757.3C1021.79 1753.53 1021.01 1750.75 1019.43 1748.95C1017.91 1747.09 1015.75 1746.17 1012.94 1746.17C1009.67 1746.17 1006.83 1747.57 1004.41 1750.38C1002.05 1753.2 1000.25 1756.71 999.015 1760.93C997.778 1765.09 997.159 1769.11 997.159 1772.99C997.159 1776.76 997.918 1779.57 999.437 1781.43C1001.01 1783.23 1003.21 1784.13 1006.02 1784.13Z" fill="white"/>
<path d="M655.454 1658.63H667.94L663.047 1682.93C660.066 1685.23 656.607 1687 652.67 1688.24C648.733 1689.48 644.655 1690.1 640.437 1690.1C634.531 1690.1 629.385 1689.03 624.998 1686.89C620.611 1684.75 617.208 1681.75 614.789 1677.86C612.427 1673.98 611.246 1669.51 611.246 1664.45C611.246 1657.76 612.793 1651.71 615.886 1646.31C618.98 1640.91 623.338 1636.69 628.963 1633.66C634.587 1630.56 641.055 1629.02 648.367 1629.02C653.991 1629.02 658.857 1629.89 662.962 1631.63C667.124 1633.38 670.471 1635.93 673.002 1639.31L663.215 1647.24C661.247 1644.93 659.025 1643.27 656.551 1642.26C654.076 1641.19 651.151 1640.66 647.776 1640.66C643.277 1640.66 639.312 1641.67 635.881 1643.7C632.45 1645.67 629.778 1648.39 627.866 1651.88C626.01 1655.37 625.082 1659.28 625.082 1663.61C625.082 1668.16 626.544 1671.79 629.469 1674.49C632.45 1677.13 636.696 1678.46 642.208 1678.46C645.695 1678.46 648.958 1677.75 651.995 1676.35L655.454 1658.63ZM682.66 1643.7H695.737L686.71 1689.09H673.633L682.66 1643.7ZM691.435 1637.37C689.185 1637.37 687.329 1636.72 685.866 1635.43C684.46 1634.08 683.757 1632.45 683.757 1630.54C683.757 1628.29 684.545 1626.43 686.119 1624.97C687.751 1623.45 689.86 1622.69 692.447 1622.69C694.753 1622.69 696.609 1623.34 698.015 1624.63C699.477 1625.87 700.209 1627.41 700.209 1629.27C700.209 1631.69 699.393 1633.66 697.762 1635.18C696.131 1636.64 694.022 1637.37 691.435 1637.37ZM716.812 1673.06C716.7 1673.51 716.643 1674.12 716.643 1674.91C716.643 1677.84 718.246 1679.3 721.452 1679.3C723.196 1679.3 724.968 1678.76 726.767 1677.7L728.708 1687.06C725.783 1688.86 722.015 1689.76 717.403 1689.76C713.128 1689.76 709.697 1688.64 707.11 1686.39C704.523 1684.14 703.229 1681.04 703.229 1677.11C703.229 1675.98 703.37 1674.66 703.651 1673.14L707.279 1654.83H700.276L702.301 1644.71H709.304L711.497 1633.66H724.658L722.465 1644.71H733.77L731.745 1654.83H720.44L716.812 1673.06ZM771.023 1643.02C776.085 1643.02 780.107 1644.37 783.088 1647.07C786.068 1649.77 787.559 1653.6 787.559 1658.54C787.559 1660.34 787.362 1662.14 786.968 1663.94L781.906 1689.09H768.745L773.639 1664.79C773.864 1663.83 773.976 1662.79 773.976 1661.67C773.976 1659.3 773.329 1657.5 772.036 1656.27C770.742 1655.03 768.802 1654.41 766.214 1654.41C762.84 1654.41 760.028 1655.4 757.778 1657.36C755.584 1659.28 754.094 1662.17 753.306 1666.05L748.751 1689.09H735.59L748.076 1626.49H761.237L757.018 1647.83C760.899 1644.62 765.568 1643.02 771.023 1643.02ZM848.674 1643.7L839.647 1689.09H827.161L828.089 1684.19C826.12 1686.05 823.871 1687.45 821.34 1688.41C818.809 1689.31 816.137 1689.76 813.325 1689.76C808.375 1689.76 804.41 1688.41 801.429 1685.71C798.505 1683.01 797.042 1679.21 797.042 1674.32C797.042 1672.47 797.239 1670.64 797.633 1668.84L802.61 1643.7H815.771L810.963 1667.99C810.738 1669.06 810.625 1670.16 810.625 1671.28C810.625 1676.01 813.156 1678.37 818.218 1678.37C821.536 1678.37 824.264 1677.41 826.402 1675.5C828.595 1673.53 830.086 1670.61 830.873 1666.73L835.513 1643.7H848.674ZM886.346 1643.02C889.889 1643.02 893.151 1643.84 896.132 1645.47C899.169 1647.1 901.56 1649.46 903.303 1652.55C905.103 1655.59 906.003 1659.19 906.003 1663.35C906.003 1668.36 904.878 1672.89 902.628 1676.94C900.435 1680.93 897.426 1684.08 893.601 1686.39C889.776 1688.64 885.53 1689.76 880.862 1689.76C877.318 1689.76 874.253 1689.14 871.666 1687.9C869.079 1686.67 867.082 1684.81 865.676 1682.34L864.326 1689.09H851.84L864.326 1626.49H877.487L873.269 1647.58C876.925 1644.54 881.284 1643.02 886.346 1643.02ZM879.343 1678.88C881.93 1678.88 884.236 1678.26 886.261 1677.02C888.286 1675.73 889.861 1673.96 890.986 1671.71C892.111 1669.46 892.673 1666.87 892.673 1663.94C892.673 1660.85 891.745 1658.4 889.889 1656.6C888.089 1654.8 885.558 1653.9 882.296 1653.9C879.765 1653.9 877.487 1654.55 875.462 1655.85C873.438 1657.08 871.863 1658.83 870.738 1661.08C869.613 1663.33 869.051 1665.91 869.051 1668.84C869.051 1671.93 869.95 1674.38 871.75 1676.18C873.55 1677.98 876.081 1678.88 879.343 1678.88ZM922.153 1659.47C919.903 1659.47 918.047 1658.77 916.585 1657.36C915.122 1655.9 914.391 1654.07 914.391 1651.88C914.391 1649.29 915.235 1647.18 916.922 1645.55C918.61 1643.92 920.691 1643.11 923.165 1643.11C925.415 1643.11 927.243 1643.81 928.649 1645.22C930.111 1646.62 930.843 1648.45 930.843 1650.7C930.843 1653.23 929.971 1655.34 928.227 1657.03C926.54 1658.66 924.515 1659.47 922.153 1659.47ZM916.079 1689.76C913.829 1689.76 911.973 1689.06 910.51 1687.65C909.048 1686.19 908.317 1684.36 908.317 1682.17C908.317 1679.58 909.161 1677.47 910.848 1675.84C912.535 1674.21 914.616 1673.39 917.091 1673.39C919.341 1673.39 921.169 1674.1 922.575 1675.5C924.037 1676.91 924.768 1678.74 924.768 1680.99C924.768 1683.52 923.896 1685.63 922.153 1687.31C920.466 1688.94 918.441 1689.76 916.079 1689.76Z" fill="white"/>
<path d="M434.044 171.382L436.037 166.632L438.029 161.883L513.003 193.337L587.977 224.792L585.984 229.541L583.991 234.291L578.041 231.795C572.97 229.667 571.95 229.634 571.136 231.575C570.611 232.826 569.398 233.841 568.441 233.829C567.106 233.812 566.978 234.243 567.89 235.681C569.7 238.535 564.63 240.133 559.969 238.177C554.781 236.001 551.817 237.593 549.127 244.003L546.85 249.43L540.9 246.934L534.95 244.437L532.459 250.375L529.968 256.312L524.018 253.815L518.067 251.319L515.577 257.256L513.086 263.193L507.135 260.697L501.185 258.2L498.196 265.325L495.207 272.449L502.347 275.445L509.488 278.441L511.979 272.504L514.469 266.566L520.42 269.063L526.37 271.559L528.861 265.622L531.352 259.685L537.302 262.181L543.252 264.678L546.241 257.553L549.23 250.429L554.67 252.711C558.165 254.177 561.119 254.583 562.93 253.845C564.98 253.009 565.402 252.393 564.477 251.585C563.778 250.973 563.86 248.916 564.66 247.011C566.071 243.646 566.283 243.619 572.063 246.044L578.013 248.54L562.57 285.35L547.127 322.16L473.854 291.419C411.936 265.442 400.426 260.305 399.592 258.268C398.781 256.294 401.136 249.82 412.623 222.441C428.169 185.385 428.015 185.61 435.717 188.841L439.966 190.624L437.476 196.561L434.985 202.498L439.235 204.281C444.476 206.48 445.944 209.735 443.896 214.615C441.849 219.496 443.317 222.751 448.558 224.95C452.638 226.661 452.737 226.903 451.029 230.973C448.835 236.202 450.075 239.551 454.967 241.603C459.858 243.655 461.098 247.003 458.904 252.232L457.125 256.472L463.076 258.969L469.026 261.465L466.535 267.402L464.044 273.339L477.135 278.832L490.225 284.324L492.503 278.896C495.79 271.059 494.686 269.438 482.602 264.368L472.402 260.089L474.181 255.849C476.565 250.166 475.125 247.267 468.543 244.506L463.103 242.223L465.594 236.286L468.085 230.349L462.135 227.853L456.184 225.356L458.675 219.419L461.166 213.482L455.216 210.986L449.265 208.49L451.543 203.062C454.298 196.494 453.288 193.42 447.593 191.031L443.343 189.248L445.834 183.311L448.325 177.374L441.184 174.378L434.044 171.382Z" fill="#F8CC14"/>
<path fill-rule="evenodd" clip-rule="evenodd" d="M398.608 586.787L399.251 589.187L396.851 589.831L394.45 590.474L415.033 667.288L435.615 744.103L438.016 743.46L440.416 742.817L441.059 745.217L441.703 747.618L518.517 727.035L595.332 706.453L594.689 704.052L594.046 701.652L596.446 701.009L598.847 700.366L578.264 623.551L557.682 546.736L555.281 547.379L552.881 548.022L552.238 545.622L551.594 543.222L474.78 563.804L397.965 584.386L398.608 586.787ZM448.892 601.614L450.178 606.415L452.579 605.772L454.979 605.129L455.622 607.529L456.265 609.93L453.865 610.573L451.464 611.216L452.751 616.017L454.037 620.818L449.236 622.104L444.435 623.391L445.079 625.791L445.722 628.192L443.321 628.835L440.921 629.478L440.278 627.078L439.635 624.677L434.834 625.964L430.033 627.25L427.46 617.648L424.887 608.046L427.288 607.403L429.688 606.76L429.045 604.359L428.402 601.959L438.003 599.386L447.605 596.813L448.892 601.614ZM524.466 614.811L525.109 617.211L532.311 615.282L539.512 613.352L540.155 615.752L540.799 618.153L543.199 617.51L545.599 616.866L546.886 621.667L548.172 626.468L550.573 625.825L552.973 625.182L561.335 656.388L569.696 687.594L557.694 690.81L545.692 694.026L538.617 667.621L531.541 641.216L529.141 641.859L526.74 642.502L526.097 640.102L525.454 637.701L515.852 640.274L506.25 642.847L507.537 647.648L508.823 652.449L506.423 653.092L504.022 653.735L510.454 677.74L516.886 701.744L504.884 704.96L492.882 708.176L482.59 669.769L472.299 631.362L484.302 628.146L496.304 624.93L497.59 629.73L498.877 634.531L501.277 633.888L503.678 633.245L503.034 630.845L502.391 628.444L504.792 627.801L507.192 627.158L506.549 624.757L505.906 622.357L510.707 621.07L515.508 619.784L514.864 617.383L514.221 614.983L519.022 613.697L523.823 612.41L524.466 614.811ZM468.188 673.628L478.479 712.035L466.477 715.251L454.474 718.468L444.183 680.06L433.892 641.653L445.894 638.437L457.896 635.221L468.188 673.628Z" fill="#F8CC14"/>
</svg>
