<svg width="516" height="707" viewBox="0 0 516 707" fill="none" xmlns="http://www.w3.org/2000/svg">
<path d="M0.527344 706.214H515.116V0.972168L0.527344 1.22789V706.214Z" fill="#007AE0"/>
<path d="M78.3204 440.4H84.5144L79.1944 467H73.0004L78.3204 440.4ZM106.643 467.304C104.54 467.304 102.704 466.924 101.133 466.164C99.5622 465.404 98.3462 464.34 97.4849 462.972C96.6489 461.579 96.2309 459.97 96.2309 458.146C96.2309 455.891 96.7629 453.865 97.8269 452.066C98.8909 450.267 100.373 448.849 102.273 447.81C104.173 446.771 106.314 446.252 108.695 446.252C110.874 446.252 112.748 446.708 114.319 447.62C115.915 448.507 117.106 449.773 117.891 451.42L112.875 453.928C111.988 452.079 110.468 451.154 108.315 451.154C107.15 451.154 106.098 451.445 105.161 452.028C104.249 452.585 103.527 453.371 102.995 454.384C102.488 455.397 102.235 456.55 102.235 457.842C102.235 459.235 102.653 460.35 103.489 461.186C104.325 461.997 105.49 462.402 106.985 462.402C109.164 462.402 110.836 461.49 112.001 459.666L116.371 462.402C115.383 463.947 114.028 465.151 112.305 466.012C110.608 466.873 108.72 467.304 106.643 467.304ZM142.856 446.556L138.79 467H133.166L133.546 464.986C131.849 466.531 129.759 467.304 127.276 467.304C125.68 467.304 124.211 466.937 122.868 466.202C121.526 465.467 120.449 464.416 119.638 463.048C118.853 461.655 118.46 460.021 118.46 458.146C118.46 455.891 118.954 453.865 119.942 452.066C120.956 450.242 122.324 448.823 124.046 447.81C125.769 446.771 127.669 446.252 129.746 446.252C132.888 446.252 135.104 447.278 136.396 449.33L136.928 446.556H142.856ZM129.1 462.402C130.266 462.402 131.304 462.123 132.216 461.566C133.128 460.983 133.838 460.185 134.344 459.172C134.851 458.159 135.104 456.993 135.104 455.676C135.104 454.283 134.686 453.181 133.85 452.37C133.04 451.559 131.9 451.154 130.43 451.154C129.265 451.154 128.226 451.445 127.314 452.028C126.402 452.585 125.693 453.371 125.186 454.384C124.68 455.397 124.426 456.563 124.426 457.88C124.426 459.273 124.832 460.375 125.642 461.186C126.478 461.997 127.631 462.402 129.1 462.402ZM160.239 446.252C162.519 446.252 164.33 446.86 165.673 448.076C167.015 449.267 167.687 450.977 167.687 453.206C167.687 454.042 167.598 454.865 167.421 455.676L165.141 467H159.213L161.417 456.056C161.518 455.625 161.569 455.157 161.569 454.65C161.569 453.586 161.277 452.775 160.695 452.218C160.112 451.661 159.238 451.382 158.073 451.382C156.553 451.382 155.286 451.825 154.273 452.712C153.285 453.573 152.613 454.878 152.259 456.626L150.207 467H144.279L148.345 446.556H153.969L153.513 448.76C155.337 447.088 157.579 446.252 160.239 446.252ZM211.03 446.252C213.259 446.252 215.032 446.86 216.35 448.076C217.667 449.267 218.326 450.964 218.326 453.168C218.326 453.979 218.237 454.815 218.06 455.676L215.818 467H209.89L212.056 456.094C212.157 455.587 212.208 455.068 212.208 454.536C212.208 453.497 211.929 452.712 211.372 452.18C210.84 451.648 210.042 451.382 208.978 451.382C206.115 451.382 204.329 453.092 203.62 456.512L201.53 467H195.602L197.768 456.094C197.869 455.587 197.92 455.081 197.92 454.574C197.92 453.535 197.641 452.75 197.084 452.218C196.552 451.661 195.754 451.382 194.69 451.382C191.827 451.382 190.028 453.117 189.294 456.588L187.242 467H181.314L185.38 446.556H191.004L190.548 448.684C192.321 447.063 194.462 446.252 196.97 446.252C198.388 446.252 199.642 446.543 200.732 447.126C201.846 447.683 202.682 448.507 203.24 449.596C204.228 448.507 205.38 447.683 206.698 447.126C208.015 446.543 209.459 446.252 211.03 446.252ZM246.206 446.556L242.14 467H236.516L236.896 464.986C235.199 466.531 233.109 467.304 230.626 467.304C229.03 467.304 227.561 466.937 226.218 466.202C224.875 465.467 223.799 464.416 222.988 463.048C222.203 461.655 221.81 460.021 221.81 458.146C221.81 455.891 222.304 453.865 223.292 452.066C224.305 450.242 225.673 448.823 227.396 447.81C229.119 446.771 231.019 446.252 233.096 446.252C236.237 446.252 238.454 447.278 239.746 449.33L240.278 446.556H246.206ZM232.45 462.402C233.615 462.402 234.654 462.123 235.566 461.566C236.478 460.983 237.187 460.185 237.694 459.172C238.201 458.159 238.454 456.993 238.454 455.676C238.454 454.283 238.036 453.181 237.2 452.37C236.389 451.559 235.249 451.154 233.78 451.154C232.615 451.154 231.576 451.445 230.664 452.028C229.752 452.585 229.043 453.371 228.536 454.384C228.029 455.397 227.776 456.563 227.776 457.88C227.776 459.273 228.181 460.375 228.992 461.186C229.828 461.997 230.981 462.402 232.45 462.402ZM262.866 455.448L269.896 467H263.018L258.154 459.058L254.544 462.06L253.556 467H247.628L253.252 438.804H259.18L256.026 454.574L265.83 446.556H273.544L262.866 455.448ZM293.422 455.258C293.422 456.195 293.308 457.234 293.08 458.374H277.424C277.626 461.161 279.387 462.554 282.706 462.554C283.744 462.554 284.732 462.389 285.67 462.06C286.632 461.731 287.468 461.262 288.178 460.654L290.648 464.568C289.508 465.48 288.203 466.164 286.734 466.62C285.264 467.076 283.719 467.304 282.098 467.304C279.995 467.304 278.146 466.937 276.55 466.202C274.979 465.442 273.763 464.365 272.902 462.972C272.066 461.579 271.648 459.97 271.648 458.146C271.648 455.891 272.154 453.865 273.168 452.066C274.206 450.242 275.638 448.823 277.462 447.81C279.286 446.771 281.363 446.252 283.694 446.252C285.67 446.252 287.38 446.619 288.824 447.354C290.293 448.089 291.42 449.14 292.206 450.508C293.016 451.876 293.422 453.459 293.422 455.258ZM283.428 450.698C282.034 450.698 280.856 451.078 279.894 451.838C278.931 452.573 278.247 453.599 277.842 454.916H287.988C287.988 453.599 287.57 452.573 286.734 451.838C285.923 451.078 284.821 450.698 283.428 450.698ZM331.009 446.556L327.627 463.58C326.867 467.431 325.398 470.243 323.219 472.016C321.066 473.789 318.178 474.676 314.555 474.676C312.579 474.676 310.755 474.448 309.083 473.992C307.436 473.536 306.018 472.865 304.827 471.978L307.639 467.684C308.45 468.368 309.488 468.9 310.755 469.28C312.047 469.685 313.402 469.888 314.821 469.888C316.822 469.888 318.342 469.445 319.381 468.558C320.42 467.697 321.129 466.379 321.509 464.606L321.661 463.732C320.014 465.252 317.937 466.012 315.429 466.012C313.732 466.012 312.199 465.67 310.831 464.986C309.463 464.277 308.374 463.276 307.563 461.984C306.778 460.692 306.385 459.172 306.385 457.424C306.385 455.347 306.879 453.459 307.867 451.762C308.855 450.065 310.21 448.722 311.933 447.734C313.681 446.746 315.632 446.252 317.785 446.252C319.381 446.252 320.774 446.556 321.965 447.164C323.181 447.747 324.093 448.659 324.701 449.9L325.347 446.556H331.009ZM317.025 461.148C318.748 461.148 320.166 460.591 321.281 459.476C322.396 458.361 322.953 456.93 322.953 455.182C322.953 453.941 322.548 452.965 321.737 452.256C320.926 451.521 319.799 451.154 318.355 451.154C316.607 451.154 315.163 451.711 314.023 452.826C312.908 453.941 312.351 455.372 312.351 457.12C312.351 458.361 312.769 459.349 313.605 460.084C314.441 460.793 315.581 461.148 317.025 461.148ZM357.274 446.556L353.208 467H347.584L347.964 464.986C346.267 466.531 344.177 467.304 341.694 467.304C340.098 467.304 338.629 466.937 337.286 466.202C335.944 465.467 334.867 464.416 334.056 463.048C333.271 461.655 332.878 460.021 332.878 458.146C332.878 455.891 333.372 453.865 334.36 452.066C335.374 450.242 336.742 448.823 338.464 447.81C340.187 446.771 342.087 446.252 344.164 446.252C347.306 446.252 349.522 447.278 350.814 449.33L351.346 446.556H357.274ZM343.518 462.402C344.684 462.402 345.722 462.123 346.634 461.566C347.546 460.983 348.256 460.185 348.762 459.172C349.269 458.159 349.522 456.993 349.522 455.676C349.522 454.283 349.104 453.181 348.268 452.37C347.458 451.559 346.318 451.154 344.848 451.154C343.683 451.154 342.644 451.445 341.732 452.028C340.82 452.585 340.111 453.371 339.604 454.384C339.098 455.397 338.844 456.563 338.844 457.88C338.844 459.273 339.25 460.375 340.06 461.186C340.896 461.997 342.049 462.402 343.518 462.402ZM388.413 446.252C390.642 446.252 392.415 446.86 393.733 448.076C395.05 449.267 395.709 450.964 395.709 453.168C395.709 453.979 395.62 454.815 395.443 455.676L393.201 467H387.273L389.439 456.094C389.54 455.587 389.591 455.068 389.591 454.536C389.591 453.497 389.312 452.712 388.755 452.18C388.223 451.648 387.425 451.382 386.361 451.382C383.498 451.382 381.712 453.092 381.003 456.512L378.913 467H372.985L375.151 456.094C375.252 455.587 375.303 455.081 375.303 454.574C375.303 453.535 375.024 452.75 374.467 452.218C373.935 451.661 373.137 451.382 372.073 451.382C369.21 451.382 367.411 453.117 366.677 456.588L364.625 467H358.697L362.763 446.556H368.387L367.931 448.684C369.704 447.063 371.845 446.252 374.353 446.252C375.771 446.252 377.025 446.543 378.115 447.126C379.229 447.683 380.065 448.507 380.623 449.596C381.611 448.507 382.763 447.683 384.081 447.126C385.398 446.543 386.842 446.252 388.413 446.252ZM420.967 455.258C420.967 456.195 420.853 457.234 420.625 458.374H404.969C405.171 461.161 406.932 462.554 410.251 462.554C411.289 462.554 412.277 462.389 413.215 462.06C414.177 461.731 415.013 461.262 415.723 460.654L418.193 464.568C417.053 465.48 415.748 466.164 414.279 466.62C412.809 467.076 411.264 467.304 409.643 467.304C407.54 467.304 405.691 466.937 404.095 466.202C402.524 465.442 401.308 464.365 400.447 462.972C399.611 461.579 399.193 459.97 399.193 458.146C399.193 455.891 399.699 453.865 400.713 452.066C401.751 450.242 403.183 448.823 405.007 447.81C406.831 446.771 408.908 446.252 411.239 446.252C413.215 446.252 414.925 446.619 416.369 447.354C417.838 448.089 418.965 449.14 419.751 450.508C420.561 451.876 420.967 453.459 420.967 455.258ZM410.973 450.698C409.579 450.698 408.401 451.078 407.439 451.838C406.476 452.573 405.792 453.599 405.387 454.916H415.533C415.533 453.599 415.115 452.573 414.279 451.838C413.468 451.078 412.366 450.698 410.973 450.698ZM430.084 467.304C428.311 467.304 426.626 467.114 425.03 466.734C423.459 466.329 422.231 465.809 421.344 465.176L423.624 460.882C424.511 461.465 425.587 461.933 426.854 462.288C428.146 462.643 429.438 462.82 430.73 462.82C432.073 462.82 433.073 462.655 433.732 462.326C434.391 461.971 434.72 461.477 434.72 460.844C434.72 460.337 434.429 459.97 433.846 459.742C433.263 459.514 432.326 459.273 431.034 459.02C429.565 458.741 428.349 458.437 427.386 458.108C426.449 457.779 425.625 457.247 424.916 456.512C424.232 455.752 423.89 454.726 423.89 453.434C423.89 451.179 424.827 449.419 426.702 448.152C428.602 446.885 431.085 446.252 434.15 446.252C435.569 446.252 436.949 446.404 438.292 446.708C439.635 447.012 440.775 447.43 441.712 447.962L439.584 452.294C437.912 451.255 435.898 450.736 433.542 450.736C432.25 450.736 431.262 450.926 430.578 451.306C429.919 451.686 429.59 452.167 429.59 452.75C429.59 453.282 429.881 453.675 430.464 453.928C431.047 454.156 432.022 454.409 433.39 454.688C434.834 454.967 436.012 455.271 436.924 455.6C437.861 455.904 438.672 456.423 439.356 457.158C440.04 457.893 440.382 458.893 440.382 460.16C440.382 462.44 439.419 464.201 437.494 465.442C435.594 466.683 433.124 467.304 430.084 467.304ZM78.6126 492.556L67.3266 513H61.4746L59.1186 500.27L52.0886 513H46.3126L42.7026 492.556H48.0986L50.3406 506.312L58.0166 492.556H63.1086L65.4266 506.312L73.0266 492.556H78.6126ZM81.288 492.556H87.178L83.112 513H77.222L81.288 492.556ZM85.24 489.706C84.2267 489.706 83.3907 489.415 82.732 488.832C82.0987 488.224 81.782 487.489 81.782 486.628C81.782 485.615 82.1367 484.779 82.846 484.12C83.5807 483.436 84.5307 483.094 85.696 483.094C86.7347 483.094 87.5707 483.385 88.204 483.968C88.8627 484.525 89.192 485.222 89.192 486.058C89.192 487.147 88.8247 488.034 88.09 488.718C87.3553 489.377 86.4053 489.706 85.24 489.706ZM96.6706 505.78C96.6199 505.983 96.5946 506.261 96.5946 506.616C96.5946 507.933 97.3166 508.592 98.7606 508.592C99.5459 508.592 100.344 508.351 101.155 507.87L102.029 512.088C100.711 512.899 99.0139 513.304 96.9366 513.304C95.0112 513.304 93.4659 512.797 92.3006 511.784C91.1352 510.771 90.5526 509.377 90.5526 507.604C90.5526 507.097 90.6159 506.502 90.7426 505.818L92.3766 497.572H89.2226L90.1346 493.012H93.2886L94.2766 488.034H100.205L99.2166 493.012H104.309L103.397 497.572H98.3046L96.6706 505.78ZM121.088 492.252C123.368 492.252 125.18 492.86 126.522 494.076C127.865 495.292 128.536 497.015 128.536 499.244C128.536 500.055 128.448 500.865 128.27 501.676L125.99 513H120.062L122.266 502.056C122.368 501.625 122.418 501.157 122.418 500.65C122.418 499.586 122.127 498.775 121.544 498.218C120.962 497.661 120.088 497.382 118.922 497.382C117.402 497.382 116.136 497.825 115.122 498.712C114.134 499.573 113.463 500.878 113.108 502.626L111.056 513H105.128L110.752 484.804H116.68L114.78 494.418C116.528 492.974 118.631 492.252 121.088 492.252ZM157.705 492.252C159.301 492.252 160.771 492.619 162.113 493.354C163.481 494.089 164.558 495.153 165.343 496.546C166.154 497.914 166.559 499.535 166.559 501.41C166.559 503.665 166.053 505.704 165.039 507.528C164.051 509.327 162.696 510.745 160.973 511.784C159.251 512.797 157.338 513.304 155.235 513.304C152.119 513.304 149.915 512.291 148.623 510.264L146.609 520.372H140.681L146.229 492.556H151.853L151.435 494.57C153.133 493.025 155.223 492.252 157.705 492.252ZM154.551 508.402C155.717 508.402 156.755 508.123 157.667 507.566C158.579 506.983 159.289 506.185 159.795 505.172C160.302 504.159 160.555 502.993 160.555 501.676C160.555 500.283 160.137 499.181 159.301 498.37C158.491 497.559 157.351 497.154 155.881 497.154C154.741 497.154 153.715 497.445 152.803 498.028C151.891 498.585 151.182 499.371 150.675 500.384C150.169 501.397 149.915 502.563 149.915 503.88C149.915 505.273 150.321 506.375 151.131 507.186C151.942 507.997 153.082 508.402 154.551 508.402ZM184.36 492.252C186.64 492.252 188.451 492.86 189.794 494.076C191.136 495.292 191.808 497.015 191.808 499.244C191.808 500.055 191.719 500.865 191.542 501.676L189.262 513H183.334L185.538 502.056C185.639 501.625 185.69 501.157 185.69 500.65C185.69 499.586 185.398 498.775 184.816 498.218C184.233 497.661 183.359 497.382 182.194 497.382C180.674 497.382 179.407 497.825 178.394 498.712C177.406 499.573 176.734 500.878 176.38 502.626L174.328 513H168.4L174.024 484.804H179.952L178.052 494.418C179.8 492.974 181.902 492.252 184.36 492.252ZM219.71 492.556L215.644 513H210.02L210.4 510.986C208.702 512.531 206.612 513.304 204.13 513.304C202.534 513.304 201.064 512.937 199.722 512.202C198.379 511.467 197.302 510.416 196.492 509.048C195.706 507.655 195.314 506.021 195.314 504.146C195.314 501.891 195.808 499.865 196.796 498.066C197.809 496.242 199.177 494.823 200.9 493.81C202.622 492.771 204.522 492.252 206.6 492.252C209.741 492.252 211.958 493.278 213.25 495.33L213.782 492.556H219.71ZM205.954 508.402C207.119 508.402 208.158 508.123 209.07 507.566C209.982 506.983 210.691 506.185 211.198 505.172C211.704 504.159 211.958 502.993 211.958 501.676C211.958 500.283 211.54 499.181 210.704 498.37C209.893 497.559 208.753 497.154 207.284 497.154C206.118 497.154 205.08 497.445 204.168 498.028C203.256 498.585 202.546 499.371 202.04 500.384C201.533 501.397 201.28 502.563 201.28 503.88C201.28 505.273 201.685 506.375 202.496 507.186C203.332 507.997 204.484 508.402 205.954 508.402ZM228.58 513.304C226.807 513.304 225.122 513.114 223.526 512.734C221.955 512.329 220.727 511.809 219.84 511.176L222.12 506.882C223.007 507.465 224.083 507.933 225.35 508.288C226.642 508.643 227.934 508.82 229.226 508.82C230.569 508.82 231.569 508.655 232.228 508.326C232.887 507.971 233.216 507.477 233.216 506.844C233.216 506.337 232.925 505.97 232.342 505.742C231.759 505.514 230.822 505.273 229.53 505.02C228.061 504.741 226.845 504.437 225.882 504.108C224.945 503.779 224.121 503.247 223.412 502.512C222.728 501.752 222.386 500.726 222.386 499.434C222.386 497.179 223.323 495.419 225.198 494.152C227.098 492.885 229.581 492.252 232.646 492.252C234.065 492.252 235.445 492.404 236.788 492.708C238.131 493.012 239.271 493.43 240.208 493.962L238.08 498.294C236.408 497.255 234.394 496.736 232.038 496.736C230.746 496.736 229.758 496.926 229.074 497.306C228.415 497.686 228.086 498.167 228.086 498.75C228.086 499.282 228.377 499.675 228.96 499.928C229.543 500.156 230.518 500.409 231.886 500.688C233.33 500.967 234.508 501.271 235.42 501.6C236.357 501.904 237.168 502.423 237.852 503.158C238.536 503.893 238.878 504.893 238.878 506.16C238.878 508.44 237.915 510.201 235.99 511.442C234.09 512.683 231.62 513.304 228.58 513.304ZM263.512 501.258C263.512 502.195 263.398 503.234 263.17 504.374H247.514C247.716 507.161 249.477 508.554 252.796 508.554C253.834 508.554 254.822 508.389 255.76 508.06C256.722 507.731 257.558 507.262 258.268 506.654L260.738 510.568C259.598 511.48 258.293 512.164 256.824 512.62C255.354 513.076 253.809 513.304 252.188 513.304C250.085 513.304 248.236 512.937 246.64 512.202C245.069 511.442 243.853 510.365 242.992 508.972C242.156 507.579 241.738 505.97 241.738 504.146C241.738 501.891 242.244 499.865 243.258 498.066C244.296 496.242 245.728 494.823 247.552 493.81C249.376 492.771 251.453 492.252 253.784 492.252C255.76 492.252 257.47 492.619 258.914 493.354C260.383 494.089 261.51 495.14 262.296 496.508C263.106 497.876 263.512 499.459 263.512 501.258ZM253.518 496.698C252.124 496.698 250.946 497.078 249.984 497.838C249.021 498.573 248.337 499.599 247.932 500.916H258.078C258.078 499.599 257.66 498.573 256.824 497.838C256.013 497.078 254.911 496.698 253.518 496.698ZM274.377 494.988C275.264 494.025 276.328 493.329 277.569 492.898C278.836 492.467 280.318 492.252 282.015 492.252L280.951 497.724C280.242 497.673 279.786 497.648 279.583 497.648C277.784 497.648 276.34 498.091 275.251 498.978C274.187 499.865 273.465 501.245 273.085 503.12L271.109 513H265.181L269.247 492.556H274.871L274.377 494.988ZM284.329 505.932C285.342 505.932 286.166 506.249 286.799 506.882C287.458 507.515 287.787 508.339 287.787 509.352C287.787 509.884 287.686 510.391 287.483 510.872C287.306 511.328 286.964 511.949 286.457 512.734L282.657 518.852H278.933L281.859 512.734C281.403 512.43 281.036 512.037 280.757 511.556C280.504 511.049 280.377 510.492 280.377 509.884C280.377 508.719 280.757 507.769 281.517 507.034C282.277 506.299 283.214 505.932 284.329 505.932ZM326.544 492.556L322.478 513H316.854L317.272 510.796C316.385 511.632 315.372 512.265 314.232 512.696C313.092 513.101 311.889 513.304 310.622 513.304C308.393 513.304 306.607 512.696 305.264 511.48C303.947 510.264 303.288 508.554 303.288 506.35C303.288 505.514 303.377 504.691 303.554 503.88L305.796 492.556H311.724L309.558 503.5C309.457 503.981 309.406 504.475 309.406 504.982C309.406 507.11 310.546 508.174 312.826 508.174C314.321 508.174 315.549 507.743 316.512 506.882C317.5 505.995 318.171 504.678 318.526 502.93L320.616 492.556H326.544ZM343.93 492.252C346.21 492.252 348.021 492.86 349.364 494.076C350.707 495.267 351.378 496.977 351.378 499.206C351.378 500.042 351.289 500.865 351.112 501.676L348.832 513H342.904L345.108 502.056C345.209 501.625 345.26 501.157 345.26 500.65C345.26 499.586 344.969 498.775 344.386 498.218C343.803 497.661 342.929 497.382 341.764 497.382C340.244 497.382 338.977 497.825 337.964 498.712C336.976 499.573 336.305 500.878 335.95 502.626L333.898 513H327.97L332.036 492.556H337.66L337.204 494.76C339.028 493.088 341.27 492.252 343.93 492.252ZM358.309 492.556H364.199L360.133 513H354.243L358.309 492.556ZM362.261 489.706C361.248 489.706 360.412 489.415 359.753 488.832C359.12 488.224 358.803 487.489 358.803 486.628C358.803 485.615 359.158 484.779 359.867 484.12C360.602 483.436 361.552 483.094 362.717 483.094C363.756 483.094 364.592 483.385 365.225 483.968C365.884 484.525 366.213 485.222 366.213 486.058C366.213 487.147 365.846 488.034 365.111 488.718C364.377 489.377 363.427 489.706 362.261 489.706ZM373.692 505.78C373.641 505.983 373.616 506.261 373.616 506.616C373.616 507.933 374.338 508.592 375.782 508.592C376.567 508.592 377.365 508.351 378.176 507.87L379.05 512.088C377.733 512.899 376.035 513.304 373.958 513.304C372.033 513.304 370.487 512.797 369.322 511.784C368.157 510.771 367.574 509.377 367.574 507.604C367.574 507.097 367.637 506.502 367.764 505.818L369.398 497.572H366.244L367.156 493.012H370.31L371.298 488.034H377.226L376.238 493.012H381.33L380.418 497.572H375.326L373.692 505.78ZM406.137 492.556L392.533 514.368C391.063 516.749 389.632 518.396 388.239 519.308C386.871 520.22 385.186 520.676 383.185 520.676C382.121 520.676 381.082 520.511 380.069 520.182C379.03 519.853 378.219 519.422 377.637 518.89L380.373 514.634C381.285 515.47 382.374 515.888 383.641 515.888C384.401 515.888 385.059 515.698 385.617 515.318C386.174 514.938 386.744 514.292 387.327 513.38L387.517 513.038L382.805 492.556H388.733L391.773 506.464L400.285 492.556H406.137ZM436.949 490.39L429.501 497.344C431.351 497.775 432.782 498.573 433.795 499.738C434.809 500.903 435.315 502.347 435.315 504.07C435.315 505.869 434.783 507.477 433.719 508.896C432.681 510.315 431.224 511.429 429.349 512.24C427.475 513.051 425.347 513.456 422.965 513.456C421.015 513.456 419.191 513.19 417.493 512.658C415.796 512.126 414.377 511.366 413.237 510.378L416.201 505.856C417.088 506.616 418.152 507.211 419.393 507.642C420.66 508.073 421.99 508.288 423.383 508.288C425.207 508.288 426.613 507.959 427.601 507.3C428.589 506.616 429.083 505.666 429.083 504.45C429.083 503.487 428.716 502.778 427.981 502.322C427.272 501.841 426.183 501.6 424.713 501.6H421.901L422.699 497.534L429.311 491.34H418.063L419.089 486.4H437.709L436.949 490.39ZM464.15 484.804L458.526 513H452.902L453.32 510.948C451.597 512.519 449.507 513.304 447.05 513.304C445.454 513.304 443.984 512.937 442.642 512.202C441.299 511.467 440.222 510.416 439.412 509.048C438.626 507.655 438.234 506.021 438.234 504.146C438.234 501.891 438.728 499.865 439.716 498.066C440.729 496.242 442.097 494.823 443.82 493.81C445.542 492.771 447.442 492.252 449.52 492.252C451.014 492.252 452.319 492.505 453.434 493.012C454.574 493.519 455.473 494.266 456.132 495.254L458.222 484.804H464.15ZM448.874 508.402C450.039 508.402 451.078 508.123 451.99 507.566C452.902 506.983 453.611 506.185 454.118 505.172C454.624 504.159 454.878 502.993 454.878 501.676C454.878 500.283 454.46 499.181 453.624 498.37C452.813 497.559 451.673 497.154 450.204 497.154C449.038 497.154 448 497.445 447.088 498.028C446.176 498.585 445.466 499.371 444.96 500.384C444.453 501.397 444.2 502.563 444.2 503.88C444.2 505.273 444.605 506.375 445.416 507.186C446.252 507.997 447.404 508.402 448.874 508.402ZM466.748 513.304C465.735 513.304 464.899 512.987 464.24 512.354C463.581 511.695 463.252 510.872 463.252 509.884C463.252 508.719 463.632 507.769 464.392 507.034C465.152 506.299 466.089 505.932 467.204 505.932C468.217 505.932 469.041 506.249 469.674 506.882C470.333 507.515 470.662 508.339 470.662 509.352C470.662 510.492 470.269 511.442 469.484 512.202C468.724 512.937 467.812 513.304 466.748 513.304ZM45.8868 532.4H52.0808L46.7608 559H40.5668L45.8868 532.4ZM74.2093 559.304C72.1066 559.304 70.27 558.924 68.6993 558.164C67.1286 557.404 65.9126 556.34 65.0513 554.972C64.2153 553.579 63.7973 551.97 63.7973 550.146C63.7973 547.891 64.3293 545.865 65.3933 544.066C66.4573 542.267 67.9393 540.849 69.8393 539.81C71.7393 538.771 73.88 538.252 76.2613 538.252C78.44 538.252 80.3146 538.708 81.8853 539.62C83.4813 540.507 84.672 541.773 85.4573 543.42L80.4413 545.928C79.5546 544.079 78.0346 543.154 75.8813 543.154C74.716 543.154 73.6646 543.445 72.7273 544.028C71.8153 544.585 71.0933 545.371 70.5613 546.384C70.0546 547.397 69.8013 548.55 69.8013 549.842C69.8013 551.235 70.2193 552.35 71.0553 553.186C71.8913 553.997 73.0566 554.402 74.5513 554.402C76.73 554.402 78.402 553.49 79.5673 551.666L83.9373 554.402C82.9493 555.947 81.594 557.151 79.8713 558.012C78.174 558.873 76.2866 559.304 74.2093 559.304ZM110.423 538.556L106.357 559H100.733L101.113 556.986C99.4154 558.531 97.3254 559.304 94.8427 559.304C93.2467 559.304 91.7774 558.937 90.4347 558.202C89.0921 557.467 88.0154 556.416 87.2047 555.048C86.4194 553.655 86.0267 552.021 86.0267 550.146C86.0267 547.891 86.5207 545.865 87.5087 544.066C88.5221 542.242 89.8901 540.823 91.6127 539.81C93.3354 538.771 95.2354 538.252 97.3127 538.252C100.454 538.252 102.671 539.278 103.963 541.33L104.495 538.556H110.423ZM96.6667 554.402C97.8321 554.402 98.8707 554.123 99.7827 553.566C100.695 552.983 101.404 552.185 101.911 551.172C102.417 550.159 102.671 548.993 102.671 547.676C102.671 546.283 102.253 545.181 101.417 544.37C100.606 543.559 99.4661 543.154 97.9967 543.154C96.8314 543.154 95.7927 543.445 94.8807 544.028C93.9687 544.585 93.2594 545.371 92.7527 546.384C92.2461 547.397 91.9927 548.563 91.9927 549.88C91.9927 551.273 92.3981 552.375 93.2087 553.186C94.0447 553.997 95.1974 554.402 96.6667 554.402ZM127.805 538.252C130.085 538.252 131.896 538.86 133.239 540.076C134.582 541.267 135.253 542.977 135.253 545.206C135.253 546.042 135.164 546.865 134.987 547.676L132.707 559H126.779L128.983 548.056C129.084 547.625 129.135 547.157 129.135 546.65C129.135 545.586 128.844 544.775 128.261 544.218C127.678 543.661 126.804 543.382 125.639 543.382C124.119 543.382 122.852 543.825 121.839 544.712C120.851 545.573 120.18 546.878 119.825 548.626L117.773 559H111.845L115.911 538.556H121.535L121.079 540.76C122.903 539.088 125.145 538.252 127.805 538.252ZM173.694 538.556L169.628 559H164.004L164.384 556.986C162.687 558.531 160.597 559.304 158.114 559.304C156.518 559.304 155.049 558.937 153.706 558.202C152.364 557.467 151.287 556.416 150.476 555.048C149.691 553.655 149.298 552.021 149.298 550.146C149.298 547.891 149.792 545.865 150.78 544.066C151.794 542.242 153.162 540.823 154.884 539.81C156.607 538.771 158.507 538.252 160.584 538.252C163.726 538.252 165.942 539.278 167.234 541.33L167.766 538.556H173.694ZM159.938 554.402C161.104 554.402 162.142 554.123 163.054 553.566C163.966 552.983 164.676 552.185 165.182 551.172C165.689 550.159 165.942 548.993 165.942 547.676C165.942 546.283 165.524 545.181 164.688 544.37C163.878 543.559 162.738 543.154 161.268 543.154C160.103 543.154 159.064 543.445 158.152 544.028C157.24 544.585 156.531 545.371 156.024 546.384C155.518 547.397 155.264 548.563 155.264 549.88C155.264 551.273 155.67 552.375 156.48 553.186C157.316 553.997 158.469 554.402 159.938 554.402ZM180.741 530.804H186.669L181.045 559H175.117L180.741 530.804ZM193.994 559.304C192.221 559.304 190.536 559.114 188.94 558.734C187.37 558.329 186.141 557.809 185.254 557.176L187.534 552.882C188.421 553.465 189.498 553.933 190.764 554.288C192.056 554.643 193.348 554.82 194.64 554.82C195.983 554.82 196.984 554.655 197.642 554.326C198.301 553.971 198.63 553.477 198.63 552.844C198.63 552.337 198.339 551.97 197.756 551.742C197.174 551.514 196.236 551.273 194.944 551.02C193.475 550.741 192.259 550.437 191.296 550.108C190.359 549.779 189.536 549.247 188.826 548.512C188.142 547.752 187.8 546.726 187.8 545.434C187.8 543.179 188.738 541.419 190.612 540.152C192.512 538.885 194.995 538.252 198.06 538.252C199.479 538.252 200.86 538.404 202.202 538.708C203.545 539.012 204.685 539.43 205.622 539.962L203.494 544.294C201.822 543.255 199.808 542.736 197.452 542.736C196.16 542.736 195.172 542.926 194.488 543.306C193.83 543.686 193.5 544.167 193.5 544.75C193.5 545.282 193.792 545.675 194.374 545.928C194.957 546.156 195.932 546.409 197.3 546.688C198.744 546.967 199.922 547.271 200.834 547.6C201.772 547.904 202.582 548.423 203.266 549.158C203.95 549.893 204.292 550.893 204.292 552.16C204.292 554.44 203.33 556.201 201.404 557.442C199.504 558.683 197.034 559.304 193.994 559.304ZM217.412 559.304C215.36 559.304 213.548 558.924 211.978 558.164C210.432 557.404 209.229 556.34 208.368 554.972C207.532 553.579 207.114 551.97 207.114 550.146C207.114 547.891 207.646 545.865 208.71 544.066C209.774 542.267 211.243 540.849 213.118 539.81C214.992 538.771 217.108 538.252 219.464 538.252C221.541 538.252 223.352 538.632 224.898 539.392C226.443 540.152 227.634 541.229 228.47 542.622C229.331 543.99 229.762 545.586 229.762 547.41C229.762 549.665 229.23 551.691 228.166 553.49C227.127 555.289 225.658 556.707 223.758 557.746C221.883 558.785 219.768 559.304 217.412 559.304ZM217.792 554.402C218.932 554.402 219.958 554.123 220.87 553.566C221.782 552.983 222.491 552.185 222.998 551.172C223.504 550.159 223.758 548.993 223.758 547.676C223.758 546.283 223.352 545.181 222.542 544.37C221.731 543.559 220.591 543.154 219.122 543.154C217.956 543.154 216.918 543.445 216.006 544.028C215.094 544.585 214.384 545.371 213.878 546.384C213.371 547.397 213.118 548.563 213.118 549.88C213.118 551.273 213.523 552.375 214.334 553.186C215.17 553.997 216.322 554.402 217.792 554.402ZM250.415 551.78C250.364 551.983 250.339 552.261 250.339 552.616C250.339 553.933 251.061 554.592 252.505 554.592C253.29 554.592 254.088 554.351 254.899 553.87L255.773 558.088C254.455 558.899 252.758 559.304 250.681 559.304C248.755 559.304 247.21 558.797 246.045 557.784C244.879 556.771 244.297 555.377 244.297 553.604C244.297 553.097 244.36 552.502 244.487 551.818L246.121 543.572H242.967L243.879 539.012H247.033L248.021 534.034H253.949L252.961 539.012H258.053L257.141 543.572H252.049L250.415 551.78ZM274.832 538.252C277.112 538.252 278.924 538.86 280.266 540.076C281.609 541.292 282.28 543.015 282.28 545.244C282.28 546.055 282.192 546.865 282.014 547.676L279.734 559H273.806L276.01 548.056C276.112 547.625 276.162 547.157 276.162 546.65C276.162 545.586 275.871 544.775 275.288 544.218C274.706 543.661 273.832 543.382 272.666 543.382C271.146 543.382 269.88 543.825 268.866 544.712C267.878 545.573 267.207 546.878 266.852 548.626L264.8 559H258.872L264.496 530.804H270.424L268.524 540.418C270.272 538.974 272.375 538.252 274.832 538.252ZM289.212 538.556H295.102L291.036 559H285.146L289.212 538.556ZM293.164 535.706C292.15 535.706 291.314 535.415 290.656 534.832C290.022 534.224 289.706 533.489 289.706 532.628C289.706 531.615 290.06 530.779 290.77 530.12C291.504 529.436 292.454 529.094 293.62 529.094C294.658 529.094 295.494 529.385 296.128 529.968C296.786 530.525 297.116 531.222 297.116 532.058C297.116 533.147 296.748 534.034 296.014 534.718C295.279 535.377 294.329 535.706 293.164 535.706ZM312.498 538.252C314.778 538.252 316.59 538.86 317.932 540.076C319.275 541.267 319.946 542.977 319.946 545.206C319.946 546.042 319.858 546.865 319.68 547.676L317.4 559H311.472L313.676 548.056C313.778 547.625 313.828 547.157 313.828 546.65C313.828 545.586 313.537 544.775 312.954 544.218C312.372 543.661 311.498 543.382 310.332 543.382C308.812 543.382 307.546 543.825 306.532 544.712C305.544 545.573 304.873 546.878 304.518 548.626L302.466 559H296.538L300.604 538.556H306.228L305.772 540.76C307.596 539.088 309.838 538.252 312.498 538.252ZM338.05 547.448L345.08 559H338.202L333.338 551.058L329.728 554.06L328.74 559H322.812L328.436 530.804H334.364L331.21 546.574L341.014 538.556H348.728L338.05 547.448ZM368.744 559.304C366.692 559.304 364.88 558.924 363.31 558.164C361.764 557.404 360.561 556.34 359.7 554.972C358.864 553.579 358.446 551.97 358.446 550.146C358.446 547.891 358.978 545.865 360.042 544.066C361.106 542.267 362.575 540.849 364.45 539.81C366.324 538.771 368.44 538.252 370.796 538.252C372.873 538.252 374.684 538.632 376.23 539.392C377.775 540.152 378.966 541.229 379.802 542.622C380.663 543.99 381.094 545.586 381.094 547.41C381.094 549.665 380.562 551.691 379.498 553.49C378.459 555.289 376.99 556.707 375.09 557.746C373.215 558.785 371.1 559.304 368.744 559.304ZM369.124 554.402C370.264 554.402 371.29 554.123 372.202 553.566C373.114 552.983 373.823 552.185 374.33 551.172C374.836 550.159 375.09 548.993 375.09 547.676C375.09 546.283 374.684 545.181 373.874 544.37C373.063 543.559 371.923 543.154 370.454 543.154C369.288 543.154 368.25 543.445 367.338 544.028C366.426 544.585 365.716 545.371 365.21 546.384C364.703 547.397 364.45 548.563 364.45 549.88C364.45 551.273 364.855 552.375 365.666 553.186C366.502 553.997 367.654 554.402 369.124 554.402ZM396.799 535.174C395.887 535.174 395.165 535.427 394.633 535.934C394.126 536.415 393.772 537.188 393.569 538.252L393.417 539.012H398.623L397.711 543.572H392.657L389.579 559H383.651L386.729 543.572H383.537L384.449 539.012H387.641L387.869 537.834C388.35 535.554 389.338 533.768 390.833 532.476C392.353 531.159 394.329 530.5 396.761 530.5C397.673 530.5 398.534 530.601 399.345 530.804C400.181 531.007 400.89 531.285 401.473 531.64L399.155 535.896C398.522 535.415 397.736 535.174 396.799 535.174ZM416.442 551.78C416.391 551.983 416.366 552.261 416.366 552.616C416.366 553.933 417.088 554.592 418.532 554.592C419.317 554.592 420.115 554.351 420.926 553.87L421.8 558.088C420.483 558.899 418.785 559.304 416.708 559.304C414.783 559.304 413.237 558.797 412.072 557.784C410.907 556.771 410.324 555.377 410.324 553.604C410.324 553.097 410.387 552.502 410.514 551.818L412.148 543.572H408.994L409.906 539.012H413.06L414.048 534.034H419.976L418.988 539.012H424.08L423.168 543.572H418.076L416.442 551.78ZM440.86 538.252C443.14 538.252 444.951 538.86 446.294 540.076C447.636 541.292 448.308 543.015 448.308 545.244C448.308 546.055 448.219 546.865 448.042 547.676L445.762 559H439.834L442.038 548.056C442.139 547.625 442.19 547.157 442.19 546.65C442.19 545.586 441.898 544.775 441.316 544.218C440.733 543.661 439.859 543.382 438.694 543.382C437.174 543.382 435.907 543.825 434.894 544.712C433.906 545.573 433.234 546.878 432.88 548.626L430.828 559H424.9L430.524 530.804H436.452L434.552 540.418C436.3 538.974 438.402 538.252 440.86 538.252ZM473.588 547.258C473.588 548.195 473.474 549.234 473.246 550.374H457.59C457.792 553.161 459.553 554.554 462.872 554.554C463.91 554.554 464.898 554.389 465.836 554.06C466.798 553.731 467.634 553.262 468.344 552.654L470.814 556.568C469.674 557.48 468.369 558.164 466.9 558.62C465.43 559.076 463.885 559.304 462.264 559.304C460.161 559.304 458.312 558.937 456.716 558.202C455.145 557.442 453.929 556.365 453.068 554.972C452.232 553.579 451.814 551.97 451.814 550.146C451.814 547.891 452.32 545.865 453.334 544.066C454.372 542.242 455.804 540.823 457.628 539.81C459.452 538.771 461.529 538.252 463.86 538.252C465.836 538.252 467.546 538.619 468.99 539.354C470.459 540.089 471.586 541.14 472.372 542.508C473.182 543.876 473.588 545.459 473.588 547.258ZM463.594 542.698C462.2 542.698 461.022 543.078 460.06 543.838C459.097 544.573 458.413 545.599 458.008 546.916H468.154C468.154 545.599 467.736 544.573 466.9 543.838C466.089 543.078 464.987 542.698 463.594 542.698ZM124.075 584.556H129.965L125.899 605H120.009L124.075 584.556ZM128.027 581.706C127.014 581.706 126.178 581.415 125.519 580.832C124.886 580.224 124.569 579.489 124.569 578.628C124.569 577.615 124.924 576.779 125.633 576.12C126.368 575.436 127.318 575.094 128.483 575.094C129.522 575.094 130.358 575.385 130.991 575.968C131.65 576.525 131.979 577.222 131.979 578.058C131.979 579.147 131.612 580.034 130.877 580.718C130.142 581.377 129.192 581.706 128.027 581.706ZM157.812 576.804L152.188 605H146.564L146.982 602.948C145.259 604.519 143.169 605.304 140.712 605.304C139.116 605.304 137.646 604.937 136.304 604.202C134.961 603.467 133.884 602.416 133.074 601.048C132.288 599.655 131.896 598.021 131.896 596.146C131.896 593.891 132.39 591.865 133.378 590.066C134.391 588.242 135.759 586.823 137.482 585.81C139.204 584.771 141.104 584.252 143.182 584.252C144.676 584.252 145.981 584.505 147.096 585.012C148.236 585.519 149.135 586.266 149.794 587.254L151.884 576.804H157.812ZM142.536 600.402C143.701 600.402 144.74 600.123 145.652 599.566C146.564 598.983 147.273 598.185 147.78 597.172C148.286 596.159 148.54 594.993 148.54 593.676C148.54 592.283 148.122 591.181 147.286 590.37C146.475 589.559 145.335 589.154 143.866 589.154C142.7 589.154 141.662 589.445 140.75 590.028C139.838 590.585 139.128 591.371 138.622 592.384C138.115 593.397 137.862 594.563 137.862 595.88C137.862 597.273 138.267 598.375 139.078 599.186C139.914 599.997 141.066 600.402 142.536 600.402ZM179.904 593.258C179.904 594.195 179.79 595.234 179.562 596.374H163.906C164.109 599.161 165.87 600.554 169.188 600.554C170.227 600.554 171.215 600.389 172.152 600.06C173.115 599.731 173.951 599.262 174.66 598.654L177.13 602.568C175.99 603.48 174.686 604.164 173.216 604.62C171.747 605.076 170.202 605.304 168.58 605.304C166.478 605.304 164.628 604.937 163.032 604.202C161.462 603.442 160.246 602.365 159.384 600.972C158.548 599.579 158.13 597.97 158.13 596.146C158.13 593.891 158.637 591.865 159.65 590.066C160.689 588.242 162.12 586.823 163.944 585.81C165.768 584.771 167.846 584.252 170.176 584.252C172.152 584.252 173.862 584.619 175.306 585.354C176.776 586.089 177.903 587.14 178.688 588.508C179.499 589.876 179.904 591.459 179.904 593.258ZM169.91 588.698C168.517 588.698 167.339 589.078 166.376 589.838C165.414 590.573 164.73 591.599 164.324 592.916H174.47C174.47 591.599 174.052 590.573 173.216 589.838C172.406 589.078 171.304 588.698 169.91 588.698ZM206.388 584.556L202.322 605H196.698L197.078 602.986C195.38 604.531 193.29 605.304 190.808 605.304C189.212 605.304 187.742 604.937 186.4 604.202C185.057 603.467 183.98 602.416 183.17 601.048C182.384 599.655 181.992 598.021 181.992 596.146C181.992 593.891 182.486 591.865 183.474 590.066C184.487 588.242 185.855 586.823 187.578 585.81C189.3 584.771 191.2 584.252 193.278 584.252C196.419 584.252 198.636 585.278 199.928 587.33L200.46 584.556H206.388ZM192.632 600.402C193.797 600.402 194.836 600.123 195.748 599.566C196.66 598.983 197.369 598.185 197.876 597.172C198.382 596.159 198.636 594.993 198.636 593.676C198.636 592.283 198.218 591.181 197.382 590.37C196.571 589.559 195.431 589.154 193.962 589.154C192.796 589.154 191.758 589.445 190.846 590.028C189.934 590.585 189.224 591.371 188.718 592.384C188.211 593.397 187.958 594.563 187.958 595.88C187.958 597.273 188.363 598.375 189.174 599.186C190.01 599.997 191.162 600.402 192.632 600.402ZM215.258 605.304C213.485 605.304 211.8 605.114 210.204 604.734C208.633 604.329 207.405 603.809 206.518 603.176L208.798 598.882C209.685 599.465 210.761 599.933 212.028 600.288C213.32 600.643 214.612 600.82 215.904 600.82C217.247 600.82 218.247 600.655 218.906 600.326C219.565 599.971 219.894 599.477 219.894 598.844C219.894 598.337 219.603 597.97 219.02 597.742C218.437 597.514 217.5 597.273 216.208 597.02C214.739 596.741 213.523 596.437 212.56 596.108C211.623 595.779 210.799 595.247 210.09 594.512C209.406 593.752 209.064 592.726 209.064 591.434C209.064 589.179 210.001 587.419 211.876 586.152C213.776 584.885 216.259 584.252 219.324 584.252C220.743 584.252 222.123 584.404 223.466 584.708C224.809 585.012 225.949 585.43 226.886 585.962L224.758 590.294C223.086 589.255 221.072 588.736 218.716 588.736C217.424 588.736 216.436 588.926 215.752 589.306C215.093 589.686 214.764 590.167 214.764 590.75C214.764 591.282 215.055 591.675 215.638 591.928C216.221 592.156 217.196 592.409 218.564 592.688C220.008 592.967 221.186 593.271 222.098 593.6C223.035 593.904 223.846 594.423 224.53 595.158C225.214 595.893 225.556 596.893 225.556 598.16C225.556 600.44 224.593 602.201 222.668 603.442C220.768 604.683 218.298 605.304 215.258 605.304ZM263.573 584.556L259.507 605H253.883L254.263 602.986C252.566 604.531 250.476 605.304 247.993 605.304C246.397 605.304 244.928 604.937 243.585 604.202C242.242 603.467 241.166 602.416 240.355 601.048C239.57 599.655 239.177 598.021 239.177 596.146C239.177 593.891 239.671 591.865 240.659 590.066C241.672 588.242 243.04 586.823 244.763 585.81C246.486 584.771 248.386 584.252 250.463 584.252C253.604 584.252 255.821 585.278 257.113 587.33L257.645 584.556H263.573ZM249.817 600.402C250.982 600.402 252.021 600.123 252.933 599.566C253.845 598.983 254.554 598.185 255.061 597.172C255.568 596.159 255.821 594.993 255.821 593.676C255.821 592.283 255.403 591.181 254.567 590.37C253.756 589.559 252.616 589.154 251.147 589.154C249.982 589.154 248.943 589.445 248.031 590.028C247.119 590.585 246.41 591.371 245.903 592.384C245.396 593.397 245.143 594.563 245.143 595.88C245.143 597.273 245.548 598.375 246.359 599.186C247.195 599.997 248.348 600.402 249.817 600.402ZM280.955 584.252C283.235 584.252 285.047 584.86 286.389 586.076C287.732 587.267 288.403 588.977 288.403 591.206C288.403 592.042 288.315 592.865 288.137 593.676L285.857 605H279.929L282.133 594.056C282.235 593.625 282.285 593.157 282.285 592.65C282.285 591.586 281.994 590.775 281.411 590.218C280.829 589.661 279.955 589.382 278.789 589.382C277.269 589.382 276.003 589.825 274.989 590.712C274.001 591.573 273.33 592.878 272.975 594.626L270.923 605H264.995L269.061 584.556H274.685L274.229 586.76C276.053 585.088 278.295 584.252 280.955 584.252ZM317.902 576.804L312.278 605H306.654L307.072 602.948C305.349 604.519 303.259 605.304 300.802 605.304C299.206 605.304 297.736 604.937 296.394 604.202C295.051 603.467 293.974 602.416 293.164 601.048C292.378 599.655 291.986 598.021 291.986 596.146C291.986 593.891 292.48 591.865 293.468 590.066C294.481 588.242 295.849 586.823 297.572 585.81C299.294 584.771 301.194 584.252 303.272 584.252C304.766 584.252 306.071 584.505 307.186 585.012C308.326 585.519 309.225 586.266 309.884 587.254L311.974 576.804H317.902ZM302.626 600.402C303.791 600.402 304.83 600.123 305.742 599.566C306.654 598.983 307.363 598.185 307.87 597.172C308.376 596.159 308.63 594.993 308.63 593.676C308.63 592.283 308.212 591.181 307.376 590.37C306.565 589.559 305.425 589.154 303.956 589.154C302.79 589.154 301.752 589.445 300.84 590.028C299.928 590.585 299.218 591.371 298.712 592.384C298.205 593.397 297.952 594.563 297.952 595.88C297.952 597.273 298.357 598.375 299.168 599.186C300.004 599.997 301.156 600.402 302.626 600.402ZM336.62 597.78C336.569 597.983 336.544 598.261 336.544 598.616C336.544 599.933 337.266 600.592 338.71 600.592C339.495 600.592 340.293 600.351 341.104 599.87L341.978 604.088C340.66 604.899 338.963 605.304 336.886 605.304C334.96 605.304 333.415 604.797 332.25 603.784C331.084 602.771 330.502 601.377 330.502 599.604C330.502 599.097 330.565 598.502 330.692 597.818L332.326 589.572H329.172L330.084 585.012H333.238L334.226 580.034H340.154L339.166 585.012H344.258L343.346 589.572H338.254L336.62 597.78ZM361.037 584.252C363.317 584.252 365.129 584.86 366.471 586.076C367.814 587.292 368.485 589.015 368.485 591.244C368.485 592.055 368.397 592.865 368.219 593.676L365.939 605H360.011L362.215 594.056C362.317 593.625 362.367 593.157 362.367 592.65C362.367 591.586 362.076 590.775 361.493 590.218C360.911 589.661 360.037 589.382 358.871 589.382C357.351 589.382 356.085 589.825 355.071 590.712C354.083 591.573 353.412 592.878 353.057 594.626L351.005 605H345.077L350.701 576.804H356.629L354.729 586.418C356.477 584.974 358.58 584.252 361.037 584.252ZM393.766 593.258C393.766 594.195 393.652 595.234 393.424 596.374H377.768C377.97 599.161 379.731 600.554 383.05 600.554C384.088 600.554 385.076 600.389 386.014 600.06C386.976 599.731 387.812 599.262 388.522 598.654L390.992 602.568C389.852 603.48 388.547 604.164 387.078 604.62C385.608 605.076 384.063 605.304 382.442 605.304C380.339 605.304 378.49 604.937 376.894 604.202C375.323 603.442 374.107 602.365 373.246 600.972C372.41 599.579 371.992 597.97 371.992 596.146C371.992 593.891 372.498 591.865 373.512 590.066C374.55 588.242 375.982 586.823 377.806 585.81C379.63 584.771 381.707 584.252 384.038 584.252C386.014 584.252 387.724 584.619 389.168 585.354C390.637 586.089 391.764 587.14 392.55 588.508C393.36 589.876 393.766 591.459 393.766 593.258ZM383.772 588.698C382.378 588.698 381.2 589.078 380.238 589.838C379.275 590.573 378.591 591.599 378.186 592.916H388.332C388.332 591.599 387.914 590.573 387.078 589.838C386.267 589.078 385.165 588.698 383.772 588.698ZM172.826 630.252C175.055 630.252 176.828 630.86 178.146 632.076C179.463 633.267 180.122 634.964 180.122 637.168C180.122 637.979 180.033 638.815 179.856 639.676L177.614 651H171.686L173.852 640.094C173.953 639.587 174.004 639.068 174.004 638.536C174.004 637.497 173.725 636.712 173.168 636.18C172.636 635.648 171.838 635.382 170.774 635.382C167.911 635.382 166.125 637.092 165.416 640.512L163.326 651H157.398L159.564 640.094C159.665 639.587 159.716 639.081 159.716 638.574C159.716 637.535 159.437 636.75 158.88 636.218C158.348 635.661 157.55 635.382 156.486 635.382C153.623 635.382 151.824 637.117 151.09 640.588L149.038 651H143.11L147.176 630.556H152.8L152.344 632.684C154.117 631.063 156.258 630.252 158.766 630.252C160.184 630.252 161.438 630.543 162.528 631.126C163.642 631.683 164.478 632.507 165.036 633.596C166.024 632.507 167.176 631.683 168.494 631.126C169.811 630.543 171.255 630.252 172.826 630.252ZM205.38 639.258C205.38 640.195 205.266 641.234 205.038 642.374H189.382C189.584 645.161 191.345 646.554 194.664 646.554C195.702 646.554 196.69 646.389 197.628 646.06C198.59 645.731 199.426 645.262 200.136 644.654L202.606 648.568C201.466 649.48 200.161 650.164 198.692 650.62C197.222 651.076 195.677 651.304 194.056 651.304C191.953 651.304 190.104 650.937 188.508 650.202C186.937 649.442 185.721 648.365 184.86 646.972C184.024 645.579 183.606 643.97 183.606 642.146C183.606 639.891 184.112 637.865 185.126 636.066C186.164 634.242 187.596 632.823 189.42 631.81C191.244 630.771 193.321 630.252 195.652 630.252C197.628 630.252 199.338 630.619 200.782 631.354C202.251 632.089 203.378 633.14 204.164 634.508C204.974 635.876 205.38 637.459 205.38 639.258ZM195.386 634.698C193.992 634.698 192.814 635.078 191.852 635.838C190.889 636.573 190.205 637.599 189.8 638.916H199.946C199.946 637.599 199.528 636.573 198.692 635.838C197.881 635.078 196.779 634.698 195.386 634.698ZM217.841 651.304C215.738 651.304 213.902 650.924 212.331 650.164C210.76 649.404 209.544 648.34 208.683 646.972C207.847 645.579 207.429 643.97 207.429 642.146C207.429 639.891 207.961 637.865 209.025 636.066C210.089 634.267 211.571 632.849 213.471 631.81C215.371 630.771 217.512 630.252 219.893 630.252C222.072 630.252 223.946 630.708 225.517 631.62C227.113 632.507 228.304 633.773 229.089 635.42L224.073 637.928C223.186 636.079 221.666 635.154 219.513 635.154C218.348 635.154 217.296 635.445 216.359 636.028C215.447 636.585 214.725 637.371 214.193 638.384C213.686 639.397 213.433 640.55 213.433 641.842C213.433 643.235 213.851 644.35 214.687 645.186C215.523 645.997 216.688 646.402 218.183 646.402C220.362 646.402 222.034 645.49 223.199 643.666L227.569 646.402C226.581 647.947 225.226 649.151 223.503 650.012C221.806 650.873 219.918 651.304 217.841 651.304ZM245.312 630.252C247.592 630.252 249.403 630.86 250.746 632.076C252.089 633.292 252.76 635.015 252.76 637.244C252.76 638.055 252.671 638.865 252.494 639.676L250.214 651H244.286L246.49 640.056C246.591 639.625 246.642 639.157 246.642 638.65C246.642 637.586 246.351 636.775 245.768 636.218C245.185 635.661 244.311 635.382 243.146 635.382C241.626 635.382 240.359 635.825 239.346 636.712C238.358 637.573 237.687 638.878 237.332 640.626L235.28 651H229.352L234.976 622.804H240.904L239.004 632.418C240.752 630.974 242.855 630.252 245.312 630.252ZM280.662 630.556L276.596 651H270.972L271.352 648.986C269.655 650.531 267.565 651.304 265.082 651.304C263.486 651.304 262.017 650.937 260.674 650.202C259.331 649.467 258.255 648.416 257.444 647.048C256.659 645.655 256.266 644.021 256.266 642.146C256.266 639.891 256.76 637.865 257.748 636.066C258.761 634.242 260.129 632.823 261.852 631.81C263.575 630.771 265.475 630.252 267.552 630.252C270.693 630.252 272.91 631.278 274.202 633.33L274.734 630.556H280.662ZM266.906 646.402C268.071 646.402 269.11 646.123 270.022 645.566C270.934 644.983 271.643 644.185 272.15 643.172C272.657 642.159 272.91 640.993 272.91 639.676C272.91 638.283 272.492 637.181 271.656 636.37C270.845 635.559 269.705 635.154 268.236 635.154C267.071 635.154 266.032 635.445 265.12 636.028C264.208 636.585 263.499 637.371 262.992 638.384C262.485 639.397 262.232 640.563 262.232 641.88C262.232 643.273 262.637 644.375 263.448 645.186C264.284 645.997 265.437 646.402 266.906 646.402ZM298.044 630.252C300.324 630.252 302.136 630.86 303.478 632.076C304.821 633.267 305.492 634.977 305.492 637.206C305.492 638.042 305.404 638.865 305.226 639.676L302.946 651H297.018L299.222 640.056C299.324 639.625 299.374 639.157 299.374 638.65C299.374 637.586 299.083 636.775 298.5 636.218C297.918 635.661 297.044 635.382 295.878 635.382C294.358 635.382 293.092 635.825 292.078 636.712C291.09 637.573 290.419 638.878 290.064 640.626L288.012 651H282.084L286.15 630.556H291.774L291.318 632.76C293.142 631.088 295.384 630.252 298.044 630.252ZM312.424 630.556H318.314L314.248 651H308.358L312.424 630.556ZM316.376 627.706C315.362 627.706 314.526 627.415 313.868 626.832C313.234 626.224 312.918 625.489 312.918 624.628C312.918 623.615 313.272 622.779 313.982 622.12C314.716 621.436 315.666 621.094 316.832 621.094C317.87 621.094 318.706 621.385 319.34 621.968C319.998 622.525 320.328 623.222 320.328 624.058C320.328 625.147 319.96 626.034 319.226 626.718C318.491 627.377 317.541 627.706 316.376 627.706ZM330.542 651.304C328.44 651.304 326.603 650.924 325.032 650.164C323.462 649.404 322.246 648.34 321.384 646.972C320.548 645.579 320.13 643.97 320.13 642.146C320.13 639.891 320.662 637.865 321.726 636.066C322.79 634.267 324.272 632.849 326.172 631.81C328.072 630.771 330.213 630.252 332.594 630.252C334.773 630.252 336.648 630.708 338.218 631.62C339.814 632.507 341.005 633.773 341.79 635.42L336.774 637.928C335.888 636.079 334.368 635.154 332.214 635.154C331.049 635.154 329.998 635.445 329.06 636.028C328.148 636.585 327.426 637.371 326.894 638.384C326.388 639.397 326.134 640.55 326.134 641.842C326.134 643.235 326.552 644.35 327.388 645.186C328.224 645.997 329.39 646.402 330.884 646.402C333.063 646.402 334.735 645.49 335.9 643.666L340.27 646.402C339.282 647.947 337.927 649.151 336.204 650.012C334.507 650.873 332.62 651.304 330.542 651.304ZM349.649 651.304C347.876 651.304 346.191 651.114 344.595 650.734C343.025 650.329 341.796 649.809 340.909 649.176L343.189 644.882C344.076 645.465 345.153 645.933 346.419 646.288C347.711 646.643 349.003 646.82 350.295 646.82C351.638 646.82 352.639 646.655 353.297 646.326C353.956 645.971 354.285 645.477 354.285 644.844C354.285 644.337 353.994 643.97 353.411 643.742C352.829 643.514 351.891 643.273 350.599 643.02C349.13 642.741 347.914 642.437 346.951 642.108C346.014 641.779 345.191 641.247 344.481 640.512C343.797 639.752 343.455 638.726 343.455 637.434C343.455 635.179 344.393 633.419 346.267 632.152C348.167 630.885 350.65 630.252 353.715 630.252C355.134 630.252 356.515 630.404 357.857 630.708C359.2 631.012 360.34 631.43 361.277 631.962L359.149 636.294C357.477 635.255 355.463 634.736 353.107 634.736C351.815 634.736 350.827 634.926 350.143 635.306C349.485 635.686 349.155 636.167 349.155 636.75C349.155 637.282 349.447 637.675 350.029 637.928C350.612 638.156 351.587 638.409 352.955 638.688C354.399 638.967 355.577 639.271 356.489 639.6C357.427 639.904 358.237 640.423 358.921 641.158C359.605 641.893 359.947 642.893 359.947 644.16C359.947 646.44 358.985 648.201 357.059 649.442C355.159 650.683 352.689 651.304 349.649 651.304ZM365.087 651.304C364.074 651.304 363.238 650.987 362.579 650.354C361.92 649.695 361.591 648.872 361.591 647.884C361.591 646.719 361.971 645.769 362.731 645.034C363.491 644.299 364.428 643.932 365.543 643.932C366.556 643.932 367.38 644.249 368.013 644.882C368.672 645.515 369.001 646.339 369.001 647.352C369.001 648.492 368.608 649.442 367.823 650.202C367.063 650.937 366.151 651.304 365.087 651.304Z" fill="white"/>
<path d="M131.825 374.34H140.705L137.225 391.62C135.105 393.26 132.645 394.52 129.845 395.4C127.045 396.28 124.145 396.72 121.145 396.72C116.945 396.72 113.285 395.96 110.165 394.44C107.045 392.92 104.625 390.78 102.905 388.02C101.225 385.26 100.385 382.08 100.385 378.48C100.385 373.72 101.485 369.42 103.685 365.58C105.885 361.74 108.985 358.74 112.985 356.58C116.985 354.38 121.585 353.28 126.785 353.28C130.785 353.28 134.245 353.9 137.165 355.14C140.125 356.38 142.505 358.2 144.305 360.6L137.345 366.24C135.945 364.6 134.365 363.42 132.605 362.7C130.845 361.94 128.765 361.56 126.365 361.56C123.165 361.56 120.345 362.28 117.905 363.72C115.465 365.12 113.565 367.06 112.205 369.54C110.885 372.02 110.225 374.8 110.225 377.88C110.225 381.12 111.265 383.7 113.345 385.62C115.465 387.5 118.485 388.44 122.405 388.44C124.885 388.44 127.205 387.94 129.365 386.94L131.825 374.34ZM183.934 363.72L177.514 396H168.634L169.234 392.82C166.554 395.26 163.254 396.48 159.334 396.48C156.814 396.48 154.494 395.9 152.374 394.74C150.254 393.58 148.554 391.92 147.274 389.76C146.034 387.56 145.414 384.98 145.414 382.02C145.414 378.46 146.194 375.26 147.754 372.42C149.354 369.54 151.514 367.3 154.234 365.7C156.954 364.06 159.954 363.24 163.234 363.24C168.194 363.24 171.694 364.86 173.734 368.1L174.574 363.72H183.934ZM162.214 388.74C164.054 388.74 165.694 388.3 167.134 387.42C168.574 386.5 169.694 385.24 170.494 383.64C171.294 382.04 171.694 380.2 171.694 378.12C171.694 375.92 171.034 374.18 169.714 372.9C168.434 371.62 166.634 370.98 164.314 370.98C162.474 370.98 160.834 371.44 159.394 372.36C157.954 373.24 156.834 374.48 156.034 376.08C155.234 377.68 154.834 379.52 154.834 381.6C154.834 383.8 155.474 385.54 156.754 386.82C158.074 388.1 159.894 388.74 162.214 388.74ZM233.1 363.24C236.62 363.24 239.42 364.2 241.5 366.12C243.58 368 244.62 370.68 244.62 374.16C244.62 375.44 244.48 376.76 244.2 378.12L240.66 396H231.3L234.72 378.78C234.88 377.98 234.96 377.16 234.96 376.32C234.96 374.68 234.52 373.44 233.64 372.6C232.8 371.76 231.54 371.34 229.86 371.34C225.34 371.34 222.52 374.04 221.4 379.44L218.1 396H208.74L212.16 378.78C212.32 377.98 212.4 377.18 212.4 376.38C212.4 374.74 211.96 373.5 211.08 372.66C210.24 371.78 208.98 371.34 207.3 371.34C202.78 371.34 199.94 374.08 198.78 379.56L195.54 396H186.18L192.6 363.72H201.48L200.76 367.08C203.56 364.52 206.94 363.24 210.9 363.24C213.14 363.24 215.12 363.7 216.84 364.62C218.6 365.5 219.92 366.8 220.8 368.52C222.36 366.8 224.18 365.5 226.26 364.62C228.34 363.7 230.62 363.24 233.1 363.24ZM284.501 377.46C284.501 378.94 284.321 380.58 283.961 382.38H259.241C259.561 386.78 262.341 388.98 267.581 388.98C269.221 388.98 270.781 388.72 272.261 388.2C273.781 387.68 275.101 386.94 276.221 385.98L280.121 392.16C278.321 393.6 276.261 394.68 273.941 395.4C271.621 396.12 269.181 396.48 266.621 396.48C263.301 396.48 260.381 395.9 257.861 394.74C255.381 393.54 253.461 391.84 252.101 389.64C250.781 387.44 250.121 384.9 250.121 382.02C250.121 378.46 250.921 375.26 252.521 372.42C254.161 369.54 256.421 367.3 259.301 365.7C262.181 364.06 265.461 363.24 269.141 363.24C272.261 363.24 274.961 363.82 277.241 364.98C279.561 366.14 281.341 367.8 282.581 369.96C283.861 372.12 284.501 374.62 284.501 377.46ZM268.721 370.26C266.521 370.26 264.661 370.86 263.141 372.06C261.621 373.22 260.541 374.84 259.901 376.92H275.921C275.921 374.84 275.261 373.22 273.941 372.06C272.661 370.86 270.921 370.26 268.721 370.26ZM345.829 351.48L336.949 396H328.069L328.729 392.76C326.009 395.24 322.709 396.48 318.829 396.48C316.309 396.48 313.989 395.9 311.869 394.74C309.749 393.58 308.049 391.92 306.769 389.76C305.529 387.56 304.909 384.98 304.909 382.02C304.909 378.46 305.689 375.26 307.249 372.42C308.849 369.54 311.009 367.3 313.729 365.7C316.449 364.06 319.449 363.24 322.729 363.24C325.089 363.24 327.149 363.64 328.909 364.44C330.709 365.24 332.129 366.42 333.169 367.98L336.469 351.48H345.829ZM321.709 388.74C323.549 388.74 325.189 388.3 326.629 387.42C328.069 386.5 329.189 385.24 329.989 383.64C330.789 382.04 331.189 380.2 331.189 378.12C331.189 375.92 330.529 374.18 329.209 372.9C327.929 371.62 326.129 370.98 323.809 370.98C321.969 370.98 320.329 371.44 318.889 372.36C317.449 373.24 316.329 374.48 315.529 376.08C314.729 377.68 314.329 379.52 314.329 381.6C314.329 383.8 314.969 385.54 316.249 386.82C317.569 388.1 319.389 388.74 321.709 388.74ZM380.712 377.46C380.712 378.94 380.532 380.58 380.172 382.38H355.452C355.772 386.78 358.552 388.98 363.792 388.98C365.432 388.98 366.992 388.72 368.472 388.2C369.992 387.68 371.312 386.94 372.432 385.98L376.332 392.16C374.532 393.6 372.472 394.68 370.152 395.4C367.832 396.12 365.392 396.48 362.832 396.48C359.512 396.48 356.592 395.9 354.072 394.74C351.592 393.54 349.672 391.84 348.312 389.64C346.992 387.44 346.332 384.9 346.332 382.02C346.332 378.46 347.132 375.26 348.732 372.42C350.372 369.54 352.632 367.3 355.512 365.7C358.392 364.06 361.672 363.24 365.352 363.24C368.472 363.24 371.172 363.82 373.452 364.98C375.772 366.14 377.552 367.8 378.792 369.96C380.072 372.12 380.712 374.62 380.712 377.46ZM364.932 370.26C362.732 370.26 360.872 370.86 359.352 372.06C357.832 373.22 356.752 374.84 356.112 376.92H372.132C372.132 374.84 371.472 373.22 370.152 372.06C368.872 370.86 367.132 370.26 364.932 370.26ZM421.222 363.72L401.182 396H391.522L384.382 363.72H393.622L398.302 385.74L411.862 363.72H421.222Z" fill="white"/>
<path d="M232.938 247.811L236.103 259.621L171.604 276.903L168.44 265.093L154.359 268.866L151.316 257.511L142.686 259.823L113.477 150.812L124.832 147.769L122.52 139.139L133.875 136.096L130.711 124.287L346.917 66.3544L350.082 78.164L361.437 75.1213L363.749 83.7514L372.379 81.439L401.589 190.451L392.959 192.763L396.002 204.118L384.646 207.161L387.811 218.971L323.312 236.253L320.148 224.443L232.938 247.811Z" fill="white"/>
<rect x="240.478" y="194.188" width="10.3452" height="10.3452" transform="rotate(-15 240.478 194.188)" fill="#C4C4C4"/>
<rect x="247.55" y="180.609" width="10.3452" height="10.3452" transform="rotate(-15 247.55 180.609)" fill="#C4C4C4"/>
<rect x="273.181" y="185.425" width="10.3452" height="10.3452" transform="rotate(-15 273.181 185.425)" fill="#C4C4C4"/>
<rect x="280.253" y="171.846" width="10.3452" height="10.3452" transform="rotate(-15 280.253 171.846)" fill="#C4C4C4"/>
<rect x="162.947" y="155.569" width="17.8691" height="53.6072" transform="rotate(-15 162.947 155.569)" fill="#F9CC14"/>
<rect x="154.937" y="194.714" width="17.8691" height="53.6072" transform="rotate(-105 154.937 194.714)" fill="#F9CC14"/>
<path d="M386.541 170.629L395.625 168.194L401.589 190.451L393.535 193.096L395.547 204.24L385.1 207.04L388.265 218.849L323.312 236.253L320.148 224.444L233.392 247.69L236.557 259.499L171.604 276.903L168.44 265.094L154.359 268.867L151.316 257.511L142.686 259.824L136.723 237.567L145.353 235.255L148.639 247.519L161.357 244.111L164.034 254.103L228.533 236.821L225.855 226.828L314.427 203.096L317.105 213.088L382.058 195.684L379.38 185.692L389.827 182.892L386.541 170.629Z" fill="#C4C4C4"/>
<rect x="319.197" y="113.702" width="16.9286" height="16.9286" transform="rotate(-15 319.197 113.702)" fill="#F2C94C"/>
<rect x="328.934" y="150.039" width="16.9286" height="16.9286" transform="rotate(-15 328.934 150.039)" fill="#F2C94C"/>
<rect x="304.988" y="136.982" width="16.9286" height="16.9286" transform="rotate(-15 304.988 136.982)" fill="#F2C94C"/>
<rect x="343.143" y="126.759" width="16.9286" height="16.9286" transform="rotate(-15 343.143 126.759)" fill="#F2C94C"/>
</svg>
