<svg width="531" height="820" viewBox="0 0 531 820" fill="none" xmlns="http://www.w3.org/2000/svg">
<path d="M284.524 704.08L177.125 703.667L229.03 758.969L294.46 704.118L284.524 704.08Z" fill="#F9CC14"/>
<path d="M494.119 704.886L386.72 704.472L438.624 759.775L504.054 704.924L494.119 704.886Z" fill="#F9CC14"/>
<path d="M372.489 703.973L310.128 703.733L340.266 735.844L378.258 703.995L372.489 703.973Z" fill="#F9CC14"/>
<path d="M323.617 747.335L261.256 747.095L299.248 715.246L329.386 747.357L323.617 747.335Z" fill="#F9CC14"/>
<path d="M335.75 762.49L240.477 762.124L286.521 811.183L344.564 762.524L335.75 762.49Z" fill="#F9CC14"/>
<path d="M439.142 779.35L379.539 715.846L371.055 784.942L444.656 785.225L439.142 779.35Z" fill="#F9CC14"/>
<path d="M407.055 785.309L390.726 727.054L445.45 785.309L407.055 785.309Z" fill="#F9CC14"/>
<path d="M530.593 0.377502H0.116516V705.62H530.593V0.377502Z" fill="#F9CC14"/>
<path d="M50.0275 128.4H56.2215L50.9015 155H44.7075L50.0275 128.4ZM78.3499 155.304C76.2473 155.304 74.4106 154.924 72.8399 154.164C71.2693 153.404 70.0533 152.34 69.1919 150.972C68.3559 149.579 67.9379 147.97 67.9379 146.146C67.9379 143.891 68.4699 141.865 69.5339 140.066C70.5979 138.267 72.0799 136.849 73.9799 135.81C75.8799 134.771 78.0206 134.252 80.4019 134.252C82.5806 134.252 84.4553 134.708 86.0259 135.62C87.6219 136.507 88.8126 137.773 89.5979 139.42L84.5819 141.928C83.6953 140.079 82.1753 139.154 80.0219 139.154C78.8566 139.154 77.8053 139.445 76.8679 140.028C75.9559 140.585 75.2339 141.371 74.7019 142.384C74.1953 143.397 73.9419 144.55 73.9419 145.842C73.9419 147.235 74.3599 148.35 75.1959 149.186C76.0319 149.997 77.1973 150.402 78.6919 150.402C80.8706 150.402 82.5426 149.49 83.7079 147.666L88.0779 150.402C87.0899 151.947 85.7346 153.151 84.0119 154.012C82.3146 154.873 80.4273 155.304 78.3499 155.304ZM114.563 134.556L110.497 155H104.873L105.253 152.986C103.556 154.531 101.466 155.304 98.9833 155.304C97.3873 155.304 95.918 154.937 94.5753 154.202C93.2327 153.467 92.156 152.416 91.3453 151.048C90.56 149.655 90.1673 148.021 90.1673 146.146C90.1673 143.891 90.6613 141.865 91.6493 140.066C92.6627 138.242 94.0307 136.823 95.7533 135.81C97.476 134.771 99.376 134.252 101.453 134.252C104.595 134.252 106.811 135.278 108.103 137.33L108.635 134.556H114.563ZM100.807 150.402C101.973 150.402 103.011 150.123 103.923 149.566C104.835 148.983 105.545 148.185 106.051 147.172C106.558 146.159 106.811 144.993 106.811 143.676C106.811 142.283 106.393 141.181 105.557 140.37C104.747 139.559 103.607 139.154 102.137 139.154C100.972 139.154 99.9333 139.445 99.0213 140.028C98.1093 140.585 97.4 141.371 96.8933 142.384C96.3867 143.397 96.1333 144.563 96.1333 145.88C96.1333 147.273 96.5387 148.375 97.3493 149.186C98.1853 149.997 99.338 150.402 100.807 150.402ZM131.946 134.252C134.226 134.252 136.037 134.86 137.38 136.076C138.722 137.267 139.394 138.977 139.394 141.206C139.394 142.042 139.305 142.865 139.128 143.676L136.848 155H130.92L133.124 144.056C133.225 143.625 133.276 143.157 133.276 142.65C133.276 141.586 132.984 140.775 132.402 140.218C131.819 139.661 130.945 139.382 129.78 139.382C128.26 139.382 126.993 139.825 125.98 140.712C124.992 141.573 124.32 142.878 123.966 144.626L121.914 155H115.986L120.052 134.556H125.676L125.22 136.76C127.044 135.088 129.286 134.252 131.946 134.252ZM179.431 126.804L173.807 155H168.183L168.601 152.948C166.878 154.519 164.788 155.304 162.331 155.304C160.735 155.304 159.265 154.937 157.923 154.202C156.58 153.467 155.503 152.416 154.693 151.048C153.907 149.655 153.515 148.021 153.515 146.146C153.515 143.891 154.009 141.865 154.997 140.066C156.01 138.242 157.378 136.823 159.101 135.81C160.823 134.771 162.723 134.252 164.801 134.252C166.295 134.252 167.6 134.505 168.715 135.012C169.855 135.519 170.754 136.266 171.413 137.254L173.503 126.804H179.431ZM164.155 150.402C165.32 150.402 166.359 150.123 167.271 149.566C168.183 148.983 168.892 148.185 169.399 147.172C169.905 146.159 170.159 144.993 170.159 143.676C170.159 142.283 169.741 141.181 168.905 140.37C168.094 139.559 166.954 139.154 165.485 139.154C164.319 139.154 163.281 139.445 162.369 140.028C161.457 140.585 160.747 141.371 160.241 142.384C159.734 143.397 159.481 144.563 159.481 145.88C159.481 147.273 159.886 148.375 160.697 149.186C161.533 149.997 162.685 150.402 164.155 150.402ZM201.523 143.258C201.523 144.195 201.409 145.234 201.181 146.374H185.525C185.728 149.161 187.489 150.554 190.807 150.554C191.846 150.554 192.834 150.389 193.771 150.06C194.734 149.731 195.57 149.262 196.279 148.654L198.749 152.568C197.609 153.48 196.305 154.164 194.835 154.62C193.366 155.076 191.821 155.304 190.199 155.304C188.097 155.304 186.247 154.937 184.651 154.202C183.081 153.442 181.865 152.365 181.003 150.972C180.167 149.579 179.749 147.97 179.749 146.146C179.749 143.891 180.256 141.865 181.269 140.066C182.308 138.242 183.739 136.823 185.563 135.81C187.387 134.771 189.465 134.252 191.795 134.252C193.771 134.252 195.481 134.619 196.925 135.354C198.395 136.089 199.522 137.14 200.307 138.508C201.118 139.876 201.523 141.459 201.523 143.258ZM191.529 138.698C190.136 138.698 188.958 139.078 187.995 139.838C187.033 140.573 186.349 141.599 185.943 142.916H196.089C196.089 141.599 195.671 140.573 194.835 139.838C194.025 139.078 192.923 138.698 191.529 138.698ZM210.641 155.304C208.867 155.304 207.183 155.114 205.587 154.734C204.016 154.329 202.787 153.809 201.901 153.176L204.181 148.882C205.067 149.465 206.144 149.933 207.411 150.288C208.703 150.643 209.995 150.82 211.287 150.82C212.629 150.82 213.63 150.655 214.289 150.326C214.947 149.971 215.277 149.477 215.277 148.844C215.277 148.337 214.985 147.97 214.403 147.742C213.82 147.514 212.883 147.273 211.591 147.02C210.121 146.741 208.905 146.437 207.943 146.108C207.005 145.779 206.182 145.247 205.473 144.512C204.789 143.752 204.447 142.726 204.447 141.434C204.447 139.179 205.384 137.419 207.259 136.152C209.159 134.885 211.641 134.252 214.707 134.252C216.125 134.252 217.506 134.404 218.849 134.708C220.191 135.012 221.331 135.43 222.269 135.962L220.141 140.294C218.469 139.255 216.455 138.736 214.099 138.736C212.807 138.736 211.819 138.926 211.135 139.306C210.476 139.686 210.147 140.167 210.147 140.75C210.147 141.282 210.438 141.675 211.021 141.928C211.603 142.156 212.579 142.409 213.947 142.688C215.391 142.967 216.569 143.271 217.481 143.6C218.418 143.904 219.229 144.423 219.913 145.158C220.597 145.893 220.939 146.893 220.939 148.16C220.939 150.44 219.976 152.201 218.051 153.442C216.151 154.683 213.681 155.304 210.641 155.304ZM227.446 134.556H233.336L229.27 155H223.38L227.446 134.556ZM231.398 131.706C230.385 131.706 229.549 131.415 228.89 130.832C228.257 130.224 227.94 129.489 227.94 128.628C227.94 127.615 228.295 126.779 229.004 126.12C229.739 125.436 230.689 125.094 231.854 125.094C232.893 125.094 233.729 125.385 234.362 125.968C235.021 126.525 235.35 127.222 235.35 128.058C235.35 129.147 234.983 130.034 234.248 130.718C233.514 131.377 232.564 131.706 231.398 131.706ZM259.929 134.556L256.547 151.58C255.787 155.431 254.317 158.243 252.139 160.016C249.985 161.789 247.097 162.676 243.475 162.676C241.499 162.676 239.675 162.448 238.003 161.992C236.356 161.536 234.937 160.865 233.747 159.978L236.559 155.684C237.369 156.368 238.408 156.9 239.675 157.28C240.967 157.685 242.322 157.888 243.741 157.888C245.742 157.888 247.262 157.445 248.301 156.558C249.339 155.697 250.049 154.379 250.429 152.606L250.581 151.732C248.934 153.252 246.857 154.012 244.349 154.012C242.651 154.012 241.119 153.67 239.751 152.986C238.383 152.277 237.293 151.276 236.483 149.984C235.697 148.692 235.305 147.172 235.305 145.424C235.305 143.347 235.799 141.459 236.787 139.762C237.775 138.065 239.13 136.722 240.853 135.734C242.601 134.746 244.551 134.252 246.705 134.252C248.301 134.252 249.694 134.556 250.885 135.164C252.101 135.747 253.013 136.659 253.621 137.9L254.267 134.556H259.929ZM245.945 149.148C247.667 149.148 249.086 148.591 250.201 147.476C251.315 146.361 251.873 144.93 251.873 143.182C251.873 141.941 251.467 140.965 250.657 140.256C249.846 139.521 248.719 139.154 247.275 139.154C245.527 139.154 244.083 139.711 242.943 140.826C241.828 141.941 241.271 143.372 241.271 145.12C241.271 146.361 241.689 147.349 242.525 148.084C243.361 148.793 244.501 149.148 245.945 149.148ZM277.34 134.252C279.62 134.252 281.432 134.86 282.774 136.076C284.117 137.267 284.788 138.977 284.788 141.206C284.788 142.042 284.7 142.865 284.522 143.676L282.242 155H276.314L278.518 144.056C278.62 143.625 278.67 143.157 278.67 142.65C278.67 141.586 278.379 140.775 277.796 140.218C277.214 139.661 276.34 139.382 275.174 139.382C273.654 139.382 272.388 139.825 271.374 140.712C270.386 141.573 269.715 142.878 269.36 144.626L267.308 155H261.38L265.446 134.556H271.07L270.614 136.76C272.438 135.088 274.68 134.252 277.34 134.252ZM323.229 134.556L319.163 155H313.539L313.919 152.986C312.222 154.531 310.132 155.304 307.649 155.304C306.053 155.304 304.584 154.937 303.241 154.202C301.899 153.467 300.822 152.416 300.011 151.048C299.226 149.655 298.833 148.021 298.833 146.146C298.833 143.891 299.327 141.865 300.315 140.066C301.329 138.242 302.697 136.823 304.419 135.81C306.142 134.771 308.042 134.252 310.119 134.252C313.261 134.252 315.477 135.278 316.769 137.33L317.301 134.556H323.229ZM309.473 150.402C310.639 150.402 311.677 150.123 312.589 149.566C313.501 148.983 314.211 148.185 314.717 147.172C315.224 146.159 315.477 144.993 315.477 143.676C315.477 142.283 315.059 141.181 314.223 140.37C313.413 139.559 312.273 139.154 310.803 139.154C309.638 139.154 308.599 139.445 307.687 140.028C306.775 140.585 306.066 141.371 305.559 142.384C305.053 143.397 304.799 144.563 304.799 145.88C304.799 147.273 305.205 148.375 306.015 149.186C306.851 149.997 308.004 150.402 309.473 150.402ZM340.194 134.252C341.79 134.252 343.259 134.619 344.602 135.354C345.97 136.089 347.046 137.153 347.832 138.546C348.642 139.914 349.048 141.535 349.048 143.41C349.048 145.665 348.541 147.704 347.528 149.528C346.54 151.327 345.184 152.745 343.462 153.784C341.739 154.797 339.826 155.304 337.724 155.304C334.608 155.304 332.404 154.291 331.112 152.264L329.098 162.372H323.17L328.718 134.556H334.342L333.924 136.57C335.621 135.025 337.711 134.252 340.194 134.252ZM337.04 150.402C338.205 150.402 339.244 150.123 340.156 149.566C341.068 148.983 341.777 148.185 342.284 147.172C342.79 146.159 343.044 144.993 343.044 143.676C343.044 142.283 342.626 141.181 341.79 140.37C340.979 139.559 339.839 139.154 338.37 139.154C337.23 139.154 336.204 139.445 335.292 140.028C334.38 140.585 333.67 141.371 333.164 142.384C332.657 143.397 332.404 144.563 332.404 145.88C332.404 147.273 332.809 148.375 333.62 149.186C334.43 149.997 335.57 150.402 337.04 150.402ZM366.43 134.252C368.026 134.252 369.495 134.619 370.838 135.354C372.206 136.089 373.283 137.153 374.068 138.546C374.879 139.914 375.284 141.535 375.284 143.41C375.284 145.665 374.777 147.704 373.764 149.528C372.776 151.327 371.421 152.745 369.698 153.784C367.975 154.797 366.063 155.304 363.96 155.304C360.844 155.304 358.64 154.291 357.348 152.264L355.334 162.372H349.406L354.954 134.556H360.578L360.16 136.57C361.857 135.025 363.947 134.252 366.43 134.252ZM363.276 150.402C364.441 150.402 365.48 150.123 366.392 149.566C367.304 148.983 368.013 148.185 368.52 147.172C369.027 146.159 369.28 144.993 369.28 143.676C369.28 142.283 368.862 141.181 368.026 140.37C367.215 139.559 366.075 139.154 364.606 139.154C363.466 139.154 362.44 139.445 361.528 140.028C360.616 140.585 359.907 141.371 359.4 142.384C358.893 143.397 358.64 144.563 358.64 145.88C358.64 147.273 359.045 148.375 359.856 149.186C360.667 149.997 361.807 150.402 363.276 150.402ZM384.572 155.304C382.799 155.304 381.114 155.114 379.518 154.734C377.948 154.329 376.719 153.809 375.832 153.176L378.112 148.882C378.999 149.465 380.076 149.933 381.342 150.288C382.634 150.643 383.926 150.82 385.218 150.82C386.561 150.82 387.562 150.655 388.22 150.326C388.879 149.971 389.208 149.477 389.208 148.844C389.208 148.337 388.917 147.97 388.334 147.742C387.752 147.514 386.814 147.273 385.522 147.02C384.053 146.741 382.837 146.437 381.874 146.108C380.937 145.779 380.114 145.247 379.404 144.512C378.72 143.752 378.378 142.726 378.378 141.434C378.378 139.179 379.316 137.419 381.19 136.152C383.09 134.885 385.573 134.252 388.638 134.252C390.057 134.252 391.438 134.404 392.78 134.708C394.123 135.012 395.263 135.43 396.2 135.962L394.072 140.294C392.4 139.255 390.386 138.736 388.03 138.736C386.738 138.736 385.75 138.926 385.066 139.306C384.408 139.686 384.078 140.167 384.078 140.75C384.078 141.282 384.37 141.675 384.952 141.928C385.535 142.156 386.51 142.409 387.878 142.688C389.322 142.967 390.5 143.271 391.412 143.6C392.35 143.904 393.16 144.423 393.844 145.158C394.528 145.893 394.87 146.893 394.87 148.16C394.87 150.44 393.908 152.201 391.982 153.442C390.082 154.683 387.612 155.304 384.572 155.304ZM432.888 134.556L428.822 155H423.198L423.578 152.986C421.88 154.531 419.79 155.304 417.308 155.304C415.712 155.304 414.242 154.937 412.9 154.202C411.557 153.467 410.48 152.416 409.67 151.048C408.884 149.655 408.492 148.021 408.492 146.146C408.492 143.891 408.986 141.865 409.974 140.066C410.987 138.242 412.355 136.823 414.078 135.81C415.8 134.771 417.7 134.252 419.778 134.252C422.919 134.252 425.136 135.278 426.428 137.33L426.96 134.556H432.888ZM419.132 150.402C420.297 150.402 421.336 150.123 422.248 149.566C423.16 148.983 423.869 148.185 424.376 147.172C424.882 146.159 425.136 144.993 425.136 143.676C425.136 142.283 424.718 141.181 423.882 140.37C423.071 139.559 421.931 139.154 420.462 139.154C419.296 139.154 418.258 139.445 417.346 140.028C416.434 140.585 415.724 141.371 415.218 142.384C414.711 143.397 414.458 144.563 414.458 145.88C414.458 147.273 414.863 148.375 415.674 149.186C416.51 149.997 417.662 150.402 419.132 150.402ZM450.27 134.252C452.55 134.252 454.361 134.86 455.704 136.076C457.047 137.267 457.718 138.977 457.718 141.206C457.718 142.042 457.629 142.865 457.452 143.676L455.172 155H449.244L451.448 144.056C451.549 143.625 451.6 143.157 451.6 142.65C451.6 141.586 451.309 140.775 450.726 140.218C450.143 139.661 449.269 139.382 448.104 139.382C446.584 139.382 445.317 139.825 444.304 140.712C443.316 141.573 442.645 142.878 442.29 144.626L440.238 155H434.31L438.376 134.556H444L443.544 136.76C445.368 135.088 447.61 134.252 450.27 134.252ZM487.216 126.804L481.592 155H475.968L476.386 152.948C474.663 154.519 472.573 155.304 470.116 155.304C468.52 155.304 467.051 154.937 465.708 154.202C464.365 153.467 463.289 152.416 462.478 151.048C461.693 149.655 461.3 148.021 461.3 146.146C461.3 143.891 461.794 141.865 462.782 140.066C463.795 138.242 465.163 136.823 466.886 135.81C468.609 134.771 470.509 134.252 472.586 134.252C474.081 134.252 475.385 134.505 476.5 135.012C477.64 135.519 478.539 136.266 479.198 137.254L481.288 126.804H487.216ZM471.94 150.402C473.105 150.402 474.144 150.123 475.056 149.566C475.968 148.983 476.677 148.185 477.184 147.172C477.691 146.159 477.944 144.993 477.944 143.676C477.944 142.283 477.526 141.181 476.69 140.37C475.879 139.559 474.739 139.154 473.27 139.154C472.105 139.154 471.066 139.445 470.154 140.028C469.242 140.585 468.533 141.371 468.026 142.384C467.519 143.397 467.266 144.563 467.266 145.88C467.266 147.273 467.671 148.375 468.482 149.186C469.318 149.997 470.471 150.402 471.94 150.402ZM66.2435 180.252C68.5235 180.252 70.3349 180.86 71.6775 182.076C73.0202 183.292 73.6915 185.015 73.6915 187.244C73.6915 188.055 73.6029 188.865 73.4255 189.676L71.1455 201H65.2175L67.4215 190.056C67.5229 189.625 67.5735 189.157 67.5735 188.65C67.5735 187.586 67.2822 186.775 66.6995 186.218C66.1169 185.661 65.2429 185.382 64.0775 185.382C62.5575 185.382 61.2909 185.825 60.2775 186.712C59.2895 187.573 58.6182 188.878 58.2635 190.626L56.2115 201H50.2835L55.9075 172.804H61.8355L59.9355 182.418C61.6835 180.974 63.7862 180.252 66.2435 180.252ZM87.4576 201.304C85.4056 201.304 83.5943 200.924 82.0236 200.164C80.4783 199.404 79.275 198.34 78.4136 196.972C77.5776 195.579 77.1596 193.97 77.1596 192.146C77.1596 189.891 77.6916 187.865 78.7556 186.066C79.8196 184.267 81.289 182.849 83.1636 181.81C85.0383 180.771 87.1536 180.252 89.5096 180.252C91.587 180.252 93.3983 180.632 94.9436 181.392C96.489 182.152 97.6796 183.229 98.5156 184.622C99.377 185.99 99.8076 187.586 99.8076 189.41C99.8076 191.665 99.2756 193.691 98.2116 195.49C97.173 197.289 95.7036 198.707 93.8036 199.746C91.929 200.785 89.8136 201.304 87.4576 201.304ZM87.8376 196.402C88.9776 196.402 90.0036 196.123 90.9156 195.566C91.8276 194.983 92.537 194.185 93.0436 193.172C93.5503 192.159 93.8036 190.993 93.8036 189.676C93.8036 188.283 93.3983 187.181 92.5876 186.37C91.777 185.559 90.637 185.154 89.1676 185.154C88.0023 185.154 86.9636 185.445 86.0516 186.028C85.1396 186.585 84.4303 187.371 83.9236 188.384C83.417 189.397 83.1636 190.563 83.1636 191.88C83.1636 193.273 83.569 194.375 84.3796 195.186C85.2156 195.997 86.3683 196.402 87.8376 196.402ZM138.25 180.556L126.964 201H121.112L118.756 188.27L111.726 201H105.95L102.34 180.556H107.736L109.978 194.312L117.654 180.556H122.746L125.064 194.312L132.664 180.556H138.25ZM155.677 193.78C155.627 193.983 155.601 194.261 155.601 194.616C155.601 195.933 156.323 196.592 157.767 196.592C158.553 196.592 159.351 196.351 160.161 195.87L161.035 200.088C159.718 200.899 158.021 201.304 155.943 201.304C154.018 201.304 152.473 200.797 151.307 199.784C150.142 198.771 149.559 197.377 149.559 195.604C149.559 195.097 149.623 194.502 149.749 193.818L151.383 185.572H148.229L149.141 181.012H152.295L153.283 176.034H159.211L158.223 181.012H163.315L162.403 185.572H157.311L155.677 193.78ZM180.095 180.252C182.375 180.252 184.186 180.86 185.529 182.076C186.872 183.292 187.543 185.015 187.543 187.244C187.543 188.055 187.454 188.865 187.277 189.676L184.997 201H179.069L181.273 190.056C181.374 189.625 181.425 189.157 181.425 188.65C181.425 187.586 181.134 186.775 180.551 186.218C179.968 185.661 179.094 185.382 177.929 185.382C176.409 185.382 175.142 185.825 174.129 186.712C173.141 187.573 172.47 188.878 172.115 190.626L170.063 201H164.135L169.759 172.804H175.687L173.787 182.418C175.535 180.974 177.638 180.252 180.095 180.252ZM212.823 189.258C212.823 190.195 212.709 191.234 212.481 192.374H196.825C197.028 195.161 198.789 196.554 202.107 196.554C203.146 196.554 204.134 196.389 205.071 196.06C206.034 195.731 206.87 195.262 207.579 194.654L210.049 198.568C208.909 199.48 207.605 200.164 206.135 200.62C204.666 201.076 203.121 201.304 201.499 201.304C199.397 201.304 197.547 200.937 195.951 200.202C194.381 199.442 193.165 198.365 192.303 196.972C191.467 195.579 191.049 193.97 191.049 192.146C191.049 189.891 191.556 187.865 192.569 186.066C193.608 184.242 195.039 182.823 196.863 181.81C198.687 180.771 200.765 180.252 203.095 180.252C205.071 180.252 206.781 180.619 208.225 181.354C209.695 182.089 210.822 183.14 211.607 184.508C212.418 185.876 212.823 187.459 212.823 189.258ZM202.829 184.698C201.436 184.698 200.258 185.078 199.295 185.838C198.333 186.573 197.649 187.599 197.243 188.916H207.389C207.389 187.599 206.971 186.573 206.135 185.838C205.325 185.078 204.223 184.698 202.829 184.698ZM250.068 180.556L246.002 201H240.378L240.758 198.986C239.061 200.531 236.971 201.304 234.488 201.304C232.892 201.304 231.423 200.937 230.08 200.202C228.738 199.467 227.661 198.416 226.85 197.048C226.065 195.655 225.672 194.021 225.672 192.146C225.672 189.891 226.166 187.865 227.154 186.066C228.168 184.242 229.536 182.823 231.258 181.81C232.981 180.771 234.881 180.252 236.958 180.252C240.1 180.252 242.316 181.278 243.608 183.33L244.14 180.556H250.068ZM236.312 196.402C237.478 196.402 238.516 196.123 239.428 195.566C240.34 194.983 241.05 194.185 241.556 193.172C242.063 192.159 242.316 190.993 242.316 189.676C242.316 188.283 241.898 187.181 241.062 186.37C240.252 185.559 239.112 185.154 237.642 185.154C236.477 185.154 235.438 185.445 234.526 186.028C233.614 186.585 232.905 187.371 232.398 188.384C231.892 189.397 231.638 190.563 231.638 191.88C231.638 193.273 232.044 194.375 232.854 195.186C233.69 195.997 234.843 196.402 236.312 196.402ZM267.033 180.252C268.629 180.252 270.098 180.619 271.441 181.354C272.809 182.089 273.885 183.153 274.671 184.546C275.481 185.914 275.887 187.535 275.887 189.41C275.887 191.665 275.38 193.704 274.367 195.528C273.379 197.327 272.023 198.745 270.301 199.784C268.578 200.797 266.665 201.304 264.563 201.304C261.447 201.304 259.243 200.291 257.951 198.264L255.937 208.372H250.009L255.557 180.556H261.181L260.763 182.57C262.46 181.025 264.55 180.252 267.033 180.252ZM263.879 196.402C265.044 196.402 266.083 196.123 266.995 195.566C267.907 194.983 268.616 194.185 269.123 193.172C269.629 192.159 269.883 190.993 269.883 189.676C269.883 188.283 269.465 187.181 268.629 186.37C267.818 185.559 266.678 185.154 265.209 185.154C264.069 185.154 263.043 185.445 262.131 186.028C261.219 186.585 260.509 187.371 260.003 188.384C259.496 189.397 259.243 190.563 259.243 191.88C259.243 193.273 259.648 194.375 260.459 195.186C261.269 195.997 262.409 196.402 263.879 196.402ZM293.269 180.252C294.865 180.252 296.334 180.619 297.677 181.354C299.045 182.089 300.122 183.153 300.907 184.546C301.718 185.914 302.123 187.535 302.123 189.41C302.123 191.665 301.616 193.704 300.603 195.528C299.615 197.327 298.26 198.745 296.537 199.784C294.814 200.797 292.902 201.304 290.799 201.304C287.683 201.304 285.479 200.291 284.187 198.264L282.173 208.372H276.245L281.793 180.556H287.417L286.999 182.57C288.696 181.025 290.786 180.252 293.269 180.252ZM290.115 196.402C291.28 196.402 292.319 196.123 293.231 195.566C294.143 194.983 294.852 194.185 295.359 193.172C295.866 192.159 296.119 190.993 296.119 189.676C296.119 188.283 295.701 187.181 294.865 186.37C294.054 185.559 292.914 185.154 291.445 185.154C290.305 185.154 289.279 185.445 288.367 186.028C287.455 186.585 286.746 187.371 286.239 188.384C285.732 189.397 285.479 190.563 285.479 191.88C285.479 193.273 285.884 194.375 286.695 195.186C287.506 195.997 288.646 196.402 290.115 196.402ZM351.889 180.556L340.603 201H334.751L332.395 188.27L325.365 201H319.589L315.979 180.556H321.375L323.617 194.312L331.293 180.556H336.385L338.703 194.312L346.303 180.556H351.889ZM354.564 180.556H360.454L356.388 201H350.498L354.564 180.556ZM358.516 177.706C357.503 177.706 356.667 177.415 356.008 176.832C355.375 176.224 355.058 175.489 355.058 174.628C355.058 173.615 355.413 172.779 356.122 172.12C356.857 171.436 357.807 171.094 358.972 171.094C360.011 171.094 360.847 171.385 361.48 171.968C362.139 172.525 362.468 173.222 362.468 174.058C362.468 175.147 362.101 176.034 361.366 176.718C360.632 177.377 359.682 177.706 358.516 177.706ZM367.515 172.804H373.443L367.819 201H361.891L367.515 172.804ZM378.945 172.804H384.873L379.249 201H373.321L378.945 172.804ZM401.136 172.804H407.064L401.44 201H395.512L401.136 172.804ZM417.62 201.304C415.568 201.304 413.756 200.924 412.186 200.164C410.64 199.404 409.437 198.34 408.576 196.972C407.74 195.579 407.322 193.97 407.322 192.146C407.322 189.891 407.854 187.865 408.918 186.066C409.982 184.267 411.451 182.849 413.326 181.81C415.2 180.771 417.316 180.252 419.672 180.252C421.749 180.252 423.56 180.632 425.106 181.392C426.651 182.152 427.842 183.229 428.678 184.622C429.539 185.99 429.97 187.586 429.97 189.41C429.97 191.665 429.438 193.691 428.374 195.49C427.335 197.289 425.866 198.707 423.966 199.746C422.091 200.785 419.976 201.304 417.62 201.304ZM418 196.402C419.14 196.402 420.166 196.123 421.078 195.566C421.99 194.983 422.699 194.185 423.206 193.172C423.712 192.159 423.966 190.993 423.966 189.676C423.966 188.283 423.56 187.181 422.75 186.37C421.939 185.559 420.799 185.154 419.33 185.154C418.164 185.154 417.126 185.445 416.214 186.028C415.302 186.585 414.592 187.371 414.086 188.384C413.579 189.397 413.326 190.563 413.326 191.88C413.326 193.273 413.731 194.375 414.542 195.186C415.378 195.997 416.53 196.402 418 196.402ZM442.483 201.304C440.431 201.304 438.62 200.924 437.049 200.164C435.504 199.404 434.3 198.34 433.439 196.972C432.603 195.579 432.185 193.97 432.185 192.146C432.185 189.891 432.717 187.865 433.781 186.066C434.845 184.267 436.314 182.849 438.189 181.81C440.064 180.771 442.179 180.252 444.535 180.252C446.612 180.252 448.424 180.632 449.969 181.392C451.514 182.152 452.705 183.229 453.541 184.622C454.402 185.99 454.833 187.586 454.833 189.41C454.833 191.665 454.301 193.691 453.237 195.49C452.198 197.289 450.729 198.707 448.829 199.746C446.954 200.785 444.839 201.304 442.483 201.304ZM442.863 196.402C444.003 196.402 445.029 196.123 445.941 195.566C446.853 194.983 447.562 194.185 448.069 193.172C448.576 192.159 448.829 190.993 448.829 189.676C448.829 188.283 448.424 187.181 447.613 186.37C446.802 185.559 445.662 185.154 444.193 185.154C443.028 185.154 441.989 185.445 441.077 186.028C440.165 186.585 439.456 187.371 438.949 188.384C438.442 189.397 438.189 190.563 438.189 191.88C438.189 193.273 438.594 194.375 439.405 195.186C440.241 195.997 441.394 196.402 442.863 196.402ZM471.906 189.448L478.936 201H472.058L467.194 193.058L463.584 196.06L462.596 201H456.668L462.292 172.804H468.22L465.066 188.574L474.87 180.556H482.584L471.906 189.448ZM80.3997 218.804H86.3277L80.7037 247H74.7757L80.3997 218.804ZM90.2714 226.556H96.1614L92.0954 247H86.2054L90.2714 226.556ZM94.2234 223.706C93.2101 223.706 92.3741 223.415 91.7154 222.832C91.0821 222.224 90.7654 221.489 90.7654 220.628C90.7654 219.615 91.1201 218.779 91.8294 218.12C92.5641 217.436 93.5141 217.094 94.6794 217.094C95.7181 217.094 96.5541 217.385 97.1874 217.968C97.8461 218.525 98.1754 219.222 98.1754 220.058C98.1754 221.147 97.8081 222.034 97.0734 222.718C96.3387 223.377 95.3887 223.706 94.2234 223.706ZM112.836 235.448L119.866 247H112.988L108.124 239.058L104.514 242.06L103.526 247H97.598L103.222 218.804H109.15L105.996 234.574L115.8 226.556H123.514L112.836 235.448ZM143.392 235.258C143.392 236.195 143.278 237.234 143.05 238.374H127.394C127.596 241.161 129.357 242.554 132.676 242.554C133.714 242.554 134.702 242.389 135.64 242.06C136.602 241.731 137.438 241.262 138.148 240.654L140.618 244.568C139.478 245.48 138.173 246.164 136.704 246.62C135.234 247.076 133.689 247.304 132.068 247.304C129.965 247.304 128.116 246.937 126.52 246.202C124.949 245.442 123.733 244.365 122.872 242.972C122.036 241.579 121.618 239.97 121.618 238.146C121.618 235.891 122.124 233.865 123.138 232.066C124.176 230.242 125.608 228.823 127.432 227.81C129.256 226.771 131.333 226.252 133.664 226.252C135.64 226.252 137.35 226.619 138.794 227.354C140.263 228.089 141.39 229.14 142.176 230.508C142.986 231.876 143.392 233.459 143.392 235.258ZM133.398 230.698C132.004 230.698 130.826 231.078 129.864 231.838C128.901 232.573 128.217 233.599 127.812 234.916H137.958C137.958 233.599 137.54 232.573 136.704 231.838C135.893 231.078 134.791 230.698 133.398 230.698ZM180.637 226.556L176.571 247H170.947L171.327 244.986C169.629 246.531 167.539 247.304 165.057 247.304C163.461 247.304 161.991 246.937 160.649 246.202C159.306 245.467 158.229 244.416 157.419 243.048C156.633 241.655 156.241 240.021 156.241 238.146C156.241 235.891 156.735 233.865 157.723 232.066C158.736 230.242 160.104 228.823 161.827 227.81C163.549 226.771 165.449 226.252 167.527 226.252C170.668 226.252 172.885 227.278 174.177 229.33L174.709 226.556H180.637ZM166.881 242.402C168.046 242.402 169.085 242.123 169.997 241.566C170.909 240.983 171.618 240.185 172.125 239.172C172.631 238.159 172.885 236.993 172.885 235.676C172.885 234.283 172.467 233.181 171.631 232.37C170.82 231.559 169.68 231.154 168.211 231.154C167.045 231.154 166.007 231.445 165.095 232.028C164.183 232.585 163.473 233.371 162.967 234.384C162.46 235.397 162.207 236.563 162.207 237.88C162.207 239.273 162.612 240.375 163.423 241.186C164.259 241.997 165.411 242.402 166.881 242.402ZM189.507 247.304C187.734 247.304 186.049 247.114 184.453 246.734C182.882 246.329 181.654 245.809 180.767 245.176L183.047 240.882C183.934 241.465 185.01 241.933 186.277 242.288C187.569 242.643 188.861 242.82 190.153 242.82C191.496 242.82 192.496 242.655 193.155 242.326C193.814 241.971 194.143 241.477 194.143 240.844C194.143 240.337 193.852 239.97 193.269 239.742C192.686 239.514 191.749 239.273 190.457 239.02C188.988 238.741 187.772 238.437 186.809 238.108C185.872 237.779 185.048 237.247 184.339 236.512C183.655 235.752 183.313 234.726 183.313 233.434C183.313 231.179 184.25 229.419 186.125 228.152C188.025 226.885 190.508 226.252 193.573 226.252C194.992 226.252 196.372 226.404 197.715 226.708C199.058 227.012 200.198 227.43 201.135 227.962L199.007 232.294C197.335 231.255 195.321 230.736 192.965 230.736C191.673 230.736 190.685 230.926 190.001 231.306C189.342 231.686 189.013 232.167 189.013 232.75C189.013 233.282 189.304 233.675 189.887 233.928C190.47 234.156 191.445 234.409 192.813 234.688C194.257 234.967 195.435 235.271 196.347 235.6C197.284 235.904 198.095 236.423 198.779 237.158C199.463 237.893 199.805 238.893 199.805 240.16C199.805 242.44 198.842 244.201 196.917 245.442C195.017 246.683 192.547 247.304 189.507 247.304ZM239.039 226.556L227.753 247H221.901L219.545 234.27L212.515 247H206.739L203.129 226.556H208.525L210.767 240.312L218.443 226.556H223.535L225.853 240.312L233.453 226.556H239.039ZM259.284 235.258C259.284 236.195 259.17 237.234 258.942 238.374H243.286C243.489 241.161 245.249 242.554 248.568 242.554C249.607 242.554 250.595 242.389 251.532 242.06C252.495 241.731 253.331 241.262 254.04 240.654L256.51 244.568C255.37 245.48 254.065 246.164 252.596 246.62C251.127 247.076 249.581 247.304 247.96 247.304C245.857 247.304 244.008 246.937 242.412 246.202C240.841 245.442 239.625 244.365 238.764 242.972C237.928 241.579 237.51 239.97 237.51 238.146C237.51 235.891 238.017 233.865 239.03 232.066C240.069 230.242 241.5 228.823 243.324 227.81C245.148 226.771 247.225 226.252 249.556 226.252C251.532 226.252 253.242 226.619 254.686 227.354C256.155 228.089 257.283 229.14 258.068 230.508C258.879 231.876 259.284 233.459 259.284 235.258ZM249.29 230.698C247.897 230.698 246.719 231.078 245.756 231.838C244.793 232.573 244.109 233.599 243.704 234.916H253.85C253.85 233.599 253.432 232.573 252.596 231.838C251.785 231.078 250.683 230.698 249.29 230.698ZM266.577 218.804H272.505L266.881 247H260.953L266.577 218.804ZM278.007 218.804H283.935L278.311 247H272.383L278.007 218.804ZM319.389 226.556L315.323 247H309.699L310.079 244.986C308.381 246.531 306.291 247.304 303.809 247.304C302.213 247.304 300.743 246.937 299.401 246.202C298.058 245.467 296.981 244.416 296.171 243.048C295.385 241.655 294.993 240.021 294.993 238.146C294.993 235.891 295.487 233.865 296.475 232.066C297.488 230.242 298.856 228.823 300.579 227.81C302.301 226.771 304.201 226.252 306.279 226.252C309.42 226.252 311.637 227.278 312.929 229.33L313.461 226.556H319.389ZM305.633 242.402C306.798 242.402 307.837 242.123 308.749 241.566C309.661 240.983 310.37 240.185 310.877 239.172C311.383 238.159 311.637 236.993 311.637 235.676C311.637 234.283 311.219 233.181 310.383 232.37C309.572 231.559 308.432 231.154 306.963 231.154C305.797 231.154 304.759 231.445 303.847 232.028C302.935 232.585 302.225 233.371 301.719 234.384C301.212 235.397 300.959 236.563 300.959 237.88C300.959 239.273 301.364 240.375 302.175 241.186C303.011 241.997 304.163 242.402 305.633 242.402ZM328.259 247.304C326.486 247.304 324.801 247.114 323.205 246.734C321.634 246.329 320.406 245.809 319.519 245.176L321.799 240.882C322.686 241.465 323.762 241.933 325.029 242.288C326.321 242.643 327.613 242.82 328.905 242.82C330.248 242.82 331.248 242.655 331.907 242.326C332.566 241.971 332.895 241.477 332.895 240.844C332.895 240.337 332.604 239.97 332.021 239.742C331.438 239.514 330.501 239.273 329.209 239.02C327.74 238.741 326.524 238.437 325.561 238.108C324.624 237.779 323.8 237.247 323.091 236.512C322.407 235.752 322.065 234.726 322.065 233.434C322.065 231.179 323.002 229.419 324.877 228.152C326.777 226.885 329.26 226.252 332.325 226.252C333.744 226.252 335.124 226.404 336.467 226.708C337.81 227.012 338.95 227.43 339.887 227.962L337.759 232.294C336.087 231.255 334.073 230.736 331.717 230.736C330.425 230.736 329.437 230.926 328.753 231.306C328.094 231.686 327.765 232.167 327.765 232.75C327.765 233.282 328.056 233.675 328.639 233.928C329.222 234.156 330.197 234.409 331.565 234.688C333.009 234.967 334.187 235.271 335.099 235.6C336.036 235.904 336.847 236.423 337.531 237.158C338.215 237.893 338.557 238.893 338.557 240.16C338.557 242.44 337.594 244.201 335.669 245.442C333.769 246.683 331.299 247.304 328.259 247.304ZM355.826 226.556H361.716L357.65 247H351.76L355.826 226.556ZM359.778 223.706C358.765 223.706 357.929 223.415 357.27 222.832C356.637 222.224 356.32 221.489 356.32 220.628C356.32 219.615 356.675 218.779 357.384 218.12C358.119 217.436 359.069 217.094 360.234 217.094C361.273 217.094 362.109 217.385 362.742 217.968C363.401 218.525 363.73 219.222 363.73 220.058C363.73 221.147 363.363 222.034 362.628 222.718C361.893 223.377 360.943 223.706 359.778 223.706ZM373.945 247.304C371.842 247.304 370.005 246.924 368.435 246.164C366.864 245.404 365.648 244.34 364.787 242.972C363.951 241.579 363.533 239.97 363.533 238.146C363.533 235.891 364.065 233.865 365.129 232.066C366.193 230.267 367.675 228.849 369.575 227.81C371.475 226.771 373.615 226.252 375.997 226.252C378.175 226.252 380.05 226.708 381.621 227.62C383.217 228.507 384.407 229.773 385.193 231.42L380.177 233.928C379.29 232.079 377.77 231.154 375.617 231.154C374.451 231.154 373.4 231.445 372.463 232.028C371.551 232.585 370.829 233.371 370.297 234.384C369.79 235.397 369.537 236.55 369.537 237.842C369.537 239.235 369.955 240.35 370.791 241.186C371.627 241.997 372.792 242.402 374.287 242.402C376.465 242.402 378.137 241.49 379.303 239.666L383.673 242.402C382.685 243.947 381.329 245.151 379.607 246.012C377.909 246.873 376.022 247.304 373.945 247.304ZM396.022 247.304C393.97 247.304 392.159 246.924 390.588 246.164C389.043 245.404 387.839 244.34 386.978 242.972C386.142 241.579 385.724 239.97 385.724 238.146C385.724 235.891 386.256 233.865 387.32 232.066C388.384 230.267 389.853 228.849 391.728 227.81C393.603 226.771 395.718 226.252 398.074 226.252C400.151 226.252 401.963 226.632 403.508 227.392C405.053 228.152 406.244 229.229 407.08 230.622C407.941 231.99 408.372 233.586 408.372 235.41C408.372 237.665 407.84 239.691 406.776 241.49C405.737 243.289 404.268 244.707 402.368 245.746C400.493 246.785 398.378 247.304 396.022 247.304ZM396.402 242.402C397.542 242.402 398.568 242.123 399.48 241.566C400.392 240.983 401.101 240.185 401.608 239.172C402.115 238.159 402.368 236.993 402.368 235.676C402.368 234.283 401.963 233.181 401.152 232.37C400.341 231.559 399.201 231.154 397.732 231.154C396.567 231.154 395.528 231.445 394.616 232.028C393.704 232.585 392.995 233.371 392.488 234.384C391.981 235.397 391.728 236.563 391.728 237.88C391.728 239.273 392.133 240.375 392.944 241.186C393.78 241.997 394.933 242.402 396.402 242.402ZM426.167 226.252C428.447 226.252 430.259 226.86 431.601 228.076C432.944 229.267 433.615 230.977 433.615 233.206C433.615 234.042 433.527 234.865 433.349 235.676L431.069 247H425.141L427.345 236.056C427.447 235.625 427.497 235.157 427.497 234.65C427.497 233.586 427.206 232.775 426.623 232.218C426.041 231.661 425.167 231.382 424.001 231.382C422.481 231.382 421.215 231.825 420.201 232.712C419.213 233.573 418.542 234.878 418.187 236.626L416.135 247H410.207L414.273 226.556H419.897L419.441 228.76C421.265 227.088 423.507 226.252 426.167 226.252ZM443.929 247.304C442.155 247.304 440.471 247.114 438.875 246.734C437.304 246.329 436.075 245.809 435.189 245.176L437.469 240.882C438.355 241.465 439.432 241.933 440.699 242.288C441.991 242.643 443.283 242.82 444.575 242.82C445.917 242.82 446.918 242.655 447.577 242.326C448.235 241.971 448.565 241.477 448.565 240.844C448.565 240.337 448.273 239.97 447.691 239.742C447.108 239.514 446.171 239.273 444.879 239.02C443.409 238.741 442.193 238.437 441.231 238.108C440.293 237.779 439.47 237.247 438.761 236.512C438.077 235.752 437.735 234.726 437.735 233.434C437.735 231.179 438.672 229.419 440.547 228.152C442.447 226.885 444.929 226.252 447.995 226.252C449.413 226.252 450.794 226.404 452.137 226.708C453.479 227.012 454.619 227.43 455.557 227.962L453.429 232.294C451.757 231.255 449.743 230.736 447.387 230.736C446.095 230.736 445.107 230.926 444.423 231.306C443.764 231.686 443.435 232.167 443.435 232.75C443.435 233.282 443.726 233.675 444.309 233.928C444.891 234.156 445.867 234.409 447.235 234.688C448.679 234.967 449.857 235.271 450.769 235.6C451.706 235.904 452.517 236.423 453.201 237.158C453.885 237.893 454.227 238.893 454.227 240.16C454.227 242.44 453.264 244.201 451.339 245.442C449.439 246.683 446.969 247.304 443.929 247.304ZM129.199 264.804H135.127L129.503 293H123.575L129.199 264.804ZM145.682 293.304C143.63 293.304 141.819 292.924 140.248 292.164C138.703 291.404 137.5 290.34 136.638 288.972C135.802 287.579 135.384 285.97 135.384 284.146C135.384 281.891 135.916 279.865 136.98 278.066C138.044 276.267 139.514 274.849 141.388 273.81C143.263 272.771 145.378 272.252 147.734 272.252C149.812 272.252 151.623 272.632 153.168 273.392C154.714 274.152 155.904 275.229 156.74 276.622C157.602 277.99 158.032 279.586 158.032 281.41C158.032 283.665 157.5 285.691 156.436 287.49C155.398 289.289 153.928 290.707 152.028 291.746C150.154 292.785 148.038 293.304 145.682 293.304ZM146.062 288.402C147.202 288.402 148.228 288.123 149.14 287.566C150.052 286.983 150.762 286.185 151.268 285.172C151.775 284.159 152.028 282.993 152.028 281.676C152.028 280.283 151.623 279.181 150.812 278.37C150.002 277.559 148.862 277.154 147.392 277.154C146.227 277.154 145.188 277.445 144.276 278.028C143.364 278.585 142.655 279.371 142.148 280.384C141.642 281.397 141.388 282.563 141.388 283.88C141.388 285.273 141.794 286.375 142.604 287.186C143.44 287.997 144.593 288.402 146.062 288.402ZM185.024 272.556L181.642 289.58C180.882 293.431 179.412 296.243 177.234 298.016C175.08 299.789 172.192 300.676 168.57 300.676C166.594 300.676 164.77 300.448 163.098 299.992C161.451 299.536 160.032 298.865 158.842 297.978L161.654 293.684C162.464 294.368 163.503 294.9 164.77 295.28C166.062 295.685 167.417 295.888 168.836 295.888C170.837 295.888 172.357 295.445 173.396 294.558C174.434 293.697 175.144 292.379 175.524 290.606L175.676 289.732C174.029 291.252 171.952 292.012 169.444 292.012C167.746 292.012 166.214 291.67 164.846 290.986C163.478 290.277 162.388 289.276 161.578 287.984C160.792 286.692 160.4 285.172 160.4 283.424C160.4 281.347 160.894 279.459 161.882 277.762C162.87 276.065 164.225 274.722 165.948 273.734C167.696 272.746 169.646 272.252 171.8 272.252C173.396 272.252 174.789 272.556 175.98 273.164C177.196 273.747 178.108 274.659 178.716 275.9L179.362 272.556H185.024ZM171.04 287.148C172.762 287.148 174.181 286.591 175.296 285.476C176.41 284.361 176.968 282.93 176.968 281.182C176.968 279.941 176.562 278.965 175.752 278.256C174.941 277.521 173.814 277.154 172.37 277.154C170.622 277.154 169.178 277.711 168.038 278.826C166.923 279.941 166.366 281.372 166.366 283.12C166.366 284.361 166.784 285.349 167.62 286.084C168.456 286.793 169.596 287.148 171.04 287.148ZM197.153 293.304C195.101 293.304 193.29 292.924 191.719 292.164C190.174 291.404 188.97 290.34 188.109 288.972C187.273 287.579 186.855 285.97 186.855 284.146C186.855 281.891 187.387 279.865 188.451 278.066C189.515 276.267 190.984 274.849 192.859 273.81C194.734 272.771 196.849 272.252 199.205 272.252C201.282 272.252 203.094 272.632 204.639 273.392C206.184 274.152 207.375 275.229 208.211 276.622C209.072 277.99 209.503 279.586 209.503 281.41C209.503 283.665 208.971 285.691 207.907 287.49C206.868 289.289 205.399 290.707 203.499 291.746C201.624 292.785 199.509 293.304 197.153 293.304ZM197.533 288.402C198.673 288.402 199.699 288.123 200.611 287.566C201.523 286.983 202.232 286.185 202.739 285.172C203.246 284.159 203.499 282.993 203.499 281.676C203.499 280.283 203.094 279.181 202.283 278.37C201.472 277.559 200.332 277.154 198.863 277.154C197.698 277.154 196.659 277.445 195.747 278.028C194.835 278.585 194.126 279.371 193.619 280.384C193.112 281.397 192.859 282.563 192.859 283.88C192.859 285.273 193.264 286.375 194.075 287.186C194.911 287.997 196.064 288.402 197.533 288.402ZM218.786 293.304C217.013 293.304 215.328 293.114 213.732 292.734C212.162 292.329 210.933 291.809 210.046 291.176L212.326 286.882C213.213 287.465 214.29 287.933 215.556 288.288C216.848 288.643 218.14 288.82 219.432 288.82C220.775 288.82 221.776 288.655 222.434 288.326C223.093 287.971 223.422 287.477 223.422 286.844C223.422 286.337 223.131 285.97 222.548 285.742C221.966 285.514 221.028 285.273 219.736 285.02C218.267 284.741 217.051 284.437 216.088 284.108C215.151 283.779 214.328 283.247 213.618 282.512C212.934 281.752 212.592 280.726 212.592 279.434C212.592 277.179 213.53 275.419 215.404 274.152C217.304 272.885 219.787 272.252 222.852 272.252C224.271 272.252 225.652 272.404 226.994 272.708C228.337 273.012 229.477 273.43 230.414 273.962L228.286 278.294C226.614 277.255 224.6 276.736 222.244 276.736C220.952 276.736 219.964 276.926 219.28 277.306C218.622 277.686 218.292 278.167 218.292 278.75C218.292 279.282 218.584 279.675 219.166 279.928C219.749 280.156 220.724 280.409 222.092 280.688C223.536 280.967 224.714 281.271 225.626 281.6C226.564 281.904 227.374 282.423 228.058 283.158C228.742 283.893 229.084 284.893 229.084 286.16C229.084 288.44 228.122 290.201 226.196 291.442C224.296 292.683 221.826 293.304 218.786 293.304ZM257.829 272.252C259.425 272.252 260.895 272.619 262.237 273.354C263.605 274.089 264.682 275.153 265.467 276.546C266.278 277.914 266.683 279.535 266.683 281.41C266.683 283.665 266.177 285.704 265.163 287.528C264.175 289.327 262.82 290.745 261.097 291.784C259.375 292.797 257.462 293.304 255.359 293.304C253.763 293.304 252.383 293.025 251.217 292.468C250.052 291.911 249.153 291.075 248.519 289.96L247.911 293H242.287L247.911 264.804H253.839L251.939 274.304C253.586 272.936 255.549 272.252 257.829 272.252ZM254.675 288.402C255.841 288.402 256.879 288.123 257.791 287.566C258.703 286.983 259.413 286.185 259.919 285.172C260.426 284.159 260.679 282.993 260.679 281.676C260.679 280.283 260.261 279.181 259.425 278.37C258.615 277.559 257.475 277.154 256.005 277.154C254.865 277.154 253.839 277.445 252.927 278.028C252.015 278.585 251.306 279.371 250.799 280.384C250.293 281.397 250.039 282.563 250.039 283.88C250.039 285.273 250.445 286.375 251.255 287.186C252.066 287.997 253.206 288.402 254.675 288.402ZM293.338 272.556L289.272 293H283.648L284.028 290.986C282.33 292.531 280.24 293.304 277.758 293.304C276.162 293.304 274.692 292.937 273.35 292.202C272.007 291.467 270.93 290.416 270.12 289.048C269.334 287.655 268.942 286.021 268.942 284.146C268.942 281.891 269.436 279.865 270.424 278.066C271.437 276.242 272.805 274.823 274.528 273.81C276.25 272.771 278.15 272.252 280.228 272.252C283.369 272.252 285.586 273.278 286.878 275.33L287.41 272.556H293.338ZM279.582 288.402C280.747 288.402 281.786 288.123 282.698 287.566C283.61 286.983 284.319 286.185 284.826 285.172C285.332 284.159 285.586 282.993 285.586 281.676C285.586 280.283 285.168 279.181 284.332 278.37C283.521 277.559 282.381 277.154 280.912 277.154C279.746 277.154 278.708 277.445 277.796 278.028C276.884 278.585 276.174 279.371 275.668 280.384C275.161 281.397 274.908 282.563 274.908 283.88C274.908 285.273 275.313 286.375 276.124 287.186C276.96 287.997 278.112 288.402 279.582 288.402ZM310.72 272.252C313 272.252 314.811 272.86 316.154 274.076C317.497 275.267 318.168 276.977 318.168 279.206C318.168 280.042 318.079 280.865 317.902 281.676L315.622 293H309.694L311.898 282.056C311.999 281.625 312.05 281.157 312.05 280.65C312.05 279.586 311.759 278.775 311.176 278.218C310.593 277.661 309.719 277.382 308.554 277.382C307.034 277.382 305.767 277.825 304.754 278.712C303.766 279.573 303.095 280.878 302.74 282.626L300.688 293H294.76L298.826 272.556H304.45L303.994 274.76C305.818 273.088 308.06 272.252 310.72 272.252ZM336.994 272.252C339.274 272.252 341.085 272.86 342.428 274.076C343.77 275.267 344.442 276.977 344.442 279.206C344.442 280.042 344.353 280.865 344.176 281.676L341.896 293H335.968L338.172 282.056C338.273 281.625 338.324 281.157 338.324 280.65C338.324 279.586 338.032 278.775 337.45 278.218C336.867 277.661 335.993 277.382 334.828 277.382C333.308 277.382 332.041 277.825 331.028 278.712C330.04 279.573 329.368 280.878 329.014 282.626L326.962 293H321.034L325.1 272.556H330.724L330.268 274.76C332.092 273.088 334.334 272.252 336.994 272.252ZM369.722 281.258C369.722 282.195 369.608 283.234 369.38 284.374H353.724C353.926 287.161 355.687 288.554 359.006 288.554C360.044 288.554 361.032 288.389 361.97 288.06C362.932 287.731 363.768 287.262 364.478 286.654L366.948 290.568C365.808 291.48 364.503 292.164 363.034 292.62C361.564 293.076 360.019 293.304 358.398 293.304C356.295 293.304 354.446 292.937 352.85 292.202C351.279 291.442 350.063 290.365 349.202 288.972C348.366 287.579 347.948 285.97 347.948 284.146C347.948 281.891 348.454 279.865 349.468 278.066C350.506 276.242 351.938 274.823 353.762 273.81C355.586 272.771 357.663 272.252 359.994 272.252C361.97 272.252 363.68 272.619 365.124 273.354C366.593 274.089 367.72 275.14 368.506 276.508C369.316 277.876 369.722 279.459 369.722 281.258ZM359.728 276.698C358.334 276.698 357.156 277.078 356.194 277.838C355.231 278.573 354.547 279.599 354.142 280.916H364.288C364.288 279.599 363.87 278.573 363.034 277.838C362.223 277.078 361.121 276.698 359.728 276.698ZM380.587 274.988C381.474 274.025 382.538 273.329 383.779 272.898C385.046 272.467 386.528 272.252 388.225 272.252L387.161 277.724C386.452 277.673 385.996 277.648 385.793 277.648C383.994 277.648 382.55 278.091 381.461 278.978C380.397 279.865 379.675 281.245 379.295 283.12L377.319 293H371.391L375.457 272.556H381.081L380.587 274.988ZM395.13 293.304C393.357 293.304 391.672 293.114 390.076 292.734C388.505 292.329 387.277 291.809 386.39 291.176L388.67 286.882C389.557 287.465 390.633 287.933 391.9 288.288C393.192 288.643 394.484 288.82 395.776 288.82C397.119 288.82 398.119 288.655 398.778 288.326C399.437 287.971 399.766 287.477 399.766 286.844C399.766 286.337 399.475 285.97 398.892 285.742C398.309 285.514 397.372 285.273 396.08 285.02C394.611 284.741 393.395 284.437 392.432 284.108C391.495 283.779 390.671 283.247 389.962 282.512C389.278 281.752 388.936 280.726 388.936 279.434C388.936 277.179 389.873 275.419 391.748 274.152C393.648 272.885 396.131 272.252 399.196 272.252C400.615 272.252 401.995 272.404 403.338 272.708C404.681 273.012 405.821 273.43 406.758 273.962L404.63 278.294C402.958 277.255 400.944 276.736 398.588 276.736C397.296 276.736 396.308 276.926 395.624 277.306C394.965 277.686 394.636 278.167 394.636 278.75C394.636 279.282 394.927 279.675 395.51 279.928C396.093 280.156 397.068 280.409 398.436 280.688C399.88 280.967 401.058 281.271 401.97 281.6C402.907 281.904 403.718 282.423 404.402 283.158C405.086 283.893 405.428 284.893 405.428 286.16C405.428 288.44 404.465 290.201 402.54 291.442C400.64 292.683 398.17 293.304 395.13 293.304Z" fill="black"/>
<path d="M165.337 49L182.917 49C187.197 49 190.877 49.72 193.957 51.16C197.077 52.56 199.457 54.58 201.097 57.22C202.777 59.86 203.617 62.96 203.617 66.52C203.617 71.4 202.517 75.7 200.317 79.42C198.117 83.1 195.037 85.96 191.077 88C187.157 90 182.617 91 177.457 91H156.937L165.337 49ZM177.757 83.02C181.037 83.02 183.877 82.34 186.277 80.98C188.717 79.58 190.577 77.68 191.857 75.28C193.137 72.84 193.777 70.1 193.777 67.06C193.777 63.9 192.757 61.44 190.717 59.68C188.677 57.88 185.717 56.98 181.837 56.98H173.497L168.277 83.02H177.757ZM240.948 72.46C240.948 73.94 240.768 75.58 240.408 77.38H215.688C216.008 81.78 218.788 83.98 224.028 83.98C225.668 83.98 227.228 83.72 228.708 83.2C230.228 82.68 231.548 81.94 232.668 80.98L236.568 87.16C234.768 88.6 232.708 89.68 230.388 90.4C228.068 91.12 225.628 91.48 223.068 91.48C219.748 91.48 216.828 90.9 214.308 89.74C211.828 88.54 209.908 86.84 208.548 84.64C207.228 82.44 206.568 79.9 206.568 77.02C206.568 73.46 207.368 70.26 208.968 67.42C210.608 64.54 212.868 62.3 215.748 60.7C218.628 59.06 221.908 58.24 225.588 58.24C228.708 58.24 231.408 58.82 233.688 59.98C236.008 61.14 237.788 62.8 239.028 64.96C240.308 67.12 240.948 69.62 240.948 72.46ZM225.168 65.26C222.968 65.26 221.108 65.86 219.588 67.06C218.068 68.22 216.988 69.84 216.348 71.92H232.368C232.368 69.84 231.708 68.22 230.388 67.06C229.108 65.86 227.368 65.26 225.168 65.26ZM255.343 91.48C252.543 91.48 249.883 91.18 247.363 90.58C244.883 89.94 242.943 89.12 241.543 88.12L245.143 81.34C246.543 82.26 248.243 83 250.243 83.56C252.283 84.12 254.323 84.4 256.363 84.4C258.483 84.4 260.063 84.14 261.103 83.62C262.143 83.06 262.663 82.28 262.663 81.28C262.663 80.48 262.203 79.9 261.283 79.54C260.363 79.18 258.883 78.8 256.843 78.4C254.523 77.96 252.603 77.48 251.083 76.96C249.603 76.44 248.303 75.6 247.183 74.44C246.103 73.24 245.563 71.62 245.563 69.58C245.563 66.02 247.043 63.24 250.003 61.24C253.003 59.24 256.923 58.24 261.763 58.24C264.003 58.24 266.183 58.48 268.303 58.96C270.423 59.44 272.223 60.1 273.703 60.94L270.343 67.78C267.703 66.14 264.523 65.32 260.803 65.32C258.763 65.32 257.203 65.62 256.123 66.22C255.083 66.82 254.563 67.58 254.563 68.5C254.563 69.34 255.023 69.96 255.943 70.36C256.863 70.72 258.403 71.12 260.563 71.56C262.843 72 264.703 72.48 266.143 73C267.623 73.48 268.903 74.3 269.983 75.46C271.063 76.62 271.603 78.2 271.603 80.2C271.603 83.8 270.083 86.58 267.043 88.54C264.043 90.5 260.143 91.48 255.343 91.48ZM281.878 58.72H291.178L284.758 91H275.458L281.878 58.72ZM288.118 54.22C286.518 54.22 285.198 53.76 284.158 52.84C283.158 51.88 282.658 50.72 282.658 49.36C282.658 47.76 283.218 46.44 284.338 45.4C285.498 44.32 286.998 43.78 288.838 43.78C290.478 43.78 291.798 44.24 292.798 45.16C293.838 46.04 294.358 47.14 294.358 48.46C294.358 50.18 293.778 51.58 292.618 52.66C291.458 53.7 289.958 54.22 288.118 54.22ZM333.167 58.72L327.827 85.6C326.627 91.68 324.307 96.12 320.867 98.92C317.467 101.72 312.907 103.12 307.187 103.12C304.067 103.12 301.187 102.76 298.547 102.04C295.947 101.32 293.707 100.26 291.827 98.86L296.267 92.08C297.547 93.16 299.187 94 301.187 94.6C303.227 95.24 305.367 95.56 307.607 95.56C310.767 95.56 313.167 94.86 314.807 93.46C316.447 92.1 317.567 90.02 318.167 87.22L318.407 85.84C315.807 88.24 312.527 89.44 308.567 89.44C305.887 89.44 303.467 88.9 301.307 87.82C299.147 86.7 297.427 85.12 296.147 83.08C294.907 81.04 294.287 78.64 294.287 75.88C294.287 72.6 295.067 69.62 296.627 66.94C298.187 64.26 300.327 62.14 303.047 60.58C305.807 59.02 308.887 58.24 312.287 58.24C314.807 58.24 317.007 58.72 318.887 59.68C320.807 60.6 322.247 62.04 323.207 64L324.227 58.72H333.167ZM311.087 81.76C313.807 81.76 316.047 80.88 317.807 79.12C319.567 77.36 320.447 75.1 320.447 72.34C320.447 70.38 319.807 68.84 318.527 67.72C317.247 66.56 315.467 65.98 313.187 65.98C310.427 65.98 308.147 66.86 306.347 68.62C304.587 70.38 303.707 72.64 303.707 75.4C303.707 77.36 304.367 78.92 305.687 80.08C307.007 81.2 308.807 81.76 311.087 81.76ZM360.658 58.24C364.258 58.24 367.118 59.2 369.238 61.12C371.358 63 372.418 65.7 372.418 69.22C372.418 70.54 372.278 71.84 371.998 73.12L368.398 91H359.038L362.518 73.72C362.678 73.04 362.758 72.3 362.758 71.5C362.758 69.82 362.298 68.54 361.378 67.66C360.458 66.78 359.078 66.34 357.238 66.34C354.838 66.34 352.838 67.04 351.238 68.44C349.678 69.8 348.618 71.86 348.058 74.62L344.818 91H335.458L341.878 58.72H350.758L350.038 62.2C352.918 59.56 356.458 58.24 360.658 58.24Z" fill="black"/>
<path d="M153.545 579.145L146.297 620.84L146.202 621.388L188.994 628.827L191.473 614.563L205.189 616.947L207.764 602.134L222.577 604.709L224.961 590.993L239.225 593.473L241.704 579.209L255.968 581.688L258.543 566.876L271.71 569.164L273.999 555.997L288.263 558.477L290.743 544.213L305.555 546.788L308.035 532.524L321.75 534.908L324.23 520.644L324.779 520.739L338.494 523.123L340.974 508.859L355.238 511.338L357.622 497.623L370.789 499.912L373.364 485.099L375.558 485.48L387.079 487.483L391.752 460.601L378.036 458.216L380.516 443.952L352.536 439.089L350.057 453.353L336.89 451.064L334.696 463.682L319.884 461.107L317.309 475.92L302.496 473.345L300.017 487.61L286.85 485.321L284.466 499.036L269.653 496.461L267.078 511.274L253.362 508.89L250.883 523.154L236.619 520.675L234.139 534.939L220.424 532.555L217.944 546.819L204.229 544.435L201.749 558.699L187.485 556.219L185.101 569.935L170.837 567.455L168.357 581.72L153.545 579.145Z" fill="#393939"/>
<path d="M352.536 439.089L350.057 453.353L347.768 466.52L361.484 468.904L359.099 482.619L373.364 485.099L375.558 485.48L387.079 487.483L391.752 460.601L378.036 458.216L380.516 443.952L352.536 439.089Z" fill="#007AE0"/>
<path d="M370.788 499.911L373.363 485.099L359.099 482.619L361.483 468.904L347.768 466.52L347.863 465.971L350.056 453.353L336.89 451.064L334.696 463.682L332.217 477.946L345.932 480.33L343.357 495.143L357.621 497.623L370.788 499.911Z" fill="white"/>
<path d="M165.592 597.629L168.453 581.171L153.092 578.501L145.653 621.293L188.994 628.827L191.474 614.563L175.015 611.702L177.113 599.632L165.592 597.629Z" fill="white"/>
<path d="M148.037 607.578L162.301 610.057L159.821 624.321L145.557 621.842L148.037 607.578Z" fill="#007AE0"/>
</svg>
