<svg  viewBox="0 0 545 346" fill="none" xmlns="http://www.w3.org/2000/svg">
<path d="M477 316.5H446.5V346H477H519V324.5H545V285V224V166.5H519V142.5V103H496.5V59H465V28H446.5H413.5V0H28.5V28H0V198H28.5V224H413.5H446.5V252H477V269.5V296V316.5Z" fill="#F9CC14"/>
<path d="M81.6836 89.5391H90.6445V94.0195H86.1641V98.5H68.2422V94.0195H63.7617V71.6172H68.2422V67.1367H86.1641V71.6172H90.6445V76.0977H81.6836V71.6172H72.7227V94.0195H81.6836V89.5391ZM117.527 92.8994V98.5H95.125V67.1367H104.086V92.8994H117.527ZM122.008 98.5V67.1367H130.969V98.5H122.008ZM153.371 89.5391H162.332V94.0195H157.852V98.5H139.93V94.0195H135.449V71.6172H139.93V67.1367H157.852V71.6172H162.332V76.0977H153.371V71.6172H144.41V94.0195H153.371V89.5391ZM175.773 98.5H166.812V67.1367H175.773V80.5781H180.254V76.0977H184.734V67.1367H193.695V76.0977H189.215V80.5781H184.734V85.0586H189.215V89.5391H193.695V98.5H184.734V89.5391H180.254V85.0586H175.773V98.5ZM234.02 67.1367H242.98V98.5H234.02V85.0586H225.059V98.5H216.098V67.1367H225.059V80.5781H234.02V67.1367ZM247.461 98.5V67.1367H269.863V71.6172H256.422V80.5781H269.863V85.0586H256.422V94.0195H269.863V98.5H247.461ZM292.266 71.6172H283.305V80.5781H292.266V71.6172ZM296.746 85.0586H301.227V98.5H292.266V85.0586H283.305V98.5H274.344V67.1367H296.746V71.6172H301.227V80.5781H296.746V85.0586ZM305.707 98.5V67.1367H328.109V71.6172H314.668V80.5781H328.109V85.0586H314.668V94.0195H328.109V98.5H305.707ZM377.395 67.1367V71.6172H368.434V98.5H359.473V71.6172H350.512V67.1367H377.395ZM399.797 71.6172H390.836V94.0195H399.797V71.6172ZM386.355 94.0195H381.875V71.6172H386.355V67.1367H404.277V71.6172H408.758V94.0195H404.277V98.5H386.355V94.0195ZM77.2031 134.578V121.137H81.6836V152.5H72.7227V143.539H59.2813V152.5H50.3203V121.137H59.2813V134.578H63.7617V125.617H72.7227V134.578H77.2031ZM104.086 139.059V125.617H95.125V139.059H104.086ZM95.125 143.539V152.5H86.1641V125.617H90.6445V121.137H108.566V125.617H113.047V152.5H104.086V143.539H95.125ZM144.41 121.137V125.617H135.449V152.5H126.488V125.617H117.527V121.137H144.41ZM166.813 143.539H175.773V148.02H171.293V152.5H153.371V148.02H148.891V125.617H153.371V121.137H171.293V125.617H175.773V130.098H166.813V125.617H157.852V148.02H166.813V143.539ZM198.176 121.137H207.137V152.5H198.176V139.059H189.215V152.5H180.254V121.137H189.215V134.578H198.176V121.137ZM247.461 139.059V125.617H238.5V139.059H247.461ZM238.5 143.539V152.5H229.539V125.617H234.02V121.137H251.941V125.617H256.422V152.5H247.461V143.539H238.5ZM296.746 143.539V121.137H305.707V143.539H301.227V148.02H296.746V152.5H287.785V148.02H283.305V143.539H278.824V121.137H287.785V143.539H296.746ZM310.188 152.5V121.137H319.148V152.5H310.188ZM341.551 125.617H332.59V148.02H341.551V125.617ZM323.629 152.5V121.137H346.031V125.617H350.512V148.02H346.031V152.5H323.629ZM354.992 152.5V121.137H377.395V125.617H363.953V134.578H377.395V139.059H363.953V148.02H377.395V152.5H354.992ZM399.797 125.617H390.836V148.02H399.797V125.617ZM386.355 148.02H381.875V125.617H386.355V121.137H404.277V125.617H408.758V148.02H404.277V152.5H386.355V148.02ZM413.238 152.5V146.899H417.719V152.5H413.238ZM413.238 121.137H422.199V137.938H417.719V142.419H413.238V121.137Z" fill="black"/>
</svg>
