<svg  viewBox="0 0 468 428" fill="none" xmlns="http://www.w3.org/2000/svg">
<rect x="140.778" y="28.0437" width="277.475" height="252.992" fill="white"/>
<path d="M95.8913 310.619V426.913H1.01953L1.01953 310.619H39.7844V293.276H20.4019V271.854H1.01953L1.01953 78.0297H20.4019L20.4019 56.607H39.7844V0.5L118.334 0.5L118.334 293.276H136.696V310.619H95.8913Z" fill="#292929"/>
<path fill-rule="evenodd" clip-rule="evenodd" d="M118.334 293.276L118.334 0.5L448.855 0.5V293.276H118.334ZM390.529 272.803V255.4H409.971V59.8747H390.529V40.4246L157.219 40.4246V272.803H390.529Z" fill="#393939"/>
<path d="M95.8916 427.933V309.598H467.218V427.933H95.8916Z" fill="#393939"/>
<rect x="136.698" y="291.237" width="273.394" height="20.4025" fill="#393939"/>
<rect y="111.694" width="63.2479" height="26.5233" fill="#AEAEAE"/>
<rect y="111.694" width="63.2479" height="26.5233" fill="#363636"/>
<rect y="158.62" width="63.2479" height="26.5233" fill="#AEAEAE"/>
<rect y="158.62" width="63.2479" height="26.5233" fill="#363636"/>
<rect y="205.546" width="63.2479" height="26.5233" fill="#AEAEAE"/>
<rect y="205.546" width="63.2479" height="26.5233" fill="#363636"/>
<path d="M131.182 388.4H148.253V372.227H131.182V388.4Z" fill="#F9CC14"/>
<path d="M167.122 388.4H184.193V372.227H167.122V388.4Z" fill="#F9CC14"/>
<path d="M184.193 404.573H200.366V388.4H184.193V404.573Z" fill="#F9CC14"/>
<path d="M199.467 388.4H216.539V372.227H199.467V388.4Z" fill="#F9CC14"/>
<path d="M183.294 372.227H200.366V356.054H183.294V372.227Z" fill="#F9CC14"/>
<path d="M149.152 372.227H166.223V356.054H149.152V372.227Z" fill="#F9CC14"/>
<path d="M167.122 356.054H184.193V339.881H167.122V356.054Z" fill="#F9CC14"/>
<path d="M201.264 356.054H218.336V339.881H201.264V356.054Z" fill="#F9CC14"/>
<path d="M131.182 356.054H148.253V339.881H131.182V356.054Z" fill="#F9CC14"/>
<rect x="149.149" y="388.399" width="17.9699" height="16.1729" fill="#F7CA13"/>
<rect x="291.112" y="339.881" width="147.353" height="21.5639" fill="#F9CC14"/>
<rect x="240" y="78" width="27" height="74" fill="#8C8C8C"/>
<rect x="300.988" y="78" width="27.1978" height="74.1758" fill="#8C8C8C"/>
<rect x="226" y="212" width="123" height="23" fill="#8C8C8C"/>
<rect x="202" y="189" width="24" height="23" fill="#8C8C8C"/>
</svg>
