<svg width="601" height="382" viewBox="0 0 601 382" fill="none" xmlns="http://www.w3.org/2000/svg">
<rect y="16.5" width="348.459" height="357.5"/>
<rect width="369" height="382" fill="url(#paint0_linear)"/>
<path d="M383.746 111.115V72.6299L365.87 93.6523L383.746 114.675V111.115Z" fill="#007AE0"/>
<path d="M383.746 186.219V147.734L365.87 168.757L383.746 189.779V186.219Z" fill="#007AE0"/>
<path d="M383.89 142.615V120.27L373.511 132.476L383.89 144.683V142.615Z" fill="#007AE0"/>
<path d="M369.763 127.018V104.672L380.142 116.878L369.763 129.085V127.018Z" fill="#007AE0"/>
<path d="M364.861 132.03V97.8901L349.003 116.539L364.861 135.188V132.03Z" fill="#007AE0"/>
<path d="M359.52 169.803L380.047 145.663H357.621V172.036L359.52 169.803Z" fill="#007AE0"/>
<path d="M383.425 351H600.102V100.847V63H554.529H383.425V351Z" fill="#007AE0"/>
<path fill-rule="evenodd" clip-rule="evenodd" d="M417.616 295.748L417.52 296.134L416.72 295.936L415.919 295.737L415.824 296.123L415.728 296.509L415.328 296.41L414.927 296.311L414.832 296.697L414.736 297.083L414.336 296.983L413.935 296.884L413.84 297.27L413.744 297.656L413.344 297.557L412.943 297.458L412.848 297.844L412.752 298.23L412.352 298.13L411.951 298.031L411.856 298.417L411.76 298.803L411.36 298.704L410.959 298.604L410.768 299.376L410.577 300.148L410.176 300.049L409.776 299.95L409.585 300.722L409.393 301.494L408.993 301.395L408.593 301.295L407.731 304.769L406.87 308.243L407.27 308.342L407.67 308.442L407.479 309.213L407.288 309.985L407.688 310.085L408.088 310.184L407.992 310.57L407.897 310.956L408.297 311.055L408.697 311.154L408.602 311.54L408.506 311.926L408.906 312.026L409.306 312.125L409.211 312.511L409.115 312.897L409.515 312.996L409.915 313.095L409.82 313.481L409.724 313.867L410.124 313.967L410.525 314.066L410.429 314.452L410.333 314.838L410.733 314.937L411.134 315.036L411.038 315.422L410.942 315.808L411.743 316.007L412.543 316.205L412.448 316.591L412.352 316.977L413.153 317.176L413.953 317.374L414.336 315.83L414.719 314.286L413.118 313.889L411.517 313.492L411.612 313.106L411.708 312.72L411.308 312.621L410.907 312.522L411.003 312.136L411.099 311.75L410.699 311.651L410.298 311.551L410.394 311.165L410.49 310.779L410.089 310.68L409.689 310.581L409.785 310.195L409.881 309.809L410.681 310.008L411.482 310.206L411.386 310.592L411.29 310.978L411.691 311.077L412.091 311.176L411.995 311.562L411.899 311.948L412.3 312.048L412.7 312.147L412.604 312.533L412.509 312.919L413.309 313.117L414.11 313.316L414.205 312.93L414.301 312.544L414.701 312.643L415.102 312.743L415.197 312.357L415.293 311.971L415.693 312.07L416.094 312.169L416.189 311.783L416.285 311.397L414.684 311L413.083 310.603L413.179 310.217L413.274 309.831L412.874 309.732L412.474 309.633L412.569 309.247L412.665 308.861L412.265 308.761L411.865 308.662L411.96 308.276L412.056 307.89L411.656 307.791L411.255 307.692L411.83 305.376L412.404 303.06L412.804 303.159L413.205 303.258L413.3 302.872L413.396 302.486L413.796 302.586L414.197 302.685L414.292 302.299L414.388 301.913L413.988 301.814L413.587 301.714L413.875 300.556L414.162 299.399L415.362 299.696L416.563 299.994L416.468 300.38L416.372 300.766L416.772 300.865L417.172 300.965L417.077 301.351L416.981 301.737L417.381 301.836L417.782 301.935L417.877 301.549L417.973 301.163L419.974 301.659L421.976 302.156L421.88 302.542L421.784 302.928L422.185 303.027L422.585 303.126L422.681 302.74L422.776 302.354L423.177 302.453L423.577 302.553L423.673 302.167L423.768 301.781L424.969 302.078L426.17 302.376L425.883 303.534L425.596 304.692L425.195 304.593L424.795 304.494L424.699 304.88L424.604 305.266L425.004 305.365L425.404 305.464L425.309 305.85L425.213 306.236L425.613 306.335L426.013 306.435L425.439 308.75L424.865 311.066L424.465 310.967L424.064 310.868L423.969 311.254L423.873 311.64L423.473 311.541L423.072 311.441L422.977 311.827L422.881 312.213L422.481 312.114L422.08 312.015L421.985 312.401L421.889 312.787L420.288 312.39L418.687 311.993L418.591 312.379L418.495 312.765L418.896 312.864L419.296 312.963L419.2 313.349L419.104 313.735L419.505 313.834L419.905 313.934L419.331 316.249L418.756 318.565L419.557 318.764L420.358 318.962L420.453 318.576L420.549 318.19L420.949 318.29L421.35 318.389L421.445 318.003L421.541 317.617L421.941 317.716L422.342 317.815L422.437 317.429L422.533 317.044L422.933 317.143L423.334 317.242L423.429 316.856L423.525 316.47L423.925 316.569L424.325 316.669L424.421 316.283L424.517 315.897L424.917 315.996L425.317 316.095L425.413 315.709L425.509 315.323L425.909 315.422L426.309 315.522L426.405 315.136L426.501 314.75L426.901 314.849L427.301 314.948L427.493 314.176L427.684 313.404L428.085 313.504L428.485 313.603L429.346 310.129L430.208 306.655L429.807 306.556L429.407 306.457L429.598 305.685L429.79 304.913L429.39 304.813L428.989 304.714L429.181 303.942L429.372 303.17L428.972 303.071L428.572 302.972L428.667 302.586L428.763 302.2L428.363 302.101L427.962 302.001L428.058 301.615L428.154 301.229L427.754 301.13L427.353 301.031L427.449 300.645L427.545 300.259L427.144 300.16L426.744 300.06L426.84 299.674L426.936 299.288L426.535 299.189L426.135 299.09L426.231 298.704L426.327 298.318L425.526 298.119L424.725 297.921L424.821 297.535L424.917 297.149L421.314 296.256L417.712 295.362L417.616 295.748Z" fill="#F8CC14"/>
<path fill-rule="evenodd" clip-rule="evenodd" d="M413.128 192.602L412.967 193.459L412.11 193.299L411.253 193.138L409.498 202.516L407.742 211.895L408.599 212.055L409.457 212.216L409.296 213.073L409.136 213.93L414.228 214.883L419.321 215.836L419.953 212.458L420.585 209.08L418.943 208.772C417.587 208.519 417.291 208.45 417.242 208.38C417.17 208.274 417.189 208.149 417.28 208.13C417.331 208.12 417.332 208.099 417.283 208.044C417.234 207.99 417.234 207.969 417.286 207.958C417.366 207.942 417.412 207.755 417.339 207.742C417.307 207.736 417.379 207.252 417.54 206.393C417.744 205.299 417.806 205.042 417.876 204.994C417.946 204.946 418.248 204.989 419.604 205.243L421.246 205.55L421.878 202.172L422.511 198.794L423.368 198.954L424.225 199.115L424.385 198.258L424.546 197.401L427.117 197.882L429.689 198.363L429.368 200.077L429.047 201.792L427.405 201.484C425.938 201.21 425.752 201.184 425.662 201.245C425.59 201.295 425.578 201.323 425.621 201.346C425.698 201.389 425.647 201.66 425.558 201.682C425.503 201.696 425.501 201.708 425.547 201.741C425.62 201.794 424.862 205.914 424.782 205.899C424.707 205.885 424.693 206.036 424.76 206.134C424.808 206.204 425.105 206.273 426.461 206.526L428.103 206.834L427.786 208.527C427.503 210.04 427.459 210.227 427.37 210.288C427.297 210.337 427.267 210.338 427.261 210.29C427.25 210.211 427.062 210.165 427.049 210.237C427.043 210.27 426.569 210.2 425.728 210.042C424.888 209.885 424.421 209.779 424.427 209.747C424.432 209.719 424.391 209.688 424.335 209.677C424.28 209.667 424.23 209.681 424.225 209.709C424.22 209.737 424.17 209.751 424.115 209.74C424.059 209.73 424.01 209.744 424.004 209.772C423.999 209.8 424.018 209.827 424.045 209.832C424.079 209.838 423.885 210.967 423.482 213.119C423.08 215.27 422.852 216.393 422.819 216.387C422.791 216.381 422.764 216.4 422.759 216.428C422.753 216.461 423.64 216.645 425.321 216.959L427.892 217.441L428.053 216.583L428.213 215.726L429.07 215.887L429.927 216.047L431.683 206.669L433.438 197.291L432.581 197.13L431.724 196.97L431.884 196.113L432.045 195.255L422.666 193.5L413.288 191.745L413.128 192.602Z" fill="#F8CC14"/>
<path fill-rule="evenodd" clip-rule="evenodd" d="M407.266 249.15L407.478 249.972L406.656 250.183L405.834 250.394L408.145 259.388L410.456 268.381L411.278 268.17L412.1 267.958L412.311 268.78L412.523 269.602L417.406 268.347L422.29 267.092L421.457 263.853L420.624 260.613L419.05 261.018C417.749 261.352 417.46 261.414 417.388 261.371C417.281 261.308 417.246 261.19 417.318 261.136C417.359 261.106 417.351 261.087 417.285 261.059C417.22 261.031 417.212 261.012 417.253 260.982C417.317 260.934 417.281 260.751 417.211 260.769C417.18 260.777 417.044 260.321 416.832 259.497C416.563 258.448 416.512 258.196 416.554 258.125C416.596 258.053 416.879 257.968 418.18 257.633L419.755 257.229L418.922 253.989L418.089 250.75L418.911 250.538L419.733 250.327L419.522 249.505L419.311 248.683L421.777 248.049L424.243 247.416L424.665 249.06L425.088 250.704L423.513 251.108C422.106 251.47 421.931 251.524 421.878 251.615C421.834 251.688 421.836 251.717 421.883 251.721C421.968 251.727 422.034 251.986 421.965 252.043C421.923 252.078 421.926 252.089 421.98 252.099C422.067 252.116 423.093 256.061 423.016 256.081C422.944 256.1 422.994 256.238 423.094 256.297C423.165 256.339 423.455 256.278 424.755 255.943L426.33 255.539L426.747 257.162C427.12 258.613 427.158 258.796 427.105 258.886C427.061 258.96 427.035 258.973 427.009 258.933C426.967 258.868 426.783 258.904 426.801 258.974C426.809 259.005 426.362 259.139 425.556 259.346C424.75 259.553 424.295 259.651 424.287 259.62C424.28 259.594 424.231 259.583 424.177 259.597C424.124 259.611 424.086 259.644 424.093 259.67C424.1 259.697 424.062 259.73 424.009 259.743C423.956 259.757 423.918 259.79 423.925 259.817C423.931 259.843 423.959 259.859 423.985 259.852C424.017 259.844 424.311 260.92 424.841 262.983C435.758 261.089 424.063 265.659 424.031 265.667C421.347 263.424 422.283 267.066 422.29 267.092C422.298 267.124 426.432 266.028 428.043 265.613L430.509 264.98L430.298 264.158L430.087 263.336L430.909 263.124L431.731 262.913L429.419 253.92L427.108 244.927L426.286 245.138L425.464 245.349L425.253 244.527L425.042 243.705L416.048 246.017L407.055 248.328L407.266 249.15Z" fill="#F8CC14"/>
<rect x="412.034" y="250.176" width="14.0126" height="18.9359" transform="rotate(-14.4134 412.034 250.176)" fill="#F8CC14"/>
<path fill-rule="evenodd" clip-rule="evenodd" d="M420.282 250.403L414.532 251.881L415.025 253.798L420.775 252.32L420.282 250.403ZM421.679 251.066L420.529 251.361L421.022 253.278L422.171 252.983L422.171 252.983L422.171 252.982L423.698 258.924L425.615 258.431L424.088 252.49L423.321 252.687L423.026 251.537L421.876 251.832L421.679 251.066ZM413.628 253.134L414.778 252.839L415.27 254.756L414.121 255.051L414.121 255.051L414.121 255.051L415.648 260.993L415.648 260.993L415.648 260.993L416.798 260.698L417.291 262.614L416.141 262.91L415.944 262.143L414.794 262.438L414.498 261.288L413.731 261.485L412.204 255.543L412.971 255.346L412.676 254.197L413.825 253.901L413.628 253.134ZM417.538 263.573L423.288 262.095L422.795 260.178L417.045 261.656L417.538 263.573ZM423.041 261.136L424.191 260.841L423.994 260.074L425.144 259.779L424.849 258.628L423.699 258.924L423.699 258.924L422.549 259.22L423.041 261.136Z" fill="#007AE0"/>
<rect x="422.624" y="246.812" width="3.0094" height="2.70846" transform="rotate(-14.4134 422.624 246.812)" fill="#007AE0"/>
<rect x="423.088" y="248.6" width="0.989509" height="2.96853" transform="rotate(-104.413 423.088 248.6)" fill="#007AE0"/>
<path d="M441.49 112.118C440.552 112.118 439.811 111.837 439.266 111.276C438.721 110.707 438.448 109.926 438.448 108.932C438.448 107.922 438.632 106.996 439.001 106.155C439.378 105.313 439.899 104.648 440.564 104.159C441.229 103.662 441.987 103.414 442.836 103.414C443.774 103.414 444.515 103.698 445.06 104.267C445.605 104.828 445.878 105.606 445.878 106.6C445.878 107.609 445.69 108.535 445.313 109.377C444.944 110.218 444.427 110.888 443.762 111.385C443.097 111.873 442.339 112.118 441.49 112.118ZM441.67 110.471C442.135 110.471 442.536 110.27 442.872 109.87C443.217 109.469 443.477 108.972 443.654 108.379C443.83 107.778 443.918 107.201 443.918 106.648C443.918 106.111 443.806 105.714 443.582 105.457C443.365 105.193 443.057 105.061 442.656 105.061C442.191 105.061 441.786 105.261 441.442 105.662C441.105 106.063 440.849 106.564 440.672 107.165C440.496 107.758 440.408 108.331 440.408 108.884C440.408 109.421 440.516 109.822 440.732 110.086C440.957 110.343 441.269 110.471 441.67 110.471ZM450.721 103.558L449.038 111.974H447.091L448.461 105.121H446.778L447.091 103.558H450.721ZM455.429 103.558L453.746 111.974H451.799L453.169 105.121H451.486L451.799 103.558H455.429ZM456.194 107.838H459.596L459.296 109.341H455.894L456.194 107.838ZM466.885 104.82L464.528 107.02C465.113 107.157 465.566 107.409 465.887 107.778C466.207 108.146 466.368 108.603 466.368 109.148C466.368 109.717 466.199 110.226 465.863 110.675C465.534 111.124 465.073 111.477 464.48 111.733C463.887 111.99 463.214 112.118 462.46 112.118C461.843 112.118 461.266 112.034 460.729 111.865C460.192 111.697 459.743 111.457 459.383 111.144L460.32 109.713C460.601 109.954 460.938 110.142 461.33 110.278C461.731 110.415 462.152 110.483 462.593 110.483C463.17 110.483 463.615 110.379 463.927 110.17C464.24 109.954 464.396 109.653 464.396 109.269C464.396 108.964 464.28 108.74 464.047 108.595C463.823 108.443 463.478 108.367 463.013 108.367H462.124L462.376 107.08L464.468 105.121H460.909L461.234 103.558H467.125L466.885 104.82ZM473.941 104.82L471.584 107.02C472.169 107.157 472.622 107.409 472.943 107.778C473.264 108.146 473.424 108.603 473.424 109.148C473.424 109.717 473.256 110.226 472.919 110.675C472.59 111.124 472.129 111.477 471.536 111.733C470.943 111.99 470.27 112.118 469.517 112.118C468.899 112.118 468.322 112.034 467.785 111.865C467.248 111.697 466.799 111.457 466.439 111.144L467.377 109.713C467.657 109.954 467.994 110.142 468.386 110.278C468.787 110.415 469.208 110.483 469.649 110.483C470.226 110.483 470.671 110.379 470.983 110.17C471.296 109.954 471.452 109.653 471.452 109.269C471.452 108.964 471.336 108.74 471.103 108.595C470.879 108.443 470.534 108.367 470.07 108.367H469.18L469.432 107.08L471.524 105.121H467.966L468.29 103.558H474.181L473.941 104.82ZM481.849 110.206H480.467L480.118 111.974H478.218L478.579 110.206H474.047L474.299 108.896L479.252 103.558H481.38L476.764 108.619H478.976L479.288 107.044H481.104L480.791 108.619H482.174L481.849 110.206ZM490.138 110.206H488.755L488.407 111.974H486.507L486.868 110.206H482.335L482.588 108.896L487.541 103.558H489.669L485.053 108.619H487.265L487.577 107.044H489.393L489.08 108.619H490.463L490.138 110.206ZM491.463 107.838H494.865L494.565 109.341H491.163L491.463 107.838ZM502.154 104.82L499.797 107.02C500.382 107.157 500.835 107.409 501.156 107.778C501.476 108.146 501.637 108.603 501.637 109.148C501.637 109.717 501.468 110.226 501.132 110.675C500.803 111.124 500.342 111.477 499.749 111.733C499.156 111.99 498.483 112.118 497.729 112.118C497.112 112.118 496.535 112.034 495.998 111.865C495.461 111.697 495.012 111.457 494.652 111.144L495.589 109.713C495.87 109.954 496.207 110.142 496.599 110.278C497 110.415 497.421 110.483 497.862 110.483C498.439 110.483 498.884 110.379 499.196 110.17C499.509 109.954 499.665 109.653 499.665 109.269C499.665 108.964 499.549 108.74 499.316 108.595C499.092 108.443 498.747 108.367 498.282 108.367H497.393L497.645 107.08L499.737 105.121H496.178L496.503 103.558H502.394L502.154 104.82ZM510.062 110.206H508.679L508.331 111.974H506.431L506.792 110.206H502.259L502.512 108.896L507.465 103.558H509.593L504.976 108.619H507.189L507.501 107.044H509.317L509.004 108.619H510.387L510.062 110.206ZM514.529 103.414C515.202 103.414 515.791 103.546 516.296 103.81C516.809 104.075 517.206 104.468 517.486 104.989C517.775 105.502 517.919 106.127 517.919 106.864C517.919 107.714 517.739 108.543 517.378 109.353C517.018 110.154 516.456 110.815 515.695 111.336C514.934 111.857 513.992 112.118 512.87 112.118C512.405 112.118 511.96 112.07 511.535 111.974C511.119 111.869 510.778 111.729 510.513 111.553L511.403 110.122C511.804 110.395 512.329 110.531 512.978 110.531C513.763 110.531 514.389 110.311 514.853 109.87C515.326 109.429 515.639 108.86 515.791 108.163C515.31 108.611 514.681 108.836 513.904 108.836C513.399 108.836 512.938 108.74 512.521 108.547C512.104 108.355 511.772 108.078 511.523 107.718C511.275 107.349 511.151 106.912 511.151 106.407C511.151 105.806 511.295 105.281 511.583 104.832C511.88 104.375 512.285 104.027 512.798 103.786C513.311 103.538 513.888 103.414 514.529 103.414ZM514.409 107.381C514.866 107.381 515.234 107.257 515.515 107.008C515.795 106.76 515.936 106.443 515.936 106.059C515.936 105.722 515.811 105.441 515.563 105.217C515.314 104.985 514.978 104.868 514.553 104.868C514.12 104.868 513.767 104.993 513.495 105.241C513.222 105.49 513.086 105.822 513.086 106.239C513.086 106.592 513.206 106.872 513.447 107.08C513.687 107.281 514.008 107.381 514.409 107.381ZM525.048 104.82L522.692 107.02C523.277 107.157 523.73 107.409 524.05 107.778C524.371 108.146 524.531 108.603 524.531 109.148C524.531 109.717 524.363 110.226 524.026 110.675C523.697 111.124 523.237 111.477 522.643 111.733C522.05 111.99 521.377 112.118 520.624 112.118C520.007 112.118 519.429 112.034 518.892 111.865C518.355 111.697 517.907 111.457 517.546 111.144L518.484 109.713C518.764 109.954 519.101 110.142 519.494 110.278C519.894 110.415 520.315 110.483 520.756 110.483C521.333 110.483 521.778 110.379 522.09 110.17C522.403 109.954 522.559 109.653 522.559 109.269C522.559 108.964 522.443 108.74 522.211 108.595C521.986 108.443 521.642 108.367 521.177 108.367H520.287L520.54 107.08L522.631 105.121H519.073L519.397 103.558H525.288L525.048 104.82Z" fill="white"/>
<path d="M445.256 87.3489C446.306 87.3489 447.116 87.5814 447.685 88.0462C448.262 88.5031 448.551 89.1443 448.551 89.9698C448.551 90.6751 448.382 91.2923 448.046 91.8213C447.717 92.3423 447.244 92.743 446.627 93.0235C446.018 93.3041 445.296 93.4443 444.463 93.4443H442.587L442.131 95.7646H440.171L441.854 87.3489H445.256ZM444.547 91.8573C445.196 91.8573 445.697 91.7091 446.05 91.4125C446.403 91.116 446.579 90.6912 446.579 90.1381C446.579 89.7374 446.443 89.4368 446.17 89.2365C445.906 89.0361 445.521 88.9359 445.016 88.9359H443.489L442.9 91.8573H444.547ZM453.906 89.2004C454.627 89.2004 455.2 89.3927 455.625 89.7775C456.05 90.1622 456.262 90.7072 456.262 91.4125C456.262 91.669 456.234 91.9255 456.178 92.182L455.457 95.7646H453.581L454.278 92.3022C454.31 92.1659 454.326 92.0176 454.326 91.8573C454.326 91.5207 454.234 91.2642 454.05 91.0879C453.866 90.9116 453.589 90.8234 453.22 90.8234C452.739 90.8234 452.339 90.9637 452.018 91.2442C451.706 91.5167 451.493 91.9295 451.381 92.4825L450.732 95.7646H448.856L450.636 86.844H452.511L451.91 89.8857C452.463 89.4288 453.128 89.2004 453.906 89.2004ZM460.617 95.8608C459.968 95.8608 459.395 95.7406 458.898 95.5002C458.409 95.2597 458.029 94.9231 457.756 94.4903C457.492 94.0494 457.359 93.5405 457.359 92.9634C457.359 92.2501 457.528 91.6089 457.864 91.0398C458.201 90.4708 458.666 90.0219 459.259 89.6933C459.852 89.3647 460.521 89.2004 461.267 89.2004C461.924 89.2004 462.497 89.3206 462.986 89.5611C463.475 89.8015 463.851 90.1421 464.116 90.583C464.388 91.0158 464.525 91.5207 464.525 92.0978C464.525 92.8111 464.356 93.4523 464.02 94.0214C463.691 94.5905 463.226 95.0393 462.625 95.3679C462.032 95.6965 461.363 95.8608 460.617 95.8608ZM460.738 94.3099C461.098 94.3099 461.423 94.2218 461.711 94.0454C462 93.8611 462.224 93.6086 462.385 93.288C462.545 92.9674 462.625 92.5987 462.625 92.182C462.625 91.7411 462.497 91.3925 462.24 91.136C461.984 90.8795 461.623 90.7513 461.158 90.7513C460.79 90.7513 460.461 90.8435 460.173 91.0278C459.884 91.2041 459.66 91.4526 459.499 91.7732C459.339 92.0938 459.259 92.4625 459.259 92.8793C459.259 93.3201 459.387 93.6687 459.644 93.9252C459.908 94.1817 460.273 94.3099 460.738 94.3099ZM470.155 89.2004C470.876 89.2004 471.449 89.3927 471.874 89.7775C472.299 90.1542 472.511 90.6952 472.511 91.4005C472.511 91.665 472.483 91.9255 472.427 92.182L471.706 95.7646H469.83L470.527 92.3022C470.559 92.1659 470.576 92.0176 470.576 91.8573C470.576 91.5207 470.483 91.2642 470.299 91.0879C470.115 90.9116 469.838 90.8234 469.469 90.8234C468.989 90.8234 468.588 90.9637 468.267 91.2442C467.955 91.5167 467.742 91.9295 467.63 92.4825L466.981 95.7646H465.105L466.392 89.2966H468.171L468.027 89.9939C468.604 89.4649 469.313 89.2004 470.155 89.2004ZM480.509 92.0497C480.509 92.3463 480.473 92.6749 480.401 93.0356H475.448C475.512 93.9172 476.069 94.358 477.119 94.358C477.448 94.358 477.76 94.3059 478.057 94.2017C478.361 94.0975 478.626 93.9493 478.85 93.7569L479.632 94.9952C479.271 95.2838 478.858 95.5002 478.393 95.6444C477.928 95.7887 477.44 95.8608 476.927 95.8608C476.261 95.8608 475.676 95.7446 475.171 95.5122C474.674 95.2717 474.29 94.9311 474.017 94.4903C473.753 94.0494 473.62 93.5405 473.62 92.9634C473.62 92.2501 473.781 91.6089 474.101 91.0398C474.43 90.4627 474.883 90.0139 475.46 89.6933C476.037 89.3647 476.694 89.2004 477.432 89.2004C478.057 89.2004 478.598 89.3166 479.055 89.549C479.519 89.7815 479.876 90.1141 480.125 90.5469C480.381 90.9797 480.509 91.4806 480.509 92.0497ZM477.347 90.607C476.907 90.607 476.534 90.7272 476.229 90.9677C475.925 91.2001 475.708 91.5247 475.58 91.9415H478.79C478.79 91.5247 478.658 91.2001 478.393 90.9677C478.137 90.7272 477.788 90.607 477.347 90.607ZM493.964 87.3489L492.281 95.7646H490.682L487.544 90.4988L486.486 95.7646H484.562L486.246 87.3489H487.857L490.994 92.6268L492.04 87.3489H493.964ZM501.954 89.2966L500.668 95.7646H498.889L499.021 95.0673C498.74 95.3318 498.42 95.5322 498.059 95.6685C497.698 95.7967 497.318 95.8608 496.917 95.8608C496.212 95.8608 495.647 95.6685 495.222 95.2838C494.805 94.899 494.597 94.358 494.597 93.6607C494.597 93.3962 494.625 93.1357 494.681 92.8793L495.39 89.2966H497.266L496.58 92.759C496.548 92.9113 496.532 93.0676 496.532 93.2279C496.532 93.9012 496.893 94.2378 497.614 94.2378C498.087 94.2378 498.476 94.1015 498.78 93.829C499.093 93.5485 499.305 93.1317 499.418 92.5787L500.079 89.2966H501.954ZM511.807 89.2004C512.512 89.2004 513.073 89.3927 513.49 89.7775C513.907 90.1542 514.115 90.6912 514.115 91.3885C514.115 91.645 514.087 91.9094 514.031 92.182L513.322 95.7646H511.446L512.132 92.3142C512.164 92.1539 512.18 91.9896 512.18 91.8213C512.18 91.4927 512.092 91.2442 511.915 91.0759C511.747 90.9076 511.494 90.8234 511.158 90.8234C510.252 90.8234 509.687 91.3644 509.463 92.4465L508.801 95.7646H506.926L507.611 92.3142C507.643 92.1539 507.659 91.9936 507.659 91.8333C507.659 91.5047 507.571 91.2562 507.395 91.0879C507.226 90.9116 506.974 90.8234 506.637 90.8234C505.732 90.8234 505.163 91.3724 504.93 92.4705L504.281 95.7646H502.405L503.692 89.2966H505.471L505.327 89.9698C505.888 89.4569 506.565 89.2004 507.359 89.2004C507.808 89.2004 508.204 89.2926 508.549 89.4769C508.902 89.6532 509.166 89.9137 509.342 90.2584C509.655 89.9137 510.02 89.6532 510.436 89.4769C510.853 89.2926 511.31 89.2004 511.807 89.2004ZM519.932 89.2004C520.437 89.2004 520.902 89.3166 521.327 89.549C521.76 89.7815 522.1 90.1181 522.349 90.5589C522.605 90.9917 522.733 91.5047 522.733 92.0978C522.733 92.8111 522.573 93.4563 522.252 94.0334C521.94 94.6025 521.511 95.0513 520.966 95.3799C520.421 95.7005 519.816 95.8608 519.151 95.8608C518.646 95.8608 518.209 95.7727 517.84 95.5963C517.472 95.42 517.187 95.1555 516.987 94.8029L516.794 95.7646H515.015L516.794 86.844H518.67L518.069 89.8496C518.59 89.4168 519.211 89.2004 519.932 89.2004ZM518.934 94.3099C519.303 94.3099 519.632 94.2218 519.92 94.0454C520.209 93.8611 520.433 93.6086 520.593 93.288C520.754 92.9674 520.834 92.5987 520.834 92.182C520.834 91.7411 520.702 91.3925 520.437 91.136C520.181 90.8795 519.82 90.7513 519.355 90.7513C518.994 90.7513 518.67 90.8435 518.381 91.0278C518.093 91.2041 517.868 91.4526 517.708 91.7732C517.548 92.0938 517.468 92.4625 517.468 92.8793C517.468 93.3201 517.596 93.6687 517.852 93.9252C518.109 94.1817 518.469 94.3099 518.934 94.3099ZM530.337 92.0497C530.337 92.3463 530.301 92.6749 530.229 93.0356H525.275C525.339 93.9172 525.896 94.358 526.946 94.358C527.275 94.358 527.588 94.3059 527.884 94.2017C528.189 94.0975 528.453 93.9493 528.678 93.7569L529.459 94.9952C529.098 95.2838 528.686 95.5002 528.221 95.6444C527.756 95.7887 527.267 95.8608 526.754 95.8608C526.089 95.8608 525.504 95.7446 524.999 95.5122C524.502 95.2717 524.117 94.9311 523.845 94.4903C523.58 94.0494 523.448 93.5405 523.448 92.9634C523.448 92.2501 523.608 91.6089 523.929 91.0398C524.257 90.4627 524.71 90.0139 525.287 89.6933C525.864 89.3647 526.522 89.2004 527.259 89.2004C527.884 89.2004 528.425 89.3166 528.882 89.549C529.347 89.7815 529.704 90.1141 529.952 90.5469C530.208 90.9797 530.337 91.4806 530.337 92.0497ZM527.175 90.607C526.734 90.607 526.361 90.7272 526.057 90.9677C525.752 91.2001 525.536 91.5247 525.407 91.9415H528.617C528.617 91.5247 528.485 91.2001 528.221 90.9677C527.964 90.7272 527.616 90.607 527.175 90.607ZM533.774 90.066C534.055 89.7614 534.391 89.541 534.784 89.4048C535.185 89.2685 535.654 89.2004 536.191 89.2004L535.854 90.9316C535.63 90.9156 535.485 90.9076 535.421 90.9076C534.852 90.9076 534.395 91.0478 534.051 91.3284C533.714 91.6089 533.486 92.0457 533.366 92.6388L532.74 95.7646H530.865L532.151 89.2966H533.931L533.774 90.066ZM537.832 91.5448C537.512 91.5448 537.247 91.4446 537.039 91.2442C536.83 91.0358 536.726 90.7753 536.726 90.4627C536.726 90.0941 536.846 89.7935 537.087 89.5611C537.327 89.3286 537.624 89.2124 537.976 89.2124C538.297 89.2124 538.557 89.3126 538.758 89.513C538.966 89.7133 539.07 89.9738 539.07 90.2944C539.07 90.6551 538.946 90.9557 538.698 91.1961C538.457 91.4285 538.169 91.5448 537.832 91.5448ZM536.967 95.8608C536.646 95.8608 536.381 95.7606 536.173 95.5603C535.965 95.3519 535.86 95.0914 535.86 94.7788C535.86 94.4101 535.981 94.1096 536.221 93.8771C536.462 93.6447 536.758 93.5285 537.111 93.5285C537.431 93.5285 537.692 93.6287 537.892 93.829C538.101 94.0294 538.205 94.2899 538.205 94.6105C538.205 94.9712 538.081 95.2717 537.832 95.5122C537.592 95.7446 537.303 95.8608 536.967 95.8608Z" fill="white"/>
<path d="M447.979 159.114L446.692 165.583H444.913L445.033 164.945C444.496 165.434 443.835 165.679 443.049 165.679C442.544 165.679 442.079 165.562 441.655 165.33C441.23 165.098 440.889 164.765 440.633 164.332C440.384 163.891 440.26 163.374 440.26 162.781C440.26 162.068 440.416 161.427 440.729 160.858C441.05 160.281 441.482 159.832 442.027 159.511C442.572 159.183 443.174 159.018 443.831 159.018C444.825 159.018 445.526 159.343 445.935 159.992L446.103 159.114H447.979ZM443.626 164.128C443.995 164.128 444.324 164.04 444.612 163.863C444.901 163.679 445.125 163.426 445.285 163.106C445.446 162.785 445.526 162.417 445.526 162C445.526 161.559 445.394 161.21 445.129 160.954C444.873 160.697 444.512 160.569 444.047 160.569C443.678 160.569 443.35 160.661 443.061 160.846C442.773 161.022 442.548 161.27 442.388 161.591C442.228 161.912 442.148 162.28 442.148 162.697C442.148 163.138 442.276 163.487 442.532 163.743C442.797 164 443.162 164.128 443.626 164.128ZM451.338 159.884C451.618 159.579 451.955 159.359 452.348 159.223C452.749 159.086 453.217 159.018 453.754 159.018L453.418 160.749C453.193 160.733 453.049 160.725 452.985 160.725C452.416 160.725 451.959 160.866 451.614 161.146C451.278 161.427 451.049 161.864 450.929 162.457L450.304 165.583H448.429L449.715 159.114H451.494L451.338 159.884ZM455.939 165.679C455.378 165.679 454.845 165.619 454.34 165.498C453.843 165.37 453.454 165.206 453.174 165.005L453.895 163.647C454.176 163.831 454.516 163.98 454.917 164.092C455.326 164.204 455.735 164.26 456.143 164.26C456.568 164.26 456.885 164.208 457.093 164.104C457.302 163.992 457.406 163.835 457.406 163.635C457.406 163.475 457.314 163.358 457.129 163.286C456.945 163.214 456.648 163.138 456.24 163.058C455.775 162.97 455.39 162.873 455.085 162.769C454.789 162.665 454.528 162.497 454.304 162.264C454.088 162.024 453.979 161.699 453.979 161.291C453.979 160.577 454.276 160.02 454.869 159.619C455.47 159.219 456.256 159.018 457.225 159.018C457.674 159.018 458.111 159.066 458.536 159.163C458.961 159.259 459.321 159.391 459.618 159.559L458.945 160.93C458.416 160.601 457.778 160.437 457.033 160.437C456.624 160.437 456.312 160.497 456.095 160.617C455.887 160.737 455.783 160.89 455.783 161.074C455.783 161.242 455.875 161.367 456.059 161.447C456.244 161.519 456.552 161.599 456.985 161.687C457.442 161.775 457.815 161.872 458.103 161.976C458.4 162.072 458.656 162.236 458.873 162.469C459.089 162.701 459.197 163.018 459.197 163.418C459.197 164.14 458.893 164.697 458.283 165.09C457.682 165.482 456.901 165.679 455.939 165.679ZM465.019 159.018C465.74 159.018 466.313 159.211 466.738 159.595C467.163 159.98 467.375 160.525 467.375 161.23C467.375 161.487 467.347 161.743 467.291 162L466.57 165.583H464.694L465.392 162.12C465.424 161.984 465.44 161.836 465.44 161.675C465.44 161.339 465.348 161.082 465.163 160.906C464.979 160.729 464.702 160.641 464.334 160.641C463.853 160.641 463.452 160.782 463.131 161.062C462.819 161.335 462.607 161.747 462.494 162.3L461.845 165.583H459.97L461.749 156.662H463.624L463.023 159.704C463.576 159.247 464.242 159.018 465.019 159.018ZM476.203 159.114L474.917 165.583H473.137L473.258 164.945C472.721 165.434 472.059 165.679 471.274 165.679C470.769 165.679 470.304 165.562 469.879 165.33C469.454 165.098 469.114 164.765 468.857 164.332C468.609 163.891 468.485 163.374 468.485 162.781C468.485 162.068 468.641 161.427 468.954 160.858C469.274 160.281 469.707 159.832 470.252 159.511C470.797 159.183 471.398 159.018 472.055 159.018C473.049 159.018 473.751 159.343 474.159 159.992L474.328 159.114H476.203ZM471.851 164.128C472.22 164.128 472.548 164.04 472.837 163.863C473.125 163.679 473.35 163.426 473.51 163.106C473.67 162.785 473.751 162.417 473.751 162C473.751 161.559 473.618 161.21 473.354 160.954C473.097 160.697 472.737 160.569 472.272 160.569C471.903 160.569 471.574 160.661 471.286 160.846C470.997 161.022 470.773 161.27 470.613 161.591C470.452 161.912 470.372 162.28 470.372 162.697C470.372 163.138 470.5 163.487 470.757 163.743C471.021 164 471.386 164.128 471.851 164.128ZM486.055 159.018C486.76 159.018 487.321 159.211 487.738 159.595C488.155 159.972 488.363 160.509 488.363 161.206C488.363 161.463 488.335 161.727 488.279 162L487.569 165.583H485.694L486.379 162.132C486.411 161.972 486.427 161.807 486.427 161.639C486.427 161.311 486.339 161.062 486.163 160.894C485.995 160.725 485.742 160.641 485.405 160.641C484.5 160.641 483.935 161.182 483.71 162.264L483.049 165.583H481.174L481.859 162.132C481.891 161.972 481.907 161.811 481.907 161.651C481.907 161.323 481.819 161.074 481.642 160.906C481.474 160.729 481.222 160.641 480.885 160.641C479.979 160.641 479.41 161.19 479.178 162.288L478.529 165.583H476.653L477.94 159.114H479.719L479.575 159.788C480.136 159.275 480.813 159.018 481.606 159.018C482.055 159.018 482.452 159.11 482.797 159.295C483.149 159.471 483.414 159.732 483.59 160.076C483.903 159.732 484.267 159.471 484.684 159.295C485.101 159.11 485.558 159.018 486.055 159.018ZM491.619 165.679C491.058 165.679 490.525 165.619 490.02 165.498C489.523 165.37 489.134 165.206 488.854 165.005L489.575 163.647C489.856 163.831 490.196 163.98 490.597 164.092C491.006 164.204 491.415 164.26 491.823 164.26C492.248 164.26 492.565 164.208 492.773 164.104C492.982 163.992 493.086 163.835 493.086 163.635C493.086 163.475 492.994 163.358 492.809 163.286C492.625 163.214 492.328 163.138 491.92 163.058C491.455 162.97 491.07 162.873 490.765 162.769C490.469 162.665 490.208 162.497 489.984 162.264C489.768 162.024 489.659 161.699 489.659 161.291C489.659 160.577 489.956 160.02 490.549 159.619C491.15 159.219 491.936 159.018 492.905 159.018C493.354 159.018 493.791 159.066 494.216 159.163C494.641 159.259 495.001 159.391 495.298 159.559L494.625 160.93C494.096 160.601 493.458 160.437 492.713 160.437C492.304 160.437 491.992 160.497 491.775 160.617C491.567 160.737 491.463 160.89 491.463 161.074C491.463 161.242 491.555 161.367 491.739 161.447C491.924 161.519 492.232 161.599 492.665 161.687C493.122 161.775 493.494 161.872 493.783 161.976C494.08 162.072 494.336 162.236 494.552 162.469C494.769 162.701 494.877 163.018 494.877 163.418C494.877 164.14 494.573 164.697 493.963 165.09C493.362 165.482 492.581 165.679 491.619 165.679ZM500.699 159.018C501.42 159.018 501.993 159.211 502.418 159.595C502.843 159.98 503.055 160.525 503.055 161.23C503.055 161.487 503.027 161.743 502.971 162L502.25 165.583H500.374L501.072 162.12C501.104 161.984 501.12 161.836 501.12 161.675C501.12 161.339 501.028 161.082 500.843 160.906C500.659 160.729 500.382 160.641 500.014 160.641C499.533 160.641 499.132 160.782 498.811 161.062C498.499 161.335 498.286 161.747 498.174 162.3L497.525 165.583H495.65L497.429 156.662H499.304L498.703 159.704C499.256 159.247 499.921 159.018 500.699 159.018ZM505.248 159.114H507.112L505.825 165.583H503.962L505.248 159.114ZM506.499 158.213C506.178 158.213 505.914 158.121 505.705 157.936C505.505 157.744 505.405 157.511 505.405 157.239C505.405 156.918 505.517 156.654 505.741 156.445C505.974 156.229 506.274 156.121 506.643 156.121C506.972 156.121 507.236 156.213 507.436 156.397C507.645 156.574 507.749 156.794 507.749 157.059C507.749 157.403 507.633 157.684 507.4 157.9C507.168 158.109 506.867 158.213 506.499 158.213ZM510.476 159.884C510.756 159.579 511.093 159.359 511.486 159.223C511.886 159.086 512.355 159.018 512.892 159.018L512.556 160.749C512.331 160.733 512.187 160.725 512.123 160.725C511.554 160.725 511.097 160.866 510.752 161.146C510.416 161.427 510.187 161.864 510.067 162.457L509.442 165.583H507.566L508.853 159.114H510.632L510.476 159.884ZM517.518 161.928L519.742 165.583H517.566L516.027 163.07L514.885 164.02L514.572 165.583H512.697L514.476 156.662H516.352L515.354 161.651L518.456 159.114H520.896L517.518 161.928ZM523.542 165.679C522.893 165.679 522.32 165.558 521.823 165.318C521.334 165.078 520.954 164.741 520.681 164.308C520.417 163.867 520.284 163.358 520.284 162.781C520.284 162.068 520.453 161.427 520.789 160.858C521.126 160.289 521.591 159.84 522.184 159.511C522.777 159.183 523.446 159.018 524.192 159.018C524.849 159.018 525.422 159.138 525.911 159.379C526.4 159.619 526.776 159.96 527.041 160.401C527.313 160.834 527.45 161.339 527.45 161.916C527.45 162.629 527.281 163.27 526.945 163.839C526.616 164.408 526.151 164.857 525.55 165.186C524.957 165.514 524.288 165.679 523.542 165.679ZM523.663 164.128C524.023 164.128 524.348 164.04 524.636 163.863C524.925 163.679 525.149 163.426 525.31 163.106C525.47 162.785 525.55 162.417 525.55 162C525.55 161.559 525.422 161.21 525.165 160.954C524.909 160.697 524.548 160.569 524.083 160.569C523.715 160.569 523.386 160.661 523.098 160.846C522.809 161.022 522.585 161.27 522.424 161.591C522.264 161.912 522.184 162.28 522.184 162.697C522.184 163.138 522.312 163.487 522.569 163.743C522.833 164 523.198 164.128 523.663 164.128ZM535.833 159.114L534.546 165.583H532.767L532.899 164.885C532.619 165.15 532.298 165.35 531.938 165.486C531.577 165.615 531.196 165.679 530.795 165.679C530.09 165.679 529.525 165.486 529.1 165.102C528.684 164.717 528.475 164.176 528.475 163.479C528.475 163.214 528.503 162.954 528.559 162.697L529.269 159.114H531.144L530.459 162.577C530.427 162.729 530.411 162.885 530.411 163.046C530.411 163.719 530.771 164.056 531.493 164.056C531.966 164.056 532.354 163.919 532.659 163.647C532.972 163.366 533.184 162.95 533.296 162.397L533.957 159.114H535.833ZM541.333 159.018C542.055 159.018 542.628 159.211 543.053 159.595C543.477 159.98 543.69 160.525 543.69 161.23C543.69 161.487 543.662 161.743 543.606 162L542.884 165.583H541.009L541.706 162.12C541.738 161.984 541.754 161.836 541.754 161.675C541.754 161.339 541.662 161.082 541.478 160.906C541.293 160.729 541.017 160.641 540.648 160.641C540.167 160.641 539.767 160.782 539.446 161.062C539.133 161.335 538.921 161.747 538.809 162.3L538.16 165.583H536.284L538.063 156.662H539.939L539.338 159.704C539.891 159.247 540.556 159.018 541.333 159.018ZM545.883 159.114H547.746L546.46 165.583H544.596L545.883 159.114ZM547.133 158.213C546.813 158.213 546.548 158.121 546.34 157.936C546.139 157.744 546.039 157.511 546.039 157.239C546.039 156.918 546.151 156.654 546.376 156.445C546.608 156.229 546.909 156.121 547.277 156.121C547.606 156.121 547.871 156.213 548.071 156.397C548.279 156.574 548.383 156.794 548.383 157.059C548.383 157.403 548.267 157.684 548.035 157.9C547.802 158.109 547.502 158.213 547.133 158.213ZM550.87 163.996H554.404L554.092 165.583H547.72L547.972 164.32L551.808 161.315C552.272 160.938 552.593 160.621 552.769 160.365C552.954 160.108 553.046 159.84 553.046 159.559C553.046 159.279 552.938 159.054 552.721 158.886C552.513 158.718 552.208 158.634 551.808 158.634C551.471 158.634 551.146 158.71 550.834 158.862C550.521 159.014 550.249 159.231 550.016 159.511L548.706 158.561C549.05 158.089 549.523 157.716 550.124 157.443C550.726 157.163 551.383 157.023 552.096 157.023C552.681 157.023 553.194 157.119 553.635 157.311C554.084 157.503 554.428 157.772 554.669 158.117C554.917 158.461 555.042 158.85 555.042 159.283C555.042 159.804 554.897 160.293 554.609 160.749C554.32 161.206 553.819 161.711 553.106 162.264L550.87 163.996ZM558.635 165.727C557.697 165.727 556.956 165.446 556.411 164.885C555.866 164.316 555.593 163.535 555.593 162.541C555.593 161.531 555.778 160.605 556.146 159.764C556.523 158.922 557.044 158.257 557.709 157.768C558.374 157.271 559.132 157.023 559.981 157.023C560.919 157.023 561.661 157.307 562.206 157.876C562.751 158.437 563.023 159.215 563.023 160.208C563.023 161.218 562.835 162.144 562.458 162.986C562.089 163.827 561.572 164.496 560.907 164.993C560.242 165.482 559.485 165.727 558.635 165.727ZM558.815 164.08C559.28 164.08 559.681 163.879 560.018 163.479C560.362 163.078 560.623 162.581 560.799 161.988C560.975 161.387 561.064 160.81 561.064 160.257C561.064 159.72 560.951 159.323 560.727 159.066C560.51 158.802 560.202 158.67 559.801 158.67C559.336 158.67 558.932 158.87 558.587 159.271C558.25 159.671 557.994 160.172 557.817 160.774C557.641 161.367 557.553 161.94 557.553 162.493C557.553 163.03 557.661 163.43 557.878 163.695C558.102 163.951 558.415 164.08 558.815 164.08ZM566.783 165.727C565.845 165.727 565.104 165.446 564.559 164.885C564.014 164.316 563.741 163.535 563.741 162.541C563.741 161.531 563.926 160.605 564.294 159.764C564.671 158.922 565.192 158.257 565.857 157.768C566.523 157.271 567.28 157.023 568.13 157.023C569.067 157.023 569.809 157.307 570.354 157.876C570.899 158.437 571.171 159.215 571.171 160.208C571.171 161.218 570.983 162.144 570.606 162.986C570.237 163.827 569.72 164.496 569.055 164.993C568.39 165.482 567.633 165.727 566.783 165.727ZM566.963 164.08C567.428 164.08 567.829 163.879 568.166 163.479C568.51 163.078 568.771 162.581 568.947 161.988C569.123 161.387 569.212 160.81 569.212 160.257C569.212 159.72 569.099 159.323 568.875 159.066C568.659 158.802 568.35 158.67 567.949 158.67C567.484 158.67 567.08 158.87 566.735 159.271C566.398 159.671 566.142 160.172 565.965 160.774C565.789 161.367 565.701 161.94 565.701 162.493C565.701 163.03 565.809 163.43 566.026 163.695C566.25 163.951 566.563 164.08 566.963 164.08ZM574.871 158.73L574.414 160.329H574.919C575.953 160.329 576.734 160.529 577.263 160.93C577.8 161.331 578.069 161.9 578.069 162.637C578.069 163.254 577.905 163.799 577.576 164.272C577.247 164.737 576.787 165.098 576.193 165.354C575.608 165.603 574.935 165.727 574.174 165.727C573.548 165.727 572.967 165.643 572.43 165.474C571.901 165.306 571.453 165.066 571.084 164.753L572.022 163.322C572.302 163.563 572.639 163.751 573.032 163.887C573.432 164.024 573.853 164.092 574.294 164.092C574.871 164.092 575.316 163.988 575.628 163.779C575.941 163.563 576.097 163.258 576.097 162.865C576.097 162.224 575.552 161.904 574.462 161.904H572.178L573.548 157.167H578.694L578.369 158.73H574.871Z" fill="white"/>
<path d="M443.959 143.682L443.598 145.51H447.505L447.205 147.025H443.285L442.901 148.972H447.493L447.169 150.535H440.652L442.336 142.119H448.695L448.371 143.682H443.959ZM458 143.971C458.705 143.971 459.266 144.163 459.683 144.548C460.099 144.925 460.308 145.462 460.308 146.159C460.308 146.415 460.28 146.68 460.224 146.952L459.514 150.535H457.639L458.324 147.085C458.356 146.924 458.372 146.76 458.372 146.592C458.372 146.263 458.284 146.015 458.108 145.846C457.939 145.678 457.687 145.594 457.35 145.594C456.445 145.594 455.88 146.135 455.655 147.217L454.994 150.535H453.118L453.804 147.085C453.836 146.924 453.852 146.764 453.852 146.604C453.852 146.275 453.764 146.027 453.587 145.858C453.419 145.682 453.167 145.594 452.83 145.594C451.924 145.594 451.355 146.143 451.123 147.241L450.473 150.535H448.598L449.884 144.067H451.664L451.519 144.74C452.08 144.227 452.758 143.971 453.551 143.971C454 143.971 454.397 144.063 454.741 144.247C455.094 144.424 455.359 144.684 455.535 145.029C455.848 144.684 456.212 144.424 456.629 144.247C457.046 144.063 457.503 143.971 458 143.971ZM469.129 144.067L467.842 150.535H466.063L466.183 149.898C465.646 150.387 464.985 150.631 464.199 150.631C463.694 150.631 463.23 150.515 462.805 150.283C462.38 150.05 462.039 149.718 461.783 149.285C461.534 148.844 461.41 148.327 461.41 147.734C461.41 147.021 461.566 146.379 461.879 145.81C462.2 145.233 462.632 144.784 463.177 144.464C463.722 144.135 464.324 143.971 464.981 143.971C465.975 143.971 466.676 144.296 467.085 144.945L467.253 144.067H469.129ZM464.776 149.08C465.145 149.08 465.474 148.992 465.762 148.816C466.051 148.632 466.275 148.379 466.436 148.059C466.596 147.738 466.676 147.369 466.676 146.952C466.676 146.512 466.544 146.163 466.279 145.907C466.023 145.65 465.662 145.522 465.197 145.522C464.829 145.522 464.5 145.614 464.211 145.798C463.923 145.975 463.698 146.223 463.538 146.544C463.378 146.864 463.298 147.233 463.298 147.65C463.298 148.091 463.426 148.439 463.682 148.696C463.947 148.952 464.312 149.08 464.776 149.08ZM470.865 144.067H472.728L471.442 150.535H469.579L470.865 144.067ZM472.115 143.165C471.795 143.165 471.53 143.073 471.322 142.889C471.121 142.697 471.021 142.464 471.021 142.192C471.021 141.871 471.133 141.606 471.358 141.398C471.59 141.182 471.891 141.073 472.26 141.073C472.588 141.073 472.853 141.166 473.053 141.35C473.261 141.526 473.366 141.747 473.366 142.011C473.366 142.356 473.249 142.636 473.017 142.853C472.785 143.061 472.484 143.165 472.115 143.165ZM474.962 141.614H476.838L475.058 150.535H473.183L474.962 141.614ZM478.518 146.315C478.198 146.315 477.933 146.215 477.725 146.015C477.516 145.806 477.412 145.546 477.412 145.233C477.412 144.865 477.532 144.564 477.773 144.332C478.013 144.099 478.31 143.983 478.663 143.983C478.983 143.983 479.244 144.083 479.444 144.283C479.652 144.484 479.757 144.744 479.757 145.065C479.757 145.426 479.632 145.726 479.384 145.967C479.143 146.199 478.855 146.315 478.518 146.315ZM477.653 150.631C477.332 150.631 477.068 150.531 476.859 150.331C476.651 150.122 476.547 149.862 476.547 149.549C476.547 149.181 476.667 148.88 476.907 148.648C477.148 148.415 477.444 148.299 477.797 148.299C478.118 148.299 478.378 148.399 478.578 148.6C478.787 148.8 478.891 149.06 478.891 149.381C478.891 149.742 478.767 150.042 478.518 150.283C478.278 150.515 477.989 150.631 477.653 150.631Z" fill="white"/>
<path d="M445.372 210.275L444.086 216.743H442.306L442.427 216.106C441.89 216.595 441.228 216.839 440.443 216.839C439.938 216.839 439.473 216.723 439.048 216.491C438.623 216.258 438.283 215.926 438.026 215.493C437.778 215.052 437.654 214.535 437.654 213.942C437.654 213.229 437.81 212.587 438.123 212.018C438.443 211.441 438.876 210.992 439.421 210.672C439.966 210.343 440.567 210.179 441.224 210.179C442.218 210.179 442.919 210.504 443.328 211.153L443.497 210.275H445.372ZM441.02 215.288C441.389 215.288 441.717 215.2 442.006 215.024C442.294 214.84 442.519 214.587 442.679 214.267C442.839 213.946 442.919 213.577 442.919 213.16C442.919 212.72 442.787 212.371 442.523 212.115C442.266 211.858 441.906 211.73 441.441 211.73C441.072 211.73 440.743 211.822 440.455 212.006C440.166 212.183 439.942 212.431 439.782 212.752C439.621 213.072 439.541 213.441 439.541 213.858C439.541 214.299 439.669 214.647 439.926 214.904C440.19 215.16 440.555 215.288 441.02 215.288ZM448.731 211.045C449.012 210.74 449.349 210.52 449.741 210.383C450.142 210.247 450.611 210.179 451.148 210.179L450.811 211.91C450.587 211.894 450.443 211.886 450.379 211.886C449.81 211.886 449.353 212.026 449.008 212.307C448.671 212.587 448.443 213.024 448.323 213.617L447.698 216.743H445.822L447.108 210.275H448.888L448.731 211.045ZM453.333 216.839C452.772 216.839 452.239 216.779 451.734 216.659C451.237 216.531 450.848 216.366 450.567 216.166L451.289 214.808C451.569 214.992 451.91 215.14 452.311 215.252C452.719 215.365 453.128 215.421 453.537 215.421C453.962 215.421 454.278 215.369 454.487 215.264C454.695 215.152 454.799 214.996 454.799 214.796C454.799 214.635 454.707 214.519 454.523 214.447C454.338 214.375 454.042 214.299 453.633 214.218C453.168 214.13 452.784 214.034 452.479 213.93C452.182 213.826 451.922 213.657 451.698 213.425C451.481 213.185 451.373 212.86 451.373 212.451C451.373 211.738 451.67 211.181 452.263 210.78C452.864 210.379 453.649 210.179 454.619 210.179C455.068 210.179 455.505 210.227 455.929 210.323C456.354 210.419 456.715 210.552 457.011 210.72L456.338 212.09C455.809 211.762 455.172 211.598 454.427 211.598C454.018 211.598 453.705 211.658 453.489 211.778C453.281 211.898 453.176 212.05 453.176 212.235C453.176 212.403 453.268 212.527 453.453 212.607C453.637 212.68 453.946 212.76 454.379 212.848C454.835 212.936 455.208 213.032 455.497 213.136C455.793 213.233 456.05 213.397 456.266 213.629C456.483 213.862 456.591 214.178 456.591 214.579C456.591 215.3 456.286 215.858 455.677 216.25C455.076 216.643 454.294 216.839 453.333 216.839ZM462.413 210.179C463.134 210.179 463.707 210.371 464.132 210.756C464.557 211.141 464.769 211.686 464.769 212.391C464.769 212.648 464.741 212.904 464.685 213.16L463.963 216.743H462.088L462.785 213.281C462.817 213.144 462.833 212.996 462.833 212.836C462.833 212.499 462.741 212.243 462.557 212.066C462.373 211.89 462.096 211.802 461.727 211.802C461.246 211.802 460.846 211.942 460.525 212.223C460.212 212.495 460 212.908 459.888 213.461L459.239 216.743H457.363L459.142 207.823H461.018L460.417 210.864C460.97 210.407 461.635 210.179 462.413 210.179ZM473.597 210.275L472.31 216.743H470.531L470.651 216.106C470.114 216.595 469.453 216.839 468.667 216.839C468.163 216.839 467.698 216.723 467.273 216.491C466.848 216.258 466.507 215.926 466.251 215.493C466.002 215.052 465.878 214.535 465.878 213.942C465.878 213.229 466.035 212.587 466.347 212.018C466.668 211.441 467.101 210.992 467.646 210.672C468.191 210.343 468.792 210.179 469.449 210.179C470.443 210.179 471.144 210.504 471.553 211.153L471.721 210.275H473.597ZM469.245 215.288C469.613 215.288 469.942 215.2 470.23 215.024C470.519 214.84 470.743 214.587 470.904 214.267C471.064 213.946 471.144 213.577 471.144 213.16C471.144 212.72 471.012 212.371 470.747 212.115C470.491 211.858 470.13 211.73 469.665 211.73C469.297 211.73 468.968 211.822 468.679 212.006C468.391 212.183 468.167 212.431 468.006 212.752C467.846 213.072 467.766 213.441 467.766 213.858C467.766 214.299 467.894 214.647 468.15 214.904C468.415 215.16 468.78 215.288 469.245 215.288ZM483.448 210.179C484.154 210.179 484.715 210.371 485.131 210.756C485.548 211.133 485.757 211.67 485.757 212.367C485.757 212.623 485.728 212.888 485.672 213.16L484.963 216.743H483.088L483.773 213.293C483.805 213.132 483.821 212.968 483.821 212.8C483.821 212.471 483.733 212.223 483.556 212.054C483.388 211.886 483.136 211.802 482.799 211.802C481.893 211.802 481.328 212.343 481.104 213.425L480.443 216.743H478.567L479.252 213.293C479.284 213.132 479.3 212.972 479.3 212.812C479.3 212.483 479.212 212.235 479.036 212.066C478.868 211.89 478.615 211.802 478.279 211.802C477.373 211.802 476.804 212.351 476.571 213.449L475.922 216.743H474.047L475.333 210.275H477.112L476.968 210.948C477.529 210.435 478.206 210.179 479 210.179C479.449 210.179 479.845 210.271 480.19 210.455C480.543 210.632 480.807 210.892 480.984 211.237C481.296 210.892 481.661 210.632 482.078 210.455C482.494 210.271 482.951 210.179 483.448 210.179ZM492.417 216.839C491.856 216.839 491.323 216.779 490.818 216.659C490.321 216.531 489.933 216.366 489.652 216.166L490.374 214.808C490.654 214.992 490.995 215.14 491.395 215.252C491.804 215.365 492.213 215.421 492.622 215.421C493.047 215.421 493.363 215.369 493.571 215.264C493.78 215.152 493.884 214.996 493.884 214.796C493.884 214.635 493.792 214.519 493.608 214.447C493.423 214.375 493.127 214.299 492.718 214.218C492.253 214.13 491.868 214.034 491.564 213.93C491.267 213.826 491.007 213.657 490.782 213.425C490.566 213.185 490.458 212.86 490.458 212.451C490.458 211.738 490.754 211.181 491.347 210.78C491.948 210.379 492.734 210.179 493.704 210.179C494.153 210.179 494.589 210.227 495.014 210.323C495.439 210.419 495.8 210.552 496.096 210.72L495.423 212.09C494.894 211.762 494.257 211.598 493.511 211.598C493.103 211.598 492.79 211.658 492.574 211.778C492.365 211.898 492.261 212.05 492.261 212.235C492.261 212.403 492.353 212.527 492.538 212.607C492.722 212.68 493.03 212.76 493.463 212.848C493.92 212.936 494.293 213.032 494.581 213.136C494.878 213.233 495.134 213.397 495.351 213.629C495.567 213.862 495.675 214.178 495.675 214.579C495.675 215.3 495.371 215.858 494.762 216.25C494.161 216.643 493.379 216.839 492.417 216.839ZM501.497 210.179C502.219 210.179 502.792 210.371 503.217 210.756C503.641 211.141 503.854 211.686 503.854 212.391C503.854 212.648 503.826 212.904 503.77 213.16L503.048 216.743H501.173L501.87 213.281C501.902 213.144 501.918 212.996 501.918 212.836C501.918 212.499 501.826 212.243 501.642 212.066C501.457 211.89 501.181 211.802 500.812 211.802C500.331 211.802 499.93 211.942 499.61 212.223C499.297 212.495 499.085 212.908 498.973 213.461L498.323 216.743H496.448L498.227 207.823H500.103L499.502 210.864C500.055 210.407 500.72 210.179 501.497 210.179ZM506.047 210.275H507.91L506.624 216.743H504.76L506.047 210.275ZM507.297 209.373C506.976 209.373 506.712 209.281 506.504 209.097C506.303 208.905 506.203 208.672 506.203 208.4C506.203 208.079 506.315 207.814 506.54 207.606C506.772 207.39 507.073 207.281 507.441 207.281C507.77 207.281 508.034 207.374 508.235 207.558C508.443 207.734 508.547 207.955 508.547 208.219C508.547 208.564 508.431 208.844 508.199 209.061C507.966 209.269 507.666 209.373 507.297 209.373ZM511.274 211.045C511.555 210.74 511.891 210.52 512.284 210.383C512.685 210.247 513.154 210.179 513.691 210.179L513.354 211.91C513.13 211.894 512.985 211.886 512.921 211.886C512.352 211.886 511.895 212.026 511.551 212.307C511.214 212.587 510.986 213.024 510.865 213.617L510.24 216.743H508.365L509.651 210.275H511.43L511.274 211.045ZM518.316 213.088L520.54 216.743H518.364L516.826 214.23L515.683 215.18L515.371 216.743H513.495L515.275 207.823H517.15L516.152 212.812L519.254 210.275H521.695L518.316 213.088ZM524.341 216.839C523.692 216.839 523.118 216.719 522.622 216.479C522.133 216.238 521.752 215.902 521.479 215.469C521.215 215.028 521.083 214.519 521.083 213.942C521.083 213.229 521.251 212.587 521.588 212.018C521.924 211.449 522.389 211 522.982 210.672C523.575 210.343 524.245 210.179 524.99 210.179C525.647 210.179 526.22 210.299 526.709 210.54C527.198 210.78 527.575 211.121 527.839 211.561C528.112 211.994 528.248 212.499 528.248 213.076C528.248 213.79 528.08 214.431 527.743 215C527.414 215.569 526.95 216.018 526.348 216.346C525.755 216.675 525.086 216.839 524.341 216.839ZM524.461 215.288C524.822 215.288 525.146 215.2 525.435 215.024C525.723 214.84 525.948 214.587 526.108 214.267C526.268 213.946 526.348 213.577 526.348 213.16C526.348 212.72 526.22 212.371 525.964 212.115C525.707 211.858 525.347 211.73 524.882 211.73C524.513 211.73 524.184 211.822 523.896 212.006C523.607 212.183 523.383 212.431 523.223 212.752C523.062 213.072 522.982 213.441 522.982 213.858C522.982 214.299 523.11 214.647 523.367 214.904C523.631 215.16 523.996 215.288 524.461 215.288ZM536.631 210.275L535.345 216.743H533.566L533.698 216.046C533.417 216.31 533.097 216.511 532.736 216.647C532.375 216.775 531.995 216.839 531.594 216.839C530.889 216.839 530.323 216.647 529.899 216.262C529.482 215.878 529.273 215.337 529.273 214.639C529.273 214.375 529.302 214.114 529.358 213.858L530.067 210.275H531.942L531.257 213.738C531.225 213.89 531.209 214.046 531.209 214.206C531.209 214.88 531.57 215.216 532.291 215.216C532.764 215.216 533.153 215.08 533.457 214.808C533.77 214.527 533.982 214.11 534.094 213.557L534.756 210.275H536.631ZM542.132 210.179C542.853 210.179 543.426 210.371 543.851 210.756C544.276 211.141 544.488 211.686 544.488 212.391C544.488 212.648 544.46 212.904 544.404 213.16L543.683 216.743H541.807L542.504 213.281C542.537 213.144 542.553 212.996 542.553 212.836C542.553 212.499 542.46 212.243 542.276 212.066C542.092 211.89 541.815 211.802 541.447 211.802C540.966 211.802 540.565 211.942 540.244 212.223C539.932 212.495 539.719 212.908 539.607 213.461L538.958 216.743H537.082L538.862 207.823H540.737L540.136 210.864C540.689 210.407 541.354 210.179 542.132 210.179ZM546.681 210.275H548.545L547.258 216.743H545.395L546.681 210.275ZM547.932 209.373C547.611 209.373 547.346 209.281 547.138 209.097C546.938 208.905 546.837 208.672 546.837 208.4C546.837 208.079 546.95 207.814 547.174 207.606C547.407 207.39 547.707 207.281 548.076 207.281C548.404 207.281 548.669 207.374 548.869 207.558C549.078 207.734 549.182 207.955 549.182 208.219C549.182 208.564 549.066 208.844 548.833 209.061C548.601 209.269 548.3 209.373 547.932 209.373Z" fill="white"/>
<path d="M441.324 194.843L440.879 197.067H444.786L444.461 198.63H440.578L439.965 201.696H438.005L439.689 193.28H446.048L445.724 194.843H441.324ZM453.25 195.228L451.963 201.696H450.184L450.304 201.059C449.767 201.548 449.106 201.792 448.321 201.792C447.816 201.792 447.351 201.676 446.926 201.443C446.501 201.211 446.161 200.878 445.904 200.445C445.656 200.005 445.531 199.488 445.531 198.895C445.531 198.181 445.688 197.54 446 196.971C446.321 196.394 446.754 195.945 447.299 195.624C447.844 195.296 448.445 195.132 449.102 195.132C450.096 195.132 450.797 195.456 451.206 196.105L451.374 195.228H453.25ZM448.898 200.241C449.266 200.241 449.595 200.153 449.884 199.977C450.172 199.792 450.397 199.54 450.557 199.219C450.717 198.899 450.797 198.53 450.797 198.113C450.797 197.672 450.665 197.324 450.401 197.067C450.144 196.811 449.783 196.682 449.319 196.682C448.95 196.682 448.621 196.775 448.333 196.959C448.044 197.135 447.82 197.384 447.659 197.704C447.499 198.025 447.419 198.394 447.419 198.81C447.419 199.251 447.547 199.6 447.804 199.856C448.068 200.113 448.433 200.241 448.898 200.241ZM457.114 201.792C456.449 201.792 455.868 201.672 455.371 201.431C454.874 201.191 454.489 200.854 454.217 200.421C453.952 199.981 453.82 199.472 453.82 198.895C453.82 198.181 453.988 197.54 454.325 196.971C454.662 196.402 455.131 195.953 455.732 195.624C456.333 195.296 457.01 195.132 457.763 195.132C458.453 195.132 459.046 195.276 459.543 195.564C460.048 195.845 460.424 196.246 460.673 196.767L459.086 197.56C458.805 196.975 458.324 196.682 457.643 196.682C457.275 196.682 456.942 196.775 456.645 196.959C456.357 197.135 456.128 197.384 455.96 197.704C455.8 198.025 455.72 198.39 455.72 198.798C455.72 199.239 455.852 199.592 456.116 199.856C456.381 200.113 456.75 200.241 457.222 200.241C457.912 200.241 458.441 199.953 458.809 199.375L460.192 200.241C459.879 200.73 459.451 201.111 458.906 201.383C458.369 201.656 457.771 201.792 457.114 201.792ZM467.742 197.981C467.742 198.277 467.706 198.606 467.634 198.967H462.68C462.745 199.848 463.302 200.289 464.352 200.289C464.68 200.289 464.993 200.237 465.289 200.133C465.594 200.029 465.858 199.88 466.083 199.688L466.864 200.926C466.504 201.215 466.091 201.431 465.626 201.576C465.161 201.72 464.672 201.792 464.159 201.792C463.494 201.792 462.909 201.676 462.404 201.443C461.907 201.203 461.522 200.862 461.25 200.421C460.985 199.981 460.853 199.472 460.853 198.895C460.853 198.181 461.013 197.54 461.334 196.971C461.663 196.394 462.115 195.945 462.692 195.624C463.27 195.296 463.927 195.132 464.664 195.132C465.289 195.132 465.83 195.248 466.287 195.48C466.752 195.713 467.109 196.045 467.357 196.478C467.614 196.911 467.742 197.412 467.742 197.981ZM464.58 196.538C464.139 196.538 463.766 196.658 463.462 196.899C463.157 197.131 462.941 197.456 462.813 197.873H466.023C466.023 197.456 465.89 197.131 465.626 196.899C465.369 196.658 465.021 196.538 464.58 196.538ZM473.187 195.132C473.692 195.132 474.157 195.248 474.582 195.48C475.015 195.713 475.355 196.049 475.604 196.49C475.86 196.923 475.988 197.436 475.988 198.029C475.988 198.742 475.828 199.387 475.508 199.965C475.195 200.534 474.766 200.982 474.221 201.311C473.676 201.632 473.071 201.792 472.406 201.792C471.901 201.792 471.464 201.704 471.095 201.527C470.727 201.351 470.442 201.087 470.242 200.734L470.049 201.696H468.27L470.049 192.775H471.925L471.324 195.781C471.845 195.348 472.466 195.132 473.187 195.132ZM472.189 200.241C472.558 200.241 472.887 200.153 473.175 199.977C473.464 199.792 473.688 199.54 473.848 199.219C474.009 198.899 474.089 198.53 474.089 198.113C474.089 197.672 473.957 197.324 473.692 197.067C473.436 196.811 473.075 196.682 472.61 196.682C472.249 196.682 471.925 196.775 471.636 196.959C471.348 197.135 471.123 197.384 470.963 197.704C470.803 198.025 470.723 198.394 470.723 198.81C470.723 199.251 470.851 199.6 471.107 199.856C471.364 200.113 471.724 200.241 472.189 200.241ZM479.949 201.792C479.3 201.792 478.727 201.672 478.23 201.431C477.741 201.191 477.36 200.854 477.088 200.421C476.823 199.981 476.691 199.472 476.691 198.895C476.691 198.181 476.859 197.54 477.196 196.971C477.533 196.402 477.997 195.953 478.59 195.624C479.184 195.296 479.853 195.132 480.598 195.132C481.255 195.132 481.829 195.252 482.317 195.492C482.806 195.733 483.183 196.073 483.448 196.514C483.72 196.947 483.856 197.452 483.856 198.029C483.856 198.742 483.688 199.383 483.351 199.953C483.023 200.522 482.558 200.97 481.957 201.299C481.364 201.628 480.694 201.792 479.949 201.792ZM480.069 200.241C480.43 200.241 480.755 200.153 481.043 199.977C481.332 199.792 481.556 199.54 481.716 199.219C481.877 198.899 481.957 198.53 481.957 198.113C481.957 197.672 481.829 197.324 481.572 197.067C481.316 196.811 480.955 196.682 480.49 196.682C480.121 196.682 479.793 196.775 479.504 196.959C479.216 197.135 478.991 197.384 478.831 197.704C478.671 198.025 478.59 198.394 478.59 198.81C478.59 199.251 478.719 199.6 478.975 199.856C479.24 200.113 479.604 200.241 480.069 200.241ZM487.815 201.792C487.166 201.792 486.593 201.672 486.096 201.431C485.607 201.191 485.226 200.854 484.954 200.421C484.689 199.981 484.557 199.472 484.557 198.895C484.557 198.181 484.725 197.54 485.062 196.971C485.399 196.402 485.864 195.953 486.457 195.624C487.05 195.296 487.719 195.132 488.464 195.132C489.122 195.132 489.695 195.252 490.184 195.492C490.673 195.733 491.049 196.073 491.314 196.514C491.586 196.947 491.723 197.452 491.723 198.029C491.723 198.742 491.554 199.383 491.218 199.953C490.889 200.522 490.424 200.97 489.823 201.299C489.23 201.628 488.561 201.792 487.815 201.792ZM487.935 200.241C488.296 200.241 488.621 200.153 488.909 199.977C489.198 199.792 489.422 199.54 489.583 199.219C489.743 198.899 489.823 198.53 489.823 198.113C489.823 197.672 489.695 197.324 489.438 197.067C489.182 196.811 488.821 196.682 488.356 196.682C487.988 196.682 487.659 196.775 487.37 196.959C487.082 197.135 486.857 197.384 486.697 197.704C486.537 198.025 486.457 198.394 486.457 198.81C486.457 199.251 486.585 199.6 486.841 199.856C487.106 200.113 487.471 200.241 487.935 200.241ZM497.124 198.041L499.348 201.696H497.172L495.633 199.183L494.491 200.133L494.179 201.696H492.303L494.083 192.775H495.958L494.96 197.764L498.062 195.228H500.503L497.124 198.041ZM501.771 197.476C501.451 197.476 501.186 197.376 500.978 197.175C500.769 196.967 500.665 196.706 500.665 196.394C500.665 196.025 500.785 195.725 501.026 195.492C501.266 195.26 501.563 195.144 501.916 195.144C502.236 195.144 502.497 195.244 502.697 195.444C502.905 195.644 503.01 195.905 503.01 196.226C503.01 196.586 502.885 196.887 502.637 197.127C502.396 197.36 502.108 197.476 501.771 197.476ZM500.906 201.792C500.585 201.792 500.321 201.692 500.112 201.491C499.904 201.283 499.8 201.023 499.8 200.71C499.8 200.341 499.92 200.041 500.16 199.808C500.401 199.576 500.697 199.46 501.05 199.46C501.371 199.46 501.631 199.56 501.831 199.76C502.04 199.961 502.144 200.221 502.144 200.542C502.144 200.902 502.02 201.203 501.771 201.443C501.531 201.676 501.242 201.792 500.906 201.792Z" fill="white"/>
<path d="M444.771 261.434L443.485 267.902H441.705L441.825 267.265C441.288 267.754 440.627 267.999 439.842 267.999C439.337 267.999 438.872 267.882 438.447 267.65C438.022 267.417 437.682 267.085 437.425 266.652C437.177 266.211 437.053 265.694 437.053 265.101C437.053 264.388 437.209 263.747 437.521 263.178C437.842 262.6 438.275 262.152 438.82 261.831C439.365 261.502 439.966 261.338 440.623 261.338C441.617 261.338 442.318 261.663 442.727 262.312L442.895 261.434H444.771ZM440.419 266.448C440.788 266.448 441.116 266.359 441.405 266.183C441.693 265.999 441.918 265.746 442.078 265.426C442.238 265.105 442.318 264.736 442.318 264.32C442.318 263.879 442.186 263.53 441.922 263.274C441.665 263.017 441.305 262.889 440.84 262.889C440.471 262.889 440.142 262.981 439.854 263.165C439.565 263.342 439.341 263.59 439.181 263.911C439.02 264.231 438.94 264.6 438.94 265.017C438.94 265.458 439.068 265.806 439.325 266.063C439.589 266.319 439.954 266.448 440.419 266.448ZM448.13 262.204C448.411 261.899 448.748 261.679 449.14 261.542C449.541 261.406 450.01 261.338 450.547 261.338L450.21 263.069C449.986 263.053 449.842 263.045 449.777 263.045C449.208 263.045 448.752 263.186 448.407 263.466C448.07 263.747 447.842 264.183 447.722 264.777L447.096 267.902H445.221L446.507 261.434H448.287L448.13 262.204ZM452.732 267.999C452.17 267.999 451.637 267.938 451.133 267.818C450.636 267.69 450.247 267.526 449.966 267.325L450.688 265.967C450.968 266.151 451.309 266.299 451.71 266.412C452.118 266.524 452.527 266.58 452.936 266.58C453.361 266.58 453.677 266.528 453.886 266.424C454.094 266.311 454.198 266.155 454.198 265.955C454.198 265.794 454.106 265.678 453.922 265.606C453.737 265.534 453.441 265.458 453.032 265.378C452.567 265.289 452.183 265.193 451.878 265.089C451.581 264.985 451.321 264.817 451.096 264.584C450.88 264.344 450.772 264.019 450.772 263.61C450.772 262.897 451.068 262.34 451.662 261.939C452.263 261.538 453.048 261.338 454.018 261.338C454.467 261.338 454.904 261.386 455.328 261.482C455.753 261.579 456.114 261.711 456.41 261.879L455.737 263.25C455.208 262.921 454.571 262.757 453.826 262.757C453.417 262.757 453.104 262.817 452.888 262.937C452.679 263.057 452.575 263.21 452.575 263.394C452.575 263.562 452.667 263.686 452.852 263.767C453.036 263.839 453.345 263.919 453.777 264.007C454.234 264.095 454.607 264.191 454.896 264.296C455.192 264.392 455.449 264.556 455.665 264.789C455.881 265.021 455.99 265.338 455.99 265.738C455.99 266.46 455.685 267.017 455.076 267.409C454.475 267.802 453.693 267.999 452.732 267.999ZM461.812 261.338C462.533 261.338 463.106 261.53 463.531 261.915C463.956 262.3 464.168 262.845 464.168 263.55C464.168 263.807 464.14 264.063 464.084 264.32L463.362 267.902H461.487L462.184 264.44C462.216 264.304 462.232 264.155 462.232 263.995C462.232 263.658 462.14 263.402 461.956 263.226C461.771 263.049 461.495 262.961 461.126 262.961C460.645 262.961 460.245 263.101 459.924 263.382C459.611 263.654 459.399 264.067 459.287 264.62L458.638 267.902H456.762L458.541 258.982H460.417L459.816 262.023C460.369 261.567 461.034 261.338 461.812 261.338ZM472.996 261.434L471.709 267.902H469.93L470.05 267.265C469.513 267.754 468.852 267.999 468.066 267.999C467.561 267.999 467.097 267.882 466.672 267.65C466.247 267.417 465.906 267.085 465.65 266.652C465.401 266.211 465.277 265.694 465.277 265.101C465.277 264.388 465.433 263.747 465.746 263.178C466.067 262.6 466.499 262.152 467.044 261.831C467.589 261.502 468.191 261.338 468.848 261.338C469.842 261.338 470.543 261.663 470.952 262.312L471.12 261.434H472.996ZM468.643 266.448C469.012 266.448 469.341 266.359 469.629 266.183C469.918 265.999 470.142 265.746 470.303 265.426C470.463 265.105 470.543 264.736 470.543 264.32C470.543 263.879 470.411 263.53 470.146 263.274C469.89 263.017 469.529 262.889 469.064 262.889C468.696 262.889 468.367 262.981 468.078 263.165C467.79 263.342 467.565 263.59 467.405 263.911C467.245 264.231 467.165 264.6 467.165 265.017C467.165 265.458 467.293 265.806 467.549 266.063C467.814 266.319 468.179 266.448 468.643 266.448ZM482.847 261.338C483.552 261.338 484.114 261.53 484.53 261.915C484.947 262.292 485.155 262.829 485.155 263.526C485.155 263.783 485.127 264.047 485.071 264.32L484.362 267.902H482.486L483.172 264.452C483.204 264.292 483.22 264.127 483.22 263.959C483.22 263.63 483.132 263.382 482.955 263.214C482.787 263.045 482.535 262.961 482.198 262.961C481.292 262.961 480.727 263.502 480.503 264.584L479.842 267.902H477.966L478.651 264.452C478.683 264.292 478.699 264.131 478.699 263.971C478.699 263.642 478.611 263.394 478.435 263.226C478.267 263.049 478.014 262.961 477.677 262.961C476.772 262.961 476.203 263.51 475.97 264.608L475.321 267.902H473.446L474.732 261.434H476.511L476.367 262.108C476.928 261.595 477.605 261.338 478.399 261.338C478.848 261.338 479.244 261.43 479.589 261.615C479.942 261.791 480.206 262.051 480.383 262.396C480.695 262.051 481.06 261.791 481.477 261.615C481.893 261.43 482.35 261.338 482.847 261.338ZM485.177 267.902H491.189L490.972 268.984H484.961L485.177 267.902ZM494.54 267.999C493.979 267.999 493.446 267.938 492.941 267.818C492.444 267.69 492.055 267.526 491.775 267.325L492.496 265.967C492.777 266.151 493.117 266.299 493.518 266.412C493.927 266.524 494.336 266.58 494.744 266.58C495.169 266.58 495.486 266.528 495.694 266.424C495.903 266.311 496.007 266.155 496.007 265.955C496.007 265.794 495.915 265.678 495.73 265.606C495.546 265.534 495.249 265.458 494.841 265.378C494.376 265.289 493.991 265.193 493.687 265.089C493.39 264.985 493.129 264.817 492.905 264.584C492.689 264.344 492.58 264.019 492.58 263.61C492.58 262.897 492.877 262.34 493.47 261.939C494.071 261.538 494.857 261.338 495.827 261.338C496.275 261.338 496.712 261.386 497.137 261.482C497.562 261.579 497.922 261.711 498.219 261.879L497.546 263.25C497.017 262.921 496.38 262.757 495.634 262.757C495.225 262.757 494.913 262.817 494.696 262.937C494.488 263.057 494.384 263.21 494.384 263.394C494.384 263.562 494.476 263.686 494.66 263.767C494.845 263.839 495.153 263.919 495.586 264.007C496.043 264.095 496.416 264.191 496.704 264.296C497.001 264.392 497.257 264.556 497.474 264.789C497.69 265.021 497.798 265.338 497.798 265.738C497.798 266.46 497.494 267.017 496.884 267.409C496.283 267.802 495.502 267.999 494.54 267.999ZM503.62 261.338C504.341 261.338 504.914 261.53 505.339 261.915C505.764 262.3 505.976 262.845 505.976 263.55C505.976 263.807 505.948 264.063 505.892 264.32L505.171 267.902H503.295L503.993 264.44C504.025 264.304 504.041 264.155 504.041 263.995C504.041 263.658 503.949 263.402 503.764 263.226C503.58 263.049 503.303 262.961 502.935 262.961C502.454 262.961 502.053 263.101 501.733 263.382C501.42 263.654 501.208 264.067 501.095 264.62L500.446 267.902H498.571L500.35 258.982H502.225L501.624 262.023C502.177 261.567 502.843 261.338 503.62 261.338ZM508.169 261.434H510.033L508.747 267.902H506.883L508.169 261.434ZM509.42 260.533C509.099 260.533 508.835 260.44 508.626 260.256C508.426 260.064 508.326 259.831 508.326 259.559C508.326 259.238 508.438 258.974 508.662 258.765C508.895 258.549 509.195 258.441 509.564 258.441C509.893 258.441 510.157 258.533 510.358 258.717C510.566 258.894 510.67 259.114 510.67 259.378C510.67 259.723 510.554 260.004 510.321 260.22C510.089 260.428 509.788 260.533 509.42 260.533ZM513.397 262.204C513.677 261.899 514.014 261.679 514.407 261.542C514.807 261.406 515.276 261.338 515.813 261.338L515.477 263.069C515.252 263.053 515.108 263.045 515.044 263.045C514.475 263.045 514.018 263.186 513.673 263.466C513.337 263.747 513.108 264.183 512.988 264.777L512.363 267.902H510.487L511.774 261.434H513.553L513.397 262.204ZM520.439 264.248L522.663 267.902H520.487L518.948 265.39L517.806 266.339L517.494 267.902H515.618L517.397 258.982H519.273L518.275 263.971L521.377 261.434H523.817L520.439 264.248ZM526.463 267.999C525.814 267.999 525.241 267.878 524.744 267.638C524.255 267.397 523.875 267.061 523.602 266.628C523.338 266.187 523.205 265.678 523.205 265.101C523.205 264.388 523.374 263.747 523.71 263.178C524.047 262.608 524.512 262.16 525.105 261.831C525.698 261.502 526.367 261.338 527.113 261.338C527.77 261.338 528.343 261.458 528.832 261.699C529.321 261.939 529.698 262.28 529.962 262.721C530.235 263.153 530.371 263.658 530.371 264.235C530.371 264.949 530.202 265.59 529.866 266.159C529.537 266.728 529.072 267.177 528.471 267.506C527.878 267.834 527.209 267.999 526.463 267.999ZM526.584 266.448C526.944 266.448 527.269 266.359 527.558 266.183C527.846 265.999 528.07 265.746 528.231 265.426C528.391 265.105 528.471 264.736 528.471 264.32C528.471 263.879 528.343 263.53 528.087 263.274C527.83 263.017 527.469 262.889 527.004 262.889C526.636 262.889 526.307 262.981 526.019 263.165C525.73 263.342 525.506 263.59 525.345 263.911C525.185 264.231 525.105 264.6 525.105 265.017C525.105 265.458 525.233 265.806 525.49 266.063C525.754 266.319 526.119 266.448 526.584 266.448ZM538.754 261.434L537.468 267.902H535.688L535.821 267.205C535.54 267.47 535.219 267.67 534.859 267.806C534.498 267.934 534.117 267.999 533.717 267.999C533.011 267.999 532.446 267.806 532.021 267.421C531.605 267.037 531.396 266.496 531.396 265.798C531.396 265.534 531.424 265.273 531.48 265.017L532.19 261.434H534.065L533.38 264.897C533.348 265.049 533.332 265.205 533.332 265.366C533.332 266.039 533.693 266.375 534.414 266.375C534.887 266.375 535.276 266.239 535.58 265.967C535.893 265.686 536.105 265.269 536.217 264.716L536.878 261.434H538.754ZM544.255 261.338C544.976 261.338 545.549 261.53 545.974 261.915C546.399 262.3 546.611 262.845 546.611 263.55C546.611 263.807 546.583 264.063 546.527 264.32L545.805 267.902H543.93L544.627 264.44C544.659 264.304 544.675 264.155 544.675 263.995C544.675 263.658 544.583 263.402 544.399 263.226C544.214 263.049 543.938 262.961 543.569 262.961C543.088 262.961 542.688 263.101 542.367 263.382C542.054 263.654 541.842 264.067 541.73 264.62L541.081 267.902H539.205L540.984 258.982H542.86L542.259 262.023C542.812 261.567 543.477 261.338 544.255 261.338ZM548.804 261.434H550.667L549.381 267.902H547.518L548.804 261.434ZM550.054 260.533C549.734 260.533 549.469 260.44 549.261 260.256C549.06 260.064 548.96 259.831 548.96 259.559C548.96 259.238 549.072 258.974 549.297 258.765C549.529 258.549 549.83 258.441 550.199 258.441C550.527 258.441 550.792 258.533 550.992 258.717C551.2 258.894 551.305 259.114 551.305 259.378C551.305 259.723 551.188 260.004 550.956 260.22C550.724 260.428 550.423 260.533 550.054 260.533Z" fill="white"/>
<path d="M439.094 244.44H441.054L439.371 252.855H437.411L439.094 244.44ZM446.285 246.291C447.007 246.291 447.58 246.484 448.004 246.868C448.429 247.245 448.642 247.786 448.642 248.491C448.642 248.756 448.614 249.016 448.557 249.273L447.836 252.855H445.961L446.658 249.393C446.69 249.257 446.706 249.108 446.706 248.948C446.706 248.612 446.614 248.355 446.429 248.179C446.245 248.002 445.969 247.914 445.6 247.914C445.119 247.914 444.718 248.055 444.398 248.335C444.085 248.608 443.873 249.02 443.761 249.573L443.111 252.855H441.236L442.522 246.387H444.302L444.157 247.085C444.734 246.556 445.444 246.291 446.285 246.291ZM451.905 252.952C451.344 252.952 450.811 252.892 450.306 252.771C449.809 252.643 449.42 252.479 449.139 252.278L449.861 250.92C450.141 251.104 450.482 251.252 450.883 251.365C451.291 251.477 451.7 251.533 452.109 251.533C452.534 251.533 452.85 251.481 453.059 251.377C453.267 251.264 453.371 251.108 453.371 250.908C453.371 250.748 453.279 250.631 453.095 250.559C452.91 250.487 452.614 250.411 452.205 250.331C451.74 250.243 451.356 250.146 451.051 250.042C450.754 249.938 450.494 249.77 450.27 249.537C450.053 249.297 449.945 248.972 449.945 248.563C449.945 247.85 450.241 247.293 450.835 246.892C451.436 246.492 452.221 246.291 453.191 246.291C453.64 246.291 454.077 246.339 454.501 246.435C454.926 246.532 455.287 246.664 455.583 246.832L454.91 248.203C454.381 247.874 453.744 247.71 452.999 247.71C452.59 247.71 452.277 247.77 452.061 247.89C451.853 248.01 451.748 248.163 451.748 248.347C451.748 248.515 451.84 248.64 452.025 248.72C452.209 248.792 452.518 248.872 452.951 248.96C453.407 249.048 453.78 249.145 454.069 249.249C454.365 249.345 454.622 249.509 454.838 249.742C455.054 249.974 455.163 250.291 455.163 250.691C455.163 251.413 454.858 251.97 454.249 252.363C453.648 252.755 452.866 252.952 451.905 252.952ZM458.484 250.571C458.468 250.635 458.46 250.723 458.46 250.836C458.46 251.252 458.688 251.461 459.145 251.461C459.394 251.461 459.646 251.385 459.903 251.232L460.179 252.567C459.762 252.823 459.225 252.952 458.568 252.952C457.959 252.952 457.47 252.791 457.101 252.471C456.733 252.15 456.548 251.709 456.548 251.148C456.548 250.988 456.568 250.8 456.608 250.583L457.125 247.974H456.127L456.416 246.532H457.414L457.726 244.957H459.602L459.289 246.532H460.9L460.612 247.974H459.001L458.484 250.571ZM468.811 246.387L467.524 252.855H465.745L465.865 252.218C465.328 252.707 464.667 252.952 463.882 252.952C463.377 252.952 462.912 252.835 462.487 252.603C462.062 252.371 461.722 252.038 461.465 251.605C461.217 251.164 461.092 250.647 461.092 250.054C461.092 249.341 461.249 248.7 461.561 248.131C461.882 247.554 462.315 247.105 462.86 246.784C463.405 246.456 464.006 246.291 464.663 246.291C465.657 246.291 466.358 246.616 466.767 247.265L466.935 246.387H468.811ZM464.459 251.401C464.827 251.401 465.156 251.313 465.445 251.136C465.733 250.952 465.957 250.699 466.118 250.379C466.278 250.058 466.358 249.69 466.358 249.273C466.358 248.832 466.226 248.483 465.961 248.227C465.705 247.97 465.344 247.842 464.879 247.842C464.511 247.842 464.182 247.934 463.894 248.119C463.605 248.295 463.381 248.543 463.22 248.864C463.06 249.185 462.98 249.553 462.98 249.97C462.98 250.411 463.108 250.76 463.365 251.016C463.629 251.273 463.994 251.401 464.459 251.401ZM477.22 246.387L476.15 251.773C475.909 252.992 475.444 253.881 474.755 254.442C474.074 255.003 473.16 255.284 472.014 255.284C471.389 255.284 470.812 255.212 470.283 255.068C469.762 254.923 469.313 254.711 468.936 254.43L469.826 253.072C470.082 253.288 470.411 253.457 470.812 253.577C471.22 253.705 471.649 253.769 472.098 253.769C472.731 253.769 473.212 253.629 473.541 253.348C473.869 253.076 474.094 252.659 474.214 252.098L474.262 251.822C473.741 252.302 473.084 252.543 472.29 252.543C471.753 252.543 471.269 252.435 470.836 252.218C470.403 251.994 470.058 251.677 469.802 251.269C469.553 250.86 469.429 250.379 469.429 249.826C469.429 249.169 469.585 248.571 469.898 248.034C470.211 247.497 470.639 247.073 471.184 246.76C471.737 246.447 472.355 246.291 473.036 246.291C473.541 246.291 473.982 246.387 474.358 246.58C474.743 246.764 475.032 247.053 475.224 247.445L475.428 246.387H477.22ZM472.795 251.004C473.34 251.004 473.789 250.828 474.142 250.475C474.495 250.122 474.671 249.67 474.671 249.116C474.671 248.724 474.543 248.415 474.286 248.191C474.03 247.958 473.673 247.842 473.216 247.842C472.663 247.842 472.206 248.018 471.846 248.371C471.493 248.724 471.317 249.177 471.317 249.73C471.317 250.122 471.449 250.435 471.713 250.667C471.978 250.892 472.339 251.004 472.795 251.004ZM480.588 247.157C480.869 246.852 481.205 246.632 481.598 246.496C481.999 246.359 482.468 246.291 483.005 246.291L482.668 248.022C482.444 248.006 482.299 247.998 482.235 247.998C481.666 247.998 481.209 248.139 480.865 248.419C480.528 248.7 480.3 249.137 480.18 249.73L479.554 252.855H477.679L478.965 246.387H480.745L480.588 247.157ZM490.602 246.387L489.315 252.855H487.536L487.656 252.218C487.119 252.707 486.458 252.952 485.672 252.952C485.167 252.952 484.702 252.835 484.278 252.603C483.853 252.371 483.512 252.038 483.256 251.605C483.007 251.164 482.883 250.647 482.883 250.054C482.883 249.341 483.039 248.7 483.352 248.131C483.673 247.554 484.105 247.105 484.65 246.784C485.195 246.456 485.797 246.291 486.454 246.291C487.448 246.291 488.149 246.616 488.558 247.265L488.726 246.387H490.602ZM486.249 251.401C486.618 251.401 486.947 251.313 487.235 251.136C487.524 250.952 487.748 250.699 487.908 250.379C488.069 250.058 488.149 249.69 488.149 249.273C488.149 248.832 488.017 248.483 487.752 248.227C487.496 247.97 487.135 247.842 486.67 247.842C486.301 247.842 485.973 247.934 485.684 248.119C485.396 248.295 485.171 248.543 485.011 248.864C484.851 249.185 484.771 249.553 484.771 249.97C484.771 250.411 484.899 250.76 485.155 251.016C485.42 251.273 485.785 251.401 486.249 251.401ZM500.453 246.291C501.158 246.291 501.719 246.484 502.136 246.868C502.553 247.245 502.761 247.782 502.761 248.479C502.761 248.736 502.733 249 502.677 249.273L501.968 252.855H500.092L500.778 249.405C500.81 249.245 500.826 249.08 500.826 248.912C500.826 248.583 500.738 248.335 500.561 248.167C500.393 247.998 500.14 247.914 499.804 247.914C498.898 247.914 498.333 248.455 498.109 249.537L497.447 252.855H495.572L496.257 249.405C496.289 249.245 496.305 249.084 496.305 248.924C496.305 248.596 496.217 248.347 496.041 248.179C495.873 248.002 495.62 247.914 495.283 247.914C494.378 247.914 493.809 248.463 493.576 249.561L492.927 252.855H491.052L492.338 246.387H494.117L493.973 247.061C494.534 246.548 495.211 246.291 496.005 246.291C496.454 246.291 496.85 246.383 497.195 246.568C497.548 246.744 497.812 247.005 497.988 247.349C498.301 247.005 498.666 246.744 499.083 246.568C499.499 246.383 499.956 246.291 500.453 246.291ZM505.38 248.636C505.06 248.636 504.795 248.535 504.587 248.335C504.378 248.127 504.274 247.866 504.274 247.554C504.274 247.185 504.394 246.884 504.635 246.652C504.875 246.419 505.172 246.303 505.524 246.303C505.845 246.303 506.106 246.403 506.306 246.604C506.514 246.804 506.619 247.065 506.619 247.385C506.619 247.746 506.494 248.046 506.246 248.287C506.005 248.519 505.717 248.636 505.38 248.636ZM504.515 252.952C504.194 252.952 503.929 252.851 503.721 252.651C503.513 252.443 503.409 252.182 503.409 251.87C503.409 251.501 503.529 251.2 503.769 250.968C504.01 250.736 504.306 250.619 504.659 250.619C504.979 250.619 505.24 250.719 505.44 250.92C505.649 251.12 505.753 251.381 505.753 251.701C505.753 252.062 505.629 252.363 505.38 252.603C505.14 252.835 504.851 252.952 504.515 252.952Z" fill="white"/>
<path d="M440.858 312.595L439.572 319.063H437.793L437.913 318.426C437.376 318.915 436.715 319.16 435.929 319.16C435.424 319.16 434.959 319.043 434.535 318.811C434.11 318.579 433.769 318.246 433.513 317.813C433.264 317.372 433.14 316.855 433.14 316.262C433.14 315.549 433.296 314.908 433.609 314.339C433.929 313.762 434.362 313.313 434.907 312.992C435.452 312.664 436.053 312.499 436.711 312.499C437.704 312.499 438.406 312.824 438.815 313.473L438.983 312.595H440.858ZM436.506 317.609C436.875 317.609 437.204 317.521 437.492 317.344C437.781 317.16 438.005 316.907 438.165 316.587C438.326 316.266 438.406 315.898 438.406 315.481C438.406 315.04 438.274 314.691 438.009 314.435C437.753 314.178 437.392 314.05 436.927 314.05C436.558 314.05 436.23 314.142 435.941 314.327C435.653 314.503 435.428 314.751 435.268 315.072C435.108 315.393 435.027 315.761 435.027 316.178C435.027 316.619 435.156 316.968 435.412 317.224C435.677 317.481 436.041 317.609 436.506 317.609ZM444.218 313.365C444.498 313.06 444.835 312.84 445.228 312.704C445.628 312.567 446.097 312.499 446.634 312.499L446.298 314.23C446.073 314.214 445.929 314.206 445.865 314.206C445.296 314.206 444.839 314.347 444.494 314.627C444.158 314.908 443.929 315.345 443.809 315.938L443.184 319.063H441.308L442.595 312.595H444.374L444.218 313.365ZM448.819 319.16C448.258 319.16 447.725 319.1 447.22 318.979C446.723 318.851 446.334 318.687 446.054 318.486L446.775 317.128C447.056 317.312 447.396 317.46 447.797 317.573C448.206 317.685 448.615 317.741 449.023 317.741C449.448 317.741 449.765 317.689 449.973 317.585C450.181 317.473 450.286 317.316 450.286 317.116C450.286 316.956 450.194 316.839 450.009 316.767C449.825 316.695 449.528 316.619 449.12 316.539C448.655 316.451 448.27 316.354 447.965 316.25C447.669 316.146 447.408 315.978 447.184 315.745C446.967 315.505 446.859 315.18 446.859 314.771C446.859 314.058 447.156 313.501 447.749 313.1C448.35 312.7 449.136 312.499 450.105 312.499C450.554 312.499 450.991 312.547 451.416 312.643C451.841 312.74 452.201 312.872 452.498 313.04L451.825 314.411C451.296 314.082 450.658 313.918 449.913 313.918C449.504 313.918 449.192 313.978 448.975 314.098C448.767 314.218 448.663 314.371 448.663 314.555C448.663 314.723 448.755 314.848 448.939 314.928C449.124 315 449.432 315.08 449.865 315.168C450.322 315.256 450.694 315.353 450.983 315.457C451.28 315.553 451.536 315.717 451.752 315.95C451.969 316.182 452.077 316.499 452.077 316.899C452.077 317.621 451.772 318.178 451.163 318.571C450.562 318.963 449.781 319.16 448.819 319.16ZM457.899 312.499C458.62 312.499 459.193 312.692 459.618 313.076C460.043 313.461 460.255 314.006 460.255 314.711C460.255 314.968 460.227 315.224 460.171 315.481L459.45 319.063H457.574L458.272 315.601C458.304 315.465 458.32 315.316 458.32 315.156C458.32 314.82 458.228 314.563 458.043 314.387C457.859 314.21 457.582 314.122 457.214 314.122C456.733 314.122 456.332 314.263 456.011 314.543C455.699 314.816 455.486 315.228 455.374 315.781L454.725 319.063H452.849L454.629 310.143H456.504L455.903 313.184C456.456 312.728 457.121 312.499 457.899 312.499ZM469.083 312.595L467.797 319.063H466.017L466.137 318.426C465.6 318.915 464.939 319.16 464.154 319.16C463.649 319.16 463.184 319.043 462.759 318.811C462.334 318.579 461.994 318.246 461.737 317.813C461.489 317.372 461.365 316.855 461.365 316.262C461.365 315.549 461.521 314.908 461.833 314.339C462.154 313.762 462.587 313.313 463.132 312.992C463.677 312.664 464.278 312.499 464.935 312.499C465.929 312.499 466.63 312.824 467.039 313.473L467.207 312.595H469.083ZM464.731 317.609C465.1 317.609 465.428 317.521 465.717 317.344C466.005 317.16 466.23 316.907 466.39 316.587C466.55 316.266 466.63 315.898 466.63 315.481C466.63 315.04 466.498 314.691 466.234 314.435C465.977 314.178 465.617 314.05 465.152 314.05C464.783 314.05 464.454 314.142 464.166 314.327C463.877 314.503 463.653 314.751 463.493 315.072C463.332 315.393 463.252 315.761 463.252 316.178C463.252 316.619 463.38 316.968 463.637 317.224C463.901 317.481 464.266 317.609 464.731 317.609ZM478.935 312.499C479.64 312.499 480.201 312.692 480.618 313.076C481.034 313.453 481.243 313.99 481.243 314.687C481.243 314.944 481.215 315.208 481.159 315.481L480.449 319.063H478.574L479.259 315.613C479.291 315.453 479.307 315.288 479.307 315.12C479.307 314.791 479.219 314.543 479.043 314.375C478.874 314.206 478.622 314.122 478.285 314.122C477.38 314.122 476.815 314.663 476.59 315.745L475.929 319.063H474.053L474.739 315.613C474.771 315.453 474.787 315.292 474.787 315.132C474.787 314.804 474.699 314.555 474.522 314.387C474.354 314.21 474.102 314.122 473.765 314.122C472.859 314.122 472.29 314.671 472.058 315.769L471.408 319.063H469.533L470.819 312.595H472.599L472.454 313.269C473.015 312.756 473.693 312.499 474.486 312.499C474.935 312.499 475.332 312.591 475.676 312.776C476.029 312.952 476.294 313.213 476.47 313.557C476.783 313.213 477.147 312.952 477.564 312.776C477.981 312.591 478.438 312.499 478.935 312.499ZM486.44 310.648L484.757 319.063H482.809L484.18 312.211H482.496L482.809 310.648H486.44ZM489.994 319.208C489.056 319.208 488.315 318.927 487.77 318.366C487.225 317.797 486.952 317.016 486.952 316.022C486.952 315.012 487.136 314.086 487.505 313.245C487.882 312.403 488.403 311.738 489.068 311.249C489.733 310.752 490.491 310.503 491.34 310.503C492.278 310.503 493.019 310.788 493.564 311.357C494.109 311.918 494.382 312.696 494.382 313.689C494.382 314.699 494.194 315.625 493.817 316.467C493.448 317.308 492.931 317.977 492.266 318.474C491.601 318.963 490.843 319.208 489.994 319.208ZM490.174 317.561C490.639 317.561 491.04 317.36 491.376 316.96C491.721 316.559 491.981 316.062 492.158 315.469C492.334 314.868 492.422 314.291 492.422 313.738C492.422 313.201 492.31 312.804 492.086 312.547C491.869 312.283 491.561 312.151 491.16 312.151C490.695 312.151 490.29 312.351 489.946 312.752C489.609 313.152 489.352 313.653 489.176 314.254C489 314.848 488.912 315.421 488.912 315.974C488.912 316.511 489.02 316.911 489.236 317.176C489.461 317.432 489.773 317.561 490.174 317.561Z" fill="white"/>
<path d="M440.115 299.676H441.894L441.197 303.138C440.772 303.467 440.279 303.72 439.718 303.896C439.157 304.072 438.576 304.16 437.975 304.16C437.133 304.16 436.4 304.008 435.775 303.704C435.15 303.399 434.665 302.97 434.32 302.417C433.984 301.864 433.815 301.227 433.815 300.506C433.815 299.552 434.036 298.69 434.477 297.921C434.917 297.151 435.539 296.55 436.34 296.117C437.142 295.677 438.063 295.456 439.105 295.456C439.907 295.456 440.6 295.58 441.185 295.829C441.778 296.077 442.255 296.442 442.616 296.923L441.221 298.053C440.941 297.724 440.624 297.488 440.271 297.344C439.919 297.191 439.502 297.115 439.021 297.115C438.38 297.115 437.815 297.259 437.326 297.548C436.837 297.829 436.456 298.217 436.184 298.714C435.919 299.211 435.787 299.768 435.787 300.385C435.787 301.035 435.995 301.552 436.412 301.936C436.837 302.313 437.442 302.501 438.228 302.501C438.724 302.501 439.189 302.401 439.622 302.201L440.115 299.676ZM443.992 297.548H445.856L444.569 304.016H442.706L443.992 297.548ZM445.242 296.646C444.922 296.646 444.657 296.554 444.449 296.37C444.249 296.177 444.148 295.945 444.148 295.673C444.148 295.352 444.261 295.087 444.485 294.879C444.717 294.663 445.018 294.554 445.387 294.554C445.715 294.554 445.98 294.647 446.18 294.831C446.389 295.007 446.493 295.228 446.493 295.492C446.493 295.837 446.377 296.117 446.144 296.334C445.912 296.542 445.611 296.646 445.242 296.646ZM448.859 301.732C448.843 301.796 448.835 301.884 448.835 301.996C448.835 302.413 449.063 302.622 449.52 302.622C449.769 302.622 450.021 302.545 450.278 302.393L450.554 303.728C450.137 303.984 449.6 304.112 448.943 304.112C448.334 304.112 447.845 303.952 447.476 303.631C447.108 303.311 446.923 302.87 446.923 302.309C446.923 302.149 446.943 301.96 446.983 301.744L447.5 299.135H446.502L446.791 297.692H447.789L448.101 296.117H449.977L449.664 297.692H451.275L450.987 299.135H449.376L448.859 301.732ZM456.584 297.452C457.305 297.452 457.879 297.644 458.303 298.029C458.728 298.414 458.941 298.959 458.941 299.664C458.941 299.92 458.912 300.177 458.856 300.433L458.135 304.016H456.26L456.957 300.554C456.989 300.417 457.005 300.269 457.005 300.109C457.005 299.772 456.913 299.516 456.728 299.339C456.544 299.163 456.268 299.075 455.899 299.075C455.418 299.075 455.017 299.215 454.697 299.496C454.384 299.768 454.172 300.181 454.059 300.734L453.41 304.016H451.535L453.314 295.095H455.19L454.588 298.137C455.141 297.68 455.807 297.452 456.584 297.452ZM467.65 297.548L466.363 304.016H464.584L464.716 303.319C464.436 303.583 464.115 303.784 463.754 303.92C463.394 304.048 463.013 304.112 462.612 304.112C461.907 304.112 461.342 303.92 460.917 303.535C460.5 303.15 460.292 302.609 460.292 301.912C460.292 301.648 460.32 301.387 460.376 301.131L461.085 297.548H462.961L462.276 301.01C462.244 301.163 462.228 301.319 462.228 301.479C462.228 302.153 462.588 302.489 463.31 302.489C463.782 302.489 464.171 302.353 464.476 302.08C464.788 301.8 465.001 301.383 465.113 300.83L465.774 297.548H467.65ZM473.018 297.452C473.523 297.452 473.988 297.568 474.413 297.801C474.845 298.033 475.186 298.37 475.435 298.81C475.691 299.243 475.819 299.756 475.819 300.349C475.819 301.063 475.659 301.708 475.338 302.285C475.026 302.854 474.597 303.303 474.052 303.631C473.507 303.952 472.902 304.112 472.237 304.112C471.732 304.112 471.295 304.024 470.926 303.848C470.557 303.671 470.273 303.407 470.072 303.054L469.88 304.016H468.101L469.88 295.095H471.756L471.155 298.101C471.675 297.668 472.297 297.452 473.018 297.452ZM472.02 302.561C472.389 302.561 472.717 302.473 473.006 302.297C473.295 302.113 473.519 301.86 473.679 301.539C473.84 301.219 473.92 300.85 473.92 300.433C473.92 299.993 473.787 299.644 473.523 299.387C473.266 299.131 472.906 299.003 472.441 299.003C472.08 299.003 471.756 299.095 471.467 299.279C471.179 299.456 470.954 299.704 470.794 300.025C470.634 300.345 470.553 300.714 470.553 301.131C470.553 301.572 470.682 301.92 470.938 302.177C471.195 302.433 471.555 302.561 472.02 302.561ZM478.121 299.796C477.8 299.796 477.536 299.696 477.327 299.496C477.119 299.287 477.015 299.027 477.015 298.714C477.015 298.346 477.135 298.045 477.375 297.813C477.616 297.58 477.912 297.464 478.265 297.464C478.586 297.464 478.846 297.564 479.046 297.764C479.255 297.965 479.359 298.225 479.359 298.546C479.359 298.907 479.235 299.207 478.986 299.448C478.746 299.68 478.457 299.796 478.121 299.796ZM477.255 304.112C476.934 304.112 476.67 304.012 476.462 303.812C476.253 303.603 476.149 303.343 476.149 303.03C476.149 302.662 476.269 302.361 476.51 302.129C476.75 301.896 477.047 301.78 477.399 301.78C477.72 301.78 477.98 301.88 478.181 302.08C478.389 302.281 478.493 302.541 478.493 302.862C478.493 303.223 478.369 303.523 478.121 303.764C477.88 303.996 477.592 304.112 477.255 304.112Z" fill="white"/>
<path d="M410.402 92.4047C410.465 92.382 410.394 92.03 410.235 91.5833L409.957 90.8016L415.763 88.7343L421.57 86.6669L421.805 87.3276C421.954 87.747 421.998 88.0302 421.924 88.1032C421.831 88.195 421.84 88.2211 421.97 88.2334C422.06 88.2419 422.185 88.3954 422.249 88.5745L422.365 88.9002L423.482 88.5027L424.598 88.1051L428.336 98.6017L432.073 109.098L430.844 109.536C430.1 109.801 429.632 110.017 429.656 110.085C429.678 110.146 429.746 110.178 429.807 110.157C429.873 110.133 430.065 110.526 430.277 111.122L430.634 112.127L424.716 114.234L418.798 116.341L418.4 115.224L418.003 114.108L416.886 114.505L415.769 114.903L412.032 104.406L408.295 93.9096L409.412 93.512L410.528 93.1145L410.409 92.7795C410.344 92.5952 410.34 92.4266 410.402 92.4047Z" fill="#F8CC14"/>
<rect x="410.449" y="92.8906" width="12.5645" height="17.7799" transform="rotate(-19.5973 410.449 92.8906)" fill="#007AE0"/>
<rect x="421.962" y="109.678" width="2.37065" height="2.37065" transform="rotate(-19.5973 421.962 109.678)" fill="#007AE0"/>
<path d="M405.829 151.623L405.611 150.922L405.394 150.221L416.459 146.786L427.524 143.351L427.742 144.052L427.96 144.753L427.081 145.026C426.333 145.258 426.219 145.348 426.307 145.634C426.365 145.819 426.325 146.041 426.22 146.127C426.072 146.248 426.098 146.307 426.329 146.38C426.788 146.526 426.381 147.165 425.693 147.378C424.928 147.616 424.75 148.061 425.044 149.007L425.292 149.808L424.414 150.081L423.536 150.353L423.808 151.23L424.08 152.106L423.202 152.379L422.323 152.651L422.595 153.527L422.867 154.404L421.989 154.676L421.111 154.949L421.437 156L421.764 157.052L422.818 156.725L423.871 156.398L423.599 155.521L423.327 154.645L424.206 154.373L425.084 154.1L424.812 153.224L424.54 152.347L425.418 152.075L426.296 151.802L425.97 150.751L425.643 149.699L426.446 149.45C426.962 149.29 427.322 149.064 427.452 148.817C427.599 148.538 427.589 148.432 427.414 148.429C427.281 148.426 427.102 148.194 427.015 147.913C426.86 147.416 426.881 147.394 427.734 147.129L428.612 146.856L430.299 152.289L431.985 157.722L421.171 161.079C412.032 163.915 410.305 164.409 410.027 164.263C409.758 164.122 409.422 163.199 408.168 159.159C406.47 153.689 406.474 153.728 407.611 153.375L408.238 153.181L408.51 154.057L408.782 154.933L409.409 154.738C410.183 154.498 410.641 154.719 410.865 155.439C411.088 156.16 411.547 156.381 412.32 156.14C412.922 155.954 412.955 155.971 413.142 156.572C413.381 157.343 413.823 157.595 414.545 157.371C415.267 157.147 415.709 157.399 415.949 158.171L416.143 158.797L417.021 158.524L417.9 158.251L418.172 159.128L418.444 160.004L420.376 159.404L422.308 158.804L422.059 158.003C421.7 156.847 421.431 156.771 419.647 157.325L418.142 157.792L417.948 157.166C417.687 156.327 417.265 156.143 416.293 156.444L415.49 156.694L415.218 155.817L414.946 154.941L414.068 155.214L413.19 155.486L412.918 154.61L412.646 153.734L411.768 154.006L410.89 154.279L410.641 153.478C410.34 152.508 409.948 152.265 409.108 152.526L408.48 152.721L408.208 151.845L407.936 150.968L406.883 151.296L405.829 151.623Z" fill="#F8CC14"/>
<path d="M175.268 197.458V201.866H244.799V189.504H239.82V185H229.277H171V197.458H175.268Z" fill="#007AE0"/>
<path fill-rule="evenodd" clip-rule="evenodd" d="M202.196 211.425C202.092 211.526 202.052 212.05 202.052 213.289V215.012H200.363C199.054 215.012 198.637 215.044 198.509 215.153C198.381 215.262 198.343 215.615 198.343 216.725V218.157H196.307C194.697 218.157 194.236 218.186 194.106 218.297C193.966 218.415 193.94 220.222 193.94 224.653V229.917H198.343V232.921C198.343 235.394 198.373 235.95 198.509 236.066C198.637 236.175 199.054 236.206 200.363 236.206H202.052V243.085H206.687V249.963H210.395V243.085H214.103V236.206H218.506V229.917H222.215V224.653C222.215 220.222 222.188 218.415 222.049 218.297C221.921 218.188 221.504 218.157 220.195 218.157H218.506V216.725C218.506 215.615 218.469 215.262 218.341 215.153C218.21 215.042 217.749 215.012 216.139 215.012H214.103V213.286C214.103 211.92 214.163 211.522 214.021 211.402C213.775 211.193 202.414 211.216 202.196 211.425ZM210.229 218.297C210.358 218.406 210.395 218.76 210.395 219.87V222.253H212.083C213.392 222.253 213.809 222.284 213.937 222.393C214.179 222.598 214.179 225.838 213.937 226.043C213.809 226.152 213.392 226.183 212.083 226.183H210.395V229.917H206.687V226.183H204.535C202.824 226.183 202.349 226.154 202.217 226.043C201.976 225.838 201.976 222.598 202.217 222.393C202.349 222.281 202.824 222.253 204.535 222.253H206.687V218.157H208.375C209.684 218.157 210.101 218.188 210.229 218.297Z" fill="#EE3E34"/>
<path d="M179.892 198.15V190.027H182.212V198.15H179.892ZM192.656 194.669V191.187H190.335V194.669H192.656ZM190.335 195.829V198.15H188.014V191.187H189.175V190.027H193.816V191.187H194.977V198.15H192.656V195.829H190.335ZM197.298 194.669V198.15H196.137V190.027H198.458V192.348H201.939V190.027H204.26V198.15H201.939V194.669H200.779V196.99H198.458V194.669H197.298ZM214.704 190.027H217.024V198.15H214.704V194.669H212.383V198.15H210.062V190.027H212.383V193.508H214.704V190.027ZM218.185 198.15V190.027H223.987V191.187H220.506V193.508H223.987V194.669H220.506V196.99H223.987V198.15H218.185ZM229.789 191.187H227.468V193.508H229.789V191.187ZM230.949 194.669H232.11V198.15H229.789V194.669H227.468V198.15H225.147V190.027H230.949V191.187H232.11V193.508H230.949V194.669ZM233.27 198.15V190.027H239.072V191.187H235.591V193.508H239.072V194.669H235.591V196.99H239.072V198.15H233.27Z" fill="white"/>
<defs>
<linearGradient id="paint0_linear" x1="24.8669" y1="9.4427" x2="186.782" y2="146.841" gradientUnits="userSpaceOnUse">
<stop offset="0.171991" stop-opacity="0.85"/>
<stop offset="1" stop-opacity="0"/>
</linearGradient>
</defs>
</svg>
