<svg width="597" height="794" viewBox="0 0 597 794" fill="none" xmlns="http://www.w3.org/2000/svg">
<path d="M0 793.756H597V104.523V0.243873H471.436H0V793.756Z" fill="#2E2E2E"/>
<path fill-rule="evenodd" clip-rule="evenodd" d="M94.206 641.523L93.9423 642.586L91.7366 642.039L89.5309 641.492L89.2672 642.556L89.0034 643.619L87.9006 643.346L86.7977 643.072L86.534 644.136L86.2703 645.199L85.1674 644.926L84.0646 644.652L83.8009 645.716L83.5372 646.779L82.4343 646.506L81.3314 646.232L81.0677 647.296L80.804 648.359L79.7011 648.086L78.5983 647.812L78.3346 648.876L78.0709 649.939L76.968 649.666L75.8651 649.392L75.3377 651.519L74.8103 653.646L73.7074 653.373L72.6046 653.099L72.0772 655.226L71.5497 657.353L70.4469 657.08L69.344 656.806L66.9707 666.377L64.5973 675.949L65.7002 676.222L66.803 676.496L66.2756 678.623L65.7482 680.75L66.8511 681.023L67.9539 681.297L67.6902 682.36L67.4265 683.423L68.5294 683.697L69.6322 683.97L69.3685 685.034L69.1048 686.097L70.2077 686.371L71.3105 686.644L71.0468 687.708L70.7831 688.771L71.886 689.045L72.9889 689.318L72.7252 690.382L72.4615 691.445L73.5643 691.719L74.6672 691.992L74.4035 693.056L74.1398 694.119L75.2426 694.393L76.3455 694.666L76.0818 695.73L75.8181 696.793L78.0238 697.34L80.2295 697.887L79.9658 698.95L79.7021 700.014L81.9079 700.561L84.1136 701.108L85.1684 696.854L86.2232 692.6L81.8118 691.506L77.4003 690.412L77.664 689.349L77.9277 688.285L76.8249 688.012L75.722 687.738L75.9857 686.675L76.2494 685.611L75.1466 685.338L74.0437 685.064L74.3074 684.001L74.5711 682.937L73.4682 682.664L72.3654 682.39L72.6291 681.327L72.8928 680.263L75.0985 680.81L77.3043 681.357L77.0405 682.421L76.7768 683.484L77.8797 683.758L78.9826 684.031L78.7189 685.095L78.4552 686.158L79.558 686.432L80.6609 686.705L80.3972 687.769L80.1335 688.832L82.3392 689.379L84.5449 689.926L84.8086 688.863L85.0723 687.799L86.1752 688.073L87.2781 688.346L87.5418 687.283L87.8055 686.219L88.9084 686.493L90.0112 686.766L90.2749 685.703L90.5386 684.639L86.1272 683.545L81.7157 682.451L81.9794 681.388L82.2431 680.324L81.1403 680.051L80.0374 679.777L80.3011 678.714L80.5648 677.65L79.4619 677.377L78.3591 677.103L78.6228 676.04L78.8865 674.977L77.7836 674.703L76.6808 674.43L78.263 668.049L79.8453 661.668L80.9481 661.941L82.051 662.215L82.3147 661.151L82.5784 660.088L83.6813 660.361L84.7841 660.635L85.0478 659.571L85.3115 658.508L84.2087 658.234L83.1058 657.961L83.8969 654.77L84.6881 651.58L87.9967 652.4L91.3052 653.221L91.0415 654.284L90.7778 655.348L91.8807 655.621L92.9836 655.895L92.7199 656.958L92.4561 658.022L93.559 658.295L94.6619 658.569L94.9256 657.505L95.1893 656.442L100.704 657.809L106.218 659.176L105.954 660.24L105.691 661.303L106.793 661.577L107.896 661.85L108.16 660.787L108.424 659.723L109.527 659.997L110.629 660.27L110.893 659.207L111.157 658.143L114.465 658.964L117.774 659.784L116.983 662.975L116.192 666.165L115.089 665.892L113.986 665.618L113.722 666.682L113.459 667.745L114.561 668.019L115.664 668.292L115.401 669.356L115.137 670.419L116.24 670.693L117.343 670.966L115.76 677.347L114.178 683.728L113.075 683.454L111.972 683.181L111.709 684.244L111.445 685.308L110.342 685.034L109.239 684.761L108.976 685.824L108.712 686.888L107.609 686.614L106.506 686.341L106.242 687.404L105.979 688.468L101.567 687.374L97.1558 686.28L96.8921 687.343L96.6284 688.407L97.7313 688.68L98.8341 688.954L98.5704 690.017L98.3067 691.081L99.4096 691.354L100.512 691.628L98.9302 698.009L97.348 704.389L99.5537 704.936L101.759 705.483L102.023 704.42L102.287 703.356L103.39 703.63L104.493 703.903L104.756 702.84L105.02 701.776L106.123 702.05L107.226 702.323L107.489 701.26L107.753 700.196L108.856 700.47L109.959 700.743L110.223 699.68L110.486 698.616L111.589 698.89L112.692 699.163L112.956 698.1L113.219 697.036L114.322 697.31L115.425 697.583L115.689 696.52L115.953 695.456L117.055 695.73L118.158 696.003L118.422 694.94L118.686 693.876L119.789 694.15L120.891 694.423L121.419 692.296L121.946 690.169L123.049 690.443L124.152 690.716L126.525 681.145L128.899 671.574L127.796 671.3L126.693 671.027L127.22 668.9L127.748 666.773L126.645 666.499L125.542 666.226L126.07 664.099L126.597 661.972L125.494 661.699L124.391 661.425L124.655 660.362L124.919 659.298L123.816 659.025L122.713 658.751L122.977 657.688L123.24 656.624L122.137 656.351L121.035 656.077L121.298 655.014L121.562 653.95L120.459 653.677L119.356 653.403L119.62 652.34L119.884 651.276L118.781 651.003L117.678 650.729L117.942 649.666L118.205 648.603L116 648.056L113.794 647.509L114.058 646.445L114.321 645.382L104.396 642.92L94.4697 640.459L94.206 641.523Z" fill="#F8CC14"/>
<path fill-rule="evenodd" clip-rule="evenodd" d="M81.8399 357.328L81.3979 359.69L79.0362 359.248L76.6745 358.806L71.8381 384.646L67.0018 410.485L69.3635 410.927L71.7251 411.369L71.2831 413.731L70.8411 416.093L84.8723 418.719L98.9035 421.345L100.646 412.037L102.388 402.729L97.8629 401.882C94.1264 401.183 93.3098 400.994 93.1767 400.8C92.9776 400.509 93.0295 400.164 93.2795 400.113C93.4206 400.084 93.4227 400.026 93.2879 399.876C93.1532 399.726 93.1553 399.667 93.2963 399.639C93.5177 399.594 93.645 399.08 93.4439 399.042C93.3548 399.026 93.5527 397.693 93.9959 395.325C94.5601 392.311 94.7301 391.604 94.9225 391.472C95.117 391.339 95.9466 391.459 99.683 392.158L104.208 393.005L105.95 383.697L107.692 374.389L110.054 374.831L112.416 375.273L112.858 372.912L113.3 370.55L120.385 371.876L127.47 373.202L126.586 377.925L125.702 382.649L121.177 381.802C117.135 381.045 116.622 380.975 116.376 381.144C116.176 381.281 116.145 381.356 116.263 381.422C116.473 381.539 116.333 382.284 116.088 382.347C115.937 382.386 115.931 382.419 116.058 382.509C116.261 382.655 114.172 394.007 113.95 393.965C113.743 393.927 113.705 394.341 113.89 394.612C114.023 394.806 114.84 394.995 118.577 395.694L123.101 396.541L122.228 401.205C121.448 405.376 121.327 405.889 121.08 406.057C120.88 406.194 120.798 406.196 120.78 406.063C120.75 405.845 120.233 405.718 120.196 405.919C120.179 406.008 118.873 405.815 116.558 405.382C114.242 404.948 112.955 404.656 112.972 404.567C112.986 404.49 112.873 404.404 112.72 404.376C112.567 404.347 112.43 404.386 112.416 404.463C112.402 404.539 112.265 404.578 112.112 404.55C111.96 404.521 111.823 404.56 111.808 404.636C111.794 404.713 111.845 404.787 111.921 404.801C112.013 404.818 111.48 407.93 110.37 413.857C109.261 419.785 108.632 422.878 108.541 422.861C108.465 422.847 108.391 422.898 108.376 422.974C108.359 423.065 110.805 423.573 115.435 424.439L122.52 425.765L122.962 423.404L123.404 421.042L125.766 421.484L128.128 421.926L132.964 396.086L137.801 370.247L135.439 369.805L133.077 369.363L133.519 367.001L133.961 364.639L108.122 359.803L82.282 354.967L81.8399 357.328Z" fill="#F8CC14"/>
<path fill-rule="evenodd" clip-rule="evenodd" d="M65.6896 513.134L66.2716 515.398L64.0069 515.98L61.7422 516.562L68.1105 541.341L74.4787 566.12L76.7434 565.538L79.0081 564.955L79.5902 567.22L80.1722 569.485L93.6273 566.027L107.082 562.569L104.788 553.643L102.494 544.718L98.1554 545.833C94.5724 546.754 93.7745 546.923 93.5771 546.806C93.2819 546.632 93.1854 546.306 93.385 546.158C93.4977 546.075 93.4756 546.023 93.2949 545.946C93.1142 545.869 93.0921 545.817 93.2048 545.733C93.3815 545.602 93.2823 545.097 93.0895 545.146C93.004 545.168 92.6302 543.912 92.0465 541.641C91.3037 538.751 91.1627 538.057 91.2782 537.862C91.3949 537.664 92.1757 537.428 95.7587 536.507L100.098 535.392L97.8039 526.467L95.5099 517.541L97.7746 516.959L100.039 516.377L99.4573 514.112L98.8752 511.848L105.669 510.101L112.464 508.355L113.628 512.885L114.792 517.414L110.453 518.529C106.577 519.525 106.096 519.674 105.948 519.924C105.828 520.127 105.832 520.207 105.962 520.216C106.196 520.233 106.379 520.948 106.189 521.104C106.072 521.201 106.08 521.232 106.229 521.26C106.468 521.305 109.297 532.176 109.084 532.231C108.887 532.281 109.024 532.663 109.298 532.825C109.496 532.942 110.293 532.772 113.876 531.851L118.215 530.736L119.365 535.208C120.393 539.208 120.497 539.71 120.349 539.96C120.229 540.164 120.157 540.199 120.086 540.089C119.97 539.909 119.463 540.009 119.512 540.202C119.534 540.287 118.303 540.655 116.083 541.225C113.862 541.796 112.607 542.068 112.585 541.982C112.566 541.909 112.431 541.88 112.284 541.918C112.138 541.955 112.033 542.046 112.052 542.119C112.071 542.193 111.966 542.283 111.82 542.321C111.673 542.359 111.569 542.449 111.588 542.523C111.606 542.596 111.682 542.64 111.755 542.622C111.842 542.599 112.653 545.563 114.114 551.247C144.193 546.028 111.969 558.62 111.881 558.642C104.485 552.463 107.064 562.496 107.082 562.569C107.105 562.656 118.495 559.636 122.935 558.495L129.729 556.748L129.147 554.484L128.565 552.219L130.83 551.637L133.095 551.055L126.727 526.276L120.358 501.498L118.094 502.08L115.829 502.662L115.247 500.397L114.665 498.132L89.8862 504.501L65.1075 510.869L65.6896 513.134Z" fill="#F8CC14"/>
<rect x="78.8252" y="515.962" width="38.6082" height="52.1732" transform="rotate(-14.4134 78.8252 515.962)" fill="#F8CC14"/>
<path fill-rule="evenodd" clip-rule="evenodd" d="M101.554 516.586L85.7111 520.658L87.0684 525.939L102.912 521.867L101.554 516.586ZM105.403 518.412L102.234 519.226L103.591 524.507L106.758 523.693L110.965 540.064L116.246 538.707L112.039 522.336L109.927 522.878L109.113 519.711L105.946 520.525L105.403 518.412ZM83.2208 524.112L86.3894 523.298L87.7467 528.579L84.578 529.393L83.2208 524.112ZM83.7627 526.225L80.5941 527.039L81.4084 530.208L79.2964 530.751L83.5039 547.122L88.785 545.765L84.5775 529.393L84.577 529.393L83.7627 526.225ZM93.9919 552.872L109.835 548.8L109.156 546.16L112.323 545.346L111.781 543.233L114.949 542.419L114.135 539.25L110.966 540.065L110.966 540.065L107.798 540.879L108.476 543.519L92.6346 547.591L93.9919 552.872ZM93.3103 550.232L90.1417 551.047L89.5987 548.934L86.4331 549.748L85.6188 546.579L88.7874 545.765L88.7874 545.765L91.953 544.951L93.3103 550.232Z" fill="#2E2E2E"/>
<rect x="108.003" y="506.693" width="8.29167" height="7.4625" transform="rotate(-14.4134 108.003 506.693)" fill="#2E2E2E"/>
<rect x="109.282" y="511.619" width="2.72635" height="8.17904" transform="rotate(-104.413 109.282 511.619)" fill="#2E2E2E"/>
<path d="M150.419 115.981H155.553L152.009 133.802H146.874L150.419 115.981ZM153.864 113.497C152.981 113.497 152.252 113.243 151.678 112.735C151.126 112.205 150.849 111.564 150.849 110.814C150.849 109.93 151.159 109.201 151.777 108.627C152.417 108.031 153.246 107.733 154.261 107.733C155.167 107.733 155.896 107.987 156.448 108.495C157.022 108.981 157.309 109.588 157.309 110.317C157.309 111.266 156.989 112.039 156.348 112.635C155.708 113.21 154.88 113.497 153.864 113.497ZM170.718 115.716C172.705 115.716 174.284 116.246 175.455 117.306C176.625 118.344 177.21 119.835 177.21 121.778C177.21 122.507 177.133 123.224 176.979 123.931L174.991 133.802H169.824L171.745 124.262C171.833 123.887 171.877 123.478 171.877 123.037C171.877 122.109 171.623 121.402 171.115 120.917C170.608 120.431 169.846 120.188 168.83 120.188C167.505 120.188 166.401 120.574 165.517 121.347C164.656 122.098 164.071 123.235 163.762 124.759L161.973 133.802H156.805L160.35 115.981H165.252L164.855 117.902C166.445 116.445 168.399 115.716 170.718 115.716ZM191.799 113.033C191.004 113.033 190.374 113.254 189.911 113.695C189.469 114.115 189.16 114.789 188.983 115.716L188.851 116.379H193.389L192.594 120.354H188.188L185.505 133.802H180.338L183.021 120.354H180.238L181.033 116.379H183.816L184.014 115.352C184.434 113.364 185.295 111.807 186.598 110.681C187.923 109.533 189.646 108.959 191.766 108.959C192.561 108.959 193.312 109.047 194.018 109.224C194.747 109.4 195.365 109.643 195.873 109.952L193.853 113.662C193.301 113.243 192.616 113.033 191.799 113.033ZM201.6 134.067C199.811 134.067 198.232 133.736 196.863 133.073C195.516 132.411 194.467 131.484 193.716 130.291C192.987 129.076 192.623 127.674 192.623 126.084C192.623 124.119 193.087 122.352 194.014 120.784C194.942 119.216 196.223 117.98 197.857 117.074C199.491 116.169 201.335 115.716 203.389 115.716C205.2 115.716 206.778 116.047 208.126 116.71C209.473 117.372 210.511 118.311 211.239 119.525C211.99 120.718 212.366 122.109 212.366 123.699C212.366 125.665 211.902 127.431 210.974 128.999C210.069 130.567 208.788 131.804 207.132 132.709C205.498 133.615 203.654 134.067 201.6 134.067ZM201.931 129.794C202.925 129.794 203.819 129.551 204.614 129.065C205.409 128.557 206.028 127.862 206.469 126.979C206.911 126.095 207.132 125.079 207.132 123.931C207.132 122.716 206.778 121.756 206.072 121.049C205.365 120.342 204.371 119.989 203.091 119.989C202.075 119.989 201.169 120.243 200.374 120.751C199.579 121.237 198.961 121.921 198.519 122.805C198.078 123.688 197.857 124.704 197.857 125.852C197.857 127.067 198.21 128.027 198.917 128.734C199.646 129.441 200.65 129.794 201.931 129.794ZM232.813 110.284C235.64 110.284 238.08 110.791 240.134 111.807C242.21 112.823 243.789 114.248 244.871 116.08C245.953 117.891 246.494 120.011 246.494 122.44C246.494 124.472 246.141 126.382 245.434 128.171C244.749 129.938 243.778 131.362 242.519 132.444C241.282 133.504 239.869 134.034 238.279 134.034C237.131 134.034 236.181 133.835 235.43 133.438C234.702 133.04 234.194 132.466 233.907 131.715C232.493 133.261 230.605 134.034 228.242 134.034C226.961 134.034 225.802 133.747 224.764 133.173C223.748 132.599 222.942 131.782 222.346 130.722C221.75 129.64 221.452 128.392 221.452 126.979C221.452 125.234 221.827 123.622 222.578 122.142C223.351 120.663 224.4 119.492 225.725 118.631C227.072 117.748 228.573 117.306 230.23 117.306C232.681 117.306 234.414 118.178 235.43 119.923L235.927 117.538H240.432L238.279 128.304C238.213 128.591 238.18 128.845 238.18 129.065C238.18 129.949 238.632 130.39 239.538 130.39C240.267 130.39 240.907 129.993 241.459 129.198C242.011 128.381 242.431 127.376 242.718 126.184C243.005 124.969 243.148 123.787 243.148 122.639C243.148 119.746 242.232 117.494 240.399 115.882C238.566 114.248 235.883 113.43 232.35 113.43C229.545 113.43 227.061 114.049 224.897 115.285C222.754 116.522 221.087 118.223 219.895 120.387C218.702 122.529 218.106 124.925 218.106 127.575C218.106 129.54 218.515 131.274 219.332 132.775C220.149 134.255 221.341 135.403 222.909 136.22C224.477 137.037 226.354 137.446 228.54 137.446C230.771 137.446 232.858 137.026 234.801 136.187L235.53 139.235C234.514 139.654 233.354 139.986 232.052 140.228C230.771 140.493 229.512 140.626 228.275 140.626C225.449 140.626 222.986 140.085 220.888 139.003C218.791 137.921 217.178 136.408 216.052 134.465C214.948 132.543 214.396 130.335 214.396 127.84C214.396 124.505 215.18 121.502 216.748 118.83C218.316 116.158 220.491 114.071 223.273 112.569C226.078 111.045 229.258 110.284 232.813 110.284ZM229.633 130.225C230.583 130.225 231.422 129.982 232.151 129.496C232.88 129.01 233.443 128.348 233.84 127.509C234.26 126.669 234.47 125.753 234.47 124.759C234.47 123.611 234.138 122.727 233.476 122.109C232.836 121.469 231.941 121.149 230.793 121.149C229.402 121.149 228.264 121.645 227.381 122.639C226.498 123.611 226.056 124.925 226.056 126.581C226.056 127.751 226.376 128.657 227.017 129.297C227.657 129.916 228.529 130.225 229.633 130.225ZM255.439 127.509C255.395 127.685 255.373 127.928 255.373 128.237C255.373 129.386 256.002 129.96 257.261 129.96C257.945 129.96 258.641 129.75 259.348 129.33L260.11 133.007C258.961 133.714 257.482 134.067 255.671 134.067C253.993 134.067 252.645 133.626 251.63 132.742C250.614 131.859 250.106 130.644 250.106 129.099C250.106 128.657 250.161 128.138 250.272 127.542L251.696 120.354H248.947L249.742 116.379H252.491L253.352 112.039H258.52L257.658 116.379H262.097L261.302 120.354H256.863L255.439 127.509ZM276.724 115.716C278.712 115.716 280.291 116.246 281.461 117.306C282.631 118.366 283.217 119.868 283.217 121.811C283.217 122.518 283.139 123.224 282.985 123.931L280.997 133.802H275.83L277.751 124.262C277.839 123.887 277.883 123.478 277.883 123.037C277.883 122.109 277.63 121.402 277.122 120.917C276.614 120.431 275.852 120.188 274.836 120.188C273.511 120.188 272.407 120.574 271.523 121.347C270.662 122.098 270.077 123.235 269.768 124.759L267.979 133.802H262.812L267.714 109.224H272.882L271.225 117.604C272.749 116.345 274.582 115.716 276.724 115.716ZM305.253 123.567C305.253 124.384 305.154 125.289 304.955 126.283H291.308C291.485 128.712 293.019 129.927 295.912 129.927C296.818 129.927 297.679 129.783 298.496 129.496C299.335 129.209 300.064 128.8 300.682 128.27L302.835 131.682C301.842 132.477 300.704 133.073 299.423 133.471C298.143 133.868 296.796 134.067 295.382 134.067C293.549 134.067 291.937 133.747 290.546 133.107C289.177 132.444 288.117 131.506 287.366 130.291C286.637 129.076 286.273 127.674 286.273 126.084C286.273 124.119 286.715 122.352 287.598 120.784C288.503 119.194 289.751 117.958 291.341 117.074C292.931 116.169 294.742 115.716 296.773 115.716C298.496 115.716 299.987 116.036 301.245 116.677C302.526 117.317 303.509 118.234 304.193 119.426C304.9 120.619 305.253 121.999 305.253 123.567ZM296.542 119.592C295.327 119.592 294.3 119.923 293.461 120.585C292.622 121.226 292.026 122.12 291.672 123.269H300.517C300.517 122.12 300.152 121.226 299.423 120.585C298.717 119.923 297.756 119.592 296.542 119.592ZM328.339 115.981L324.795 133.802H319.892L320.224 132.047C318.744 133.394 316.922 134.067 314.758 134.067C313.367 134.067 312.086 133.747 310.915 133.107C309.745 132.466 308.807 131.55 308.1 130.357C307.415 129.143 307.073 127.718 307.073 126.084C307.073 124.119 307.504 122.352 308.365 120.784C309.248 119.194 310.441 117.958 311.942 117.074C313.444 116.169 315.1 115.716 316.911 115.716C319.649 115.716 321.582 116.61 322.708 118.399L323.172 115.981H328.339ZM316.348 129.794C317.364 129.794 318.269 129.551 319.064 129.065C319.859 128.557 320.478 127.862 320.919 126.979C321.361 126.095 321.582 125.079 321.582 123.931C321.582 122.716 321.217 121.756 320.489 121.049C319.782 120.342 318.788 119.989 317.507 119.989C316.492 119.989 315.586 120.243 314.791 120.751C313.996 121.237 313.378 121.921 312.936 122.805C312.494 123.688 312.274 124.704 312.274 125.852C312.274 127.067 312.627 128.027 313.334 128.734C314.062 129.441 315.067 129.794 316.348 129.794ZM337.595 118.101C338.368 117.262 339.296 116.655 340.378 116.279C341.482 115.904 342.774 115.716 344.253 115.716L343.326 120.486C342.708 120.442 342.31 120.42 342.133 120.42C340.565 120.42 339.307 120.806 338.357 121.579C337.43 122.352 336.8 123.556 336.469 125.19L334.747 133.802H329.579L333.123 115.981H338.026L337.595 118.101ZM350.273 134.067C348.727 134.067 347.258 133.902 345.867 133.57C344.498 133.217 343.427 132.764 342.654 132.212L344.641 128.469C345.414 128.977 346.353 129.386 347.457 129.695C348.583 130.004 349.709 130.159 350.836 130.159C352.006 130.159 352.878 130.015 353.452 129.728C354.027 129.419 354.314 128.988 354.314 128.436C354.314 127.994 354.06 127.674 353.552 127.475C353.044 127.277 352.227 127.067 351.101 126.846C349.82 126.603 348.76 126.338 347.921 126.051C347.104 125.764 346.386 125.3 345.768 124.66C345.171 123.997 344.873 123.103 344.873 121.977C344.873 120.011 345.69 118.476 347.324 117.372C348.981 116.268 351.145 115.716 353.817 115.716C355.054 115.716 356.257 115.849 357.427 116.114C358.598 116.379 359.592 116.743 360.409 117.207L358.554 120.983C357.096 120.077 355.341 119.625 353.287 119.625C352.161 119.625 351.299 119.79 350.703 120.122C350.129 120.453 349.842 120.872 349.842 121.38C349.842 121.844 350.096 122.186 350.604 122.407C351.112 122.606 351.962 122.827 353.154 123.07C354.413 123.313 355.44 123.578 356.235 123.865C357.052 124.13 357.759 124.582 358.355 125.223C358.951 125.863 359.249 126.736 359.249 127.84C359.249 129.827 358.41 131.362 356.732 132.444C355.076 133.526 352.922 134.067 350.273 134.067ZM375.29 115.716C377.278 115.716 378.857 116.246 380.027 117.306C381.197 118.366 381.783 119.868 381.783 121.811C381.783 122.518 381.705 123.224 381.551 123.931L379.563 133.802H374.396L376.317 124.262C376.405 123.887 376.449 123.478 376.449 123.037C376.449 122.109 376.196 121.402 375.688 120.917C375.18 120.431 374.418 120.188 373.402 120.188C372.077 120.188 370.973 120.574 370.089 121.347C369.228 122.098 368.643 123.235 368.334 124.759L366.545 133.802H361.378L366.28 109.224H371.448L369.791 117.604C371.315 116.345 373.148 115.716 375.29 115.716ZM406.105 115.981L402.561 133.802H397.658L397.989 132.047C396.51 133.394 394.688 134.067 392.524 134.067C391.133 134.067 389.852 133.747 388.681 133.107C387.511 132.466 386.572 131.55 385.866 130.357C385.181 129.143 384.839 127.718 384.839 126.084C384.839 124.119 385.269 122.352 386.131 120.784C387.014 119.194 388.207 117.958 389.708 117.074C391.21 116.169 392.866 115.716 394.677 115.716C397.415 115.716 399.348 116.61 400.474 118.399L400.938 115.981H406.105ZM394.114 129.794C395.13 129.794 396.035 129.551 396.83 129.065C397.625 128.557 398.243 127.862 398.685 126.979C399.127 126.095 399.348 125.079 399.348 123.931C399.348 122.716 398.983 121.756 398.254 121.049C397.548 120.342 396.554 119.989 395.273 119.989C394.257 119.989 393.352 120.243 392.557 120.751C391.762 121.237 391.144 121.921 390.702 122.805C390.26 123.688 390.039 124.704 390.039 125.852C390.039 127.067 390.393 128.027 391.099 128.734C391.828 129.441 392.833 129.794 394.114 129.794ZM433.249 115.716C435.192 115.716 436.738 116.246 437.886 117.306C439.034 118.344 439.609 119.824 439.609 121.745C439.609 122.451 439.531 123.18 439.377 123.931L437.422 133.802H432.255L434.143 124.295C434.231 123.854 434.275 123.401 434.275 122.937C434.275 122.032 434.033 121.347 433.547 120.884C433.083 120.42 432.387 120.188 431.46 120.188C428.964 120.188 427.408 121.679 426.789 124.66L424.967 133.802H419.8L421.688 124.295C421.776 123.854 421.82 123.412 421.82 122.97C421.82 122.065 421.578 121.38 421.092 120.917C420.628 120.431 419.932 120.188 419.005 120.188C416.509 120.188 414.942 121.701 414.301 124.726L412.512 133.802H407.345L410.889 115.981H415.792L415.394 117.836C416.94 116.423 418.806 115.716 420.992 115.716C422.229 115.716 423.322 115.97 424.272 116.478C425.243 116.964 425.972 117.681 426.458 118.631C427.319 117.681 428.324 116.964 429.472 116.478C430.621 115.97 431.879 115.716 433.249 115.716ZM444.439 134.067C443.556 134.067 442.827 133.791 442.253 133.239C441.679 132.665 441.392 131.947 441.392 131.086C441.392 130.07 441.723 129.242 442.385 128.602C443.048 127.961 443.865 127.641 444.837 127.641C445.72 127.641 446.438 127.917 446.99 128.469C447.564 129.021 447.851 129.739 447.851 130.622C447.851 131.616 447.509 132.444 446.824 133.107C446.162 133.747 445.367 134.067 444.439 134.067ZM459.938 134.067C458.105 134.067 456.504 133.736 455.135 133.073C453.765 132.411 452.705 131.484 451.955 130.291C451.226 129.076 450.861 127.674 450.861 126.084C450.861 124.119 451.325 122.352 452.253 120.784C453.18 119.216 454.472 117.98 456.128 117.074C457.785 116.169 459.651 115.716 461.726 115.716C463.626 115.716 465.26 116.114 466.629 116.909C468.02 117.681 469.058 118.786 469.743 120.221L465.37 122.407C464.597 120.795 463.272 119.989 461.395 119.989C460.379 119.989 459.463 120.243 458.646 120.751C457.851 121.237 457.221 121.921 456.758 122.805C456.316 123.688 456.095 124.693 456.095 125.819C456.095 127.034 456.46 128.005 457.188 128.734C457.917 129.441 458.933 129.794 460.236 129.794C462.135 129.794 463.592 128.999 464.608 127.409L468.418 129.794C467.556 131.141 466.375 132.19 464.873 132.941C463.394 133.692 461.748 134.067 459.938 134.067ZM479.183 134.067C477.394 134.067 475.815 133.736 474.446 133.073C473.099 132.411 472.05 131.484 471.299 130.291C470.57 129.076 470.206 127.674 470.206 126.084C470.206 124.119 470.67 122.352 471.597 120.784C472.525 119.216 473.805 117.98 475.44 117.074C477.074 116.169 478.918 115.716 480.971 115.716C482.782 115.716 484.361 116.047 485.708 116.71C487.055 117.372 488.093 118.311 488.822 119.525C489.573 120.718 489.948 122.109 489.948 123.699C489.948 125.665 489.485 127.431 488.557 128.999C487.652 130.567 486.371 131.804 484.715 132.709C483.08 133.615 481.236 134.067 479.183 134.067ZM479.514 129.794C480.508 129.794 481.402 129.551 482.197 129.065C482.992 128.557 483.61 127.862 484.052 126.979C484.494 126.095 484.715 125.079 484.715 123.931C484.715 122.716 484.361 121.756 483.655 121.049C482.948 120.342 481.954 119.989 480.673 119.989C479.658 119.989 478.752 120.243 477.957 120.751C477.162 121.237 476.544 121.921 476.102 122.805C475.66 123.688 475.44 124.704 475.44 125.852C475.44 127.067 475.793 128.027 476.5 128.734C477.228 129.441 478.233 129.794 479.514 129.794ZM517.452 115.716C519.395 115.716 520.941 116.246 522.089 117.306C523.238 118.344 523.812 119.824 523.812 121.745C523.812 122.451 523.734 123.18 523.58 123.931L521.626 133.802H516.458L518.346 124.295C518.435 123.854 518.479 123.401 518.479 122.937C518.479 122.032 518.236 121.347 517.75 120.884C517.286 120.42 516.591 120.188 515.663 120.188C513.168 120.188 511.611 121.679 510.992 124.66L509.171 133.802H504.003L505.891 124.295C505.98 123.854 506.024 123.412 506.024 122.97C506.024 122.065 505.781 121.38 505.295 120.917C504.831 120.431 504.136 120.188 503.208 120.188C500.713 120.188 499.145 121.701 498.504 124.726L496.716 133.802H491.548L495.092 115.981H499.995L499.597 117.836C501.143 116.423 503.009 115.716 505.196 115.716C506.432 115.716 507.525 115.97 508.475 116.478C509.447 116.964 510.175 117.681 510.661 118.631C511.522 117.681 512.527 116.964 513.676 116.478C514.824 115.97 516.083 115.716 517.452 115.716Z" fill="white"/>
<path d="M160.789 70.5744L159.795 75.6094H170.561L169.732 79.7831H158.934L157.874 85.1493H170.527L169.633 89.4556H151.679L156.317 66.2681H173.84L172.946 70.5744H160.789ZM199.475 71.3694C201.419 71.3694 202.964 71.8994 204.113 72.9594C205.261 73.9973 205.835 75.4769 205.835 77.3981C205.835 78.1048 205.758 78.8335 205.603 79.5843L203.649 89.4556H198.481L200.37 79.9487C200.458 79.5071 200.502 79.0543 200.502 78.5906C200.502 77.6852 200.259 77.0006 199.773 76.5369C199.31 76.0731 198.614 75.8412 197.686 75.8412C195.191 75.8412 193.634 77.3319 193.016 80.3131L191.194 89.4556H186.027L187.915 79.9487C188.003 79.5071 188.047 79.0654 188.047 78.6237C188.047 77.7183 187.804 77.0337 187.318 76.57C186.855 76.0841 186.159 75.8412 185.232 75.8412C182.736 75.8412 181.168 77.3539 180.528 80.3793L178.739 89.4556H173.572L177.116 71.6344H182.018L181.621 73.4894C183.167 72.076 185.033 71.3694 187.219 71.3694C188.456 71.3694 189.549 71.6233 190.498 72.1312C191.47 72.6171 192.199 73.3348 192.685 74.2844C193.546 73.3348 194.551 72.6171 195.699 72.1312C196.847 71.6233 198.106 71.3694 199.475 71.3694ZM230.139 71.6344L226.594 89.4556H221.692L222.023 87.6999C220.543 89.047 218.722 89.7206 216.557 89.7206C215.166 89.7206 213.885 89.4004 212.715 88.7599C211.544 88.1195 210.606 87.2031 209.899 86.0106C209.215 84.796 208.872 83.3716 208.872 81.7375C208.872 79.7721 209.303 78.0054 210.164 76.4375C211.048 74.8475 212.24 73.6108 213.742 72.7275C215.243 71.8221 216.9 71.3694 218.71 71.3694C221.449 71.3694 223.381 72.2637 224.507 74.0525L224.971 71.6344H230.139ZM218.147 85.4475C219.163 85.4475 220.069 85.2045 220.864 84.7187C221.659 84.2108 222.277 83.5152 222.719 82.6318C223.16 81.7485 223.381 80.7327 223.381 79.5843C223.381 78.3698 223.017 77.4091 222.288 76.7025C221.581 75.9958 220.588 75.6425 219.307 75.6425C218.291 75.6425 217.385 75.8964 216.59 76.4044C215.795 76.8902 215.177 77.5748 214.735 78.4581C214.294 79.3414 214.073 80.3573 214.073 81.5056C214.073 82.7202 214.426 83.6808 215.133 84.3875C215.862 85.0941 216.867 85.4475 218.147 85.4475ZM234.923 71.6344H240.057L236.513 89.4556H231.378L234.923 71.6344ZM238.368 69.15C237.484 69.15 236.756 68.896 236.182 68.3881C235.629 67.8581 235.353 67.2177 235.353 66.4669C235.353 65.5836 235.663 64.8548 236.281 64.2806C236.921 63.6844 237.749 63.3863 238.765 63.3863C239.671 63.3863 240.399 63.6402 240.952 64.1481C241.526 64.634 241.813 65.2413 241.813 65.97C241.813 66.9196 241.493 67.6925 240.852 68.2888C240.212 68.8629 239.384 69.15 238.368 69.15ZM246.212 64.8769H251.379L246.477 89.4556H241.309L246.212 64.8769ZM256.01 77.8287C255.126 77.8287 254.398 77.5527 253.823 77.0006C253.249 76.4264 252.962 75.7087 252.962 74.8475C252.962 73.8317 253.293 73.0035 253.956 72.3631C254.618 71.7227 255.435 71.4025 256.407 71.4025C257.29 71.4025 258.008 71.6785 258.56 72.2306C259.134 72.7827 259.421 73.5004 259.421 74.3837C259.421 75.3775 259.079 76.2056 258.395 76.8681C257.732 77.5085 256.937 77.8287 256.01 77.8287ZM253.625 89.7206C252.741 89.7206 252.013 89.4445 251.438 88.8924C250.864 88.3183 250.577 87.6006 250.577 86.7393C250.577 85.7235 250.908 84.8954 251.571 84.255C252.233 83.6145 253.05 83.2943 254.022 83.2943C254.905 83.2943 255.623 83.5704 256.175 84.1225C256.749 84.6745 257.036 85.3922 257.036 86.2756C257.036 87.2693 256.694 88.0974 256.01 88.7599C255.347 89.4004 254.552 89.7206 253.625 89.7206Z" fill="white"/>
<path d="M167.762 276.433H156.964L153.949 281.402H148.219L163.224 258.214H168.524L174.222 281.402H168.856L167.762 276.433ZM166.868 272.359L164.914 263.415L159.448 272.359H166.868ZM184.313 265.701C185.085 264.861 186.013 264.254 187.095 263.879C188.199 263.503 189.491 263.316 190.971 263.316L190.043 268.086C189.425 268.041 189.027 268.019 188.851 268.019C187.283 268.019 186.024 268.406 185.074 269.179C184.147 269.952 183.518 271.155 183.186 272.789L181.464 281.402H176.296L179.841 263.581H184.743L184.313 265.701ZM196.99 281.667C195.444 281.667 193.975 281.501 192.584 281.17C191.215 280.817 190.144 280.364 189.371 279.812L191.359 276.069C192.131 276.577 193.07 276.985 194.174 277.294C195.3 277.604 196.427 277.758 197.553 277.758C198.723 277.758 199.596 277.615 200.17 277.327C200.744 277.018 201.031 276.588 201.031 276.036C201.031 275.594 200.777 275.274 200.269 275.075C199.761 274.876 198.944 274.666 197.818 274.446C196.537 274.203 195.477 273.938 194.638 273.651C193.821 273.364 193.103 272.9 192.485 272.259C191.889 271.597 191.59 270.703 191.59 269.576C191.59 267.611 192.407 266.076 194.042 264.972C195.698 263.868 197.862 263.316 200.534 263.316C201.771 263.316 202.974 263.448 204.145 263.713C205.315 263.978 206.309 264.343 207.126 264.806L205.271 268.583C203.814 267.677 202.058 267.224 200.004 267.224C198.878 267.224 198.017 267.39 197.42 267.721C196.846 268.053 196.559 268.472 196.559 268.98C196.559 269.444 196.813 269.786 197.321 270.007C197.829 270.206 198.679 270.426 199.872 270.669C201.13 270.912 202.157 271.177 202.952 271.464C203.769 271.729 204.476 272.182 205.072 272.823C205.669 273.463 205.967 274.335 205.967 275.439C205.967 277.427 205.127 278.962 203.449 280.044C201.793 281.126 199.64 281.667 196.99 281.667ZM222.007 263.316C223.995 263.316 225.574 263.846 226.744 264.906C227.915 265.966 228.5 267.467 228.5 269.411C228.5 270.117 228.423 270.824 228.268 271.531L226.28 281.402H221.113L223.034 271.862C223.123 271.486 223.167 271.078 223.167 270.636C223.167 269.709 222.913 269.002 222.405 268.516C221.897 268.03 221.135 267.788 220.119 267.788C218.794 267.788 217.69 268.174 216.807 268.947C215.946 269.698 215.36 270.835 215.051 272.359L213.262 281.402H208.095L212.997 256.823H218.165L216.509 265.204C218.032 263.945 219.865 263.316 222.007 263.316ZM252.822 263.581L249.278 281.402H244.375L244.707 279.646C243.227 280.993 241.405 281.667 239.241 281.667C237.85 281.667 236.569 281.347 235.399 280.706C234.228 280.066 233.29 279.149 232.583 277.957C231.898 276.742 231.556 275.318 231.556 273.684C231.556 271.718 231.987 269.952 232.848 268.384C233.731 266.794 234.924 265.557 236.425 264.674C237.927 263.768 239.583 263.316 241.394 263.316C244.133 263.316 246.065 264.21 247.191 265.999L247.655 263.581H252.822ZM240.831 277.394C241.847 277.394 242.752 277.151 243.547 276.665C244.342 276.157 244.961 275.461 245.402 274.578C245.844 273.695 246.065 272.679 246.065 271.531C246.065 270.316 245.7 269.355 244.972 268.649C244.265 267.942 243.271 267.589 241.99 267.589C240.975 267.589 240.069 267.843 239.274 268.351C238.479 268.836 237.861 269.521 237.419 270.404C236.978 271.288 236.757 272.304 236.757 273.452C236.757 274.666 237.11 275.627 237.817 276.334C238.545 277.04 239.55 277.394 240.831 277.394ZM279.966 263.316C281.909 263.316 283.455 263.846 284.603 264.906C285.752 265.944 286.326 267.423 286.326 269.344C286.326 270.051 286.249 270.78 286.094 271.531L284.14 281.402H278.972L280.86 271.895C280.949 271.453 280.993 271.001 280.993 270.537C280.993 269.631 280.75 268.947 280.264 268.483C279.8 268.019 279.105 267.788 278.177 267.788C275.682 267.788 274.125 269.278 273.506 272.259L271.685 281.402H266.517L268.405 271.895C268.494 271.453 268.538 271.012 268.538 270.57C268.538 269.665 268.295 268.98 267.809 268.516C267.345 268.03 266.65 267.788 265.722 267.788C263.227 267.788 261.659 269.3 261.018 272.326L259.23 281.402H254.062L257.607 263.581H262.509L262.112 265.436C263.657 264.022 265.523 263.316 267.71 263.316C268.946 263.316 270.039 263.57 270.989 264.078C271.961 264.563 272.689 265.281 273.175 266.231C274.036 265.281 275.041 264.563 276.19 264.078C277.338 263.57 278.597 263.316 279.966 263.316ZM306.599 281.799C304.766 281.799 303.011 281.556 301.332 281.071C299.654 280.585 298.307 279.966 297.291 279.216L299.477 275.075C300.537 275.848 301.73 276.444 303.055 276.864C304.38 277.283 305.738 277.493 307.129 277.493C308.609 277.493 309.779 277.25 310.641 276.764C311.502 276.279 311.932 275.616 311.932 274.777C311.932 274.092 311.59 273.573 310.906 273.22C310.221 272.845 309.128 272.447 307.626 272.028C306.125 271.586 304.899 271.166 303.949 270.769C303 270.349 302.172 269.731 301.465 268.914C300.78 268.097 300.438 267.015 300.438 265.668C300.438 264.1 300.869 262.719 301.73 261.527C302.613 260.334 303.85 259.418 305.44 258.778C307.052 258.137 308.918 257.817 311.038 257.817C312.606 257.817 314.086 257.994 315.477 258.347C316.868 258.678 318.061 259.164 319.054 259.804L317.034 263.912C316.172 263.316 315.201 262.874 314.119 262.587C313.037 262.278 311.91 262.123 310.74 262.123C309.216 262.123 308.013 262.388 307.129 262.918C306.246 263.448 305.804 264.133 305.804 264.972C305.804 265.48 305.992 265.91 306.367 266.264C306.743 266.595 307.218 266.871 307.792 267.092C308.366 267.291 309.172 267.534 310.21 267.821C311.689 268.218 312.904 268.627 313.854 269.046C314.803 269.444 315.609 270.04 316.272 270.835C316.956 271.608 317.299 272.635 317.299 273.916C317.299 275.506 316.857 276.897 315.974 278.089C315.09 279.26 313.843 280.176 312.231 280.839C310.618 281.479 308.741 281.799 306.599 281.799ZM333.222 263.316C335.209 263.316 336.788 263.846 337.958 264.906C339.129 265.966 339.714 267.467 339.714 269.411C339.714 270.117 339.637 270.824 339.482 271.531L337.495 281.402H332.327L334.248 271.862C334.337 271.486 334.381 271.078 334.381 270.636C334.381 269.709 334.127 269.002 333.619 268.516C333.111 268.03 332.349 267.788 331.334 267.788C330.009 267.788 328.904 268.174 328.021 268.947C327.16 269.698 326.575 270.835 326.265 272.359L324.477 281.402H319.309L324.212 256.823H329.379L327.723 265.204C329.247 263.945 331.08 263.316 333.222 263.316ZM345.756 263.581H350.891L347.346 281.402H342.212L345.756 263.581ZM349.201 261.096C348.318 261.096 347.589 260.842 347.015 260.334C346.463 259.804 346.187 259.164 346.187 258.413C346.187 257.53 346.496 256.801 347.114 256.227C347.755 255.631 348.583 255.333 349.599 255.333C350.504 255.333 351.233 255.587 351.785 256.094C352.359 256.58 352.646 257.188 352.646 257.916C352.646 258.866 352.326 259.639 351.686 260.235C351.045 260.809 350.217 261.096 349.201 261.096ZM360.159 265.701C360.932 264.861 361.86 264.254 362.942 263.879C364.046 263.503 365.338 263.316 366.817 263.316L365.89 268.086C365.271 268.041 364.874 268.019 364.697 268.019C363.129 268.019 361.871 268.406 360.921 269.179C359.994 269.952 359.364 271.155 359.033 272.789L357.31 281.402H352.143L355.687 263.581H360.59L360.159 265.701ZM379.562 271.332L385.69 281.402H379.695L375.455 274.479L372.308 277.096L371.447 281.402H366.279L371.182 256.823H376.349L373.6 270.57L382.146 263.581H388.87L379.562 271.332ZM396.161 281.667C394.372 281.667 392.793 281.336 391.424 280.673C390.077 280.011 389.028 279.083 388.277 277.891C387.549 276.676 387.184 275.274 387.184 273.684C387.184 271.718 387.648 269.952 388.575 268.384C389.503 266.816 390.784 265.579 392.418 264.674C394.052 263.768 395.896 263.316 397.95 263.316C399.761 263.316 401.34 263.647 402.687 264.309C404.034 264.972 405.072 265.91 405.8 267.125C406.551 268.318 406.927 269.709 406.927 271.299C406.927 273.264 406.463 275.031 405.535 276.599C404.63 278.167 403.349 279.403 401.693 280.309C400.059 281.214 398.215 281.667 396.161 281.667ZM396.492 277.394C397.486 277.394 398.38 277.151 399.175 276.665C399.97 276.157 400.589 275.461 401.03 274.578C401.472 273.695 401.693 272.679 401.693 271.531C401.693 270.316 401.34 269.355 400.633 268.649C399.926 267.942 398.932 267.589 397.652 267.589C396.636 267.589 395.73 267.843 394.935 268.351C394.14 268.836 393.522 269.521 393.08 270.404C392.639 271.288 392.418 272.304 392.418 273.452C392.418 274.666 392.771 275.627 393.478 276.334C394.207 277.04 395.211 277.394 396.492 277.394ZM430.024 263.581L426.48 281.402H421.578L421.942 279.481C421.169 280.209 420.286 280.761 419.292 281.137C418.298 281.49 417.249 281.667 416.145 281.667C414.202 281.667 412.645 281.137 411.475 280.077C410.326 279.017 409.752 277.526 409.752 275.605C409.752 274.876 409.829 274.159 409.984 273.452L411.938 263.581H417.106L415.218 273.121C415.129 273.54 415.085 273.971 415.085 274.413C415.085 276.267 416.079 277.195 418.066 277.195C419.369 277.195 420.44 276.82 421.28 276.069C422.141 275.296 422.726 274.148 423.035 272.624L424.857 263.581H430.024ZM445.18 263.316C447.167 263.316 448.746 263.846 449.917 264.906C451.087 265.966 451.672 267.467 451.672 269.411C451.672 270.117 451.595 270.824 451.441 271.531L449.453 281.402H444.286L446.207 271.862C446.295 271.486 446.339 271.078 446.339 270.636C446.339 269.709 446.085 269.002 445.577 268.516C445.07 268.03 444.308 267.788 443.292 267.788C441.967 267.788 440.863 268.174 439.979 268.947C439.118 269.698 438.533 270.835 438.224 272.359L436.435 281.402H431.267L436.17 256.823H441.337L439.681 265.204C441.205 263.945 443.038 263.316 445.18 263.316ZM457.715 263.581H462.849L459.305 281.402H454.17L457.715 263.581ZM461.16 261.096C460.276 261.096 459.547 260.842 458.973 260.334C458.421 259.804 458.145 259.164 458.145 258.413C458.145 257.53 458.454 256.801 459.073 256.227C459.713 255.631 460.541 255.333 461.557 255.333C462.462 255.333 463.191 255.587 463.743 256.094C464.317 256.58 464.605 257.188 464.605 257.916C464.605 258.866 464.284 259.639 463.644 260.235C463.004 260.809 462.175 261.096 461.16 261.096Z" fill="white"/>
<path d="M162.643 217.178H168.042L164.266 235.993H175.893L174.999 240.365H158.006L162.643 217.178ZM181.21 222.544H186.344L182.8 240.365H177.666L181.21 222.544ZM184.655 220.06C183.772 220.06 183.043 219.806 182.469 219.298C181.917 218.768 181.641 218.127 181.641 217.377C181.641 216.493 181.95 215.764 182.568 215.19C183.209 214.594 184.037 214.296 185.053 214.296C185.958 214.296 186.687 214.55 187.239 215.058C187.813 215.544 188.1 216.151 188.1 216.88C188.1 217.829 187.78 218.602 187.139 219.198C186.499 219.773 185.671 220.06 184.655 220.06ZM201.509 222.279C203.497 222.279 205.076 222.809 206.246 223.869C207.416 224.907 208.002 226.398 208.002 228.341C208.002 229.07 207.924 229.787 207.77 230.494L205.782 240.365H200.615L202.536 230.825C202.624 230.45 202.669 230.041 202.669 229.6C202.669 228.672 202.415 227.965 201.907 227.48C201.399 226.994 200.637 226.751 199.621 226.751C198.296 226.751 197.192 227.137 196.309 227.91C195.447 228.661 194.862 229.798 194.553 231.322L192.764 240.365H187.597L191.141 222.544H196.044L195.646 224.465C197.236 223.008 199.19 222.279 201.509 222.279ZM223.783 230.295L229.911 240.365H223.915L219.675 233.442L216.528 236.059L215.667 240.365H210.499L215.402 215.787H220.569L217.82 229.533L226.366 222.544H233.091L223.783 230.295ZM250.418 230.13C250.418 230.947 250.319 231.852 250.12 232.846H236.472C236.649 235.275 238.184 236.49 241.077 236.49C241.982 236.49 242.844 236.346 243.661 236.059C244.5 235.772 245.228 235.363 245.847 234.833L248 238.245C247.006 239.04 245.869 239.636 244.588 240.034C243.307 240.431 241.96 240.63 240.547 240.63C238.714 240.63 237.102 240.31 235.711 239.67C234.341 239.007 233.281 238.069 232.531 236.854C231.802 235.639 231.437 234.237 231.437 232.647C231.437 230.682 231.879 228.915 232.762 227.347C233.668 225.757 234.916 224.52 236.506 223.637C238.096 222.732 239.906 222.279 241.938 222.279C243.661 222.279 245.151 222.599 246.41 223.24C247.691 223.88 248.673 224.797 249.358 225.989C250.065 227.182 250.418 228.562 250.418 230.13ZM241.706 226.155C240.492 226.155 239.465 226.486 238.626 227.148C237.786 227.789 237.19 228.683 236.837 229.832H245.681C245.681 228.683 245.317 227.789 244.588 227.148C243.881 226.486 242.921 226.155 241.706 226.155ZM274.895 215.787L269.993 240.365H265.09L265.454 238.576C263.953 239.946 262.131 240.63 259.989 240.63C258.598 240.63 257.317 240.31 256.146 239.67C254.976 239.029 254.037 238.113 253.331 236.92C252.646 235.706 252.304 234.281 252.304 232.647C252.304 230.682 252.734 228.915 253.596 227.347C254.479 225.757 255.672 224.52 257.173 223.637C258.675 222.732 260.331 222.279 262.142 222.279C263.445 222.279 264.582 222.5 265.554 222.942C266.548 223.383 267.332 224.035 267.906 224.896L269.728 215.787H274.895ZM261.579 236.357C262.595 236.357 263.5 236.114 264.295 235.628C265.09 235.12 265.708 234.425 266.15 233.542C266.592 232.658 266.813 231.642 266.813 230.494C266.813 229.279 266.448 228.319 265.719 227.612C265.013 226.905 264.019 226.552 262.738 226.552C261.722 226.552 260.817 226.806 260.022 227.314C259.227 227.8 258.609 228.484 258.167 229.368C257.725 230.251 257.504 231.267 257.504 232.415C257.504 233.63 257.858 234.59 258.564 235.297C259.293 236.004 260.298 236.357 261.579 236.357ZM278.353 222.544H283.487L279.943 240.365H274.808L278.353 222.544ZM281.798 220.06C280.914 220.06 280.186 219.806 279.611 219.298C279.059 218.768 278.783 218.127 278.783 217.377C278.783 216.493 279.092 215.764 279.711 215.19C280.351 214.594 281.179 214.296 282.195 214.296C283.101 214.296 283.829 214.55 284.381 215.058C284.956 215.544 285.243 216.151 285.243 216.88C285.243 217.829 284.922 218.602 284.282 219.198C283.642 219.773 282.814 220.06 281.798 220.06ZM298.652 222.279C300.639 222.279 302.218 222.809 303.389 223.869C304.559 224.907 305.144 226.398 305.144 228.341C305.144 229.07 305.067 229.787 304.912 230.494L302.925 240.365H297.757L299.679 230.825C299.767 230.45 299.811 230.041 299.811 229.6C299.811 228.672 299.557 227.965 299.049 227.48C298.541 226.994 297.78 226.751 296.764 226.751C295.439 226.751 294.335 227.137 293.451 227.91C292.59 228.661 292.005 229.798 291.696 231.322L289.907 240.365H284.739L288.284 222.544H293.186L292.789 224.465C294.379 223.008 296.333 222.279 298.652 222.279ZM312.379 228.738C311.496 228.738 310.767 228.462 310.193 227.91C309.619 227.336 309.331 226.618 309.331 225.757C309.331 224.741 309.663 223.913 310.325 223.273C310.988 222.632 311.805 222.312 312.776 222.312C313.66 222.312 314.378 222.588 314.93 223.14C315.504 223.692 315.791 224.41 315.791 225.293C315.791 226.287 315.449 227.115 314.764 227.778C314.101 228.418 313.306 228.738 312.379 228.738ZM309.994 240.63C309.111 240.63 308.382 240.354 307.808 239.802C307.234 239.228 306.946 238.51 306.946 237.649C306.946 236.633 307.278 235.805 307.94 235.165C308.603 234.524 309.42 234.204 310.391 234.204C311.275 234.204 311.993 234.48 312.545 235.032C313.119 235.584 313.406 236.302 313.406 237.185C313.406 238.179 313.064 239.007 312.379 239.67C311.716 240.31 310.921 240.63 309.994 240.63Z" fill="white"/>
<path d="M162.885 417.812H152.086L149.071 422.781H143.341L158.346 399.593H163.646L169.344 422.781H163.978L162.885 417.812ZM161.99 413.738L160.036 404.794L154.57 413.738H161.99ZM179.435 407.08C180.207 406.24 181.135 405.633 182.217 405.258C183.321 404.882 184.613 404.695 186.093 404.695L185.165 409.465C184.547 409.42 184.149 409.398 183.973 409.398C182.405 409.398 181.146 409.785 180.196 410.558C179.269 411.331 178.64 412.534 178.308 414.168L176.586 422.781H171.418L174.963 404.96H179.865L179.435 407.08ZM192.112 423.046C190.566 423.046 189.097 422.88 187.706 422.549C186.337 422.196 185.266 421.743 184.493 421.191L186.481 417.448C187.254 417.956 188.192 418.364 189.296 418.673C190.422 418.982 191.549 419.137 192.675 419.137C193.845 419.137 194.718 418.993 195.292 418.706C195.866 418.397 196.153 417.967 196.153 417.415C196.153 416.973 195.899 416.653 195.391 416.454C194.883 416.255 194.066 416.045 192.94 415.825C191.659 415.582 190.599 415.317 189.76 415.03C188.943 414.742 188.225 414.279 187.607 413.638C187.011 412.976 186.712 412.081 186.712 410.955C186.712 408.99 187.53 407.455 189.164 406.351C190.82 405.247 192.984 404.695 195.656 404.695C196.893 404.695 198.096 404.827 199.267 405.092C200.437 405.357 201.431 405.721 202.248 406.185L200.393 409.961C198.936 409.056 197.18 408.603 195.126 408.603C194 408.603 193.139 408.769 192.542 409.1C191.968 409.431 191.681 409.851 191.681 410.359C191.681 410.823 191.935 411.165 192.443 411.386C192.951 411.585 193.801 411.805 194.994 412.048C196.252 412.291 197.279 412.556 198.074 412.843C198.891 413.108 199.598 413.561 200.194 414.201C200.791 414.842 201.089 415.714 201.089 416.818C201.089 418.806 200.25 420.341 198.571 421.423C196.915 422.505 194.762 423.046 192.112 423.046ZM217.129 404.695C219.117 404.695 220.696 405.225 221.866 406.285C223.037 407.345 223.622 408.846 223.622 410.79C223.622 411.496 223.545 412.203 223.39 412.91L221.403 422.781H216.235L218.156 413.241C218.245 412.865 218.289 412.457 218.289 412.015C218.289 411.088 218.035 410.381 217.527 409.895C217.019 409.409 216.257 409.166 215.241 409.166C213.916 409.166 212.812 409.553 211.929 410.326C211.068 411.077 210.482 412.214 210.173 413.738L208.384 422.781H203.217L208.119 398.202H213.287L211.631 406.583C213.154 405.324 214.987 404.695 217.129 404.695ZM247.944 404.96L244.4 422.781H239.498L239.829 421.025C238.349 422.372 236.527 423.046 234.363 423.046C232.972 423.046 231.691 422.726 230.521 422.085C229.35 421.445 228.412 420.528 227.705 419.336C227.02 418.121 226.678 416.697 226.678 415.063C226.678 413.097 227.109 411.331 227.97 409.763C228.853 408.173 230.046 406.936 231.548 406.053C233.049 405.147 234.705 404.695 236.516 404.695C239.255 404.695 241.187 405.589 242.313 407.378L242.777 404.96H247.944ZM235.953 418.773C236.969 418.773 237.874 418.53 238.669 418.044C239.464 417.536 240.083 416.84 240.524 415.957C240.966 415.074 241.187 414.058 241.187 412.91C241.187 411.695 240.823 410.734 240.094 410.028C239.387 409.321 238.393 408.968 237.113 408.968C236.097 408.968 235.191 409.222 234.396 409.73C233.601 410.215 232.983 410.9 232.541 411.783C232.1 412.667 231.879 413.682 231.879 414.831C231.879 416.045 232.232 417.006 232.939 417.713C233.668 418.419 234.672 418.773 235.953 418.773ZM275.088 404.695C277.031 404.695 278.577 405.225 279.725 406.285C280.874 407.322 281.448 408.802 281.448 410.723C281.448 411.43 281.371 412.159 281.216 412.91L279.262 422.781H274.094L275.982 413.274C276.071 412.832 276.115 412.38 276.115 411.916C276.115 411.01 275.872 410.326 275.386 409.862C274.922 409.398 274.227 409.166 273.299 409.166C270.804 409.166 269.247 410.657 268.629 413.638L266.807 422.781H261.639L263.527 413.274C263.616 412.832 263.66 412.391 263.66 411.949C263.66 411.044 263.417 410.359 262.931 409.895C262.467 409.409 261.772 409.166 260.844 409.166C258.349 409.166 256.781 410.679 256.14 413.705L254.352 422.781H249.184L252.729 404.96H257.631L257.234 406.815C258.779 405.401 260.645 404.695 262.832 404.695C264.068 404.695 265.161 404.949 266.111 405.456C267.083 405.942 267.811 406.66 268.297 407.61C269.159 406.66 270.163 405.942 271.312 405.456C272.46 404.949 273.719 404.695 275.088 404.695ZM299.8 423.046C298.254 423.046 296.786 422.88 295.395 422.549C294.025 422.196 292.954 421.743 292.181 421.191L294.169 417.448C294.942 417.956 295.88 418.364 296.985 418.673C298.111 418.982 299.237 419.137 300.363 419.137C301.534 419.137 302.406 418.993 302.98 418.706C303.554 418.397 303.841 417.967 303.841 417.415C303.841 416.973 303.587 416.653 303.079 416.454C302.572 416.255 301.754 416.045 300.628 415.825C299.347 415.582 298.287 415.317 297.448 415.03C296.631 414.742 295.913 414.279 295.295 413.638C294.699 412.976 294.401 412.081 294.401 410.955C294.401 408.99 295.218 407.455 296.852 406.351C298.508 405.247 300.672 404.695 303.344 404.695C304.581 404.695 305.785 404.827 306.955 405.092C308.126 405.357 309.119 405.721 309.936 406.185L308.081 409.961C306.624 409.056 304.868 408.603 302.814 408.603C301.688 408.603 300.827 408.769 300.231 409.1C299.657 409.431 299.369 409.851 299.369 410.359C299.369 410.823 299.623 411.165 300.131 411.386C300.639 411.585 301.489 411.805 302.682 412.048C303.941 412.291 304.968 412.556 305.763 412.843C306.58 413.108 307.286 413.561 307.883 414.201C308.479 414.842 308.777 415.714 308.777 416.818C308.777 418.806 307.938 420.341 306.259 421.423C304.603 422.505 302.45 423.046 299.8 423.046ZM324.818 404.695C326.805 404.695 328.384 405.225 329.555 406.285C330.725 407.345 331.31 408.846 331.31 410.79C331.31 411.496 331.233 412.203 331.078 412.91L329.091 422.781H323.923L325.845 413.241C325.933 412.865 325.977 412.457 325.977 412.015C325.977 411.088 325.723 410.381 325.215 409.895C324.707 409.409 323.945 409.166 322.93 409.166C321.605 409.166 320.5 409.553 319.617 410.326C318.756 411.077 318.171 412.214 317.861 413.738L316.073 422.781H310.905L315.808 398.202H320.975L319.319 406.583C320.843 405.324 322.676 404.695 324.818 404.695ZM337.352 404.96H342.487L338.942 422.781H333.808L337.352 404.96ZM340.797 402.475C339.914 402.475 339.185 402.221 338.611 401.713C338.059 401.183 337.783 400.543 337.783 399.792C337.783 398.909 338.092 398.18 338.71 397.606C339.351 397.01 340.179 396.711 341.195 396.711C342.1 396.711 342.829 396.965 343.381 397.473C343.955 397.959 344.242 398.566 344.242 399.295C344.242 400.245 343.922 401.018 343.282 401.614C342.641 402.188 341.813 402.475 340.797 402.475ZM351.755 407.08C352.528 406.24 353.456 405.633 354.538 405.258C355.642 404.882 356.934 404.695 358.413 404.695L357.486 409.465C356.868 409.42 356.47 409.398 356.293 409.398C354.725 409.398 353.467 409.785 352.517 410.558C351.59 411.331 350.96 412.534 350.629 414.168L348.906 422.781H343.739L347.283 404.96H352.186L351.755 407.08ZM371.158 412.711L377.287 422.781H371.291L367.051 415.858L363.904 418.475L363.043 422.781H357.875L362.778 398.202H367.945L365.196 411.949L373.742 404.96H380.466L371.158 412.711ZM387.757 423.046C385.968 423.046 384.389 422.715 383.02 422.052C381.673 421.39 380.624 420.462 379.873 419.27C379.145 418.055 378.78 416.653 378.78 415.063C378.78 413.097 379.244 411.331 380.171 409.763C381.099 408.195 382.38 406.958 384.014 406.053C385.648 405.147 387.492 404.695 389.546 404.695C391.357 404.695 392.936 405.026 394.283 405.688C395.63 406.351 396.668 407.289 397.396 408.504C398.147 409.696 398.523 411.088 398.523 412.678C398.523 414.643 398.059 416.41 397.131 417.978C396.226 419.546 394.945 420.782 393.289 421.688C391.655 422.593 389.811 423.046 387.757 423.046ZM388.088 418.773C389.082 418.773 389.976 418.53 390.771 418.044C391.566 417.536 392.185 416.84 392.626 415.957C393.068 415.074 393.289 414.058 393.289 412.91C393.289 411.695 392.936 410.734 392.229 410.028C391.522 409.321 390.529 408.968 389.248 408.968C388.232 408.968 387.326 409.222 386.531 409.73C385.736 410.215 385.118 410.9 384.676 411.783C384.235 412.667 384.014 413.682 384.014 414.831C384.014 416.045 384.367 417.006 385.074 417.713C385.803 418.419 386.808 418.773 388.088 418.773ZM421.621 404.96L418.076 422.781H413.174L413.538 420.86C412.765 421.588 411.882 422.14 410.888 422.516C409.894 422.869 408.845 423.046 407.741 423.046C405.798 423.046 404.241 422.516 403.071 421.456C401.922 420.396 401.348 418.905 401.348 416.984C401.348 416.255 401.425 415.537 401.58 414.831L403.534 404.96H408.702L406.814 414.5C406.725 414.919 406.681 415.35 406.681 415.791C406.681 417.646 407.675 418.574 409.662 418.574C410.965 418.574 412.036 418.198 412.876 417.448C413.737 416.675 414.322 415.526 414.631 414.003L416.453 404.96H421.621ZM436.776 404.695C438.763 404.695 440.342 405.225 441.513 406.285C442.683 407.345 443.268 408.846 443.268 410.79C443.268 411.496 443.191 412.203 443.037 412.91L441.049 422.781H435.882L437.803 413.241C437.891 412.865 437.935 412.457 437.935 412.015C437.935 411.088 437.681 410.381 437.173 409.895C436.666 409.409 435.904 409.166 434.888 409.166C433.563 409.166 432.459 409.553 431.575 410.326C430.714 411.077 430.129 412.214 429.82 413.738L428.031 422.781H422.864L427.766 398.202H432.934L431.277 406.583C432.801 405.324 434.634 404.695 436.776 404.695ZM449.311 404.96H454.445L450.901 422.781H445.766L449.311 404.96ZM452.756 402.475C451.872 402.475 451.144 402.221 450.569 401.713C450.017 401.183 449.741 400.543 449.741 399.792C449.741 398.909 450.05 398.18 450.669 397.606C451.309 397.01 452.137 396.711 453.153 396.711C454.059 396.711 454.787 396.965 455.339 397.473C455.914 397.959 456.201 398.566 456.201 399.295C456.201 400.245 455.88 401.018 455.24 401.614C454.6 402.188 453.771 402.475 452.756 402.475Z" fill="white"/>
<path d="M156.629 362.441L155.404 368.569H166.169L165.275 372.875H154.576L152.886 381.322H147.487L152.124 358.135H169.648L168.753 362.441H156.629ZM189.489 363.501L185.945 381.322H181.043L181.374 379.567C179.894 380.914 178.072 381.587 175.908 381.587C174.517 381.587 173.236 381.267 172.066 380.627C170.895 379.986 169.957 379.07 169.25 377.877C168.565 376.663 168.223 375.238 168.223 373.604C168.223 371.639 168.654 369.872 169.515 368.304C170.398 366.714 171.591 365.478 173.093 364.594C174.594 363.689 176.25 363.236 178.061 363.236C180.8 363.236 182.732 364.13 183.858 365.919L184.322 363.501H189.489ZM177.498 377.314C178.514 377.314 179.419 377.071 180.214 376.585C181.009 376.077 181.628 375.382 182.069 374.499C182.511 373.615 182.732 372.599 182.732 371.451C182.732 370.236 182.368 369.276 181.639 368.569C180.932 367.863 179.938 367.509 178.658 367.509C177.642 367.509 176.736 367.763 175.941 368.271C175.146 368.757 174.528 369.441 174.086 370.325C173.645 371.208 173.424 372.224 173.424 373.372C173.424 374.587 173.777 375.547 174.484 376.254C175.213 376.961 176.217 377.314 177.498 377.314ZM200.137 381.587C198.304 381.587 196.703 381.256 195.334 380.594C193.964 379.931 192.904 379.004 192.154 377.811C191.425 376.596 191.06 375.194 191.06 373.604C191.06 371.639 191.524 369.872 192.452 368.304C193.379 366.736 194.671 365.5 196.327 364.594C197.984 363.689 199.85 363.236 201.925 363.236C203.825 363.236 205.459 363.634 206.828 364.429C208.219 365.201 209.257 366.306 209.942 367.741L205.569 369.927C204.796 368.315 203.471 367.509 201.594 367.509C200.578 367.509 199.662 367.763 198.845 368.271C198.05 368.757 197.42 369.441 196.957 370.325C196.515 371.208 196.294 372.213 196.294 373.339C196.294 374.554 196.659 375.525 197.387 376.254C198.116 376.961 199.132 377.314 200.435 377.314C202.334 377.314 203.791 376.519 204.807 374.929L208.617 377.314C207.755 378.661 206.574 379.71 205.072 380.461C203.593 381.212 201.948 381.587 200.137 381.587ZM229.419 371.087C229.419 371.904 229.319 372.809 229.12 373.803H215.473C215.65 376.232 217.184 377.447 220.077 377.447C220.983 377.447 221.844 377.303 222.661 377.016C223.5 376.729 224.229 376.32 224.847 375.79L227 379.202C226.007 379.997 224.869 380.594 223.589 380.991C222.308 381.389 220.961 381.587 219.547 381.587C217.714 381.587 216.102 381.267 214.711 380.627C213.342 379.964 212.282 379.026 211.531 377.811C210.802 376.596 210.438 375.194 210.438 373.604C210.438 371.639 210.88 369.872 211.763 368.304C212.668 366.714 213.916 365.478 215.506 364.594C217.096 363.689 218.907 363.236 220.939 363.236C222.661 363.236 224.152 363.556 225.41 364.197C226.691 364.837 227.674 365.754 228.359 366.946C229.065 368.139 229.419 369.519 229.419 371.087ZM220.707 367.112C219.492 367.112 218.465 367.443 217.626 368.105C216.787 368.746 216.191 369.64 215.837 370.789H224.682C224.682 369.64 224.317 368.746 223.589 368.105C222.882 367.443 221.921 367.112 220.707 367.112ZM244.422 363.236C245.813 363.236 247.094 363.556 248.264 364.197C249.457 364.837 250.395 365.765 251.08 366.979C251.787 368.172 252.14 369.585 252.14 371.219C252.14 373.185 251.698 374.962 250.815 376.552C249.954 378.12 248.772 379.357 247.271 380.262C245.769 381.146 244.102 381.587 242.269 381.587C240.877 381.587 239.674 381.344 238.658 380.859C237.642 380.373 236.858 379.644 236.306 378.672L235.776 381.322H230.874L235.776 356.744H240.944L239.287 365.025C240.723 363.832 242.434 363.236 244.422 363.236ZM241.672 377.314C242.688 377.314 243.594 377.071 244.389 376.585C245.184 376.077 245.802 375.382 246.244 374.499C246.685 373.615 246.906 372.599 246.906 371.451C246.906 370.236 246.542 369.276 245.813 368.569C245.106 367.863 244.113 367.509 242.832 367.509C241.838 367.509 240.944 367.763 240.149 368.271C239.354 368.757 238.735 369.441 238.294 370.325C237.852 371.208 237.631 372.224 237.631 373.372C237.631 374.587 237.985 375.547 238.691 376.254C239.398 376.961 240.392 377.314 241.672 377.314ZM263.052 381.587C261.264 381.587 259.685 381.256 258.315 380.594C256.968 379.931 255.919 379.004 255.169 377.811C254.44 376.596 254.075 375.194 254.075 373.604C254.075 371.639 254.539 369.872 255.467 368.304C256.394 366.736 257.675 365.5 259.309 364.594C260.943 363.689 262.787 363.236 264.841 363.236C266.652 363.236 268.231 363.567 269.578 364.23C270.925 364.892 271.963 365.831 272.692 367.045C273.442 368.238 273.818 369.629 273.818 371.219C273.818 373.185 273.354 374.951 272.427 376.519C271.521 378.087 270.24 379.324 268.584 380.229C266.95 381.135 265.106 381.587 263.052 381.587ZM263.384 377.314C264.377 377.314 265.272 377.071 266.067 376.585C266.862 376.077 267.48 375.382 267.922 374.499C268.363 373.615 268.584 372.599 268.584 371.451C268.584 370.236 268.231 369.276 267.524 368.569C266.817 367.863 265.824 367.509 264.543 367.509C263.527 367.509 262.622 367.763 261.827 368.271C261.032 368.757 260.413 369.441 259.972 370.325C259.53 371.208 259.309 372.224 259.309 373.372C259.309 374.587 259.662 375.547 260.369 376.254C261.098 376.961 262.103 377.314 263.384 377.314ZM284.726 381.587C282.937 381.587 281.358 381.256 279.989 380.594C278.642 379.931 277.593 379.004 276.842 377.811C276.113 376.596 275.749 375.194 275.749 373.604C275.749 371.639 276.213 369.872 277.14 368.304C278.068 366.736 279.349 365.5 280.983 364.594C282.617 363.689 284.461 363.236 286.515 363.236C288.325 363.236 289.904 363.567 291.251 364.23C292.598 364.892 293.636 365.831 294.365 367.045C295.116 368.238 295.491 369.629 295.491 371.219C295.491 373.185 295.028 374.951 294.1 376.519C293.195 378.087 291.914 379.324 290.258 380.229C288.623 381.135 286.78 381.587 284.726 381.587ZM285.057 377.314C286.051 377.314 286.945 377.071 287.74 376.585C288.535 376.077 289.153 375.382 289.595 374.499C290.037 373.615 290.258 372.599 290.258 371.451C290.258 370.236 289.904 369.276 289.198 368.569C288.491 367.863 287.497 367.509 286.216 367.509C285.201 367.509 284.295 367.763 283.5 368.271C282.705 368.757 282.087 369.441 281.645 370.325C281.204 371.208 280.983 372.224 280.983 373.372C280.983 374.587 281.336 375.547 282.043 376.254C282.771 376.961 283.776 377.314 285.057 377.314ZM310.374 371.252L316.502 381.322H310.507L306.267 374.399L303.12 377.016L302.259 381.322H297.091L301.994 356.744H307.161L304.412 370.49L312.958 363.501H319.682L310.374 371.252ZM323.178 369.695C322.295 369.695 321.566 369.419 320.992 368.867C320.418 368.293 320.131 367.575 320.131 366.714C320.131 365.698 320.462 364.87 321.124 364.23C321.787 363.589 322.604 363.269 323.576 363.269C324.459 363.269 325.177 363.545 325.729 364.097C326.303 364.649 326.59 365.367 326.59 366.25C326.59 367.244 326.248 368.072 325.563 368.735C324.901 369.375 324.106 369.695 323.178 369.695ZM320.793 381.587C319.91 381.587 319.181 381.311 318.607 380.759C318.033 380.185 317.746 379.467 317.746 378.606C317.746 377.59 318.077 376.762 318.739 376.122C319.402 375.481 320.219 375.161 321.191 375.161C322.074 375.161 322.792 375.437 323.344 375.989C323.918 376.541 324.205 377.259 324.205 378.142C324.205 379.136 323.863 379.964 323.178 380.627C322.516 381.267 321.721 381.587 320.793 381.587Z" fill="white"/>
<path d="M166.428 545.918L162.884 563.74H157.981L158.312 561.984C156.833 563.331 155.011 564.005 152.847 564.005C151.455 564.005 150.175 563.684 149.004 563.044C147.834 562.403 146.895 561.487 146.189 560.295C145.504 559.08 145.162 557.656 145.162 556.021C145.162 554.056 145.592 552.289 146.454 550.721C147.337 549.131 148.529 547.895 150.031 547.011C151.533 546.106 153.189 545.653 155 545.653C157.738 545.653 159.67 546.548 160.797 548.336L161.26 545.918H166.428ZM154.437 559.731C155.453 559.731 156.358 559.488 157.153 559.003C157.948 558.495 158.566 557.799 159.008 556.916C159.45 556.032 159.67 555.017 159.67 553.868C159.67 552.654 159.306 551.693 158.577 550.986C157.871 550.28 156.877 549.926 155.596 549.926C154.58 549.926 153.675 550.18 152.88 550.688C152.085 551.174 151.466 551.859 151.025 552.742C150.583 553.625 150.362 554.641 150.362 555.79C150.362 557.004 150.716 557.965 151.422 558.671C152.151 559.378 153.156 559.731 154.437 559.731ZM175.684 548.038C176.457 547.199 177.384 546.592 178.466 546.216C179.571 545.841 180.863 545.653 182.342 545.653L181.415 550.423C180.796 550.379 180.399 550.357 180.222 550.357C178.654 550.357 177.395 550.743 176.446 551.516C175.518 552.289 174.889 553.493 174.558 555.127L172.835 563.74H167.668L171.212 545.918H176.115L175.684 548.038ZM188.361 564.005C186.815 564.005 185.347 563.839 183.956 563.508C182.586 563.154 181.515 562.702 180.743 562.15L182.73 558.406C183.503 558.914 184.441 559.323 185.546 559.632C186.672 559.941 187.798 560.096 188.924 560.096C190.095 560.096 190.967 559.952 191.541 559.665C192.115 559.356 192.402 558.925 192.402 558.373C192.402 557.932 192.149 557.611 191.641 557.413C191.133 557.214 190.316 557.004 189.189 556.783C187.909 556.54 186.849 556.275 186.009 555.988C185.192 555.701 184.475 555.237 183.856 554.597C183.26 553.935 182.962 553.04 182.962 551.914C182.962 549.949 183.779 548.414 185.413 547.31C187.069 546.205 189.234 545.653 191.906 545.653C193.142 545.653 194.346 545.786 195.516 546.051C196.687 546.316 197.68 546.68 198.497 547.144L196.642 550.92C195.185 550.015 193.429 549.562 191.376 549.562C190.249 549.562 189.388 549.728 188.792 550.059C188.218 550.39 187.931 550.81 187.931 551.318C187.931 551.781 188.185 552.124 188.692 552.345C189.2 552.543 190.051 552.764 191.243 553.007C192.502 553.25 193.529 553.515 194.324 553.802C195.141 554.067 195.847 554.52 196.444 555.16C197.04 555.801 197.338 556.673 197.338 557.777C197.338 559.765 196.499 561.299 194.821 562.381C193.164 563.463 191.011 564.005 188.361 564.005ZM213.379 545.653C215.366 545.653 216.945 546.183 218.116 547.243C219.286 548.303 219.871 549.805 219.871 551.748C219.871 552.455 219.794 553.162 219.639 553.868L217.652 563.74H212.484L214.406 554.2C214.494 553.824 214.538 553.416 214.538 552.974C214.538 552.046 214.284 551.34 213.776 550.854C213.268 550.368 212.507 550.125 211.491 550.125C210.166 550.125 209.062 550.512 208.178 551.285C207.317 552.035 206.732 553.173 206.423 554.696L204.634 563.74H199.466L204.369 539.161H209.536L207.88 547.541C209.404 546.283 211.237 545.653 213.379 545.653ZM244.194 545.918L240.649 563.74H235.747L236.078 561.984C234.599 563.331 232.777 564.005 230.613 564.005C229.221 564.005 227.94 563.684 226.77 563.044C225.6 562.403 224.661 561.487 223.954 560.295C223.27 559.08 222.928 557.656 222.928 556.021C222.928 554.056 223.358 552.289 224.219 550.721C225.103 549.131 226.295 547.895 227.797 547.011C229.299 546.106 230.955 545.653 232.766 545.653C235.504 545.653 237.436 546.548 238.563 548.336L239.026 545.918H244.194ZM232.203 559.731C233.218 559.731 234.124 559.488 234.919 559.003C235.714 558.495 236.332 557.799 236.774 556.916C237.215 556.032 237.436 555.017 237.436 553.868C237.436 552.654 237.072 551.693 236.343 550.986C235.637 550.28 234.643 549.926 233.362 549.926C232.346 549.926 231.441 550.18 230.646 550.688C229.851 551.174 229.232 551.859 228.791 552.742C228.349 553.625 228.128 554.641 228.128 555.79C228.128 557.004 228.482 557.965 229.188 558.671C229.917 559.378 230.922 559.731 232.203 559.731ZM271.337 545.653C273.281 545.653 274.826 546.183 275.975 547.243C277.123 548.281 277.697 549.761 277.697 551.682C277.697 552.389 277.62 553.117 277.465 553.868L275.511 563.74H270.344L272.232 554.233C272.32 553.791 272.364 553.338 272.364 552.875C272.364 551.969 272.121 551.285 271.635 550.821C271.172 550.357 270.476 550.125 269.549 550.125C267.053 550.125 265.496 551.616 264.878 554.597L263.056 563.74H257.889L259.777 554.233C259.865 553.791 259.909 553.349 259.909 552.908C259.909 552.002 259.666 551.318 259.18 550.854C258.717 550.368 258.021 550.125 257.094 550.125C254.598 550.125 253.03 551.638 252.39 554.663L250.601 563.74H245.434L248.978 545.918H253.88L253.483 547.773C255.029 546.36 256.895 545.653 259.081 545.653C260.318 545.653 261.411 545.907 262.36 546.415C263.332 546.901 264.061 547.619 264.547 548.568C265.408 547.619 266.413 546.901 267.561 546.415C268.709 545.907 269.968 545.653 271.337 545.653ZM277.758 563.74H294.32L293.724 566.721H277.162L277.758 563.74ZM303.554 564.005C302.009 564.005 300.54 563.839 299.149 563.508C297.78 563.154 296.709 562.702 295.936 562.15L297.923 558.406C298.696 558.914 299.635 559.323 300.739 559.632C301.865 559.941 302.991 560.096 304.118 560.096C305.288 560.096 306.16 559.952 306.734 559.665C307.309 559.356 307.596 558.925 307.596 558.373C307.596 557.932 307.342 557.611 306.834 557.413C306.326 557.214 305.509 557.004 304.383 556.783C303.102 556.54 302.042 556.275 301.203 555.988C300.385 555.701 299.668 555.237 299.049 554.597C298.453 553.935 298.155 553.04 298.155 551.914C298.155 549.949 298.972 548.414 300.606 547.31C302.263 546.205 304.427 545.653 307.099 545.653C308.335 545.653 309.539 545.786 310.709 546.051C311.88 546.316 312.874 546.68 313.691 547.144L311.836 550.92C310.378 550.015 308.622 549.562 306.569 549.562C305.442 549.562 304.581 549.728 303.985 550.059C303.411 550.39 303.124 550.81 303.124 551.318C303.124 551.781 303.378 552.124 303.886 552.345C304.394 552.543 305.244 552.764 306.436 553.007C307.695 553.25 308.722 553.515 309.517 553.802C310.334 554.067 311.041 554.52 311.637 555.16C312.233 555.801 312.531 556.673 312.531 557.777C312.531 559.765 311.692 561.299 310.014 562.381C308.357 563.463 306.204 564.005 303.554 564.005ZM328.572 545.653C330.559 545.653 332.138 546.183 333.309 547.243C334.479 548.303 335.064 549.805 335.064 551.748C335.064 552.455 334.987 553.162 334.833 553.868L332.845 563.74H327.678L329.599 554.2C329.687 553.824 329.731 553.416 329.731 552.974C329.731 552.046 329.477 551.34 328.969 550.854C328.462 550.368 327.7 550.125 326.684 550.125C325.359 550.125 324.255 550.512 323.371 551.285C322.51 552.035 321.925 553.173 321.616 554.696L319.827 563.74H314.66L319.562 539.161H324.729L323.073 547.541C324.597 546.283 326.43 545.653 328.572 545.653ZM341.107 545.918H346.241L342.697 563.74H337.562L341.107 545.918ZM344.552 543.434C343.668 543.434 342.94 543.18 342.365 542.672C341.813 542.142 341.537 541.502 341.537 540.751C341.537 539.867 341.846 539.139 342.465 538.565C343.105 537.968 343.933 537.67 344.949 537.67C345.855 537.67 346.583 537.924 347.135 538.432C347.71 538.918 347.997 539.525 347.997 540.254C347.997 541.204 347.676 541.976 347.036 542.573C346.396 543.147 345.567 543.434 344.552 543.434ZM355.509 548.038C356.282 547.199 357.21 546.592 358.292 546.216C359.396 545.841 360.688 545.653 362.168 545.653L361.24 550.423C360.622 550.379 360.224 550.357 360.048 550.357C358.48 550.357 357.221 550.743 356.271 551.516C355.344 552.289 354.714 553.493 354.383 555.127L352.661 563.74H347.493L351.038 545.918H355.94L355.509 548.038ZM374.913 553.67L381.041 563.74H375.045L370.805 556.816L367.658 559.433L366.797 563.74H361.63L366.532 539.161H371.7L368.95 552.908L377.496 545.918H384.221L374.913 553.67ZM391.511 564.005C389.723 564.005 388.144 563.673 386.774 563.011C385.427 562.348 384.378 561.421 383.628 560.228C382.899 559.014 382.534 557.611 382.534 556.021C382.534 554.056 382.998 552.289 383.926 550.721C384.853 549.154 386.134 547.917 387.768 547.011C389.402 546.106 391.246 545.653 393.3 545.653C395.111 545.653 396.69 545.985 398.037 546.647C399.384 547.31 400.422 548.248 401.151 549.463C401.902 550.655 402.277 552.046 402.277 553.636C402.277 555.602 401.813 557.368 400.886 558.936C399.98 560.504 398.699 561.741 397.043 562.646C395.409 563.552 393.565 564.005 391.511 564.005ZM391.843 559.731C392.836 559.731 393.731 559.488 394.526 559.003C395.321 558.495 395.939 557.799 396.381 556.916C396.822 556.032 397.043 555.017 397.043 553.868C397.043 552.654 396.69 551.693 395.983 550.986C395.277 550.28 394.283 549.926 393.002 549.926C391.986 549.926 391.081 550.18 390.286 550.688C389.491 551.174 388.872 551.859 388.431 552.742C387.989 553.625 387.768 554.641 387.768 555.79C387.768 557.004 388.122 557.965 388.828 558.671C389.557 559.378 390.562 559.731 391.843 559.731ZM425.375 545.918L421.83 563.74H416.928L417.292 561.818C416.519 562.547 415.636 563.099 414.642 563.475C413.649 563.828 412.6 564.005 411.496 564.005C409.552 564.005 407.995 563.475 406.825 562.415C405.677 561.355 405.102 559.864 405.102 557.943C405.102 557.214 405.18 556.496 405.334 555.79L407.289 545.918H412.456L410.568 555.458C410.48 555.878 410.436 556.308 410.436 556.75C410.436 558.605 411.429 559.533 413.417 559.533C414.72 559.533 415.791 559.157 416.63 558.406C417.491 557.633 418.076 556.485 418.385 554.961L420.207 545.918H425.375ZM440.53 545.653C442.518 545.653 444.097 546.183 445.267 547.243C446.438 548.303 447.023 549.805 447.023 551.748C447.023 552.455 446.945 553.162 446.791 553.868L444.803 563.74H439.636L441.557 554.2C441.645 553.824 441.69 553.416 441.69 552.974C441.69 552.046 441.436 551.34 440.928 550.854C440.42 550.368 439.658 550.125 438.642 550.125C437.317 550.125 436.213 550.512 435.33 551.285C434.468 552.035 433.883 553.173 433.574 554.696L431.785 563.74H426.618L431.52 539.161H436.688L435.032 547.541C436.555 546.283 438.388 545.653 440.53 545.653ZM453.065 545.918H458.199L454.655 563.74H449.521L453.065 545.918ZM456.51 543.434C455.627 543.434 454.898 543.18 454.324 542.672C453.772 542.142 453.496 541.502 453.496 540.751C453.496 539.867 453.805 539.139 454.423 538.565C455.063 537.968 455.892 537.67 456.907 537.67C457.813 537.67 458.542 537.924 459.094 538.432C459.668 538.918 459.955 539.525 459.955 540.254C459.955 541.204 459.635 541.976 458.994 542.573C458.354 543.147 457.526 543.434 456.51 543.434Z" fill="white"/>
<path d="M150.865 499.094H156.264L151.627 522.281H146.227L150.865 499.094ZM170.678 504.195C172.665 504.195 174.244 504.725 175.414 505.785C176.585 506.823 177.17 508.313 177.17 510.257C177.17 510.985 177.093 511.703 176.938 512.41L174.951 522.281H169.783L171.704 512.741C171.793 512.366 171.837 511.957 171.837 511.515C171.837 510.588 171.583 509.881 171.075 509.395C170.567 508.91 169.805 508.667 168.789 508.667C167.464 508.667 166.36 509.053 165.477 509.826C164.616 510.577 164.03 511.714 163.721 513.238L161.933 522.281H156.765L160.309 504.46H165.212L164.814 506.381C166.404 504.924 168.359 504.195 170.678 504.195ZM186.16 522.546C184.615 522.546 183.146 522.38 181.755 522.049C180.386 521.696 179.315 521.243 178.542 520.691L180.529 516.948C181.302 517.456 182.241 517.864 183.345 518.174C184.471 518.483 185.597 518.637 186.723 518.637C187.894 518.637 188.766 518.494 189.34 518.207C189.914 517.897 190.202 517.467 190.202 516.915C190.202 516.473 189.948 516.153 189.44 515.954C188.932 515.755 188.115 515.546 186.988 515.325C185.708 515.082 184.648 514.817 183.808 514.53C182.991 514.243 182.274 513.779 181.655 513.139C181.059 512.476 180.761 511.582 180.761 510.455C180.761 508.49 181.578 506.955 183.212 505.851C184.868 504.747 187.033 504.195 189.705 504.195C190.941 504.195 192.145 504.327 193.315 504.592C194.486 504.857 195.479 505.222 196.297 505.685L194.442 509.462C192.984 508.556 191.228 508.104 189.175 508.104C188.048 508.104 187.187 508.269 186.591 508.6C186.017 508.932 185.73 509.351 185.73 509.859C185.73 510.323 185.984 510.665 186.492 510.886C186.999 511.085 187.85 511.306 189.042 511.549C190.301 511.791 191.328 512.056 192.123 512.344C192.94 512.609 193.647 513.061 194.243 513.702C194.839 514.342 195.137 515.214 195.137 516.319C195.137 518.306 194.298 519.841 192.62 520.923C190.963 522.005 188.81 522.546 186.16 522.546ZM204.288 515.987C204.244 516.164 204.222 516.407 204.222 516.716C204.222 517.864 204.851 518.439 206.11 518.439C206.794 518.439 207.49 518.229 208.197 517.809L208.959 521.486C207.81 522.193 206.331 522.546 204.52 522.546C202.841 522.546 201.494 522.104 200.479 521.221C199.463 520.338 198.955 519.123 198.955 517.577C198.955 517.136 199.01 516.617 199.12 516.02L200.545 508.832H197.795L198.59 504.857H201.34L202.201 500.518H207.369L206.507 504.857H210.946L210.151 508.832H205.712L204.288 515.987ZM232.741 504.46L229.197 522.281H224.294L224.626 520.525C223.146 521.872 221.324 522.546 219.16 522.546C217.769 522.546 216.488 522.226 215.317 521.585C214.147 520.945 213.209 520.029 212.502 518.836C211.817 517.621 211.475 516.197 211.475 514.563C211.475 512.597 211.906 510.831 212.767 509.263C213.65 507.673 214.843 506.436 216.344 505.553C217.846 504.648 219.502 504.195 221.313 504.195C224.051 504.195 225.984 505.089 227.11 506.878L227.574 504.46H232.741ZM220.75 518.273C221.766 518.273 222.671 518.03 223.466 517.544C224.261 517.036 224.88 516.341 225.321 515.457C225.763 514.574 225.984 513.558 225.984 512.41C225.984 511.195 225.619 510.235 224.891 509.528C224.184 508.821 223.19 508.468 221.909 508.468C220.894 508.468 219.988 508.722 219.193 509.23C218.398 509.716 217.78 510.4 217.338 511.284C216.896 512.167 216.676 513.183 216.676 514.331C216.676 515.546 217.029 516.506 217.736 517.213C218.464 517.92 219.469 518.273 220.75 518.273ZM255.91 504.46L252.962 519.3C252.299 522.656 251.018 525.108 249.119 526.653C247.242 528.199 244.725 528.972 241.567 528.972C239.844 528.972 238.254 528.773 236.797 528.376C235.361 527.978 234.125 527.393 233.087 526.62L235.538 522.877C236.245 523.474 237.15 523.937 238.254 524.268C239.38 524.622 240.562 524.798 241.799 524.798C243.543 524.798 244.868 524.412 245.774 523.639C246.679 522.888 247.297 521.74 247.628 520.194L247.761 519.432C246.326 520.757 244.515 521.42 242.329 521.42C240.849 521.42 239.513 521.122 238.32 520.525C237.128 519.907 236.178 519.035 235.472 517.909C234.787 516.782 234.445 515.457 234.445 513.934C234.445 512.123 234.875 510.477 235.737 508.998C236.598 507.518 237.779 506.348 239.281 505.487C240.805 504.625 242.505 504.195 244.382 504.195C245.774 504.195 246.988 504.46 248.026 504.99C249.086 505.498 249.881 506.293 250.411 507.375L250.974 504.46H255.91ZM243.72 517.18C245.221 517.18 246.458 516.694 247.43 515.722C248.401 514.751 248.887 513.503 248.887 511.979C248.887 510.897 248.534 510.047 247.827 509.429C247.121 508.788 246.138 508.468 244.879 508.468C243.355 508.468 242.097 508.954 241.103 509.925C240.131 510.897 239.645 512.145 239.645 513.669C239.645 514.751 240.01 515.612 240.739 516.252C241.467 516.871 242.461 517.18 243.72 517.18ZM265.191 506.58C265.964 505.741 266.892 505.133 267.974 504.758C269.078 504.383 270.37 504.195 271.849 504.195L270.922 508.965C270.303 508.921 269.906 508.899 269.729 508.899C268.161 508.899 266.903 509.285 265.953 510.058C265.026 510.831 264.396 512.034 264.065 513.669L262.342 522.281H257.175L260.719 504.46H265.622L265.191 506.58ZM292.78 504.46L289.236 522.281H284.333L284.664 520.525C283.185 521.872 281.363 522.546 279.199 522.546C277.808 522.546 276.527 522.226 275.356 521.585C274.186 520.945 273.247 520.029 272.541 518.836C271.856 517.621 271.514 516.197 271.514 514.563C271.514 512.597 271.945 510.831 272.806 509.263C273.689 507.673 274.882 506.436 276.383 505.553C277.885 504.648 279.541 504.195 281.352 504.195C284.09 504.195 286.023 505.089 287.149 506.878L287.613 504.46H292.78ZM280.789 518.273C281.805 518.273 282.71 518.03 283.505 517.544C284.3 517.036 284.918 516.341 285.36 515.457C285.802 514.574 286.023 513.558 286.023 512.41C286.023 511.195 285.658 510.235 284.929 509.528C284.223 508.821 283.229 508.468 281.948 508.468C280.932 508.468 280.027 508.722 279.232 509.23C278.437 509.716 277.819 510.4 277.377 511.284C276.935 512.167 276.714 513.183 276.714 514.331C276.714 515.546 277.068 516.506 277.774 517.213C278.503 517.92 279.508 518.273 280.789 518.273ZM319.924 504.195C321.867 504.195 323.413 504.725 324.561 505.785C325.709 506.823 326.284 508.302 326.284 510.224C326.284 510.93 326.206 511.659 326.052 512.41L324.097 522.281H318.93L320.818 512.774C320.906 512.332 320.95 511.88 320.95 511.416C320.95 510.511 320.708 509.826 320.222 509.362C319.758 508.899 319.062 508.667 318.135 508.667C315.639 508.667 314.083 510.157 313.464 513.139L311.642 522.281H306.475L308.363 512.774C308.451 512.332 308.496 511.891 308.496 511.449C308.496 510.544 308.253 509.859 307.767 509.395C307.303 508.91 306.607 508.667 305.68 508.667C303.184 508.667 301.617 510.179 300.976 513.205L299.187 522.281H294.02L297.564 504.46H302.467L302.069 506.315C303.615 504.901 305.481 504.195 307.667 504.195C308.904 504.195 309.997 504.449 310.947 504.957C311.918 505.443 312.647 506.16 313.133 507.11C313.994 506.16 314.999 505.443 316.147 504.957C317.296 504.449 318.554 504.195 319.924 504.195ZM333.499 510.654C332.616 510.654 331.887 510.378 331.313 509.826C330.739 509.252 330.452 508.534 330.452 507.673C330.452 506.657 330.783 505.829 331.445 505.189C332.108 504.548 332.925 504.228 333.897 504.228C334.78 504.228 335.498 504.504 336.05 505.056C336.624 505.608 336.911 506.326 336.911 507.209C336.911 508.203 336.569 509.031 335.884 509.694C335.222 510.334 334.427 510.654 333.499 510.654ZM331.114 522.546C330.231 522.546 329.502 522.27 328.928 521.718C328.354 521.144 328.067 520.426 328.067 519.565C328.067 518.549 328.398 517.721 329.06 517.08C329.723 516.44 330.54 516.12 331.512 516.12C332.395 516.12 333.113 516.396 333.665 516.948C334.239 517.5 334.526 518.218 334.526 519.101C334.526 520.095 334.184 520.923 333.499 521.585C332.837 522.226 332.042 522.546 331.114 522.546Z" fill="white"/>
<path d="M158.242 686.876L154.698 704.698H149.796L150.127 702.942C148.647 704.289 146.825 704.963 144.661 704.963C143.27 704.963 141.989 704.642 140.819 704.002C139.648 703.361 138.71 702.445 138.003 701.253C137.318 700.038 136.976 698.614 136.976 696.979C136.976 695.014 137.407 693.247 138.268 691.679C139.151 690.089 140.344 688.853 141.846 687.969C143.347 687.064 145.003 686.611 146.814 686.611C149.553 686.611 151.485 687.506 152.611 689.294L153.075 686.876H158.242ZM146.251 700.689C147.267 700.689 148.172 700.446 148.967 699.961C149.762 699.453 150.381 698.757 150.822 697.874C151.264 696.99 151.485 695.975 151.485 694.826C151.485 693.612 151.121 692.651 150.392 691.944C149.685 691.238 148.691 690.884 147.411 690.884C146.395 690.884 145.489 691.138 144.694 691.646C143.899 692.132 143.281 692.817 142.839 693.7C142.398 694.583 142.177 695.599 142.177 696.748C142.177 697.962 142.53 698.923 143.237 699.629C143.966 700.336 144.97 700.689 146.251 700.689ZM167.498 688.996C168.271 688.157 169.199 687.55 170.281 687.174C171.385 686.799 172.677 686.611 174.157 686.611L173.229 691.381C172.611 691.337 172.213 691.315 172.037 691.315C170.469 691.315 169.21 691.702 168.26 692.474C167.333 693.247 166.703 694.451 166.372 696.085L164.65 704.698H159.482L163.027 686.876H167.929L167.498 688.996ZM180.176 704.963C178.63 704.963 177.161 704.797 175.77 704.466C174.401 704.112 173.33 703.66 172.557 703.108L174.544 699.364C175.317 699.872 176.256 700.281 177.36 700.59C178.486 700.899 179.613 701.054 180.739 701.054C181.909 701.054 182.782 700.91 183.356 700.623C183.93 700.314 184.217 699.883 184.217 699.331C184.217 698.89 183.963 698.569 183.455 698.371C182.947 698.172 182.13 697.962 181.004 697.741C179.723 697.498 178.663 697.233 177.824 696.946C177.007 696.659 176.289 696.195 175.671 695.555C175.074 694.893 174.776 693.998 174.776 692.872C174.776 690.907 175.593 689.372 177.228 688.268C178.884 687.163 181.048 686.611 183.72 686.611C184.957 686.611 186.16 686.744 187.331 687.009C188.501 687.274 189.495 687.638 190.312 688.102L188.457 691.878C186.999 690.973 185.244 690.52 183.19 690.52C182.064 690.52 181.203 690.686 180.606 691.017C180.032 691.348 179.745 691.768 179.745 692.276C179.745 692.739 179.999 693.082 180.507 693.303C181.015 693.501 181.865 693.722 183.058 693.965C184.316 694.208 185.343 694.473 186.138 694.76C186.955 695.025 187.662 695.478 188.258 696.118C188.854 696.759 189.153 697.631 189.153 698.735C189.153 700.723 188.313 702.257 186.635 703.339C184.979 704.421 182.826 704.963 180.176 704.963ZM205.193 686.611C207.181 686.611 208.76 687.141 209.93 688.201C211.101 689.261 211.686 690.763 211.686 692.706C211.686 693.413 211.608 694.12 211.454 694.826L209.466 704.698H204.299L206.22 695.158C206.308 694.782 206.353 694.374 206.353 693.932C206.353 693.004 206.099 692.298 205.591 691.812C205.083 691.326 204.321 691.083 203.305 691.083C201.98 691.083 200.876 691.47 199.993 692.243C199.131 692.993 198.546 694.131 198.237 695.654L196.448 704.698H191.281L196.183 680.119H201.351L199.695 688.499C201.218 687.241 203.051 686.611 205.193 686.611ZM236.008 686.876L232.464 704.698H227.561L227.893 702.942C226.413 704.289 224.591 704.963 222.427 704.963C221.036 704.963 219.755 704.642 218.585 704.002C217.414 703.361 216.476 702.445 215.769 701.253C215.084 700.038 214.742 698.614 214.742 696.979C214.742 695.014 215.173 693.247 216.034 691.679C216.917 690.089 218.11 688.853 219.611 687.969C221.113 687.064 222.769 686.611 224.58 686.611C227.318 686.611 229.251 687.506 230.377 689.294L230.841 686.876H236.008ZM224.017 700.689C225.033 700.689 225.938 700.446 226.733 699.961C227.528 699.453 228.147 698.757 228.588 697.874C229.03 696.99 229.251 695.975 229.251 694.826C229.251 693.612 228.886 692.651 228.158 691.944C227.451 691.238 226.457 690.884 225.176 690.884C224.161 690.884 223.255 691.138 222.46 691.646C221.665 692.132 221.047 692.817 220.605 693.7C220.163 694.583 219.943 695.599 219.943 696.748C219.943 697.962 220.296 698.923 221.003 699.629C221.731 700.336 222.736 700.689 224.017 700.689ZM263.152 686.611C265.095 686.611 266.641 687.141 267.789 688.201C268.938 689.239 269.512 690.719 269.512 692.64C269.512 693.347 269.434 694.075 269.28 694.826L267.325 704.698H262.158L264.046 695.191C264.134 694.749 264.179 694.296 264.179 693.833C264.179 692.927 263.936 692.243 263.45 691.779C262.986 691.315 262.291 691.083 261.363 691.083C258.868 691.083 257.311 692.574 256.692 695.555L254.871 704.698H249.703L251.591 695.191C251.68 694.749 251.724 694.307 251.724 693.866C251.724 692.96 251.481 692.276 250.995 691.812C250.531 691.326 249.836 691.083 248.908 691.083C246.413 691.083 244.845 692.596 244.204 695.621L242.416 704.698H237.248L240.792 686.876H245.695L245.297 688.731C246.843 687.318 248.709 686.611 250.896 686.611C252.132 686.611 253.225 686.865 254.175 687.373C255.147 687.859 255.875 688.577 256.361 689.526C257.222 688.577 258.227 687.859 259.376 687.373C260.524 686.865 261.783 686.611 263.152 686.611ZM283.831 681.51L279.193 704.698H273.827L277.603 685.816H272.966L273.827 681.51H283.831ZM293.623 705.095C291.039 705.095 288.996 704.322 287.494 702.776C285.993 701.208 285.242 699.055 285.242 696.317C285.242 693.534 285.75 690.984 286.766 688.665C287.804 686.346 289.239 684.513 291.072 683.166C292.905 681.797 294.992 681.113 297.333 681.113C299.916 681.113 301.959 681.897 303.461 683.464C304.962 685.01 305.713 687.152 305.713 689.891C305.713 692.673 305.194 695.224 304.156 697.543C303.14 699.861 301.716 701.705 299.883 703.074C298.05 704.421 295.963 705.095 293.623 705.095ZM294.119 700.557C295.4 700.557 296.504 700.005 297.432 698.901C298.381 697.796 299.099 696.427 299.585 694.793C300.071 693.137 300.314 691.547 300.314 690.023C300.314 688.544 300.005 687.45 299.386 686.744C298.79 686.015 297.94 685.651 296.836 685.651C295.555 685.651 294.44 686.203 293.49 687.307C292.563 688.411 291.856 689.791 291.37 691.448C290.884 693.082 290.641 694.661 290.641 696.184C290.641 697.664 290.939 698.768 291.536 699.497C292.154 700.204 293.015 700.557 294.119 700.557Z" fill="white"/>
<path d="M156.128 651.281H161.03L159.109 660.821C157.939 661.726 156.581 662.422 155.035 662.908C153.489 663.394 151.888 663.637 150.232 663.637C147.913 663.637 145.892 663.217 144.17 662.378C142.447 661.539 141.111 660.357 140.162 658.833C139.234 657.31 138.77 655.554 138.77 653.567C138.77 650.939 139.378 648.565 140.592 646.445C141.807 644.325 143.518 642.668 145.727 641.476C147.935 640.261 150.475 639.654 153.345 639.654C155.554 639.654 157.464 639.996 159.076 640.681C160.71 641.366 162.024 642.37 163.018 643.695L159.175 646.809C158.402 645.904 157.53 645.252 156.558 644.855C155.587 644.435 154.439 644.225 153.114 644.225C151.347 644.225 149.79 644.623 148.443 645.418C147.096 646.191 146.047 647.262 145.296 648.631C144.567 650 144.203 651.535 144.203 653.235C144.203 655.024 144.777 656.448 145.925 657.508C147.096 658.546 148.763 659.065 150.927 659.065C152.296 659.065 153.577 658.789 154.77 658.237L156.128 651.281ZM166.81 645.418H171.944L168.4 663.239H163.266L166.81 645.418ZM170.255 642.933C169.372 642.933 168.643 642.679 168.069 642.172C167.517 641.642 167.241 641.001 167.241 640.25C167.241 639.367 167.55 638.638 168.168 638.064C168.809 637.468 169.637 637.17 170.653 637.17C171.558 637.17 172.287 637.424 172.839 637.932C173.413 638.417 173.7 639.025 173.7 639.753C173.7 640.703 173.38 641.476 172.739 642.072C172.099 642.646 171.271 642.933 170.255 642.933ZM180.219 656.945C180.175 657.122 180.153 657.365 180.153 657.674C180.153 658.822 180.782 659.397 182.041 659.397C182.726 659.397 183.421 659.187 184.128 658.767L184.89 662.444C183.742 663.151 182.262 663.504 180.451 663.504C178.773 663.504 177.426 663.062 176.41 662.179C175.394 661.296 174.886 660.081 174.886 658.535C174.886 658.094 174.941 657.575 175.052 656.978L176.476 649.79H173.727L174.522 645.815H177.271L178.132 641.476H183.3L182.439 645.815H186.877L186.082 649.79H181.644L180.219 656.945ZM201.504 645.153C203.492 645.153 205.071 645.683 206.241 646.743C207.412 647.803 207.997 649.304 207.997 651.248C207.997 651.954 207.92 652.661 207.765 653.368L205.777 663.239H200.61L202.531 653.699C202.62 653.324 202.664 652.915 202.664 652.473C202.664 651.546 202.41 650.839 201.902 650.353C201.394 649.868 200.632 649.625 199.616 649.625C198.291 649.625 197.187 650.011 196.304 650.784C195.442 651.535 194.857 652.672 194.548 654.196L192.759 663.239H187.592L192.494 638.66H197.662L196.006 647.041C197.529 645.782 199.362 645.153 201.504 645.153ZM231.993 645.418L228.448 663.239H223.546L223.91 661.318C223.137 662.047 222.254 662.599 221.26 662.974C220.266 663.327 219.218 663.504 218.113 663.504C216.17 663.504 214.613 662.974 213.443 661.914C212.294 660.854 211.72 659.363 211.72 657.442C211.72 656.713 211.798 655.996 211.952 655.289L213.907 645.418H219.074L217.186 654.958C217.098 655.377 217.053 655.808 217.053 656.25C217.053 658.105 218.047 659.032 220.035 659.032C221.338 659.032 222.409 658.657 223.248 657.906C224.109 657.133 224.694 655.985 225.003 654.461L226.825 645.418H231.993ZM246.784 645.153C248.175 645.153 249.456 645.473 250.626 646.113C251.819 646.754 252.757 647.681 253.442 648.896C254.149 650.088 254.502 651.502 254.502 653.136C254.502 655.101 254.06 656.879 253.177 658.469C252.316 660.037 251.134 661.274 249.632 662.179C248.131 663.062 246.464 663.504 244.631 663.504C243.239 663.504 242.036 663.261 241.02 662.775C240.004 662.289 239.22 661.561 238.668 660.589L238.138 663.239H233.236L238.138 638.66H243.306L241.649 646.942C243.085 645.749 244.796 645.153 246.784 645.153ZM244.034 659.231C245.05 659.231 245.956 658.988 246.751 658.502C247.546 657.994 248.164 657.299 248.606 656.415C249.047 655.532 249.268 654.516 249.268 653.368C249.268 652.153 248.904 651.193 248.175 650.486C247.468 649.779 246.475 649.426 245.194 649.426C244.2 649.426 243.306 649.68 242.511 650.188C241.716 650.674 241.097 651.358 240.656 652.242C240.214 653.125 239.993 654.141 239.993 655.289C239.993 656.504 240.346 657.464 241.053 658.171C241.76 658.878 242.754 659.231 244.034 659.231ZM260.843 651.612C259.96 651.612 259.231 651.336 258.657 650.784C258.083 650.21 257.795 649.492 257.795 648.631C257.795 647.615 258.127 646.787 258.789 646.147C259.452 645.506 260.269 645.186 261.24 645.186C262.124 645.186 262.841 645.462 263.394 646.014C263.968 646.566 264.255 647.284 264.255 648.167C264.255 649.161 263.913 649.989 263.228 650.652C262.565 651.292 261.77 651.612 260.843 651.612ZM258.458 663.504C257.575 663.504 256.846 663.228 256.272 662.676C255.698 662.102 255.41 661.384 255.41 660.523C255.41 659.507 255.742 658.679 256.404 658.038C257.067 657.398 257.884 657.078 258.855 657.078C259.739 657.078 260.456 657.354 261.009 657.906C261.583 658.458 261.87 659.176 261.87 660.059C261.87 661.053 261.528 661.881 260.843 662.543C260.18 663.184 259.385 663.504 258.458 663.504Z" fill="white"/>
<path d="M69.5456 67.5335L70.328 65.6686L71.1104 63.8037L100.548 76.1538L129.985 88.5039L129.202 90.3688L128.42 92.2336L126.084 91.2535C124.093 90.4182 123.692 90.4052 123.372 91.167C123.166 91.6584 122.69 92.0569 122.314 92.0521C121.79 92.0455 121.74 92.2147 122.098 92.7795C122.809 93.9001 120.818 94.5272 118.988 93.7593C116.951 92.9048 115.787 93.53 114.731 96.0467L113.837 98.1778L111.501 97.1976L109.165 96.2174L108.187 98.5485L107.209 100.88L104.872 99.8995L102.536 98.9193L101.558 101.25L100.58 103.582L98.2437 102.601L95.9074 101.621L94.7339 104.419L93.5603 107.216L96.3638 108.392L99.1674 109.568L100.145 107.237L101.123 104.906L103.46 105.886L105.796 106.866L106.774 104.535L107.752 102.204L110.088 103.184L112.424 104.164L113.598 101.367L114.772 98.5698L116.907 99.4659C118.28 100.042 119.439 100.201 120.151 99.911C120.955 99.583 121.121 99.3411 120.758 99.0237C120.484 98.7835 120.516 97.9757 120.83 97.2279C121.384 95.9067 121.467 95.896 123.736 96.8481L126.073 97.8283L120.009 112.281L113.946 126.734L85.1762 114.664C60.8653 104.465 56.3462 102.448 56.0185 101.648C55.7002 100.873 56.6249 98.3306 61.1348 87.581C67.2389 73.0316 67.1783 73.1197 70.2024 74.3884L71.871 75.0885L70.893 77.4196L69.915 79.7507L71.5836 80.4507C73.6414 81.314 74.2179 82.5922 73.414 84.5083C72.61 86.4245 73.1865 87.7026 75.2443 88.5659C76.8461 89.2379 76.885 89.3326 76.2145 90.9309C75.353 92.9841 75.8401 94.2987 77.7605 95.1044C79.6809 95.9101 80.1679 97.2247 79.3065 99.2779L78.608 100.943L80.9443 101.923L83.2806 102.903L82.3026 105.234L81.3246 107.565L86.4645 109.722L91.6043 111.878L92.4984 109.747C93.7893 106.67 93.3557 106.033 88.6112 104.043L84.6063 102.363L85.3048 100.698C86.2409 98.4666 85.6755 97.3285 83.0911 96.2442L80.9552 95.3481L81.9332 93.017L82.9112 90.6859L80.5749 89.7058L78.2386 88.7256L79.2166 86.3945L80.1946 84.0634L77.8583 83.0832L75.5221 82.1031L76.4161 79.972C77.498 77.3933 77.1016 76.1863 74.8653 75.2481L73.1967 74.5481L74.1747 72.217L75.1527 69.8859L72.3491 68.7097L69.5456 67.5335Z" fill="#F8CC14"/>
<path fill-rule="evenodd" clip-rule="evenodd" d="M55.6317 230.636L55.8842 231.579L54.9417 231.831L53.9992 232.084L62.0806 262.244L70.1619 292.404L71.1044 292.151L72.0469 291.899L72.2995 292.841L72.552 293.784L102.712 285.702L132.872 277.621L132.62 276.679L132.367 275.736L133.31 275.483L134.252 275.231L126.171 245.071L118.089 214.911L117.147 215.163L116.204 215.416L115.952 214.473L115.699 213.531L85.5392 221.612L55.3791 229.694L55.6317 230.636ZM75.3747 236.458L75.8798 238.343L76.8223 238.09L77.7648 237.838L78.0173 238.78L78.2698 239.723L77.3273 239.975L76.3848 240.228L76.8899 242.113L77.395 243.998L75.51 244.503L73.625 245.008L73.8775 245.951L74.1301 246.893L73.1876 247.146L72.2451 247.398L71.9925 246.456L71.74 245.513L69.855 246.018L67.97 246.523L66.9598 242.753L65.9497 238.983L66.8922 238.731L67.8347 238.478L67.5821 237.536L67.3296 236.593L71.0996 235.583L74.8696 234.573L75.3747 236.458ZM105.048 241.639L105.3 242.582L108.128 241.824L110.955 241.066L111.208 242.009L111.46 242.951L112.403 242.699L113.345 242.446L113.85 244.331L114.356 246.216L115.298 245.964L116.241 245.711L119.524 257.964L122.807 270.216L118.094 271.479L113.382 272.742L110.604 262.374L107.826 252.007L106.883 252.259L105.941 252.512L105.688 251.569L105.436 250.627L101.666 251.637L97.8956 252.647L98.4007 254.532L98.9058 256.417L97.9633 256.67L97.0208 256.922L99.5462 266.347L102.072 275.772L97.3591 277.035L92.6466 278.298L88.606 263.218L84.5653 248.138L89.2778 246.875L93.9903 245.612L94.4954 247.497L95.0005 249.382L95.943 249.13L96.8855 248.877L96.6329 247.935L96.3804 246.992L97.3229 246.74L98.2654 246.487L98.0128 245.545L97.7603 244.602L99.6453 244.097L101.53 243.592L101.278 242.649L101.025 241.707L102.91 241.202L104.795 240.697L105.048 241.639ZM82.9509 264.733L86.9916 279.813L82.2791 281.076L77.5666 282.338L73.5259 267.258L69.4853 252.178L74.1978 250.916L78.9103 249.653L82.9509 264.733Z" fill="#F8CC14"/>
</svg>
