<svg width="217" height="343" viewBox="0 0 217 343" fill="none" xmlns="http://www.w3.org/2000/svg">
<path d="M164.678 27.3761H192.895L177.481 14.2695L162.067 27.3761H164.678Z" fill="#007AE0"/>
<path d="M109.611 27.3761H137.828L122.414 14.2695L107 27.3761H109.611Z" fill="#007AE0"/>
<path d="M141.581 27.4818H157.965L149.015 19.8716L140.065 27.4818H141.581Z" fill="#007AE0"/>
<path d="M153.017 17.1231H169.401L160.451 24.7334L151.502 17.1231H153.017Z" fill="#007AE0"/>
<path d="M149.343 13.5296L174.374 13.5296L160.701 1.90283L147.027 13.5296H149.343Z" fill="#007AE0"/>
<path d="M121.647 9.61382L139.347 24.6643V8.22149H120.009L121.647 9.61382Z" fill="#007AE0"/>
<path d="M46.5668 314.111H17.8174L33.5219 327.465L49.2265 314.111H46.5668Z" fill="#007AE0"/>
<path d="M102.673 314.111H73.9233L89.6279 327.465L105.332 314.111H102.673Z" fill="#007AE0"/>
<path d="M70.099 314.003H53.4058L62.5245 321.757L71.6433 314.003H70.099Z" fill="#007AE0"/>
<path d="M58.4471 324.558H41.7539L50.8727 316.804L59.9914 324.558H58.4471Z" fill="#007AE0"/>
<path d="M62.191 328.219H36.6875L50.619 340.065L64.5504 328.219H62.191Z" fill="#007AE0"/>
<path d="M90.4097 332.209L72.3759 316.874V333.627H92.078L90.4097 332.209Z" fill="#007AE0"/>
<path d="M0.0161133 315.003H216.693V64.8507V27.0034H171.121H0.0161133V315.003Z" fill="#007AE0"/>
<path fill-rule="evenodd" clip-rule="evenodd" d="M34.2074 259.752L34.1117 260.138L33.3112 259.939L32.5106 259.741L32.4149 260.127L32.3192 260.513L31.9189 260.413L31.5186 260.314L31.4229 260.7L31.3272 261.086L30.9269 260.987L30.5267 260.888L30.4309 261.274L30.3352 261.66L29.935 261.56L29.5347 261.461L29.439 261.847L29.3433 262.233L28.943 262.134L28.5427 262.034L28.447 262.42L28.3513 262.806L27.951 262.707L27.5507 262.608L27.3593 263.38L27.1679 264.152L26.7676 264.053L26.3673 263.953L26.1759 264.725L25.9845 265.497L25.5842 265.398L25.1839 265.299L24.3225 268.773L23.4611 272.246L23.8614 272.346L24.2617 272.445L24.0703 273.217L23.8788 273.989L24.2791 274.088L24.6794 274.187L24.5837 274.573L24.488 274.959L24.8883 275.059L25.2885 275.158L25.1928 275.544L25.0971 275.93L25.4974 276.029L25.8977 276.128L25.802 276.514L25.7062 276.9L26.1065 277L26.5068 277.099L26.4111 277.485L26.3154 277.871L26.7157 277.97L27.1159 278.069L27.0202 278.455L26.9245 278.841L27.3248 278.94L27.7251 279.04L27.6294 279.426L27.5336 279.812L28.3342 280.01L29.1348 280.209L29.039 280.595L28.9433 280.981L29.7439 281.179L30.5444 281.378L30.9273 279.834L31.3101 278.29L29.709 277.893L28.1079 277.496L28.2036 277.11L28.2993 276.724L27.8991 276.625L27.4988 276.525L27.5945 276.139L27.6902 275.753L27.2899 275.654L26.8896 275.555L26.9854 275.169L27.0811 274.783L26.6808 274.684L26.2805 274.584L26.3762 274.198L26.4719 273.812L27.2725 274.011L28.073 274.209L27.9773 274.595L27.8816 274.981L28.2819 275.081L28.6822 275.18L28.5865 275.566L28.4908 275.952L28.891 276.051L29.2913 276.15L29.1956 276.536L29.0999 276.922L29.9004 277.121L30.701 277.319L30.7967 276.933L30.8924 276.547L31.2927 276.647L31.693 276.746L31.7887 276.36L31.8844 275.974L32.2847 276.073L32.6849 276.172L32.7807 275.786L32.8764 275.401L31.2753 275.003L29.6742 274.606L29.7699 274.22L29.8656 273.834L29.4653 273.735L29.065 273.636L29.1607 273.25L29.2564 272.864L28.8562 272.765L28.4559 272.666L28.5516 272.28L28.6473 271.894L28.247 271.794L27.8468 271.695L28.421 269.379L28.9953 267.063L29.3956 267.163L29.7958 267.262L29.8915 266.876L29.9873 266.49L30.3875 266.589L30.7878 266.688L30.8835 266.302L30.9792 265.916L30.579 265.817L30.1787 265.718L30.4658 264.56L30.7529 263.402L31.9538 263.7L33.1546 263.997L33.0589 264.383L32.9632 264.769L33.3635 264.869L33.7637 264.968L33.668 265.354L33.5723 265.74L33.9726 265.839L34.3729 265.938L34.4686 265.552L34.5643 265.166L36.5657 265.663L38.5671 266.159L38.4714 266.545L38.3756 266.931L38.7759 267.03L39.1762 267.13L39.2719 266.744L39.3676 266.358L39.7679 266.457L40.1682 266.556L40.2639 266.17L40.3596 265.784L41.5604 266.082L42.7613 266.38L42.4741 267.538L42.187 268.696L41.7867 268.596L41.3864 268.497L41.2907 268.883L41.195 269.269L41.5953 269.368L41.9956 269.467L41.8999 269.853L41.8042 270.239L42.2044 270.339L42.6047 270.438L42.0304 272.754L41.4562 275.07L41.0559 274.97L40.6556 274.871L40.5599 275.257L40.4642 275.643L40.0639 275.544L39.6637 275.445L39.5679 275.831L39.4722 276.217L39.072 276.117L38.6717 276.018L38.576 276.404L38.4803 276.79L36.8791 276.393L35.278 275.996L35.1823 276.382L35.0866 276.768L35.4869 276.867L35.8872 276.967L35.7915 277.352L35.6957 277.738L36.096 277.838L36.4963 277.937L35.922 280.253L35.3478 282.569L36.1483 282.767L36.9489 282.966L37.0446 282.58L37.1403 282.194L37.5406 282.293L37.9409 282.392L38.0366 282.006L38.1323 281.62L38.5326 281.72L38.9328 281.819L39.0285 281.433L39.1243 281.047L39.5245 281.146L39.9248 281.245L40.0205 280.859L40.1162 280.473L40.5165 280.573L40.9168 280.672L41.0125 280.286L41.1082 279.9L41.5085 279.999L41.9088 280.099L42.0045 279.713L42.1002 279.327L42.5005 279.426L42.9007 279.525L42.9964 279.139L43.0922 278.753L43.4924 278.852L43.8927 278.952L44.0841 278.18L44.2756 277.408L44.6758 277.507L45.0761 277.606L45.9375 274.132L46.7989 270.659L46.3986 270.559L45.9984 270.46L46.1898 269.688L46.3812 268.916L45.9809 268.817L45.5806 268.718L45.7721 267.946L45.9635 267.174L45.5632 267.074L45.1629 266.975L45.2586 266.589L45.3543 266.203L44.9541 266.104L44.5538 266.005L44.6495 265.619L44.7452 265.233L44.3449 265.133L43.9447 265.034L44.0404 264.648L44.1361 264.262L43.7358 264.163L43.3355 264.064L43.4312 263.678L43.527 263.292L43.1267 263.193L42.7264 263.093L42.8221 262.707L42.9178 262.321L42.1173 262.123L41.3167 261.924L41.4124 261.538L41.5081 261.152L37.9056 260.259L34.3031 259.366L34.2074 259.752Z" fill="#F8CC14"/>
<path fill-rule="evenodd" clip-rule="evenodd" d="M29.7189 156.605L29.5585 157.462L28.7013 157.302L27.8442 157.142L26.0888 166.52L24.3335 175.898L25.1907 176.059L26.0478 176.219L25.8874 177.076L25.727 177.933L30.8195 178.887L35.912 179.84L36.5443 176.462L37.1766 173.083L35.5343 172.776C34.1782 172.522 33.8818 172.454 33.8335 172.383C33.7613 172.278 33.7801 172.152 33.8708 172.134C33.922 172.123 33.9228 172.102 33.8739 172.048C33.825 171.993 33.8257 171.972 33.8769 171.962C33.9573 171.945 34.0035 171.759 33.9305 171.745C33.8981 171.739 33.97 171.255 34.1309 170.396C34.3356 169.302 34.3973 169.045 34.4672 168.998C34.5377 168.949 34.8388 168.993 36.195 169.246L37.8372 169.554L38.4695 166.176L39.1018 162.797L39.959 162.958L40.8161 163.118L40.9766 162.261L41.137 161.404L43.7085 161.885L46.2799 162.367L45.9591 164.081L45.6382 165.795L43.9959 165.488C42.5292 165.213 42.343 165.188 42.2537 165.249C42.181 165.299 42.1697 165.326 42.2124 165.35C42.2889 165.392 42.2379 165.663 42.1491 165.686C42.0943 165.7 42.0921 165.712 42.1381 165.745C42.2117 165.797 41.4535 169.918 41.3729 169.902C41.298 169.888 41.2842 170.039 41.3514 170.137C41.3997 170.208 41.6961 170.276 43.0522 170.53L44.6945 170.837L44.3777 172.53C44.0943 174.044 44.0503 174.23 43.9609 174.291C43.8882 174.341 43.8585 174.341 43.8518 174.293C43.841 174.214 43.6536 174.168 43.6399 174.241C43.6339 174.273 43.1599 174.203 42.3196 174.046C41.4792 173.889 41.012 173.782 41.0181 173.75C41.0232 173.722 40.9821 173.691 40.9266 173.681C40.8712 173.67 40.8216 173.685 40.8164 173.712C40.8112 173.74 40.7615 173.754 40.7061 173.744C40.6506 173.734 40.601 173.748 40.5958 173.775C40.5906 173.803 40.6091 173.83 40.6368 173.835C40.6699 173.841 40.4764 174.971 40.0738 177.122C39.6711 179.273 39.443 180.396 39.4099 180.39C39.3822 180.385 39.3553 180.403 39.3501 180.431C39.3439 180.464 40.2314 180.648 41.9121 180.963L44.4836 181.444L44.644 180.587L44.8045 179.73L45.6616 179.89L46.5188 180.051L48.2741 170.672L50.0294 161.294L49.1723 161.134L48.3151 160.973L48.4756 160.116L48.636 159.259L39.2577 157.503L29.8794 155.748L29.7189 156.605Z" fill="#F8CC14"/>
<path fill-rule="evenodd" clip-rule="evenodd" d="M23.8576 213.153L24.0689 213.975L23.2469 214.187L22.4249 214.398L24.7363 223.391L27.0476 232.384L27.8695 232.173L28.6915 231.962L28.9027 232.784L29.114 233.606L33.9974 232.351L38.8808 231.096L38.0483 227.856L37.2157 224.617L35.6409 225.021C34.3404 225.356 34.0508 225.417 33.9792 225.375C33.872 225.311 33.837 225.193 33.9095 225.139C33.9504 225.109 33.9424 225.09 33.8768 225.062C33.8112 225.034 33.8032 225.015 33.8441 224.985C33.9082 224.938 33.8722 224.754 33.8022 224.772C33.7712 224.78 33.6355 224.324 33.4237 223.5C33.1541 222.451 33.1029 222.199 33.1448 222.128C33.1872 222.057 33.4706 221.971 34.771 221.637L36.3458 221.232L35.5133 217.993L34.6807 214.753L35.5027 214.542L36.3246 214.331L36.1134 213.509L35.9021 212.687L38.368 212.053L40.8339 211.419L41.2564 213.063L41.6789 214.707L40.1041 215.112C38.6975 215.473 38.5228 215.527 38.4692 215.618C38.4256 215.692 38.427 215.721 38.4744 215.724C38.5593 215.73 38.6257 215.99 38.5567 216.046C38.5142 216.081 38.5171 216.093 38.5712 216.103C38.6579 216.119 39.6848 220.065 39.6075 220.085C39.5357 220.103 39.5854 220.241 39.685 220.3C39.7567 220.343 40.0463 220.281 41.3467 219.947L42.9215 219.542L43.3387 221.165C43.7118 222.617 43.7496 222.799 43.6959 222.89C43.6523 222.964 43.6263 222.976 43.6005 222.937C43.5584 222.871 43.3742 222.908 43.3921 222.978C43.4001 223.009 42.9533 223.142 42.1475 223.349C41.3416 223.556 40.8859 223.655 40.8779 223.624C40.8711 223.597 40.822 223.587 40.7688 223.6C40.7156 223.614 40.6777 223.647 40.6845 223.674C40.6913 223.7 40.6534 223.733 40.6002 223.747C40.547 223.76 40.5091 223.793 40.516 223.82C40.5228 223.847 40.5501 223.863 40.5767 223.856C40.6085 223.848 40.9026 224.923 41.4328 226.986C52.3498 225.092 40.6542 229.662 40.6225 229.67C37.9381 227.428 38.874 231.069 38.8808 231.096C38.889 231.127 43.0229 230.031 44.6346 229.617L47.1004 228.983L46.8892 228.161L46.6779 227.339L47.4999 227.128L48.3219 226.917L46.0106 217.923L43.6992 208.93L42.8773 209.141L42.0553 209.353L41.8441 208.531L41.6328 207.709L32.6396 210.02L23.6464 212.331L23.8576 213.153Z" fill="#F8CC14"/>
<rect x="28.6255" y="214.18" width="14.0126" height="18.9359" transform="rotate(-14.4134 28.6255 214.18)" fill="#F8CC14"/>
<path fill-rule="evenodd" clip-rule="evenodd" d="M36.8734 214.406L31.1232 215.884L31.6159 217.801L37.366 216.323L36.8734 214.406ZM38.2702 215.069L37.1202 215.365L37.6128 217.281L38.7624 216.986L38.7624 216.986L38.7627 216.986L40.2897 222.927L42.2064 222.435L40.6793 216.493L39.9124 216.69L39.6169 215.54L38.4673 215.836L38.2702 215.069ZM30.219 217.138L31.3691 216.842L31.8617 218.759L30.7124 219.054L30.7125 219.055L30.7122 219.055L32.2392 224.996L32.2393 224.996L32.2395 224.997L33.3895 224.701L33.8821 226.618L32.732 226.913L32.5348 226.146L31.3848 226.442L31.0893 225.292L30.3225 225.489L28.7954 219.547L29.5624 219.35L29.2669 218.2L30.4161 217.905L30.219 217.138ZM34.1288 227.576L39.879 226.098L39.3864 224.182L33.6362 225.659L34.1288 227.576ZM39.6327 225.14L40.7827 224.844L40.5857 224.077L41.7354 223.782L41.4398 222.632L40.2898 222.927L40.2898 222.927L39.1401 223.223L39.6327 225.14Z" fill="#007AE0"/>
<rect x="39.2153" y="210.816" width="3.0094" height="2.70846" transform="rotate(-14.4134 39.2153 210.816)" fill="#007AE0"/>
<rect x="39.6792" y="212.604" width="0.989509" height="2.96853" transform="rotate(-104.413 39.6792 212.604)" fill="#007AE0"/>
<path d="M58.081 76.1213C57.1433 76.1213 56.4019 75.8408 55.8569 75.2797C55.3119 74.7107 55.0394 73.9292 55.0394 72.9354C55.0394 71.9255 55.2237 70.9998 55.5924 70.1582C55.9691 69.3166 56.4901 68.6514 57.1553 68.1625C57.8206 67.6655 58.578 67.4171 59.4276 67.4171C60.3653 67.4171 61.1067 67.7016 61.6517 68.2707C62.1967 68.8317 62.4692 69.6092 62.4692 70.603C62.4692 71.6129 62.2809 72.5386 61.9042 73.3802C61.5355 74.2218 61.0185 74.891 60.3533 75.388C59.688 75.8769 58.9306 76.1213 58.081 76.1213ZM58.2614 74.4742C58.7262 74.4742 59.127 74.2739 59.4636 73.8731C59.8083 73.4724 60.0688 72.9754 60.2451 72.3823C60.4214 71.7812 60.5096 71.2041 60.5096 70.6511C60.5096 70.1141 60.3974 69.7174 60.173 69.4609C59.9565 69.1964 59.648 69.0641 59.2472 69.0641C58.7824 69.0641 58.3776 69.2645 58.033 69.6653C57.6963 70.066 57.4398 70.5669 57.2635 71.1681C57.0872 71.7612 56.999 72.3342 56.999 72.8873C56.999 73.4243 57.1072 73.825 57.3236 74.0895C57.548 74.346 57.8606 74.4742 58.2614 74.4742ZM67.3128 67.5613L65.6296 75.9771H63.682L65.0526 69.1243H63.3694L63.682 67.5613H67.3128ZM72.0208 67.5613L70.3377 75.9771H68.39L69.7606 69.1243H68.0774L68.39 67.5613H72.0208ZM72.7854 71.8413H76.1878L75.8872 73.3441H72.4849L72.7854 71.8413ZM83.4759 68.8237L81.1195 71.0238C81.7046 71.1601 82.1575 71.4125 82.4781 71.7812C82.7987 72.1499 82.959 72.6068 82.959 73.1518C82.959 73.7208 82.7907 74.2298 82.454 74.6786C82.1254 75.1275 81.6646 75.4801 81.0715 75.7366C80.4783 75.9931 79.8051 76.1213 79.0517 76.1213C78.4345 76.1213 77.8575 76.0372 77.3204 75.8688C76.7834 75.7005 76.3346 75.4601 75.9739 75.1475L76.9117 73.7168C77.1922 73.9573 77.5288 74.1456 77.9216 74.2819C78.3223 74.4181 78.7431 74.4863 79.1839 74.4863C79.761 74.4863 80.2058 74.3821 80.5184 74.1737C80.831 73.9573 80.9873 73.6567 80.9873 73.272C80.9873 72.9674 80.8711 72.743 80.6386 72.5987C80.4142 72.4465 80.0696 72.3703 79.6047 72.3703H78.7151L78.9675 71.0839L81.0594 69.1243H77.5008L77.8254 67.5613H83.7164L83.4759 68.8237ZM90.5321 68.8237L88.1757 71.0238C88.7608 71.1601 89.2136 71.4125 89.5342 71.7812C89.8548 72.1499 90.0151 72.6068 90.0151 73.1518C90.0151 73.7208 89.8468 74.2298 89.5102 74.6786C89.1816 75.1275 88.7207 75.4801 88.1276 75.7366C87.5345 75.9931 86.8612 76.1213 86.1078 76.1213C85.4907 76.1213 84.9136 76.0372 84.3766 75.8688C83.8396 75.7005 83.3908 75.4601 83.0301 75.1475L83.9678 73.7168C84.2484 73.9573 84.585 74.1456 84.9777 74.2819C85.3785 74.4181 85.7993 74.4863 86.2401 74.4863C86.8172 74.4863 87.262 74.3821 87.5746 74.1737C87.8872 73.9573 88.0434 73.6567 88.0434 73.272C88.0434 72.9674 87.9272 72.743 87.6948 72.5987C87.4704 72.4465 87.1257 72.3703 86.6609 72.3703H85.7712L86.0237 71.0839L88.1156 69.1243H84.5569L84.8815 67.5613H90.7725L90.5321 68.8237ZM98.4404 74.2097H97.0578L96.7092 75.9771H94.8096L95.1703 74.2097H90.6379L90.8903 72.8993L95.8436 67.5613H97.9716L93.3549 72.6228H95.5671L95.8796 71.0478H97.695L97.3825 72.6228H98.765L98.4404 74.2097ZM106.729 74.2097H105.347L104.998 75.9771H103.099L103.459 74.2097H98.9268L99.1792 72.8993L104.132 67.5613H106.26L101.644 72.6228H103.856L104.169 71.0478H105.984L105.671 72.6228H107.054L106.729 74.2097ZM108.054 71.8413H111.457L111.156 73.3441H107.754L108.054 71.8413ZM118.745 68.8237L116.389 71.0238C116.974 71.1601 117.426 71.4125 117.747 71.7812C118.068 72.1499 118.228 72.6068 118.228 73.1518C118.228 73.7208 118.06 74.2298 117.723 74.6786C117.394 75.1275 116.934 75.4801 116.34 75.7366C115.747 75.9931 115.074 76.1213 114.321 76.1213C113.704 76.1213 113.126 76.0372 112.589 75.8688C112.052 75.7005 111.604 75.4601 111.243 75.1475L112.181 73.7168C112.461 73.9573 112.798 74.1456 113.191 74.2819C113.591 74.4181 114.012 74.4863 114.453 74.4863C115.03 74.4863 115.475 74.3821 115.787 74.1737C116.1 73.9573 116.256 73.6567 116.256 73.272C116.256 72.9674 116.14 72.743 115.908 72.5987C115.683 72.4465 115.339 72.3703 114.874 72.3703H113.984L114.237 71.0839L116.328 69.1243H112.77L113.094 67.5613H118.985L118.745 68.8237ZM126.653 74.2097H125.271L124.922 75.9771H123.022L123.383 74.2097H118.851L119.103 72.8993L124.056 67.5613H126.184L121.568 72.6228H123.78L124.092 71.0478H125.908L125.595 72.6228H126.978L126.653 74.2097ZM131.12 67.4171C131.793 67.4171 132.383 67.5493 132.887 67.8138C133.4 68.0783 133.797 68.471 134.078 68.992C134.366 69.505 134.511 70.1301 134.511 70.8675C134.511 71.7171 134.33 72.5466 133.97 73.3562C133.609 74.1577 133.048 74.8189 132.286 75.3399C131.525 75.8608 130.583 76.1213 129.461 76.1213C128.996 76.1213 128.551 76.0732 128.127 75.9771C127.71 75.8729 127.369 75.7326 127.105 75.5563L127.994 74.1256C128.395 74.3981 128.92 74.5344 129.569 74.5344C130.355 74.5344 130.98 74.3139 131.445 73.8731C131.918 73.4323 132.23 72.8632 132.383 72.1659C131.902 72.6148 131.272 72.8392 130.495 72.8392C129.99 72.8392 129.529 72.743 129.112 72.5507C128.696 72.3583 128.363 72.0818 128.115 71.7211C127.866 71.3524 127.742 70.9156 127.742 70.4107C127.742 69.8095 127.886 69.2845 128.175 68.8357C128.471 68.3789 128.876 68.0302 129.389 67.7898C129.902 67.5413 130.479 67.4171 131.12 67.4171ZM131 71.3845C131.457 71.3845 131.826 71.2602 132.106 71.0118C132.387 70.7633 132.527 70.4467 132.527 70.062C132.527 69.7254 132.403 69.4448 132.154 69.2204C131.906 68.988 131.569 68.8718 131.144 68.8718C130.711 68.8718 130.359 68.996 130.086 69.2445C129.814 69.4929 129.677 69.8256 129.677 70.2423C129.677 70.595 129.798 70.8755 130.038 71.0839C130.279 71.2843 130.599 71.3845 131 71.3845ZM141.639 68.8237L139.283 71.0238C139.868 71.1601 140.321 71.4125 140.641 71.7812C140.962 72.1499 141.122 72.6068 141.122 73.1518C141.122 73.7208 140.954 74.2298 140.617 74.6786C140.289 75.1275 139.828 75.4801 139.235 75.7366C138.642 75.9931 137.968 76.1213 137.215 76.1213C136.598 76.1213 136.021 76.0372 135.484 75.8688C134.947 75.7005 134.498 75.4601 134.137 75.1475L135.075 73.7168C135.356 73.9573 135.692 74.1456 136.085 74.2819C136.486 74.4181 136.906 74.4863 137.347 74.4863C137.924 74.4863 138.369 74.3821 138.682 74.1737C138.994 73.9573 139.151 73.6567 139.151 73.272C139.151 72.9674 139.034 72.743 138.802 72.5987C138.578 72.4465 138.233 72.3703 137.768 72.3703H136.878L137.131 71.0839L139.223 69.1243H135.664L135.989 67.5613H141.88L141.639 68.8237Z" fill="white"/>
<path d="M61.8477 51.3523C62.8977 51.3523 63.7072 51.5848 64.2763 52.0496C64.8533 52.5065 65.1419 53.1477 65.1419 53.9732C65.1419 54.6786 64.9736 55.2957 64.6369 55.8247C64.3083 56.3457 63.8354 56.7464 63.2183 57.0269C62.6091 57.3075 61.8878 57.4477 61.0542 57.4477H59.1787L58.7219 59.7681H56.7622L58.4454 51.3523H61.8477ZM61.1384 55.8608C61.7876 55.8608 62.2885 55.7125 62.6412 55.4159C62.9939 55.1194 63.1702 54.6946 63.1702 54.1416C63.1702 53.7408 63.0339 53.4402 62.7614 53.2399C62.4969 53.0395 62.1122 52.9393 61.6073 52.9393H60.0804L59.4913 55.8608H61.1384ZM70.4969 53.2038C71.2183 53.2038 71.7914 53.3962 72.2162 53.7809C72.6409 54.1656 72.8533 54.7106 72.8533 55.4159C72.8533 55.6724 72.8253 55.9289 72.7692 56.1854L72.0478 59.7681H70.1723L70.8696 56.3056C70.9017 56.1693 70.9177 56.0211 70.9177 55.8608C70.9177 55.5241 70.8256 55.2677 70.6412 55.0913C70.4569 54.915 70.1804 54.8268 69.8117 54.8268C69.3308 54.8268 68.93 54.9671 68.6094 55.2476C68.2968 55.5201 68.0844 55.9329 67.9722 56.4859L67.323 59.7681H65.4475L67.2268 50.8474H69.1023L68.5012 53.8891C69.0542 53.4322 69.7195 53.2038 70.4969 53.2038ZM77.2087 59.8642C76.5595 59.8642 75.9864 59.744 75.4895 59.5036C75.0005 59.2631 74.6198 58.9265 74.3473 58.4937C74.0828 58.0529 73.9506 57.5439 73.9506 56.9668C73.9506 56.2535 74.1189 55.6123 74.4555 55.0432C74.7922 54.4742 75.257 54.0253 75.8501 53.6967C76.4432 53.3681 77.1125 53.2038 77.8579 53.2038C78.5151 53.2038 79.0882 53.324 79.5771 53.5645C80.066 53.8049 80.4427 54.1456 80.7072 54.5864C80.9797 55.0192 81.116 55.5241 81.116 56.1012C81.116 56.8145 80.9476 57.4557 80.611 58.0248C80.2824 58.5939 79.8175 59.0427 79.2164 59.3713C78.6233 59.6999 77.9541 59.8642 77.2087 59.8642ZM77.3289 58.3133C77.6896 58.3133 78.0142 58.2252 78.3027 58.0489C78.5912 57.8645 78.8157 57.612 78.976 57.2914C79.1363 56.9708 79.2164 56.6022 79.2164 56.1854C79.2164 55.7446 79.0882 55.3959 78.8317 55.1394C78.5752 54.8829 78.2145 54.7547 77.7497 54.7547C77.381 54.7547 77.0524 54.8469 76.7638 55.0312C76.4753 55.2075 76.2509 55.456 76.0906 55.7766C75.9303 56.0972 75.8501 56.4659 75.8501 56.8827C75.8501 57.3235 75.9784 57.6722 76.2348 57.9286C76.4993 58.1851 76.864 58.3133 77.3289 58.3133ZM86.746 53.2038C87.4674 53.2038 88.0405 53.3962 88.4653 53.7809C88.89 54.1576 89.1024 54.6986 89.1024 55.4039C89.1024 55.6684 89.0744 55.9289 89.0183 56.1854L88.2969 59.7681H86.4214L87.1187 56.3056C87.1508 56.1693 87.1668 56.0211 87.1668 55.8608C87.1668 55.5241 87.0747 55.2677 86.8903 55.0913C86.706 54.915 86.4295 54.8268 86.0608 54.8268C85.5799 54.8268 85.1791 54.9671 84.8585 55.2476C84.5459 55.5201 84.3335 55.9329 84.2213 56.4859L83.5721 59.7681H81.6966L82.983 53.3H84.7623L84.6181 53.9973C85.1951 53.4683 85.9045 53.2038 86.746 53.2038ZM97.1006 56.0531C97.1006 56.3497 97.0645 56.6783 96.9924 57.039H92.0391C92.1032 57.9206 92.6603 58.3614 93.7102 58.3614C94.0389 58.3614 94.3514 58.3093 94.648 58.2051C94.9526 58.101 95.2171 57.9527 95.4415 57.7603L96.2229 58.9986C95.8623 59.2872 95.4495 59.5036 94.9846 59.6478C94.5198 59.7921 94.0308 59.8642 93.5179 59.8642C92.8526 59.8642 92.2675 59.748 91.7626 59.5156C91.2657 59.2751 90.881 58.9345 90.6084 58.4937C90.344 58.0529 90.2117 57.5439 90.2117 56.9668C90.2117 56.2535 90.372 55.6123 90.6926 55.0432C91.0212 54.4662 91.4741 54.0173 92.0511 53.6967C92.6282 53.3681 93.2854 53.2038 94.0228 53.2038C94.648 53.2038 95.189 53.32 95.6459 53.5525C96.1107 53.7849 96.4674 54.1175 96.7159 54.5503C96.9723 54.9831 97.1006 55.4841 97.1006 56.0531ZM93.9387 54.6104C93.4978 54.6104 93.1251 54.7307 92.8206 54.9711C92.516 55.2035 92.2996 55.5281 92.1714 55.9449H95.3814C95.3814 55.5281 95.2491 55.2035 94.9846 54.9711C94.7281 54.7307 94.3795 54.6104 93.9387 54.6104ZM110.555 51.3523L108.872 59.7681H107.273L104.135 54.5022L103.077 59.7681H101.154L102.837 51.3523H104.448L107.586 56.6302L108.632 51.3523H110.555ZM118.546 53.3L117.259 59.7681H115.48L115.612 59.0708C115.332 59.3353 115.011 59.5356 114.65 59.6719C114.29 59.8001 113.909 59.8642 113.508 59.8642C112.803 59.8642 112.238 59.6719 111.813 59.2872C111.396 58.9024 111.188 58.3614 111.188 57.6641C111.188 57.3996 111.216 57.1392 111.272 56.8827L111.981 53.3H113.857L113.172 56.7625C113.14 56.9147 113.123 57.071 113.123 57.2313C113.123 57.9046 113.484 58.2412 114.206 58.2412C114.678 58.2412 115.067 58.105 115.372 57.8325C115.684 57.5519 115.897 57.1351 116.009 56.5821L116.67 53.3H118.546ZM128.398 53.2038C129.104 53.2038 129.665 53.3962 130.081 53.7809C130.498 54.1576 130.707 54.6946 130.707 55.3919C130.707 55.6484 130.679 55.9129 130.622 56.1854L129.913 59.7681H128.038L128.723 56.3176C128.755 56.1573 128.771 55.993 128.771 55.8247C128.771 55.4961 128.683 55.2476 128.507 55.0793C128.338 54.911 128.086 54.8268 127.749 54.8268C126.843 54.8268 126.278 55.3678 126.054 56.4499L125.393 59.7681H123.517L124.202 56.3176C124.235 56.1573 124.251 55.997 124.251 55.8367C124.251 55.5081 124.162 55.2596 123.986 55.0913C123.818 54.915 123.565 54.8268 123.229 54.8268C122.323 54.8268 121.754 55.3759 121.521 56.4739L120.872 59.7681H118.997L120.283 53.3H122.062L121.918 53.9732C122.479 53.4603 123.157 53.2038 123.95 53.2038C124.399 53.2038 124.796 53.296 125.14 53.4803C125.493 53.6567 125.757 53.9171 125.934 54.2618C126.246 53.9171 126.611 53.6567 127.028 53.4803C127.445 53.296 127.901 53.2038 128.398 53.2038ZM136.523 53.2038C137.028 53.2038 137.493 53.32 137.918 53.5525C138.351 53.7849 138.691 54.1215 138.94 54.5623C139.196 54.9952 139.325 55.5081 139.325 56.1012C139.325 56.8145 139.164 57.4598 138.844 58.0368C138.531 58.6059 138.102 59.0547 137.557 59.3833C137.012 59.7039 136.407 59.8642 135.742 59.8642C135.237 59.8642 134.8 59.7761 134.432 59.5998C134.063 59.4234 133.778 59.1589 133.578 58.8063L133.386 59.7681H131.606L133.386 50.8474H135.261L134.66 53.853C135.181 53.4202 135.802 53.2038 136.523 53.2038ZM135.526 58.3133C135.894 58.3133 136.223 58.2252 136.511 58.0489C136.8 57.8645 137.024 57.612 137.185 57.2914C137.345 56.9708 137.425 56.6022 137.425 56.1854C137.425 55.7446 137.293 55.3959 137.028 55.1394C136.772 54.8829 136.411 54.7547 135.946 54.7547C135.586 54.7547 135.261 54.8469 134.973 55.0312C134.684 55.2075 134.46 55.456 134.299 55.7766C134.139 56.0972 134.059 56.4659 134.059 56.8827C134.059 57.3235 134.187 57.6722 134.444 57.9286C134.7 58.1851 135.061 58.3133 135.526 58.3133ZM146.928 56.0531C146.928 56.3497 146.892 56.6783 146.82 57.039H141.867C141.931 57.9206 142.488 58.3614 143.538 58.3614C143.866 58.3614 144.179 58.3093 144.475 58.2051C144.78 58.101 145.044 57.9527 145.269 57.7603L146.05 58.9986C145.69 59.2872 145.277 59.5036 144.812 59.6478C144.347 59.7921 143.858 59.8642 143.345 59.8642C142.68 59.8642 142.095 59.748 141.59 59.5156C141.093 59.2751 140.708 58.9345 140.436 58.4937C140.171 58.0529 140.039 57.5439 140.039 56.9668C140.039 56.2535 140.199 55.6123 140.52 55.0432C140.849 54.4662 141.302 54.0173 141.879 53.6967C142.456 53.3681 143.113 53.2038 143.85 53.2038C144.475 53.2038 145.016 53.32 145.473 53.5525C145.938 53.7849 146.295 54.1175 146.543 54.5503C146.8 54.9831 146.928 55.4841 146.928 56.0531ZM143.766 54.6104C143.325 54.6104 142.953 54.7307 142.648 54.9711C142.343 55.2035 142.127 55.5281 141.999 55.9449H145.209C145.209 55.5281 145.077 55.2035 144.812 54.9711C144.556 54.7307 144.207 54.6104 143.766 54.6104ZM150.366 54.0694C150.646 53.7649 150.983 53.5444 151.375 53.4082C151.776 53.2719 152.245 53.2038 152.782 53.2038L152.445 54.935C152.221 54.919 152.077 54.911 152.013 54.911C151.444 54.911 150.987 55.0513 150.642 55.3318C150.305 55.6123 150.077 56.0491 149.957 56.6422L149.332 59.7681H147.456L148.743 53.3H150.522L150.366 54.0694ZM154.423 55.5482C154.103 55.5482 153.838 55.448 153.63 55.2476C153.422 55.0392 153.317 54.7787 153.317 54.4662C153.317 54.0975 153.438 53.7969 153.678 53.5645C153.919 53.332 154.215 53.2158 154.568 53.2158C154.888 53.2158 155.149 53.316 155.349 53.5164C155.558 53.7168 155.662 53.9772 155.662 54.2978C155.662 54.6585 155.538 54.9591 155.289 55.1995C155.049 55.432 154.76 55.5482 154.423 55.5482ZM153.558 59.8642C153.237 59.8642 152.973 59.7641 152.764 59.5637C152.556 59.3553 152.452 59.0948 152.452 58.7822C152.452 58.4135 152.572 58.113 152.812 57.8805C153.053 57.6481 153.349 57.5319 153.702 57.5319C154.023 57.5319 154.283 57.6321 154.484 57.8325C154.692 58.0328 154.796 58.2933 154.796 58.6139C154.796 58.9746 154.672 59.2751 154.423 59.5156C154.183 59.748 153.894 59.8642 153.558 59.8642Z" fill="white"/>
<path d="M64.5698 123.118L63.2834 129.586H61.5041L61.6243 128.949C61.0873 129.438 60.4261 129.682 59.6406 129.682C59.1357 129.682 58.6708 129.566 58.246 129.333C57.8212 129.101 57.4806 128.768 57.2241 128.336C56.9756 127.895 56.8514 127.378 56.8514 126.785C56.8514 126.071 57.0077 125.43 57.3203 124.861C57.6409 124.284 58.0737 123.835 58.6187 123.515C59.1637 123.186 59.7648 123.022 60.4221 123.022C61.4159 123.022 62.1172 123.346 62.526 123.995L62.6943 123.118H64.5698ZM60.2177 128.131C60.5864 128.131 60.915 128.043 61.2035 127.867C61.4921 127.682 61.7165 127.43 61.8768 127.109C62.0371 126.789 62.1172 126.42 62.1172 126.003C62.1172 125.562 61.985 125.214 61.7205 124.957C61.464 124.701 61.1033 124.573 60.6385 124.573C60.2698 124.573 59.9412 124.665 59.6526 124.849C59.3641 125.025 59.1397 125.274 58.9794 125.594C58.8191 125.915 58.7389 126.284 58.7389 126.701C58.7389 127.141 58.8672 127.49 59.1236 127.747C59.3881 128.003 59.7528 128.131 60.2177 128.131ZM67.9292 123.887C68.2098 123.583 68.5464 123.362 68.9391 123.226C69.3399 123.09 69.8088 123.022 70.3458 123.022L70.0091 124.753C69.7847 124.737 69.6404 124.729 69.5763 124.729C69.0073 124.729 68.5504 124.869 68.2058 125.15C67.8691 125.43 67.6407 125.867 67.5205 126.46L66.8953 129.586H65.0198L66.3062 123.118H68.0855L67.9292 123.887ZM72.5304 129.682C71.9693 129.682 71.4363 129.622 70.9314 129.502C70.4345 129.374 70.0457 129.209 69.7652 129.009L70.4866 127.65C70.7671 127.835 71.1077 127.983 71.5085 128.095C71.9172 128.207 72.326 128.263 72.7348 128.263C73.1595 128.263 73.4761 128.211 73.6845 128.107C73.8929 127.995 73.9971 127.839 73.9971 127.638C73.9971 127.478 73.9049 127.362 73.7206 127.29C73.5362 127.218 73.2397 127.141 72.8309 127.061C72.3661 126.973 71.9813 126.877 71.6768 126.773C71.3802 126.668 71.1197 126.5 70.8953 126.268C70.6789 126.027 70.5707 125.703 70.5707 125.294C70.5707 124.581 70.8673 124.024 71.4604 123.623C72.0615 123.222 72.847 123.022 73.8168 123.022C74.2656 123.022 74.7024 123.07 75.1272 123.166C75.552 123.262 75.9127 123.394 76.2092 123.563L75.536 124.933C75.007 124.605 74.3698 124.44 73.6244 124.44C73.2157 124.44 72.9031 124.5 72.6867 124.621C72.4783 124.741 72.3741 124.893 72.3741 125.078C72.3741 125.246 72.4663 125.37 72.6506 125.45C72.8349 125.522 73.1435 125.602 73.5763 125.691C74.0332 125.779 74.4059 125.875 74.6944 125.979C74.991 126.075 75.2474 126.24 75.4638 126.472C75.6803 126.705 75.7885 127.021 75.7885 127.422C75.7885 128.143 75.4839 128.7 74.8747 129.093C74.2736 129.486 73.4922 129.682 72.5304 129.682ZM81.6103 123.022C82.3317 123.022 82.9047 123.214 83.3295 123.599C83.7543 123.983 83.9667 124.528 83.9667 125.234C83.9667 125.49 83.9387 125.747 83.8826 126.003L83.1612 129.586H81.2857L81.983 126.123C82.0151 125.987 82.0311 125.839 82.0311 125.679C82.0311 125.342 81.9389 125.086 81.7546 124.909C81.5703 124.733 81.2937 124.645 80.9251 124.645C80.4442 124.645 80.0434 124.785 79.7228 125.065C79.4102 125.338 79.1978 125.751 79.0856 126.304L78.4364 129.586H76.5609L78.3402 120.665H80.2157L79.6146 123.707C80.1676 123.25 80.8329 123.022 81.6103 123.022ZM92.7944 123.118L91.508 129.586H89.7287L89.8489 128.949C89.3119 129.438 88.6507 129.682 87.8652 129.682C87.3603 129.682 86.8954 129.566 86.4706 129.333C86.0458 129.101 85.7052 128.768 85.4487 128.336C85.2002 127.895 85.076 127.378 85.076 126.785C85.076 126.071 85.2323 125.43 85.5449 124.861C85.8655 124.284 86.2983 123.835 86.8433 123.515C87.3883 123.186 87.9894 123.022 88.6467 123.022C89.6405 123.022 90.3418 123.346 90.7506 123.995L90.9189 123.118H92.7944ZM88.4423 128.131C88.811 128.131 89.1396 128.043 89.4281 127.867C89.7167 127.682 89.9411 127.43 90.1014 127.109C90.2617 126.789 90.3418 126.42 90.3418 126.003C90.3418 125.562 90.2096 125.214 89.9451 124.957C89.6886 124.701 89.3279 124.573 88.8631 124.573C88.4944 124.573 88.1658 124.665 87.8772 124.849C87.5887 125.025 87.3643 125.274 87.204 125.594C87.0437 125.915 86.9635 126.284 86.9635 126.701C86.9635 127.141 87.0918 127.49 87.3482 127.747C87.6127 128.003 87.9774 128.131 88.4423 128.131ZM102.646 123.022C103.351 123.022 103.912 123.214 104.329 123.599C104.746 123.975 104.954 124.512 104.954 125.21C104.954 125.466 104.926 125.731 104.87 126.003L104.161 129.586H102.285L102.971 126.135C103.003 125.975 103.019 125.811 103.019 125.643C103.019 125.314 102.93 125.065 102.754 124.897C102.586 124.729 102.333 124.645 101.997 124.645C101.091 124.645 100.526 125.186 100.302 126.268L99.6404 129.586H97.7649L98.4501 126.135C98.4822 125.975 98.4982 125.815 98.4982 125.655C98.4982 125.326 98.4101 125.078 98.2337 124.909C98.0654 124.733 97.8129 124.645 97.4763 124.645C96.5706 124.645 96.0016 125.194 95.7691 126.292L95.1199 129.586H93.2444L94.5308 123.118H96.3101L96.1659 123.791C96.7269 123.278 97.4042 123.022 98.1977 123.022C98.6465 123.022 99.0432 123.114 99.3879 123.298C99.7405 123.475 100.005 123.735 100.181 124.08C100.494 123.735 100.859 123.475 101.275 123.298C101.692 123.114 102.149 123.022 102.646 123.022ZM108.21 129.682C107.649 129.682 107.116 129.622 106.611 129.502C106.114 129.374 105.726 129.209 105.445 129.009L106.166 127.65C106.447 127.835 106.788 127.983 107.188 128.095C107.597 128.207 108.006 128.263 108.415 128.263C108.839 128.263 109.156 128.211 109.364 128.107C109.573 127.995 109.677 127.839 109.677 127.638C109.677 127.478 109.585 127.362 109.401 127.29C109.216 127.218 108.92 127.141 108.511 127.061C108.046 126.973 107.661 126.877 107.357 126.773C107.06 126.668 106.8 126.5 106.575 126.268C106.359 126.027 106.251 125.703 106.251 125.294C106.251 124.581 106.547 124.024 107.14 123.623C107.741 123.222 108.527 123.022 109.497 123.022C109.946 123.022 110.382 123.07 110.807 123.166C111.232 123.262 111.593 123.394 111.889 123.563L111.216 124.933C110.687 124.605 110.05 124.44 109.304 124.44C108.896 124.44 108.583 124.5 108.367 124.621C108.158 124.741 108.054 124.893 108.054 125.078C108.054 125.246 108.146 125.37 108.331 125.45C108.515 125.522 108.823 125.602 109.256 125.691C109.713 125.779 110.086 125.875 110.374 125.979C110.671 126.075 110.927 126.24 111.144 126.472C111.36 126.705 111.468 127.021 111.468 127.422C111.468 128.143 111.164 128.7 110.555 129.093C109.954 129.486 109.172 129.682 108.21 129.682ZM117.29 123.022C118.012 123.022 118.585 123.214 119.009 123.599C119.434 123.983 119.647 124.528 119.647 125.234C119.647 125.49 119.619 125.747 119.563 126.003L118.841 129.586H116.966L117.663 126.123C117.695 125.987 117.711 125.839 117.711 125.679C117.711 125.342 117.619 125.086 117.435 124.909C117.25 124.733 116.974 124.645 116.605 124.645C116.124 124.645 115.723 124.785 115.403 125.065C115.09 125.338 114.878 125.751 114.766 126.304L114.116 129.586H112.241L114.02 120.665H115.896L115.295 123.707C115.848 123.25 116.513 123.022 117.29 123.022ZM121.84 123.118H123.703L122.417 129.586H120.553L121.84 123.118ZM123.09 122.216C122.769 122.216 122.505 122.124 122.296 121.94C122.096 121.747 121.996 121.515 121.996 121.242C121.996 120.922 122.108 120.657 122.333 120.449C122.565 120.232 122.866 120.124 123.234 120.124C123.563 120.124 123.827 120.216 124.028 120.401C124.236 120.577 124.34 120.798 124.34 121.062C124.34 121.407 124.224 121.687 123.992 121.904C123.759 122.112 123.459 122.216 123.09 122.216ZM127.067 123.887C127.348 123.583 127.684 123.362 128.077 123.226C128.478 123.09 128.947 123.022 129.484 123.022L129.147 124.753C128.923 124.737 128.778 124.729 128.714 124.729C128.145 124.729 127.688 124.869 127.344 125.15C127.007 125.43 126.779 125.867 126.658 126.46L126.033 129.586H124.158L125.444 123.118H127.223L127.067 123.887ZM134.109 125.931L136.333 129.586H134.157L132.619 127.073L131.476 128.023L131.164 129.586H129.288L131.068 120.665H132.943L131.945 125.655L135.047 123.118H137.488L134.109 125.931ZM140.134 129.682C139.484 129.682 138.911 129.562 138.414 129.321C137.926 129.081 137.545 128.744 137.272 128.312C137.008 127.871 136.876 127.362 136.876 126.785C136.876 126.071 137.044 125.43 137.381 124.861C137.717 124.292 138.182 123.843 138.775 123.515C139.368 123.186 140.037 123.022 140.783 123.022C141.44 123.022 142.013 123.142 142.502 123.382C142.991 123.623 143.368 123.963 143.632 124.404C143.905 124.837 144.041 125.342 144.041 125.919C144.041 126.632 143.873 127.274 143.536 127.843C143.207 128.412 142.743 128.861 142.141 129.189C141.548 129.518 140.879 129.682 140.134 129.682ZM140.254 128.131C140.615 128.131 140.939 128.043 141.228 127.867C141.516 127.682 141.741 127.43 141.901 127.109C142.061 126.789 142.141 126.42 142.141 126.003C142.141 125.562 142.013 125.214 141.757 124.957C141.5 124.701 141.14 124.573 140.675 124.573C140.306 124.573 139.977 124.665 139.689 124.849C139.4 125.025 139.176 125.274 139.016 125.594C138.855 125.915 138.775 126.284 138.775 126.701C138.775 127.141 138.903 127.49 139.16 127.747C139.424 128.003 139.789 128.131 140.254 128.131ZM152.424 123.118L151.138 129.586H149.358L149.491 128.889C149.21 129.153 148.89 129.354 148.529 129.49C148.168 129.618 147.788 129.682 147.387 129.682C146.681 129.682 146.116 129.49 145.692 129.105C145.275 128.72 145.066 128.179 145.066 127.482C145.066 127.218 145.095 126.957 145.151 126.701L145.86 123.118H147.735L147.05 126.58C147.018 126.733 147.002 126.889 147.002 127.049C147.002 127.722 147.363 128.059 148.084 128.059C148.557 128.059 148.946 127.923 149.25 127.65C149.563 127.37 149.775 126.953 149.887 126.4L150.549 123.118H152.424ZM157.925 123.022C158.646 123.022 159.219 123.214 159.644 123.599C160.069 123.983 160.281 124.528 160.281 125.234C160.281 125.49 160.253 125.747 160.197 126.003L159.476 129.586H157.6L158.297 126.123C158.33 125.987 158.346 125.839 158.346 125.679C158.346 125.342 158.253 125.086 158.069 124.909C157.885 124.733 157.608 124.645 157.239 124.645C156.759 124.645 156.358 124.785 156.037 125.065C155.725 125.338 155.512 125.751 155.4 126.304L154.751 129.586H152.875L154.655 120.665H156.53L155.929 123.707C156.482 123.25 157.147 123.022 157.925 123.022ZM162.474 123.118H164.338L163.051 129.586H161.188L162.474 123.118ZM163.724 122.216C163.404 122.216 163.139 122.124 162.931 121.94C162.731 121.747 162.63 121.515 162.63 121.242C162.63 120.922 162.743 120.657 162.967 120.449C163.199 120.232 163.5 120.124 163.869 120.124C164.197 120.124 164.462 120.216 164.662 120.401C164.871 120.577 164.975 120.798 164.975 121.062C164.975 121.407 164.859 121.687 164.626 121.904C164.394 122.112 164.093 122.216 163.724 122.216ZM167.461 127.999H170.996L170.683 129.586H164.311L164.564 128.324L168.399 125.318C168.864 124.941 169.184 124.625 169.361 124.368C169.545 124.112 169.637 123.843 169.637 123.563C169.637 123.282 169.529 123.058 169.313 122.889C169.104 122.721 168.8 122.637 168.399 122.637C168.062 122.637 167.738 122.713 167.425 122.865C167.112 123.018 166.84 123.234 166.608 123.515L165.297 122.565C165.642 122.092 166.115 121.719 166.716 121.447C167.317 121.166 167.974 121.026 168.687 121.026C169.272 121.026 169.785 121.122 170.226 121.314C170.675 121.507 171.02 121.775 171.26 122.12C171.509 122.465 171.633 122.853 171.633 123.286C171.633 123.807 171.489 124.296 171.2 124.753C170.912 125.21 170.411 125.715 169.697 126.268L167.461 127.999ZM175.226 129.73C174.289 129.73 173.547 129.45 173.002 128.889C172.457 128.32 172.185 127.538 172.185 126.544C172.185 125.534 172.369 124.609 172.738 123.767C173.114 122.925 173.635 122.26 174.301 121.771C174.966 121.274 175.723 121.026 176.573 121.026C177.511 121.026 178.252 121.31 178.797 121.88C179.342 122.441 179.614 123.218 179.614 124.212C179.614 125.222 179.426 126.148 179.049 126.989C178.681 127.831 178.164 128.5 177.499 128.997C176.833 129.486 176.076 129.73 175.226 129.73ZM175.407 128.083C175.871 128.083 176.272 127.883 176.609 127.482C176.954 127.081 177.214 126.584 177.39 125.991C177.567 125.39 177.655 124.813 177.655 124.26C177.655 123.723 177.543 123.326 177.318 123.07C177.102 122.805 176.793 122.673 176.392 122.673C175.928 122.673 175.523 122.873 175.178 123.274C174.842 123.675 174.585 124.176 174.409 124.777C174.232 125.37 174.144 125.943 174.144 126.496C174.144 127.033 174.252 127.434 174.469 127.698C174.693 127.955 175.006 128.083 175.407 128.083ZM183.374 129.73C182.437 129.73 181.695 129.45 181.15 128.889C180.605 128.32 180.333 127.538 180.333 126.544C180.333 125.534 180.517 124.609 180.886 123.767C181.262 122.925 181.783 122.26 182.449 121.771C183.114 121.274 183.871 121.026 184.721 121.026C185.659 121.026 186.4 121.31 186.945 121.88C187.49 122.441 187.763 123.218 187.763 124.212C187.763 125.222 187.574 126.148 187.197 126.989C186.829 127.831 186.312 128.5 185.647 128.997C184.981 129.486 184.224 129.73 183.374 129.73ZM183.555 128.083C184.02 128.083 184.42 127.883 184.757 127.482C185.102 127.081 185.362 126.584 185.538 125.991C185.715 125.39 185.803 124.813 185.803 124.26C185.803 123.723 185.691 123.326 185.466 123.07C185.25 122.805 184.941 122.673 184.54 122.673C184.076 122.673 183.671 122.873 183.326 123.274C182.99 123.675 182.733 124.176 182.557 124.777C182.38 125.37 182.292 125.943 182.292 126.496C182.292 127.033 182.4 127.434 182.617 127.698C182.841 127.955 183.154 128.083 183.555 128.083ZM191.462 122.733L191.005 124.332H191.51C192.544 124.332 193.326 124.532 193.855 124.933C194.392 125.334 194.66 125.903 194.66 126.64C194.66 127.258 194.496 127.803 194.167 128.275C193.839 128.74 193.378 129.101 192.785 129.358C192.2 129.606 191.526 129.73 190.765 129.73C190.14 129.73 189.559 129.646 189.022 129.478C188.493 129.309 188.044 129.069 187.675 128.756L188.613 127.326C188.893 127.566 189.23 127.755 189.623 127.891C190.024 128.027 190.444 128.095 190.885 128.095C191.462 128.095 191.907 127.991 192.22 127.783C192.532 127.566 192.689 127.262 192.689 126.869C192.689 126.228 192.144 125.907 191.053 125.907H188.769L190.14 121.17H195.285L194.961 122.733H191.462Z" fill="white"/>
<path d="M60.5498 107.686L60.1892 109.513H64.0965L63.7959 111.028H59.8766L59.4919 112.976H64.0844L63.7598 114.539H57.2437L58.9268 106.123H65.2867L64.9621 107.686H60.5498ZM74.5909 107.974C75.2962 107.974 75.8572 108.167 76.274 108.551C76.6908 108.928 76.8992 109.465 76.8992 110.162C76.8992 110.419 76.8711 110.683 76.815 110.956L76.1057 114.539H74.2302L74.9155 111.088C74.9475 110.928 74.9636 110.764 74.9636 110.595C74.9636 110.267 74.8754 110.018 74.6991 109.85C74.5307 109.682 74.2783 109.597 73.9416 109.597C73.036 109.597 72.4709 110.138 72.2465 111.22L71.5852 114.539H69.7097L70.395 111.088C70.4271 110.928 70.4431 110.768 70.4431 110.607C70.4431 110.279 70.3549 110.03 70.1786 109.862C70.0103 109.686 69.7578 109.597 69.4212 109.597C68.5155 109.597 67.9464 110.146 67.714 111.244L67.0648 114.539H65.1893L66.4757 108.07H68.255L68.1108 108.744C68.6718 108.231 69.3491 107.974 70.1425 107.974C70.5914 107.974 70.9881 108.066 71.3328 108.251C71.6854 108.427 71.9499 108.688 72.1263 109.032C72.4388 108.688 72.8035 108.427 73.2203 108.251C73.6371 108.066 74.0939 107.974 74.5909 107.974ZM85.7199 108.07L84.4335 114.539H82.6542L82.7744 113.901C82.2374 114.39 81.5762 114.635 80.7907 114.635C80.2857 114.635 79.8209 114.519 79.3961 114.286C78.9713 114.054 78.6306 113.721 78.3742 113.288C78.1257 112.847 78.0015 112.33 78.0015 111.737C78.0015 111.024 78.1578 110.383 78.4704 109.814C78.7909 109.237 79.2238 108.788 79.7688 108.467C80.3138 108.139 80.9149 107.974 81.5721 107.974C82.566 107.974 83.2673 108.299 83.6761 108.948L83.8444 108.07H85.7199ZM81.3678 113.084C81.7365 113.084 82.0651 112.996 82.3536 112.819C82.6421 112.635 82.8666 112.383 83.0269 112.062C83.1872 111.741 83.2673 111.373 83.2673 110.956C83.2673 110.515 83.1351 110.166 82.8706 109.91C82.6141 109.653 82.2534 109.525 81.7885 109.525C81.4199 109.525 81.0912 109.617 80.8027 109.802C80.5142 109.978 80.2897 110.227 80.1294 110.547C79.9691 110.868 79.889 111.236 79.889 111.653C79.889 112.094 80.0172 112.443 80.2737 112.699C80.5382 112.956 80.9029 113.084 81.3678 113.084ZM87.4563 108.07H89.3198L88.0334 114.539H86.1699L87.4563 108.07ZM88.7066 107.169C88.386 107.169 88.1215 107.077 87.9131 106.892C87.7128 106.7 87.6126 106.467 87.6126 106.195C87.6126 105.874 87.7248 105.61 87.9492 105.402C88.1816 105.185 88.4822 105.077 88.8509 105.077C89.1795 105.077 89.444 105.169 89.6444 105.353C89.8528 105.53 89.957 105.75 89.957 106.015C89.957 106.359 89.8407 106.64 89.6083 106.856C89.3759 107.065 89.0753 107.169 88.7066 107.169ZM91.5536 105.618H93.4291L91.6498 114.539H89.7743L91.5536 105.618ZM95.1096 110.319C94.789 110.319 94.5245 110.219 94.3161 110.018C94.1077 109.81 94.0036 109.549 94.0036 109.237C94.0036 108.868 94.1238 108.567 94.3642 108.335C94.6047 108.103 94.9012 107.986 95.2539 107.986C95.5745 107.986 95.835 108.087 96.0353 108.287C96.2437 108.487 96.3479 108.748 96.3479 109.068C96.3479 109.429 96.2237 109.73 95.9752 109.97C95.7348 110.202 95.4462 110.319 95.1096 110.319ZM94.244 114.635C93.9234 114.635 93.6589 114.535 93.4505 114.334C93.2421 114.126 93.1379 113.865 93.1379 113.553C93.1379 113.184 93.2582 112.883 93.4986 112.651C93.7391 112.419 94.0356 112.302 94.3883 112.302C94.7089 112.302 94.9694 112.403 95.1697 112.603C95.3781 112.803 95.4823 113.064 95.4823 113.384C95.4823 113.745 95.3581 114.046 95.1096 114.286C94.8692 114.519 94.5806 114.635 94.244 114.635Z" fill="white"/>
<path d="M61.9634 174.279L60.677 180.747H58.8976L59.0179 180.109C58.4809 180.598 57.8196 180.843 57.0342 180.843C56.5292 180.843 56.0643 180.727 55.6396 180.494C55.2148 180.262 54.8741 179.929 54.6176 179.496C54.3692 179.055 54.245 178.538 54.245 177.945C54.245 177.232 54.4012 176.591 54.7138 176.022C55.0344 175.445 55.4672 174.996 56.0123 174.675C56.5573 174.347 57.1584 174.182 57.8156 174.182C58.8095 174.182 59.5108 174.507 59.9196 175.156L60.0879 174.279H61.9634ZM57.6112 179.292C57.9799 179.292 58.3085 179.204 58.5971 179.027C58.8856 178.843 59.11 178.591 59.2703 178.27C59.4306 177.949 59.5108 177.581 59.5108 177.164C59.5108 176.723 59.3785 176.374 59.114 176.118C58.8576 175.861 58.4969 175.733 58.032 175.733C57.6633 175.733 57.3347 175.825 57.0462 176.01C56.7576 176.186 56.5332 176.435 56.3729 176.755C56.2126 177.076 56.1325 177.444 56.1325 177.861C56.1325 178.302 56.2607 178.651 56.5172 178.907C56.7817 179.164 57.1464 179.292 57.6112 179.292ZM65.3228 175.048C65.6033 174.743 65.94 174.523 66.3327 174.387C66.7334 174.25 67.2023 174.182 67.7393 174.182L67.4027 175.914C67.1783 175.898 67.034 175.89 66.9699 175.89C66.4008 175.89 65.944 176.03 65.5993 176.31C65.2627 176.591 65.0343 177.028 64.914 177.621L64.2889 180.747H62.4134L63.6998 174.279H65.4791L65.3228 175.048ZM69.9239 180.843C69.3629 180.843 68.8299 180.783 68.3249 180.662C67.828 180.534 67.4393 180.37 67.1588 180.17L67.8801 178.811C68.1606 178.995 68.5013 179.144 68.902 179.256C69.3108 179.368 69.7195 179.424 70.1283 179.424C70.5531 179.424 70.8697 179.372 71.0781 179.268C71.2865 179.156 71.3907 178.999 71.3907 178.799C71.3907 178.639 71.2985 178.522 71.1141 178.45C70.9298 178.378 70.6333 178.302 70.2245 178.222C69.7596 178.134 69.3749 178.038 69.0703 177.933C68.7738 177.829 68.5133 177.661 68.2889 177.428C68.0725 177.188 67.9643 176.863 67.9643 176.455C67.9643 175.741 68.2608 175.184 68.8539 174.783C69.455 174.383 70.2405 174.182 71.2103 174.182C71.6592 174.182 72.096 174.23 72.5208 174.327C72.9456 174.423 73.3062 174.555 73.6028 174.723L72.9295 176.094C72.4006 175.765 71.7634 175.601 71.018 175.601C70.6092 175.601 70.2966 175.661 70.0802 175.781C69.8718 175.902 69.7676 176.054 69.7676 176.238C69.7676 176.406 69.8598 176.531 70.0441 176.611C70.2285 176.683 70.5371 176.763 70.9699 176.851C71.4267 176.939 71.7994 177.036 72.088 177.14C72.3845 177.236 72.641 177.4 72.8574 177.633C73.0738 177.865 73.182 178.182 73.182 178.583C73.182 179.304 72.8774 179.861 72.2683 180.254C71.6672 180.646 70.8857 180.843 69.9239 180.843ZM79.0039 174.182C79.7252 174.182 80.2983 174.375 80.7231 174.759C81.1479 175.144 81.3603 175.689 81.3603 176.394C81.3603 176.651 81.3322 176.907 81.2761 177.164L80.5548 180.747H78.6793L79.3766 177.284C79.4086 177.148 79.4247 177 79.4247 176.839C79.4247 176.503 79.3325 176.246 79.1482 176.07C78.9638 175.894 78.6873 175.805 78.3186 175.805C77.8377 175.805 77.437 175.946 77.1164 176.226C76.8038 176.499 76.5914 176.911 76.4792 177.464L75.83 180.747H73.9545L75.7338 171.826H77.6093L77.0082 174.868C77.5612 174.411 78.2264 174.182 79.0039 174.182ZM90.188 174.279L88.9016 180.747H87.1222L87.2425 180.109C86.7055 180.598 86.0442 180.843 85.2588 180.843C84.7538 180.843 84.2889 180.727 83.8642 180.494C83.4394 180.262 83.0987 179.929 82.8422 179.496C82.5938 179.055 82.4695 178.538 82.4695 177.945C82.4695 177.232 82.6258 176.591 82.9384 176.022C83.259 175.445 83.6918 174.996 84.2368 174.675C84.7819 174.347 85.383 174.182 86.0402 174.182C87.0341 174.182 87.7354 174.507 88.1441 175.156L88.3125 174.279H90.188ZM85.8358 179.292C86.2045 179.292 86.5331 179.204 86.8217 179.027C87.1102 178.843 87.3346 178.591 87.4949 178.27C87.6552 177.949 87.7354 177.581 87.7354 177.164C87.7354 176.723 87.6031 176.374 87.3386 176.118C87.0822 175.861 86.7215 175.733 86.2566 175.733C85.8879 175.733 85.5593 175.825 85.2708 176.01C84.9822 176.186 84.7578 176.435 84.5975 176.755C84.4372 177.076 84.3571 177.444 84.3571 177.861C84.3571 178.302 84.4853 178.651 84.7418 178.907C85.0063 179.164 85.371 179.292 85.8358 179.292ZM100.04 174.182C100.745 174.182 101.306 174.375 101.723 174.759C102.139 175.136 102.348 175.673 102.348 176.37C102.348 176.627 102.32 176.891 102.264 177.164L101.554 180.747H99.6788L100.364 177.296C100.396 177.136 100.412 176.972 100.412 176.803C100.412 176.475 100.324 176.226 100.148 176.058C99.9794 175.89 99.7269 175.805 99.3903 175.805C98.4846 175.805 97.9196 176.346 97.6951 177.428L97.0339 180.747H95.1584L95.8437 177.296C95.8757 177.136 95.8918 176.976 95.8918 176.815C95.8918 176.487 95.8036 176.238 95.6273 176.07C95.459 175.894 95.2065 175.805 94.8699 175.805C93.9642 175.805 93.3951 176.354 93.1627 177.452L92.5135 180.747H90.638L91.9244 174.279H93.7037L93.5594 174.952C94.1205 174.439 94.7977 174.182 95.5912 174.182C96.0401 174.182 96.4368 174.274 96.7814 174.459C97.1341 174.635 97.3986 174.896 97.5749 175.24C97.8875 174.896 98.2522 174.635 98.669 174.459C99.0857 174.274 99.5426 174.182 100.04 174.182ZM109.009 180.843C108.448 180.843 107.915 180.783 107.41 180.662C106.913 180.534 106.524 180.37 106.243 180.17L106.965 178.811C107.245 178.995 107.586 179.144 107.987 179.256C108.396 179.368 108.804 179.424 109.213 179.424C109.638 179.424 109.954 179.372 110.163 179.268C110.371 179.156 110.475 178.999 110.475 178.799C110.475 178.639 110.383 178.522 110.199 178.45C110.015 178.378 109.718 178.302 109.309 178.222C108.844 178.134 108.46 178.038 108.155 177.933C107.859 177.829 107.598 177.661 107.374 177.428C107.157 177.188 107.049 176.863 107.049 176.455C107.049 175.741 107.346 175.184 107.939 174.783C108.54 174.383 109.325 174.182 110.295 174.182C110.744 174.182 111.181 174.23 111.605 174.327C112.03 174.423 112.391 174.555 112.688 174.723L112.014 176.094C111.485 175.765 110.848 175.601 110.103 175.601C109.694 175.601 109.381 175.661 109.165 175.781C108.957 175.902 108.852 176.054 108.852 176.238C108.852 176.406 108.945 176.531 109.129 176.611C109.313 176.683 109.622 176.763 110.055 176.851C110.511 176.939 110.884 177.036 111.173 177.14C111.469 177.236 111.726 177.4 111.942 177.633C112.159 177.865 112.267 178.182 112.267 178.583C112.267 179.304 111.962 179.861 111.353 180.254C110.752 180.646 109.97 180.843 109.009 180.843ZM118.089 174.182C118.81 174.182 119.383 174.375 119.808 174.759C120.233 175.144 120.445 175.689 120.445 176.394C120.445 176.651 120.417 176.907 120.361 177.164L119.64 180.747H117.764L118.461 177.284C118.493 177.148 118.509 177 118.509 176.839C118.509 176.503 118.417 176.246 118.233 176.07C118.049 175.894 117.772 175.805 117.403 175.805C116.922 175.805 116.522 175.946 116.201 176.226C115.889 176.499 115.676 176.911 115.564 177.464L114.915 180.747H113.039L114.819 171.826H116.694L116.093 174.868C116.646 174.411 117.311 174.182 118.089 174.182ZM122.638 174.279H124.501L123.215 180.747H121.352L122.638 174.279ZM123.888 173.377C123.568 173.377 123.303 173.285 123.095 173.1C122.894 172.908 122.794 172.676 122.794 172.403C122.794 172.082 122.906 171.818 123.131 171.61C123.363 171.393 123.664 171.285 124.033 171.285C124.361 171.285 124.626 171.377 124.826 171.561C125.034 171.738 125.139 171.958 125.139 172.223C125.139 172.567 125.022 172.848 124.79 173.064C124.558 173.273 124.257 173.377 123.888 173.377ZM127.865 175.048C128.146 174.743 128.483 174.523 128.875 174.387C129.276 174.25 129.745 174.182 130.282 174.182L129.945 175.914C129.721 175.898 129.577 175.89 129.512 175.89C128.943 175.89 128.487 176.03 128.142 176.31C127.805 176.591 127.577 177.028 127.457 177.621L126.831 180.747H124.956L126.242 174.279H128.022L127.865 175.048ZM134.908 177.092L137.132 180.747H134.956L133.417 178.234L132.275 179.184L131.962 180.747H130.087L131.866 171.826H133.741L132.744 176.815L135.845 174.279H138.286L134.908 177.092ZM140.932 180.843C140.283 180.843 139.71 180.723 139.213 180.482C138.724 180.242 138.343 179.905 138.071 179.472C137.806 179.031 137.674 178.522 137.674 177.945C137.674 177.232 137.842 176.591 138.179 176.022C138.516 175.453 138.98 175.004 139.573 174.675C140.167 174.347 140.836 174.182 141.581 174.182C142.238 174.182 142.812 174.303 143.3 174.543C143.789 174.783 144.166 175.124 144.431 175.565C144.703 175.998 144.839 176.503 144.839 177.08C144.839 177.793 144.671 178.434 144.334 179.003C144.006 179.572 143.541 180.021 142.94 180.35C142.347 180.678 141.677 180.843 140.932 180.843ZM141.052 179.292C141.413 179.292 141.738 179.204 142.026 179.027C142.315 178.843 142.539 178.591 142.699 178.27C142.86 177.949 142.94 177.581 142.94 177.164C142.94 176.723 142.812 176.374 142.555 176.118C142.299 175.861 141.938 175.733 141.473 175.733C141.104 175.733 140.776 175.825 140.487 176.01C140.199 176.186 139.974 176.435 139.814 176.755C139.654 177.076 139.573 177.444 139.573 177.861C139.573 178.302 139.702 178.651 139.958 178.907C140.223 179.164 140.587 179.292 141.052 179.292ZM153.223 174.279L151.936 180.747H150.157L150.289 180.049C150.009 180.314 149.688 180.514 149.327 180.65C148.967 180.779 148.586 180.843 148.185 180.843C147.48 180.843 146.915 180.65 146.49 180.266C146.073 179.881 145.865 179.34 145.865 178.643C145.865 178.378 145.893 178.118 145.949 177.861L146.658 174.279H148.534L147.849 177.741C147.816 177.893 147.8 178.05 147.8 178.21C147.8 178.883 148.161 179.22 148.882 179.22C149.355 179.22 149.744 179.083 150.049 178.811C150.361 178.53 150.574 178.114 150.686 177.561L151.347 174.279H153.223ZM158.723 174.182C159.444 174.182 160.018 174.375 160.442 174.759C160.867 175.144 161.08 175.689 161.08 176.394C161.08 176.651 161.051 176.907 160.995 177.164L160.274 180.747H158.398L159.096 177.284C159.128 177.148 159.144 177 159.144 176.839C159.144 176.503 159.052 176.246 158.867 176.07C158.683 175.894 158.407 175.805 158.038 175.805C157.557 175.805 157.156 175.946 156.836 176.226C156.523 176.499 156.311 176.911 156.198 177.464L155.549 180.747H153.674L155.453 171.826H157.328L156.727 174.868C157.28 174.411 157.946 174.182 158.723 174.182ZM163.272 174.279H165.136L163.85 180.747H161.986L163.272 174.279ZM164.523 173.377C164.202 173.377 163.938 173.285 163.729 173.1C163.529 172.908 163.429 172.676 163.429 172.403C163.429 172.082 163.541 171.818 163.765 171.61C163.998 171.393 164.298 171.285 164.667 171.285C164.996 171.285 165.26 171.377 165.461 171.561C165.669 171.738 165.773 171.958 165.773 172.223C165.773 172.567 165.657 172.848 165.424 173.064C165.192 173.273 164.891 173.377 164.523 173.377Z" fill="white"/>
<path d="M57.9149 158.846L57.4701 161.071H61.3774L61.0528 162.633H57.1695L56.5564 165.699H54.5967L56.2798 157.283H62.6397L62.3151 158.846H57.9149ZM69.8412 159.231L68.5548 165.699H66.7754L66.8957 165.062C66.3587 165.551 65.6974 165.795 64.912 165.795C64.407 165.795 63.9422 165.679 63.5174 165.447C63.0926 165.214 62.7519 164.882 62.4955 164.449C62.247 164.008 62.1228 163.491 62.1228 162.898C62.1228 162.185 62.279 161.543 62.5916 160.974C62.9122 160.397 63.345 159.948 63.8901 159.628C64.4351 159.299 65.0362 159.135 65.6934 159.135C66.6873 159.135 67.3886 159.46 67.7974 160.109L67.9657 159.231H69.8412ZM65.489 164.245C65.8577 164.245 66.1863 164.156 66.4749 163.98C66.7634 163.796 66.9878 163.543 67.1481 163.223C67.3084 162.902 67.3886 162.533 67.3886 162.117C67.3886 161.676 67.2563 161.327 66.9919 161.071C66.7354 160.814 66.3747 160.686 65.9098 160.686C65.5411 160.686 65.2125 160.778 64.924 160.962C64.6354 161.139 64.411 161.387 64.2507 161.708C64.0904 162.028 64.0103 162.397 64.0103 162.814C64.0103 163.255 64.1385 163.603 64.395 163.86C64.6595 164.116 65.0242 164.245 65.489 164.245ZM73.7055 165.795C73.0403 165.795 72.4592 165.675 71.9623 165.435C71.4654 165.194 71.0806 164.858 70.8081 164.425C70.5436 163.984 70.4114 163.475 70.4114 162.898C70.4114 162.185 70.5797 161.543 70.9163 160.974C71.253 160.405 71.7218 159.956 72.323 159.628C72.9241 159.299 73.6014 159.135 74.3548 159.135C75.044 159.135 75.6372 159.279 76.1341 159.568C76.639 159.848 77.0157 160.249 77.2642 160.77L75.6772 161.563C75.3967 160.978 74.9158 160.686 74.2345 160.686C73.8658 160.686 73.5332 160.778 73.2367 160.962C72.9481 161.139 72.7197 161.387 72.5514 161.708C72.3911 162.028 72.3109 162.393 72.3109 162.802C72.3109 163.243 72.4432 163.595 72.7077 163.86C72.9722 164.116 73.3409 164.245 73.8137 164.245C74.503 164.245 75.032 163.956 75.4007 163.379L76.7833 164.245C76.4707 164.733 76.0419 165.114 75.4969 165.387C74.9599 165.659 74.3628 165.795 73.7055 165.795ZM84.3332 161.984C84.3332 162.281 84.2971 162.609 84.225 162.97H79.2718C79.3359 163.852 79.8929 164.293 80.9429 164.293C81.2715 164.293 81.5841 164.24 81.8806 164.136C82.1852 164.032 82.4497 163.884 82.6741 163.691L83.4556 164.93C83.0949 165.218 82.6821 165.435 82.2173 165.579C81.7524 165.723 81.2635 165.795 80.7505 165.795C80.0853 165.795 79.5002 165.679 78.9952 165.447C78.4983 165.206 78.1136 164.866 77.8411 164.425C77.5766 163.984 77.4443 163.475 77.4443 162.898C77.4443 162.185 77.6046 161.543 77.9252 160.974C78.2539 160.397 78.7067 159.948 79.2838 159.628C79.8609 159.299 80.5181 159.135 81.2555 159.135C81.8806 159.135 82.4216 159.251 82.8785 159.484C83.3434 159.716 83.7 160.049 83.9485 160.481C84.205 160.914 84.3332 161.415 84.3332 161.984ZM81.1713 160.542C80.7305 160.542 80.3578 160.662 80.0532 160.902C79.7486 161.135 79.5322 161.459 79.404 161.876H82.614C82.614 161.459 82.4818 161.135 82.2173 160.902C81.9608 160.662 81.6121 160.542 81.1713 160.542ZM89.7785 159.135C90.2835 159.135 90.7483 159.251 91.1731 159.484C91.606 159.716 91.9466 160.053 92.1951 160.493C92.4515 160.926 92.5798 161.439 92.5798 162.032C92.5798 162.746 92.4195 163.391 92.0989 163.968C91.7863 164.537 91.3575 164.986 90.8125 165.315C90.2675 165.635 89.6623 165.795 88.9971 165.795C88.4921 165.795 88.0553 165.707 87.6866 165.531C87.3179 165.355 87.0334 165.09 86.833 164.737L86.6407 165.699H84.8614L86.6407 156.779H88.5162L87.9151 159.784C88.436 159.351 89.0572 159.135 89.7785 159.135ZM88.7807 164.245C89.1494 164.245 89.478 164.156 89.7665 163.98C90.0551 163.796 90.2795 163.543 90.4398 163.223C90.6001 162.902 90.6802 162.533 90.6802 162.117C90.6802 161.676 90.548 161.327 90.2835 161.071C90.027 160.814 89.6663 160.686 89.2015 160.686C88.8408 160.686 88.5162 160.778 88.2276 160.962C87.9391 161.139 87.7147 161.387 87.5544 161.708C87.3941 162.028 87.3139 162.397 87.3139 162.814C87.3139 163.255 87.4422 163.603 87.6987 163.86C87.9551 164.116 88.3158 164.245 88.7807 164.245ZM96.5403 165.795C95.8911 165.795 95.318 165.675 94.8211 165.435C94.3322 165.194 93.9515 164.858 93.679 164.425C93.4145 163.984 93.2822 163.475 93.2822 162.898C93.2822 162.185 93.4506 161.543 93.7872 160.974C94.1238 160.405 94.5887 159.956 95.1818 159.628C95.7749 159.299 96.4441 159.135 97.1895 159.135C97.8468 159.135 98.4198 159.255 98.9087 159.496C99.3977 159.736 99.7744 160.077 100.039 160.518C100.311 160.95 100.448 161.455 100.448 162.032C100.448 162.746 100.279 163.387 99.9427 163.956C99.6141 164.525 99.1492 164.974 98.5481 165.302C97.955 165.631 97.2857 165.795 96.5403 165.795ZM96.6605 164.245C97.0212 164.245 97.3458 164.156 97.6344 163.98C97.9229 163.796 98.1473 163.543 98.3076 163.223C98.4679 162.902 98.5481 162.533 98.5481 162.117C98.5481 161.676 98.4198 161.327 98.1634 161.071C97.9069 160.814 97.5462 160.686 97.0813 160.686C96.7126 160.686 96.384 160.778 96.0955 160.962C95.807 161.139 95.5825 161.387 95.4222 161.708C95.2619 162.028 95.1818 162.397 95.1818 162.814C95.1818 163.255 95.31 163.603 95.5665 163.86C95.831 164.116 96.1957 164.245 96.6605 164.245ZM104.407 165.795C103.757 165.795 103.184 165.675 102.687 165.435C102.198 165.194 101.818 164.858 101.545 164.425C101.281 163.984 101.148 163.475 101.148 162.898C101.148 162.185 101.317 161.543 101.653 160.974C101.99 160.405 102.455 159.956 103.048 159.628C103.641 159.299 104.31 159.135 105.056 159.135C105.713 159.135 106.286 159.255 106.775 159.496C107.264 159.736 107.641 160.077 107.905 160.518C108.178 160.95 108.314 161.455 108.314 162.032C108.314 162.746 108.146 163.387 107.809 163.956C107.48 164.525 107.015 164.974 106.414 165.302C105.821 165.631 105.152 165.795 104.407 165.795ZM104.527 164.245C104.887 164.245 105.212 164.156 105.501 163.98C105.789 163.796 106.014 163.543 106.174 163.223C106.334 162.902 106.414 162.533 106.414 162.117C106.414 161.676 106.286 161.327 106.03 161.071C105.773 160.814 105.412 160.686 104.948 160.686C104.579 160.686 104.25 160.778 103.962 160.962C103.673 161.139 103.449 161.387 103.288 161.708C103.128 162.028 103.048 162.397 103.048 162.814C103.048 163.255 103.176 163.603 103.433 163.86C103.697 164.116 104.062 164.245 104.527 164.245ZM113.716 162.044L115.94 165.699H113.764L112.225 163.187L111.083 164.136L110.77 165.699H108.895L110.674 156.779H112.549L111.551 161.768L114.653 159.231H117.094L113.716 162.044ZM118.363 161.479C118.042 161.479 117.777 161.379 117.569 161.179C117.361 160.97 117.257 160.71 117.257 160.397C117.257 160.029 117.377 159.728 117.617 159.496C117.858 159.263 118.154 159.147 118.507 159.147C118.827 159.147 119.088 159.247 119.288 159.448C119.497 159.648 119.601 159.908 119.601 160.229C119.601 160.59 119.477 160.89 119.228 161.131C118.988 161.363 118.699 161.479 118.363 161.479ZM117.497 165.795C117.176 165.795 116.912 165.695 116.703 165.495C116.495 165.286 116.391 165.026 116.391 164.713C116.391 164.345 116.511 164.044 116.752 163.812C116.992 163.579 117.289 163.463 117.641 163.463C117.962 163.463 118.222 163.563 118.423 163.764C118.631 163.964 118.735 164.224 118.735 164.545C118.735 164.906 118.611 165.206 118.363 165.447C118.122 165.679 117.834 165.795 117.497 165.795Z" fill="white"/>
<path d="M61.3623 225.438L60.0759 231.906H58.2966L58.4168 231.269C57.8798 231.757 57.2186 232.002 56.4331 232.002C55.9281 232.002 55.4633 231.886 55.0385 231.653C54.6137 231.421 54.2731 231.088 54.0166 230.655C53.7681 230.215 53.6439 229.698 53.6439 229.105C53.6439 228.391 53.8002 227.75 54.1128 227.181C54.4334 226.604 54.8662 226.155 55.4112 225.834C55.9562 225.506 56.5573 225.342 57.2145 225.342C58.2084 225.342 58.9097 225.666 59.3185 226.315L59.4868 225.438H61.3623ZM57.0102 230.451C57.3789 230.451 57.7075 230.363 57.996 230.187C58.2845 230.002 58.509 229.75 58.6693 229.429C58.8296 229.109 58.9097 228.74 58.9097 228.323C58.9097 227.882 58.7775 227.534 58.513 227.277C58.2565 227.021 57.8958 226.892 57.431 226.892C57.0623 226.892 56.7336 226.985 56.4451 227.169C56.1566 227.345 55.9322 227.594 55.7719 227.914C55.6116 228.235 55.5314 228.604 55.5314 229.02C55.5314 229.461 55.6596 229.81 55.9161 230.066C56.1806 230.323 56.5453 230.451 57.0102 230.451ZM64.7217 226.207C65.0022 225.903 65.3389 225.682 65.7316 225.546C66.1324 225.41 66.6012 225.342 67.1382 225.342L66.8016 227.073C66.5772 227.057 66.4329 227.049 66.3688 227.049C65.7997 227.049 65.3429 227.189 64.9982 227.469C64.6616 227.75 64.4332 228.187 64.313 228.78L63.6878 231.906H61.8123L63.0987 225.438H64.878L64.7217 226.207ZM69.3229 232.002C68.7618 232.002 68.2288 231.942 67.7239 231.822C67.2269 231.693 66.8382 231.529 66.5577 231.329L67.279 229.97C67.5596 230.154 67.9002 230.303 68.3009 230.415C68.7097 230.527 69.1185 230.583 69.5272 230.583C69.952 230.583 70.2686 230.531 70.477 230.427C70.6854 230.315 70.7896 230.158 70.7896 229.958C70.7896 229.798 70.6974 229.682 70.5131 229.609C70.3287 229.537 70.0322 229.461 69.6234 229.381C69.1585 229.293 68.7738 229.197 68.4693 229.093C68.1727 228.988 67.9122 228.82 67.6878 228.588C67.4714 228.347 67.3632 228.023 67.3632 227.614C67.3632 226.9 67.6597 226.343 68.2529 225.943C68.854 225.542 69.6394 225.342 70.6093 225.342C71.0581 225.342 71.4949 225.39 71.9197 225.486C72.3445 225.582 72.7052 225.714 73.0017 225.883L72.3285 227.253C71.7995 226.924 71.1623 226.76 70.4169 226.76C70.0081 226.76 69.6955 226.82 69.4791 226.94C69.2708 227.061 69.1666 227.213 69.1666 227.397C69.1666 227.566 69.2587 227.69 69.4431 227.77C69.6274 227.842 69.936 227.922 70.3688 228.01C70.8257 228.099 71.1984 228.195 71.4869 228.299C71.7834 228.395 72.0399 228.56 72.2563 228.792C72.4727 229.024 72.5809 229.341 72.5809 229.742C72.5809 230.463 72.2764 231.02 71.6672 231.413C71.0661 231.806 70.2846 232.002 69.3229 232.002ZM78.4028 225.342C79.1242 225.342 79.6972 225.534 80.122 225.919C80.5468 226.303 80.7592 226.848 80.7592 227.554C80.7592 227.81 80.7312 228.067 80.6751 228.323L79.9537 231.906H78.0782L78.7755 228.443C78.8076 228.307 78.8236 228.159 78.8236 227.998C78.8236 227.662 78.7314 227.405 78.5471 227.229C78.3627 227.053 78.0862 226.965 77.7175 226.965C77.2366 226.965 76.8359 227.105 76.5153 227.385C76.2027 227.658 75.9903 228.071 75.8781 228.624L75.2289 231.906H73.3534L75.1327 222.985H77.0082L76.4071 226.027C76.9601 225.57 77.6254 225.342 78.4028 225.342ZM89.5869 225.438L88.3005 231.906H86.5212L86.6414 231.269C86.1044 231.757 85.4432 232.002 84.6577 232.002C84.1527 232.002 83.6879 231.886 83.2631 231.653C82.8383 231.421 82.4976 231.088 82.2412 230.655C81.9927 230.215 81.8685 229.698 81.8685 229.105C81.8685 228.391 82.0248 227.75 82.3373 227.181C82.6579 226.604 83.0908 226.155 83.6358 225.834C84.1808 225.506 84.7819 225.342 85.4391 225.342C86.433 225.342 87.1343 225.666 87.5431 226.315L87.7114 225.438H89.5869ZM85.2348 230.451C85.6034 230.451 85.9321 230.363 86.2206 230.187C86.5091 230.002 86.7336 229.75 86.8939 229.429C87.0542 229.109 87.1343 228.74 87.1343 228.323C87.1343 227.882 87.0021 227.534 86.7376 227.277C86.4811 227.021 86.1204 226.892 85.6555 226.892C85.2869 226.892 84.9582 226.985 84.6697 227.169C84.3812 227.345 84.1567 227.594 83.9964 227.914C83.8361 228.235 83.756 228.604 83.756 229.02C83.756 229.461 83.8842 229.81 84.1407 230.066C84.4052 230.323 84.7699 230.451 85.2348 230.451ZM99.4384 225.342C100.144 225.342 100.705 225.534 101.122 225.919C101.538 226.295 101.747 226.832 101.747 227.53C101.747 227.786 101.719 228.051 101.663 228.323L100.953 231.906H99.0778L99.7631 228.455C99.7951 228.295 99.8111 228.131 99.8111 227.962C99.8111 227.634 99.723 227.385 99.5467 227.217C99.3783 227.049 99.1259 226.965 98.7892 226.965C97.8835 226.965 97.3185 227.506 97.0941 228.588L96.4328 231.906H94.5573L95.2426 228.455C95.2747 228.295 95.2907 228.135 95.2907 227.974C95.2907 227.646 95.2025 227.397 95.0262 227.229C94.8579 227.053 94.6054 226.965 94.2688 226.965C93.3631 226.965 92.794 227.514 92.5616 228.612L91.9124 231.906H90.0369L91.3233 225.438H93.1026L92.9583 226.111C93.5194 225.598 94.1967 225.342 94.9901 225.342C95.439 225.342 95.8357 225.434 96.1804 225.618C96.533 225.794 96.7975 226.055 96.9738 226.399C97.2864 226.055 97.6511 225.794 98.0679 225.618C98.4847 225.434 98.9415 225.342 99.4384 225.342ZM101.769 231.906H107.78L107.564 232.988H101.552L101.769 231.906ZM111.131 232.002C110.57 232.002 110.037 231.942 109.532 231.822C109.035 231.693 108.647 231.529 108.366 231.329L109.088 229.97C109.368 230.154 109.709 230.303 110.11 230.415C110.518 230.527 110.927 230.583 111.336 230.583C111.761 230.583 112.077 230.531 112.286 230.427C112.494 230.315 112.598 230.158 112.598 229.958C112.598 229.798 112.506 229.682 112.322 229.609C112.137 229.537 111.841 229.461 111.432 229.381C110.967 229.293 110.582 229.197 110.278 229.093C109.981 228.988 109.721 228.82 109.496 228.588C109.28 228.347 109.172 228.023 109.172 227.614C109.172 226.9 109.468 226.343 110.061 225.943C110.663 225.542 111.448 225.342 112.418 225.342C112.867 225.342 113.303 225.39 113.728 225.486C114.153 225.582 114.514 225.714 114.81 225.883L114.137 227.253C113.608 226.924 112.971 226.76 112.225 226.76C111.817 226.76 111.504 226.82 111.288 226.94C111.079 227.061 110.975 227.213 110.975 227.397C110.975 227.566 111.067 227.69 111.252 227.77C111.436 227.842 111.745 227.922 112.177 228.01C112.634 228.099 113.007 228.195 113.295 228.299C113.592 228.395 113.848 228.56 114.065 228.792C114.281 229.024 114.389 229.341 114.389 229.742C114.389 230.463 114.085 231.02 113.476 231.413C112.875 231.806 112.093 232.002 111.131 232.002ZM120.211 225.342C120.933 225.342 121.506 225.534 121.931 225.919C122.355 226.303 122.568 226.848 122.568 227.554C122.568 227.81 122.54 228.067 122.484 228.323L121.762 231.906H119.887L120.584 228.443C120.616 228.307 120.632 228.159 120.632 227.998C120.632 227.662 120.54 227.405 120.356 227.229C120.171 227.053 119.895 226.965 119.526 226.965C119.045 226.965 118.644 227.105 118.324 227.385C118.011 227.658 117.799 228.071 117.687 228.624L117.037 231.906H115.162L116.941 222.985H118.817L118.216 226.027C118.769 225.57 119.434 225.342 120.211 225.342ZM124.761 225.438H126.624L125.338 231.906H123.474L124.761 225.438ZM126.011 224.536C125.69 224.536 125.426 224.444 125.218 224.259C125.017 224.067 124.917 223.835 124.917 223.562C124.917 223.242 125.029 222.977 125.254 222.769C125.486 222.552 125.787 222.444 126.155 222.444C126.484 222.444 126.748 222.536 126.949 222.721C127.157 222.897 127.261 223.117 127.261 223.382C127.261 223.726 127.145 224.007 126.913 224.223C126.68 224.432 126.38 224.536 126.011 224.536ZM129.988 226.207C130.269 225.903 130.605 225.682 130.998 225.546C131.399 225.41 131.868 225.342 132.405 225.342L132.068 227.073C131.844 227.057 131.699 227.049 131.635 227.049C131.066 227.049 130.609 227.189 130.265 227.469C129.928 227.75 129.7 228.187 129.579 228.78L128.954 231.906H127.079L128.365 225.438H130.144L129.988 226.207ZM137.03 228.251L139.255 231.906H137.079L135.54 229.393L134.397 230.343L134.085 231.906H132.209L133.989 222.985H135.864L134.866 227.974L137.968 225.438H140.409L137.03 228.251ZM143.055 232.002C142.406 232.002 141.833 231.882 141.336 231.641C140.847 231.401 140.466 231.064 140.193 230.631C139.929 230.191 139.797 229.682 139.797 229.105C139.797 228.391 139.965 227.75 140.302 227.181C140.638 226.612 141.103 226.163 141.696 225.834C142.289 225.506 142.959 225.342 143.704 225.342C144.361 225.342 144.934 225.462 145.423 225.702C145.912 225.943 146.289 226.283 146.553 226.724C146.826 227.157 146.962 227.662 146.962 228.239C146.962 228.952 146.794 229.593 146.457 230.163C146.129 230.732 145.664 231.18 145.063 231.509C144.469 231.838 143.8 232.002 143.055 232.002ZM143.175 230.451C143.536 230.451 143.86 230.363 144.149 230.187C144.437 230.002 144.662 229.75 144.822 229.429C144.982 229.109 145.063 228.74 145.063 228.323C145.063 227.882 144.934 227.534 144.678 227.277C144.421 227.021 144.061 226.892 143.596 226.892C143.227 226.892 142.899 226.985 142.61 227.169C142.321 227.345 142.097 227.594 141.937 227.914C141.776 228.235 141.696 228.604 141.696 229.02C141.696 229.461 141.824 229.81 142.081 230.066C142.345 230.323 142.71 230.451 143.175 230.451ZM155.345 225.438L154.059 231.906H152.28L152.412 231.208C152.131 231.473 151.811 231.673 151.45 231.81C151.089 231.938 150.709 232.002 150.308 232.002C149.603 232.002 149.038 231.81 148.613 231.425C148.196 231.04 147.988 230.499 147.988 229.802C147.988 229.537 148.016 229.277 148.072 229.02L148.781 225.438H150.657L149.971 228.9C149.939 229.052 149.923 229.209 149.923 229.369C149.923 230.042 150.284 230.379 151.005 230.379C151.478 230.379 151.867 230.243 152.171 229.97C152.484 229.69 152.696 229.273 152.809 228.72L153.47 225.438H155.345ZM160.846 225.342C161.567 225.342 162.14 225.534 162.565 225.919C162.99 226.303 163.202 226.848 163.202 227.554C163.202 227.81 163.174 228.067 163.118 228.323L162.397 231.906H160.521L161.219 228.443C161.251 228.307 161.267 228.159 161.267 227.998C161.267 227.662 161.174 227.405 160.99 227.229C160.806 227.053 160.529 226.965 160.161 226.965C159.68 226.965 159.279 227.105 158.958 227.385C158.646 227.658 158.433 228.071 158.321 228.624L157.672 231.906H155.796L157.576 222.985H159.451L158.85 226.027C159.403 225.57 160.068 225.342 160.846 225.342ZM165.395 225.438H167.259L165.972 231.906H164.109L165.395 225.438ZM166.646 224.536C166.325 224.536 166.06 224.444 165.852 224.259C165.652 224.067 165.552 223.835 165.552 223.562C165.552 223.242 165.664 222.977 165.888 222.769C166.121 222.552 166.421 222.444 166.79 222.444C167.118 222.444 167.383 222.536 167.583 222.721C167.792 222.897 167.896 223.117 167.896 223.382C167.896 223.726 167.78 224.007 167.547 224.223C167.315 224.432 167.014 224.536 166.646 224.536Z" fill="white"/>
<path d="M55.6856 208.443H57.6453L55.9621 216.859H54.0025L55.6856 208.443ZM62.8765 210.295C63.5979 210.295 64.171 210.487 64.5957 210.872C65.0205 211.248 65.2329 211.789 65.2329 212.495C65.2329 212.759 65.2049 213.02 65.1488 213.276L64.4274 216.859H62.5519L63.2492 213.396C63.2813 213.26 63.2973 213.112 63.2973 212.952C63.2973 212.615 63.2051 212.358 63.0208 212.182C62.8365 212.006 62.5599 211.918 62.1913 211.918C61.7104 211.918 61.3096 212.058 60.989 212.338C60.6764 212.611 60.464 213.024 60.3518 213.577L59.7026 216.859H57.8271L59.1135 210.391H60.8928L60.7486 211.088C61.3256 210.559 62.035 210.295 62.8765 210.295ZM68.4959 216.955C67.9349 216.955 67.4019 216.895 66.8969 216.775C66.4 216.646 66.0113 216.482 65.7307 216.282L66.4521 214.923C66.7326 215.108 67.0732 215.256 67.474 215.368C67.8828 215.48 68.2915 215.536 68.7003 215.536C69.1251 215.536 69.4417 215.484 69.6501 215.38C69.8585 215.268 69.9626 215.112 69.9626 214.911C69.9626 214.751 69.8705 214.635 69.6861 214.563C69.5018 214.49 69.2052 214.414 68.7965 214.334C68.3316 214.246 67.9469 214.15 67.6423 214.046C67.3458 213.941 67.0853 213.773 66.8609 213.541C66.6444 213.3 66.5362 212.976 66.5362 212.567C66.5362 211.854 66.8328 211.296 67.4259 210.896C68.027 210.495 68.8125 210.295 69.7823 210.295C70.2311 210.295 70.668 210.343 71.0928 210.439C71.5176 210.535 71.8782 210.667 72.1748 210.836L71.5015 212.206C70.9725 211.878 70.3353 211.713 69.59 211.713C69.1812 211.713 68.8686 211.773 68.6522 211.894C68.4438 212.014 68.3396 212.166 68.3396 212.35C68.3396 212.519 68.4318 212.643 68.6161 212.723C68.8005 212.795 69.1091 212.875 69.5419 212.964C69.9987 213.052 70.3714 213.148 70.6599 213.252C70.9565 213.348 71.213 213.513 71.4294 213.745C71.6458 213.978 71.754 214.294 71.754 214.695C71.754 215.416 71.4494 215.973 70.8403 216.366C70.2392 216.759 69.4577 216.955 68.4959 216.955ZM75.0752 214.575C75.0592 214.639 75.0512 214.727 75.0512 214.839C75.0512 215.256 75.2796 215.464 75.7364 215.464C75.9849 215.464 76.2374 215.388 76.4938 215.236L76.7704 216.57C76.3536 216.827 75.8166 216.955 75.1594 216.955C74.5502 216.955 74.0613 216.795 73.6926 216.474C73.3239 216.154 73.1396 215.713 73.1396 215.152C73.1396 214.991 73.1596 214.803 73.1997 214.587L73.7167 211.978H72.7188L73.0073 210.535H74.0052L74.3178 208.96H76.1933L75.8807 210.535H77.4917L77.2032 211.978H75.5922L75.0752 214.575ZM85.4021 210.391L84.1157 216.859H82.3364L82.4566 216.222C81.9196 216.711 81.2584 216.955 80.4729 216.955C79.968 216.955 79.5031 216.839 79.0783 216.606C78.6535 216.374 78.3129 216.041 78.0564 215.609C77.8079 215.168 77.6837 214.651 77.6837 214.058C77.6837 213.344 77.84 212.703 78.1526 212.134C78.4732 211.557 78.906 211.108 79.451 210.788C79.996 210.459 80.5971 210.295 81.2544 210.295C82.2482 210.295 82.9495 210.619 83.3583 211.268L83.5266 210.391H85.4021ZM81.05 215.404C81.4187 215.404 81.7473 215.316 82.0358 215.14C82.3244 214.955 82.5488 214.703 82.7091 214.382C82.8694 214.062 82.9495 213.693 82.9495 213.276C82.9495 212.835 82.8173 212.487 82.5528 212.23C82.2963 211.974 81.9356 211.846 81.4708 211.846C81.1021 211.846 80.7735 211.938 80.4849 212.122C80.1964 212.298 79.972 212.547 79.8117 212.867C79.6514 213.188 79.5712 213.557 79.5712 213.973C79.5712 214.414 79.6995 214.763 79.9559 215.019C80.2204 215.276 80.5851 215.404 81.05 215.404ZM93.811 210.391L92.741 215.777C92.5005 216.995 92.0357 217.885 91.3464 218.446C90.6651 219.007 89.7514 219.287 88.6052 219.287C87.9801 219.287 87.403 219.215 86.874 219.071C86.353 218.927 85.9042 218.714 85.5275 218.434L86.4172 217.075C86.6736 217.292 87.0023 217.46 87.403 217.58C87.8118 217.708 88.2406 217.773 88.6894 217.773C89.3226 217.773 89.8035 217.632 90.1321 217.352C90.4607 217.079 90.6851 216.663 90.8054 216.101L90.8534 215.825C90.3325 216.306 89.6752 216.546 88.8818 216.546C88.3448 216.546 87.8599 216.438 87.427 216.222C86.9942 215.997 86.6496 215.681 86.3931 215.272C86.1447 214.863 86.0204 214.382 86.0204 213.829C86.0204 213.172 86.1767 212.575 86.4893 212.038C86.8019 211.501 87.2307 211.076 87.7757 210.764C88.3287 210.451 88.9459 210.295 89.6272 210.295C90.1321 210.295 90.5729 210.391 90.9496 210.583C91.3343 210.768 91.6229 211.056 91.8152 211.449L92.0196 210.391H93.811ZM89.3867 215.007C89.9317 215.007 90.3806 214.831 90.7332 214.478C91.0859 214.126 91.2622 213.673 91.2622 213.12C91.2622 212.727 91.134 212.419 90.8775 212.194C90.621 211.962 90.2643 211.846 89.8075 211.846C89.2545 211.846 88.7976 212.022 88.4369 212.375C88.0843 212.727 87.9079 213.18 87.9079 213.733C87.9079 214.126 88.0402 214.438 88.3047 214.671C88.5692 214.895 88.9299 215.007 89.3867 215.007ZM97.1796 211.16C97.4601 210.856 97.7968 210.635 98.1895 210.499C98.5902 210.363 99.0591 210.295 99.5961 210.295L99.2595 212.026C99.0351 212.01 98.8908 212.002 98.8267 212.002C98.2576 212.002 97.8008 212.142 97.4561 212.423C97.1195 212.703 96.8911 213.14 96.7708 213.733L96.1457 216.859H94.2702L95.5566 210.391H97.3359L97.1796 211.16ZM107.193 210.391L105.906 216.859H104.127L104.247 216.222C103.71 216.711 103.049 216.955 102.264 216.955C101.759 216.955 101.294 216.839 100.869 216.606C100.444 216.374 100.104 216.041 99.8471 215.609C99.5986 215.168 99.4744 214.651 99.4744 214.058C99.4744 213.344 99.6307 212.703 99.9433 212.134C100.264 211.557 100.697 211.108 101.242 210.788C101.787 210.459 102.388 210.295 103.045 210.295C104.039 210.295 104.74 210.619 105.149 211.268L105.317 210.391H107.193ZM102.841 215.404C103.209 215.404 103.538 215.316 103.827 215.14C104.115 214.955 104.339 214.703 104.5 214.382C104.66 214.062 104.74 213.693 104.74 213.276C104.74 212.835 104.608 212.487 104.343 212.23C104.087 211.974 103.726 211.846 103.261 211.846C102.893 211.846 102.564 211.938 102.276 212.122C101.987 212.298 101.763 212.547 101.602 212.867C101.442 213.188 101.362 213.557 101.362 213.973C101.362 214.414 101.49 214.763 101.747 215.019C102.011 215.276 102.376 215.404 102.841 215.404ZM117.044 210.295C117.75 210.295 118.311 210.487 118.728 210.872C119.144 211.248 119.353 211.785 119.353 212.483C119.353 212.739 119.325 213.004 119.269 213.276L118.559 216.859H116.684L117.369 213.408C117.401 213.248 117.417 213.084 117.417 212.916C117.417 212.587 117.329 212.338 117.153 212.17C116.984 212.002 116.732 211.918 116.395 211.918C115.489 211.918 114.924 212.459 114.7 213.541L114.039 216.859H112.163L112.849 213.408C112.881 213.248 112.897 213.088 112.897 212.928C112.897 212.599 112.808 212.35 112.632 212.182C112.464 212.006 112.211 211.918 111.875 211.918C110.969 211.918 110.4 212.467 110.168 213.565L109.518 216.859H107.643L108.929 210.391H110.709L110.564 211.064C111.125 210.551 111.803 210.295 112.596 210.295C113.045 210.295 113.442 210.387 113.786 210.571C114.139 210.747 114.403 211.008 114.58 211.353C114.892 211.008 115.257 210.747 115.674 210.571C116.091 210.387 116.547 210.295 117.044 210.295ZM121.972 212.639C121.651 212.639 121.386 212.539 121.178 212.338C120.97 212.13 120.865 211.87 120.865 211.557C120.865 211.188 120.986 210.888 121.226 210.655C121.467 210.423 121.763 210.307 122.116 210.307C122.436 210.307 122.697 210.407 122.897 210.607C123.106 210.808 123.21 211.068 123.21 211.389C123.21 211.749 123.086 212.05 122.837 212.29C122.597 212.523 122.308 212.639 121.972 212.639ZM121.106 216.955C120.785 216.955 120.521 216.855 120.312 216.655C120.104 216.446 120 216.186 120 215.873C120 215.504 120.12 215.204 120.361 214.971C120.601 214.739 120.898 214.623 121.25 214.623C121.571 214.623 121.831 214.723 122.032 214.923C122.24 215.124 122.344 215.384 122.344 215.705C122.344 216.065 122.22 216.366 121.972 216.606C121.731 216.839 121.443 216.955 121.106 216.955Z" fill="white"/>
<path d="M57.4497 276.599L56.1633 283.067H54.384L54.5042 282.43C53.9672 282.919 53.306 283.163 52.5205 283.163C52.0155 283.163 51.5507 283.047 51.1259 282.814C50.7011 282.582 50.3605 282.249 50.104 281.817C49.8555 281.376 49.7313 280.859 49.7313 280.266C49.7313 279.552 49.8876 278.911 50.2002 278.342C50.5208 277.765 50.9536 277.316 51.4986 276.996C52.0436 276.667 52.6447 276.503 53.3019 276.503C54.2958 276.503 54.9971 276.827 55.4059 277.476L55.5742 276.599H57.4497ZM53.0976 281.612C53.4663 281.612 53.7949 281.524 54.0834 281.348C54.3719 281.163 54.5964 280.911 54.7567 280.59C54.917 280.27 54.9971 279.901 54.9971 279.484C54.9971 279.043 54.8649 278.695 54.6004 278.438C54.3439 278.182 53.9832 278.054 53.5184 278.054C53.1497 278.054 52.8211 278.146 52.5325 278.33C52.244 278.506 52.0196 278.755 51.8593 279.075C51.699 279.396 51.6188 279.765 51.6188 280.182C51.6188 280.622 51.747 280.971 52.0035 281.227C52.268 281.484 52.6327 281.612 53.0976 281.612ZM60.8091 277.368C61.0897 277.064 61.4263 276.843 61.819 276.707C62.2198 276.571 62.6886 276.503 63.2256 276.503L62.889 278.234C62.6646 278.218 62.5203 278.21 62.4562 278.21C61.8871 278.21 61.4303 278.35 61.0856 278.631C60.749 278.911 60.5206 279.348 60.4004 279.941L59.7752 283.067H57.8997L59.1861 276.599H60.9654L60.8091 277.368ZM65.4103 283.163C64.8492 283.163 64.3162 283.103 63.8113 282.983C63.3143 282.854 62.9256 282.69 62.6451 282.49L63.3664 281.131C63.647 281.316 63.9876 281.464 64.3883 281.576C64.7971 281.688 65.2059 281.744 65.6146 281.744C66.0394 281.744 66.356 281.692 66.5644 281.588C66.7728 281.476 66.877 281.32 66.877 281.119C66.877 280.959 66.7848 280.843 66.6005 280.771C66.4161 280.698 66.1196 280.622 65.7108 280.542C65.2459 280.454 64.8612 280.358 64.5567 280.254C64.2601 280.149 63.9996 279.981 63.7752 279.749C63.5588 279.508 63.4506 279.184 63.4506 278.775C63.4506 278.062 63.7471 277.505 64.3403 277.104C64.9414 276.703 65.7268 276.503 66.6967 276.503C67.1455 276.503 67.5823 276.551 68.0071 276.647C68.4319 276.743 68.7926 276.875 69.0891 277.044L68.4159 278.414C67.8869 278.086 67.2497 277.921 66.5043 277.921C66.0955 277.921 65.7829 277.981 65.5665 278.102C65.3582 278.222 65.254 278.374 65.254 278.558C65.254 278.727 65.3461 278.851 65.5305 278.931C65.7148 279.003 66.0234 279.083 66.4562 279.172C66.9131 279.26 67.2858 279.356 67.5743 279.46C67.8708 279.556 68.1273 279.721 68.3437 279.953C68.5601 280.186 68.6683 280.502 68.6683 280.903C68.6683 281.624 68.3638 282.181 67.7546 282.574C67.1535 282.967 66.372 283.163 65.4103 283.163ZM74.4902 276.503C75.2116 276.503 75.7846 276.695 76.2094 277.08C76.6342 277.464 76.8466 278.009 76.8466 278.715C76.8466 278.971 76.8186 279.228 76.7625 279.484L76.0411 283.067H74.1656L74.8629 279.604C74.895 279.468 74.911 279.32 74.911 279.16C74.911 278.823 74.8188 278.566 74.6345 278.39C74.4501 278.214 74.1736 278.126 73.8049 278.126C73.324 278.126 72.9233 278.266 72.6027 278.546C72.2901 278.819 72.0777 279.232 71.9655 279.785L71.3163 283.067H69.4408L71.2201 274.146H73.0956L72.4945 277.188C73.0475 276.731 73.7128 276.503 74.4902 276.503ZM85.6743 276.599L84.3879 283.067H82.6086L82.7288 282.43C82.1918 282.919 81.5306 283.163 80.7451 283.163C80.2401 283.163 79.7753 283.047 79.3505 282.814C78.9257 282.582 78.5851 282.249 78.3286 281.817C78.0801 281.376 77.9559 280.859 77.9559 280.266C77.9559 279.552 78.1122 278.911 78.4248 278.342C78.7453 277.765 79.1782 277.316 79.7232 276.996C80.2682 276.667 80.8693 276.503 81.5265 276.503C82.5204 276.503 83.2217 276.827 83.6305 277.476L83.7988 276.599H85.6743ZM81.3222 281.612C81.6909 281.612 82.0195 281.524 82.308 281.348C82.5965 281.163 82.821 280.911 82.9813 280.59C83.1416 280.27 83.2217 279.901 83.2217 279.484C83.2217 279.043 83.0895 278.695 82.825 278.438C82.5685 278.182 82.2078 278.054 81.7429 278.054C81.3743 278.054 81.0456 278.146 80.7571 278.33C80.4686 278.506 80.2441 278.755 80.0839 279.075C79.9236 279.396 79.8434 279.765 79.8434 280.182C79.8434 280.622 79.9716 280.971 80.2281 281.227C80.4926 281.484 80.8573 281.612 81.3222 281.612ZM95.5259 276.503C96.2312 276.503 96.7922 276.695 97.209 277.08C97.6258 277.456 97.8342 277.993 97.8342 278.691C97.8342 278.947 97.8061 279.212 97.75 279.484L97.0407 283.067H95.1652L95.8505 279.616C95.8825 279.456 95.8985 279.292 95.8985 279.124C95.8985 278.795 95.8104 278.546 95.6341 278.378C95.4657 278.21 95.2133 278.126 94.8766 278.126C93.9709 278.126 93.4059 278.667 93.1815 279.749L92.5202 283.067H90.6447L91.33 279.616C91.3621 279.456 91.3781 279.296 91.3781 279.136C91.3781 278.807 91.2899 278.558 91.1136 278.39C90.9453 278.214 90.6928 278.126 90.3562 278.126C89.4505 278.126 88.8814 278.675 88.649 279.773L87.9998 283.067H86.1243L87.4107 276.599H89.19L89.0457 277.272C89.6068 276.759 90.2841 276.503 91.0775 276.503C91.5264 276.503 91.9231 276.595 92.2678 276.779C92.6204 276.955 92.8849 277.216 93.0612 277.561C93.3738 277.216 93.7385 276.955 94.1553 276.779C94.5721 276.595 95.0289 276.503 95.5259 276.503ZM103.031 274.651L101.348 283.067H99.4004L100.771 276.214H99.0878L99.4004 274.651H103.031ZM106.585 283.211C105.647 283.211 104.906 282.931 104.361 282.37C103.816 281.801 103.543 281.019 103.543 280.025C103.543 279.015 103.728 278.09 104.096 277.248C104.473 276.406 104.994 275.741 105.659 275.252C106.325 274.755 107.082 274.507 107.932 274.507C108.869 274.507 109.611 274.791 110.156 275.36C110.701 275.922 110.973 276.699 110.973 277.693C110.973 278.703 110.785 279.628 110.408 280.47C110.039 281.312 109.522 281.981 108.857 282.478C108.192 282.967 107.435 283.211 106.585 283.211ZM106.765 281.564C107.23 281.564 107.631 281.364 107.968 280.963C108.312 280.562 108.573 280.065 108.749 279.472C108.925 278.871 109.014 278.294 109.014 277.741C109.014 277.204 108.901 276.807 108.677 276.551C108.461 276.286 108.152 276.154 107.751 276.154C107.286 276.154 106.882 276.354 106.537 276.755C106.2 277.156 105.944 277.657 105.767 278.258C105.591 278.851 105.503 279.424 105.503 279.977C105.503 280.514 105.611 280.915 105.828 281.179C106.052 281.436 106.365 281.564 106.765 281.564Z" fill="white"/>
<path d="M56.7064 263.679H58.4857L57.7884 267.142C57.3636 267.471 56.8707 267.723 56.3096 267.899C55.7486 268.076 55.1675 268.164 54.5664 268.164C53.7248 268.164 52.9914 268.012 52.3663 267.707C51.7411 267.402 51.2562 266.974 50.9115 266.421C50.5749 265.868 50.4066 265.23 50.4066 264.509C50.4066 263.555 50.627 262.694 51.0678 261.924C51.5087 261.155 52.1298 260.554 52.9313 260.121C53.7328 259.68 54.6545 259.46 55.6965 259.46C56.498 259.46 57.1913 259.584 57.7764 259.832C58.3695 260.081 58.8464 260.445 59.207 260.926L57.8124 262.056C57.5319 261.728 57.2153 261.491 56.8627 261.347C56.51 261.195 56.0932 261.119 55.6123 261.119C54.9711 261.119 54.4061 261.263 53.9172 261.551C53.4282 261.832 53.0475 262.221 52.775 262.718C52.5105 263.215 52.3783 263.772 52.3783 264.389C52.3783 265.038 52.5867 265.555 53.0035 265.94C53.4282 266.316 54.0334 266.505 54.8188 266.505C55.3158 266.505 55.7806 266.405 56.2134 266.204L56.7064 263.679ZM60.5834 261.551H62.4469L61.1605 268.02H59.297L60.5834 261.551ZM61.8338 260.65C61.5132 260.65 61.2487 260.558 61.0403 260.373C60.8399 260.181 60.7397 259.948 60.7397 259.676C60.7397 259.355 60.8519 259.091 61.0763 258.882C61.3088 258.666 61.6093 258.558 61.978 258.558C62.3066 258.558 62.5711 258.65 62.7715 258.834C62.9799 259.011 63.0841 259.231 63.0841 259.496C63.0841 259.84 62.9679 260.121 62.7354 260.337C62.503 260.546 62.2024 260.65 61.8338 260.65ZM65.4502 265.735C65.4341 265.799 65.4261 265.888 65.4261 266C65.4261 266.417 65.6546 266.625 66.1114 266.625C66.3599 266.625 66.6123 266.549 66.8688 266.396L67.1453 267.731C66.7286 267.987 66.1916 268.116 65.5343 268.116C64.9252 268.116 64.4363 267.955 64.0676 267.635C63.6989 267.314 63.5146 266.873 63.5146 266.312C63.5146 266.152 63.5346 265.964 63.5747 265.747L64.0916 263.138H63.0938L63.3823 261.696H64.3802L64.6928 260.121H66.5683L66.2557 261.696H67.8667L67.5781 263.138H65.9671L65.4502 265.735ZM73.1754 261.455C73.8968 261.455 74.4699 261.648 74.8947 262.032C75.3194 262.417 75.5318 262.962 75.5318 263.667C75.5318 263.924 75.5038 264.18 75.4477 264.437L74.7263 268.02H72.8508L73.5481 264.557C73.5802 264.421 73.5962 264.273 73.5962 264.112C73.5962 263.776 73.5041 263.519 73.3197 263.343C73.1354 263.166 72.8589 263.078 72.4902 263.078C72.0093 263.078 71.6085 263.219 71.2879 263.499C70.9753 263.772 70.7629 264.184 70.6507 264.737L70.0015 268.02H68.126L69.9053 259.099H71.7808L71.1797 262.141C71.7327 261.684 72.398 261.455 73.1754 261.455ZM84.241 261.551L82.9546 268.02H81.1753L81.3075 267.322C81.027 267.587 80.7064 267.787 80.3457 267.923C79.985 268.052 79.6043 268.116 79.2036 268.116C78.4983 268.116 77.9332 267.923 77.5084 267.539C77.0916 267.154 76.8832 266.613 76.8832 265.916C76.8832 265.651 76.9113 265.391 76.9674 265.134L77.6767 261.551H79.5522L78.867 265.014C78.8349 265.166 78.8189 265.322 78.8189 265.483C78.8189 266.156 79.1795 266.493 79.9009 266.493C80.3738 266.493 80.7625 266.356 81.0671 266.084C81.3796 265.803 81.592 265.387 81.7043 264.834L82.3655 261.551H84.241ZM89.6093 261.455C90.1142 261.455 90.5791 261.571 91.0039 261.804C91.4367 262.036 91.7773 262.373 92.0258 262.814C92.2823 263.247 92.4105 263.76 92.4105 264.353C92.4105 265.066 92.2502 265.711 91.9296 266.288C91.617 266.857 91.1882 267.306 90.6432 267.635C90.0982 267.955 89.4931 268.116 88.8278 268.116C88.3229 268.116 87.8861 268.028 87.5174 267.851C87.1487 267.675 86.8642 267.41 86.6638 267.058L86.4714 268.02H84.6921L86.4714 259.099H88.3469L87.7458 262.104C88.2668 261.672 88.8879 261.455 89.6093 261.455ZM88.6114 266.565C88.9801 266.565 89.3087 266.477 89.5973 266.3C89.8858 266.116 90.1102 265.864 90.2705 265.543C90.4308 265.222 90.511 264.854 90.511 264.437C90.511 263.996 90.3787 263.647 90.1142 263.391C89.8578 263.134 89.4971 263.006 89.0322 263.006C88.6715 263.006 88.3469 263.098 88.0584 263.283C87.7699 263.459 87.5454 263.707 87.3851 264.028C87.2248 264.349 87.1447 264.717 87.1447 265.134C87.1447 265.575 87.2729 265.924 87.5294 266.18C87.7859 266.437 88.1466 266.565 88.6114 266.565ZM94.712 263.8C94.3914 263.8 94.1269 263.699 93.9185 263.499C93.7101 263.291 93.6059 263.03 93.6059 262.718C93.6059 262.349 93.7261 262.048 93.9666 261.816C94.207 261.584 94.5036 261.467 94.8563 261.467C95.1769 261.467 95.4373 261.567 95.6377 261.768C95.8461 261.968 95.9503 262.229 95.9503 262.549C95.9503 262.91 95.8261 263.211 95.5776 263.451C95.3372 263.683 95.0486 263.8 94.712 263.8ZM93.8464 268.116C93.5258 268.116 93.2613 268.016 93.0529 267.815C92.8445 267.607 92.7403 267.346 92.7403 267.034C92.7403 266.665 92.8605 266.364 93.101 266.132C93.3414 265.9 93.638 265.783 93.9906 265.783C94.3112 265.783 94.5717 265.884 94.7721 266.084C94.9805 266.284 95.0847 266.545 95.0847 266.865C95.0847 267.226 94.9604 267.527 94.712 267.767C94.4715 267.999 94.183 268.116 93.8464 268.116Z" fill="white"/>
<path d="M26.9929 56.4081C27.0567 56.3854 26.9853 56.0334 26.8263 55.5867L26.548 54.805L32.3546 52.7377L38.1613 50.6703L38.3965 51.3311C38.5458 51.7504 38.5891 52.0336 38.5153 52.1066C38.4222 52.1984 38.4315 52.2245 38.5617 52.2368C38.6513 52.2453 38.7767 52.3988 38.8404 52.5779L38.9564 52.9037L40.0731 52.5061L41.1897 52.1085L44.9269 62.6052L48.664 73.1018L47.4357 73.5391C46.6912 73.8042 46.223 74.0204 46.2471 74.0881C46.269 74.1495 46.3371 74.1819 46.3985 74.16C46.4647 74.1364 46.656 74.5297 46.868 75.1253L47.2258 76.1303L41.3075 78.2374L35.3892 80.3445L34.9916 79.2278L34.594 78.1111L33.4774 78.5087L32.3607 78.9063L28.6236 68.4096L24.8864 57.913L26.0031 57.5154L27.1198 57.1179L27.0005 56.7829C26.9349 56.5986 26.9315 56.43 26.9929 56.4081Z" fill="#F8CC14"/>
<rect x="27.0405" y="56.894" width="12.5645" height="17.7799" transform="rotate(-19.5973 27.0405 56.894)" fill="#007AE0"/>
<rect x="38.5537" y="73.6812" width="2.37065" height="2.37065" transform="rotate(-19.5973 38.5537 73.6812)" fill="#007AE0"/>
<path d="M22.42 115.626L22.2025 114.925L21.9849 114.224L33.0503 110.789L44.1157 107.355L44.3333 108.056L44.5508 108.757L43.6726 109.029C42.9242 109.262 42.8098 109.352 42.8987 109.638C42.9561 109.823 42.9167 110.044 42.811 110.131C42.6637 110.251 42.6893 110.31 42.9206 110.384C43.3797 110.529 42.9726 111.168 42.2846 111.382C41.5189 111.619 41.3412 112.065 41.6348 113.011L41.8835 113.812L41.0053 114.084L40.1271 114.357L40.3991 115.233L40.6711 116.109L39.7929 116.382L38.9146 116.655L39.1866 117.531L39.4586 118.407L38.5804 118.68L37.7022 118.952L38.0286 120.004L38.355 121.055L39.4088 120.728L40.4627 120.401L40.1907 119.525L39.9187 118.649L40.7969 118.376L41.6751 118.103L41.4031 117.227L41.1311 116.351L42.0093 116.078L42.8876 115.806L42.5612 114.754L42.2348 113.703L43.0376 113.453C43.5535 113.293 43.913 113.067 44.0431 112.82C44.1903 112.542 44.18 112.436 44.005 112.432C43.8726 112.429 43.6931 112.197 43.6059 111.916C43.4517 111.42 43.4723 111.397 44.3254 111.132L45.2036 110.86L46.89 116.293L48.5763 121.725L37.7619 125.082C28.6234 127.919 26.8965 128.412 26.6187 128.266C26.3494 128.125 26.0134 127.203 24.7592 123.162C23.0616 117.693 23.0653 117.732 24.202 117.379L24.8292 117.184L25.1012 118.06L25.3732 118.936L26.0004 118.742C26.774 118.502 27.2324 118.723 27.456 119.443C27.6796 120.163 28.1381 120.384 28.9116 120.144C29.5137 119.957 29.5466 119.974 29.7331 120.575C29.9726 121.347 30.4148 121.599 31.1366 121.375C31.8585 121.15 32.3006 121.402 32.5402 122.174L32.7345 122.8L33.6127 122.527L34.4909 122.255L34.7629 123.131L35.0349 124.007L36.9669 123.408L38.899 122.808L38.6503 122.007C38.2913 120.85 38.0223 120.774 36.2388 121.328L34.7334 121.795L34.5391 121.169C34.2788 120.331 33.856 120.146 32.8846 120.448L32.0817 120.697L31.8097 119.821L31.5377 118.944L30.6595 119.217L29.7813 119.49L29.5093 118.613L29.2373 117.737L28.3591 118.01L27.4809 118.282L27.2323 117.481C26.9314 116.512 26.5396 116.269 25.6989 116.53L25.0717 116.724L24.7997 115.848L24.5277 114.972L23.4739 115.299L22.42 115.626Z" fill="#F8CC14"/>
</svg>
