<svg width="336" height="410" viewBox="0 0 336 410" fill="none" xmlns="http://www.w3.org/2000/svg">
<rect y="74" width="336" height="336" fill="#007AE0"/>
<path d="M253.353 74.8329L315.647 74.713L284.12 39.0084L247.59 74.844L253.353 74.8329Z" fill="#007AE0"/>
<path d="M131.783 75.0668L194.077 74.9469L162.55 39.2422L126.02 75.0779L131.783 75.0668Z" fill="#007AE0"/>
<path d="M202.344 75.2197L238.514 75.1501L220.208 54.4184L198.997 75.2262L202.344 75.2197Z" fill="#007AE0"/>
<path d="M229.567 46.9014L265.738 46.8318L244.527 67.6396L226.22 46.9079L229.567 46.9014Z" fill="#007AE0"/>
<path d="M222.139 37.1089L277.4 37.0026L249.432 5.32909L217.027 37.1188L222.139 37.1089Z" fill="#007AE0"/>
<path d="M161.744 26.5401L197.947 67.5402L201.085 22.665L158.395 22.7471L161.744 26.5401Z" fill="#007AE0"/>
<path d="M65.277 212.79V214.392H60.4728V217.594H65.277V219.196H60.4728V224H57.27V212.79H65.277ZM66.8784 224V212.79H70.0812V224H66.8784ZM78.0883 222.599V224H73.2841V222.399H71.6826V214.392H73.2841V212.79H81.2911V215.993H79.6897V214.392H74.8855V222.399H77.8881L78.0883 222.198V219.196H76.4869V217.594H81.2911V224H79.6897V222.399H78.2885L78.0883 222.599ZM84.4939 219.196V224H82.8925V212.79H86.0953V215.993H90.8996V212.79H94.1024V224H90.8996V219.196H89.2982V222.399H86.0953V219.196H84.4939ZM102.109 219.196V214.392H98.9066V219.196H102.109ZM98.9066 220.797V224H95.7038V214.392H97.3052V212.79H103.711V214.392H105.312V224H102.109V220.797H98.9066Z" fill="white"/>
<path fill-rule="evenodd" clip-rule="evenodd" d="M62.8601 118.092V119.184H60.7329H58.6058V120.276V121.368H57.5422H56.4787V123.553V125.737H55.4151H54.3516V130.105V134.474H55.4151H56.4787V136.658V138.842H57.5422H58.6058V139.934V141.026H59.6694H60.7329V142.118V143.211H63.9236H67.1143V144.303V145.395H63.9236H60.7329V146.487V147.579H59.6694H58.6058V148.671V149.763H57.5422H56.4787V151.947V154.132H55.4151H54.3516V158.5V162.868H55.4151H56.4787V165.053V167.237H57.5422H58.6058V168.329V169.421H59.6694H60.7329V170.513V171.605H62.8601H64.9872V172.697V173.789H62.8601H60.7329V174.882V175.974H59.6694H58.6058V177.066V178.158H57.5422H56.4787V180.342V182.526H55.4151H54.3516V186.895V191.263H55.4151H56.4787V193.447V195.632H57.5422H58.6058V196.724V197.816H60.7329H62.8601V198.908V200H68.1779H73.4957V198.908V197.816H75.6228H77.7499V196.724V195.632H78.8135H79.877V193.447V191.263H80.9406H82.0042V178.158V165.053H83.0677H84.1313V166.145V167.237H85.1948H86.2584V168.329V169.421H87.322H88.3855V170.513V171.605H95.8305H103.275V170.513V169.421H104.339H105.403V168.329V167.237H106.466H107.53V165.053V162.868H108.593H109.657V158.5V154.132H108.593H107.53V151.947V149.763H106.466H105.403V148.671V147.579H104.339H103.275V146.487V145.395H100.085H96.894V144.303V143.211H100.085H103.275V142.118V141.026H104.339H105.403V139.934V138.842H106.466H107.53V136.658V134.474H108.593H109.657V130.105V125.737H108.593H107.53V123.553V121.368H106.466H105.403V120.276V119.184H103.275H101.148V118.092V117H82.0042H62.8601V118.092ZM88.3855 146.487V147.579H87.322H86.2584V148.671V149.763H85.1948H84.1313V150.855V151.947H83.0677H82.0042V148.671V145.395H85.1948H88.3855V146.487Z" fill="#F9CC14"/>
<path d="M191.237 214.392H188.034V217.594H191.237V214.392ZM192.838 217.594V219.196H188.034V224H184.831V212.79H192.838V214.392H194.439V217.594H192.838ZM202.446 212.79H205.649V224H202.446V219.196H199.244V224H196.041V212.79H199.244V217.594H202.446V212.79ZM213.656 214.392H210.454V222.399H213.656V214.392ZM208.852 222.399H207.251V214.392H208.852V212.79H215.258V214.392H216.859V222.399H215.258V224H208.852V222.399ZM228.069 212.79V214.392H224.866V224H221.663V214.392H218.461V212.79H228.069ZM236.076 214.392H232.873V222.399H236.076V214.392ZM231.272 222.399H229.67V214.392H231.272V212.79H237.678V214.392H239.279V222.399H237.678V224H231.272V222.399ZM247.286 214.392H244.083V217.594H248.887V219.196H250.489V222.399H248.887V224H242.482V222.399H240.88V220.797H244.083V222.399H247.286V219.196H242.482V217.594H240.88V214.392H242.482V212.79H248.887V214.392H250.489V215.993H247.286V214.392ZM258.496 212.79H261.699V224H258.496V219.196H255.293V224H252.09V212.79H255.293V217.594H258.496V212.79ZM269.706 214.392H266.503V222.399H269.706V214.392ZM264.901 222.399H263.3V214.392H264.901V212.79H271.307V214.392H272.909V222.399H271.307V224H264.901V222.399ZM280.916 214.392H277.713V217.594H280.916V214.392ZM282.517 217.594V219.196H277.713V224H274.51V212.79H282.517V214.392H284.118V217.594H282.517Z" fill="white"/>
<rect x="200.184" y="117" width="72" height="72" fill="#F9CC14"/>
<path d="M229.137 144.906H222.105V151.938H229.137V144.906ZM232.652 151.938V155.453H222.105V166H215.074V141.391H232.652V144.906H236.168V151.938H232.652ZM253.746 144.906H246.715V151.938H257.262V155.453H260.777V162.484H257.262V166H243.199V162.484H239.684V158.969H246.715V162.484H253.746V155.453H243.199V151.938H239.684V144.906H243.199V141.391H257.262V144.906H260.777V148.422H253.746V144.906Z" fill="#007AE0"/>
<path d="M25.2418 379.911V368.701H28.4446V379.911H25.2418ZM38.053 377.909V379.911H30.046V368.701H33.2488V377.909H38.053ZM47.6615 377.909V379.911H39.6544V368.701H42.8573V377.909H47.6615ZM55.6685 368.701H58.8714V379.911H50.8643V378.31H49.2629V368.701H52.4657V378.31H55.6685V368.701ZM66.8784 370.303H63.6756V373.505H68.4798V375.107H70.0812V378.31H68.4798V379.911H62.0742V378.31H60.4728V376.708H63.6756V378.31H66.8784V375.107H62.0742V373.505H60.4728V370.303H62.0742V368.701H68.4798V370.303H70.0812V371.904H66.8784V370.303ZM81.2911 368.701V370.303H78.0883V379.911H74.8855V370.303H71.6826V368.701H81.2911ZM89.2982 370.303H86.0953V373.505H89.2982V370.303ZM90.8996 375.107H92.501V379.911H89.2982V375.107H86.0953V379.911H82.8925V368.701H90.8996V370.303H92.501V373.505H90.8996V375.107ZM100.508 375.107V370.303H97.3052V375.107H100.508ZM97.3052 376.708V379.911H94.1024V370.303H95.7038V368.701H102.109V370.303H103.711V379.911H100.508V376.708H97.3052ZM114.921 368.701V370.303H111.718V379.911H108.515V370.303H105.312V368.701H114.921ZM122.928 370.303H119.725V378.31H122.928V370.303ZM118.124 378.31H116.522V370.303H118.124V368.701H124.529V370.303H126.131V378.31H124.529V379.911H118.124V378.31ZM134.138 370.303H130.935V373.505H134.138V370.303ZM135.739 375.107H137.34V379.911H134.138V375.107H130.935V379.911H127.732V368.701H135.739V370.303H137.34V373.505H135.739V375.107Z" fill="white"/>
<rect x="48.6309" y="272.911" width="68.6547" height="72" fill="#F9CC14"/>
<path d="M82.7789 311.364V300.817H75.7477V311.364H82.7789ZM75.7477 314.88V321.911H68.7164V300.817H72.2321V297.302H86.2946V300.817H89.8102V321.911H82.7789V314.88H75.7477ZM93.3258 321.911V297.302H100.357V321.911H93.3258Z" fill="#007AE0"/>
<path d="M204.646 365.107V360.303H201.443V365.107H204.646ZM201.443 366.708V369.911H198.24V360.303H199.842V358.701H206.247V360.303H207.849V369.911H204.646V366.708H201.443ZM215.856 360.303H212.653V363.505H217.457V365.107H219.058V368.31H217.457V369.911H211.051V368.31H209.45V366.708H212.653V368.31H215.856V365.107H211.051V363.505H209.45V360.303H211.051V358.701H217.457V360.303H219.058V361.904H215.856V360.303ZM220.66 369.911V358.701H228.667V360.303H223.863V363.505H228.667V365.107H223.863V368.31H228.667V369.911H220.66ZM236.674 360.303H233.471V363.505H236.674V360.303ZM238.275 363.505V365.107H233.471V369.911H230.268V358.701H238.275V360.303H239.877V363.505H238.275ZM247.884 360.303H244.681V363.505H247.884V360.303ZM249.485 365.107H251.087V369.911H247.884V365.107H244.681V369.911H241.478V358.701H249.485V360.303H251.087V363.505H249.485V365.107ZM252.688 369.911V358.701H255.891V369.911H252.688ZM267.101 358.701V360.303H263.898V369.911H260.695V360.303H257.492V358.701H267.101ZM268.702 369.911V358.701H276.709V360.303H271.905V363.505H276.709V365.107H271.905V368.31H276.709V369.911H268.702Z" fill="white"/>
<path fill-rule="evenodd" clip-rule="evenodd" d="M268.271 280.17C268.271 280.502 267.874 280.899 267.542 280.899C267.315 280.899 267.283 281.323 267.283 284.355V287.812H222.096H176.909L176.338 288.382L175.767 288.953V292.827V296.7H172.476H169.184V314.806V332.911H177.507C186.291 332.911 186.302 332.91 186.302 332.182C186.302 332.033 186.441 331.924 186.631 331.924C186.95 331.924 186.96 331.814 186.96 328.138V324.352H207.699H228.438V327.403V330.453L229.009 331.024L229.579 331.594H234.199H238.819L239.389 331.024L239.96 330.453V327.403V324.352H264.814H289.668V328.138C289.668 331.814 289.678 331.924 289.997 331.924C290.187 331.924 290.326 332.033 290.326 332.182C290.326 332.91 290.337 332.911 299.121 332.911H307.444V314.806V296.7H304.153H300.861V292.827V288.953L300.29 288.382L299.719 287.812H293.212H286.705V286.407C286.705 285.024 286.697 284.994 286.135 284.432L285.564 283.861H282.349H279.134V282.38C279.134 281.143 279.091 280.899 278.875 280.899C278.543 280.899 278.146 280.502 278.146 280.17C278.146 279.94 277.588 279.911 273.208 279.911C268.829 279.911 268.271 279.94 268.271 280.17ZM274.78 284.266C275.152 284.638 275.184 284.792 275.184 286.241V287.812H278.734C281.592 287.812 282.331 287.858 282.52 288.047C282.689 288.216 282.755 288.702 282.755 289.787C282.755 290.872 282.689 291.357 282.52 291.527C282.331 291.716 281.592 291.762 278.734 291.762H275.184V303.044V314.327L274.78 314.731C274.427 315.084 274.228 315.135 273.208 315.135C272.189 315.135 271.99 315.084 271.637 314.731L271.233 314.327V299.423C271.233 289.597 271.289 284.52 271.398 284.52C271.488 284.52 271.562 284.372 271.562 284.191C271.562 283.887 271.672 283.861 272.969 283.861C274.243 283.861 274.414 283.899 274.78 284.266ZM178.072 289.952C178.072 290.946 178.032 291.104 177.779 291.104C177.618 291.104 177.379 291.252 177.249 291.433C176.85 291.987 176.755 291.812 176.755 290.521C176.755 289.143 176.92 288.815 177.619 288.806C178.07 288.799 178.072 288.803 178.072 289.952ZM181.364 289.952V291.104H180.212H179.059V289.952V288.799H180.212H181.364V289.952ZM184.985 289.952V291.104H183.668H182.351V289.952V288.799H183.668H184.985V289.952ZM188.277 289.952V291.104H187.125H185.972V289.952V288.799H187.125H188.277V289.952ZM191.663 289.035C191.81 289.182 191.898 289.611 191.898 290.187V291.104H190.581H189.264V289.952V288.799H190.346C191.064 288.799 191.507 288.878 191.663 289.035ZM195.19 289.952V291.104H194.038H192.885V289.952V288.799H194.038H195.19V289.952ZM198.482 289.952V291.104H197.33H196.177V289.952V288.799H197.33H198.482V289.952ZM202.103 289.952V291.104H200.786H199.469V289.952V288.799H200.786H202.103V289.952ZM205.395 289.952V291.104H204.243H203.09V289.952V288.799H204.243H205.395V289.952ZM208.687 289.952V291.104H207.535H206.382V289.952V288.799H207.535H208.687V289.952ZM212.308 289.952V291.104H210.991H209.674V289.952V288.799H210.991H212.308V289.952ZM215.6 289.952V291.104H214.448H213.295V289.952V288.799H214.448H215.6V289.952ZM218.892 289.952V291.104H217.739H216.587V289.952V288.799H217.739H218.892V289.952ZM222.513 289.952V291.104H221.196H219.879V290.191C219.879 288.967 220.048 288.813 221.402 288.806L222.513 288.799V289.952ZM225.805 289.952V291.104H224.653H223.5V289.952V288.799H224.653H225.805V289.952ZM229.426 289.952V291.104H228.109H226.792V289.952V288.799H228.109H229.426V289.952ZM232.718 289.952V291.104H231.566H230.413V289.952V288.799H231.566H232.718V289.952ZM236.01 289.952V291.104H234.858H233.705V289.952V288.799H234.858H236.01V289.952ZM239.631 289.952V291.104H238.314H236.997V289.952V288.799H238.314H239.631V289.952ZM242.923 289.952V291.104H241.771H240.618V289.952V288.799H241.771H242.923V289.952ZM246.215 289.952V291.104H245.062H243.91V289.952V288.799H245.062H246.215V289.952ZM249.836 289.952V291.104H248.519H247.202V289.952V288.799H248.519H249.836V289.952ZM253.128 289.952V291.104H251.976H250.823V289.952V288.799H251.976H253.128V289.952ZM256.749 289.952V291.104H255.432H254.115V289.952V288.799H255.432H256.749V289.952ZM260.041 289.952V291.104H258.889H257.736V289.952V288.799H258.889H260.041V289.952ZM263.333 289.952V291.104H262.18H261.028V289.952V288.799H262.18H263.333V289.952ZM266.295 289.952V291.104H265.308H264.32V289.952V288.799H265.308H266.295V289.952ZM290.656 289.952V291.104H289.503H288.351V289.952V288.799H289.503H290.656V289.952ZM294.277 289.952V291.104H292.96H291.643V289.952V288.799H292.96H294.277V289.952ZM297.569 289.952V291.104H296.417H295.264V289.952V288.799H296.417H297.569V289.952ZM299.638 289.035C299.89 289.287 299.987 291.762 299.745 291.762C299.674 291.762 299.51 291.614 299.379 291.433C299.249 291.252 299.01 291.104 298.849 291.104C298.596 291.104 298.556 290.946 298.556 289.952C298.556 288.824 298.565 288.799 298.979 288.799C299.212 288.799 299.509 288.905 299.638 289.035ZM196.93 295.948C197.128 296.146 197.165 297.612 197.165 305.255V314.327L196.761 314.731L196.357 315.135H191.165C186.082 315.135 185.972 315.128 185.972 314.806C185.972 314.586 185.863 314.476 185.643 314.476C185.321 314.476 185.314 314.367 185.314 309.284V304.092L185.718 303.688C186.122 303.284 186.123 303.284 189.668 303.284H193.215V301.544C193.215 300.255 193.154 299.743 192.979 299.569C192.791 299.38 192.074 299.333 189.358 299.333C187.211 299.333 185.972 299.273 185.972 299.169C185.972 299.078 185.824 299.004 185.643 299.004C185.338 299.004 185.314 298.895 185.314 297.523C185.314 296.151 185.338 296.042 185.643 296.042C185.824 296.042 185.972 295.967 185.972 295.877C185.972 295.771 187.869 295.712 191.333 295.712C195.76 295.712 196.736 295.753 196.93 295.948ZM212.402 295.948C212.573 296.119 212.637 296.612 212.637 297.758V299.333H208.851H205.066V301.309V303.284H208.687C212.198 303.284 212.308 303.294 212.308 303.613C212.308 303.794 212.382 303.942 212.472 303.942C212.579 303.942 212.637 305.783 212.637 309.134V314.327L212.233 314.731L211.829 315.135H206.876H201.923L201.519 314.731C201.157 314.368 201.115 314.19 201.115 312.991C201.115 312.052 201.185 311.585 201.35 311.42C201.54 311.23 202.278 311.184 205.136 311.184H208.687V309.209V307.234H205.136C202.278 307.234 201.54 307.188 201.35 306.999C201.027 306.675 200.999 296.324 201.321 295.959C201.628 295.61 212.054 295.6 212.402 295.948ZM227.78 295.877C227.78 295.967 227.928 296.042 228.109 296.042C228.432 296.042 228.438 296.151 228.438 301.473C228.438 306.795 228.432 306.905 228.109 306.905C227.928 306.905 227.78 306.979 227.78 307.07C227.78 307.174 226.463 307.234 224.159 307.234H220.538V309.209V311.184H224.159C226.463 311.184 227.78 311.244 227.78 311.349C227.78 311.44 227.928 311.514 228.109 311.514C228.414 311.514 228.438 311.623 228.438 312.995C228.438 314.367 228.414 314.476 228.109 314.476C227.89 314.476 227.78 314.586 227.78 314.806C227.78 315.128 227.67 315.135 222.588 315.135H217.395L216.991 314.731L216.587 314.327V305.184C216.587 296.151 216.591 296.042 216.917 296.042C217.098 296.042 217.246 295.967 217.246 295.877C217.246 295.771 219.111 295.712 222.513 295.712C225.915 295.712 227.78 295.771 227.78 295.877ZM243.675 295.948C243.873 296.146 243.91 297.612 243.91 305.255V314.327L243.506 314.731C243.102 315.135 243.102 315.135 239.556 315.135H236.01V320.66C236.01 325.23 235.969 326.227 235.774 326.421C235.609 326.587 235.141 326.656 234.199 326.656C233.257 326.656 232.789 326.587 232.624 326.421C232.423 326.221 232.389 323.967 232.389 311.189C232.389 299.426 232.433 296.142 232.594 295.959C232.901 295.61 243.328 295.6 243.675 295.948ZM259.147 295.948C259.335 296.136 259.382 296.844 259.382 299.498C259.382 302.152 259.335 302.86 259.147 303.049C258.818 303.378 256.325 303.378 255.996 303.049C255.827 302.879 255.761 302.393 255.761 301.309C255.761 300.224 255.696 299.738 255.526 299.569C255.352 299.395 254.84 299.333 253.551 299.333H251.811V306.905C251.811 314.367 251.806 314.476 251.482 314.476C251.262 314.476 251.153 314.586 251.153 314.806C251.153 315.106 251.043 315.135 249.911 315.135C248.811 315.135 248.622 315.088 248.265 314.731L247.861 314.327V305.259C247.861 298.24 247.907 296.14 248.066 295.959C248.373 295.61 258.8 295.6 259.147 295.948ZM267.048 295.948C267.213 296.113 267.283 296.581 267.283 297.523C267.283 298.465 267.213 298.933 267.048 299.098C266.769 299.377 263.991 299.441 263.991 299.169C263.991 299.078 263.843 299.004 263.662 299.004C263.357 299.004 263.333 298.895 263.333 297.523C263.333 296.151 263.357 296.042 263.662 296.042C263.843 296.042 263.991 295.967 263.991 295.877C263.991 295.605 266.769 295.669 267.048 295.948ZM290.42 295.948C290.769 296.296 290.769 306.65 290.42 306.999C290.231 307.188 289.502 307.234 286.705 307.234C283.909 307.234 283.179 307.28 282.99 307.469C282.821 307.639 282.755 308.125 282.755 309.209C282.755 310.294 282.821 310.78 282.99 310.949C283.179 311.138 283.909 311.184 286.705 311.184C289.502 311.184 290.231 311.231 290.42 311.42C290.586 311.585 290.656 312.052 290.656 312.991C290.656 314.19 290.614 314.368 290.252 314.731L289.848 315.135H284.895H279.942L279.538 314.731L279.134 314.327V305.259C279.134 298.24 279.18 296.14 279.34 295.959C279.646 295.61 290.073 295.6 290.42 295.948ZM172.805 298.84V299.992H171.723C170.363 299.992 170.171 299.82 170.171 298.604V297.688H171.488H172.805V298.84ZM174.121 298.84C174.121 299.498 174.051 299.992 173.957 299.992C173.863 299.992 173.792 299.498 173.792 298.84C173.792 298.181 173.863 297.688 173.957 297.688C174.051 297.688 174.121 298.181 174.121 298.84ZM302.836 298.84C302.836 299.498 302.765 299.992 302.671 299.992C302.577 299.992 302.507 299.498 302.507 298.84C302.507 298.181 302.577 297.688 302.671 297.688C302.765 297.688 302.836 298.181 302.836 298.84ZM306.457 298.604C306.457 299.82 306.265 299.992 304.905 299.992H303.823V298.84V297.688H305.14H306.457V298.604ZM220.743 299.58C220.607 299.735 220.538 300.395 220.538 301.549V303.284H222.513H224.488V301.544C224.488 300.255 224.427 299.743 224.253 299.569C223.922 299.238 221.037 299.247 220.743 299.58ZM236.215 299.58C235.893 299.945 235.921 310.625 236.245 310.949C236.419 311.123 236.931 311.184 238.22 311.184H239.96V305.494C239.96 300.782 239.92 299.763 239.725 299.569C239.394 299.238 236.509 299.247 236.215 299.58ZM282.961 299.58C282.824 299.735 282.755 300.395 282.755 301.549V303.284H284.73H286.705V301.309V299.333L284.936 299.34C283.62 299.344 283.114 299.406 282.961 299.58ZM266.954 303.613C266.954 303.794 267.028 303.942 267.118 303.942C267.225 303.942 267.283 305.783 267.283 309.134V314.327L266.879 314.731C266.521 315.088 266.332 315.135 265.233 315.135C264.101 315.135 263.991 315.106 263.991 314.806C263.991 314.586 263.881 314.476 263.662 314.476C263.34 314.476 263.333 314.367 263.333 309.286C263.333 304.13 263.335 304.092 263.703 303.699C264.038 303.342 264.212 303.303 265.514 303.294C266.847 303.285 266.954 303.308 266.954 303.613ZM189.264 309.209V311.184H191.239H193.215V309.209V307.234H191.239H189.264V309.209ZM178.072 321.06V322.377H177.578C177.306 322.377 177.084 322.451 177.084 322.542C177.084 322.632 177.01 322.706 176.92 322.706C176.827 322.706 176.755 322.238 176.755 321.63C176.755 320.742 176.819 320.486 177.125 320.159C177.329 319.942 177.625 319.759 177.784 319.753C178.035 319.745 178.072 319.912 178.072 321.06ZM181.364 321.06V322.377H180.212H179.059V321.06V319.743H180.212H181.364V321.06ZM184.75 319.979C184.906 320.135 184.985 320.577 184.985 321.295V322.377H183.903C183.185 322.377 182.743 322.298 182.587 322.142C182.292 321.848 182.271 320.314 182.557 319.99C182.836 319.673 184.436 319.665 184.75 319.979ZM188.277 321.06V322.377H187.125H185.972V321.06V319.743H187.125H188.277V321.06ZM191.663 319.979C191.806 320.121 191.898 320.546 191.898 321.06C191.898 322.198 191.687 322.377 190.346 322.377H189.264V321.3C189.264 320.673 189.35 320.126 189.47 319.99C189.749 319.673 191.349 319.665 191.663 319.979ZM195.19 321.06V322.377H194.038H192.885V321.06V319.743H194.038H195.19V321.06ZM198.482 321.06V322.377H197.33H196.177V321.06V319.743H197.33H198.482V321.06ZM201.868 319.979C202.011 320.121 202.103 320.546 202.103 321.06C202.103 322.198 201.892 322.377 200.551 322.377H199.469V321.3C199.469 320.673 199.555 320.126 199.675 319.99C199.954 319.673 201.554 319.665 201.868 319.979ZM205.395 321.06V322.377H204.243H203.09V321.06V319.743H204.243H205.395V321.06ZM208.687 321.06V322.377H207.535H206.382V321.06V319.743H207.535H208.687V321.06ZM212.073 319.979C212.229 320.135 212.308 320.577 212.308 321.295V322.377H211.226C210.508 322.377 210.066 322.298 209.909 322.142C209.615 321.848 209.594 320.314 209.88 319.99C210.159 319.673 211.759 319.665 212.073 319.979ZM215.6 321.06V322.377H214.448H213.295V321.06V319.743H214.448H215.6V321.06ZM218.892 321.06V322.377H217.739H216.587V321.3C216.587 319.932 216.74 319.758 217.945 319.75L218.892 319.743V321.06ZM222.278 319.979C222.434 320.135 222.513 320.577 222.513 321.295V322.377H221.431C220.713 322.377 220.27 322.298 220.114 322.142C219.82 321.848 219.799 320.314 220.085 319.99C220.364 319.673 221.964 319.665 222.278 319.979ZM225.805 321.06V322.377H224.653H223.5V321.06V319.743H224.653H225.805V321.06ZM227.78 321.06V322.377H227.286H226.792V321.3C226.792 320.182 226.982 319.761 227.492 319.75C227.743 319.744 227.78 319.913 227.78 321.06ZM242.923 321.06V322.377H241.935H240.948V321.06V319.743H241.935H242.923V321.06ZM246.215 321.06V322.377H245.062H243.91V321.06V319.743H245.062H246.215V321.06ZM249.601 319.979C249.757 320.135 249.836 320.577 249.836 321.295V322.377H248.754C248.036 322.377 247.593 322.298 247.437 322.142C247.143 321.848 247.122 320.314 247.408 319.99C247.687 319.673 249.287 319.665 249.601 319.979ZM253.128 321.06V322.377H251.976H250.823V321.06V319.743H251.976H253.128V321.06ZM256.514 319.979C256.656 320.121 256.749 320.546 256.749 321.06C256.749 322.198 256.538 322.377 255.197 322.377H254.115V321.3C254.115 320.673 254.201 320.126 254.321 319.99C254.6 319.673 256.2 319.665 256.514 319.979ZM259.806 319.979C259.962 320.135 260.041 320.577 260.041 321.295V322.377H258.889H257.736V321.06V319.743H258.653C259.229 319.743 259.658 319.831 259.806 319.979ZM263.333 321.06V322.377H262.18H261.028V321.06V319.743H262.18H263.333V321.06ZM266.719 319.979C266.861 320.121 266.954 320.546 266.954 321.06C266.954 322.198 266.743 322.377 265.402 322.377H264.32V321.3C264.32 320.673 264.406 320.126 264.526 319.99C264.805 319.673 266.405 319.665 266.719 319.979ZM270.246 321.06V322.377H269.094H267.941V321.06V319.743H269.094H270.246V321.06ZM273.538 321.06V322.377H272.385H271.233V321.06V319.743H272.385H273.538V321.06ZM276.924 319.979C277.08 320.135 277.159 320.577 277.159 321.295V322.377H276.077C275.359 322.377 274.916 322.298 274.76 322.142C274.466 321.848 274.445 320.314 274.731 319.99C275.01 319.673 276.61 319.665 276.924 319.979ZM280.451 321.06V322.377H279.299H278.146V321.06V319.743H279.299H280.451V321.06ZM283.743 321.06V322.377H282.59H281.438V321.06V319.743H282.59H283.743V321.06ZM287.129 319.979C287.285 320.135 287.364 320.577 287.364 321.295V322.377H286.282C285.564 322.377 285.121 322.298 284.965 322.142C284.671 321.848 284.65 320.314 284.936 319.99C285.215 319.673 286.815 319.665 287.129 319.979ZM290.656 321.06V322.377H289.503H288.351V321.06V319.743H289.503H290.656V321.06ZM294.042 319.979C294.184 320.121 294.277 320.546 294.277 321.06C294.277 322.198 294.066 322.377 292.725 322.377H291.643V321.3C291.643 320.673 291.729 320.126 291.849 319.99C292.128 319.673 293.728 319.665 294.042 319.979ZM297.569 321.06V322.377H296.417H295.264V321.06V319.743H296.417H297.569V321.06ZM299.469 320.148C299.816 320.494 299.873 320.704 299.873 321.629C299.873 322.237 299.801 322.706 299.708 322.706C299.618 322.706 299.544 322.632 299.544 322.542C299.544 322.451 299.322 322.377 299.05 322.377H298.556V321.06C298.556 319.584 298.731 319.409 299.469 320.148ZM172.805 329.784V330.936H171.488H170.171V329.784V328.632H171.488H172.805V329.784ZM174.121 329.784C174.121 330.442 174.051 330.936 173.957 330.936C173.863 330.936 173.792 330.442 173.792 329.784C173.792 329.125 173.863 328.632 173.957 328.632C174.051 328.632 174.121 329.125 174.121 329.784ZM302.836 329.784C302.836 330.442 302.765 330.936 302.671 330.936C302.577 330.936 302.507 330.442 302.507 329.784C302.507 329.125 302.577 328.632 302.671 328.632C302.765 328.632 302.836 329.125 302.836 329.784ZM306.457 329.784V330.936H305.14H303.823V329.784V328.632H305.14H306.457V329.784Z" fill="#F9CC14"/>
</svg>
