<svg width="336" height="410" viewBox="0 0 336 410" fill="none" xmlns="http://www.w3.org/2000/svg">
<rect y="73.999" width="336" height="336" fill="#007AE0"/>
<path d="M99.25 364.265V366.999H89.875V363.874H86.75V348.249H89.875V345.124H105.5V351.374H102.375V348.249H93V363.874H98.8594L99.25 363.483V357.624H96.125V354.499H105.5V366.999H102.375V363.874H99.6406L99.25 364.265ZM121.125 357.624V348.249H114.875V357.624H121.125ZM114.875 360.749V366.999H108.625V348.249H111.75V345.124H124.25V348.249H127.375V366.999H121.125V360.749H114.875ZM133.625 357.624V366.999H130.5V345.124H136.75V351.374H146.125V345.124H152.375V366.999H146.125V357.624H143V363.874H136.75V357.624H133.625ZM155.5 366.999V345.124H171.125V348.249H161.75V354.499H171.125V357.624H161.75V363.874H171.125V366.999H155.5ZM199.25 348.249H193V363.874H199.25V348.249ZM186.75 366.999V345.124H202.375V348.249H205.5V363.874H202.375V366.999H186.75ZM208.625 366.999V345.124H224.25V348.249H214.875V354.499H224.25V357.624H214.875V363.874H224.25V366.999H208.625ZM239.875 360.749V345.124H246.125V360.749H243V363.874H239.875V366.999H233.625V363.874H230.5V360.749H227.375V345.124H233.625V360.749H239.875Z" fill="white"/>
<path d="M254.353 74.8319L316.647 74.712L285.12 39.0074L248.59 74.843L254.353 74.8319Z" fill="#007AE0"/>
<path d="M132.783 75.0658L195.077 74.9459L163.55 39.2413L127.02 75.0769L132.783 75.0658Z" fill="#007AE0"/>
<path d="M203.344 75.2188L239.514 75.1492L221.208 54.4174L199.997 75.2252L203.344 75.2188Z" fill="#007AE0"/>
<path d="M230.567 46.9004L266.738 46.8308L245.527 67.6386L227.22 46.9069L230.567 46.9004Z" fill="#007AE0"/>
<path d="M223.139 37.1079L278.4 37.0016L250.432 5.32811L218.027 37.1178L223.139 37.1079Z" fill="#007AE0"/>
<path d="M162.744 26.5391L198.947 67.5392L202.085 22.664L159.395 22.7462L162.744 26.5391Z" fill="#007AE0"/>
<path d="M87.4945 244.648L82.5102 273.322L82.4446 273.699L111.873 278.815L113.578 269.005L123.01 270.645L124.781 260.458L134.968 262.229L136.608 252.797L146.417 254.502L148.122 244.692L157.932 246.397L159.702 236.211L168.757 237.785L170.331 228.73L180.141 230.435L181.846 220.625L192.033 222.396L193.738 212.587L203.17 214.226L204.875 204.417L205.253 204.482L214.685 206.122L216.39 196.312L226.199 198.017L227.839 188.585L236.894 190.159L238.665 179.972L240.174 180.235L248.097 181.612L251.31 163.125L241.878 161.485L243.583 151.676L224.342 148.331L222.637 158.141L213.582 156.567L212.073 165.244L201.886 163.474L200.116 173.66L189.929 171.89L188.224 181.699L179.169 180.125L177.529 189.557L167.342 187.787L165.572 197.973L156.14 196.334L154.434 206.143L144.625 204.438L142.92 214.248L133.488 212.608L131.782 222.418L122.35 220.778L120.645 230.587L110.835 228.882L109.196 238.315L99.3864 236.609L97.6813 246.419L87.4945 244.648Z" fill="#393939"/>
<path d="M224.342 148.331L222.637 158.141L221.063 167.196L230.495 168.835L228.855 178.267L238.665 179.972L240.174 180.235L248.097 181.612L251.31 163.125L241.878 161.485L243.583 151.676L224.342 148.331Z" fill="#F9CC14"/>
<path d="M236.895 190.159L238.665 179.972L228.856 178.267L230.495 168.835L221.063 167.196L221.129 166.818L222.637 158.141L213.582 156.567L212.074 165.244L210.369 175.054L219.801 176.693L218.03 186.88L227.84 188.585L236.895 190.159Z" fill="white"/>
<path d="M95.7791 257.36L97.7466 246.041L87.1825 244.205L82.067 273.634L111.873 278.815L113.578 269.005L102.259 267.038L103.702 258.737L95.7791 257.36Z" fill="white"/>
<path d="M83.7061 264.201L93.5156 265.906L91.8105 275.716L82.001 274.011L83.7061 264.201Z" fill="#F9CC14"/>
</svg>
