<svg width="336" height="411" viewBox="0 0 336 411" fill="none" xmlns="http://www.w3.org/2000/svg">
<rect y="0.998535" width="336" height="336" fill="#007AE0"/>
<path d="M122.688 275.248H116.438V290.873H122.688V275.248ZM110.188 293.998V272.123H125.812V275.248H128.938V290.873H125.812V293.998H110.188ZM132.062 293.998V272.123H147.688V275.248H138.312V281.498H147.688V284.623H138.312V290.873H147.688V293.998H132.062ZM163.312 275.248H157.062V281.498H166.438V284.623H169.562V290.873H166.438V293.998H153.938V290.873H150.812V287.748H157.062V290.873H163.312V284.623H153.938V281.498H150.812V275.248H153.938V272.123H166.438V275.248H169.562V278.373H163.312V275.248ZM172.688 293.998V272.123H178.938V293.998H172.688ZM194.562 291.264V293.998H185.188V290.873H182.062V275.248H185.188V272.123H200.812V278.373H197.688V275.248H188.312V290.873H194.172L194.562 290.482V284.623H191.438V281.498H200.812V293.998H197.688V290.873H194.953L194.562 291.264ZM207.062 284.623V293.998H203.938V272.123H210.188V278.373H213.312V284.623H216.438V272.123H222.688V293.998H216.438V290.873H210.188V284.623H207.062Z" fill="white"/>
<path d="M194.518 335.533L132.224 335.653L163.751 371.357L200.281 335.522L194.518 335.533Z" fill="#007AE0"/>
<path d="M316.089 335.299L253.794 335.419L285.322 371.123L321.851 335.288L316.089 335.299Z" fill="#007AE0"/>
<path d="M245.528 335.146L209.357 335.216L227.663 355.947L248.874 335.14L245.528 335.146Z" fill="#007AE0"/>
<path d="M218.304 363.464L182.134 363.534L203.344 342.726L221.651 363.458L218.304 363.464Z" fill="#007AE0"/>
<path d="M225.732 373.257L170.471 373.363L198.439 405.037L230.844 373.247L225.732 373.257Z" fill="#007AE0"/>
<path d="M286.127 383.826L249.924 342.826L246.786 387.701L289.476 387.619L286.127 383.826Z" fill="#007AE0"/>
<path d="M87.4945 171.648L82.5102 200.322L82.4446 200.699L111.873 205.814L113.578 196.005L123.01 197.644L124.781 187.458L134.968 189.228L136.608 179.796L146.417 181.501L148.122 171.692L157.932 173.397L159.702 163.21L168.757 164.784L170.331 155.729L180.141 157.434L181.846 147.625L192.033 149.396L193.738 139.586L203.17 141.226L204.875 131.416L205.253 131.482L214.685 133.121L216.39 123.312L226.199 125.017L227.839 115.585L236.894 117.159L238.665 106.972L240.174 107.234L248.097 108.612L251.31 90.1244L241.878 88.4849L243.583 78.6754L224.342 75.3306L222.637 85.1401L213.582 83.5661L212.073 92.2438L201.886 90.473L200.116 100.66L189.929 98.8891L188.224 108.699L179.169 107.125L177.529 116.557L167.342 114.786L165.572 124.973L156.14 123.333L154.434 133.143L144.625 131.438L142.92 141.247L133.488 139.608L131.782 149.417L122.35 147.777L120.645 157.587L110.835 155.882L109.196 165.314L99.3864 163.609L97.6813 173.418L87.4945 171.648Z" fill="#393939"/>
<path d="M224.342 75.3306L222.637 85.1401L221.063 94.1951L230.495 95.8346L228.855 105.267L238.665 106.972L240.174 107.234L248.097 108.612L251.31 90.1244L241.878 88.4849L243.583 78.6754L224.342 75.3306Z" fill="#F9CC14"/>
<path d="M236.895 117.159L238.665 106.972L228.856 105.267L230.495 95.8346L221.063 94.1951L221.129 93.8178L222.637 85.1401L213.582 83.5661L212.074 92.2438L210.369 102.053L219.801 103.693L218.03 113.88L227.84 115.585L236.895 117.159Z" fill="white"/>
<path d="M95.7791 184.36L97.7466 173.041L87.1825 171.205L82.067 200.633L111.873 205.814L113.578 196.005L102.259 194.037L103.702 185.737L95.7791 184.36Z" fill="white"/>
<path d="M83.7061 191.201L93.5156 192.906L91.8105 202.715L82.001 201.01L83.7061 191.201Z" fill="#F9CC14"/>
</svg>
