<svg width="336" height="411" viewBox="0 0 336 411" fill="none" xmlns="http://www.w3.org/2000/svg">
<rect y="-0.000488281" width="336" height="336" fill="#007AE0"/>
<path d="M193.518 335.534L131.224 335.654L162.751 371.358L199.281 335.523L193.518 335.534Z" fill="#007AE0"/>
<path d="M315.089 335.3L252.794 335.42L284.322 371.124L320.851 335.289L315.089 335.3Z" fill="#007AE0"/>
<path d="M244.528 335.147L208.357 335.217L226.663 355.948L247.874 335.141L244.528 335.147Z" fill="#007AE0"/>
<path d="M217.304 363.465L181.134 363.535L202.344 342.727L220.651 363.459L217.304 363.465Z" fill="#007AE0"/>
<path d="M224.732 373.258L169.471 373.364L197.439 405.038L229.844 373.248L224.732 373.258Z" fill="#007AE0"/>
<path d="M285.127 383.827L248.924 342.826L245.786 387.702L288.476 387.62L285.127 383.827Z" fill="#007AE0"/>
<path d="M65.277 138.79V140.391H60.4728V143.594H65.277V145.195H60.4728V150H57.27V138.79H65.277ZM66.8784 150V138.79H70.0812V150H66.8784ZM78.0883 148.598V150H73.2841V148.398H71.6826V140.391H73.2841V138.79H81.2911V141.992H79.6897V140.391H74.8855V148.398H77.8881L78.0883 148.198V145.195H76.4869V143.594H81.2911V150H79.6897V148.398H78.2885L78.0883 148.598ZM84.4939 145.195V150H82.8925V138.79H86.0953V141.992H90.8996V138.79H94.1024V150H90.8996V145.195H89.2982V148.398H86.0953V145.195H84.4939ZM102.109 145.195V140.391H98.9066V145.195H102.109ZM98.9066 146.797V150H95.7038V140.391H97.3052V138.79H103.711V140.391H105.312V150H102.109V146.797H98.9066Z" fill="white"/>
<path fill-rule="evenodd" clip-rule="evenodd" d="M62.8601 44.0916V45.1837H60.7329H58.6058V46.2758V47.3679H57.5422H56.4787V49.5521V51.7364H55.4151H54.3516V56.1048V60.4732H55.4151H56.4787V62.6574V64.8416H57.5422H58.6058V65.9337V67.0258H59.6694H60.7329V68.1179V69.21H63.9236H67.1143V70.3021V71.3942H63.9236H60.7329V72.4864V73.5785H59.6694H58.6058V74.6706V75.7627H57.5422H56.4787V77.9469V80.1311H55.4151H54.3516V84.4995V88.8679H55.4151H56.4787V91.0521V93.2364H57.5422H58.6058V94.3285V95.4206H59.6694H60.7329V96.5127V97.6048H62.8601H64.9872V98.6969V99.789H62.8601H60.7329V100.881V101.973H59.6694H58.6058V103.065V104.157H57.5422H56.4787V106.342V108.526H55.4151H54.3516V112.894V117.263H55.4151H56.4787V119.447V121.631H57.5422H58.6058V122.723V123.815H60.7329H62.8601V124.907V126H68.1779H73.4957V124.907V123.815H75.6228H77.7499V122.723V121.631H78.8135H79.877V119.447V117.263H80.9406H82.0042V104.157V91.0521H83.0677H84.1313V92.1442V93.2364H85.1948H86.2584V94.3285V95.4206H87.322H88.3855V96.5127V97.6048H95.8305H103.275V96.5127V95.4206H104.339H105.403V94.3285V93.2364H106.466H107.53V91.0521V88.8679H108.593H109.657V84.4995V80.1311H108.593H107.53V77.9469V75.7627H106.466H105.403V74.6706V73.5785H104.339H103.275V72.4864V71.3942H100.085H96.894V70.3021V69.21H100.085H103.275V68.1179V67.0258H104.339H105.403V65.9337V64.8416H106.466H107.53V62.6574V60.4732H108.593H109.657V56.1048V51.7364H108.593H107.53V49.5521V47.3679H106.466H105.403V46.2758V45.1837H103.275H101.148V44.0916V42.9995H82.0042H62.8601V44.0916ZM88.3855 72.4864V73.5785H87.322H86.2584V74.6706V75.7627H85.1948H84.1313V76.8548V77.9469H83.0677H82.0042V74.6706V71.3942H85.1948H88.3855V72.4864Z" fill="#F9CC14"/>
<path d="M191.237 140.391H188.034V143.594H191.237V140.391ZM192.838 143.594V145.195H188.034V150H184.831V138.79H192.838V140.391H194.439V143.594H192.838ZM202.446 138.79H205.649V150H202.446V145.195H199.244V150H196.041V138.79H199.244V143.594H202.446V138.79ZM213.656 140.391H210.454V148.398H213.656V140.391ZM208.852 148.398H207.251V140.391H208.852V138.79H215.258V140.391H216.859V148.398H215.258V150H208.852V148.398ZM228.069 138.79V140.391H224.866V150H221.663V140.391H218.461V138.79H228.069ZM236.076 140.391H232.873V148.398H236.076V140.391ZM231.272 148.398H229.67V140.391H231.272V138.79H237.678V140.391H239.279V148.398H237.678V150H231.272V148.398ZM247.286 140.391H244.083V143.594H248.887V145.195H250.489V148.398H248.887V150H242.482V148.398H240.88V146.797H244.083V148.398H247.286V145.195H242.482V143.594H240.88V140.391H242.482V138.79H248.887V140.391H250.489V141.992H247.286V140.391ZM258.496 138.79H261.699V150H258.496V145.195H255.293V150H252.09V138.79H255.293V143.594H258.496V138.79ZM269.706 140.391H266.503V148.398H269.706V140.391ZM264.901 148.398H263.3V140.391H264.901V138.79H271.307V140.391H272.909V148.398H271.307V150H264.901V148.398ZM280.916 140.391H277.713V143.594H280.916V140.391ZM282.517 143.594V145.195H277.713V150H274.51V138.79H282.517V140.391H284.118V143.594H282.517Z" fill="white"/>
<rect x="200.184" y="42.9995" width="72" height="72" fill="#F9CC14"/>
<path d="M229.137 70.9058H222.105V77.937H229.137V70.9058ZM232.652 77.937V81.4526H222.105V91.9995H215.074V67.3901H232.652V70.9058H236.168V77.937H232.652ZM253.746 70.9058H246.715V77.937H257.262V81.4526H260.777V88.4839H257.262V91.9995H243.199V88.4839H239.684V84.9683H246.715V88.4839H253.746V81.4526H243.199V77.937H239.684V70.9058H243.199V67.3901H257.262V70.9058H260.777V74.4214H253.746V70.9058Z" fill="#007AE0"/>
<path d="M25.2418 305.911V294.701H28.4446V305.911H25.2418ZM38.053 303.909V305.911H30.046V294.701H33.2488V303.909H38.053ZM47.6615 303.909V305.911H39.6544V294.701H42.8573V303.909H47.6615ZM55.6685 294.701H58.8714V305.911H50.8643V304.309H49.2629V294.701H52.4657V304.309H55.6685V294.701ZM66.8784 296.302H63.6756V299.505H68.4798V301.106H70.0812V304.309H68.4798V305.911H62.0742V304.309H60.4728V302.708H63.6756V304.309H66.8784V301.106H62.0742V299.505H60.4728V296.302H62.0742V294.701H68.4798V296.302H70.0812V297.904H66.8784V296.302ZM81.2911 294.701V296.302H78.0883V305.911H74.8855V296.302H71.6826V294.701H81.2911ZM89.2982 296.302H86.0953V299.505H89.2982V296.302ZM90.8996 301.106H92.501V305.911H89.2982V301.106H86.0953V305.911H82.8925V294.701H90.8996V296.302H92.501V299.505H90.8996V301.106ZM100.508 301.106V296.302H97.3052V301.106H100.508ZM97.3052 302.708V305.911H94.1024V296.302H95.7038V294.701H102.109V296.302H103.711V305.911H100.508V302.708H97.3052ZM114.921 294.701V296.302H111.718V305.911H108.515V296.302H105.312V294.701H114.921ZM122.928 296.302H119.725V304.309H122.928V296.302ZM118.124 304.309H116.522V296.302H118.124V294.701H124.529V296.302H126.131V304.309H124.529V305.911H118.124V304.309ZM134.138 296.302H130.935V299.505H134.138V296.302ZM135.739 301.106H137.34V305.911H134.138V301.106H130.935V305.911H127.732V294.701H135.739V296.302H137.34V299.505H135.739V301.106Z" fill="white"/>
<rect x="48.6309" y="198.911" width="68.6547" height="72" fill="#F9CC14"/>
<path d="M82.7789 237.364V226.817H75.7477V237.364H82.7789ZM75.7477 240.879V247.911H68.7164V226.817H72.2321V223.301H86.2946V226.817H89.8102V247.911H82.7789V240.879H75.7477ZM93.3258 247.911V223.301H100.357V247.911H93.3258Z" fill="#007AE0"/>
<path d="M204.646 291.106V286.302H201.443V291.106H204.646ZM201.443 292.708V295.911H198.24V286.302H199.842V284.701H206.247V286.302H207.849V295.911H204.646V292.708H201.443ZM215.856 286.302H212.653V289.505H217.457V291.106H219.058V294.309H217.457V295.911H211.051V294.309H209.45V292.708H212.653V294.309H215.856V291.106H211.051V289.505H209.45V286.302H211.051V284.701H217.457V286.302H219.058V287.904H215.856V286.302ZM220.66 295.911V284.701H228.667V286.302H223.863V289.505H228.667V291.106H223.863V294.309H228.667V295.911H220.66ZM236.674 286.302H233.471V289.505H236.674V286.302ZM238.275 289.505V291.106H233.471V295.911H230.268V284.701H238.275V286.302H239.877V289.505H238.275ZM247.884 286.302H244.681V289.505H247.884V286.302ZM249.485 291.106H251.087V295.911H247.884V291.106H244.681V295.911H241.478V284.701H249.485V286.302H251.087V289.505H249.485V291.106ZM252.688 295.911V284.701H255.891V295.911H252.688ZM267.101 284.701V286.302H263.898V295.911H260.695V286.302H257.492V284.701H267.101ZM268.702 295.911V284.701H276.709V286.302H271.905V289.505H276.709V291.106H271.905V294.309H276.709V295.911H268.702Z" fill="white"/>
<path fill-rule="evenodd" clip-rule="evenodd" d="M268.271 206.169C268.271 206.502 267.874 206.898 267.542 206.898C267.315 206.898 267.283 207.322 267.283 210.355V213.811H222.096H176.909L176.338 214.382L175.767 214.952V218.826V222.699H172.476H169.184V240.805V258.911H177.507C186.291 258.911 186.302 258.91 186.302 258.182C186.302 258.033 186.441 257.923 186.631 257.923C186.95 257.923 186.96 257.813 186.96 254.137V250.352H207.699H228.438V253.402V256.453L229.009 257.023L229.579 257.594H234.199H238.819L239.389 257.023L239.96 256.453V253.402V250.352H264.814H289.668V254.137C289.668 257.813 289.678 257.923 289.997 257.923C290.187 257.923 290.326 258.033 290.326 258.182C290.326 258.91 290.337 258.911 299.121 258.911H307.444V240.805V222.699H304.153H300.861V218.826V214.952L300.29 214.382L299.719 213.811H293.212H286.705V212.407C286.705 211.023 286.697 210.994 286.135 210.432L285.564 209.861H282.349H279.134V208.38C279.134 207.143 279.091 206.898 278.875 206.898C278.543 206.898 278.146 206.502 278.146 206.169C278.146 205.94 277.588 205.911 273.208 205.911C268.829 205.911 268.271 205.94 268.271 206.169ZM274.78 210.265C275.152 210.638 275.184 210.791 275.184 212.24V213.811H278.734C281.592 213.811 282.331 213.857 282.52 214.046C282.689 214.216 282.755 214.702 282.755 215.786C282.755 216.871 282.689 217.357 282.52 217.526C282.331 217.716 281.592 217.762 278.734 217.762H275.184V229.044V240.326L274.78 240.73C274.427 241.083 274.228 241.134 273.208 241.134C272.189 241.134 271.99 241.083 271.637 240.73L271.233 240.326V225.423C271.233 215.597 271.289 210.519 271.398 210.519C271.488 210.519 271.562 210.371 271.562 210.19C271.562 209.887 271.672 209.861 272.969 209.861C274.243 209.861 274.414 209.899 274.78 210.265ZM178.072 215.951C178.072 216.946 178.032 217.103 177.779 217.103C177.618 217.103 177.379 217.251 177.249 217.432C176.85 217.986 176.755 217.812 176.755 216.52C176.755 215.142 176.92 214.815 177.619 214.805C178.07 214.799 178.072 214.802 178.072 215.951ZM181.364 215.951V217.103H180.212H179.059V215.951V214.799H180.212H181.364V215.951ZM184.985 215.951V217.103H183.668H182.351V215.951V214.799H183.668H184.985V215.951ZM188.277 215.951V217.103H187.125H185.972V215.951V214.799H187.125H188.277V215.951ZM191.663 215.034C191.81 215.182 191.898 215.611 191.898 216.186V217.103H190.581H189.264V215.951V214.799H190.346C191.064 214.799 191.507 214.878 191.663 215.034ZM195.19 215.951V217.103H194.038H192.885V215.951V214.799H194.038H195.19V215.951ZM198.482 215.951V217.103H197.33H196.177V215.951V214.799H197.33H198.482V215.951ZM202.103 215.951V217.103H200.786H199.469V215.951V214.799H200.786H202.103V215.951ZM205.395 215.951V217.103H204.243H203.09V215.951V214.799H204.243H205.395V215.951ZM208.687 215.951V217.103H207.535H206.382V215.951V214.799H207.535H208.687V215.951ZM212.308 215.951V217.103H210.991H209.674V215.951V214.799H210.991H212.308V215.951ZM215.6 215.951V217.103H214.448H213.295V215.951V214.799H214.448H215.6V215.951ZM218.892 215.951V217.103H217.739H216.587V215.951V214.799H217.739H218.892V215.951ZM222.513 215.951V217.103H221.196H219.879V216.191C219.879 214.967 220.048 214.813 221.402 214.805L222.513 214.799V215.951ZM225.805 215.951V217.103H224.653H223.5V215.951V214.799H224.653H225.805V215.951ZM229.426 215.951V217.103H228.109H226.792V215.951V214.799H228.109H229.426V215.951ZM232.718 215.951V217.103H231.566H230.413V215.951V214.799H231.566H232.718V215.951ZM236.01 215.951V217.103H234.858H233.705V215.951V214.799H234.858H236.01V215.951ZM239.631 215.951V217.103H238.314H236.997V215.951V214.799H238.314H239.631V215.951ZM242.923 215.951V217.103H241.771H240.618V215.951V214.799H241.771H242.923V215.951ZM246.215 215.951V217.103H245.062H243.91V215.951V214.799H245.062H246.215V215.951ZM249.836 215.951V217.103H248.519H247.202V215.951V214.799H248.519H249.836V215.951ZM253.128 215.951V217.103H251.976H250.823V215.951V214.799H251.976H253.128V215.951ZM256.749 215.951V217.103H255.432H254.115V215.951V214.799H255.432H256.749V215.951ZM260.041 215.951V217.103H258.889H257.736V215.951V214.799H258.889H260.041V215.951ZM263.333 215.951V217.103H262.18H261.028V215.951V214.799H262.18H263.333V215.951ZM266.295 215.951V217.103H265.308H264.32V215.951V214.799H265.308H266.295V215.951ZM290.656 215.951V217.103H289.503H288.351V215.951V214.799H289.503H290.656V215.951ZM294.277 215.951V217.103H292.96H291.643V215.951V214.799H292.96H294.277V215.951ZM297.569 215.951V217.103H296.417H295.264V215.951V214.799H296.417H297.569V215.951ZM299.638 215.034C299.89 215.286 299.987 217.762 299.745 217.762C299.674 217.762 299.51 217.613 299.379 217.432C299.249 217.251 299.01 217.103 298.849 217.103C298.596 217.103 298.556 216.946 298.556 215.951C298.556 214.823 298.565 214.799 298.979 214.799C299.212 214.799 299.509 214.905 299.638 215.034ZM196.93 221.947C197.128 222.145 197.165 223.611 197.165 231.254V240.326L196.761 240.73L196.357 241.134H191.165C186.082 241.134 185.972 241.127 185.972 240.805C185.972 240.586 185.863 240.476 185.643 240.476C185.321 240.476 185.314 240.366 185.314 235.284V230.091L185.718 229.687C186.122 229.283 186.123 229.283 189.668 229.283H193.215V227.543C193.215 226.255 193.154 225.742 192.979 225.568C192.791 225.38 192.074 225.333 189.358 225.333C187.211 225.333 185.972 225.273 185.972 225.168C185.972 225.078 185.824 225.004 185.643 225.004C185.338 225.004 185.314 224.894 185.314 223.522C185.314 222.151 185.338 222.041 185.643 222.041C185.824 222.041 185.972 221.967 185.972 221.876C185.972 221.77 187.869 221.712 191.333 221.712C195.76 221.712 196.736 221.753 196.93 221.947ZM212.402 221.947C212.573 222.118 212.637 222.612 212.637 223.758V225.333H208.851H205.066V227.308V229.283H208.687C212.198 229.283 212.308 229.293 212.308 229.613C212.308 229.794 212.382 229.942 212.472 229.942C212.579 229.942 212.637 231.782 212.637 235.134V240.326L212.233 240.73L211.829 241.134H206.876H201.923L201.519 240.73C201.157 240.368 201.115 240.189 201.115 238.99C201.115 238.052 201.185 237.584 201.35 237.419C201.54 237.23 202.278 237.184 205.136 237.184H208.687V235.209V233.234H205.136C202.278 233.234 201.54 233.188 201.35 232.998C201.027 232.675 200.999 222.324 201.321 221.958C201.628 221.61 212.054 221.599 212.402 221.947ZM227.78 221.876C227.78 221.967 227.928 222.041 228.109 222.041C228.432 222.041 228.438 222.151 228.438 227.473C228.438 232.795 228.432 232.904 228.109 232.904C227.928 232.904 227.78 232.979 227.78 233.069C227.78 233.174 226.463 233.234 224.159 233.234H220.538V235.209V237.184H224.159C226.463 237.184 227.78 237.244 227.78 237.349C227.78 237.439 227.928 237.513 228.109 237.513C228.414 237.513 228.438 237.623 228.438 238.994C228.438 240.366 228.414 240.476 228.109 240.476C227.89 240.476 227.78 240.586 227.78 240.805C227.78 241.127 227.67 241.134 222.588 241.134H217.395L216.991 240.73L216.587 240.326V231.184C216.587 222.151 216.591 222.041 216.917 222.041C217.098 222.041 217.246 221.967 217.246 221.876C217.246 221.77 219.111 221.712 222.513 221.712C225.915 221.712 227.78 221.77 227.78 221.876ZM243.675 221.947C243.873 222.145 243.91 223.611 243.91 231.254V240.326L243.506 240.73C243.102 241.134 243.102 241.134 239.556 241.134H236.01V246.66C236.01 251.229 235.969 252.226 235.774 252.421C235.609 252.586 235.141 252.656 234.199 252.656C233.257 252.656 232.789 252.586 232.624 252.421C232.423 252.22 232.389 249.967 232.389 237.189C232.389 225.426 232.433 222.141 232.594 221.958C232.901 221.61 243.328 221.599 243.675 221.947ZM259.147 221.947C259.335 222.135 259.382 222.844 259.382 225.498C259.382 228.152 259.335 228.86 259.147 229.048C258.818 229.377 256.325 229.377 255.996 229.048C255.827 228.879 255.761 228.393 255.761 227.308C255.761 226.223 255.696 225.738 255.526 225.568C255.352 225.394 254.84 225.333 253.551 225.333H251.811V232.904C251.811 240.366 251.806 240.476 251.482 240.476C251.262 240.476 251.153 240.586 251.153 240.805C251.153 241.105 251.043 241.134 249.911 241.134C248.811 241.134 248.622 241.088 248.265 240.73L247.861 240.326V231.259C247.861 224.24 247.907 222.139 248.066 221.958C248.373 221.61 258.8 221.599 259.147 221.947ZM267.048 221.947C267.213 222.112 267.283 222.58 267.283 223.522C267.283 224.465 267.213 224.933 267.048 225.098C266.769 225.376 263.991 225.44 263.991 225.168C263.991 225.078 263.843 225.004 263.662 225.004C263.357 225.004 263.333 224.894 263.333 223.522C263.333 222.151 263.357 222.041 263.662 222.041C263.843 222.041 263.991 221.967 263.991 221.876C263.991 221.604 266.769 221.668 267.048 221.947ZM290.42 221.947C290.769 222.296 290.769 232.65 290.42 232.998C290.231 233.187 289.502 233.234 286.705 233.234C283.909 233.234 283.179 233.28 282.99 233.469C282.821 233.638 282.755 234.124 282.755 235.209C282.755 236.293 282.821 236.779 282.99 236.949C283.179 237.138 283.909 237.184 286.705 237.184C289.502 237.184 290.231 237.23 290.42 237.419C290.586 237.584 290.656 238.052 290.656 238.99C290.656 240.189 290.614 240.368 290.252 240.73L289.848 241.134H284.895H279.942L279.538 240.73L279.134 240.326V231.259C279.134 224.24 279.18 222.139 279.34 221.958C279.646 221.61 290.073 221.599 290.42 221.947ZM172.805 224.839V225.991H171.723C170.363 225.991 170.171 225.82 170.171 224.604V223.687H171.488H172.805V224.839ZM174.121 224.839C174.121 225.498 174.051 225.991 173.957 225.991C173.863 225.991 173.792 225.498 173.792 224.839C173.792 224.181 173.863 223.687 173.957 223.687C174.051 223.687 174.121 224.181 174.121 224.839ZM302.836 224.839C302.836 225.498 302.765 225.991 302.671 225.991C302.577 225.991 302.507 225.498 302.507 224.839C302.507 224.181 302.577 223.687 302.671 223.687C302.765 223.687 302.836 224.181 302.836 224.839ZM306.457 224.604C306.457 225.82 306.265 225.991 304.905 225.991H303.823V224.839V223.687H305.14H306.457V224.604ZM220.743 225.579C220.607 225.735 220.538 226.394 220.538 227.548V229.283H222.513H224.488V227.543C224.488 226.255 224.427 225.742 224.253 225.568C223.922 225.237 221.037 225.246 220.743 225.579ZM236.215 225.579C235.893 225.945 235.921 236.625 236.245 236.949C236.419 237.123 236.931 237.184 238.22 237.184H239.96V231.494C239.96 226.781 239.92 225.763 239.725 225.568C239.394 225.237 236.509 225.246 236.215 225.579ZM282.961 225.579C282.824 225.735 282.755 226.394 282.755 227.548V229.283H284.73H286.705V227.308V225.333L284.936 225.339C283.62 225.344 283.114 225.405 282.961 225.579ZM266.954 229.613C266.954 229.794 267.028 229.942 267.118 229.942C267.225 229.942 267.283 231.782 267.283 235.134V240.326L266.879 240.73C266.521 241.088 266.332 241.134 265.233 241.134C264.101 241.134 263.991 241.105 263.991 240.805C263.991 240.586 263.881 240.476 263.662 240.476C263.34 240.476 263.333 240.366 263.333 235.285C263.333 230.129 263.335 230.092 263.703 229.699C264.038 229.342 264.212 229.302 265.514 229.293C266.847 229.284 266.954 229.308 266.954 229.613ZM189.264 235.209V237.184H191.239H193.215V235.209V233.234H191.239H189.264V235.209ZM178.072 247.06V248.376H177.578C177.306 248.376 177.084 248.451 177.084 248.541C177.084 248.632 177.01 248.706 176.92 248.706C176.827 248.706 176.755 248.237 176.755 247.63C176.755 246.741 176.819 246.485 177.125 246.159C177.329 245.941 177.625 245.759 177.784 245.753C178.035 245.744 178.072 245.911 178.072 247.06ZM181.364 247.06V248.376H180.212H179.059V247.06V245.743H180.212H181.364V247.06ZM184.75 245.978C184.906 246.134 184.985 246.577 184.985 247.295V248.376H183.903C183.185 248.376 182.743 248.297 182.587 248.141C182.292 247.847 182.271 246.313 182.557 245.989C182.836 245.673 184.436 245.664 184.75 245.978ZM188.277 247.06V248.376H187.125H185.972V247.06V245.743H187.125H188.277V247.06ZM191.663 245.978C191.806 246.121 191.898 246.546 191.898 247.06C191.898 248.197 191.687 248.376 190.346 248.376H189.264V247.3C189.264 246.673 189.35 246.125 189.47 245.989C189.749 245.673 191.349 245.664 191.663 245.978ZM195.19 247.06V248.376H194.038H192.885V247.06V245.743H194.038H195.19V247.06ZM198.482 247.06V248.376H197.33H196.177V247.06V245.743H197.33H198.482V247.06ZM201.868 245.978C202.011 246.121 202.103 246.546 202.103 247.06C202.103 248.197 201.892 248.376 200.551 248.376H199.469V247.3C199.469 246.673 199.555 246.125 199.675 245.989C199.954 245.673 201.554 245.664 201.868 245.978ZM205.395 247.06V248.376H204.243H203.09V247.06V245.743H204.243H205.395V247.06ZM208.687 247.06V248.376H207.535H206.382V247.06V245.743H207.535H208.687V247.06ZM212.073 245.978C212.229 246.134 212.308 246.577 212.308 247.295V248.376H211.226C210.508 248.376 210.066 248.297 209.909 248.141C209.615 247.847 209.594 246.313 209.88 245.989C210.159 245.673 211.759 245.664 212.073 245.978ZM215.6 247.06V248.376H214.448H213.295V247.06V245.743H214.448H215.6V247.06ZM218.892 247.06V248.376H217.739H216.587V247.3C216.587 245.932 216.74 245.757 217.945 245.749L218.892 245.743V247.06ZM222.278 245.978C222.434 246.134 222.513 246.577 222.513 247.295V248.376H221.431C220.713 248.376 220.27 248.297 220.114 248.141C219.82 247.847 219.799 246.313 220.085 245.989C220.364 245.673 221.964 245.664 222.278 245.978ZM225.805 247.06V248.376H224.653H223.5V247.06V245.743H224.653H225.805V247.06ZM227.78 247.06V248.376H227.286H226.792V247.3C226.792 246.182 226.982 245.76 227.492 245.749C227.743 245.744 227.78 245.913 227.78 247.06ZM242.923 247.06V248.376H241.935H240.948V247.06V245.743H241.935H242.923V247.06ZM246.215 247.06V248.376H245.062H243.91V247.06V245.743H245.062H246.215V247.06ZM249.601 245.978C249.757 246.134 249.836 246.577 249.836 247.295V248.376H248.754C248.036 248.376 247.593 248.297 247.437 248.141C247.143 247.847 247.122 246.313 247.408 245.989C247.687 245.673 249.287 245.664 249.601 245.978ZM253.128 247.06V248.376H251.976H250.823V247.06V245.743H251.976H253.128V247.06ZM256.514 245.978C256.656 246.121 256.749 246.546 256.749 247.06C256.749 248.197 256.538 248.376 255.197 248.376H254.115V247.3C254.115 246.673 254.201 246.125 254.321 245.989C254.6 245.673 256.2 245.664 256.514 245.978ZM259.806 245.978C259.962 246.134 260.041 246.577 260.041 247.295V248.376H258.889H257.736V247.06V245.743H258.653C259.229 245.743 259.658 245.831 259.806 245.978ZM263.333 247.06V248.376H262.18H261.028V247.06V245.743H262.18H263.333V247.06ZM266.719 245.978C266.861 246.121 266.954 246.546 266.954 247.06C266.954 248.197 266.743 248.376 265.402 248.376H264.32V247.3C264.32 246.673 264.406 246.125 264.526 245.989C264.805 245.673 266.405 245.664 266.719 245.978ZM270.246 247.06V248.376H269.094H267.941V247.06V245.743H269.094H270.246V247.06ZM273.538 247.06V248.376H272.385H271.233V247.06V245.743H272.385H273.538V247.06ZM276.924 245.978C277.08 246.134 277.159 246.577 277.159 247.295V248.376H276.077C275.359 248.376 274.916 248.297 274.76 248.141C274.466 247.847 274.445 246.313 274.731 245.989C275.01 245.673 276.61 245.664 276.924 245.978ZM280.451 247.06V248.376H279.299H278.146V247.06V245.743H279.299H280.451V247.06ZM283.743 247.06V248.376H282.59H281.438V247.06V245.743H282.59H283.743V247.06ZM287.129 245.978C287.285 246.134 287.364 246.577 287.364 247.295V248.376H286.282C285.564 248.376 285.121 248.297 284.965 248.141C284.671 247.847 284.65 246.313 284.936 245.989C285.215 245.673 286.815 245.664 287.129 245.978ZM290.656 247.06V248.376H289.503H288.351V247.06V245.743H289.503H290.656V247.06ZM294.042 245.978C294.184 246.121 294.277 246.546 294.277 247.06C294.277 248.197 294.066 248.376 292.725 248.376H291.643V247.3C291.643 246.673 291.729 246.125 291.849 245.989C292.128 245.673 293.728 245.664 294.042 245.978ZM297.569 247.06V248.376H296.417H295.264V247.06V245.743H296.417H297.569V247.06ZM299.469 246.147C299.816 246.494 299.873 246.704 299.873 247.628C299.873 248.237 299.801 248.706 299.708 248.706C299.618 248.706 299.544 248.632 299.544 248.541C299.544 248.451 299.322 248.376 299.05 248.376H298.556V247.06C298.556 245.584 298.731 245.409 299.469 246.147ZM172.805 255.783V256.935H171.488H170.171V255.783V254.631H171.488H172.805V255.783ZM174.121 255.783C174.121 256.442 174.051 256.935 173.957 256.935C173.863 256.935 173.792 256.442 173.792 255.783C173.792 255.125 173.863 254.631 173.957 254.631C174.051 254.631 174.121 255.125 174.121 255.783ZM302.836 255.783C302.836 256.442 302.765 256.935 302.671 256.935C302.577 256.935 302.507 256.442 302.507 255.783C302.507 255.125 302.577 254.631 302.671 254.631C302.765 254.631 302.836 255.125 302.836 255.783ZM306.457 255.783V256.935H305.14H303.823V255.783V254.631H305.14H306.457V255.783Z" fill="#F9CC14"/>
</svg>
