<svg width="531" height="626" viewBox="0 0 531 626" fill="none" xmlns="http://www.w3.org/2000/svg">
<path d="M50.0275 95.4H56.2215L50.9015 122H44.7075L50.0275 95.4ZM78.3499 122.304C76.2473 122.304 74.4106 121.924 72.8399 121.164C71.2693 120.404 70.0533 119.34 69.1919 117.972C68.3559 116.579 67.9379 114.97 67.9379 113.146C67.9379 110.891 68.4699 108.865 69.5339 107.066C70.5979 105.267 72.0799 103.849 73.9799 102.81C75.8799 101.771 78.0206 101.252 80.4019 101.252C82.5806 101.252 84.4553 101.708 86.0259 102.62C87.6219 103.507 88.8126 104.773 89.5979 106.42L84.5819 108.928C83.6953 107.079 82.1753 106.154 80.0219 106.154C78.8566 106.154 77.8053 106.445 76.8679 107.028C75.9559 107.585 75.2339 108.371 74.7019 109.384C74.1953 110.397 73.9419 111.55 73.9419 112.842C73.9419 114.235 74.3599 115.35 75.1959 116.186C76.0319 116.997 77.1973 117.402 78.6919 117.402C80.8706 117.402 82.5426 116.49 83.7079 114.666L88.0779 117.402C87.0899 118.947 85.7346 120.151 84.0119 121.012C82.3146 121.873 80.4273 122.304 78.3499 122.304ZM114.563 101.556L110.497 122H104.873L105.253 119.986C103.556 121.531 101.466 122.304 98.9833 122.304C97.3873 122.304 95.918 121.937 94.5753 121.202C93.2327 120.467 92.156 119.416 91.3453 118.048C90.56 116.655 90.1673 115.021 90.1673 113.146C90.1673 110.891 90.6613 108.865 91.6493 107.066C92.6627 105.242 94.0307 103.823 95.7533 102.81C97.476 101.771 99.376 101.252 101.453 101.252C104.595 101.252 106.811 102.278 108.103 104.33L108.635 101.556H114.563ZM100.807 117.402C101.973 117.402 103.011 117.123 103.923 116.566C104.835 115.983 105.545 115.185 106.051 114.172C106.558 113.159 106.811 111.993 106.811 110.676C106.811 109.283 106.393 108.181 105.557 107.37C104.747 106.559 103.607 106.154 102.137 106.154C100.972 106.154 99.9333 106.445 99.0213 107.028C98.1093 107.585 97.4 108.371 96.8933 109.384C96.3867 110.397 96.1333 111.563 96.1333 112.88C96.1333 114.273 96.5387 115.375 97.3493 116.186C98.1853 116.997 99.338 117.402 100.807 117.402ZM131.946 101.252C134.226 101.252 136.037 101.86 137.38 103.076C138.722 104.267 139.394 105.977 139.394 108.206C139.394 109.042 139.305 109.865 139.128 110.676L136.848 122H130.92L133.124 111.056C133.225 110.625 133.276 110.157 133.276 109.65C133.276 108.586 132.984 107.775 132.402 107.218C131.819 106.661 130.945 106.382 129.78 106.382C128.26 106.382 126.993 106.825 125.98 107.712C124.992 108.573 124.32 109.878 123.966 111.626L121.914 122H115.986L120.052 101.556H125.676L125.22 103.76C127.044 102.088 129.286 101.252 131.946 101.252ZM179.431 93.804L173.807 122H168.183L168.601 119.948C166.878 121.519 164.788 122.304 162.331 122.304C160.735 122.304 159.265 121.937 157.923 121.202C156.58 120.467 155.503 119.416 154.693 118.048C153.907 116.655 153.515 115.021 153.515 113.146C153.515 110.891 154.009 108.865 154.997 107.066C156.01 105.242 157.378 103.823 159.101 102.81C160.823 101.771 162.723 101.252 164.801 101.252C166.295 101.252 167.6 101.505 168.715 102.012C169.855 102.519 170.754 103.266 171.413 104.254L173.503 93.804H179.431ZM164.155 117.402C165.32 117.402 166.359 117.123 167.271 116.566C168.183 115.983 168.892 115.185 169.399 114.172C169.905 113.159 170.159 111.993 170.159 110.676C170.159 109.283 169.741 108.181 168.905 107.37C168.094 106.559 166.954 106.154 165.485 106.154C164.319 106.154 163.281 106.445 162.369 107.028C161.457 107.585 160.747 108.371 160.241 109.384C159.734 110.397 159.481 111.563 159.481 112.88C159.481 114.273 159.886 115.375 160.697 116.186C161.533 116.997 162.685 117.402 164.155 117.402ZM201.523 110.258C201.523 111.195 201.409 112.234 201.181 113.374H185.525C185.728 116.161 187.489 117.554 190.807 117.554C191.846 117.554 192.834 117.389 193.771 117.06C194.734 116.731 195.57 116.262 196.279 115.654L198.749 119.568C197.609 120.48 196.305 121.164 194.835 121.62C193.366 122.076 191.821 122.304 190.199 122.304C188.097 122.304 186.247 121.937 184.651 121.202C183.081 120.442 181.865 119.365 181.003 117.972C180.167 116.579 179.749 114.97 179.749 113.146C179.749 110.891 180.256 108.865 181.269 107.066C182.308 105.242 183.739 103.823 185.563 102.81C187.387 101.771 189.465 101.252 191.795 101.252C193.771 101.252 195.481 101.619 196.925 102.354C198.395 103.089 199.522 104.14 200.307 105.508C201.118 106.876 201.523 108.459 201.523 110.258ZM191.529 105.698C190.136 105.698 188.958 106.078 187.995 106.838C187.033 107.573 186.349 108.599 185.943 109.916H196.089C196.089 108.599 195.671 107.573 194.835 106.838C194.025 106.078 192.923 105.698 191.529 105.698ZM210.641 122.304C208.867 122.304 207.183 122.114 205.587 121.734C204.016 121.329 202.787 120.809 201.901 120.176L204.181 115.882C205.067 116.465 206.144 116.933 207.411 117.288C208.703 117.643 209.995 117.82 211.287 117.82C212.629 117.82 213.63 117.655 214.289 117.326C214.947 116.971 215.277 116.477 215.277 115.844C215.277 115.337 214.985 114.97 214.403 114.742C213.82 114.514 212.883 114.273 211.591 114.02C210.121 113.741 208.905 113.437 207.943 113.108C207.005 112.779 206.182 112.247 205.473 111.512C204.789 110.752 204.447 109.726 204.447 108.434C204.447 106.179 205.384 104.419 207.259 103.152C209.159 101.885 211.641 101.252 214.707 101.252C216.125 101.252 217.506 101.404 218.849 101.708C220.191 102.012 221.331 102.43 222.269 102.962L220.141 107.294C218.469 106.255 216.455 105.736 214.099 105.736C212.807 105.736 211.819 105.926 211.135 106.306C210.476 106.686 210.147 107.167 210.147 107.75C210.147 108.282 210.438 108.675 211.021 108.928C211.603 109.156 212.579 109.409 213.947 109.688C215.391 109.967 216.569 110.271 217.481 110.6C218.418 110.904 219.229 111.423 219.913 112.158C220.597 112.893 220.939 113.893 220.939 115.16C220.939 117.44 219.976 119.201 218.051 120.442C216.151 121.683 213.681 122.304 210.641 122.304ZM227.446 101.556H233.336L229.27 122H223.38L227.446 101.556ZM231.398 98.706C230.385 98.706 229.549 98.4147 228.89 97.832C228.257 97.224 227.94 96.4893 227.94 95.628C227.94 94.6147 228.295 93.7787 229.004 93.12C229.739 92.436 230.689 92.094 231.854 92.094C232.893 92.094 233.729 92.3853 234.362 92.968C235.021 93.5253 235.35 94.222 235.35 95.058C235.35 96.1473 234.983 97.034 234.248 97.718C233.514 98.3767 232.564 98.706 231.398 98.706ZM259.929 101.556L256.547 118.58C255.787 122.431 254.317 125.243 252.139 127.016C249.985 128.789 247.097 129.676 243.475 129.676C241.499 129.676 239.675 129.448 238.003 128.992C236.356 128.536 234.937 127.865 233.747 126.978L236.559 122.684C237.369 123.368 238.408 123.9 239.675 124.28C240.967 124.685 242.322 124.888 243.741 124.888C245.742 124.888 247.262 124.445 248.301 123.558C249.339 122.697 250.049 121.379 250.429 119.606L250.581 118.732C248.934 120.252 246.857 121.012 244.349 121.012C242.651 121.012 241.119 120.67 239.751 119.986C238.383 119.277 237.293 118.276 236.483 116.984C235.697 115.692 235.305 114.172 235.305 112.424C235.305 110.347 235.799 108.459 236.787 106.762C237.775 105.065 239.13 103.722 240.853 102.734C242.601 101.746 244.551 101.252 246.705 101.252C248.301 101.252 249.694 101.556 250.885 102.164C252.101 102.747 253.013 103.659 253.621 104.9L254.267 101.556H259.929ZM245.945 116.148C247.667 116.148 249.086 115.591 250.201 114.476C251.315 113.361 251.873 111.93 251.873 110.182C251.873 108.941 251.467 107.965 250.657 107.256C249.846 106.521 248.719 106.154 247.275 106.154C245.527 106.154 244.083 106.711 242.943 107.826C241.828 108.941 241.271 110.372 241.271 112.12C241.271 113.361 241.689 114.349 242.525 115.084C243.361 115.793 244.501 116.148 245.945 116.148ZM277.34 101.252C279.62 101.252 281.432 101.86 282.774 103.076C284.117 104.267 284.788 105.977 284.788 108.206C284.788 109.042 284.7 109.865 284.522 110.676L282.242 122H276.314L278.518 111.056C278.62 110.625 278.67 110.157 278.67 109.65C278.67 108.586 278.379 107.775 277.796 107.218C277.214 106.661 276.34 106.382 275.174 106.382C273.654 106.382 272.388 106.825 271.374 107.712C270.386 108.573 269.715 109.878 269.36 111.626L267.308 122H261.38L265.446 101.556H271.07L270.614 103.76C272.438 102.088 274.68 101.252 277.34 101.252ZM323.229 101.556L319.163 122H313.539L313.919 119.986C312.222 121.531 310.132 122.304 307.649 122.304C306.053 122.304 304.584 121.937 303.241 121.202C301.899 120.467 300.822 119.416 300.011 118.048C299.226 116.655 298.833 115.021 298.833 113.146C298.833 110.891 299.327 108.865 300.315 107.066C301.329 105.242 302.697 103.823 304.419 102.81C306.142 101.771 308.042 101.252 310.119 101.252C313.261 101.252 315.477 102.278 316.769 104.33L317.301 101.556H323.229ZM309.473 117.402C310.639 117.402 311.677 117.123 312.589 116.566C313.501 115.983 314.211 115.185 314.717 114.172C315.224 113.159 315.477 111.993 315.477 110.676C315.477 109.283 315.059 108.181 314.223 107.37C313.413 106.559 312.273 106.154 310.803 106.154C309.638 106.154 308.599 106.445 307.687 107.028C306.775 107.585 306.066 108.371 305.559 109.384C305.053 110.397 304.799 111.563 304.799 112.88C304.799 114.273 305.205 115.375 306.015 116.186C306.851 116.997 308.004 117.402 309.473 117.402ZM340.194 101.252C341.79 101.252 343.259 101.619 344.602 102.354C345.97 103.089 347.046 104.153 347.832 105.546C348.642 106.914 349.048 108.535 349.048 110.41C349.048 112.665 348.541 114.704 347.528 116.528C346.54 118.327 345.184 119.745 343.462 120.784C341.739 121.797 339.826 122.304 337.724 122.304C334.608 122.304 332.404 121.291 331.112 119.264L329.098 129.372H323.17L328.718 101.556H334.342L333.924 103.57C335.621 102.025 337.711 101.252 340.194 101.252ZM337.04 117.402C338.205 117.402 339.244 117.123 340.156 116.566C341.068 115.983 341.777 115.185 342.284 114.172C342.79 113.159 343.044 111.993 343.044 110.676C343.044 109.283 342.626 108.181 341.79 107.37C340.979 106.559 339.839 106.154 338.37 106.154C337.23 106.154 336.204 106.445 335.292 107.028C334.38 107.585 333.67 108.371 333.164 109.384C332.657 110.397 332.404 111.563 332.404 112.88C332.404 114.273 332.809 115.375 333.62 116.186C334.43 116.997 335.57 117.402 337.04 117.402ZM366.43 101.252C368.026 101.252 369.495 101.619 370.838 102.354C372.206 103.089 373.283 104.153 374.068 105.546C374.879 106.914 375.284 108.535 375.284 110.41C375.284 112.665 374.777 114.704 373.764 116.528C372.776 118.327 371.421 119.745 369.698 120.784C367.975 121.797 366.063 122.304 363.96 122.304C360.844 122.304 358.64 121.291 357.348 119.264L355.334 129.372H349.406L354.954 101.556H360.578L360.16 103.57C361.857 102.025 363.947 101.252 366.43 101.252ZM363.276 117.402C364.441 117.402 365.48 117.123 366.392 116.566C367.304 115.983 368.013 115.185 368.52 114.172C369.027 113.159 369.28 111.993 369.28 110.676C369.28 109.283 368.862 108.181 368.026 107.37C367.215 106.559 366.075 106.154 364.606 106.154C363.466 106.154 362.44 106.445 361.528 107.028C360.616 107.585 359.907 108.371 359.4 109.384C358.893 110.397 358.64 111.563 358.64 112.88C358.64 114.273 359.045 115.375 359.856 116.186C360.667 116.997 361.807 117.402 363.276 117.402ZM384.572 122.304C382.799 122.304 381.114 122.114 379.518 121.734C377.948 121.329 376.719 120.809 375.832 120.176L378.112 115.882C378.999 116.465 380.076 116.933 381.342 117.288C382.634 117.643 383.926 117.82 385.218 117.82C386.561 117.82 387.562 117.655 388.22 117.326C388.879 116.971 389.208 116.477 389.208 115.844C389.208 115.337 388.917 114.97 388.334 114.742C387.752 114.514 386.814 114.273 385.522 114.02C384.053 113.741 382.837 113.437 381.874 113.108C380.937 112.779 380.114 112.247 379.404 111.512C378.72 110.752 378.378 109.726 378.378 108.434C378.378 106.179 379.316 104.419 381.19 103.152C383.09 101.885 385.573 101.252 388.638 101.252C390.057 101.252 391.438 101.404 392.78 101.708C394.123 102.012 395.263 102.43 396.2 102.962L394.072 107.294C392.4 106.255 390.386 105.736 388.03 105.736C386.738 105.736 385.75 105.926 385.066 106.306C384.408 106.686 384.078 107.167 384.078 107.75C384.078 108.282 384.37 108.675 384.952 108.928C385.535 109.156 386.51 109.409 387.878 109.688C389.322 109.967 390.5 110.271 391.412 110.6C392.35 110.904 393.16 111.423 393.844 112.158C394.528 112.893 394.87 113.893 394.87 115.16C394.87 117.44 393.908 119.201 391.982 120.442C390.082 121.683 387.612 122.304 384.572 122.304ZM432.888 101.556L428.822 122H423.198L423.578 119.986C421.88 121.531 419.79 122.304 417.308 122.304C415.712 122.304 414.242 121.937 412.9 121.202C411.557 120.467 410.48 119.416 409.67 118.048C408.884 116.655 408.492 115.021 408.492 113.146C408.492 110.891 408.986 108.865 409.974 107.066C410.987 105.242 412.355 103.823 414.078 102.81C415.8 101.771 417.7 101.252 419.778 101.252C422.919 101.252 425.136 102.278 426.428 104.33L426.96 101.556H432.888ZM419.132 117.402C420.297 117.402 421.336 117.123 422.248 116.566C423.16 115.983 423.869 115.185 424.376 114.172C424.882 113.159 425.136 111.993 425.136 110.676C425.136 109.283 424.718 108.181 423.882 107.37C423.071 106.559 421.931 106.154 420.462 106.154C419.296 106.154 418.258 106.445 417.346 107.028C416.434 107.585 415.724 108.371 415.218 109.384C414.711 110.397 414.458 111.563 414.458 112.88C414.458 114.273 414.863 115.375 415.674 116.186C416.51 116.997 417.662 117.402 419.132 117.402ZM450.27 101.252C452.55 101.252 454.361 101.86 455.704 103.076C457.047 104.267 457.718 105.977 457.718 108.206C457.718 109.042 457.629 109.865 457.452 110.676L455.172 122H449.244L451.448 111.056C451.549 110.625 451.6 110.157 451.6 109.65C451.6 108.586 451.309 107.775 450.726 107.218C450.143 106.661 449.269 106.382 448.104 106.382C446.584 106.382 445.317 106.825 444.304 107.712C443.316 108.573 442.645 109.878 442.29 111.626L440.238 122H434.31L438.376 101.556H444L443.544 103.76C445.368 102.088 447.61 101.252 450.27 101.252ZM487.216 93.804L481.592 122H475.968L476.386 119.948C474.663 121.519 472.573 122.304 470.116 122.304C468.52 122.304 467.051 121.937 465.708 121.202C464.365 120.467 463.289 119.416 462.478 118.048C461.693 116.655 461.3 115.021 461.3 113.146C461.3 110.891 461.794 108.865 462.782 107.066C463.795 105.242 465.163 103.823 466.886 102.81C468.609 101.771 470.509 101.252 472.586 101.252C474.081 101.252 475.385 101.505 476.5 102.012C477.64 102.519 478.539 103.266 479.198 104.254L481.288 93.804H487.216ZM471.94 117.402C473.105 117.402 474.144 117.123 475.056 116.566C475.968 115.983 476.677 115.185 477.184 114.172C477.691 113.159 477.944 111.993 477.944 110.676C477.944 109.283 477.526 108.181 476.69 107.37C475.879 106.559 474.739 106.154 473.27 106.154C472.105 106.154 471.066 106.445 470.154 107.028C469.242 107.585 468.533 108.371 468.026 109.384C467.519 110.397 467.266 111.563 467.266 112.88C467.266 114.273 467.671 115.375 468.482 116.186C469.318 116.997 470.471 117.402 471.94 117.402ZM66.2435 147.252C68.5235 147.252 70.3349 147.86 71.6775 149.076C73.0202 150.292 73.6915 152.015 73.6915 154.244C73.6915 155.055 73.6029 155.865 73.4255 156.676L71.1455 168H65.2175L67.4215 157.056C67.5229 156.625 67.5735 156.157 67.5735 155.65C67.5735 154.586 67.2822 153.775 66.6995 153.218C66.1169 152.661 65.2429 152.382 64.0775 152.382C62.5575 152.382 61.2909 152.825 60.2775 153.712C59.2895 154.573 58.6182 155.878 58.2635 157.626L56.2115 168H50.2835L55.9075 139.804H61.8355L59.9355 149.418C61.6835 147.974 63.7862 147.252 66.2435 147.252ZM87.4576 168.304C85.4056 168.304 83.5943 167.924 82.0236 167.164C80.4783 166.404 79.275 165.34 78.4136 163.972C77.5776 162.579 77.1596 160.97 77.1596 159.146C77.1596 156.891 77.6916 154.865 78.7556 153.066C79.8196 151.267 81.289 149.849 83.1636 148.81C85.0383 147.771 87.1536 147.252 89.5096 147.252C91.587 147.252 93.3983 147.632 94.9436 148.392C96.489 149.152 97.6796 150.229 98.5156 151.622C99.377 152.99 99.8076 154.586 99.8076 156.41C99.8076 158.665 99.2756 160.691 98.2116 162.49C97.173 164.289 95.7036 165.707 93.8036 166.746C91.929 167.785 89.8136 168.304 87.4576 168.304ZM87.8376 163.402C88.9776 163.402 90.0036 163.123 90.9156 162.566C91.8276 161.983 92.537 161.185 93.0436 160.172C93.5503 159.159 93.8036 157.993 93.8036 156.676C93.8036 155.283 93.3983 154.181 92.5876 153.37C91.777 152.559 90.637 152.154 89.1676 152.154C88.0023 152.154 86.9636 152.445 86.0516 153.028C85.1396 153.585 84.4303 154.371 83.9236 155.384C83.417 156.397 83.1636 157.563 83.1636 158.88C83.1636 160.273 83.569 161.375 84.3796 162.186C85.2156 162.997 86.3683 163.402 87.8376 163.402ZM138.25 147.556L126.964 168H121.112L118.756 155.27L111.726 168H105.95L102.34 147.556H107.736L109.978 161.312L117.654 147.556H122.746L125.064 161.312L132.664 147.556H138.25ZM155.677 160.78C155.627 160.983 155.601 161.261 155.601 161.616C155.601 162.933 156.323 163.592 157.767 163.592C158.553 163.592 159.351 163.351 160.161 162.87L161.035 167.088C159.718 167.899 158.021 168.304 155.943 168.304C154.018 168.304 152.473 167.797 151.307 166.784C150.142 165.771 149.559 164.377 149.559 162.604C149.559 162.097 149.623 161.502 149.749 160.818L151.383 152.572H148.229L149.141 148.012H152.295L153.283 143.034H159.211L158.223 148.012H163.315L162.403 152.572H157.311L155.677 160.78ZM180.095 147.252C182.375 147.252 184.186 147.86 185.529 149.076C186.872 150.292 187.543 152.015 187.543 154.244C187.543 155.055 187.454 155.865 187.277 156.676L184.997 168H179.069L181.273 157.056C181.374 156.625 181.425 156.157 181.425 155.65C181.425 154.586 181.134 153.775 180.551 153.218C179.968 152.661 179.094 152.382 177.929 152.382C176.409 152.382 175.142 152.825 174.129 153.712C173.141 154.573 172.47 155.878 172.115 157.626L170.063 168H164.135L169.759 139.804H175.687L173.787 149.418C175.535 147.974 177.638 147.252 180.095 147.252ZM212.823 156.258C212.823 157.195 212.709 158.234 212.481 159.374H196.825C197.028 162.161 198.789 163.554 202.107 163.554C203.146 163.554 204.134 163.389 205.071 163.06C206.034 162.731 206.87 162.262 207.579 161.654L210.049 165.568C208.909 166.48 207.605 167.164 206.135 167.62C204.666 168.076 203.121 168.304 201.499 168.304C199.397 168.304 197.547 167.937 195.951 167.202C194.381 166.442 193.165 165.365 192.303 163.972C191.467 162.579 191.049 160.97 191.049 159.146C191.049 156.891 191.556 154.865 192.569 153.066C193.608 151.242 195.039 149.823 196.863 148.81C198.687 147.771 200.765 147.252 203.095 147.252C205.071 147.252 206.781 147.619 208.225 148.354C209.695 149.089 210.822 150.14 211.607 151.508C212.418 152.876 212.823 154.459 212.823 156.258ZM202.829 151.698C201.436 151.698 200.258 152.078 199.295 152.838C198.333 153.573 197.649 154.599 197.243 155.916H207.389C207.389 154.599 206.971 153.573 206.135 152.838C205.325 152.078 204.223 151.698 202.829 151.698ZM250.068 147.556L246.002 168H240.378L240.758 165.986C239.061 167.531 236.971 168.304 234.488 168.304C232.892 168.304 231.423 167.937 230.08 167.202C228.738 166.467 227.661 165.416 226.85 164.048C226.065 162.655 225.672 161.021 225.672 159.146C225.672 156.891 226.166 154.865 227.154 153.066C228.168 151.242 229.536 149.823 231.258 148.81C232.981 147.771 234.881 147.252 236.958 147.252C240.1 147.252 242.316 148.278 243.608 150.33L244.14 147.556H250.068ZM236.312 163.402C237.478 163.402 238.516 163.123 239.428 162.566C240.34 161.983 241.05 161.185 241.556 160.172C242.063 159.159 242.316 157.993 242.316 156.676C242.316 155.283 241.898 154.181 241.062 153.37C240.252 152.559 239.112 152.154 237.642 152.154C236.477 152.154 235.438 152.445 234.526 153.028C233.614 153.585 232.905 154.371 232.398 155.384C231.892 156.397 231.638 157.563 231.638 158.88C231.638 160.273 232.044 161.375 232.854 162.186C233.69 162.997 234.843 163.402 236.312 163.402ZM267.033 147.252C268.629 147.252 270.098 147.619 271.441 148.354C272.809 149.089 273.885 150.153 274.671 151.546C275.481 152.914 275.887 154.535 275.887 156.41C275.887 158.665 275.38 160.704 274.367 162.528C273.379 164.327 272.023 165.745 270.301 166.784C268.578 167.797 266.665 168.304 264.563 168.304C261.447 168.304 259.243 167.291 257.951 165.264L255.937 175.372H250.009L255.557 147.556H261.181L260.763 149.57C262.46 148.025 264.55 147.252 267.033 147.252ZM263.879 163.402C265.044 163.402 266.083 163.123 266.995 162.566C267.907 161.983 268.616 161.185 269.123 160.172C269.629 159.159 269.883 157.993 269.883 156.676C269.883 155.283 269.465 154.181 268.629 153.37C267.818 152.559 266.678 152.154 265.209 152.154C264.069 152.154 263.043 152.445 262.131 153.028C261.219 153.585 260.509 154.371 260.003 155.384C259.496 156.397 259.243 157.563 259.243 158.88C259.243 160.273 259.648 161.375 260.459 162.186C261.269 162.997 262.409 163.402 263.879 163.402ZM293.269 147.252C294.865 147.252 296.334 147.619 297.677 148.354C299.045 149.089 300.122 150.153 300.907 151.546C301.718 152.914 302.123 154.535 302.123 156.41C302.123 158.665 301.616 160.704 300.603 162.528C299.615 164.327 298.26 165.745 296.537 166.784C294.814 167.797 292.902 168.304 290.799 168.304C287.683 168.304 285.479 167.291 284.187 165.264L282.173 175.372H276.245L281.793 147.556H287.417L286.999 149.57C288.696 148.025 290.786 147.252 293.269 147.252ZM290.115 163.402C291.28 163.402 292.319 163.123 293.231 162.566C294.143 161.983 294.852 161.185 295.359 160.172C295.866 159.159 296.119 157.993 296.119 156.676C296.119 155.283 295.701 154.181 294.865 153.37C294.054 152.559 292.914 152.154 291.445 152.154C290.305 152.154 289.279 152.445 288.367 153.028C287.455 153.585 286.746 154.371 286.239 155.384C285.732 156.397 285.479 157.563 285.479 158.88C285.479 160.273 285.884 161.375 286.695 162.186C287.506 162.997 288.646 163.402 290.115 163.402ZM351.889 147.556L340.603 168H334.751L332.395 155.27L325.365 168H319.589L315.979 147.556H321.375L323.617 161.312L331.293 147.556H336.385L338.703 161.312L346.303 147.556H351.889ZM354.564 147.556H360.454L356.388 168H350.498L354.564 147.556ZM358.516 144.706C357.503 144.706 356.667 144.415 356.008 143.832C355.375 143.224 355.058 142.489 355.058 141.628C355.058 140.615 355.413 139.779 356.122 139.12C356.857 138.436 357.807 138.094 358.972 138.094C360.011 138.094 360.847 138.385 361.48 138.968C362.139 139.525 362.468 140.222 362.468 141.058C362.468 142.147 362.101 143.034 361.366 143.718C360.632 144.377 359.682 144.706 358.516 144.706ZM367.515 139.804H373.443L367.819 168H361.891L367.515 139.804ZM378.945 139.804H384.873L379.249 168H373.321L378.945 139.804ZM401.136 139.804H407.064L401.44 168H395.512L401.136 139.804ZM417.62 168.304C415.568 168.304 413.756 167.924 412.186 167.164C410.64 166.404 409.437 165.34 408.576 163.972C407.74 162.579 407.322 160.97 407.322 159.146C407.322 156.891 407.854 154.865 408.918 153.066C409.982 151.267 411.451 149.849 413.326 148.81C415.2 147.771 417.316 147.252 419.672 147.252C421.749 147.252 423.56 147.632 425.106 148.392C426.651 149.152 427.842 150.229 428.678 151.622C429.539 152.99 429.97 154.586 429.97 156.41C429.97 158.665 429.438 160.691 428.374 162.49C427.335 164.289 425.866 165.707 423.966 166.746C422.091 167.785 419.976 168.304 417.62 168.304ZM418 163.402C419.14 163.402 420.166 163.123 421.078 162.566C421.99 161.983 422.699 161.185 423.206 160.172C423.712 159.159 423.966 157.993 423.966 156.676C423.966 155.283 423.56 154.181 422.75 153.37C421.939 152.559 420.799 152.154 419.33 152.154C418.164 152.154 417.126 152.445 416.214 153.028C415.302 153.585 414.592 154.371 414.086 155.384C413.579 156.397 413.326 157.563 413.326 158.88C413.326 160.273 413.731 161.375 414.542 162.186C415.378 162.997 416.53 163.402 418 163.402ZM442.483 168.304C440.431 168.304 438.62 167.924 437.049 167.164C435.504 166.404 434.3 165.34 433.439 163.972C432.603 162.579 432.185 160.97 432.185 159.146C432.185 156.891 432.717 154.865 433.781 153.066C434.845 151.267 436.314 149.849 438.189 148.81C440.064 147.771 442.179 147.252 444.535 147.252C446.612 147.252 448.424 147.632 449.969 148.392C451.514 149.152 452.705 150.229 453.541 151.622C454.402 152.99 454.833 154.586 454.833 156.41C454.833 158.665 454.301 160.691 453.237 162.49C452.198 164.289 450.729 165.707 448.829 166.746C446.954 167.785 444.839 168.304 442.483 168.304ZM442.863 163.402C444.003 163.402 445.029 163.123 445.941 162.566C446.853 161.983 447.562 161.185 448.069 160.172C448.576 159.159 448.829 157.993 448.829 156.676C448.829 155.283 448.424 154.181 447.613 153.37C446.802 152.559 445.662 152.154 444.193 152.154C443.028 152.154 441.989 152.445 441.077 153.028C440.165 153.585 439.456 154.371 438.949 155.384C438.442 156.397 438.189 157.563 438.189 158.88C438.189 160.273 438.594 161.375 439.405 162.186C440.241 162.997 441.394 163.402 442.863 163.402ZM471.906 156.448L478.936 168H472.058L467.194 160.058L463.584 163.06L462.596 168H456.668L462.292 139.804H468.22L465.066 155.574L474.87 147.556H482.584L471.906 156.448ZM80.3997 185.804H86.3277L80.7037 214H74.7757L80.3997 185.804ZM90.2714 193.556H96.1614L92.0954 214H86.2054L90.2714 193.556ZM94.2234 190.706C93.2101 190.706 92.3741 190.415 91.7154 189.832C91.0821 189.224 90.7654 188.489 90.7654 187.628C90.7654 186.615 91.1201 185.779 91.8294 185.12C92.5641 184.436 93.5141 184.094 94.6794 184.094C95.7181 184.094 96.5541 184.385 97.1874 184.968C97.8461 185.525 98.1754 186.222 98.1754 187.058C98.1754 188.147 97.8081 189.034 97.0734 189.718C96.3387 190.377 95.3887 190.706 94.2234 190.706ZM112.836 202.448L119.866 214H112.988L108.124 206.058L104.514 209.06L103.526 214H97.598L103.222 185.804H109.15L105.996 201.574L115.8 193.556H123.514L112.836 202.448ZM143.392 202.258C143.392 203.195 143.278 204.234 143.05 205.374H127.394C127.596 208.161 129.357 209.554 132.676 209.554C133.714 209.554 134.702 209.389 135.64 209.06C136.602 208.731 137.438 208.262 138.148 207.654L140.618 211.568C139.478 212.48 138.173 213.164 136.704 213.62C135.234 214.076 133.689 214.304 132.068 214.304C129.965 214.304 128.116 213.937 126.52 213.202C124.949 212.442 123.733 211.365 122.872 209.972C122.036 208.579 121.618 206.97 121.618 205.146C121.618 202.891 122.124 200.865 123.138 199.066C124.176 197.242 125.608 195.823 127.432 194.81C129.256 193.771 131.333 193.252 133.664 193.252C135.64 193.252 137.35 193.619 138.794 194.354C140.263 195.089 141.39 196.14 142.176 197.508C142.986 198.876 143.392 200.459 143.392 202.258ZM133.398 197.698C132.004 197.698 130.826 198.078 129.864 198.838C128.901 199.573 128.217 200.599 127.812 201.916H137.958C137.958 200.599 137.54 199.573 136.704 198.838C135.893 198.078 134.791 197.698 133.398 197.698ZM180.637 193.556L176.571 214H170.947L171.327 211.986C169.629 213.531 167.539 214.304 165.057 214.304C163.461 214.304 161.991 213.937 160.649 213.202C159.306 212.467 158.229 211.416 157.419 210.048C156.633 208.655 156.241 207.021 156.241 205.146C156.241 202.891 156.735 200.865 157.723 199.066C158.736 197.242 160.104 195.823 161.827 194.81C163.549 193.771 165.449 193.252 167.527 193.252C170.668 193.252 172.885 194.278 174.177 196.33L174.709 193.556H180.637ZM166.881 209.402C168.046 209.402 169.085 209.123 169.997 208.566C170.909 207.983 171.618 207.185 172.125 206.172C172.631 205.159 172.885 203.993 172.885 202.676C172.885 201.283 172.467 200.181 171.631 199.37C170.82 198.559 169.68 198.154 168.211 198.154C167.045 198.154 166.007 198.445 165.095 199.028C164.183 199.585 163.473 200.371 162.967 201.384C162.46 202.397 162.207 203.563 162.207 204.88C162.207 206.273 162.612 207.375 163.423 208.186C164.259 208.997 165.411 209.402 166.881 209.402ZM189.507 214.304C187.734 214.304 186.049 214.114 184.453 213.734C182.882 213.329 181.654 212.809 180.767 212.176L183.047 207.882C183.934 208.465 185.01 208.933 186.277 209.288C187.569 209.643 188.861 209.82 190.153 209.82C191.496 209.82 192.496 209.655 193.155 209.326C193.814 208.971 194.143 208.477 194.143 207.844C194.143 207.337 193.852 206.97 193.269 206.742C192.686 206.514 191.749 206.273 190.457 206.02C188.988 205.741 187.772 205.437 186.809 205.108C185.872 204.779 185.048 204.247 184.339 203.512C183.655 202.752 183.313 201.726 183.313 200.434C183.313 198.179 184.25 196.419 186.125 195.152C188.025 193.885 190.508 193.252 193.573 193.252C194.992 193.252 196.372 193.404 197.715 193.708C199.058 194.012 200.198 194.43 201.135 194.962L199.007 199.294C197.335 198.255 195.321 197.736 192.965 197.736C191.673 197.736 190.685 197.926 190.001 198.306C189.342 198.686 189.013 199.167 189.013 199.75C189.013 200.282 189.304 200.675 189.887 200.928C190.47 201.156 191.445 201.409 192.813 201.688C194.257 201.967 195.435 202.271 196.347 202.6C197.284 202.904 198.095 203.423 198.779 204.158C199.463 204.893 199.805 205.893 199.805 207.16C199.805 209.44 198.842 211.201 196.917 212.442C195.017 213.683 192.547 214.304 189.507 214.304ZM239.039 193.556L227.753 214H221.901L219.545 201.27L212.515 214H206.739L203.129 193.556H208.525L210.767 207.312L218.443 193.556H223.535L225.853 207.312L233.453 193.556H239.039ZM259.284 202.258C259.284 203.195 259.17 204.234 258.942 205.374H243.286C243.489 208.161 245.249 209.554 248.568 209.554C249.607 209.554 250.595 209.389 251.532 209.06C252.495 208.731 253.331 208.262 254.04 207.654L256.51 211.568C255.37 212.48 254.065 213.164 252.596 213.62C251.127 214.076 249.581 214.304 247.96 214.304C245.857 214.304 244.008 213.937 242.412 213.202C240.841 212.442 239.625 211.365 238.764 209.972C237.928 208.579 237.51 206.97 237.51 205.146C237.51 202.891 238.017 200.865 239.03 199.066C240.069 197.242 241.5 195.823 243.324 194.81C245.148 193.771 247.225 193.252 249.556 193.252C251.532 193.252 253.242 193.619 254.686 194.354C256.155 195.089 257.283 196.14 258.068 197.508C258.879 198.876 259.284 200.459 259.284 202.258ZM249.29 197.698C247.897 197.698 246.719 198.078 245.756 198.838C244.793 199.573 244.109 200.599 243.704 201.916H253.85C253.85 200.599 253.432 199.573 252.596 198.838C251.785 198.078 250.683 197.698 249.29 197.698ZM266.577 185.804H272.505L266.881 214H260.953L266.577 185.804ZM278.007 185.804H283.935L278.311 214H272.383L278.007 185.804ZM319.389 193.556L315.323 214H309.699L310.079 211.986C308.381 213.531 306.291 214.304 303.809 214.304C302.213 214.304 300.743 213.937 299.401 213.202C298.058 212.467 296.981 211.416 296.171 210.048C295.385 208.655 294.993 207.021 294.993 205.146C294.993 202.891 295.487 200.865 296.475 199.066C297.488 197.242 298.856 195.823 300.579 194.81C302.301 193.771 304.201 193.252 306.279 193.252C309.42 193.252 311.637 194.278 312.929 196.33L313.461 193.556H319.389ZM305.633 209.402C306.798 209.402 307.837 209.123 308.749 208.566C309.661 207.983 310.37 207.185 310.877 206.172C311.383 205.159 311.637 203.993 311.637 202.676C311.637 201.283 311.219 200.181 310.383 199.37C309.572 198.559 308.432 198.154 306.963 198.154C305.797 198.154 304.759 198.445 303.847 199.028C302.935 199.585 302.225 200.371 301.719 201.384C301.212 202.397 300.959 203.563 300.959 204.88C300.959 206.273 301.364 207.375 302.175 208.186C303.011 208.997 304.163 209.402 305.633 209.402ZM328.259 214.304C326.486 214.304 324.801 214.114 323.205 213.734C321.634 213.329 320.406 212.809 319.519 212.176L321.799 207.882C322.686 208.465 323.762 208.933 325.029 209.288C326.321 209.643 327.613 209.82 328.905 209.82C330.248 209.82 331.248 209.655 331.907 209.326C332.566 208.971 332.895 208.477 332.895 207.844C332.895 207.337 332.604 206.97 332.021 206.742C331.438 206.514 330.501 206.273 329.209 206.02C327.74 205.741 326.524 205.437 325.561 205.108C324.624 204.779 323.8 204.247 323.091 203.512C322.407 202.752 322.065 201.726 322.065 200.434C322.065 198.179 323.002 196.419 324.877 195.152C326.777 193.885 329.26 193.252 332.325 193.252C333.744 193.252 335.124 193.404 336.467 193.708C337.81 194.012 338.95 194.43 339.887 194.962L337.759 199.294C336.087 198.255 334.073 197.736 331.717 197.736C330.425 197.736 329.437 197.926 328.753 198.306C328.094 198.686 327.765 199.167 327.765 199.75C327.765 200.282 328.056 200.675 328.639 200.928C329.222 201.156 330.197 201.409 331.565 201.688C333.009 201.967 334.187 202.271 335.099 202.6C336.036 202.904 336.847 203.423 337.531 204.158C338.215 204.893 338.557 205.893 338.557 207.16C338.557 209.44 337.594 211.201 335.669 212.442C333.769 213.683 331.299 214.304 328.259 214.304ZM355.826 193.556H361.716L357.65 214H351.76L355.826 193.556ZM359.778 190.706C358.765 190.706 357.929 190.415 357.27 189.832C356.637 189.224 356.32 188.489 356.32 187.628C356.32 186.615 356.675 185.779 357.384 185.12C358.119 184.436 359.069 184.094 360.234 184.094C361.273 184.094 362.109 184.385 362.742 184.968C363.401 185.525 363.73 186.222 363.73 187.058C363.73 188.147 363.363 189.034 362.628 189.718C361.893 190.377 360.943 190.706 359.778 190.706ZM373.945 214.304C371.842 214.304 370.005 213.924 368.435 213.164C366.864 212.404 365.648 211.34 364.787 209.972C363.951 208.579 363.533 206.97 363.533 205.146C363.533 202.891 364.065 200.865 365.129 199.066C366.193 197.267 367.675 195.849 369.575 194.81C371.475 193.771 373.615 193.252 375.997 193.252C378.175 193.252 380.05 193.708 381.621 194.62C383.217 195.507 384.407 196.773 385.193 198.42L380.177 200.928C379.29 199.079 377.77 198.154 375.617 198.154C374.451 198.154 373.4 198.445 372.463 199.028C371.551 199.585 370.829 200.371 370.297 201.384C369.79 202.397 369.537 203.55 369.537 204.842C369.537 206.235 369.955 207.35 370.791 208.186C371.627 208.997 372.792 209.402 374.287 209.402C376.465 209.402 378.137 208.49 379.303 206.666L383.673 209.402C382.685 210.947 381.329 212.151 379.607 213.012C377.909 213.873 376.022 214.304 373.945 214.304ZM396.022 214.304C393.97 214.304 392.159 213.924 390.588 213.164C389.043 212.404 387.839 211.34 386.978 209.972C386.142 208.579 385.724 206.97 385.724 205.146C385.724 202.891 386.256 200.865 387.32 199.066C388.384 197.267 389.853 195.849 391.728 194.81C393.603 193.771 395.718 193.252 398.074 193.252C400.151 193.252 401.963 193.632 403.508 194.392C405.053 195.152 406.244 196.229 407.08 197.622C407.941 198.99 408.372 200.586 408.372 202.41C408.372 204.665 407.84 206.691 406.776 208.49C405.737 210.289 404.268 211.707 402.368 212.746C400.493 213.785 398.378 214.304 396.022 214.304ZM396.402 209.402C397.542 209.402 398.568 209.123 399.48 208.566C400.392 207.983 401.101 207.185 401.608 206.172C402.115 205.159 402.368 203.993 402.368 202.676C402.368 201.283 401.963 200.181 401.152 199.37C400.341 198.559 399.201 198.154 397.732 198.154C396.567 198.154 395.528 198.445 394.616 199.028C393.704 199.585 392.995 200.371 392.488 201.384C391.981 202.397 391.728 203.563 391.728 204.88C391.728 206.273 392.133 207.375 392.944 208.186C393.78 208.997 394.933 209.402 396.402 209.402ZM426.167 193.252C428.447 193.252 430.259 193.86 431.601 195.076C432.944 196.267 433.615 197.977 433.615 200.206C433.615 201.042 433.527 201.865 433.349 202.676L431.069 214H425.141L427.345 203.056C427.447 202.625 427.497 202.157 427.497 201.65C427.497 200.586 427.206 199.775 426.623 199.218C426.041 198.661 425.167 198.382 424.001 198.382C422.481 198.382 421.215 198.825 420.201 199.712C419.213 200.573 418.542 201.878 418.187 203.626L416.135 214H410.207L414.273 193.556H419.897L419.441 195.76C421.265 194.088 423.507 193.252 426.167 193.252ZM443.929 214.304C442.155 214.304 440.471 214.114 438.875 213.734C437.304 213.329 436.075 212.809 435.189 212.176L437.469 207.882C438.355 208.465 439.432 208.933 440.699 209.288C441.991 209.643 443.283 209.82 444.575 209.82C445.917 209.82 446.918 209.655 447.577 209.326C448.235 208.971 448.565 208.477 448.565 207.844C448.565 207.337 448.273 206.97 447.691 206.742C447.108 206.514 446.171 206.273 444.879 206.02C443.409 205.741 442.193 205.437 441.231 205.108C440.293 204.779 439.47 204.247 438.761 203.512C438.077 202.752 437.735 201.726 437.735 200.434C437.735 198.179 438.672 196.419 440.547 195.152C442.447 193.885 444.929 193.252 447.995 193.252C449.413 193.252 450.794 193.404 452.137 193.708C453.479 194.012 454.619 194.43 455.557 194.962L453.429 199.294C451.757 198.255 449.743 197.736 447.387 197.736C446.095 197.736 445.107 197.926 444.423 198.306C443.764 198.686 443.435 199.167 443.435 199.75C443.435 200.282 443.726 200.675 444.309 200.928C444.891 201.156 445.867 201.409 447.235 201.688C448.679 201.967 449.857 202.271 450.769 202.6C451.706 202.904 452.517 203.423 453.201 204.158C453.885 204.893 454.227 205.893 454.227 207.16C454.227 209.44 453.264 211.201 451.339 212.442C449.439 213.683 446.969 214.304 443.929 214.304ZM129.199 231.804H135.127L129.503 260H123.575L129.199 231.804ZM145.682 260.304C143.63 260.304 141.819 259.924 140.248 259.164C138.703 258.404 137.5 257.34 136.638 255.972C135.802 254.579 135.384 252.97 135.384 251.146C135.384 248.891 135.916 246.865 136.98 245.066C138.044 243.267 139.514 241.849 141.388 240.81C143.263 239.771 145.378 239.252 147.734 239.252C149.812 239.252 151.623 239.632 153.168 240.392C154.714 241.152 155.904 242.229 156.74 243.622C157.602 244.99 158.032 246.586 158.032 248.41C158.032 250.665 157.5 252.691 156.436 254.49C155.398 256.289 153.928 257.707 152.028 258.746C150.154 259.785 148.038 260.304 145.682 260.304ZM146.062 255.402C147.202 255.402 148.228 255.123 149.14 254.566C150.052 253.983 150.762 253.185 151.268 252.172C151.775 251.159 152.028 249.993 152.028 248.676C152.028 247.283 151.623 246.181 150.812 245.37C150.002 244.559 148.862 244.154 147.392 244.154C146.227 244.154 145.188 244.445 144.276 245.028C143.364 245.585 142.655 246.371 142.148 247.384C141.642 248.397 141.388 249.563 141.388 250.88C141.388 252.273 141.794 253.375 142.604 254.186C143.44 254.997 144.593 255.402 146.062 255.402ZM185.024 239.556L181.642 256.58C180.882 260.431 179.412 263.243 177.234 265.016C175.08 266.789 172.192 267.676 168.57 267.676C166.594 267.676 164.77 267.448 163.098 266.992C161.451 266.536 160.032 265.865 158.842 264.978L161.654 260.684C162.464 261.368 163.503 261.9 164.77 262.28C166.062 262.685 167.417 262.888 168.836 262.888C170.837 262.888 172.357 262.445 173.396 261.558C174.434 260.697 175.144 259.379 175.524 257.606L175.676 256.732C174.029 258.252 171.952 259.012 169.444 259.012C167.746 259.012 166.214 258.67 164.846 257.986C163.478 257.277 162.388 256.276 161.578 254.984C160.792 253.692 160.4 252.172 160.4 250.424C160.4 248.347 160.894 246.459 161.882 244.762C162.87 243.065 164.225 241.722 165.948 240.734C167.696 239.746 169.646 239.252 171.8 239.252C173.396 239.252 174.789 239.556 175.98 240.164C177.196 240.747 178.108 241.659 178.716 242.9L179.362 239.556H185.024ZM171.04 254.148C172.762 254.148 174.181 253.591 175.296 252.476C176.41 251.361 176.968 249.93 176.968 248.182C176.968 246.941 176.562 245.965 175.752 245.256C174.941 244.521 173.814 244.154 172.37 244.154C170.622 244.154 169.178 244.711 168.038 245.826C166.923 246.941 166.366 248.372 166.366 250.12C166.366 251.361 166.784 252.349 167.62 253.084C168.456 253.793 169.596 254.148 171.04 254.148ZM197.153 260.304C195.101 260.304 193.29 259.924 191.719 259.164C190.174 258.404 188.97 257.34 188.109 255.972C187.273 254.579 186.855 252.97 186.855 251.146C186.855 248.891 187.387 246.865 188.451 245.066C189.515 243.267 190.984 241.849 192.859 240.81C194.734 239.771 196.849 239.252 199.205 239.252C201.282 239.252 203.094 239.632 204.639 240.392C206.184 241.152 207.375 242.229 208.211 243.622C209.072 244.99 209.503 246.586 209.503 248.41C209.503 250.665 208.971 252.691 207.907 254.49C206.868 256.289 205.399 257.707 203.499 258.746C201.624 259.785 199.509 260.304 197.153 260.304ZM197.533 255.402C198.673 255.402 199.699 255.123 200.611 254.566C201.523 253.983 202.232 253.185 202.739 252.172C203.246 251.159 203.499 249.993 203.499 248.676C203.499 247.283 203.094 246.181 202.283 245.37C201.472 244.559 200.332 244.154 198.863 244.154C197.698 244.154 196.659 244.445 195.747 245.028C194.835 245.585 194.126 246.371 193.619 247.384C193.112 248.397 192.859 249.563 192.859 250.88C192.859 252.273 193.264 253.375 194.075 254.186C194.911 254.997 196.064 255.402 197.533 255.402ZM218.786 260.304C217.013 260.304 215.328 260.114 213.732 259.734C212.162 259.329 210.933 258.809 210.046 258.176L212.326 253.882C213.213 254.465 214.29 254.933 215.556 255.288C216.848 255.643 218.14 255.82 219.432 255.82C220.775 255.82 221.776 255.655 222.434 255.326C223.093 254.971 223.422 254.477 223.422 253.844C223.422 253.337 223.131 252.97 222.548 252.742C221.966 252.514 221.028 252.273 219.736 252.02C218.267 251.741 217.051 251.437 216.088 251.108C215.151 250.779 214.328 250.247 213.618 249.512C212.934 248.752 212.592 247.726 212.592 246.434C212.592 244.179 213.53 242.419 215.404 241.152C217.304 239.885 219.787 239.252 222.852 239.252C224.271 239.252 225.652 239.404 226.994 239.708C228.337 240.012 229.477 240.43 230.414 240.962L228.286 245.294C226.614 244.255 224.6 243.736 222.244 243.736C220.952 243.736 219.964 243.926 219.28 244.306C218.622 244.686 218.292 245.167 218.292 245.75C218.292 246.282 218.584 246.675 219.166 246.928C219.749 247.156 220.724 247.409 222.092 247.688C223.536 247.967 224.714 248.271 225.626 248.6C226.564 248.904 227.374 249.423 228.058 250.158C228.742 250.893 229.084 251.893 229.084 253.16C229.084 255.44 228.122 257.201 226.196 258.442C224.296 259.683 221.826 260.304 218.786 260.304ZM257.829 239.252C259.425 239.252 260.895 239.619 262.237 240.354C263.605 241.089 264.682 242.153 265.467 243.546C266.278 244.914 266.683 246.535 266.683 248.41C266.683 250.665 266.177 252.704 265.163 254.528C264.175 256.327 262.82 257.745 261.097 258.784C259.375 259.797 257.462 260.304 255.359 260.304C253.763 260.304 252.383 260.025 251.217 259.468C250.052 258.911 249.153 258.075 248.519 256.96L247.911 260H242.287L247.911 231.804H253.839L251.939 241.304C253.586 239.936 255.549 239.252 257.829 239.252ZM254.675 255.402C255.841 255.402 256.879 255.123 257.791 254.566C258.703 253.983 259.413 253.185 259.919 252.172C260.426 251.159 260.679 249.993 260.679 248.676C260.679 247.283 260.261 246.181 259.425 245.37C258.615 244.559 257.475 244.154 256.005 244.154C254.865 244.154 253.839 244.445 252.927 245.028C252.015 245.585 251.306 246.371 250.799 247.384C250.293 248.397 250.039 249.563 250.039 250.88C250.039 252.273 250.445 253.375 251.255 254.186C252.066 254.997 253.206 255.402 254.675 255.402ZM293.338 239.556L289.272 260H283.648L284.028 257.986C282.33 259.531 280.24 260.304 277.758 260.304C276.162 260.304 274.692 259.937 273.35 259.202C272.007 258.467 270.93 257.416 270.12 256.048C269.334 254.655 268.942 253.021 268.942 251.146C268.942 248.891 269.436 246.865 270.424 245.066C271.437 243.242 272.805 241.823 274.528 240.81C276.25 239.771 278.15 239.252 280.228 239.252C283.369 239.252 285.586 240.278 286.878 242.33L287.41 239.556H293.338ZM279.582 255.402C280.747 255.402 281.786 255.123 282.698 254.566C283.61 253.983 284.319 253.185 284.826 252.172C285.332 251.159 285.586 249.993 285.586 248.676C285.586 247.283 285.168 246.181 284.332 245.37C283.521 244.559 282.381 244.154 280.912 244.154C279.746 244.154 278.708 244.445 277.796 245.028C276.884 245.585 276.174 246.371 275.668 247.384C275.161 248.397 274.908 249.563 274.908 250.88C274.908 252.273 275.313 253.375 276.124 254.186C276.96 254.997 278.112 255.402 279.582 255.402ZM310.72 239.252C313 239.252 314.811 239.86 316.154 241.076C317.497 242.267 318.168 243.977 318.168 246.206C318.168 247.042 318.079 247.865 317.902 248.676L315.622 260H309.694L311.898 249.056C311.999 248.625 312.05 248.157 312.05 247.65C312.05 246.586 311.759 245.775 311.176 245.218C310.593 244.661 309.719 244.382 308.554 244.382C307.034 244.382 305.767 244.825 304.754 245.712C303.766 246.573 303.095 247.878 302.74 249.626L300.688 260H294.76L298.826 239.556H304.45L303.994 241.76C305.818 240.088 308.06 239.252 310.72 239.252ZM336.994 239.252C339.274 239.252 341.085 239.86 342.428 241.076C343.77 242.267 344.442 243.977 344.442 246.206C344.442 247.042 344.353 247.865 344.176 248.676L341.896 260H335.968L338.172 249.056C338.273 248.625 338.324 248.157 338.324 247.65C338.324 246.586 338.032 245.775 337.45 245.218C336.867 244.661 335.993 244.382 334.828 244.382C333.308 244.382 332.041 244.825 331.028 245.712C330.04 246.573 329.368 247.878 329.014 249.626L326.962 260H321.034L325.1 239.556H330.724L330.268 241.76C332.092 240.088 334.334 239.252 336.994 239.252ZM369.722 248.258C369.722 249.195 369.608 250.234 369.38 251.374H353.724C353.926 254.161 355.687 255.554 359.006 255.554C360.044 255.554 361.032 255.389 361.97 255.06C362.932 254.731 363.768 254.262 364.478 253.654L366.948 257.568C365.808 258.48 364.503 259.164 363.034 259.62C361.564 260.076 360.019 260.304 358.398 260.304C356.295 260.304 354.446 259.937 352.85 259.202C351.279 258.442 350.063 257.365 349.202 255.972C348.366 254.579 347.948 252.97 347.948 251.146C347.948 248.891 348.454 246.865 349.468 245.066C350.506 243.242 351.938 241.823 353.762 240.81C355.586 239.771 357.663 239.252 359.994 239.252C361.97 239.252 363.68 239.619 365.124 240.354C366.593 241.089 367.72 242.14 368.506 243.508C369.316 244.876 369.722 246.459 369.722 248.258ZM359.728 243.698C358.334 243.698 357.156 244.078 356.194 244.838C355.231 245.573 354.547 246.599 354.142 247.916H364.288C364.288 246.599 363.87 245.573 363.034 244.838C362.223 244.078 361.121 243.698 359.728 243.698ZM380.587 241.988C381.474 241.025 382.538 240.329 383.779 239.898C385.046 239.467 386.528 239.252 388.225 239.252L387.161 244.724C386.452 244.673 385.996 244.648 385.793 244.648C383.994 244.648 382.55 245.091 381.461 245.978C380.397 246.865 379.675 248.245 379.295 250.12L377.319 260H371.391L375.457 239.556H381.081L380.587 241.988ZM395.13 260.304C393.357 260.304 391.672 260.114 390.076 259.734C388.505 259.329 387.277 258.809 386.39 258.176L388.67 253.882C389.557 254.465 390.633 254.933 391.9 255.288C393.192 255.643 394.484 255.82 395.776 255.82C397.119 255.82 398.119 255.655 398.778 255.326C399.437 254.971 399.766 254.477 399.766 253.844C399.766 253.337 399.475 252.97 398.892 252.742C398.309 252.514 397.372 252.273 396.08 252.02C394.611 251.741 393.395 251.437 392.432 251.108C391.495 250.779 390.671 250.247 389.962 249.512C389.278 248.752 388.936 247.726 388.936 246.434C388.936 244.179 389.873 242.419 391.748 241.152C393.648 239.885 396.131 239.252 399.196 239.252C400.615 239.252 401.995 239.404 403.338 239.708C404.681 240.012 405.821 240.43 406.758 240.962L404.63 245.294C402.958 244.255 400.944 243.736 398.588 243.736C397.296 243.736 396.308 243.926 395.624 244.306C394.965 244.686 394.636 245.167 394.636 245.75C394.636 246.282 394.927 246.675 395.51 246.928C396.093 247.156 397.068 247.409 398.436 247.688C399.88 247.967 401.058 248.271 401.97 248.6C402.907 248.904 403.718 249.423 404.402 250.158C405.086 250.893 405.428 251.893 405.428 253.16C405.428 255.44 404.465 257.201 402.54 258.442C400.64 259.683 398.17 260.304 395.13 260.304Z" fill="black"/>
<path d="M165.337 16L182.917 16C187.197 16 190.877 16.72 193.957 18.16C197.077 19.56 199.457 21.58 201.097 24.22C202.777 26.86 203.617 29.96 203.617 33.52C203.617 38.4 202.517 42.7 200.317 46.42C198.117 50.1 195.037 52.96 191.077 55C187.157 57 182.617 58 177.457 58H156.937L165.337 16ZM177.757 50.02C181.037 50.02 183.877 49.34 186.277 47.98C188.717 46.58 190.577 44.68 191.857 42.28C193.137 39.84 193.777 37.1 193.777 34.06C193.777 30.9 192.757 28.44 190.717 26.68C188.677 24.88 185.717 23.98 181.837 23.98H173.497L168.277 50.02H177.757ZM240.948 39.46C240.948 40.94 240.768 42.58 240.408 44.38H215.688C216.008 48.78 218.788 50.98 224.028 50.98C225.668 50.98 227.228 50.72 228.708 50.2C230.228 49.68 231.548 48.94 232.668 47.98L236.568 54.16C234.768 55.6 232.708 56.68 230.388 57.4C228.068 58.12 225.628 58.48 223.068 58.48C219.748 58.48 216.828 57.9 214.308 56.74C211.828 55.54 209.908 53.84 208.548 51.64C207.228 49.44 206.568 46.9 206.568 44.02C206.568 40.46 207.368 37.26 208.968 34.42C210.608 31.54 212.868 29.3 215.748 27.7C218.628 26.06 221.908 25.24 225.588 25.24C228.708 25.24 231.408 25.82 233.688 26.98C236.008 28.14 237.788 29.8 239.028 31.96C240.308 34.12 240.948 36.62 240.948 39.46ZM225.168 32.26C222.968 32.26 221.108 32.86 219.588 34.06C218.068 35.22 216.988 36.84 216.348 38.92H232.368C232.368 36.84 231.708 35.22 230.388 34.06C229.108 32.86 227.368 32.26 225.168 32.26ZM255.343 58.48C252.543 58.48 249.883 58.18 247.363 57.58C244.883 56.94 242.943 56.12 241.543 55.12L245.143 48.34C246.543 49.26 248.243 50 250.243 50.56C252.283 51.12 254.323 51.4 256.363 51.4C258.483 51.4 260.063 51.14 261.103 50.62C262.143 50.06 262.663 49.28 262.663 48.28C262.663 47.48 262.203 46.9 261.283 46.54C260.363 46.18 258.883 45.8 256.843 45.4C254.523 44.96 252.603 44.48 251.083 43.96C249.603 43.44 248.303 42.6 247.183 41.44C246.103 40.24 245.563 38.62 245.563 36.58C245.563 33.02 247.043 30.24 250.003 28.24C253.003 26.24 256.923 25.24 261.763 25.24C264.003 25.24 266.183 25.48 268.303 25.96C270.423 26.44 272.223 27.1 273.703 27.94L270.343 34.78C267.703 33.14 264.523 32.32 260.803 32.32C258.763 32.32 257.203 32.62 256.123 33.22C255.083 33.82 254.563 34.58 254.563 35.5C254.563 36.34 255.023 36.96 255.943 37.36C256.863 37.72 258.403 38.12 260.563 38.56C262.843 39 264.703 39.48 266.143 40C267.623 40.48 268.903 41.3 269.983 42.46C271.063 43.62 271.603 45.2 271.603 47.2C271.603 50.8 270.083 53.58 267.043 55.54C264.043 57.5 260.143 58.48 255.343 58.48ZM281.878 25.72L291.178 25.72L284.758 58H275.458L281.878 25.72ZM288.118 21.22C286.518 21.22 285.198 20.76 284.158 19.84C283.158 18.88 282.658 17.72 282.658 16.36C282.658 14.76 283.218 13.44 284.338 12.4C285.498 11.32 286.998 10.78 288.838 10.78C290.478 10.78 291.798 11.24 292.798 12.16C293.838 13.04 294.358 14.14 294.358 15.46C294.358 17.18 293.778 18.58 292.618 19.66C291.458 20.7 289.958 21.22 288.118 21.22ZM333.167 25.72L327.827 52.6C326.627 58.68 324.307 63.12 320.867 65.92C317.467 68.72 312.907 70.12 307.187 70.12C304.067 70.12 301.187 69.76 298.547 69.04C295.947 68.32 293.707 67.26 291.827 65.86L296.267 59.08C297.547 60.16 299.187 61 301.187 61.6C303.227 62.24 305.367 62.56 307.607 62.56C310.767 62.56 313.167 61.86 314.807 60.46C316.447 59.1 317.567 57.02 318.167 54.22L318.407 52.84C315.807 55.24 312.527 56.44 308.567 56.44C305.887 56.44 303.467 55.9 301.307 54.82C299.147 53.7 297.427 52.12 296.147 50.08C294.907 48.04 294.287 45.64 294.287 42.88C294.287 39.6 295.067 36.62 296.627 33.94C298.187 31.26 300.327 29.14 303.047 27.58C305.807 26.02 308.887 25.24 312.287 25.24C314.807 25.24 317.007 25.72 318.887 26.68C320.807 27.6 322.247 29.04 323.207 31L324.227 25.72H333.167ZM311.087 48.76C313.807 48.76 316.047 47.88 317.807 46.12C319.567 44.36 320.447 42.1 320.447 39.34C320.447 37.38 319.807 35.84 318.527 34.72C317.247 33.56 315.467 32.98 313.187 32.98C310.427 32.98 308.147 33.86 306.347 35.62C304.587 37.38 303.707 39.64 303.707 42.4C303.707 44.36 304.367 45.92 305.687 47.08C307.007 48.2 308.807 48.76 311.087 48.76ZM360.658 25.24C364.258 25.24 367.118 26.2 369.238 28.12C371.358 30 372.418 32.7 372.418 36.22C372.418 37.54 372.278 38.84 371.998 40.12L368.398 58H359.038L362.518 40.72C362.678 40.04 362.758 39.3 362.758 38.5C362.758 36.82 362.298 35.54 361.378 34.66C360.458 33.78 359.078 33.34 357.238 33.34C354.838 33.34 352.838 34.04 351.238 35.44C349.678 36.8 348.618 38.86 348.058 41.62L344.818 58H335.458L341.878 25.72H350.758L350.038 29.2C352.918 26.56 356.458 25.24 360.658 25.24Z" fill="black"/>
<path d="M153.545 546.145L146.297 587.84L146.202 588.388L188.994 595.827L191.473 581.563L205.189 583.947L207.764 569.134L222.577 571.709L224.961 557.993L239.225 560.473L241.704 546.209L255.968 548.688L258.543 533.876L271.71 536.164L273.999 522.997L288.263 525.477L290.743 511.213L305.555 513.788L308.035 499.524L321.75 501.908L324.23 487.644L324.779 487.739L338.494 490.123L340.974 475.859L355.238 478.338L357.622 464.623L370.789 466.912L373.364 452.099L375.558 452.48L387.079 454.483L391.752 427.601L378.036 425.216L380.516 410.952L352.536 406.089L350.057 420.353L336.89 418.064L334.696 430.682L319.884 428.107L317.309 442.92L302.496 440.345L300.017 454.61L286.85 452.321L284.466 466.036L269.653 463.461L267.078 478.274L253.362 475.89L250.883 490.154L236.619 487.675L234.139 501.939L220.424 499.555L217.944 513.819L204.229 511.435L201.749 525.699L187.485 523.219L185.101 536.935L170.837 534.455L168.357 548.72L153.545 546.145Z" fill="#393939"/>
<path d="M352.536 406.089L350.057 420.353L347.768 433.52L361.484 435.904L359.099 449.619L373.364 452.099L375.558 452.48L387.079 454.483L391.752 427.601L378.036 425.216L380.516 410.952L352.536 406.089Z" fill="#007AE0"/>
<path d="M370.788 466.911L373.363 452.099L359.099 449.619L361.483 435.904L347.768 433.52L347.863 432.971L350.056 420.353L336.89 418.064L334.696 430.682L332.217 444.946L345.932 447.33L343.357 462.143L357.621 464.623L370.788 466.911Z" fill="white"/>
<path d="M165.592 564.629L168.453 548.171L153.092 545.501L145.653 588.293L188.994 595.827L191.474 581.563L175.015 578.702L177.113 566.632L165.592 564.629Z" fill="white"/>
<path d="M148.037 574.578L162.301 577.057L159.821 591.321L145.557 588.842L148.037 574.578Z" fill="#007AE0"/>
</svg>
