<svg width="344" height="410" viewBox="0 0 344 410" fill="none" xmlns="http://www.w3.org/2000/svg">
<rect x="8" y="74" width="336" height="336" fill="#007AE0"/>
<path d="M261.353 74.8329L323.647 74.713L292.12 39.0084L255.59 74.844L261.353 74.8329Z" fill="#007AE0"/>
<path d="M139.783 75.0668L202.077 74.9469L170.55 39.2422L134.02 75.0779L139.783 75.0668Z" fill="#007AE0"/>
<path d="M210.344 75.2197L246.514 75.1501L228.208 54.4184L206.997 75.2262L210.344 75.2197Z" fill="#007AE0"/>
<path d="M237.567 46.9014L273.738 46.8318L252.527 67.6396L234.22 46.9079L237.567 46.9014Z" fill="#007AE0"/>
<path d="M230.139 37.1089L285.4 37.0026L257.432 5.32909L225.027 37.1188L230.139 37.1089Z" fill="#007AE0"/>
<path d="M169.744 26.5401L205.947 67.5402L209.085 22.665L166.395 22.7471L169.744 26.5401Z" fill="#007AE0"/>
<path d="M69.277 212.79V214.392H64.4728V217.594H69.277V219.196H64.4728V224H61.27V212.79H69.277ZM70.8784 224V212.79H74.0812V224H70.8784ZM82.0883 222.599V224H77.2841V222.399H75.6826V214.392H77.2841V212.79H85.2911V215.993H83.6897V214.392H78.8855V222.399H81.8881L82.0883 222.198V219.196H80.4869V217.594H85.2911V224H83.6897V222.399H82.2885L82.0883 222.599ZM88.4939 219.196V224H86.8925V212.79H90.0953V215.993H94.8996V212.79H98.1024V224H94.8996V219.196H93.2982V222.399H90.0953V219.196H88.4939ZM106.109 219.196V214.392H102.907V219.196H106.109ZM102.907 220.797V224H99.7038V214.392H101.305V212.79H107.711V214.392H109.312V224H106.109V220.797H102.907Z" fill="white"/>
<path fill-rule="evenodd" clip-rule="evenodd" d="M65.9231 118.092V119.184H63.6923H61.4615V120.276V121.368H60.3462H59.2308V123.553V125.737H58.1154H57V130.105V134.474H58.1154H59.2308V136.658V138.842H60.3462H61.4615V139.934V141.026H62.5769H63.6923V142.118V143.211H67.0385H70.3846V144.303V145.395H67.0385H63.6923V146.487V147.579H62.5769H61.4615V148.671V149.763H60.3462H59.2308V151.947V154.132H58.1154H57V158.5V162.868H58.1154H59.2308V165.053V167.237H60.3462H61.4615V168.329V169.421H62.5769H63.6923V170.513V171.605H65.9231H68.1538V172.697V173.789H65.9231H63.6923V174.882V175.974H62.5769H61.4615V177.066V178.158H60.3462H59.2308V180.342V182.526H58.1154H57V186.895V191.263H58.1154H59.2308V193.447V195.632H60.3462H61.4615V196.724V197.816H63.6923H65.9231V198.908V200H71.5H77.0769V198.908V197.816H79.3077H81.5385V196.724V195.632H82.6538H83.7692V193.447V191.263H84.8846H86V178.158V165.053H87.1154H88.2308V166.145V167.237H89.3462H90.4615V168.329V169.421H91.5769H92.6923V170.513V171.605H100.5H108.308V170.513V169.421H109.423H110.538V168.329V167.237H111.654H112.769V165.053V162.868H113.885H115V158.5V154.132H113.885H112.769V151.947V149.763H111.654H110.538V148.671V147.579H109.423H108.308V146.487V145.395H104.962H101.615V144.303V143.211H104.962H108.308V142.118V141.026H109.423H110.538V139.934V138.842H111.654H112.769V136.658V134.474H113.885H115V130.105V125.737H113.885H112.769V123.553V121.368H111.654H110.538V120.276V119.184H108.308H106.077V118.092V117H86H65.9231V118.092ZM92.6923 146.487V147.579H91.5769H90.4615V148.671V149.763H89.3462H88.2308V150.855V151.947H87.1154H86V148.671V145.395H89.3462H92.6923V146.487Z" fill="#F9CC14"/>
<path d="M199.237 214.392H196.034V217.594H199.237V214.392ZM200.838 217.594V219.196H196.034V224H192.831V212.79H200.838V214.392H202.439V217.594H200.838ZM210.446 212.79H213.649V224H210.446V219.196H207.244V224H204.041V212.79H207.244V217.594H210.446V212.79ZM221.656 214.392H218.454V222.399H221.656V214.392ZM216.852 222.399H215.251V214.392H216.852V212.79H223.258V214.392H224.859V222.399H223.258V224H216.852V222.399ZM236.069 212.79V214.392H232.866V224H229.663V214.392H226.461V212.79H236.069ZM244.076 214.392H240.873V222.399H244.076V214.392ZM239.272 222.399H237.67V214.392H239.272V212.79H245.678V214.392H247.279V222.399H245.678V224H239.272V222.399ZM255.286 214.392H252.083V217.594H256.887V219.196H258.489V222.399H256.887V224H250.482V222.399H248.88V220.797H252.083V222.399H255.286V219.196H250.482V217.594H248.88V214.392H250.482V212.79H256.887V214.392H258.489V215.993H255.286V214.392ZM266.496 212.79H269.699V224H266.496V219.196H263.293V224H260.09V212.79H263.293V217.594H266.496V212.79ZM277.706 214.392H274.503V222.399H277.706V214.392ZM272.901 222.399H271.3V214.392H272.901V212.79H279.307V214.392H280.909V222.399H279.307V224H272.901V222.399ZM288.916 214.392H285.713V217.594H288.916V214.392ZM290.517 217.594V219.196H285.713V224H282.51V212.79H290.517V214.392H292.118V217.594H290.517Z" fill="white"/>
<rect x="208.184" y="117" width="72" height="72" fill="#F9CC14"/>
<path d="M237.137 144.906H230.105V151.938H237.137V144.906ZM240.652 151.938V155.453H230.105V166H223.074V141.391H240.652V144.906H244.168V151.938H240.652ZM261.746 144.906H254.715V151.938H265.262V155.453H268.777V162.484H265.262V166H251.199V162.484H247.684V158.969H254.715V162.484H261.746V155.453H251.199V151.938H247.684V144.906H251.199V141.391H265.262V144.906H268.777V148.422H261.746V144.906Z" fill="#007AE0"/>
<path d="M29.2418 379.911V368.701H32.4446V379.911H29.2418ZM42.053 377.909V379.911H34.046V368.701H37.2488V377.909H42.053ZM51.6615 377.909V379.911H43.6544V368.701H46.8573V377.909H51.6615ZM59.6685 368.701H62.8714V379.911H54.8643V378.31H53.2629V368.701H56.4657V378.31H59.6685V368.701ZM70.8784 370.303H67.6756V373.505H72.4798V375.107H74.0812V378.31H72.4798V379.911H66.0742V378.31H64.4728V376.708H67.6756V378.31H70.8784V375.107H66.0742V373.505H64.4728V370.303H66.0742V368.701H72.4798V370.303H74.0812V371.904H70.8784V370.303ZM85.2911 368.701V370.303H82.0883V379.911H78.8855V370.303H75.6826V368.701H85.2911ZM93.2982 370.303H90.0953V373.505H93.2982V370.303ZM94.8996 375.107H96.501V379.911H93.2982V375.107H90.0953V379.911H86.8925V368.701H94.8996V370.303H96.501V373.505H94.8996V375.107ZM104.508 375.107V370.303H101.305V375.107H104.508ZM101.305 376.708V379.911H98.1024V370.303H99.7038V368.701H106.109V370.303H107.711V379.911H104.508V376.708H101.305ZM118.921 368.701V370.303H115.718V379.911H112.515V370.303H109.312V368.701H118.921ZM126.928 370.303H123.725V378.31H126.928V370.303ZM122.124 378.31H120.522V370.303H122.124V368.701H128.529V370.303H130.131V378.31H128.529V379.911H122.124V378.31ZM138.138 370.303H134.935V373.505H138.138V370.303ZM139.739 375.107H141.34V379.911H138.138V375.107H134.935V379.911H131.732V368.701H139.739V370.303H141.34V373.505H139.739V375.107Z" fill="white"/>
<rect x="51" y="272.911" width="72" height="72" fill="#F9CC14"/>
<path d="M86.9844 311.364V300.817H79.9531V311.364H86.9844ZM79.9531 314.88V321.911H72.9219V300.817H76.4375V297.302H90.5V300.817H94.0156V321.911H86.9844V314.88H79.9531ZM97.5312 321.911V297.302H104.562V321.911H97.5312Z" fill="#007AE0"/>
<path d="M212.646 365.107V360.303H209.443V365.107H212.646ZM209.443 366.708V369.911H206.24V360.303H207.842V358.701H214.247V360.303H215.849V369.911H212.646V366.708H209.443ZM223.856 360.303H220.653V363.505H225.457V365.107H227.058V368.31H225.457V369.911H219.051V368.31H217.45V366.708H220.653V368.31H223.856V365.107H219.051V363.505H217.45V360.303H219.051V358.701H225.457V360.303H227.058V361.904H223.856V360.303ZM228.66 369.911V358.701H236.667V360.303H231.863V363.505H236.667V365.107H231.863V368.31H236.667V369.911H228.66ZM244.674 360.303H241.471V363.505H244.674V360.303ZM246.275 363.505V365.107H241.471V369.911H238.268V358.701H246.275V360.303H247.877V363.505H246.275ZM255.884 360.303H252.681V363.505H255.884V360.303ZM257.485 365.107H259.087V369.911H255.884V365.107H252.681V369.911H249.478V358.701H257.485V360.303H259.087V363.505H257.485V365.107ZM260.688 369.911V358.701H263.891V369.911H260.688ZM275.101 358.701V360.303H271.898V369.911H268.695V360.303H265.492V358.701H275.101ZM276.702 369.911V358.701H284.709V360.303H279.905V363.505H284.709V365.107H279.905V368.31H284.709V369.911H276.702Z" fill="white"/>
<path fill-rule="evenodd" clip-rule="evenodd" d="M276.271 280.17C276.271 280.502 275.874 280.899 275.542 280.899C275.315 280.899 275.283 281.323 275.283 284.355V287.812H230.096H184.909L184.338 288.382L183.767 288.953V292.827V296.7H180.476H177.184V314.806V332.911H185.507C194.291 332.911 194.302 332.91 194.302 332.182C194.302 332.033 194.441 331.924 194.631 331.924C194.95 331.924 194.96 331.814 194.96 328.138V324.352H215.699H236.438V327.403V330.453L237.009 331.024L237.579 331.594H242.199H246.819L247.389 331.024L247.96 330.453V327.403V324.352H272.814H297.668V328.138C297.668 331.814 297.678 331.924 297.997 331.924C298.187 331.924 298.326 332.033 298.326 332.182C298.326 332.91 298.337 332.911 307.121 332.911H315.444V314.806V296.7H312.153H308.861V292.827V288.953L308.29 288.382L307.719 287.812H301.212H294.705V286.407C294.705 285.024 294.697 284.994 294.135 284.432L293.564 283.861H290.349H287.134V282.38C287.134 281.143 287.091 280.899 286.875 280.899C286.543 280.899 286.146 280.502 286.146 280.17C286.146 279.94 285.588 279.911 281.208 279.911C276.829 279.911 276.271 279.94 276.271 280.17ZM282.78 284.266C283.152 284.638 283.184 284.792 283.184 286.241V287.812H286.734C289.592 287.812 290.331 287.858 290.52 288.047C290.689 288.216 290.755 288.702 290.755 289.787C290.755 290.872 290.689 291.357 290.52 291.527C290.331 291.716 289.592 291.762 286.734 291.762H283.184V303.044V314.327L282.78 314.731C282.427 315.084 282.228 315.135 281.208 315.135C280.189 315.135 279.99 315.084 279.637 314.731L279.233 314.327V299.423C279.233 289.597 279.289 284.52 279.398 284.52C279.488 284.52 279.562 284.372 279.562 284.191C279.562 283.887 279.672 283.861 280.969 283.861C282.243 283.861 282.414 283.899 282.78 284.266ZM186.072 289.952C186.072 290.946 186.032 291.104 185.779 291.104C185.618 291.104 185.379 291.252 185.249 291.433C184.85 291.987 184.755 291.812 184.755 290.521C184.755 289.143 184.92 288.815 185.619 288.806C186.07 288.799 186.072 288.803 186.072 289.952ZM189.364 289.952V291.104H188.212H187.059V289.952V288.799H188.212H189.364V289.952ZM192.985 289.952V291.104H191.668H190.351V289.952V288.799H191.668H192.985V289.952ZM196.277 289.952V291.104H195.125H193.972V289.952V288.799H195.125H196.277V289.952ZM199.663 289.035C199.81 289.182 199.898 289.611 199.898 290.187V291.104H198.581H197.264V289.952V288.799H198.346C199.064 288.799 199.507 288.878 199.663 289.035ZM203.19 289.952V291.104H202.038H200.885V289.952V288.799H202.038H203.19V289.952ZM206.482 289.952V291.104H205.33H204.177V289.952V288.799H205.33H206.482V289.952ZM210.103 289.952V291.104H208.786H207.469V289.952V288.799H208.786H210.103V289.952ZM213.395 289.952V291.104H212.243H211.09V289.952V288.799H212.243H213.395V289.952ZM216.687 289.952V291.104H215.535H214.382V289.952V288.799H215.535H216.687V289.952ZM220.308 289.952V291.104H218.991H217.674V289.952V288.799H218.991H220.308V289.952ZM223.6 289.952V291.104H222.448H221.295V289.952V288.799H222.448H223.6V289.952ZM226.892 289.952V291.104H225.739H224.587V289.952V288.799H225.739H226.892V289.952ZM230.513 289.952V291.104H229.196H227.879V290.191C227.879 288.967 228.048 288.813 229.402 288.806L230.513 288.799V289.952ZM233.805 289.952V291.104H232.653H231.5V289.952V288.799H232.653H233.805V289.952ZM237.426 289.952V291.104H236.109H234.792V289.952V288.799H236.109H237.426V289.952ZM240.718 289.952V291.104H239.566H238.413V289.952V288.799H239.566H240.718V289.952ZM244.01 289.952V291.104H242.858H241.705V289.952V288.799H242.858H244.01V289.952ZM247.631 289.952V291.104H246.314H244.997V289.952V288.799H246.314H247.631V289.952ZM250.923 289.952V291.104H249.771H248.618V289.952V288.799H249.771H250.923V289.952ZM254.215 289.952V291.104H253.062H251.91V289.952V288.799H253.062H254.215V289.952ZM257.836 289.952V291.104H256.519H255.202V289.952V288.799H256.519H257.836V289.952ZM261.128 289.952V291.104H259.976H258.823V289.952V288.799H259.976H261.128V289.952ZM264.749 289.952V291.104H263.432H262.115V289.952V288.799H263.432H264.749V289.952ZM268.041 289.952V291.104H266.889H265.736V289.952V288.799H266.889H268.041V289.952ZM271.333 289.952V291.104H270.18H269.028V289.952V288.799H270.18H271.333V289.952ZM274.295 289.952V291.104H273.308H272.32V289.952V288.799H273.308H274.295V289.952ZM298.656 289.952V291.104H297.503H296.351V289.952V288.799H297.503H298.656V289.952ZM302.277 289.952V291.104H300.96H299.643V289.952V288.799H300.96H302.277V289.952ZM305.569 289.952V291.104H304.417H303.264V289.952V288.799H304.417H305.569V289.952ZM307.638 289.035C307.89 289.287 307.987 291.762 307.745 291.762C307.674 291.762 307.51 291.614 307.379 291.433C307.249 291.252 307.01 291.104 306.849 291.104C306.596 291.104 306.556 290.946 306.556 289.952C306.556 288.824 306.565 288.799 306.979 288.799C307.212 288.799 307.509 288.905 307.638 289.035ZM204.93 295.948C205.128 296.146 205.165 297.612 205.165 305.255V314.327L204.761 314.731L204.357 315.135H199.165C194.082 315.135 193.972 315.128 193.972 314.806C193.972 314.586 193.863 314.476 193.643 314.476C193.321 314.476 193.314 314.367 193.314 309.284V304.092L193.718 303.688C194.122 303.284 194.123 303.284 197.668 303.284H201.215V301.544C201.215 300.255 201.154 299.743 200.979 299.569C200.791 299.38 200.074 299.333 197.358 299.333C195.211 299.333 193.972 299.273 193.972 299.169C193.972 299.078 193.824 299.004 193.643 299.004C193.338 299.004 193.314 298.895 193.314 297.523C193.314 296.151 193.338 296.042 193.643 296.042C193.824 296.042 193.972 295.967 193.972 295.877C193.972 295.771 195.869 295.712 199.333 295.712C203.76 295.712 204.736 295.753 204.93 295.948ZM220.402 295.948C220.573 296.119 220.637 296.612 220.637 297.758V299.333H216.851H213.066V301.309V303.284H216.687C220.198 303.284 220.308 303.294 220.308 303.613C220.308 303.794 220.382 303.942 220.472 303.942C220.579 303.942 220.637 305.783 220.637 309.134V314.327L220.233 314.731L219.829 315.135H214.876H209.923L209.519 314.731C209.157 314.368 209.115 314.19 209.115 312.991C209.115 312.052 209.185 311.585 209.35 311.42C209.54 311.23 210.278 311.184 213.136 311.184H216.687V309.209V307.234H213.136C210.278 307.234 209.54 307.188 209.35 306.999C209.027 306.675 208.999 296.324 209.321 295.959C209.628 295.61 220.054 295.6 220.402 295.948ZM235.78 295.877C235.78 295.967 235.928 296.042 236.109 296.042C236.432 296.042 236.438 296.151 236.438 301.473C236.438 306.795 236.432 306.905 236.109 306.905C235.928 306.905 235.78 306.979 235.78 307.07C235.78 307.174 234.463 307.234 232.159 307.234H228.538V309.209V311.184H232.159C234.463 311.184 235.78 311.244 235.78 311.349C235.78 311.44 235.928 311.514 236.109 311.514C236.414 311.514 236.438 311.623 236.438 312.995C236.438 314.367 236.414 314.476 236.109 314.476C235.89 314.476 235.78 314.586 235.78 314.806C235.78 315.128 235.67 315.135 230.588 315.135H225.395L224.991 314.731L224.587 314.327V305.184C224.587 296.151 224.591 296.042 224.917 296.042C225.098 296.042 225.246 295.967 225.246 295.877C225.246 295.771 227.111 295.712 230.513 295.712C233.915 295.712 235.78 295.771 235.78 295.877ZM251.675 295.948C251.873 296.146 251.91 297.612 251.91 305.255V314.327L251.506 314.731C251.102 315.135 251.102 315.135 247.556 315.135H244.01V320.66C244.01 325.23 243.969 326.227 243.774 326.421C243.609 326.587 243.141 326.656 242.199 326.656C241.257 326.656 240.789 326.587 240.624 326.421C240.423 326.221 240.389 323.967 240.389 311.189C240.389 299.426 240.433 296.142 240.594 295.959C240.901 295.61 251.328 295.6 251.675 295.948ZM267.147 295.948C267.335 296.136 267.382 296.844 267.382 299.498C267.382 302.152 267.335 302.86 267.147 303.049C266.818 303.378 264.325 303.378 263.996 303.049C263.827 302.879 263.761 302.393 263.761 301.309C263.761 300.224 263.696 299.738 263.526 299.569C263.352 299.395 262.84 299.333 261.551 299.333H259.811V306.905C259.811 314.367 259.806 314.476 259.482 314.476C259.262 314.476 259.153 314.586 259.153 314.806C259.153 315.106 259.043 315.135 257.911 315.135C256.811 315.135 256.622 315.088 256.265 314.731L255.861 314.327V305.259C255.861 298.24 255.907 296.14 256.066 295.959C256.373 295.61 266.8 295.6 267.147 295.948ZM275.048 295.948C275.213 296.113 275.283 296.581 275.283 297.523C275.283 298.465 275.213 298.933 275.048 299.098C274.769 299.377 271.991 299.441 271.991 299.169C271.991 299.078 271.843 299.004 271.662 299.004C271.357 299.004 271.333 298.895 271.333 297.523C271.333 296.151 271.357 296.042 271.662 296.042C271.843 296.042 271.991 295.967 271.991 295.877C271.991 295.605 274.769 295.669 275.048 295.948ZM298.42 295.948C298.769 296.296 298.769 306.65 298.42 306.999C298.231 307.188 297.502 307.234 294.705 307.234C291.909 307.234 291.179 307.28 290.99 307.469C290.821 307.639 290.755 308.125 290.755 309.209C290.755 310.294 290.821 310.78 290.99 310.949C291.179 311.138 291.909 311.184 294.705 311.184C297.502 311.184 298.231 311.231 298.42 311.42C298.586 311.585 298.656 312.052 298.656 312.991C298.656 314.19 298.614 314.368 298.252 314.731L297.848 315.135H292.895H287.942L287.538 314.731L287.134 314.327V305.259C287.134 298.24 287.18 296.14 287.34 295.959C287.646 295.61 298.073 295.6 298.42 295.948ZM180.805 298.84V299.992H179.723C178.363 299.992 178.171 299.82 178.171 298.604V297.688H179.488H180.805V298.84ZM182.121 298.84C182.121 299.498 182.051 299.992 181.957 299.992C181.863 299.992 181.792 299.498 181.792 298.84C181.792 298.181 181.863 297.688 181.957 297.688C182.051 297.688 182.121 298.181 182.121 298.84ZM310.836 298.84C310.836 299.498 310.765 299.992 310.671 299.992C310.577 299.992 310.507 299.498 310.507 298.84C310.507 298.181 310.577 297.688 310.671 297.688C310.765 297.688 310.836 298.181 310.836 298.84ZM314.457 298.604C314.457 299.82 314.265 299.992 312.905 299.992H311.823V298.84V297.688H313.14H314.457V298.604ZM228.743 299.58C228.607 299.735 228.538 300.395 228.538 301.549V303.284H230.513H232.488V301.544C232.488 300.255 232.427 299.743 232.253 299.569C231.922 299.238 229.037 299.247 228.743 299.58ZM244.215 299.58C243.893 299.945 243.921 310.625 244.245 310.949C244.419 311.123 244.931 311.184 246.22 311.184H247.96V305.494C247.96 300.782 247.92 299.763 247.725 299.569C247.394 299.238 244.509 299.247 244.215 299.58ZM290.961 299.58C290.824 299.735 290.755 300.395 290.755 301.549V303.284H292.73H294.705V301.309V299.333L292.936 299.34C291.62 299.344 291.114 299.406 290.961 299.58ZM274.954 303.613C274.954 303.794 275.028 303.942 275.118 303.942C275.225 303.942 275.283 305.783 275.283 309.134V314.327L274.879 314.731C274.521 315.088 274.332 315.135 273.233 315.135C272.101 315.135 271.991 315.106 271.991 314.806C271.991 314.586 271.881 314.476 271.662 314.476C271.34 314.476 271.333 314.367 271.333 309.286C271.333 304.13 271.335 304.092 271.703 303.699C272.038 303.342 272.212 303.303 273.514 303.294C274.847 303.285 274.954 303.308 274.954 303.613ZM197.264 309.209V311.184H199.239H201.215V309.209V307.234H199.239H197.264V309.209ZM186.072 321.06V322.377H185.578C185.306 322.377 185.084 322.451 185.084 322.542C185.084 322.632 185.01 322.706 184.92 322.706C184.827 322.706 184.755 322.238 184.755 321.63C184.755 320.742 184.819 320.486 185.125 320.159C185.329 319.942 185.625 319.759 185.784 319.753C186.035 319.745 186.072 319.912 186.072 321.06ZM189.364 321.06V322.377H188.212H187.059V321.06V319.743H188.212H189.364V321.06ZM192.75 319.979C192.906 320.135 192.985 320.577 192.985 321.295V322.377H191.903C191.185 322.377 190.743 322.298 190.587 322.142C190.292 321.848 190.271 320.314 190.557 319.99C190.836 319.673 192.436 319.665 192.75 319.979ZM196.277 321.06V322.377H195.125H193.972V321.06V319.743H195.125H196.277V321.06ZM199.663 319.979C199.806 320.121 199.898 320.546 199.898 321.06C199.898 322.198 199.687 322.377 198.346 322.377H197.264V321.3C197.264 320.673 197.35 320.126 197.47 319.99C197.749 319.673 199.349 319.665 199.663 319.979ZM203.19 321.06V322.377H202.038H200.885V321.06V319.743H202.038H203.19V321.06ZM206.482 321.06V322.377H205.33H204.177V321.06V319.743H205.33H206.482V321.06ZM209.868 319.979C210.011 320.121 210.103 320.546 210.103 321.06C210.103 322.198 209.892 322.377 208.551 322.377H207.469V321.3C207.469 320.673 207.555 320.126 207.675 319.99C207.954 319.673 209.554 319.665 209.868 319.979ZM213.395 321.06V322.377H212.243H211.09V321.06V319.743H212.243H213.395V321.06ZM216.687 321.06V322.377H215.535H214.382V321.06V319.743H215.535H216.687V321.06ZM220.073 319.979C220.229 320.135 220.308 320.577 220.308 321.295V322.377H219.226C218.508 322.377 218.066 322.298 217.909 322.142C217.615 321.848 217.594 320.314 217.88 319.99C218.159 319.673 219.759 319.665 220.073 319.979ZM223.6 321.06V322.377H222.448H221.295V321.06V319.743H222.448H223.6V321.06ZM226.892 321.06V322.377H225.739H224.587V321.3C224.587 319.932 224.74 319.758 225.945 319.75L226.892 319.743V321.06ZM230.278 319.979C230.434 320.135 230.513 320.577 230.513 321.295V322.377H229.431C228.713 322.377 228.27 322.298 228.114 322.142C227.82 321.848 227.799 320.314 228.085 319.99C228.364 319.673 229.964 319.665 230.278 319.979ZM233.805 321.06V322.377H232.653H231.5V321.06V319.743H232.653H233.805V321.06ZM235.78 321.06V322.377H235.286H234.792V321.3C234.792 320.182 234.982 319.761 235.492 319.75C235.743 319.744 235.78 319.913 235.78 321.06ZM250.923 321.06V322.377H249.935H248.948V321.06V319.743H249.935H250.923V321.06ZM254.215 321.06V322.377H253.062H251.91V321.06V319.743H253.062H254.215V321.06ZM257.601 319.979C257.757 320.135 257.836 320.577 257.836 321.295V322.377H256.754C256.036 322.377 255.593 322.298 255.437 322.142C255.143 321.848 255.122 320.314 255.408 319.99C255.687 319.673 257.287 319.665 257.601 319.979ZM261.128 321.06V322.377H259.976H258.823V321.06V319.743H259.976H261.128V321.06ZM264.514 319.979C264.656 320.121 264.749 320.546 264.749 321.06C264.749 322.198 264.538 322.377 263.197 322.377H262.115V321.3C262.115 320.673 262.201 320.126 262.321 319.99C262.6 319.673 264.2 319.665 264.514 319.979ZM267.806 319.979C267.962 320.135 268.041 320.577 268.041 321.295V322.377H266.889H265.736V321.06V319.743H266.653C267.229 319.743 267.658 319.831 267.806 319.979ZM271.333 321.06V322.377H270.18H269.028V321.06V319.743H270.18H271.333V321.06ZM274.719 319.979C274.861 320.121 274.954 320.546 274.954 321.06C274.954 322.198 274.743 322.377 273.402 322.377H272.32V321.3C272.32 320.673 272.406 320.126 272.526 319.99C272.805 319.673 274.405 319.665 274.719 319.979ZM278.246 321.06V322.377H277.094H275.941V321.06V319.743H277.094H278.246V321.06ZM281.538 321.06V322.377H280.385H279.233V321.06V319.743H280.385H281.538V321.06ZM284.924 319.979C285.08 320.135 285.159 320.577 285.159 321.295V322.377H284.077C283.359 322.377 282.916 322.298 282.76 322.142C282.466 321.848 282.445 320.314 282.731 319.99C283.01 319.673 284.61 319.665 284.924 319.979ZM288.451 321.06V322.377H287.299H286.146V321.06V319.743H287.299H288.451V321.06ZM291.743 321.06V322.377H290.59H289.438V321.06V319.743H290.59H291.743V321.06ZM295.129 319.979C295.285 320.135 295.364 320.577 295.364 321.295V322.377H294.282C293.564 322.377 293.121 322.298 292.965 322.142C292.671 321.848 292.65 320.314 292.936 319.99C293.215 319.673 294.815 319.665 295.129 319.979ZM298.656 321.06V322.377H297.503H296.351V321.06V319.743H297.503H298.656V321.06ZM302.042 319.979C302.184 320.121 302.277 320.546 302.277 321.06C302.277 322.198 302.066 322.377 300.725 322.377H299.643V321.3C299.643 320.673 299.729 320.126 299.849 319.99C300.128 319.673 301.728 319.665 302.042 319.979ZM305.569 321.06V322.377H304.417H303.264V321.06V319.743H304.417H305.569V321.06ZM307.469 320.148C307.816 320.494 307.873 320.704 307.873 321.629C307.873 322.237 307.801 322.706 307.708 322.706C307.618 322.706 307.544 322.632 307.544 322.542C307.544 322.451 307.322 322.377 307.05 322.377H306.556V321.06C306.556 319.584 306.731 319.409 307.469 320.148ZM180.805 329.784V330.936H179.488H178.171V329.784V328.632H179.488H180.805V329.784ZM182.121 329.784C182.121 330.442 182.051 330.936 181.957 330.936C181.863 330.936 181.792 330.442 181.792 329.784C181.792 329.125 181.863 328.632 181.957 328.632C182.051 328.632 182.121 329.125 182.121 329.784ZM310.836 329.784C310.836 330.442 310.765 330.936 310.671 330.936C310.577 330.936 310.507 330.442 310.507 329.784C310.507 329.125 310.577 328.632 310.671 328.632C310.765 328.632 310.836 329.125 310.836 329.784ZM314.457 329.784V330.936H313.14H311.823V329.784V328.632H313.14H314.457V329.784Z" fill="#F9CC14"/>
</svg>
