<svg width="1865" height="899" viewBox="0 0 1865 899" fill="none" xmlns="http://www.w3.org/2000/svg">
<path d="M0 654.5L1865 99V721.436L0 899V654.5Z" fill="#F9CC14"/>
<path d="M0 12L1473.5 220L0 651.5L0 12Z" fill="#007AE0"/>
<path d="M983.151 152.751L1095.72 167.283L1041.83 100.434L972.738 151.407L983.151 152.751Z" fill="#007AE0"/>
<path d="M763.474 124.392L876.039 138.924L822.155 72.0748L753.06 123.048L763.474 124.392Z" fill="#007AE0"/>
<path d="M890.952 141.332L956.313 149.769L925.025 110.954L884.905 140.551L890.952 141.332Z" fill="#007AE0"/>
<path d="M942.582 100.663L1007.94 109.1L967.824 138.698L936.536 99.882L942.582 100.663Z" fill="#007AE0"/>
<path d="M930.008 82.6168L1029.86 95.5077L982.064 36.2063L920.77 81.4243L930.008 82.6168Z" fill="#007AE0"/>
<path d="M821.796 50.7545L883.672 127.518L893.213 53.6115L816.072 43.653L821.796 50.7545Z" fill="#007AE0"/>
<path d="M373.544 872.004L260.742 884.577L315.781 818.675L383.979 870.841L373.544 872.004Z" fill="#0A0C10"/>
<path d="M593.68 847.468L480.879 860.041L535.917 794.138L604.116 846.304L593.68 847.468Z" fill="#0A0C10"/>
<path d="M465.928 862.189L400.43 869.49L432.388 831.224L471.987 861.514L465.928 862.189Z" fill="#0A0C10"/>
<path d="M415.011 820.629L349.513 827.93L389.112 858.22L421.07 819.954L415.011 820.629Z" fill="#0A0C10"/>
<path d="M427.897 802.804L327.831 813.958L376.656 755.496L437.154 801.773L427.897 802.804Z" fill="#0A0C10"/>
<path d="M536.646 772.828L473.445 848.504L465.19 774.443L542.493 765.827L536.646 772.828Z" fill="#0A0C10"/>
</svg>
