<svg width="1002" height="585" viewBox="0 0 1002 585" fill="none" xmlns="http://www.w3.org/2000/svg">
<path d="M834.031 6.59082H530.147V465.674H834.031V6.59082Z"/>
<path d="M629.16 109.442H628.624V109.978H629.16V109.442Z" fill="#372D24"/>
<path d="M412.287 101.436L372.579 49.7449L418.368 54.4563L415.96 106.218L412.287 101.436Z" fill="#007AE0"/>
<path d="M489.776 202.312L450.069 150.621L495.858 155.333L493.45 207.094L489.776 202.312Z" fill="#007AE0"/>
<path d="M444.593 143.935L421.537 113.922L448.124 116.657L446.726 146.712L444.593 143.935Z" fill="#007AE0"/>
<path d="M447.546 104.394L424.49 74.3796L423.092 104.434L449.679 107.17L447.546 104.394Z" fill="#007AE0"/>
<path d="M459.325 104.676L424.101 58.8208L464.72 63.0001L462.583 108.917L459.325 104.676Z" fill="#007AE0"/>
<path d="M505.498 148.382L452.918 142.972L483.151 113.459L510.362 148.883L505.498 148.382Z" fill="#007AE0"/>
<path d="M1002 460.585V217.377L775.671 294.762L0 522.161V575.489L1002 460.585Z" fill="#F9CC14"/>
<path d="M1001.5 74.9358V6.43188L969.683 43.8527L1001.5 81.2732V74.9358Z" fill="#F9CC14"/>
<path d="M1001.5 208.625V140.121L969.683 177.541L1001.5 214.962V208.625Z" fill="#F9CC14"/>
<path d="M1001.76 131.009V91.2324L983.283 112.96L1001.76 134.689V131.009Z" fill="#F9CC14"/>
<path d="M976.609 103.245V63.4685L995.085 85.1963L976.609 106.925V103.245Z" fill="#F9CC14"/>
<path d="M967.884 112.167V51.3972L939.657 84.5932L967.884 117.789V112.167Z" fill="#F9CC14"/>
<path d="M958.379 179.404L994.919 136.434H954.999V183.379L958.379 179.404Z" fill="#F9CC14"/>
<path d="M728.567 307.001L654.767 330.757L705.674 361.135L735.396 304.804L728.567 307.001Z" fill="black"/>
<path d="M872.605 260.641L798.799 284.396L849.712 314.774L879.434 258.443L872.605 260.641Z" fill="black"/>
<path d="M788.899 287.207L746.04 301L775.602 318.639L792.863 285.931L788.899 287.207Z" fill="black"/>
<path d="M767.358 331.098L724.499 344.892L741.76 312.184L771.322 329.823L767.358 331.098Z" fill="black"/>
<path d="M779.876 339.892L714.399 360.966L759.561 387.914L785.932 337.943L779.876 339.892Z" fill="black"/>
<path d="M0 0.608154V521.565L1002 584.392V406.899L713.505 485.598L337.648 0.608154H0Z" fill="#007AE0"/>
<path d="M855.481 329.528L797.017 294.645L810.308 349.035L860.889 332.755L855.481 329.528Z" fill="black"/>
<path d="M283.547 79.3405L347.735 160.63L353.539 78.126L277.609 71.8201L283.547 79.3405Z" fill="#0A0C10"/>
<path d="M81.4577 155.281L109.234 75.6135L54.0107 102.645L78.8883 162.651L81.4577 155.281Z" fill="#0A0C10"/>
<path d="M344.05 185.597L325.839 238.341L362.229 220.082L345.735 180.718L344.05 185.597Z" fill="#0A0C10"/>
<path d="M234.558 325.341L159.565 340.426L208.114 376.699L241.496 323.946L234.558 325.341Z" fill="#0A0C10"/>
<path d="M253.762 50.9539L341.971 167.602L292.951 308.959L155.722 333.667L67.5137 217.019L116.533 75.6625L253.762 50.9539Z" fill="#0A0C10"/>
<path d="M283.547 79.3405L347.735 160.63L353.539 78.126L277.609 71.8201L283.547 79.3405Z" fill="#0A0C10"/>
<path d="M81.4577 155.281L109.234 75.6135L54.0107 102.645L78.8883 162.651L81.4577 155.281Z" fill="#0A0C10"/>
<path d="M234.558 325.341L159.565 340.426L208.114 376.699L241.496 323.946L234.558 325.341Z" fill="#0A0C10"/>
<path d="M253.762 50.9539L341.971 167.602L292.951 308.959L155.722 333.667L67.5137 217.019L116.533 75.6625L253.762 50.9539Z" fill="#0A0C10"/>
<path d="M128.982 121.009V140.306H126.969V131.402H114.896V140.306H112.855V121.009H114.896V129.61H126.969V121.009H128.982ZM147.492 133.662H135.363C135.473 135.17 136.052 136.392 137.099 137.329C138.147 138.248 139.47 138.707 141.069 138.707C141.97 138.707 142.797 138.551 143.55 138.239C144.304 137.908 144.956 137.43 145.507 136.805L146.61 138.073C145.967 138.845 145.158 139.433 144.184 139.837C143.228 140.242 142.172 140.444 141.014 140.444C139.526 140.444 138.202 140.132 137.044 139.507C135.905 138.863 135.013 137.981 134.371 136.86C133.727 135.739 133.406 134.471 133.406 133.056C133.406 131.641 133.709 130.373 134.315 129.252C134.94 128.131 135.786 127.258 136.851 126.633C137.936 126.009 139.149 125.696 140.49 125.696C141.832 125.696 143.036 126.009 144.101 126.633C145.168 127.258 146.003 128.131 146.61 129.252C147.216 130.355 147.52 131.622 147.52 133.056L147.492 133.662ZM140.49 127.377C139.094 127.377 137.917 127.827 136.962 128.728C136.025 129.61 135.491 130.768 135.363 132.202H145.645C145.516 130.768 144.974 129.61 144.019 128.728C143.082 127.827 141.905 127.377 140.49 127.377ZM151.503 119.852H153.461V140.306H151.503V119.852ZM158.906 119.852H160.864V140.306H158.906V119.852ZM172.236 140.444C170.84 140.444 169.58 140.132 168.46 139.507C167.339 138.863 166.456 137.981 165.813 136.86C165.17 135.739 164.848 134.471 164.848 133.056C164.848 131.641 165.17 130.373 165.813 129.252C166.456 128.131 167.339 127.258 168.46 126.633C169.58 126.009 170.84 125.696 172.236 125.696C173.633 125.696 174.892 126.009 176.013 126.633C177.134 127.258 178.007 128.131 178.632 129.252C179.275 130.373 179.596 131.641 179.596 133.056C179.596 134.471 179.275 135.739 178.632 136.86C178.007 137.981 177.134 138.863 176.013 139.507C174.892 140.132 173.633 140.444 172.236 140.444ZM172.236 138.707C173.265 138.707 174.184 138.478 174.993 138.018C175.82 137.54 176.463 136.87 176.923 136.006C177.382 135.142 177.612 134.159 177.612 133.056C177.612 131.954 177.382 130.97 176.923 130.106C176.463 129.243 175.82 128.581 174.993 128.122C174.184 127.644 173.265 127.405 172.236 127.405C171.207 127.405 170.279 127.644 169.452 128.122C168.644 128.581 168 129.243 167.523 130.106C167.063 130.97 166.833 131.954 166.833 133.056C166.833 134.159 167.063 135.142 167.523 136.006C168 136.87 168.644 137.54 169.452 138.018C170.279 138.478 171.207 138.707 172.236 138.707ZM191.221 121.009H193.26V140.306H191.221V121.009ZM199.346 119.714C199.769 119.714 200.118 119.861 200.393 120.155C200.669 120.431 200.807 120.78 200.807 121.202C200.807 121.423 200.77 121.662 200.697 121.919C200.641 122.158 200.559 122.443 200.448 122.774L199.263 126.578H197.94L198.905 122.608C198.593 122.517 198.345 122.351 198.161 122.112C197.977 121.855 197.885 121.552 197.885 121.202C197.885 120.761 198.023 120.403 198.298 120.127C198.574 119.852 198.923 119.714 199.346 119.714ZM223.051 125.696C224.87 125.696 226.294 126.219 227.324 127.267C228.371 128.314 228.894 129.858 228.894 131.899V140.306H226.937V132.091C226.937 130.584 226.57 129.436 225.835 128.646C225.118 127.855 224.098 127.46 222.775 127.46C221.268 127.46 220.083 127.929 219.219 128.866C218.355 129.785 217.923 131.062 217.923 132.698V140.306H215.966V132.091C215.966 130.584 215.599 129.436 214.864 128.646C214.147 127.855 213.117 127.46 211.776 127.46C210.287 127.46 209.102 127.929 208.22 128.866C207.356 129.785 206.924 131.062 206.924 132.698V140.306H204.967V125.806H206.842V128.453C207.356 127.57 208.073 126.89 208.992 126.412C209.911 125.935 210.967 125.696 212.162 125.696C213.375 125.696 214.422 125.953 215.305 126.467C216.205 126.982 216.876 127.745 217.317 128.756C217.849 127.8 218.613 127.056 219.605 126.523C220.615 125.971 221.764 125.696 223.051 125.696Z" fill="white"/>
<g filter="url(#filter0_d)">
<path d="M143.098 193.078H123.473L119.729 202.136H109.706L128.546 159.867H138.207L157.107 202.136H146.842L143.098 193.078ZM140.019 185.65L133.316 169.468L126.613 185.65H140.019ZM169.825 173.936C170.952 172.367 172.462 171.179 174.354 170.373C176.286 169.568 178.5 169.166 180.996 169.166V177.861C179.95 177.78 179.245 177.74 178.882 177.74C176.186 177.74 174.072 178.505 172.542 180.035C171.013 181.524 170.248 183.779 170.248 186.798V202.136H160.828V169.649H169.825V173.936ZM197.644 202.618C194.947 202.618 192.311 202.296 189.734 201.652C187.158 200.968 185.105 200.122 183.575 199.116L186.715 192.353C188.165 193.279 189.915 194.044 191.969 194.648C194.021 195.211 196.034 195.493 198.007 195.493C201.992 195.493 203.985 194.507 203.985 192.534C203.985 191.608 203.441 190.945 202.355 190.542C201.267 190.139 199.597 189.797 197.342 189.515C194.686 189.112 192.492 188.649 190.761 188.126C189.03 187.603 187.52 186.677 186.232 185.348C184.984 184.02 184.36 182.128 184.36 179.673C184.36 177.619 184.944 175.808 186.111 174.238C187.319 172.628 189.05 171.38 191.304 170.494C193.599 169.609 196.296 169.166 199.396 169.166C201.69 169.166 203.965 169.428 206.219 169.951C208.513 170.434 210.406 171.118 211.895 172.004L208.755 178.707C205.897 177.096 202.777 176.291 199.396 176.291C197.383 176.291 195.873 176.573 194.867 177.136C193.86 177.7 193.357 178.425 193.357 179.311C193.357 180.317 193.901 181.021 194.988 181.424C196.075 181.826 197.805 182.209 200.181 182.571C202.838 183.014 205.011 183.497 206.702 184.02C208.392 184.503 209.862 185.409 211.11 186.738C212.358 188.066 212.982 189.918 212.982 192.293C212.982 194.306 212.378 196.097 211.17 197.667C209.963 199.237 208.191 200.465 205.857 201.35C203.562 202.196 200.824 202.618 197.644 202.618ZM238.539 169.166C242.565 169.166 245.805 170.373 248.261 172.789C250.757 175.204 252.005 178.787 252.005 183.537V202.136H242.585V184.986C242.585 182.41 242.021 180.498 240.894 179.25C239.767 177.962 238.137 177.318 236.003 177.318C233.628 177.318 231.736 178.062 230.327 179.552C228.918 181.001 228.214 183.175 228.214 186.073V202.136H218.794V157.331H228.214V173.031C229.461 171.783 230.971 170.836 232.742 170.192C234.514 169.508 236.446 169.166 238.539 169.166ZM273.646 169.166C278.679 169.166 282.543 170.373 285.24 172.789C287.937 175.164 289.286 178.767 289.286 183.598V202.136H280.47V198.09C278.699 201.109 275.398 202.618 270.567 202.618C268.071 202.618 265.897 202.196 264.046 201.35C262.234 200.505 260.845 199.337 259.879 197.848C258.913 196.358 258.43 194.668 258.43 192.776C258.43 189.757 259.557 187.382 261.811 185.65C264.106 183.92 267.628 183.054 272.378 183.054H279.866C279.866 181.001 279.242 179.431 277.994 178.344C276.746 177.217 274.874 176.654 272.378 176.654C270.648 176.654 268.936 176.935 267.246 177.499C265.595 178.022 264.187 178.747 263.019 179.673L259.638 173.091C261.409 171.843 263.522 170.877 265.978 170.192C268.473 169.508 271.03 169.166 273.646 169.166ZM272.922 196.278C274.532 196.278 275.961 195.916 277.209 195.191C278.457 194.427 279.343 193.319 279.866 191.87V188.549H273.405C269.54 188.549 267.608 189.817 267.608 192.353C267.608 193.561 268.071 194.527 268.997 195.252C269.963 195.936 271.272 196.278 272.922 196.278ZM339.416 169.166C343.481 169.166 346.702 170.373 349.077 172.789C351.492 175.164 352.7 178.747 352.7 183.537V202.136H343.28V184.986C343.28 182.41 342.737 180.498 341.649 179.25C340.603 177.962 339.093 177.318 337.121 177.318C334.907 177.318 333.155 178.042 331.868 179.492C330.579 180.9 329.935 183.014 329.935 185.832V202.136H320.515V184.986C320.515 179.874 318.462 177.318 314.356 177.318C312.182 177.318 310.452 178.042 309.163 179.492C307.875 180.9 307.231 183.014 307.231 185.832V202.136H297.811V169.649H306.808V173.393C308.016 172.024 309.485 170.977 311.216 170.253C312.988 169.528 314.92 169.166 317.013 169.166C319.307 169.166 321.381 169.629 323.232 170.555C325.084 171.44 326.574 172.749 327.701 174.48C329.029 172.789 330.7 171.481 332.713 170.555C334.766 169.629 337 169.166 339.416 169.166Z" fill="#F9CC14"/>
</g>
<path d="M115.783 231.984C117.533 231.984 118.877 232.403 119.816 233.243C120.754 234.069 121.223 235.323 121.223 237.003V243.451H118.157V242.044C117.54 243.094 116.392 243.619 114.712 243.619C113.844 243.619 113.088 243.472 112.444 243.178C111.814 242.884 111.331 242.478 110.994 241.96C110.659 241.442 110.49 240.854 110.49 240.195C110.49 239.145 110.883 238.319 111.666 237.717C112.464 237.115 113.69 236.814 115.342 236.814H117.947C117.947 236.1 117.729 235.554 117.295 235.176C116.861 234.784 116.21 234.588 115.342 234.588C114.74 234.588 114.145 234.686 113.557 234.882C112.983 235.064 112.493 235.316 112.087 235.638L110.911 233.349C111.527 232.915 112.262 232.578 113.116 232.34C113.984 232.102 114.873 231.984 115.783 231.984ZM115.531 241.413C116.091 241.413 116.588 241.287 117.022 241.036C117.456 240.77 117.764 240.385 117.947 239.88V238.725H115.699C114.355 238.725 113.683 239.167 113.683 240.048C113.683 240.469 113.844 240.804 114.166 241.057C114.502 241.295 114.957 241.413 115.531 241.413ZM141.793 232.151V241.561C141.793 243.633 141.254 245.173 140.176 246.181C139.097 247.189 137.522 247.694 135.45 247.694C134.358 247.694 133.322 247.561 132.342 247.294C131.362 247.028 130.549 246.643 129.905 246.139L131.207 243.787C131.683 244.179 132.286 244.487 133.014 244.711C133.742 244.949 134.47 245.068 135.198 245.068C136.332 245.068 137.166 244.809 137.697 244.291C138.244 243.787 138.516 243.017 138.516 241.981V241.498C137.662 242.436 136.472 242.905 134.946 242.905C133.91 242.905 132.958 242.681 132.09 242.233C131.235 241.771 130.557 241.126 130.052 240.3C129.548 239.474 129.296 238.522 129.296 237.444C129.296 236.366 129.548 235.414 130.052 234.588C130.557 233.762 131.235 233.125 132.09 232.677C132.958 232.214 133.91 231.984 134.946 231.984C136.584 231.984 137.831 232.523 138.684 233.601V232.151H141.793ZM135.597 240.217C136.465 240.217 137.172 239.965 137.718 239.46C138.279 238.943 138.558 238.271 138.558 237.444C138.558 236.618 138.279 235.953 137.718 235.449C137.172 234.931 136.465 234.672 135.597 234.672C134.729 234.672 134.015 234.931 133.455 235.449C132.895 235.953 132.614 236.618 132.614 237.444C132.614 238.271 132.895 238.943 133.455 239.46C134.015 239.965 134.729 240.217 135.597 240.217ZM149.4 231.984C151.151 231.984 152.495 232.403 153.432 233.243C154.371 234.069 154.84 235.323 154.84 237.003V243.451H151.773V242.044C151.157 243.094 150.009 243.619 148.329 243.619C147.461 243.619 146.705 243.472 146.061 243.178C145.431 242.884 144.948 242.478 144.612 241.96C144.275 241.442 144.107 240.854 144.107 240.195C144.107 239.145 144.499 238.319 145.284 237.717C146.082 237.115 147.307 236.814 148.959 236.814H151.564C151.564 236.1 151.347 235.554 150.912 235.176C150.479 234.784 149.827 234.588 148.959 234.588C148.357 234.588 147.762 234.686 147.174 234.882C146.6 235.064 146.11 235.316 145.703 235.638L144.527 233.349C145.144 232.915 145.879 232.578 146.733 232.34C147.601 232.102 148.49 231.984 149.4 231.984ZM149.148 241.413C149.708 241.413 150.205 241.287 150.64 241.036C151.073 240.77 151.381 240.385 151.564 239.88V238.725H149.316C147.972 238.725 147.3 239.167 147.3 240.048C147.3 240.469 147.461 240.804 147.783 241.057C148.119 241.295 148.574 241.413 149.148 241.413ZM172.276 231.984C173.691 231.984 174.811 232.403 175.637 233.243C176.477 234.069 176.897 235.316 176.897 236.982V243.451H173.62V237.486C173.62 236.59 173.431 235.925 173.054 235.491C172.689 235.043 172.165 234.819 171.478 234.819C170.708 234.819 170.099 235.071 169.651 235.575C169.203 236.065 168.979 236.8 168.979 237.78V243.451H165.702V237.486C165.702 235.708 164.988 234.819 163.56 234.819C162.804 234.819 162.202 235.071 161.754 235.575C161.306 236.065 161.082 236.8 161.082 237.78V243.451H157.805V232.151H160.935V233.454C161.354 232.978 161.866 232.614 162.468 232.362C163.084 232.11 163.756 231.984 164.484 231.984C165.282 231.984 166.004 232.145 166.647 232.466C167.291 232.775 167.81 233.23 168.202 233.832C168.664 233.243 169.245 232.788 169.945 232.466C170.659 232.145 171.436 231.984 172.276 231.984ZM191.025 237.843C191.025 237.885 191.004 238.179 190.962 238.725H182.414C182.568 239.425 182.932 239.978 183.506 240.385C184.08 240.791 184.795 240.994 185.649 240.994C186.237 240.994 186.755 240.91 187.203 240.741C187.665 240.56 188.092 240.28 188.484 239.902L190.227 241.792C189.163 243.01 187.609 243.619 185.565 243.619C184.29 243.619 183.163 243.374 182.183 242.884C181.203 242.38 180.447 241.687 179.915 240.804C179.382 239.923 179.117 238.921 179.117 237.801C179.117 236.695 179.376 235.701 179.894 234.819C180.426 233.923 181.147 233.23 182.057 232.74C182.981 232.236 184.01 231.984 185.145 231.984C186.251 231.984 187.252 232.221 188.148 232.697C189.044 233.173 189.744 233.86 190.248 234.756C190.767 235.638 191.025 236.667 191.025 237.843ZM185.165 234.462C184.423 234.462 183.8 234.672 183.297 235.092C182.792 235.512 182.484 236.086 182.372 236.814H187.938C187.826 236.1 187.518 235.533 187.014 235.113C186.51 234.679 185.893 234.462 185.165 234.462ZM210.664 227.867V243.451H207.535V242.149C206.723 243.129 205.547 243.619 204.006 243.619C202.942 243.619 201.976 243.381 201.108 242.905C200.254 242.429 199.582 241.75 199.092 240.867C198.601 239.985 198.357 238.963 198.357 237.801C198.357 236.639 198.601 235.617 199.092 234.735C199.582 233.853 200.254 233.173 201.108 232.697C201.976 232.221 202.942 231.984 204.006 231.984C205.449 231.984 206.576 232.438 207.388 233.349V227.867H210.664ZM204.573 240.93C205.4 240.93 206.086 240.65 206.632 240.091C207.178 239.517 207.451 238.753 207.451 237.801C207.451 236.849 207.178 236.093 206.632 235.533C206.086 234.959 205.4 234.672 204.573 234.672C203.734 234.672 203.04 234.959 202.494 235.533C201.948 236.093 201.675 236.849 201.675 237.801C201.675 238.753 201.948 239.517 202.494 240.091C203.04 240.65 203.734 240.93 204.573 240.93ZM224.765 237.843C224.765 237.885 224.745 238.179 224.702 238.725H216.154C216.308 239.425 216.672 239.978 217.246 240.385C217.821 240.791 218.534 240.994 219.389 240.994C219.977 240.994 220.495 240.91 220.943 240.741C221.405 240.56 221.832 240.28 222.224 239.902L223.967 241.792C222.903 243.01 221.349 243.619 219.304 243.619C218.03 243.619 216.903 243.374 215.923 242.884C214.943 242.38 214.187 241.687 213.655 240.804C213.123 239.923 212.857 238.921 212.857 237.801C212.857 236.695 213.116 235.701 213.634 234.819C214.166 233.923 214.887 233.23 215.797 232.74C216.721 232.236 217.751 231.984 218.884 231.984C219.991 231.984 220.992 232.221 221.888 232.697C222.784 233.173 223.484 233.86 223.988 234.756C224.506 235.638 224.765 236.667 224.765 237.843ZM218.906 234.462C218.164 234.462 217.54 234.672 217.036 235.092C216.532 235.512 216.224 236.086 216.112 236.814H221.678C221.566 236.1 221.258 235.533 220.754 235.113C220.25 234.679 219.634 234.462 218.906 234.462ZM237.957 232.151L233.19 243.451H229.808L225.061 232.151H228.443L231.572 239.839L234.807 232.151H237.957ZM250.055 237.843C250.055 237.885 250.034 238.179 249.992 238.725H241.444C241.598 239.425 241.962 239.978 242.536 240.385C243.11 240.791 243.824 240.994 244.678 240.994C245.266 240.994 245.784 240.91 246.232 240.741C246.695 240.56 247.121 240.28 247.514 239.902L249.257 241.792C248.193 243.01 246.638 243.619 244.594 243.619C243.32 243.619 242.193 243.374 241.213 242.884C240.233 242.38 239.477 241.687 238.944 240.804C238.412 239.923 238.146 238.921 238.146 237.801C238.146 236.695 238.405 235.701 238.923 234.819C239.455 233.923 240.177 233.23 241.087 232.74C242.011 232.236 243.04 231.984 244.174 231.984C245.28 231.984 246.282 232.221 247.178 232.697C248.074 233.173 248.774 233.86 249.278 234.756C249.796 235.638 250.055 236.667 250.055 237.843ZM244.195 234.462C243.453 234.462 242.83 234.672 242.326 235.092C241.822 235.512 241.514 236.086 241.402 236.814H246.967C246.856 236.1 246.547 235.533 246.043 235.113C245.54 234.679 244.923 234.462 244.195 234.462ZM252.236 227.867H255.513V243.451H252.236V227.867ZM263.93 243.619C262.74 243.619 261.669 243.374 260.717 242.884C259.779 242.38 259.043 241.687 258.512 240.804C257.98 239.923 257.714 238.921 257.714 237.801C257.714 236.681 257.98 235.68 258.512 234.798C259.043 233.916 259.779 233.23 260.717 232.74C261.669 232.236 262.74 231.984 263.93 231.984C265.121 231.984 266.185 232.236 267.123 232.74C268.061 233.23 268.796 233.916 269.328 234.798C269.86 235.68 270.126 236.681 270.126 237.801C270.126 238.921 269.86 239.923 269.328 240.804C268.796 241.687 268.061 242.38 267.123 242.884C266.185 243.374 265.121 243.619 263.93 243.619ZM263.93 240.93C264.771 240.93 265.457 240.65 265.989 240.091C266.535 239.517 266.808 238.753 266.808 237.801C266.808 236.849 266.535 236.093 265.989 235.533C265.457 234.959 264.771 234.672 263.93 234.672C263.09 234.672 262.397 234.959 261.851 235.533C261.305 236.093 261.032 236.849 261.032 237.801C261.032 238.753 261.305 239.517 261.851 240.091C262.397 240.65 263.09 240.93 263.93 240.93ZM278.995 231.984C280.045 231.984 280.998 232.228 281.852 232.719C282.72 233.195 283.399 233.874 283.889 234.756C284.379 235.624 284.624 236.639 284.624 237.801C284.624 238.963 284.379 239.985 283.889 240.867C283.399 241.736 282.72 242.415 281.852 242.905C280.998 243.381 280.045 243.619 278.995 243.619C277.553 243.619 276.419 243.164 275.593 242.254V247.526H272.316V232.151H275.446V233.454C276.258 232.473 277.441 231.984 278.995 231.984ZM278.428 240.93C279.269 240.93 279.954 240.65 280.487 240.091C281.032 239.517 281.306 238.753 281.306 237.801C281.306 236.849 281.032 236.093 280.487 235.533C279.954 234.959 279.269 234.672 278.428 234.672C277.588 234.672 276.895 234.959 276.349 235.533C275.817 236.093 275.551 236.849 275.551 237.801C275.551 238.753 275.817 239.517 276.349 240.091C276.895 240.65 277.588 240.93 278.428 240.93ZM297.886 237.843C297.886 237.885 297.865 238.179 297.823 238.725H289.275C289.429 239.425 289.793 239.978 290.367 240.385C290.941 240.791 291.655 240.994 292.509 240.994C293.097 240.994 293.616 240.91 294.064 240.741C294.525 240.56 294.953 240.28 295.345 239.902L297.088 241.792C296.023 243.01 294.469 243.619 292.425 243.619C291.151 243.619 290.024 243.374 289.044 242.884C288.064 242.38 287.307 241.687 286.775 240.804C286.244 239.923 285.977 238.921 285.977 237.801C285.977 236.695 286.236 235.701 286.755 234.819C287.286 233.923 288.008 233.23 288.918 232.74C289.842 232.236 290.871 231.984 292.005 231.984C293.111 231.984 294.112 232.221 295.008 232.697C295.905 233.173 296.605 233.86 297.109 234.756C297.627 235.638 297.886 236.667 297.886 237.843ZM292.026 234.462C291.284 234.462 290.661 234.672 290.157 235.092C289.653 235.512 289.345 236.086 289.233 236.814H294.799C294.686 236.1 294.379 235.533 293.875 235.113C293.37 234.679 292.754 234.462 292.026 234.462ZM303.197 233.643C303.589 233.097 304.114 232.684 304.772 232.403C305.444 232.123 306.214 231.984 307.082 231.984V235.008C306.718 234.98 306.473 234.966 306.347 234.966C305.409 234.966 304.674 235.232 304.142 235.764C303.61 236.282 303.344 237.066 303.344 238.116V243.451H300.067V232.151H303.197V233.643ZM326.591 243.703L324.827 242.065C323.427 243.157 321.788 243.703 319.912 243.703C318.848 243.703 317.889 243.535 317.035 243.199C316.181 242.849 315.508 242.366 315.019 241.75C314.542 241.134 314.305 240.441 314.305 239.671C314.305 238.76 314.556 237.962 315.06 237.276C315.579 236.576 316.405 235.911 317.539 235.281C317.007 234.735 316.622 234.217 316.384 233.727C316.146 233.223 316.027 232.704 316.027 232.173C316.027 231.458 316.216 230.828 316.594 230.282C316.972 229.736 317.504 229.316 318.19 229.022C318.89 228.714 319.695 228.56 320.605 228.56C321.88 228.56 322.902 228.868 323.672 229.484C324.442 230.086 324.827 230.905 324.827 231.941C324.827 232.697 324.596 233.369 324.134 233.958C323.686 234.546 322.958 235.113 321.949 235.659L324.638 238.158C324.96 237.486 325.205 236.723 325.373 235.869L327.998 236.688C327.719 237.99 327.271 239.104 326.654 240.028L328.376 241.624L326.591 243.703ZM320.605 230.786C320.115 230.786 319.723 230.912 319.429 231.164C319.149 231.416 319.009 231.738 319.009 232.13C319.009 232.425 319.086 232.704 319.24 232.971C319.394 233.223 319.695 233.566 320.143 234C320.858 233.621 321.354 233.286 321.634 232.991C321.915 232.684 322.054 232.354 322.054 232.004C322.054 231.64 321.928 231.346 321.677 231.122C321.425 230.898 321.067 230.786 320.605 230.786ZM320.143 241.141C321.165 241.141 322.082 240.854 322.895 240.28L319.345 236.961C318.687 237.339 318.218 237.71 317.938 238.074C317.658 238.438 317.518 238.851 317.518 239.313C317.518 239.86 317.756 240.3 318.232 240.637C318.708 240.973 319.345 241.141 320.143 241.141ZM341.79 243.703L340.026 242.065C338.625 243.157 336.987 243.703 335.111 243.703C334.046 243.703 333.087 243.535 332.233 243.199C331.379 242.849 330.707 242.366 330.217 241.75C329.741 241.134 329.503 240.441 329.503 239.671C329.503 238.76 329.755 237.962 330.259 237.276C330.777 236.576 331.603 235.911 332.737 235.281C332.206 234.735 331.82 234.217 331.582 233.727C331.344 233.223 331.225 232.704 331.225 232.173C331.225 231.458 331.414 230.828 331.792 230.282C332.17 229.736 332.702 229.316 333.389 229.022C334.089 228.714 334.894 228.56 335.804 228.56C337.078 228.56 338.1 228.868 338.87 229.484C339.64 230.086 340.026 230.905 340.026 231.941C340.026 232.697 339.794 233.369 339.332 233.958C338.884 234.546 338.156 235.113 337.148 235.659L339.837 238.158C340.159 237.486 340.403 236.723 340.572 235.869L343.197 236.688C342.917 237.99 342.468 239.104 341.853 240.028L343.575 241.624L341.79 243.703ZM335.804 230.786C335.313 230.786 334.922 230.912 334.628 231.164C334.348 231.416 334.208 231.738 334.208 232.13C334.208 232.425 334.285 232.704 334.439 232.971C334.593 233.223 334.894 233.566 335.342 234C336.056 233.621 336.553 233.286 336.833 232.991C337.113 232.684 337.253 232.354 337.253 232.004C337.253 231.64 337.127 231.346 336.875 231.122C336.623 230.898 336.266 230.786 335.804 230.786ZM335.342 241.141C336.364 241.141 337.281 240.854 338.093 240.28L334.544 236.961C333.885 237.339 333.417 237.71 333.136 238.074C332.856 238.438 332.717 238.851 332.717 239.313C332.717 239.86 332.954 240.3 333.43 240.637C333.906 240.973 334.544 241.141 335.342 241.141ZM363.144 232.151V241.561C363.144 243.633 362.605 245.173 361.527 246.181C360.449 247.189 358.873 247.694 356.801 247.694C355.709 247.694 354.673 247.561 353.693 247.294C352.712 247.028 351.901 246.643 351.257 246.139L352.559 243.787C353.035 244.179 353.637 244.487 354.365 244.711C355.093 244.949 355.821 245.068 356.549 245.068C357.683 245.068 358.516 244.809 359.049 244.291C359.595 243.787 359.868 243.017 359.868 241.981V241.498C359.014 242.436 357.823 242.905 356.297 242.905C355.261 242.905 354.309 242.681 353.441 242.233C352.586 241.771 351.908 241.126 351.403 240.3C350.899 239.474 350.647 238.522 350.647 237.444C350.647 236.366 350.899 235.414 351.403 234.588C351.908 233.762 352.586 233.125 353.441 232.677C354.309 232.214 355.261 231.984 356.297 231.984C357.936 231.984 359.182 232.523 360.036 233.601V232.151H363.144ZM356.948 240.217C357.816 240.217 358.523 239.965 359.069 239.46C359.63 238.943 359.91 238.271 359.91 237.444C359.91 236.618 359.63 235.953 359.069 235.449C358.523 234.931 357.816 234.672 356.948 234.672C356.08 234.672 355.366 234.931 354.806 235.449C354.246 235.953 353.966 236.618 353.966 237.444C353.966 238.271 354.246 238.943 354.806 239.46C355.366 239.965 356.08 240.217 356.948 240.217ZM370.751 231.984C372.501 231.984 373.846 232.403 374.784 233.243C375.722 234.069 376.191 235.323 376.191 237.003V243.451H373.125V242.044C372.508 243.094 371.36 243.619 369.68 243.619C368.812 243.619 368.056 243.472 367.412 243.178C366.782 242.884 366.299 242.478 365.962 241.96C365.627 241.442 365.459 240.854 365.459 240.195C365.459 239.145 365.851 238.319 366.635 237.717C367.433 237.115 368.658 236.814 370.31 236.814H372.915C372.915 236.1 372.697 235.554 372.264 235.176C371.829 234.784 371.178 234.588 370.31 234.588C369.708 234.588 369.113 234.686 368.525 234.882C367.951 235.064 367.461 235.316 367.055 235.638L365.879 233.349C366.495 232.915 367.23 232.578 368.084 232.34C368.952 232.102 369.841 231.984 370.751 231.984ZM370.499 241.413C371.06 241.413 371.556 241.287 371.99 241.036C372.425 240.77 372.732 240.385 372.915 239.88V238.725H370.667C369.323 238.725 368.651 239.167 368.651 240.048C368.651 240.469 368.812 240.804 369.134 241.057C369.47 241.295 369.925 241.413 370.499 241.413ZM393.628 231.984C395.042 231.984 396.162 232.403 396.988 233.243C397.828 234.069 398.248 235.316 398.248 236.982V243.451H394.972V237.486C394.972 236.59 394.783 235.925 394.405 235.491C394.041 235.043 393.515 234.819 392.829 234.819C392.059 234.819 391.45 235.071 391.002 235.575C390.554 236.065 390.33 236.8 390.33 237.78V243.451H387.054V237.486C387.054 235.708 386.339 234.819 384.911 234.819C384.155 234.819 383.553 235.071 383.105 235.575C382.657 236.065 382.433 236.8 382.433 237.78V243.451H379.156V232.151H382.286V233.454C382.706 232.978 383.217 232.614 383.819 232.362C384.435 232.11 385.107 231.984 385.835 231.984C386.633 231.984 387.354 232.145 387.998 232.466C388.643 232.775 389.161 233.23 389.553 233.832C390.015 233.243 390.596 232.788 391.296 232.466C392.01 232.145 392.787 231.984 393.628 231.984ZM412.376 237.843C412.376 237.885 412.356 238.179 412.313 238.725H403.765C403.919 239.425 404.284 239.978 404.858 240.385C405.432 240.791 406.146 240.994 407 240.994C407.588 240.994 408.106 240.91 408.554 240.741C409.016 240.56 409.443 240.28 409.835 239.902L411.578 241.792C410.514 243.01 408.96 243.619 406.916 243.619C405.641 243.619 404.515 243.374 403.534 242.884C402.554 242.38 401.798 241.687 401.266 240.804C400.734 239.923 400.468 238.921 400.468 237.801C400.468 236.695 400.727 235.701 401.245 234.819C401.777 233.923 402.498 233.23 403.408 232.74C404.332 232.236 405.361 231.984 406.496 231.984C407.602 231.984 408.603 232.221 409.499 232.697C410.395 233.173 411.095 233.86 411.6 234.756C412.117 235.638 412.376 236.667 412.376 237.843ZM406.517 234.462C405.774 234.462 405.152 234.672 404.647 235.092C404.143 235.512 403.835 236.086 403.723 236.814H409.289C409.177 236.1 408.869 235.533 408.365 235.113C407.861 234.679 407.245 234.462 406.517 234.462ZM417.687 233.643C418.079 233.097 418.604 232.684 419.263 232.403C419.935 232.123 420.705 231.984 421.573 231.984V235.008C421.209 234.98 420.964 234.966 420.838 234.966C419.9 234.966 419.165 235.232 418.632 235.764C418.1 236.282 417.834 237.066 417.834 238.116V243.451H414.558V232.151H417.687V233.643Z" fill="white"/>
<g filter="url(#filter1_d)">
<path d="M473.635 353.951L499.077 343.06L522.616 358.334L526.579 388.674L507.773 410.901L480.689 408.477L465.338 383.194L473.635 353.951Z" stroke="#0A0C10" stroke-width="4.63923"/>
<path d="M473.635 353.951L499.077 343.06L522.616 358.334L526.579 388.674L507.773 410.901L480.689 408.477L465.338 383.194L473.635 353.951Z" stroke="#66FCF1" stroke-width="4.63923"/>
</g>
<g filter="url(#filter2_d)">
<path d="M891.717 154.496L908.829 139.631L930.405 142.545L943.931 161.707L941.278 185.864L924.166 200.728L902.591 197.814L889.064 178.653L891.717 154.496Z" stroke="#0A0C10" stroke-width="3.39625"/>
<path d="M891.717 154.496L908.829 139.631L930.405 142.545L943.931 161.707L941.278 185.864L924.166 200.728L902.591 197.814L889.064 178.653L891.717 154.496Z" stroke="#66FCF1" stroke-width="3.39625"/>
</g>
<g filter="url(#filter3_d)">
<path d="M813.012 463.183L850.262 411.129L906.406 434.339L903.839 501.107L846.32 518.872L813.012 463.183Z" stroke="#0A0C10" stroke-width="6.01572"/>
<path d="M813.012 463.183L850.262 411.129L906.406 434.339L903.839 501.107L846.32 518.872L813.012 463.183Z" stroke="#66FCF1" stroke-width="6.01572"/>
</g>
<g filter="url(#filter4_d)">
<path d="M482.839 123.624L531.298 74.2644L574.084 123.624L525.101 172.982L482.839 123.624Z" stroke="#0A0C10" stroke-width="5.53899"/>
<path d="M482.839 123.624L531.298 74.2644L574.084 123.624L525.101 172.982L482.839 123.624Z" stroke="#66FCF1" stroke-width="5.53899"/>
</g>
<g filter="url(#filter5_d)">
<path d="M140.982 454.642L214.448 410.906L211.861 503.348L140.982 454.642Z" stroke="#0A0C10" stroke-width="5.36221"/>
<path d="M140.982 454.642L214.448 410.906L211.861 503.348L140.982 454.642Z" stroke="#66FCF1" stroke-width="5.36221"/>
</g>
<defs>
<filter id="filter0_d" x="109.706" y="157.331" width="250.87" height="53.1637" filterUnits="userSpaceOnUse" color-interpolation-filters="sRGB">
<feFlood flood-opacity="0" result="BackgroundImageFix"/>
<feColorMatrix in="SourceAlpha" type="matrix" values="0 0 0 0 0 0 0 0 0 0 0 0 0 0 0 0 0 0 127 0"/>
<feOffset dx="5.25073" dy="5.25073"/>
<feGaussianBlur stdDeviation="1.31268"/>
<feColorMatrix type="matrix" values="0 0 0 0 0 0 0 0 0 0 0 0 0 0 0 0 0 0 0.25 0"/>
<feBlend mode="normal" in2="BackgroundImageFix" result="effect1_dropShadow"/>
<feBlend mode="normal" in="SourceGraphic" in2="effect1_dropShadow" result="shape"/>
</filter>
<filter id="filter1_d" x="462.83" y="340.441" width="70.7927" height="77.4893" filterUnits="userSpaceOnUse" color-interpolation-filters="sRGB">
<feFlood flood-opacity="0" result="BackgroundImageFix"/>
<feColorMatrix in="SourceAlpha" type="matrix" values="0 0 0 0 0 0 0 0 0 0 0 0 0 0 0 0 0 0 127 0"/>
<feOffset dx="2.31962" dy="2.31962"/>
<feGaussianBlur stdDeviation="1.1458"/>
<feColorMatrix type="matrix" values="0 0 0 0 0 0 0 0 0 0 0 0 0 0 0 0 0 0 0.25 0"/>
<feBlend mode="normal" in2="BackgroundImageFix" result="effect1_dropShadow"/>
<feBlend mode="normal" in="SourceGraphic" in2="effect1_dropShadow" result="shape"/>
</filter>
<filter id="filter2_d" x="886.98" y="137.519" width="62.9661" height="69.2513" filterUnits="userSpaceOnUse" color-interpolation-filters="sRGB">
<feFlood flood-opacity="0" result="BackgroundImageFix"/>
<feColorMatrix in="SourceAlpha" type="matrix" values="0 0 0 0 0 0 0 0 0 0 0 0 0 0 0 0 0 0 127 0"/>
<feOffset dx="1.96539" dy="1.96539"/>
<feGaussianBlur stdDeviation="1.1458"/>
<feColorMatrix type="matrix" values="0 0 0 0 0 0 0 0 0 0 0 0 0 0 0 0 0 0 0.25 0"/>
<feBlend mode="normal" in2="BackgroundImageFix" result="effect1_dropShadow"/>
<feBlend mode="normal" in="SourceGraphic" in2="effect1_dropShadow" result="shape"/>
</filter>
<filter id="filter3_d" x="809.419" y="407.437" width="105.907" height="120.84" filterUnits="userSpaceOnUse" color-interpolation-filters="sRGB">
<feFlood flood-opacity="0" result="BackgroundImageFix"/>
<feColorMatrix in="SourceAlpha" type="matrix" values="0 0 0 0 0 0 0 0 0 0 0 0 0 0 0 0 0 0 127 0"/>
<feOffset dx="3.54254" dy="3.54254"/>
<feGaussianBlur stdDeviation="1.1458"/>
<feColorMatrix type="matrix" values="0 0 0 0 0 0 0 0 0 0 0 0 0 0 0 0 0 0 0.25 0"/>
<feBlend mode="normal" in2="BackgroundImageFix" result="effect1_dropShadow"/>
<feBlend mode="normal" in="SourceGraphic" in2="effect1_dropShadow" result="shape"/>
</filter>
<filter id="filter4_d" x="479.083" y="70.1821" width="104.374" height="112.48" filterUnits="userSpaceOnUse" color-interpolation-filters="sRGB">
<feFlood flood-opacity="0" result="BackgroundImageFix"/>
<feColorMatrix in="SourceAlpha" type="matrix" values="0 0 0 0 0 0 0 0 0 0 0 0 0 0 0 0 0 0 127 0"/>
<feOffset dx="3.30569" dy="3.30569"/>
<feGaussianBlur stdDeviation="1.1458"/>
<feColorMatrix type="matrix" values="0 0 0 0 0 0 0 0 0 0 0 0 0 0 0 0 0 0 0.25 0"/>
<feBlend mode="normal" in2="BackgroundImageFix" result="effect1_dropShadow"/>
<feBlend mode="normal" in="SourceGraphic" in2="effect1_dropShadow" result="shape"/>
</filter>
<filter id="filter5_d" x="136.013" y="406.109" width="87.2945" height="108.282" filterUnits="userSpaceOnUse" color-interpolation-filters="sRGB">
<feFlood flood-opacity="0" result="BackgroundImageFix"/>
<feColorMatrix in="SourceAlpha" type="matrix" values="0 0 0 0 0 0 0 0 0 0 0 0 0 0 0 0 0 0 127 0"/>
<feOffset dx="3.75131" dy="3.75131"/>
<feGaussianBlur stdDeviation="1.1458"/>
<feColorMatrix type="matrix" values="0 0 0 0 0 0 0 0 0 0 0 0 0 0 0 0 0 0 0.25 0"/>
<feBlend mode="normal" in2="BackgroundImageFix" result="effect1_dropShadow"/>
<feBlend mode="normal" in="SourceGraphic" in2="effect1_dropShadow" result="shape"/>
</filter>
</defs>
</svg>
