<svg width="121" height="133" viewBox="0 0 121 133" fill="none" xmlns="http://www.w3.org/2000/svg">
<path d="M120.598 33.242L113.548 0.62793L83.4245 6.74205L120.598 33.242Z" fill="#007AE0"/>
<path d="M18.6282 27.1864L0.282227 43.8812L16.6814 64.3224L18.6282 27.1864Z" fill="#007AE0"/>
<path d="M67.9682 124.096L90.8625 132.676L97.849 108.479L67.9682 124.096Z" fill="#007AE0"/>
<path d="M71.8359 1.34604L119.152 36.5922L116.092 96.8747L65.7179 121.911L18.4023 86.6647L21.4613 26.3823L71.8359 1.34604Z" fill="#007AE0"/>
<path fill-rule="evenodd" clip-rule="evenodd" d="M43.4808 33.239V35.4799H41.2399H38.999V59.998V84.5162H41.2399H43.4808V86.7571V88.998H56.7945H70.1081V80.1662V71.3344H65.8147C62.2693 71.3344 61.4883 71.3016 61.3328 71.146C61.1005 70.9138 61.0887 70.5881 61.3092 70.4985C61.4337 70.4482 61.4256 70.3945 61.2763 70.2799C61.1269 70.1652 61.1189 70.1115 61.2433 70.0612C61.4386 69.9818 61.467 69.489 61.2763 69.489C61.1917 69.489 61.1445 68.2335 61.1445 65.9864C61.1445 63.1265 61.179 62.4492 61.3328 62.2955C61.4883 62.14 62.2693 62.1071 65.8147 62.1071H70.1081V53.2753V44.4435H72.349H74.5899V42.2026V39.9617H81.3127H88.0354V44.4435V48.9253H83.7419C79.9073 48.9253 79.4249 48.9488 79.2283 49.1455C79.0682 49.3055 79.0528 49.3804 79.1718 49.42C79.3851 49.4911 79.3842 50.1988 79.1706 50.2985C79.0388 50.3599 79.0388 50.3907 79.1706 50.4522C79.3817 50.5508 79.4143 61.3162 79.2036 61.3162C79.0078 61.3162 79.0441 61.7028 79.2601 61.9188C79.4155 62.0743 80.1966 62.1071 83.7419 62.1071H88.0354V66.5324C88.0354 70.4901 88.0122 70.981 87.8153 71.1778C87.6552 71.338 87.5803 71.3534 87.5407 71.2344C87.4759 71.0402 86.9808 71.012 86.9808 71.2026C86.9808 71.2871 85.7506 71.3344 83.5536 71.3344C81.3566 71.3344 80.1263 71.2871 80.1263 71.2026C80.1263 71.1301 80.0077 71.0708 79.8627 71.0708C79.7177 71.0708 79.599 71.1301 79.599 71.2026C79.599 71.2751 79.4804 71.3344 79.3354 71.3344C79.1904 71.3344 79.0717 71.3937 79.0717 71.4662C79.0717 71.5387 79.1311 71.598 79.2036 71.598C79.29 71.598 79.3354 74.5419 79.3354 80.1662C79.3354 85.7905 79.29 88.7344 79.2036 88.7344C79.1311 88.7344 79.0717 88.7937 79.0717 88.8662C79.0717 88.9524 81.4006 88.998 85.7945 88.998H92.5172V86.7571V84.5162H94.7581H96.999V59.998V35.4799H94.7581H92.5172V33.239V30.998H67.999H43.4808V33.239Z" fill="white"/>
</svg>
