<svg width="37" height="16" viewBox="0 0 37 16" fill="none" xmlns="http://www.w3.org/2000/svg">
<path d="M13.9294 8.3128H16.0614L18.691 12.6835L19.4727 13.8917H30.396L21.4271 7.70872L22.5287 5.86093L36.3782 16H18.2295L16.2746 12.6835L13.9294 8.3128Z" fill="#318EDE"/>
<path d="M13.9294 0.0710907H16.0614L23.4526 12.5081H21.0362L13.9294 0.0710907Z" fill="#FFD103"/>
<path d="M2.30967 12.4725H0.852761L9.66528 -1.43051e-05H11.5131L3.34016 12.4725H3.55337H4.76154L-6.29425e-05 15.9904L2.30967 12.4725Z" fill="#FFD103"/>
<path d="M10.909 1.81226L11.7263 0.390884L15.6706 7.49775H2.48737L3.48233 5.96978H12.9345L10.909 1.81226Z" fill="#318EDE"/>
<path d="M20.0414 5.75657L20.8587 7.17795L24.803 0.0710807H16.8433L17.8383 1.59906H22.0669L20.0414 5.75657Z" fill="#318EDE"/>
</svg>
