<svg width="8" height="4" viewBox="0 0 8 4" fill="none" xmlns="http://www.w3.org/2000/svg">
<path d="M3.06323 2.07819H3.5321L4.11036 3.17087L4.28228 3.47292H6.68443L4.71207 1.92717L4.95432 1.46523L7.99998 3.99999H4.00887L3.57898 3.17087L3.06323 2.07819Z" fill="#318EDE"/>
<path d="M3.06323 0.0177765H3.5321L5.15749 3.12703H4.62611L3.06323 0.0177765Z" fill="#FFD103"/>
<path d="M0.507929 3.11813H0.187538L2.12551 -7.15256e-06H2.53186L0.734546 3.11813H0.781433H1.04712L-7.86781e-06 3.9976L0.507929 3.11813Z" fill="#FFD103"/>
<path d="M2.39901 0.453061L2.57874 0.0977173L3.44614 1.87443H0.546997L0.765801 1.49244H2.84443L2.39901 0.453061Z" fill="#318EDE"/>
<path d="M4.40734 1.43914L4.58707 1.79448L5.45447 0.0177625H3.70404L3.92284 0.399757H4.85276L4.40734 1.43914Z" fill="#318EDE"/>
</svg>
