<svg width="16" height="8" viewBox="0 0 16 8" fill="none" xmlns="http://www.w3.org/2000/svg">
<path d="M6.12646 3.65616H7.06419L8.22073 5.57851L8.56456 6.10989H13.3689L9.42414 3.39047L9.90864 2.57777L16 7.03716H8.01775L7.15797 5.57851L6.12646 3.65616Z" fill="#318EDE"/>
<path d="M6.12646 0.0312653H7.06419L10.315 5.50135H9.25223L6.12646 0.0312653Z" fill="#FFD103"/>
<path d="M1.01586 5.48571H0.375076L4.25102 -6.67572e-06H5.06372L1.46909 5.48571H1.56287H2.09425L-1.57356e-05 7.03296L1.01586 5.48571Z" fill="#FFD103"/>
<path d="M4.79802 0.797073L5.15749 0.171921L6.89228 3.29768H1.09399L1.5316 2.62564H5.68887L4.79802 0.797073Z" fill="#318EDE"/>
<path d="M8.81467 2.53188L9.17414 3.15703L10.9089 0.0312648H7.40808L7.84569 0.703304H9.70552L8.81467 2.53188Z" fill="#318EDE"/>
</svg>
