<svg width="217" height="225" viewBox="0 0 217 225" fill="none" xmlns="http://www.w3.org/2000/svg">
<g filter="url(#filter0_d)">
<path fill-rule="evenodd" clip-rule="evenodd" d="M48.627 26.156L48.5721 31.374L43.3541 31.3191L38.136 31.2642L37.5375 88.3552L36.9385 145.449L42.1557 145.499L47.3743 145.557L47.3186 150.771L47.2645 155.993L78.2657 156.32L109.267 156.646L109.482 136.078L109.697 115.509L99.7013 115.41C91.4463 115.325 89.6285 115.23 89.2698 114.86C88.7344 114.313 88.715 113.555 89.2307 113.351C89.5218 113.239 89.5038 113.113 89.1595 112.844C88.8137 112.568 88.7971 112.449 89.0876 112.329C89.5441 112.153 89.6222 111.005 89.1775 110.997C88.9809 110.997 88.9022 108.075 88.9574 102.844C89.0268 96.1811 89.1239 94.6054 89.4858 94.2515C89.8519 93.8926 91.6706 93.8351 99.9267 93.9224L109.924 94.0299L110.139 73.4615L110.355 52.8966L115.573 52.9515L120.791 53.0064L120.846 47.7883L120.901 42.5703L136.555 42.7342L152.209 42.8989L152.099 53.3351L151.991 63.771L141.993 63.6662C133.064 63.5719 131.94 63.6151 131.477 64.0682C131.1 64.4368 131.063 64.6106 131.339 64.7064C131.834 64.8773 131.814 66.5251 131.315 66.7517C131.006 66.8918 131.006 66.9629 131.311 67.1099C131.8 67.3441 131.613 92.4136 131.121 92.405C130.666 92.3988 130.741 93.3033 131.239 93.813C131.596 94.1743 133.414 94.2694 141.671 94.3634L151.667 94.4625L151.56 104.768C151.463 113.981 151.397 115.127 150.934 115.581C150.557 115.951 150.382 115.982 150.293 115.703C150.147 115.252 148.996 115.178 148.991 115.621C148.988 115.812 146.122 115.893 141.006 115.842C135.891 115.792 133.027 115.647 133.028 115.448C133.031 115.283 132.756 115.141 132.419 115.14C132.081 115.13 131.802 115.266 131.802 115.439C131.8 115.604 131.521 115.74 131.184 115.738C130.847 115.737 130.57 115.873 130.567 116.038C130.566 116.211 130.701 116.343 130.871 116.348C131.072 116.347 131.106 123.208 130.969 136.307C130.83 149.398 130.653 156.252 130.453 156.253C130.283 156.248 130.144 156.385 130.143 156.559C130.14 156.758 135.561 156.919 145.793 157.029L161.446 157.187L161.502 151.973L161.556 146.751L166.774 146.809L171.993 146.867L172.593 89.777L173.19 32.6818L167.973 32.6267L162.755 32.5727L162.809 27.3548L162.864 22.1367L105.773 21.5374L48.6819 20.938L48.627 26.156Z" fill="#F8CC14"/>
</g>
<g filter="url(#filter1_d)">
<path d="M13.9417 180.24L12.4643 187.627H25.4415L24.3634 192.818H11.466L9.42958 203H2.92099L8.51119 175.049H29.6342L28.556 180.24H13.9417ZM53.5522 181.518L49.2797 203H43.3701L43.7694 200.884C41.9858 202.508 39.7897 203.319 37.1809 203.319C35.5039 203.319 33.9599 202.933 32.549 202.161C31.1382 201.389 30.0068 200.285 29.155 198.847C28.3298 197.383 27.9172 195.666 27.9172 193.696C27.9172 191.327 28.4363 189.198 29.4744 187.308C30.5392 185.391 31.9767 183.9 33.7869 182.835C35.597 181.744 37.5935 181.198 39.7764 181.198C43.0773 181.198 45.4065 182.276 46.7641 184.433L47.3231 181.518H53.5522ZM39.0976 198.168C40.3221 198.168 41.4135 197.876 42.3718 197.29C43.3301 196.678 44.0755 195.839 44.6079 194.774C45.1403 193.71 45.4065 192.485 45.4065 191.101C45.4065 189.637 44.9673 188.479 44.0888 187.627C43.237 186.775 42.0391 186.349 40.4951 186.349C39.2706 186.349 38.1792 186.655 37.2209 187.268C36.2625 187.853 35.5172 188.678 34.9848 189.743C34.4524 190.808 34.1862 192.033 34.1862 193.417C34.1862 194.881 34.6121 196.039 35.4639 196.891C36.3424 197.743 37.5536 198.168 39.0976 198.168ZM66.3869 203.319C64.1775 203.319 62.2475 202.92 60.5971 202.122C58.9466 201.323 57.6689 200.205 56.7638 198.767C55.8853 197.303 55.4461 195.613 55.4461 193.696C55.4461 191.327 56.0051 189.198 57.1232 187.308C58.2412 185.417 59.7985 183.927 61.795 182.835C63.7915 181.744 66.0409 181.198 68.5431 181.198C70.8325 181.198 72.8023 181.677 74.4528 182.636C76.1298 183.567 77.381 184.898 78.2062 186.629L72.9354 189.264C72.0037 187.321 70.4065 186.349 68.1438 186.349C66.9193 186.349 65.8146 186.655 64.8296 187.268C63.8713 187.853 63.1127 188.678 62.5536 189.743C62.0212 190.808 61.755 192.019 61.755 193.377C61.755 194.841 62.1943 196.012 63.0727 196.891C63.9512 197.743 65.1757 198.168 66.7463 198.168C69.0356 198.168 70.7925 197.21 72.017 195.294L76.609 198.168C75.5708 199.792 74.1466 201.057 72.3365 201.962C70.5529 202.867 68.5698 203.319 66.3869 203.319ZM101.684 190.662C101.684 191.647 101.565 192.738 101.325 193.936H84.8739C85.0868 196.864 86.9369 198.328 90.4242 198.328C91.5156 198.328 92.5538 198.155 93.5387 197.809C94.5503 197.463 95.4287 196.971 96.1741 196.332L98.7695 200.444C97.5716 201.403 96.2007 202.122 94.6567 202.601C93.1128 203.08 91.489 203.319 89.7853 203.319C87.5758 203.319 85.6326 202.933 83.9555 202.161C82.3051 201.363 81.0273 200.232 80.1222 198.767C79.2438 197.303 78.8045 195.613 78.8045 193.696C78.8045 191.327 79.3369 189.198 80.4017 187.308C81.4931 185.391 82.9972 183.9 84.9138 182.835C86.8305 181.744 89.0133 181.198 91.4623 181.198C93.5387 181.198 95.3355 181.584 96.8529 182.356C98.3968 183.128 99.5814 184.233 100.407 185.67C101.258 187.108 101.684 188.772 101.684 190.662ZM91.1828 185.87C89.7187 185.87 88.4809 186.269 87.4693 187.068C86.4578 187.84 85.739 188.918 85.3131 190.302H95.9744C95.9744 188.918 95.5352 187.84 94.6567 187.068C93.8049 186.269 92.6469 185.87 91.1828 185.87ZM119.77 181.198C121.447 181.198 122.991 181.584 124.402 182.356C125.839 183.128 126.971 184.246 127.796 185.71C128.648 187.148 129.074 188.851 129.074 190.821C129.074 193.191 128.541 195.333 127.476 197.25C126.438 199.14 125.014 200.631 123.204 201.722C121.394 202.787 119.384 203.319 117.174 203.319C115.497 203.319 114.047 203.027 112.822 202.441C111.598 201.855 110.653 200.977 109.987 199.806L109.348 203H103.439L109.348 173.372H115.577L113.581 183.354C115.311 181.917 117.374 181.198 119.77 181.198ZM116.456 198.168C117.68 198.168 118.772 197.876 119.73 197.29C120.688 196.678 121.434 195.839 121.966 194.774C122.498 193.71 122.765 192.485 122.765 191.101C122.765 189.637 122.325 188.479 121.447 187.627C120.595 186.775 119.397 186.349 117.853 186.349C116.655 186.349 115.577 186.655 114.619 187.268C113.661 187.853 112.915 188.678 112.383 189.743C111.85 190.808 111.584 192.033 111.584 193.417C111.584 194.881 112.01 196.039 112.862 196.891C113.714 197.743 114.912 198.168 116.456 198.168ZM142.228 203.319C140.071 203.319 138.168 202.92 136.518 202.122C134.894 201.323 133.629 200.205 132.724 198.767C131.846 197.303 131.407 195.613 131.407 193.696C131.407 191.327 131.966 189.198 133.084 187.308C134.202 185.417 135.746 183.927 137.716 182.835C139.685 181.744 141.908 181.198 144.384 181.198C146.567 181.198 148.47 181.598 150.094 182.396C151.718 183.195 152.969 184.326 153.847 185.79C154.752 187.228 155.205 188.905 155.205 190.821C155.205 193.191 154.646 195.32 153.528 197.21C152.436 199.1 150.893 200.591 148.896 201.682C146.926 202.774 144.703 203.319 142.228 203.319ZM142.627 198.168C143.825 198.168 144.903 197.876 145.861 197.29C146.82 196.678 147.565 195.839 148.097 194.774C148.63 193.71 148.896 192.485 148.896 191.101C148.896 189.637 148.47 188.479 147.618 187.627C146.766 186.775 145.569 186.349 144.025 186.349C142.8 186.349 141.709 186.655 140.75 187.268C139.792 187.853 139.047 188.678 138.514 189.743C137.982 190.808 137.716 192.033 137.716 193.417C137.716 194.881 138.142 196.039 138.993 196.891C139.872 197.743 141.083 198.168 142.627 198.168ZM168.354 203.319C166.198 203.319 164.294 202.92 162.644 202.122C161.02 201.323 159.756 200.205 158.85 198.767C157.972 197.303 157.533 195.613 157.533 193.696C157.533 191.327 158.092 189.198 159.21 187.308C160.328 185.417 161.872 183.927 163.842 182.835C165.812 181.744 168.034 181.198 170.51 181.198C172.693 181.198 174.596 181.598 176.22 182.396C177.844 183.195 179.095 184.326 179.973 185.79C180.878 187.228 181.331 188.905 181.331 190.821C181.331 193.191 180.772 195.32 179.654 197.21C178.563 199.1 177.019 200.591 175.022 201.682C173.052 202.774 170.829 203.319 168.354 203.319ZM168.753 198.168C169.951 198.168 171.029 197.876 171.987 197.29C172.946 196.678 173.691 195.839 174.223 194.774C174.756 193.71 175.022 192.485 175.022 191.101C175.022 189.637 174.596 188.479 173.744 187.627C172.892 186.775 171.695 186.349 170.151 186.349C168.926 186.349 167.835 186.655 166.876 187.268C165.918 187.853 165.173 188.678 164.64 189.743C164.108 190.808 163.842 192.033 163.842 193.417C163.842 194.881 164.268 196.039 165.119 196.891C165.998 197.743 167.209 198.168 168.753 198.168ZM199.271 190.861L206.659 203H199.431L194.32 194.655L190.527 197.809L189.489 203H183.26L189.169 173.372H195.398L192.084 189.943L202.386 181.518H210.492L199.271 190.861Z" fill="#F8CC14"/>
</g>
<defs>
<filter id="filter0_d" x="16" y="0" width="184.128" height="184.125" filterUnits="userSpaceOnUse" color-interpolation-filters="sRGB">
<feFlood flood-opacity="0" result="BackgroundImageFix"/>
<feColorMatrix in="SourceAlpha" type="matrix" values="0 0 0 0 0 0 0 0 0 0 0 0 0 0 0 0 0 0 127 0"/>
<feOffset dx="6" dy="6"/>
<feColorMatrix type="matrix" values="0 0 0 0 0 0 0 0 0 0.478431 0 0 0 0 0.878431 0 0 0 1 0"/>
<feBlend mode="normal" in2="BackgroundImageFix" result="effect1_dropShadow"/>
<feBlend mode="normal" in="SourceGraphic" in2="effect1_dropShadow" result="shape"/>
</filter>
<filter id="filter1_d" x="2.92188" y="173.372" width="213.571" height="35.9475" filterUnits="userSpaceOnUse" color-interpolation-filters="sRGB">
<feFlood flood-opacity="0" result="BackgroundImageFix"/>
<feColorMatrix in="SourceAlpha" type="matrix" values="0 0 0 0 0 0 0 0 0 0 0 0 0 0 0 0 0 0 127 0"/>
<feOffset dx="6" dy="6"/>
<feColorMatrix type="matrix" values="0 0 0 0 0 0 0 0 0 0.478431 0 0 0 0 0.878431 0 0 0 1 0"/>
<feBlend mode="normal" in2="BackgroundImageFix" result="effect1_dropShadow"/>
<feBlend mode="normal" in="SourceGraphic" in2="effect1_dropShadow" result="shape"/>
</filter>
</defs>
</svg>
