<svg width="526" height="934" viewBox="0 0 526 934" fill="none" xmlns="http://www.w3.org/2000/svg">
<rect x="29" width="468" height="934" fill="#999999"/>
<rect x="29" width="468" height="934" fill="#007AE0"/>
<path fill-rule="evenodd" clip-rule="evenodd" d="M315.6 272.462V324.923H289.3H263V338.038V351.154H249.85H236.7V377.385V403.615H223.55H210.4V429.846V456.077H197.25H184.1V469.192V482.308H170.95H157.8V508.538V534.769H170.95H184.1V521.654V508.538H197.25H210.4V482.308V456.077H236.7H263V482.308V508.538H249.85H236.7V534.769V561H223.55H210.4V574.115V587.231H197.25H184.1V613.462V639.692H170.95H157.8V652.808V665.923H131.5H105.2V639.692V613.462H78.9H52.6V626.577V639.692H26.3H0V665.923V692.154H52.6H105.2V705.269V718.385H118.35H131.5V731.5V744.615H157.8H184.1V731.5V718.385H197.25H210.4V705.269V692.154H236.7H263V679.038V665.923H276.15H289.3V652.808V639.692H302.45H315.6V652.808V665.923H328.75H341.9V679.038V692.154H355.05H368.2V705.269V718.385H394.5H420.8V731.5V744.615V757.731V770.846V836.423V902H473.4H526V875.769V849.538H499.7H473.4V770.846V692.154H460.25H447.1V665.923V639.692H433.95H420.8V626.577V613.462H407.65H394.5V482.308V351.154H407.65H420.8V338.038V324.923H433.95H447.1V298.692V272.462H460.25H473.4V246.231V220H460.25H447.1V233.115V246.231H433.95H420.8V272.462V298.692H407.65H394.5V259.346V220H355.05H315.6V272.462ZM394.5 311.808V324.923H381.35H368.2V311.808V298.692H381.35H394.5V311.808ZM289.3 810.192V823.308H276.15H263V849.538V875.769H276.15H289.3V888.885V902H315.6H341.9V888.885V875.769H355.05H368.2V849.538V823.308H355.05H341.9V810.192V797.077H315.6H289.3V810.192Z" fill="#F9CC14"/>
</svg>
