<svg width="336" height="336" viewBox="0 0 336 336" fill="none" xmlns="http://www.w3.org/2000/svg">
<rect y="-0.000976562" width="336" height="336" fill="#007AE0"/>
<path d="M99.25 290.265V292.999H89.875V289.874H86.75V274.249H89.875V271.124H105.5V277.374H102.375V274.249H93V289.874H98.8594L99.25 289.483V283.624H96.125V280.499H105.5V292.999H102.375V289.874H99.6406L99.25 290.265ZM121.125 283.624V274.249H114.875V283.624H121.125ZM114.875 286.749V292.999H108.625V274.249H111.75V271.124H124.25V274.249H127.375V292.999H121.125V286.749H114.875ZM133.625 283.624V292.999H130.5V271.124H136.75V277.374H146.125V271.124H152.375V292.999H146.125V283.624H143V289.874H136.75V283.624H133.625ZM155.5 292.999V271.124H171.125V274.249H161.75V280.499H171.125V283.624H161.75V289.874H171.125V292.999H155.5ZM199.25 274.249H193V289.874H199.25V274.249ZM186.75 292.999V271.124H202.375V274.249H205.5V289.874H202.375V292.999H186.75ZM208.625 292.999V271.124H224.25V274.249H214.875V280.499H224.25V283.624H214.875V289.874H224.25V292.999H208.625ZM239.875 286.749V271.124H246.125V286.749H243V289.874H239.875V292.999H233.625V289.874H230.5V286.749H227.375V271.124H233.625V286.749H239.875Z" fill="white"/>
<path d="M146.119 197.7L148.654 207.163L96.9688 221.013L94.4331 211.549L83.1496 214.572L80.7114 205.473L73.7957 207.326L50.3888 119.97L59.4884 117.532L57.6353 110.616L66.7349 108.178L64.1991 98.7144L237.455 52.2906L239.991 61.7542L249.09 59.316L250.943 66.2316L257.859 64.3786L281.266 151.734L274.35 153.587L276.788 162.687L267.689 165.125L270.225 174.589L218.539 188.438L216.003 178.974L146.119 197.7Z" fill="white"/>
<rect x="152.16" y="154.729" width="8.2901" height="8.2901" transform="rotate(-15 152.16 154.729)" fill="#C4C4C4"/>
<rect x="157.824" y="143.848" width="8.2901" height="8.2901" transform="rotate(-15 157.824 143.848)" fill="#C4C4C4"/>
<rect x="178.369" y="147.707" width="8.2901" height="8.2901" transform="rotate(-15 178.369 147.707)" fill="#C4C4C4"/>
<rect x="184.033" y="136.825" width="8.2901" height="8.2901" transform="rotate(-15 184.033 136.825)" fill="#C4C4C4"/>
<rect x="90.0332" y="123.781" width="14.3193" height="42.9578" transform="rotate(-15 90.0332 123.781)" fill="#F9CC14"/>
<rect x="84.1641" y="155.487" width="14.3193" height="42.9578" transform="rotate(-105 84.1641 155.487)" fill="#F9CC14"/>
<path d="M269.208 135.85L276.488 133.899L281.267 151.734L274.813 153.854L276.425 162.785L268.054 165.028L270.589 174.491L218.54 188.438L216.004 178.974L146.483 197.602L149.019 207.066L96.9696 221.013L94.4339 211.549L83.1504 214.572L80.7122 205.473L73.7965 207.326L69.0176 189.491L75.9333 187.638L78.5665 197.465L88.758 194.734L90.9037 202.742L142.589 188.893L140.444 180.885L211.42 161.867L213.566 169.875L265.615 155.928L263.47 147.921L271.841 145.677L269.208 135.85Z" fill="#C4C4C4"/>
<rect x="215.244" y="90.2319" width="13.5656" height="13.5656" transform="rotate(-15 215.244 90.2319)" fill="#F2C94C"/>
<rect x="223.047" y="119.351" width="13.5656" height="13.5656" transform="rotate(-15 223.047 119.351)" fill="#F2C94C"/>
<rect x="203.857" y="108.888" width="13.5656" height="13.5656" transform="rotate(-15 203.857 108.888)" fill="#F2C94C"/>
<rect x="234.43" y="100.695" width="13.5656" height="13.5656" transform="rotate(-15 234.43 100.695)" fill="#F2C94C"/>
</svg>
