<svg width="336" height="336" viewBox="0 0 336 336" fill="none" xmlns="http://www.w3.org/2000/svg">
<rect width="336" height="336" fill="#007AE0"/>
<path d="M58.665 123.521H61.8678V125.122H60.2664V126.724H53.8608V125.122H52.2594V117.115H53.8608V115.514H60.2664V117.115H61.8678V118.717H58.665V117.115H55.4622V125.122H58.665V123.521ZM76.2805 117.115H73.0777V120.318H77.8819V121.919H79.4834V125.122H77.8819V126.724H71.4763V125.122H69.8749V123.521H73.0777V125.122H76.2805V121.919H71.4763V120.318H69.8749V117.115H71.4763V115.514H77.8819V117.115H79.4834V118.717H76.2805V117.115ZM87.4904 115.514H90.6932V126.724H87.4904V121.919H84.2876V126.724H81.0848V115.514H84.2876V120.318H87.4904V115.514ZM98.7003 121.919V117.115H95.4975V121.919H98.7003ZM95.4975 123.521V126.724H92.2946V117.115H93.896V115.514H100.302V117.115H101.903V126.724H98.7003V123.521H95.4975ZM109.91 117.115H106.707V120.318H109.91V117.115ZM111.512 121.919H113.113V126.724H109.91V121.919H106.707V126.724H103.505V115.514H111.512V117.115H113.113V120.318H111.512V121.919ZM121.12 117.115H117.917V120.318H121.12V117.115ZM122.721 120.318V121.919H117.917V126.724H114.714V115.514H122.721V117.115H124.323V120.318H122.721Z" fill="white"/>
<path d="M74.6704 82.7363H88.9341V89.8682H81.8022V97H53.2749V89.8682H46.1431V54.209H53.2749V47.0771H81.8022V54.209H88.9341V61.3408H74.6704V54.209H60.4067V89.8682H74.6704V82.7363ZM117.461 82.7363H110.33V89.8682H103.198V82.7363H96.0659V75.6045H103.198V68.4727H96.0659V61.3408H103.198V54.209H110.33V61.3408H117.461V54.209H124.593V61.3408H131.725V68.4727H124.593V75.6045H131.725V82.7363H124.593V89.8682H117.461V82.7363ZM110.33 75.6045H117.461V68.4727H110.33V75.6045Z" fill="#F9CC14"/>
<path d="M199.85 119.424H203.053V129.032H201.452V130.634H195.046V127.431H196.647V129.032H199.85V119.424ZM211.06 125.83V121.025H207.857V125.83H211.06ZM207.857 127.431V130.634H204.654V121.025H206.256V119.424H212.661V121.025H214.263V130.634H211.06V127.431H207.857ZM222.27 127.431V119.424H225.473V127.431H223.871V129.032H222.27V130.634H219.067V129.032H217.466V127.431H215.864V119.424H219.067V127.431H222.27ZM233.48 125.83V121.025H230.277V125.83H233.48ZM230.277 127.431V130.634H227.074V121.025H228.676V119.424H235.081V121.025H236.683V130.634H233.48V127.431H230.277ZM244.69 121.025H241.487V124.228H246.291V125.83H247.893V129.032H246.291V130.634H239.885V129.032H238.284V127.431H241.487V129.032H244.69V125.83H239.885V124.228H238.284V121.025H239.885V119.424H246.291V121.025H247.893V122.627H244.69V121.025ZM255.9 127.431H259.102V129.032H257.501V130.634H251.095V129.032H249.494V121.025H251.095V119.424H257.501V121.025H259.102V122.627H255.9V121.025H252.697V129.032H255.9V127.431ZM267.109 121.025H263.907V124.228H267.109V121.025ZM268.711 125.83H270.312V130.634H267.109V125.83H263.907V130.634H260.704V119.424H268.711V121.025H270.312V124.228H268.711V125.83ZM271.914 130.634V119.424H275.116V130.634H271.914ZM283.124 121.025H279.921V124.228H283.124V121.025ZM284.725 124.228V125.83H279.921V130.634H276.718V119.424H284.725V121.025H286.326V124.228H284.725ZM297.536 119.424V121.025H294.333V130.634H291.131V121.025H287.928V119.424H297.536Z" fill="white"/>
<path d="M203.057 281.481H199.854V284.684H203.057V281.481ZM204.658 284.684V286.285H199.854V291.089H196.651V279.879H204.658V281.481H206.259V284.684H204.658ZM214.266 279.879H217.469V291.089H214.266V286.285H211.064V291.089H207.861V279.879H211.064V284.684H214.266V279.879ZM225.476 286.285V281.481H222.273V286.285H225.476ZM222.273 287.887V291.089H219.071V281.481H220.672V279.879H227.078V281.481H228.679V291.089H225.476V287.887H222.273ZM236.686 281.481H233.483V284.684H238.288V286.285H239.889V289.488H238.288V291.089H231.882V289.488H230.281V287.887H233.483V289.488H236.686V286.285H231.882V284.684H230.281V281.481H231.882V279.879H238.288V281.481H239.889V283.082H236.686V281.481ZM241.49 291.089V279.879H249.497V281.481H244.693V284.684H249.497V286.285H244.693V289.488H249.497V291.089H241.49ZM257.505 281.481H254.302V284.684H257.505V281.481ZM259.106 286.285H260.707V291.089H257.505V286.285H254.302V291.089H251.099V279.879H259.106V281.481H260.707V284.684H259.106V286.285ZM273.519 279.879H276.721V289.488H275.12V291.089H268.714V287.887H270.316V289.488H273.519V279.879ZM284.728 281.481H281.526V284.684H286.33V286.285H287.931V289.488H286.33V291.089H279.924V289.488H278.323V287.887H281.526V289.488H284.728V286.285H279.924V284.684H278.323V281.481H279.924V279.879H286.33V281.481H287.931V283.082H284.728V281.481Z" fill="white"/>
<path d="M194.282 228.646H187.831V235.098H194.282V228.646ZM197.507 235.098V238.323H187.831V248H181.379V225.421H197.507V228.646H200.733V235.098H197.507ZM216.861 225.421H223.312V248H216.861V238.323H210.41V248H203.958V225.421H210.41V235.098H216.861V225.421ZM239.44 238.323V228.646H232.989V238.323H239.44ZM232.989 241.549V248H226.538V228.646H229.763V225.421H242.666V228.646H245.891V248H239.44V241.549H232.989ZM262.019 228.646H255.568V235.098H265.245V238.323H268.47V244.774H265.245V248H252.342V244.774H249.117V241.549H255.568V244.774H262.019V238.323H252.342V235.098H249.117V228.646H252.342V225.421H265.245V228.646H268.47V231.872H262.019V228.646ZM271.696 248V225.421H287.824V228.646H278.147V235.098H287.824V238.323H278.147V244.774H287.824V248H271.696ZM303.952 228.646H297.5V235.098H303.952V228.646ZM307.177 238.323H310.403V248H303.952V238.323H297.5V248H291.049V225.421H307.177V228.646H310.403V235.098H307.177V238.323Z" fill="#F9CC14"/>
<path d="M56.2629 281.879H59.4657V293.089H51.4587V291.488H49.8573V281.879H53.0601V291.488H56.2629V281.879ZM62.6685 288.285V293.089H61.0671V281.879H64.27V285.082H65.8714V288.285H67.4728V281.879H70.6756V293.089H67.4728V291.488H64.27V288.285H62.6685ZM72.277 293.089V281.879H75.4798V293.089H72.277ZM86.6897 281.879V283.481H83.4869V293.089H80.2841V283.481H77.0812V281.879H86.6897ZM94.6967 286.684V281.879H97.8996V286.684H96.2982V288.285H94.6967V293.089H91.4939V288.285H89.8925V286.684H88.2911V281.879H91.4939V286.684H94.6967ZM109.109 288.285V286.684H112.312V283.481H109.109V285.082H105.907V283.481H107.508V281.879H113.914V283.481H115.515V286.684H113.914V288.285H115.515V291.488H113.914V293.089H107.508V291.488H105.907V289.887H109.109V291.488H112.312V288.285H109.109ZM123.522 283.481H120.319V291.488H123.522V283.481ZM117.116 293.089V281.879H125.124V283.481H126.725V291.488H125.124V293.089H117.116Z" fill="white"/>
<path fill-rule="evenodd" clip-rule="evenodd" d="M115 177V179H107H99V181V183H93H87V185V187H85H83V191V195H75H67V197V199H65H63V201V203H61H59V205V207H57H55V209V211H53H51V213V215H49H47V217V219H45H43V221V223H45H47V225V227H49H51V229V231H53H55V233V235H57H59V237V239H61H63V241V243H65H67V245V247H73H79V245V243H77H75V241V239H73H71V237V235H69H67V233V231H65H63V229V227H79H95V229V231H97H99V235V239H101H103V241V243H105H107V247V251H99H91V249V247H87H83V251V255H85H87V257V259H93H99V261V263H107H115V265V267H119H123V265V263H125H127V255V247H129H131V235V223H127H123V231V239H121H119V243V247H117H115V243V239H113H111V237V235H109H107V231V227H105H103V221V215H105H107V213V211H109H111V207V203H113H115V199V195H117H119V199V203H121H123V211V219H127H131V207V195H129H127V187V179H125H123V177V175H119H115V177ZM107 195V199H105H103V201V203H101H99V207V211H97H95V213V215H81H67V213V211H69H71V209V207H73H75V205V203H77H79V201V199H81H83V197V195H89H95V193V191H101H107V195ZM111 253V255H109H107V253V251H109H111V253Z" fill="#F9CC14"/>
<rect x="211" y="32" width="77" height="77" fill="#F9CC14"/>
<path d="M248.559 79.1172H255.668V100.445H252.113V104H237.895V96.8906H241.449V100.445H248.559V79.1172ZM273.441 82.6719H266.332V89.7812H276.996V93.3359H280.551V100.445H276.996V104H262.777V100.445H259.223V96.8906H266.332V100.445H273.441V93.3359H262.777V89.7812H259.223V82.6719H262.777V79.1172H276.996V82.6719H280.551V86.2266H273.441V82.6719Z" fill="#007AE0"/>
</svg>
