<svg width="516" height="832" viewBox="0 0 516 832" fill="none" xmlns="http://www.w3.org/2000/svg">
<path d="M0.527344 706.214H515.116V0.972168L0.527344 1.22789V706.214Z" fill="#007AE0"/>
<path d="M78.7239 440.009H84.9179L79.5979 466.609H73.4039L78.7239 440.009ZM107.046 466.913C104.944 466.913 103.107 466.533 101.536 465.773C99.9657 465.013 98.7497 463.949 97.8883 462.581C97.0523 461.188 96.6343 459.579 96.6343 457.755C96.6343 455.501 97.1663 453.474 98.2303 451.675C99.2943 449.877 100.776 448.458 102.676 447.419C104.576 446.381 106.717 445.861 109.098 445.861C111.277 445.861 113.152 446.317 114.722 447.229C116.318 448.116 117.509 449.383 118.294 451.029L113.278 453.537C112.392 451.688 110.872 450.763 108.718 450.763C107.553 450.763 106.502 451.055 105.564 451.637C104.652 452.195 103.93 452.98 103.398 453.993C102.892 455.007 102.638 456.159 102.638 457.451C102.638 458.845 103.056 459.959 103.892 460.795C104.728 461.606 105.894 462.011 107.388 462.011C109.567 462.011 111.239 461.099 112.404 459.275L116.774 462.011C115.786 463.557 114.431 464.76 112.708 465.621C111.011 466.483 109.124 466.913 107.046 466.913ZM143.26 446.165L139.194 466.609H133.57L133.95 464.595C132.252 466.141 130.162 466.913 127.68 466.913C126.084 466.913 124.614 466.546 123.272 465.811C121.929 465.077 120.852 464.025 120.042 462.657C119.256 461.264 118.864 459.63 118.864 457.755C118.864 455.501 119.358 453.474 120.346 451.675C121.359 449.851 122.727 448.433 124.45 447.419C126.172 446.381 128.072 445.861 130.15 445.861C133.291 445.861 135.508 446.887 136.8 448.939L137.332 446.165H143.26ZM129.504 462.011C130.669 462.011 131.708 461.733 132.62 461.175C133.532 460.593 134.241 459.795 134.748 458.781C135.254 457.768 135.508 456.603 135.508 455.285C135.508 453.892 135.09 452.79 134.254 451.979C133.443 451.169 132.303 450.763 130.834 450.763C129.668 450.763 128.63 451.055 127.718 451.637C126.806 452.195 126.096 452.98 125.59 453.993C125.083 455.007 124.83 456.172 124.83 457.489C124.83 458.883 125.235 459.985 126.046 460.795C126.882 461.606 128.034 462.011 129.504 462.011ZM160.642 445.861C162.922 445.861 164.733 446.469 166.076 447.685C167.419 448.876 168.09 450.586 168.09 452.815C168.09 453.651 168.001 454.475 167.824 455.285L165.544 466.609H159.616L161.82 455.665C161.921 455.235 161.972 454.766 161.972 454.259C161.972 453.195 161.681 452.385 161.098 451.827C160.515 451.27 159.641 450.991 158.476 450.991C156.956 450.991 155.689 451.435 154.676 452.321C153.688 453.183 153.017 454.487 152.662 456.235L150.61 466.609H144.682L148.748 446.165H154.372L153.916 448.369C155.74 446.697 157.982 445.861 160.642 445.861ZM211.433 445.861C213.663 445.861 215.436 446.469 216.753 447.685C218.071 448.876 218.729 450.573 218.729 452.777C218.729 453.588 218.641 454.424 218.463 455.285L216.221 466.609H210.293L212.459 455.703C212.561 455.197 212.611 454.677 212.611 454.145C212.611 453.107 212.333 452.321 211.775 451.789C211.243 451.257 210.445 450.991 209.381 450.991C206.519 450.991 204.733 452.701 204.023 456.121L201.933 466.609H196.005L198.171 455.703C198.273 455.197 198.323 454.69 198.323 454.183C198.323 453.145 198.045 452.359 197.487 451.827C196.955 451.27 196.157 450.991 195.093 450.991C192.231 450.991 190.432 452.727 189.697 456.197L187.645 466.609H181.717L185.783 446.165H191.407L190.951 448.293C192.725 446.672 194.865 445.861 197.373 445.861C198.792 445.861 200.046 446.153 201.135 446.735C202.25 447.293 203.086 448.116 203.643 449.205C204.631 448.116 205.784 447.293 207.101 446.735C208.419 446.153 209.863 445.861 211.433 445.861ZM246.609 446.165L242.543 466.609H236.919L237.299 464.595C235.602 466.141 233.512 466.913 231.029 466.913C229.433 466.913 227.964 466.546 226.621 465.811C225.279 465.077 224.202 464.025 223.391 462.657C222.606 461.264 222.213 459.63 222.213 457.755C222.213 455.501 222.707 453.474 223.695 451.675C224.709 449.851 226.077 448.433 227.799 447.419C229.522 446.381 231.422 445.861 233.499 445.861C236.641 445.861 238.857 446.887 240.149 448.939L240.681 446.165H246.609ZM232.853 462.011C234.019 462.011 235.057 461.733 235.969 461.175C236.881 460.593 237.591 459.795 238.097 458.781C238.604 457.768 238.857 456.603 238.857 455.285C238.857 453.892 238.439 452.79 237.603 451.979C236.793 451.169 235.653 450.763 234.183 450.763C233.018 450.763 231.979 451.055 231.067 451.637C230.155 452.195 229.446 452.98 228.939 453.993C228.433 455.007 228.179 456.172 228.179 457.489C228.179 458.883 228.585 459.985 229.395 460.795C230.231 461.606 231.384 462.011 232.853 462.011ZM263.27 455.057L270.3 466.609H263.422L258.558 458.667L254.948 461.669L253.96 466.609H248.032L253.656 438.413H259.584L256.43 454.183L266.234 446.165H273.948L263.27 455.057ZM293.825 454.867C293.825 455.805 293.711 456.843 293.483 457.983H277.827C278.03 460.77 279.791 462.163 283.109 462.163C284.148 462.163 285.136 461.999 286.073 461.669C287.036 461.34 287.872 460.871 288.581 460.263L291.051 464.177C289.911 465.089 288.607 465.773 287.137 466.229C285.668 466.685 284.123 466.913 282.501 466.913C280.399 466.913 278.549 466.546 276.953 465.811C275.383 465.051 274.167 463.975 273.305 462.581C272.469 461.188 272.051 459.579 272.051 457.755C272.051 455.501 272.558 453.474 273.571 451.675C274.61 449.851 276.041 448.433 277.865 447.419C279.689 446.381 281.767 445.861 284.097 445.861C286.073 445.861 287.783 446.229 289.227 446.963C290.697 447.698 291.824 448.749 292.609 450.117C293.42 451.485 293.825 453.069 293.825 454.867ZM283.831 450.307C282.438 450.307 281.26 450.687 280.297 451.447C279.335 452.182 278.651 453.208 278.245 454.525H288.391C288.391 453.208 287.973 452.182 287.137 451.447C286.327 450.687 285.225 450.307 283.831 450.307ZM331.412 446.165L328.03 463.189C327.27 467.04 325.801 469.852 323.622 471.625C321.469 473.399 318.581 474.285 314.958 474.285C312.982 474.285 311.158 474.057 309.486 473.601C307.84 473.145 306.421 472.474 305.23 471.587L308.042 467.293C308.853 467.977 309.892 468.509 311.158 468.889C312.45 469.295 313.806 469.497 315.224 469.497C317.226 469.497 318.746 469.054 319.784 468.167C320.823 467.306 321.532 465.989 321.912 464.215L322.064 463.341C320.418 464.861 318.34 465.621 315.832 465.621C314.135 465.621 312.602 465.279 311.234 464.595C309.866 463.886 308.777 462.885 307.966 461.593C307.181 460.301 306.788 458.781 306.788 457.033C306.788 454.956 307.282 453.069 308.27 451.371C309.258 449.674 310.614 448.331 312.336 447.343C314.084 446.355 316.035 445.861 318.188 445.861C319.784 445.861 321.178 446.165 322.368 446.773C323.584 447.356 324.496 448.268 325.104 449.509L325.75 446.165H331.412ZM317.428 460.757C319.151 460.757 320.57 460.2 321.684 459.085C322.799 457.971 323.356 456.539 323.356 454.791C323.356 453.55 322.951 452.575 322.14 451.865C321.33 451.131 320.202 450.763 318.758 450.763C317.01 450.763 315.566 451.321 314.426 452.435C313.312 453.55 312.754 454.981 312.754 456.729C312.754 457.971 313.172 458.959 314.008 459.693C314.844 460.403 315.984 460.757 317.428 460.757ZM357.678 446.165L353.612 466.609H347.988L348.368 464.595C346.67 466.141 344.58 466.913 342.098 466.913C340.502 466.913 339.032 466.546 337.69 465.811C336.347 465.077 335.27 464.025 334.46 462.657C333.674 461.264 333.282 459.63 333.282 457.755C333.282 455.501 333.776 453.474 334.764 451.675C335.777 449.851 337.145 448.433 338.868 447.419C340.59 446.381 342.49 445.861 344.568 445.861C347.709 445.861 349.926 446.887 351.218 448.939L351.75 446.165H357.678ZM343.922 462.011C345.087 462.011 346.126 461.733 347.038 461.175C347.95 460.593 348.659 459.795 349.166 458.781C349.672 457.768 349.926 456.603 349.926 455.285C349.926 453.892 349.508 452.79 348.672 451.979C347.861 451.169 346.721 450.763 345.252 450.763C344.086 450.763 343.048 451.055 342.136 451.637C341.224 452.195 340.514 452.98 340.008 453.993C339.501 455.007 339.248 456.172 339.248 457.489C339.248 458.883 339.653 459.985 340.464 460.795C341.3 461.606 342.452 462.011 343.922 462.011ZM388.816 445.861C391.045 445.861 392.819 446.469 394.136 447.685C395.453 448.876 396.112 450.573 396.112 452.777C396.112 453.588 396.023 454.424 395.846 455.285L393.604 466.609H387.676L389.842 455.703C389.943 455.197 389.994 454.677 389.994 454.145C389.994 453.107 389.715 452.321 389.158 451.789C388.626 451.257 387.828 450.991 386.764 450.991C383.901 450.991 382.115 452.701 381.406 456.121L379.316 466.609H373.388L375.554 455.703C375.655 455.197 375.706 454.69 375.706 454.183C375.706 453.145 375.427 452.359 374.87 451.827C374.338 451.27 373.54 450.991 372.476 450.991C369.613 450.991 367.815 452.727 367.08 456.197L365.028 466.609H359.1L363.166 446.165H368.79L368.334 448.293C370.107 446.672 372.248 445.861 374.756 445.861C376.175 445.861 377.429 446.153 378.518 446.735C379.633 447.293 380.469 448.116 381.026 449.205C382.014 448.116 383.167 447.293 384.484 446.735C385.801 446.153 387.245 445.861 388.816 445.861ZM421.37 454.867C421.37 455.805 421.256 456.843 421.028 457.983H405.372C405.575 460.77 407.336 462.163 410.654 462.163C411.693 462.163 412.681 461.999 413.618 461.669C414.581 461.34 415.417 460.871 416.126 460.263L418.596 464.177C417.456 465.089 416.152 465.773 414.682 466.229C413.213 466.685 411.668 466.913 410.046 466.913C407.944 466.913 406.094 466.546 404.498 465.811C402.928 465.051 401.712 463.975 400.85 462.581C400.014 461.188 399.596 459.579 399.596 457.755C399.596 455.501 400.103 453.474 401.116 451.675C402.155 449.851 403.586 448.433 405.41 447.419C407.234 446.381 409.312 445.861 411.642 445.861C413.618 445.861 415.328 446.229 416.772 446.963C418.242 447.698 419.369 448.749 420.154 450.117C420.965 451.485 421.37 453.069 421.37 454.867ZM411.376 450.307C409.983 450.307 408.805 450.687 407.842 451.447C406.88 452.182 406.196 453.208 405.79 454.525H415.936C415.936 453.208 415.518 452.182 414.682 451.447C413.872 450.687 412.77 450.307 411.376 450.307ZM430.488 466.913C428.714 466.913 427.03 466.723 425.434 466.343C423.863 465.938 422.634 465.419 421.748 464.785L424.028 460.491C424.914 461.074 425.991 461.543 427.258 461.897C428.55 462.252 429.842 462.429 431.134 462.429C432.476 462.429 433.477 462.265 434.136 461.935C434.794 461.581 435.124 461.087 435.124 460.453C435.124 459.947 434.832 459.579 434.25 459.351C433.667 459.123 432.73 458.883 431.438 458.629C429.968 458.351 428.752 458.047 427.79 457.717C426.852 457.388 426.029 456.856 425.32 456.121C424.636 455.361 424.294 454.335 424.294 453.043C424.294 450.789 425.231 449.028 427.106 447.761C429.006 446.495 431.488 445.861 434.554 445.861C435.972 445.861 437.353 446.013 438.696 446.317C440.038 446.621 441.178 447.039 442.116 447.571L439.988 451.903C438.316 450.865 436.302 450.345 433.946 450.345C432.654 450.345 431.666 450.535 430.982 450.915C430.323 451.295 429.994 451.777 429.994 452.359C429.994 452.891 430.285 453.284 430.868 453.537C431.45 453.765 432.426 454.019 433.794 454.297C435.238 454.576 436.416 454.88 437.328 455.209C438.265 455.513 439.076 456.033 439.76 456.767C440.444 457.502 440.786 458.503 440.786 459.769C440.786 462.049 439.823 463.81 437.898 465.051C435.998 466.293 433.528 466.913 430.488 466.913ZM79.016 492.165L67.73 512.609H61.878L59.522 499.879L52.492 512.609H46.716L43.106 492.165H48.502L50.744 505.921L58.42 492.165H63.512L65.83 505.921L73.43 492.165H79.016ZM81.6914 492.165H87.5814L83.5154 512.609H77.6254L81.6914 492.165ZM85.6434 489.315C84.6301 489.315 83.7941 489.024 83.1354 488.441C82.5021 487.833 82.1854 487.099 82.1854 486.237C82.1854 485.224 82.5401 484.388 83.2494 483.729C83.9841 483.045 84.9341 482.703 86.0994 482.703C87.1381 482.703 87.9741 482.995 88.6074 483.577C89.2661 484.135 89.5954 484.831 89.5954 485.667C89.5954 486.757 89.2281 487.643 88.4934 488.327C87.7588 488.986 86.8088 489.315 85.6434 489.315ZM97.074 505.389C97.0234 505.592 96.998 505.871 96.998 506.225C96.998 507.543 97.72 508.201 99.164 508.201C99.9494 508.201 100.747 507.961 101.558 507.479L102.432 511.697C101.115 512.508 99.4174 512.913 97.34 512.913C95.4147 512.913 93.8694 512.407 92.704 511.393C91.5387 510.38 90.956 508.987 90.956 507.213C90.956 506.707 91.0194 506.111 91.146 505.427L92.78 497.181H89.626L90.538 492.621H93.692L94.68 487.643H100.608L99.62 492.621H104.712L103.8 497.181H98.708L97.074 505.389ZM121.492 491.861C123.772 491.861 125.583 492.469 126.926 493.685C128.268 494.901 128.94 496.624 128.94 498.853C128.94 499.664 128.851 500.475 128.674 501.285L126.394 512.609H120.466L122.67 501.665C122.771 501.235 122.822 500.766 122.822 500.259C122.822 499.195 122.53 498.385 121.948 497.827C121.365 497.27 120.491 496.991 119.326 496.991C117.806 496.991 116.539 497.435 115.526 498.321C114.538 499.183 113.866 500.487 113.512 502.235L111.46 512.609H105.532L111.156 484.413H117.084L115.184 494.027C116.932 492.583 119.034 491.861 121.492 491.861ZM158.109 491.861C159.705 491.861 161.174 492.229 162.517 492.963C163.885 493.698 164.962 494.762 165.747 496.155C166.558 497.523 166.963 499.145 166.963 501.019C166.963 503.274 166.456 505.313 165.443 507.137C164.455 508.936 163.1 510.355 161.377 511.393C159.654 512.407 157.742 512.913 155.639 512.913C152.523 512.913 150.319 511.9 149.027 509.873L147.013 519.981H141.085L146.633 492.165H152.257L151.839 494.179C153.536 492.634 155.626 491.861 158.109 491.861ZM154.955 508.011C156.12 508.011 157.159 507.733 158.071 507.175C158.983 506.593 159.692 505.795 160.199 504.781C160.706 503.768 160.959 502.603 160.959 501.285C160.959 499.892 160.541 498.79 159.705 497.979C158.894 497.169 157.754 496.763 156.285 496.763C155.145 496.763 154.119 497.055 153.207 497.637C152.295 498.195 151.586 498.98 151.079 499.993C150.572 501.007 150.319 502.172 150.319 503.489C150.319 504.883 150.724 505.985 151.535 506.795C152.346 507.606 153.486 508.011 154.955 508.011ZM184.763 491.861C187.043 491.861 188.855 492.469 190.197 493.685C191.54 494.901 192.211 496.624 192.211 498.853C192.211 499.664 192.123 500.475 191.945 501.285L189.665 512.609H183.737L185.941 501.665C186.043 501.235 186.093 500.766 186.093 500.259C186.093 499.195 185.802 498.385 185.219 497.827C184.637 497.27 183.763 496.991 182.597 496.991C181.077 496.991 179.811 497.435 178.797 498.321C177.809 499.183 177.138 500.487 176.783 502.235L174.731 512.609H168.803L174.427 484.413H180.355L178.455 494.027C180.203 492.583 182.306 491.861 184.763 491.861ZM220.113 492.165L216.047 512.609H210.423L210.803 510.595C209.106 512.141 207.016 512.913 204.533 512.913C202.937 512.913 201.468 512.546 200.125 511.811C198.783 511.077 197.706 510.025 196.895 508.657C196.11 507.264 195.717 505.63 195.717 503.755C195.717 501.501 196.211 499.474 197.199 497.675C198.213 495.851 199.581 494.433 201.303 493.419C203.026 492.381 204.926 491.861 207.003 491.861C210.145 491.861 212.361 492.887 213.653 494.939L214.185 492.165H220.113ZM206.357 508.011C207.523 508.011 208.561 507.733 209.473 507.175C210.385 506.593 211.095 505.795 211.601 504.781C212.108 503.768 212.361 502.603 212.361 501.285C212.361 499.892 211.943 498.79 211.107 497.979C210.297 497.169 209.157 496.763 207.687 496.763C206.522 496.763 205.483 497.055 204.571 497.637C203.659 498.195 202.95 498.98 202.443 499.993C201.937 501.007 201.683 502.172 201.683 503.489C201.683 504.883 202.089 505.985 202.899 506.795C203.735 507.606 204.888 508.011 206.357 508.011ZM228.984 512.913C227.21 512.913 225.526 512.723 223.93 512.343C222.359 511.938 221.13 511.419 220.244 510.785L222.524 506.491C223.41 507.074 224.487 507.543 225.754 507.897C227.046 508.252 228.338 508.429 229.63 508.429C230.972 508.429 231.973 508.265 232.632 507.935C233.29 507.581 233.62 507.087 233.62 506.453C233.62 505.947 233.328 505.579 232.746 505.351C232.163 505.123 231.226 504.883 229.934 504.629C228.464 504.351 227.248 504.047 226.286 503.717C225.348 503.388 224.525 502.856 223.816 502.121C223.132 501.361 222.79 500.335 222.79 499.043C222.79 496.789 223.727 495.028 225.602 493.761C227.502 492.495 229.984 491.861 233.05 491.861C234.468 491.861 235.849 492.013 237.192 492.317C238.534 492.621 239.674 493.039 240.612 493.571L238.484 497.903C236.812 496.865 234.798 496.345 232.442 496.345C231.15 496.345 230.162 496.535 229.478 496.915C228.819 497.295 228.49 497.777 228.49 498.359C228.49 498.891 228.781 499.284 229.364 499.537C229.946 499.765 230.922 500.019 232.29 500.297C233.734 500.576 234.912 500.88 235.824 501.209C236.761 501.513 237.572 502.033 238.256 502.767C238.94 503.502 239.282 504.503 239.282 505.769C239.282 508.049 238.319 509.81 236.394 511.051C234.494 512.293 232.024 512.913 228.984 512.913ZM263.915 500.867C263.915 501.805 263.801 502.843 263.573 503.983H247.917C248.12 506.77 249.88 508.163 253.199 508.163C254.238 508.163 255.226 507.999 256.163 507.669C257.126 507.34 257.962 506.871 258.671 506.263L261.141 510.177C260.001 511.089 258.696 511.773 257.227 512.229C255.758 512.685 254.212 512.913 252.591 512.913C250.488 512.913 248.639 512.546 247.043 511.811C245.472 511.051 244.256 509.975 243.395 508.581C242.559 507.188 242.141 505.579 242.141 503.755C242.141 501.501 242.648 499.474 243.661 497.675C244.7 495.851 246.131 494.433 247.955 493.419C249.779 492.381 251.856 491.861 254.187 491.861C256.163 491.861 257.873 492.229 259.317 492.963C260.786 493.698 261.914 494.749 262.699 496.117C263.51 497.485 263.915 499.069 263.915 500.867ZM253.921 496.307C252.528 496.307 251.35 496.687 250.387 497.447C249.424 498.182 248.74 499.208 248.335 500.525H258.481C258.481 499.208 258.063 498.182 257.227 497.447C256.416 496.687 255.314 496.307 253.921 496.307ZM274.78 494.597C275.667 493.635 276.731 492.938 277.972 492.507C279.239 492.077 280.721 491.861 282.418 491.861L281.354 497.333C280.645 497.283 280.189 497.257 279.986 497.257C278.188 497.257 276.744 497.701 275.654 498.587C274.59 499.474 273.868 500.855 273.488 502.729L271.512 512.609H265.584L269.65 492.165H275.274L274.78 494.597ZM284.733 505.541C285.746 505.541 286.569 505.858 287.203 506.491C287.861 507.125 288.191 507.948 288.191 508.961C288.191 509.493 288.089 510 287.887 510.481C287.709 510.937 287.367 511.558 286.861 512.343L283.061 518.461H279.337L282.263 512.343C281.807 512.039 281.439 511.647 281.161 511.165C280.907 510.659 280.781 510.101 280.781 509.493C280.781 508.328 281.161 507.378 281.921 506.643C282.681 505.909 283.618 505.541 284.733 505.541ZM326.948 492.165L322.882 512.609H317.258L317.676 510.405C316.789 511.241 315.776 511.875 314.636 512.305C313.496 512.711 312.292 512.913 311.026 512.913C308.796 512.913 307.01 512.305 305.668 511.089C304.35 509.873 303.692 508.163 303.692 505.959C303.692 505.123 303.78 504.3 303.958 503.489L306.2 492.165H312.128L309.962 503.109C309.86 503.591 309.81 504.085 309.81 504.591C309.81 506.719 310.95 507.783 313.23 507.783C314.724 507.783 315.953 507.353 316.916 506.491C317.904 505.605 318.575 504.287 318.93 502.539L321.02 492.165H326.948ZM344.333 491.861C346.613 491.861 348.425 492.469 349.767 493.685C351.11 494.876 351.781 496.586 351.781 498.815C351.781 499.651 351.693 500.475 351.515 501.285L349.235 512.609H343.307L345.511 501.665C345.613 501.235 345.663 500.766 345.663 500.259C345.663 499.195 345.372 498.385 344.789 497.827C344.207 497.27 343.333 496.991 342.167 496.991C340.647 496.991 339.381 497.435 338.367 498.321C337.379 499.183 336.708 500.487 336.353 502.235L334.301 512.609H328.373L332.439 492.165H338.063L337.607 494.369C339.431 492.697 341.673 491.861 344.333 491.861ZM358.713 492.165H364.603L360.537 512.609H354.647L358.713 492.165ZM362.665 489.315C361.652 489.315 360.816 489.024 360.157 488.441C359.524 487.833 359.207 487.099 359.207 486.237C359.207 485.224 359.562 484.388 360.271 483.729C361.006 483.045 361.956 482.703 363.121 482.703C364.16 482.703 364.996 482.995 365.629 483.577C366.288 484.135 366.617 484.831 366.617 485.667C366.617 486.757 366.25 487.643 365.515 488.327C364.78 488.986 363.83 489.315 362.665 489.315ZM374.096 505.389C374.045 505.592 374.02 505.871 374.02 506.225C374.02 507.543 374.742 508.201 376.186 508.201C376.971 508.201 377.769 507.961 378.58 507.479L379.454 511.697C378.136 512.508 376.439 512.913 374.362 512.913C372.436 512.913 370.891 512.407 369.726 511.393C368.56 510.38 367.978 508.987 367.978 507.213C367.978 506.707 368.041 506.111 368.168 505.427L369.802 497.181H366.648L367.56 492.621H370.714L371.702 487.643H377.63L376.642 492.621H381.734L380.822 497.181H375.73L374.096 505.389ZM406.54 492.165L392.936 513.977C391.467 516.359 390.035 518.005 388.642 518.917C387.274 519.829 385.589 520.285 383.588 520.285C382.524 520.285 381.485 520.121 380.472 519.791C379.433 519.462 378.623 519.031 378.04 518.499L380.776 514.243C381.688 515.079 382.777 515.497 384.044 515.497C384.804 515.497 385.463 515.307 386.02 514.927C386.577 514.547 387.147 513.901 387.73 512.989L387.92 512.647L383.208 492.165H389.136L392.176 506.073L400.688 492.165H406.54ZM437.353 489.999L429.905 496.953C431.754 497.384 433.185 498.182 434.199 499.347C435.212 500.513 435.719 501.957 435.719 503.679C435.719 505.478 435.187 507.087 434.123 508.505C433.084 509.924 431.627 511.039 429.753 511.849C427.878 512.66 425.75 513.065 423.369 513.065C421.418 513.065 419.594 512.799 417.897 512.267C416.199 511.735 414.781 510.975 413.641 509.987L416.605 505.465C417.491 506.225 418.555 506.821 419.797 507.251C421.063 507.682 422.393 507.897 423.787 507.897C425.611 507.897 427.017 507.568 428.005 506.909C428.993 506.225 429.487 505.275 429.487 504.059C429.487 503.097 429.119 502.387 428.385 501.931C427.675 501.45 426.586 501.209 425.117 501.209H422.305L423.103 497.143L429.715 490.949H418.467L419.493 486.009H438.113L437.353 489.999ZM464.553 484.413L458.929 512.609H453.305L453.723 510.557C452 512.128 449.91 512.913 447.453 512.913C445.857 512.913 444.388 512.546 443.045 511.811C441.702 511.077 440.626 510.025 439.815 508.657C439.03 507.264 438.637 505.63 438.637 503.755C438.637 501.501 439.131 499.474 440.119 497.675C441.132 495.851 442.5 494.433 444.223 493.419C445.946 492.381 447.846 491.861 449.923 491.861C451.418 491.861 452.722 492.115 453.837 492.621C454.977 493.128 455.876 493.875 456.535 494.863L458.625 484.413H464.553ZM449.277 508.011C450.442 508.011 451.481 507.733 452.393 507.175C453.305 506.593 454.014 505.795 454.521 504.781C455.028 503.768 455.281 502.603 455.281 501.285C455.281 499.892 454.863 498.79 454.027 497.979C453.216 497.169 452.076 496.763 450.607 496.763C449.442 496.763 448.403 497.055 447.491 497.637C446.579 498.195 445.87 498.98 445.363 499.993C444.856 501.007 444.603 502.172 444.603 503.489C444.603 504.883 445.008 505.985 445.819 506.795C446.655 507.606 447.808 508.011 449.277 508.011ZM467.152 512.913C466.138 512.913 465.302 512.597 464.644 511.963C463.985 511.305 463.656 510.481 463.656 509.493C463.656 508.328 464.036 507.378 464.796 506.643C465.556 505.909 466.493 505.541 467.608 505.541C468.621 505.541 469.444 505.858 470.078 506.491C470.736 507.125 471.066 507.948 471.066 508.961C471.066 510.101 470.673 511.051 469.888 511.811C469.128 512.546 468.216 512.913 467.152 512.913ZM46.2903 532.009H52.4843L47.1643 558.609H40.9703L46.2903 532.009ZM74.6128 558.913C72.5101 558.913 70.6734 558.533 69.1028 557.773C67.5321 557.013 66.3161 555.949 65.4548 554.581C64.6188 553.188 64.2008 551.579 64.2008 549.755C64.2008 547.501 64.7328 545.474 65.7968 543.675C66.8608 541.877 68.3428 540.458 70.2428 539.419C72.1428 538.381 74.2834 537.861 76.6648 537.861C78.8434 537.861 80.7181 538.317 82.2888 539.229C83.8848 540.116 85.0754 541.383 85.8608 543.029L80.8448 545.537C79.9581 543.688 78.4381 542.763 76.2848 542.763C75.1194 542.763 74.0681 543.055 73.1308 543.637C72.2188 544.195 71.4968 544.98 70.9648 545.993C70.4581 547.007 70.2048 548.159 70.2048 549.451C70.2048 550.845 70.6228 551.959 71.4588 552.795C72.2948 553.606 73.4601 554.011 74.9548 554.011C77.1334 554.011 78.8054 553.099 79.9708 551.275L84.3408 554.011C83.3528 555.557 81.9974 556.76 80.2748 557.621C78.5774 558.483 76.6901 558.913 74.6128 558.913ZM110.826 538.165L106.76 558.609H101.136L101.516 556.595C99.8188 558.141 97.7288 558.913 95.2462 558.913C93.6502 558.913 92.1808 558.546 90.8382 557.811C89.4955 557.077 88.4188 556.025 87.6082 554.657C86.8228 553.264 86.4302 551.63 86.4302 549.755C86.4302 547.501 86.9242 545.474 87.9122 543.675C88.9255 541.851 90.2935 540.433 92.0162 539.419C93.7388 538.381 95.6388 537.861 97.7162 537.861C100.857 537.861 103.074 538.887 104.366 540.939L104.898 538.165H110.826ZM97.0702 554.011C98.2355 554.011 99.2742 553.733 100.186 553.175C101.098 552.593 101.807 551.795 102.314 550.781C102.821 549.768 103.074 548.603 103.074 547.285C103.074 545.892 102.656 544.79 101.82 543.979C101.009 543.169 99.8695 542.763 98.4002 542.763C97.2348 542.763 96.1962 543.055 95.2842 543.637C94.3722 544.195 93.6628 544.98 93.1562 545.993C92.6495 547.007 92.3962 548.172 92.3962 549.489C92.3962 550.883 92.8015 551.985 93.6122 552.795C94.4482 553.606 95.6008 554.011 97.0702 554.011ZM128.208 537.861C130.488 537.861 132.3 538.469 133.642 539.685C134.985 540.876 135.656 542.586 135.656 544.815C135.656 545.651 135.568 546.475 135.39 547.285L133.11 558.609H127.182L129.386 547.665C129.488 547.235 129.538 546.766 129.538 546.259C129.538 545.195 129.247 544.385 128.664 543.827C128.082 543.27 127.208 542.991 126.042 542.991C124.522 542.991 123.256 543.435 122.242 544.321C121.254 545.183 120.583 546.487 120.228 548.235L118.176 558.609H112.248L116.314 538.165H121.938L121.482 540.369C123.306 538.697 125.548 537.861 128.208 537.861ZM174.098 538.165L170.032 558.609H164.408L164.788 556.595C163.09 558.141 161 558.913 158.518 558.913C156.922 558.913 155.452 558.546 154.11 557.811C152.767 557.077 151.69 556.025 150.88 554.657C150.094 553.264 149.702 551.63 149.702 549.755C149.702 547.501 150.196 545.474 151.184 543.675C152.197 541.851 153.565 540.433 155.288 539.419C157.01 538.381 158.91 537.861 160.988 537.861C164.129 537.861 166.346 538.887 167.638 540.939L168.17 538.165H174.098ZM160.342 554.011C161.507 554.011 162.546 553.733 163.458 553.175C164.37 552.593 165.079 551.795 165.586 550.781C166.092 549.768 166.346 548.603 166.346 547.285C166.346 545.892 165.928 544.79 165.092 543.979C164.281 543.169 163.141 542.763 161.672 542.763C160.506 542.763 159.468 543.055 158.556 543.637C157.644 544.195 156.934 544.98 156.428 545.993C155.921 547.007 155.668 548.172 155.668 549.489C155.668 550.883 156.073 551.985 156.884 552.795C157.72 553.606 158.872 554.011 160.342 554.011ZM181.144 530.413H187.072L181.448 558.609H175.52L181.144 530.413ZM194.398 558.913C192.624 558.913 190.94 558.723 189.344 558.343C187.773 557.938 186.544 557.419 185.658 556.785L187.938 552.491C188.824 553.074 189.901 553.543 191.168 553.897C192.46 554.252 193.752 554.429 195.044 554.429C196.386 554.429 197.387 554.265 198.046 553.935C198.704 553.581 199.034 553.087 199.034 552.453C199.034 551.947 198.742 551.579 198.16 551.351C197.577 551.123 196.64 550.883 195.348 550.629C193.878 550.351 192.662 550.047 191.7 549.717C190.762 549.388 189.939 548.856 189.23 548.121C188.546 547.361 188.204 546.335 188.204 545.043C188.204 542.789 189.141 541.028 191.016 539.761C192.916 538.495 195.398 537.861 198.464 537.861C199.882 537.861 201.263 538.013 202.606 538.317C203.948 538.621 205.088 539.039 206.026 539.571L203.898 543.903C202.226 542.865 200.212 542.345 197.856 542.345C196.564 542.345 195.576 542.535 194.892 542.915C194.233 543.295 193.904 543.777 193.904 544.359C193.904 544.891 194.195 545.284 194.778 545.537C195.36 545.765 196.336 546.019 197.704 546.297C199.148 546.576 200.326 546.88 201.238 547.209C202.175 547.513 202.986 548.033 203.67 548.767C204.354 549.502 204.696 550.503 204.696 551.769C204.696 554.049 203.733 555.81 201.808 557.051C199.908 558.293 197.438 558.913 194.398 558.913ZM217.815 558.913C215.763 558.913 213.952 558.533 212.381 557.773C210.836 557.013 209.632 555.949 208.771 554.581C207.935 553.188 207.517 551.579 207.517 549.755C207.517 547.501 208.049 545.474 209.113 543.675C210.177 541.877 211.646 540.458 213.521 539.419C215.396 538.381 217.511 537.861 219.867 537.861C221.944 537.861 223.756 538.241 225.301 539.001C226.846 539.761 228.037 540.838 228.873 542.231C229.734 543.599 230.165 545.195 230.165 547.019C230.165 549.274 229.633 551.301 228.569 553.099C227.53 554.898 226.061 556.317 224.161 557.355C222.286 558.394 220.171 558.913 217.815 558.913ZM218.195 554.011C219.335 554.011 220.361 553.733 221.273 553.175C222.185 552.593 222.894 551.795 223.401 550.781C223.908 549.768 224.161 548.603 224.161 547.285C224.161 545.892 223.756 544.79 222.945 543.979C222.134 543.169 220.994 542.763 219.525 542.763C218.36 542.763 217.321 543.055 216.409 543.637C215.497 544.195 214.788 544.98 214.281 545.993C213.774 547.007 213.521 548.172 213.521 549.489C213.521 550.883 213.926 551.985 214.737 552.795C215.573 553.606 216.726 554.011 218.195 554.011ZM250.818 551.389C250.767 551.592 250.742 551.871 250.742 552.225C250.742 553.543 251.464 554.201 252.908 554.201C253.693 554.201 254.491 553.961 255.302 553.479L256.176 557.697C254.859 558.508 253.161 558.913 251.084 558.913C249.159 558.913 247.613 558.407 246.448 557.393C245.283 556.38 244.7 554.987 244.7 553.213C244.7 552.707 244.763 552.111 244.89 551.427L246.524 543.181H243.37L244.282 538.621H247.436L248.424 533.643H254.352L253.364 538.621H258.456L257.544 543.181H252.452L250.818 551.389ZM275.236 537.861C277.516 537.861 279.327 538.469 280.67 539.685C282.013 540.901 282.684 542.624 282.684 544.853C282.684 545.664 282.595 546.475 282.418 547.285L280.138 558.609H274.21L276.414 547.665C276.515 547.235 276.566 546.766 276.566 546.259C276.566 545.195 276.275 544.385 275.692 543.827C275.109 543.27 274.235 542.991 273.07 542.991C271.55 542.991 270.283 543.435 269.27 544.321C268.282 545.183 267.611 546.487 267.256 548.235L265.204 558.609H259.276L264.9 530.413H270.828L268.928 540.027C270.676 538.583 272.779 537.861 275.236 537.861ZM289.615 538.165H295.505L291.439 558.609H285.549L289.615 538.165ZM293.567 535.315C292.554 535.315 291.718 535.024 291.059 534.441C290.426 533.833 290.109 533.099 290.109 532.237C290.109 531.224 290.464 530.388 291.173 529.729C291.908 529.045 292.858 528.703 294.023 528.703C295.062 528.703 295.898 528.995 296.531 529.577C297.19 530.135 297.519 530.831 297.519 531.667C297.519 532.757 297.152 533.643 296.417 534.327C295.683 534.986 294.733 535.315 293.567 535.315ZM312.902 537.861C315.182 537.861 316.993 538.469 318.336 539.685C319.679 540.876 320.35 542.586 320.35 544.815C320.35 545.651 320.261 546.475 320.084 547.285L317.804 558.609H311.876L314.08 547.665C314.181 547.235 314.232 546.766 314.232 546.259C314.232 545.195 313.941 544.385 313.358 543.827C312.775 543.27 311.901 542.991 310.736 542.991C309.216 542.991 307.949 543.435 306.936 544.321C305.948 545.183 305.277 546.487 304.922 548.235L302.87 558.609H296.942L301.008 538.165H306.632L306.176 540.369C308 538.697 310.242 537.861 312.902 537.861ZM338.453 547.057L345.483 558.609H338.605L333.741 550.667L330.131 553.669L329.143 558.609H323.215L328.839 530.413H334.767L331.613 546.183L341.417 538.165H349.131L338.453 547.057ZM369.147 558.913C367.095 558.913 365.284 558.533 363.713 557.773C362.168 557.013 360.965 555.949 360.103 554.581C359.267 553.188 358.849 551.579 358.849 549.755C358.849 547.501 359.381 545.474 360.445 543.675C361.509 541.877 362.979 540.458 364.853 539.419C366.728 538.381 368.843 537.861 371.199 537.861C373.277 537.861 375.088 538.241 376.633 539.001C378.179 539.761 379.369 540.838 380.205 542.231C381.067 543.599 381.497 545.195 381.497 547.019C381.497 549.274 380.965 551.301 379.901 553.099C378.863 554.898 377.393 556.317 375.493 557.355C373.619 558.394 371.503 558.913 369.147 558.913ZM369.527 554.011C370.667 554.011 371.693 553.733 372.605 553.175C373.517 552.593 374.227 551.795 374.733 550.781C375.24 549.768 375.493 548.603 375.493 547.285C375.493 545.892 375.088 544.79 374.277 543.979C373.467 543.169 372.327 542.763 370.857 542.763C369.692 542.763 368.653 543.055 367.741 543.637C366.829 544.195 366.12 544.98 365.613 545.993C365.107 547.007 364.853 548.172 364.853 549.489C364.853 550.883 365.259 551.985 366.069 552.795C366.905 553.606 368.058 554.011 369.527 554.011ZM397.202 534.783C396.29 534.783 395.568 535.037 395.036 535.543C394.53 536.025 394.175 536.797 393.972 537.861L393.82 538.621H399.026L398.114 543.181H393.06L389.982 558.609H384.054L387.132 543.181H383.94L384.852 538.621H388.044L388.272 537.443C388.754 535.163 389.742 533.377 391.236 532.085C392.756 530.768 394.732 530.109 397.164 530.109C398.076 530.109 398.938 530.211 399.748 530.413C400.584 530.616 401.294 530.895 401.876 531.249L399.558 535.505C398.925 535.024 398.14 534.783 397.202 534.783ZM416.846 551.389C416.795 551.592 416.77 551.871 416.77 552.225C416.77 553.543 417.492 554.201 418.936 554.201C419.721 554.201 420.519 553.961 421.33 553.479L422.204 557.697C420.886 558.508 419.189 558.913 417.112 558.913C415.186 558.913 413.641 558.407 412.476 557.393C411.31 556.38 410.728 554.987 410.728 553.213C410.728 552.707 410.791 552.111 410.918 551.427L412.552 543.181H409.398L410.31 538.621H413.464L414.452 533.643H420.38L419.392 538.621H424.484L423.572 543.181H418.48L416.846 551.389ZM441.263 537.861C443.543 537.861 445.355 538.469 446.697 539.685C448.04 540.901 448.711 542.624 448.711 544.853C448.711 545.664 448.623 546.475 448.445 547.285L446.165 558.609H440.237L442.441 547.665C442.543 547.235 442.593 546.766 442.593 546.259C442.593 545.195 442.302 544.385 441.719 543.827C441.137 543.27 440.263 542.991 439.097 542.991C437.577 542.991 436.311 543.435 435.297 544.321C434.309 545.183 433.638 546.487 433.283 548.235L431.231 558.609H425.303L430.927 530.413H436.855L434.955 540.027C436.703 538.583 438.806 537.861 441.263 537.861ZM473.991 546.867C473.991 547.805 473.877 548.843 473.649 549.983H457.993C458.196 552.77 459.957 554.163 463.275 554.163C464.314 554.163 465.302 553.999 466.239 553.669C467.202 553.34 468.038 552.871 468.747 552.263L471.217 556.177C470.077 557.089 468.773 557.773 467.303 558.229C465.834 558.685 464.289 558.913 462.667 558.913C460.565 558.913 458.715 558.546 457.119 557.811C455.549 557.051 454.333 555.975 453.471 554.581C452.635 553.188 452.217 551.579 452.217 549.755C452.217 547.501 452.724 545.474 453.737 543.675C454.776 541.851 456.207 540.433 458.031 539.419C459.855 538.381 461.933 537.861 464.263 537.861C466.239 537.861 467.949 538.229 469.393 538.963C470.863 539.698 471.99 540.749 472.775 542.117C473.586 543.485 473.991 545.069 473.991 546.867ZM463.997 542.307C462.604 542.307 461.426 542.687 460.463 543.447C459.501 544.182 458.817 545.208 458.411 546.525H468.557C468.557 545.208 468.139 544.182 467.303 543.447C466.493 542.687 465.391 542.307 463.997 542.307ZM124.479 584.165H130.369L126.303 604.609H120.413L124.479 584.165ZM128.431 581.315C127.417 581.315 126.581 581.024 125.923 580.441C125.289 579.833 124.973 579.099 124.973 578.237C124.973 577.224 125.327 576.388 126.037 575.729C126.771 575.045 127.721 574.703 128.887 574.703C129.925 574.703 130.761 574.995 131.395 575.577C132.053 576.135 132.383 576.831 132.383 577.667C132.383 578.757 132.015 579.643 131.281 580.327C130.546 580.986 129.596 581.315 128.431 581.315ZM158.215 576.413L152.591 604.609H146.967L147.385 602.557C145.662 604.128 143.572 604.913 141.115 604.913C139.519 604.913 138.05 604.546 136.707 603.811C135.364 603.077 134.288 602.025 133.477 600.657C132.692 599.264 132.299 597.63 132.299 595.755C132.299 593.501 132.793 591.474 133.781 589.675C134.794 587.851 136.162 586.433 137.885 585.419C139.608 584.381 141.508 583.861 143.585 583.861C145.08 583.861 146.384 584.115 147.499 584.621C148.639 585.128 149.538 585.875 150.197 586.863L152.287 576.413H158.215ZM142.939 600.011C144.104 600.011 145.143 599.733 146.055 599.175C146.967 598.593 147.676 597.795 148.183 596.781C148.69 595.768 148.943 594.603 148.943 593.285C148.943 591.892 148.525 590.79 147.689 589.979C146.878 589.169 145.738 588.763 144.269 588.763C143.104 588.763 142.065 589.055 141.153 589.637C140.241 590.195 139.532 590.98 139.025 591.993C138.518 593.007 138.265 594.172 138.265 595.489C138.265 596.883 138.67 597.985 139.481 598.795C140.317 599.606 141.47 600.011 142.939 600.011ZM180.308 592.867C180.308 593.805 180.194 594.843 179.966 595.983H164.31C164.512 598.77 166.273 600.163 169.592 600.163C170.63 600.163 171.618 599.999 172.556 599.669C173.518 599.34 174.354 598.871 175.064 598.263L177.534 602.177C176.394 603.089 175.089 603.773 173.62 604.229C172.15 604.685 170.605 604.913 168.984 604.913C166.881 604.913 165.032 604.546 163.436 603.811C161.865 603.051 160.649 601.975 159.788 600.581C158.952 599.188 158.534 597.579 158.534 595.755C158.534 593.501 159.04 591.474 160.054 589.675C161.092 587.851 162.524 586.433 164.348 585.419C166.172 584.381 168.249 583.861 170.58 583.861C172.556 583.861 174.266 584.229 175.71 584.963C177.179 585.698 178.306 586.749 179.092 588.117C179.902 589.485 180.308 591.069 180.308 592.867ZM170.314 588.307C168.92 588.307 167.742 588.687 166.78 589.447C165.817 590.182 165.133 591.208 164.728 592.525H174.874C174.874 591.208 174.456 590.182 173.62 589.447C172.809 588.687 171.707 588.307 170.314 588.307ZM206.791 584.165L202.725 604.609H197.101L197.481 602.595C195.784 604.141 193.694 604.913 191.211 604.913C189.615 604.913 188.146 604.546 186.803 603.811C185.46 603.077 184.384 602.025 183.573 600.657C182.788 599.264 182.395 597.63 182.395 595.755C182.395 593.501 182.889 591.474 183.877 589.675C184.89 587.851 186.258 586.433 187.981 585.419C189.704 584.381 191.604 583.861 193.681 583.861C196.822 583.861 199.039 584.887 200.331 586.939L200.863 584.165H206.791ZM193.035 600.011C194.2 600.011 195.239 599.733 196.151 599.175C197.063 598.593 197.772 597.795 198.279 596.781C198.786 595.768 199.039 594.603 199.039 593.285C199.039 591.892 198.621 590.79 197.785 589.979C196.974 589.169 195.834 588.763 194.365 588.763C193.2 588.763 192.161 589.055 191.249 589.637C190.337 590.195 189.628 590.98 189.121 591.993C188.614 593.007 188.361 594.172 188.361 595.489C188.361 596.883 188.766 597.985 189.577 598.795C190.413 599.606 191.566 600.011 193.035 600.011ZM215.661 604.913C213.888 604.913 212.203 604.723 210.607 604.343C209.037 603.938 207.808 603.419 206.921 602.785L209.201 598.491C210.088 599.074 211.165 599.543 212.431 599.897C213.723 600.252 215.015 600.429 216.307 600.429C217.65 600.429 218.651 600.265 219.309 599.935C219.968 599.581 220.297 599.087 220.297 598.453C220.297 597.947 220.006 597.579 219.423 597.351C218.841 597.123 217.903 596.883 216.611 596.629C215.142 596.351 213.926 596.047 212.963 595.717C212.026 595.388 211.203 594.856 210.493 594.121C209.809 593.361 209.467 592.335 209.467 591.043C209.467 588.789 210.405 587.028 212.279 585.761C214.179 584.495 216.662 583.861 219.727 583.861C221.146 583.861 222.527 584.013 223.869 584.317C225.212 584.621 226.352 585.039 227.289 585.571L225.161 589.903C223.489 588.865 221.475 588.345 219.119 588.345C217.827 588.345 216.839 588.535 216.155 588.915C215.497 589.295 215.167 589.777 215.167 590.359C215.167 590.891 215.459 591.284 216.041 591.537C216.624 591.765 217.599 592.019 218.967 592.297C220.411 592.576 221.589 592.88 222.501 593.209C223.439 593.513 224.249 594.033 224.933 594.767C225.617 595.502 225.959 596.503 225.959 597.769C225.959 600.049 224.997 601.81 223.071 603.051C221.171 604.293 218.701 604.913 215.661 604.913ZM263.977 584.165L259.911 604.609H254.287L254.667 602.595C252.969 604.141 250.879 604.913 248.397 604.913C246.801 604.913 245.331 604.546 243.989 603.811C242.646 603.077 241.569 602.025 240.759 600.657C239.973 599.264 239.581 597.63 239.581 595.755C239.581 593.501 240.075 591.474 241.063 589.675C242.076 587.851 243.444 586.433 245.167 585.419C246.889 584.381 248.789 583.861 250.867 583.861C254.008 583.861 256.225 584.887 257.517 586.939L258.049 584.165H263.977ZM250.221 600.011C251.386 600.011 252.425 599.733 253.337 599.175C254.249 598.593 254.958 597.795 255.465 596.781C255.971 595.768 256.225 594.603 256.225 593.285C256.225 591.892 255.807 590.79 254.971 589.979C254.16 589.169 253.02 588.763 251.551 588.763C250.385 588.763 249.347 589.055 248.435 589.637C247.523 590.195 246.813 590.98 246.307 591.993C245.8 593.007 245.547 594.172 245.547 595.489C245.547 596.883 245.952 597.985 246.763 598.795C247.599 599.606 248.751 600.011 250.221 600.011ZM281.359 583.861C283.639 583.861 285.45 584.469 286.793 585.685C288.136 586.876 288.807 588.586 288.807 590.815C288.807 591.651 288.718 592.475 288.541 593.285L286.261 604.609H280.333L282.537 593.665C282.638 593.235 282.689 592.766 282.689 592.259C282.689 591.195 282.398 590.385 281.815 589.827C281.232 589.27 280.358 588.991 279.193 588.991C277.673 588.991 276.406 589.435 275.393 590.321C274.405 591.183 273.734 592.487 273.379 594.235L271.327 604.609H265.399L269.465 584.165H275.089L274.633 586.369C276.457 584.697 278.699 583.861 281.359 583.861ZM318.305 576.413L312.681 604.609H307.057L307.475 602.557C305.752 604.128 303.662 604.913 301.205 604.913C299.609 604.913 298.14 604.546 296.797 603.811C295.454 603.077 294.378 602.025 293.567 600.657C292.782 599.264 292.389 597.63 292.389 595.755C292.389 593.501 292.883 591.474 293.871 589.675C294.884 587.851 296.252 586.433 297.975 585.419C299.698 584.381 301.598 583.861 303.675 583.861C305.17 583.861 306.474 584.115 307.589 584.621C308.729 585.128 309.628 585.875 310.287 586.863L312.377 576.413H318.305ZM303.029 600.011C304.194 600.011 305.233 599.733 306.145 599.175C307.057 598.593 307.766 597.795 308.273 596.781C308.78 595.768 309.033 594.603 309.033 593.285C309.033 591.892 308.615 590.79 307.779 589.979C306.968 589.169 305.828 588.763 304.359 588.763C303.194 588.763 302.155 589.055 301.243 589.637C300.331 590.195 299.622 590.98 299.115 591.993C298.608 593.007 298.355 594.172 298.355 595.489C298.355 596.883 298.76 597.985 299.571 598.795C300.407 599.606 301.56 600.011 303.029 600.011ZM337.023 597.389C336.973 597.592 336.947 597.871 336.947 598.225C336.947 599.543 337.669 600.201 339.113 600.201C339.899 600.201 340.697 599.961 341.507 599.479L342.381 603.697C341.064 604.508 339.367 604.913 337.289 604.913C335.364 604.913 333.819 604.407 332.653 603.393C331.488 602.38 330.905 600.987 330.905 599.213C330.905 598.707 330.969 598.111 331.095 597.427L332.729 589.181H329.575L330.487 584.621H333.641L334.629 579.643H340.557L339.569 584.621H344.661L343.749 589.181H338.657L337.023 597.389ZM361.441 583.861C363.721 583.861 365.532 584.469 366.875 585.685C368.218 586.901 368.889 588.624 368.889 590.853C368.889 591.664 368.8 592.475 368.623 593.285L366.343 604.609H360.415L362.619 593.665C362.72 593.235 362.771 592.766 362.771 592.259C362.771 591.195 362.48 590.385 361.897 589.827C361.314 589.27 360.44 588.991 359.275 588.991C357.755 588.991 356.488 589.435 355.475 590.321C354.487 591.183 353.816 592.487 353.461 594.235L351.409 604.609H345.481L351.105 576.413H357.033L355.133 586.027C356.881 584.583 358.984 583.861 361.441 583.861ZM394.169 592.867C394.169 593.805 394.055 594.843 393.827 595.983H378.171C378.374 598.77 380.134 600.163 383.453 600.163C384.492 600.163 385.48 599.999 386.417 599.669C387.38 599.34 388.216 598.871 388.925 598.263L391.395 602.177C390.255 603.089 388.95 603.773 387.481 604.229C386.012 604.685 384.466 604.913 382.845 604.913C380.742 604.913 378.893 604.546 377.297 603.811C375.726 603.051 374.51 601.975 373.649 600.581C372.813 599.188 372.395 597.579 372.395 595.755C372.395 593.501 372.902 591.474 373.915 589.675C374.954 587.851 376.385 586.433 378.209 585.419C380.033 584.381 382.11 583.861 384.441 583.861C386.417 583.861 388.127 584.229 389.571 584.963C391.04 585.698 392.168 586.749 392.953 588.117C393.764 589.485 394.169 591.069 394.169 592.867ZM384.175 588.307C382.782 588.307 381.604 588.687 380.641 589.447C379.678 590.182 378.994 591.208 378.589 592.525H388.735C388.735 591.208 388.317 590.182 387.481 589.447C386.67 588.687 385.568 588.307 384.175 588.307ZM173.229 629.861C175.458 629.861 177.232 630.469 178.549 631.685C179.866 632.876 180.525 634.573 180.525 636.777C180.525 637.588 180.436 638.424 180.259 639.285L178.017 650.609H172.089L174.255 639.703C174.356 639.197 174.407 638.677 174.407 638.145C174.407 637.107 174.128 636.321 173.571 635.789C173.039 635.257 172.241 634.991 171.177 634.991C168.314 634.991 166.528 636.701 165.819 640.121L163.729 650.609H157.801L159.967 639.703C160.068 639.197 160.119 638.69 160.119 638.183C160.119 637.145 159.84 636.359 159.283 635.827C158.751 635.27 157.953 634.991 156.889 634.991C154.026 634.991 152.228 636.727 151.493 640.197L149.441 650.609H143.513L147.579 630.165H153.203L152.747 632.293C154.52 630.672 156.661 629.861 159.169 629.861C160.588 629.861 161.842 630.153 162.931 630.735C164.046 631.293 164.882 632.116 165.439 633.205C166.427 632.116 167.58 631.293 168.897 630.735C170.214 630.153 171.658 629.861 173.229 629.861ZM205.783 638.867C205.783 639.805 205.669 640.843 205.441 641.983H189.785C189.988 644.77 191.749 646.163 195.067 646.163C196.106 646.163 197.094 645.999 198.031 645.669C198.994 645.34 199.83 644.871 200.539 644.263L203.009 648.177C201.869 649.089 200.565 649.773 199.095 650.229C197.626 650.685 196.081 650.913 194.459 650.913C192.357 650.913 190.507 650.546 188.911 649.811C187.341 649.051 186.125 647.975 185.263 646.581C184.427 645.188 184.009 643.579 184.009 641.755C184.009 639.501 184.516 637.474 185.529 635.675C186.568 633.851 187.999 632.433 189.823 631.419C191.647 630.381 193.725 629.861 196.055 629.861C198.031 629.861 199.741 630.229 201.185 630.963C202.655 631.698 203.782 632.749 204.567 634.117C205.378 635.485 205.783 637.069 205.783 638.867ZM195.789 634.307C194.396 634.307 193.218 634.687 192.255 635.447C191.293 636.182 190.609 637.208 190.203 638.525H200.349C200.349 637.208 199.931 636.182 199.095 635.447C198.285 634.687 197.183 634.307 195.789 634.307ZM218.245 650.913C216.142 650.913 214.305 650.533 212.735 649.773C211.164 649.013 209.948 647.949 209.087 646.581C208.251 645.188 207.833 643.579 207.833 641.755C207.833 639.501 208.365 637.474 209.429 635.675C210.493 633.877 211.975 632.458 213.875 631.419C215.775 630.381 217.915 629.861 220.297 629.861C222.475 629.861 224.35 630.317 225.921 631.229C227.517 632.116 228.707 633.383 229.493 635.029L224.477 637.537C223.59 635.688 222.07 634.763 219.917 634.763C218.751 634.763 217.7 635.055 216.763 635.637C215.851 636.195 215.129 636.98 214.597 637.993C214.09 639.007 213.837 640.159 213.837 641.451C213.837 642.845 214.255 643.959 215.091 644.795C215.927 645.606 217.092 646.011 218.587 646.011C220.765 646.011 222.437 645.099 223.603 643.275L227.973 646.011C226.985 647.557 225.629 648.76 223.907 649.621C222.209 650.483 220.322 650.913 218.245 650.913ZM245.715 629.861C247.995 629.861 249.807 630.469 251.149 631.685C252.492 632.901 253.163 634.624 253.163 636.853C253.163 637.664 253.075 638.475 252.897 639.285L250.617 650.609H244.689L246.893 639.665C246.995 639.235 247.045 638.766 247.045 638.259C247.045 637.195 246.754 636.385 246.171 635.827C245.589 635.27 244.715 634.991 243.549 634.991C242.029 634.991 240.763 635.435 239.749 636.321C238.761 637.183 238.09 638.487 237.735 640.235L235.683 650.609H229.755L235.379 622.413H241.307L239.407 632.027C241.155 630.583 243.258 629.861 245.715 629.861ZM281.065 630.165L276.999 650.609H271.375L271.755 648.595C270.058 650.141 267.968 650.913 265.485 650.913C263.889 650.913 262.42 650.546 261.077 649.811C259.735 649.077 258.658 648.025 257.847 646.657C257.062 645.264 256.669 643.63 256.669 641.755C256.669 639.501 257.163 637.474 258.151 635.675C259.165 633.851 260.533 632.433 262.255 631.419C263.978 630.381 265.878 629.861 267.955 629.861C271.097 629.861 273.313 630.887 274.605 632.939L275.137 630.165H281.065ZM267.309 646.011C268.475 646.011 269.513 645.733 270.425 645.175C271.337 644.593 272.047 643.795 272.553 642.781C273.06 641.768 273.313 640.603 273.313 639.285C273.313 637.892 272.895 636.79 272.059 635.979C271.249 635.169 270.109 634.763 268.639 634.763C267.474 634.763 266.435 635.055 265.523 635.637C264.611 636.195 263.902 636.98 263.395 637.993C262.889 639.007 262.635 640.172 262.635 641.489C262.635 642.883 263.041 643.985 263.851 644.795C264.687 645.606 265.84 646.011 267.309 646.011ZM298.448 629.861C300.728 629.861 302.539 630.469 303.882 631.685C305.224 632.876 305.896 634.586 305.896 636.815C305.896 637.651 305.807 638.475 305.63 639.285L303.35 650.609H297.422L299.626 639.665C299.727 639.235 299.778 638.766 299.778 638.259C299.778 637.195 299.486 636.385 298.904 635.827C298.321 635.27 297.447 634.991 296.282 634.991C294.762 634.991 293.495 635.435 292.482 636.321C291.494 637.183 290.822 638.487 290.468 640.235L288.416 650.609H282.488L286.554 630.165H292.178L291.722 632.369C293.546 630.697 295.788 629.861 298.448 629.861ZM312.827 630.165H318.717L314.651 650.609H308.761L312.827 630.165ZM316.779 627.315C315.766 627.315 314.93 627.024 314.271 626.441C313.638 625.833 313.321 625.099 313.321 624.237C313.321 623.224 313.676 622.388 314.385 621.729C315.12 621.045 316.07 620.703 317.235 620.703C318.274 620.703 319.11 620.995 319.743 621.577C320.402 622.135 320.731 622.831 320.731 623.667C320.731 624.757 320.364 625.643 319.629 626.327C318.895 626.986 317.945 627.315 316.779 627.315ZM330.946 650.913C328.843 650.913 327.006 650.533 325.436 649.773C323.865 649.013 322.649 647.949 321.788 646.581C320.952 645.188 320.534 643.579 320.534 641.755C320.534 639.501 321.066 637.474 322.13 635.675C323.194 633.877 324.676 632.458 326.576 631.419C328.476 630.381 330.616 629.861 332.998 629.861C335.176 629.861 337.051 630.317 338.622 631.229C340.218 632.116 341.408 633.383 342.194 635.029L337.178 637.537C336.291 635.688 334.771 634.763 332.618 634.763C331.452 634.763 330.401 635.055 329.464 635.637C328.552 636.195 327.83 636.98 327.298 637.993C326.791 639.007 326.538 640.159 326.538 641.451C326.538 642.845 326.956 643.959 327.792 644.795C328.628 645.606 329.793 646.011 331.288 646.011C333.466 646.011 335.138 645.099 336.304 643.275L340.674 646.011C339.686 647.557 338.33 648.76 336.608 649.621C334.91 650.483 333.023 650.913 330.946 650.913ZM350.053 650.913C348.28 650.913 346.595 650.723 344.999 650.343C343.428 649.938 342.2 649.419 341.313 648.785L343.593 644.491C344.48 645.074 345.556 645.543 346.823 645.897C348.115 646.252 349.407 646.429 350.699 646.429C352.042 646.429 353.042 646.265 353.701 645.935C354.36 645.581 354.689 645.087 354.689 644.453C354.689 643.947 354.398 643.579 353.815 643.351C353.232 643.123 352.295 642.883 351.003 642.629C349.534 642.351 348.318 642.047 347.355 641.717C346.418 641.388 345.594 640.856 344.885 640.121C344.201 639.361 343.859 638.335 343.859 637.043C343.859 634.789 344.796 633.028 346.671 631.761C348.571 630.495 351.054 629.861 354.119 629.861C355.538 629.861 356.918 630.013 358.261 630.317C359.604 630.621 360.744 631.039 361.681 631.571L359.553 635.903C357.881 634.865 355.867 634.345 353.511 634.345C352.219 634.345 351.231 634.535 350.547 634.915C349.888 635.295 349.559 635.777 349.559 636.359C349.559 636.891 349.85 637.284 350.433 637.537C351.016 637.765 351.991 638.019 353.359 638.297C354.803 638.576 355.981 638.88 356.893 639.209C357.83 639.513 358.641 640.033 359.325 640.767C360.009 641.502 360.351 642.503 360.351 643.769C360.351 646.049 359.388 647.81 357.463 649.051C355.563 650.293 353.093 650.913 350.053 650.913ZM365.49 650.913C364.477 650.913 363.641 650.597 362.982 649.963C362.324 649.305 361.994 648.481 361.994 647.493C361.994 646.328 362.374 645.378 363.134 644.643C363.894 643.909 364.832 643.541 365.946 643.541C366.96 643.541 367.783 643.858 368.416 644.491C369.075 645.125 369.404 645.948 369.404 646.961C369.404 648.101 369.012 649.051 368.226 649.811C367.466 650.546 366.554 650.913 365.49 650.913Z" fill="white"/>
<path d="M131.825 374.34H140.705L137.225 391.62C135.105 393.26 132.645 394.52 129.845 395.4C127.045 396.28 124.145 396.72 121.145 396.72C116.945 396.72 113.285 395.96 110.165 394.44C107.045 392.92 104.625 390.78 102.905 388.02C101.225 385.26 100.385 382.08 100.385 378.48C100.385 373.72 101.485 369.42 103.685 365.58C105.885 361.74 108.985 358.74 112.985 356.58C116.985 354.38 121.585 353.28 126.785 353.28C130.785 353.28 134.245 353.9 137.165 355.14C140.125 356.38 142.505 358.2 144.305 360.6L137.345 366.24C135.945 364.6 134.365 363.42 132.605 362.7C130.845 361.94 128.765 361.56 126.365 361.56C123.165 361.56 120.345 362.28 117.905 363.72C115.465 365.12 113.565 367.06 112.205 369.54C110.885 372.02 110.225 374.8 110.225 377.88C110.225 381.12 111.265 383.7 113.345 385.62C115.465 387.5 118.485 388.44 122.405 388.44C124.885 388.44 127.205 387.94 129.365 386.94L131.825 374.34ZM183.934 363.72L177.514 396H168.634L169.234 392.82C166.554 395.26 163.254 396.48 159.334 396.48C156.814 396.48 154.494 395.9 152.374 394.74C150.254 393.58 148.554 391.92 147.274 389.76C146.034 387.56 145.414 384.98 145.414 382.02C145.414 378.46 146.194 375.26 147.754 372.42C149.354 369.54 151.514 367.3 154.234 365.7C156.954 364.06 159.954 363.24 163.234 363.24C168.194 363.24 171.694 364.86 173.734 368.1L174.574 363.72H183.934ZM162.214 388.74C164.054 388.74 165.694 388.3 167.134 387.42C168.574 386.5 169.694 385.24 170.494 383.64C171.294 382.04 171.694 380.2 171.694 378.12C171.694 375.92 171.034 374.18 169.714 372.9C168.434 371.62 166.634 370.98 164.314 370.98C162.474 370.98 160.834 371.44 159.394 372.36C157.954 373.24 156.834 374.48 156.034 376.08C155.234 377.68 154.834 379.52 154.834 381.6C154.834 383.8 155.474 385.54 156.754 386.82C158.074 388.1 159.894 388.74 162.214 388.74ZM233.1 363.24C236.62 363.24 239.42 364.2 241.5 366.12C243.58 368 244.62 370.68 244.62 374.16C244.62 375.44 244.48 376.76 244.2 378.12L240.66 396H231.3L234.72 378.78C234.88 377.98 234.96 377.16 234.96 376.32C234.96 374.68 234.52 373.44 233.64 372.6C232.8 371.76 231.54 371.34 229.86 371.34C225.34 371.34 222.52 374.04 221.4 379.44L218.1 396H208.74L212.16 378.78C212.32 377.98 212.4 377.18 212.4 376.38C212.4 374.74 211.96 373.5 211.08 372.66C210.24 371.78 208.98 371.34 207.3 371.34C202.78 371.34 199.94 374.08 198.78 379.56L195.54 396H186.18L192.6 363.72H201.48L200.76 367.08C203.56 364.52 206.94 363.24 210.9 363.24C213.14 363.24 215.12 363.7 216.84 364.62C218.6 365.5 219.92 366.8 220.8 368.52C222.36 366.8 224.18 365.5 226.26 364.62C228.34 363.7 230.62 363.24 233.1 363.24ZM284.501 377.46C284.501 378.94 284.321 380.58 283.961 382.38H259.241C259.561 386.78 262.341 388.98 267.581 388.98C269.221 388.98 270.781 388.72 272.261 388.2C273.781 387.68 275.101 386.94 276.221 385.98L280.121 392.16C278.321 393.6 276.261 394.68 273.941 395.4C271.621 396.12 269.181 396.48 266.621 396.48C263.301 396.48 260.381 395.9 257.861 394.74C255.381 393.54 253.461 391.84 252.101 389.64C250.781 387.44 250.121 384.9 250.121 382.02C250.121 378.46 250.921 375.26 252.521 372.42C254.161 369.54 256.421 367.3 259.301 365.7C262.181 364.06 265.461 363.24 269.141 363.24C272.261 363.24 274.961 363.82 277.241 364.98C279.561 366.14 281.341 367.8 282.581 369.96C283.861 372.12 284.501 374.62 284.501 377.46ZM268.721 370.26C266.521 370.26 264.661 370.86 263.141 372.06C261.621 373.22 260.541 374.84 259.901 376.92H275.921C275.921 374.84 275.261 373.22 273.941 372.06C272.661 370.86 270.921 370.26 268.721 370.26ZM345.829 351.48L336.949 396H328.069L328.729 392.76C326.009 395.24 322.709 396.48 318.829 396.48C316.309 396.48 313.989 395.9 311.869 394.74C309.749 393.58 308.049 391.92 306.769 389.76C305.529 387.56 304.909 384.98 304.909 382.02C304.909 378.46 305.689 375.26 307.249 372.42C308.849 369.54 311.009 367.3 313.729 365.7C316.449 364.06 319.449 363.24 322.729 363.24C325.089 363.24 327.149 363.64 328.909 364.44C330.709 365.24 332.129 366.42 333.169 367.98L336.469 351.48H345.829ZM321.709 388.74C323.549 388.74 325.189 388.3 326.629 387.42C328.069 386.5 329.189 385.24 329.989 383.64C330.789 382.04 331.189 380.2 331.189 378.12C331.189 375.92 330.529 374.18 329.209 372.9C327.929 371.62 326.129 370.98 323.809 370.98C321.969 370.98 320.329 371.44 318.889 372.36C317.449 373.24 316.329 374.48 315.529 376.08C314.729 377.68 314.329 379.52 314.329 381.6C314.329 383.8 314.969 385.54 316.249 386.82C317.569 388.1 319.389 388.74 321.709 388.74ZM380.712 377.46C380.712 378.94 380.532 380.58 380.172 382.38H355.452C355.772 386.78 358.552 388.98 363.792 388.98C365.432 388.98 366.992 388.72 368.472 388.2C369.992 387.68 371.312 386.94 372.432 385.98L376.332 392.16C374.532 393.6 372.472 394.68 370.152 395.4C367.832 396.12 365.392 396.48 362.832 396.48C359.512 396.48 356.592 395.9 354.072 394.74C351.592 393.54 349.672 391.84 348.312 389.64C346.992 387.44 346.332 384.9 346.332 382.02C346.332 378.46 347.132 375.26 348.732 372.42C350.372 369.54 352.632 367.3 355.512 365.7C358.392 364.06 361.672 363.24 365.352 363.24C368.472 363.24 371.172 363.82 373.452 364.98C375.772 366.14 377.552 367.8 378.792 369.96C380.072 372.12 380.712 374.62 380.712 377.46ZM364.932 370.26C362.732 370.26 360.872 370.86 359.352 372.06C357.832 373.22 356.752 374.84 356.112 376.92H372.132C372.132 374.84 371.472 373.22 370.152 372.06C368.872 370.86 367.132 370.26 364.932 370.26ZM421.222 363.72L401.182 396H391.522L384.382 363.72H393.622L398.302 385.74L411.862 363.72H421.222Z" fill="white"/>
<path d="M232.938 247.811L236.103 259.621L171.604 276.903L168.44 265.093L154.359 268.866L151.316 257.511L142.686 259.823L113.477 150.812L124.832 147.769L122.52 139.139L133.875 136.096L130.711 124.287L346.917 66.3544L350.082 78.164L361.437 75.1213L363.749 83.7514L372.379 81.439L401.589 190.451L392.959 192.763L396.002 204.118L384.646 207.161L387.811 218.971L323.312 236.253L320.148 224.443L232.938 247.811Z" fill="white"/>
<rect x="240.478" y="194.188" width="10.3452" height="10.3452" transform="rotate(-15 240.478 194.188)" fill="#C4C4C4"/>
<rect x="247.55" y="180.609" width="10.3452" height="10.3452" transform="rotate(-15 247.55 180.609)" fill="#C4C4C4"/>
<rect x="273.181" y="185.425" width="10.3452" height="10.3452" transform="rotate(-15 273.181 185.425)" fill="#C4C4C4"/>
<rect x="280.253" y="171.846" width="10.3452" height="10.3452" transform="rotate(-15 280.253 171.846)" fill="#C4C4C4"/>
<rect x="162.947" y="155.569" width="17.8691" height="53.6072" transform="rotate(-15 162.947 155.569)" fill="#F9CC14"/>
<rect x="154.937" y="194.714" width="17.8691" height="53.6072" transform="rotate(-105 154.937 194.714)" fill="#F9CC14"/>
<path d="M386.541 170.629L395.625 168.194L401.589 190.451L393.535 193.096L395.547 204.24L385.1 207.04L388.265 218.849L323.312 236.253L320.148 224.444L233.392 247.69L236.557 259.499L171.604 276.903L168.44 265.094L154.359 268.867L151.316 257.511L142.686 259.824L136.723 237.567L145.353 235.255L148.639 247.519L161.357 244.111L164.034 254.103L228.533 236.821L225.855 226.828L314.427 203.096L317.105 213.088L382.058 195.684L379.38 185.692L389.827 182.892L386.541 170.629Z" fill="#C4C4C4"/>
<rect x="319.197" y="113.702" width="16.9286" height="16.9286" transform="rotate(-15 319.197 113.702)" fill="#F2C94C"/>
<rect x="328.934" y="150.039" width="16.9286" height="16.9286" transform="rotate(-15 328.934 150.039)" fill="#F2C94C"/>
<rect x="304.988" y="136.982" width="16.9286" height="16.9286" transform="rotate(-15 304.988 136.982)" fill="#F2C94C"/>
<rect x="343.143" y="126.759" width="16.9286" height="16.9286" transform="rotate(-15 343.143 126.759)" fill="#F2C94C"/>
</svg>
