<svg width="450" height="623" viewBox="0 0 450 623" fill="none" xmlns="http://www.w3.org/2000/svg">
<path d="M46.3204 379.4H52.5144L47.1944 406H41.0004L46.3204 379.4ZM74.6429 406.304C72.5402 406.304 70.7036 405.924 69.1329 405.164C67.5622 404.404 66.3462 403.34 65.4849 401.972C64.6489 400.579 64.2309 398.97 64.2309 397.146C64.2309 394.891 64.7629 392.865 65.8269 391.066C66.8909 389.267 68.3729 387.849 70.2729 386.81C72.1729 385.771 74.3136 385.252 76.6949 385.252C78.8736 385.252 80.7482 385.708 82.3189 386.62C83.9149 387.507 85.1056 388.773 85.8909 390.42L80.8749 392.928C79.9882 391.079 78.4682 390.154 76.3149 390.154C75.1496 390.154 74.0982 390.445 73.1609 391.028C72.2489 391.585 71.5269 392.371 70.9949 393.384C70.4882 394.397 70.2349 395.55 70.2349 396.842C70.2349 398.235 70.6529 399.35 71.4889 400.186C72.3249 400.997 73.4902 401.402 74.9849 401.402C77.1636 401.402 78.8356 400.49 80.0009 398.666L84.3709 401.402C83.3829 402.947 82.0276 404.151 80.3049 405.012C78.6076 405.873 76.7202 406.304 74.6429 406.304ZM110.856 385.556L106.79 406H101.166L101.546 403.986C99.849 405.531 97.759 406.304 95.2763 406.304C93.6803 406.304 92.211 405.937 90.8683 405.202C89.5256 404.467 88.449 403.416 87.6383 402.048C86.853 400.655 86.4603 399.021 86.4603 397.146C86.4603 394.891 86.9543 392.865 87.9423 391.066C88.9556 389.242 90.3236 387.823 92.0463 386.81C93.769 385.771 95.669 385.252 97.7463 385.252C100.888 385.252 103.104 386.278 104.396 388.33L104.928 385.556H110.856ZM97.1003 401.402C98.2656 401.402 99.3043 401.123 100.216 400.566C101.128 399.983 101.838 399.185 102.344 398.172C102.851 397.159 103.104 395.993 103.104 394.676C103.104 393.283 102.686 392.181 101.85 391.37C101.04 390.559 99.8996 390.154 98.4303 390.154C97.265 390.154 96.2263 390.445 95.3143 391.028C94.4023 391.585 93.693 392.371 93.1863 393.384C92.6796 394.397 92.4263 395.563 92.4263 396.88C92.4263 398.273 92.8316 399.375 93.6423 400.186C94.4783 400.997 95.631 401.402 97.1003 401.402ZM128.239 385.252C130.519 385.252 132.33 385.86 133.673 387.076C135.015 388.267 135.687 389.977 135.687 392.206C135.687 393.042 135.598 393.865 135.421 394.676L133.141 406H127.213L129.417 395.056C129.518 394.625 129.569 394.157 129.569 393.65C129.569 392.586 129.277 391.775 128.695 391.218C128.112 390.661 127.238 390.382 126.073 390.382C124.553 390.382 123.286 390.825 122.273 391.712C121.285 392.573 120.613 393.878 120.259 395.626L118.207 406H112.279L116.345 385.556H121.969L121.513 387.76C123.337 386.088 125.579 385.252 128.239 385.252ZM179.03 385.252C181.259 385.252 183.032 385.86 184.35 387.076C185.667 388.267 186.326 389.964 186.326 392.168C186.326 392.979 186.237 393.815 186.06 394.676L183.818 406H177.89L180.056 395.094C180.157 394.587 180.208 394.068 180.208 393.536C180.208 392.497 179.929 391.712 179.372 391.18C178.84 390.648 178.042 390.382 176.978 390.382C174.115 390.382 172.329 392.092 171.62 395.512L169.53 406H163.602L165.768 395.094C165.869 394.587 165.92 394.081 165.92 393.574C165.92 392.535 165.641 391.75 165.084 391.218C164.552 390.661 163.754 390.382 162.69 390.382C159.827 390.382 158.028 392.117 157.294 395.588L155.242 406H149.314L153.38 385.556H159.004L158.548 387.684C160.321 386.063 162.462 385.252 164.97 385.252C166.388 385.252 167.642 385.543 168.732 386.126C169.846 386.683 170.682 387.507 171.24 388.596C172.228 387.507 173.38 386.683 174.698 386.126C176.015 385.543 177.459 385.252 179.03 385.252ZM214.206 385.556L210.14 406H204.516L204.896 403.986C203.199 405.531 201.109 406.304 198.626 406.304C197.03 406.304 195.561 405.937 194.218 405.202C192.875 404.467 191.799 403.416 190.988 402.048C190.203 400.655 189.81 399.021 189.81 397.146C189.81 394.891 190.304 392.865 191.292 391.066C192.305 389.242 193.673 387.823 195.396 386.81C197.119 385.771 199.019 385.252 201.096 385.252C204.237 385.252 206.454 386.278 207.746 388.33L208.278 385.556H214.206ZM200.45 401.402C201.615 401.402 202.654 401.123 203.566 400.566C204.478 399.983 205.187 399.185 205.694 398.172C206.201 397.159 206.454 395.993 206.454 394.676C206.454 393.283 206.036 392.181 205.2 391.37C204.389 390.559 203.249 390.154 201.78 390.154C200.615 390.154 199.576 390.445 198.664 391.028C197.752 391.585 197.043 392.371 196.536 393.384C196.029 394.397 195.776 395.563 195.776 396.88C195.776 398.273 196.181 399.375 196.992 400.186C197.828 400.997 198.981 401.402 200.45 401.402ZM230.866 394.448L237.896 406H231.018L226.154 398.058L222.544 401.06L221.556 406H215.628L221.252 377.804H227.18L224.026 393.574L233.83 385.556H241.544L230.866 394.448ZM261.422 394.258C261.422 395.195 261.308 396.234 261.08 397.374H245.424C245.626 400.161 247.387 401.554 250.706 401.554C251.744 401.554 252.732 401.389 253.67 401.06C254.632 400.731 255.468 400.262 256.178 399.654L258.648 403.568C257.508 404.48 256.203 405.164 254.734 405.62C253.264 406.076 251.719 406.304 250.098 406.304C247.995 406.304 246.146 405.937 244.55 405.202C242.979 404.442 241.763 403.365 240.902 401.972C240.066 400.579 239.648 398.97 239.648 397.146C239.648 394.891 240.154 392.865 241.168 391.066C242.206 389.242 243.638 387.823 245.462 386.81C247.286 385.771 249.363 385.252 251.694 385.252C253.67 385.252 255.38 385.619 256.824 386.354C258.293 387.089 259.42 388.14 260.206 389.508C261.016 390.876 261.422 392.459 261.422 394.258ZM251.428 389.698C250.034 389.698 248.856 390.078 247.894 390.838C246.931 391.573 246.247 392.599 245.842 393.916H255.988C255.988 392.599 255.57 391.573 254.734 390.838C253.923 390.078 252.821 389.698 251.428 389.698ZM299.009 385.556L295.627 402.58C294.867 406.431 293.398 409.243 291.219 411.016C289.066 412.789 286.178 413.676 282.555 413.676C280.579 413.676 278.755 413.448 277.083 412.992C275.436 412.536 274.018 411.865 272.827 410.978L275.639 406.684C276.45 407.368 277.488 407.9 278.755 408.28C280.047 408.685 281.402 408.888 282.821 408.888C284.822 408.888 286.342 408.445 287.381 407.558C288.42 406.697 289.129 405.379 289.509 403.606L289.661 402.732C288.014 404.252 285.937 405.012 283.429 405.012C281.732 405.012 280.199 404.67 278.831 403.986C277.463 403.277 276.374 402.276 275.563 400.984C274.778 399.692 274.385 398.172 274.385 396.424C274.385 394.347 274.879 392.459 275.867 390.762C276.855 389.065 278.21 387.722 279.933 386.734C281.681 385.746 283.632 385.252 285.785 385.252C287.381 385.252 288.774 385.556 289.965 386.164C291.181 386.747 292.093 387.659 292.701 388.9L293.347 385.556H299.009ZM285.025 400.148C286.748 400.148 288.166 399.591 289.281 398.476C290.396 397.361 290.953 395.93 290.953 394.182C290.953 392.941 290.548 391.965 289.737 391.256C288.926 390.521 287.799 390.154 286.355 390.154C284.607 390.154 283.163 390.711 282.023 391.826C280.908 392.941 280.351 394.372 280.351 396.12C280.351 397.361 280.769 398.349 281.605 399.084C282.441 399.793 283.581 400.148 285.025 400.148ZM325.274 385.556L321.208 406H315.584L315.964 403.986C314.267 405.531 312.177 406.304 309.694 406.304C308.098 406.304 306.629 405.937 305.286 405.202C303.944 404.467 302.867 403.416 302.056 402.048C301.271 400.655 300.878 399.021 300.878 397.146C300.878 394.891 301.372 392.865 302.36 391.066C303.374 389.242 304.742 387.823 306.464 386.81C308.187 385.771 310.087 385.252 312.164 385.252C315.306 385.252 317.522 386.278 318.814 388.33L319.346 385.556H325.274ZM311.518 401.402C312.684 401.402 313.722 401.123 314.634 400.566C315.546 399.983 316.256 399.185 316.762 398.172C317.269 397.159 317.522 395.993 317.522 394.676C317.522 393.283 317.104 392.181 316.268 391.37C315.458 390.559 314.318 390.154 312.848 390.154C311.683 390.154 310.644 390.445 309.732 391.028C308.82 391.585 308.111 392.371 307.604 393.384C307.098 394.397 306.844 395.563 306.844 396.88C306.844 398.273 307.25 399.375 308.06 400.186C308.896 400.997 310.049 401.402 311.518 401.402ZM356.413 385.252C358.642 385.252 360.415 385.86 361.733 387.076C363.05 388.267 363.709 389.964 363.709 392.168C363.709 392.979 363.62 393.815 363.443 394.676L361.201 406H355.273L357.439 395.094C357.54 394.587 357.591 394.068 357.591 393.536C357.591 392.497 357.312 391.712 356.755 391.18C356.223 390.648 355.425 390.382 354.361 390.382C351.498 390.382 349.712 392.092 349.003 395.512L346.913 406H340.985L343.151 395.094C343.252 394.587 343.303 394.081 343.303 393.574C343.303 392.535 343.024 391.75 342.467 391.218C341.935 390.661 341.137 390.382 340.073 390.382C337.21 390.382 335.411 392.117 334.677 395.588L332.625 406H326.697L330.763 385.556H336.387L335.931 387.684C337.704 386.063 339.845 385.252 342.353 385.252C343.771 385.252 345.025 385.543 346.115 386.126C347.229 386.683 348.065 387.507 348.623 388.596C349.611 387.507 350.763 386.683 352.081 386.126C353.398 385.543 354.842 385.252 356.413 385.252ZM388.967 394.258C388.967 395.195 388.853 396.234 388.625 397.374H372.969C373.171 400.161 374.932 401.554 378.251 401.554C379.289 401.554 380.277 401.389 381.215 401.06C382.177 400.731 383.013 400.262 383.723 399.654L386.193 403.568C385.053 404.48 383.748 405.164 382.279 405.62C380.809 406.076 379.264 406.304 377.643 406.304C375.54 406.304 373.691 405.937 372.095 405.202C370.524 404.442 369.308 403.365 368.447 401.972C367.611 400.579 367.193 398.97 367.193 397.146C367.193 394.891 367.699 392.865 368.713 391.066C369.751 389.242 371.183 387.823 373.007 386.81C374.831 385.771 376.908 385.252 379.239 385.252C381.215 385.252 382.925 385.619 384.369 386.354C385.838 387.089 386.965 388.14 387.751 389.508C388.561 390.876 388.967 392.459 388.967 394.258ZM378.973 389.698C377.579 389.698 376.401 390.078 375.439 390.838C374.476 391.573 373.792 392.599 373.387 393.916H383.533C383.533 392.599 383.115 391.573 382.279 390.838C381.468 390.078 380.366 389.698 378.973 389.698ZM398.084 406.304C396.311 406.304 394.626 406.114 393.03 405.734C391.459 405.329 390.231 404.809 389.344 404.176L391.624 399.882C392.511 400.465 393.587 400.933 394.854 401.288C396.146 401.643 397.438 401.82 398.73 401.82C400.073 401.82 401.073 401.655 401.732 401.326C402.391 400.971 402.72 400.477 402.72 399.844C402.72 399.337 402.429 398.97 401.846 398.742C401.263 398.514 400.326 398.273 399.034 398.02C397.565 397.741 396.349 397.437 395.386 397.108C394.449 396.779 393.625 396.247 392.916 395.512C392.232 394.752 391.89 393.726 391.89 392.434C391.89 390.179 392.827 388.419 394.702 387.152C396.602 385.885 399.085 385.252 402.15 385.252C403.569 385.252 404.949 385.404 406.292 385.708C407.635 386.012 408.775 386.43 409.712 386.962L407.584 391.294C405.912 390.255 403.898 389.736 401.542 389.736C400.25 389.736 399.262 389.926 398.578 390.306C397.919 390.686 397.59 391.167 397.59 391.75C397.59 392.282 397.881 392.675 398.464 392.928C399.047 393.156 400.022 393.409 401.39 393.688C402.834 393.967 404.012 394.271 404.924 394.6C405.861 394.904 406.672 395.423 407.356 396.158C408.04 396.893 408.382 397.893 408.382 399.16C408.382 401.44 407.419 403.201 405.494 404.442C403.594 405.683 401.124 406.304 398.084 406.304ZM46.6126 431.556L35.3266 452H29.4746L27.1186 439.27L20.0886 452H14.3126L10.7026 431.556H16.0986L18.3406 445.312L26.0166 431.556H31.1086L33.4266 445.312L41.0266 431.556H46.6126ZM49.288 431.556H55.178L51.112 452H45.222L49.288 431.556ZM53.24 428.706C52.2267 428.706 51.3907 428.415 50.732 427.832C50.0987 427.224 49.782 426.489 49.782 425.628C49.782 424.615 50.1367 423.779 50.846 423.12C51.5807 422.436 52.5307 422.094 53.696 422.094C54.7347 422.094 55.5707 422.385 56.204 422.968C56.8627 423.525 57.192 424.222 57.192 425.058C57.192 426.147 56.8247 427.034 56.09 427.718C55.3553 428.377 54.4053 428.706 53.24 428.706ZM64.6706 444.78C64.6199 444.983 64.5946 445.261 64.5946 445.616C64.5946 446.933 65.3166 447.592 66.7606 447.592C67.5459 447.592 68.3439 447.351 69.1546 446.87L70.0286 451.088C68.7112 451.899 67.0139 452.304 64.9366 452.304C63.0112 452.304 61.4659 451.797 60.3006 450.784C59.1352 449.771 58.5526 448.377 58.5526 446.604C58.5526 446.097 58.6159 445.502 58.7426 444.818L60.3766 436.572H57.2226L58.1346 432.012H61.2886L62.2766 427.034H68.2046L67.2166 432.012H72.3086L71.3966 436.572H66.3046L64.6706 444.78ZM89.0883 431.252C91.3683 431.252 93.1796 431.86 94.5223 433.076C95.8649 434.292 96.5363 436.015 96.5363 438.244C96.5363 439.055 96.4476 439.865 96.2703 440.676L93.9903 452H88.0623L90.2663 441.056C90.3676 440.625 90.4183 440.157 90.4183 439.65C90.4183 438.586 90.1269 437.775 89.5443 437.218C88.9616 436.661 88.0876 436.382 86.9223 436.382C85.4023 436.382 84.1356 436.825 83.1223 437.712C82.1343 438.573 81.4629 439.878 81.1083 441.626L79.0563 452H73.1283L78.7523 423.804H84.6803L82.7803 433.418C84.5283 431.974 86.6309 431.252 89.0883 431.252ZM125.705 431.252C127.301 431.252 128.771 431.619 130.113 432.354C131.481 433.089 132.558 434.153 133.343 435.546C134.154 436.914 134.559 438.535 134.559 440.41C134.559 442.665 134.053 444.704 133.039 446.528C132.051 448.327 130.696 449.745 128.973 450.784C127.251 451.797 125.338 452.304 123.235 452.304C120.119 452.304 117.915 451.291 116.623 449.264L114.609 459.372H108.681L114.229 431.556H119.853L119.435 433.57C121.133 432.025 123.223 431.252 125.705 431.252ZM122.551 447.402C123.717 447.402 124.755 447.123 125.667 446.566C126.579 445.983 127.289 445.185 127.795 444.172C128.302 443.159 128.555 441.993 128.555 440.676C128.555 439.283 128.137 438.181 127.301 437.37C126.491 436.559 125.351 436.154 123.881 436.154C122.741 436.154 121.715 436.445 120.803 437.028C119.891 437.585 119.182 438.371 118.675 439.384C118.169 440.397 117.915 441.563 117.915 442.88C117.915 444.273 118.321 445.375 119.131 446.186C119.942 446.997 121.082 447.402 122.551 447.402ZM152.36 431.252C154.64 431.252 156.451 431.86 157.794 433.076C159.136 434.292 159.808 436.015 159.808 438.244C159.808 439.055 159.719 439.865 159.542 440.676L157.262 452H151.334L153.538 441.056C153.639 440.625 153.69 440.157 153.69 439.65C153.69 438.586 153.398 437.775 152.816 437.218C152.233 436.661 151.359 436.382 150.194 436.382C148.674 436.382 147.407 436.825 146.394 437.712C145.406 438.573 144.734 439.878 144.38 441.626L142.328 452H136.4L142.024 423.804H147.952L146.052 433.418C147.8 431.974 149.902 431.252 152.36 431.252ZM187.71 431.556L183.644 452H178.02L178.4 449.986C176.702 451.531 174.612 452.304 172.13 452.304C170.534 452.304 169.064 451.937 167.722 451.202C166.379 450.467 165.302 449.416 164.492 448.048C163.706 446.655 163.314 445.021 163.314 443.146C163.314 440.891 163.808 438.865 164.796 437.066C165.809 435.242 167.177 433.823 168.9 432.81C170.622 431.771 172.522 431.252 174.6 431.252C177.741 431.252 179.958 432.278 181.25 434.33L181.782 431.556H187.71ZM173.954 447.402C175.119 447.402 176.158 447.123 177.07 446.566C177.982 445.983 178.691 445.185 179.198 444.172C179.704 443.159 179.958 441.993 179.958 440.676C179.958 439.283 179.54 438.181 178.704 437.37C177.893 436.559 176.753 436.154 175.284 436.154C174.118 436.154 173.08 436.445 172.168 437.028C171.256 437.585 170.546 438.371 170.04 439.384C169.533 440.397 169.28 441.563 169.28 442.88C169.28 444.273 169.685 445.375 170.496 446.186C171.332 446.997 172.484 447.402 173.954 447.402ZM196.58 452.304C194.807 452.304 193.122 452.114 191.526 451.734C189.955 451.329 188.727 450.809 187.84 450.176L190.12 445.882C191.007 446.465 192.083 446.933 193.35 447.288C194.642 447.643 195.934 447.82 197.226 447.82C198.569 447.82 199.569 447.655 200.228 447.326C200.887 446.971 201.216 446.477 201.216 445.844C201.216 445.337 200.925 444.97 200.342 444.742C199.759 444.514 198.822 444.273 197.53 444.02C196.061 443.741 194.845 443.437 193.882 443.108C192.945 442.779 192.121 442.247 191.412 441.512C190.728 440.752 190.386 439.726 190.386 438.434C190.386 436.179 191.323 434.419 193.198 433.152C195.098 431.885 197.581 431.252 200.646 431.252C202.065 431.252 203.445 431.404 204.788 431.708C206.131 432.012 207.271 432.43 208.208 432.962L206.08 437.294C204.408 436.255 202.394 435.736 200.038 435.736C198.746 435.736 197.758 435.926 197.074 436.306C196.415 436.686 196.086 437.167 196.086 437.75C196.086 438.282 196.377 438.675 196.96 438.928C197.543 439.156 198.518 439.409 199.886 439.688C201.33 439.967 202.508 440.271 203.42 440.6C204.357 440.904 205.168 441.423 205.852 442.158C206.536 442.893 206.878 443.893 206.878 445.16C206.878 447.44 205.915 449.201 203.99 450.442C202.09 451.683 199.62 452.304 196.58 452.304ZM231.512 440.258C231.512 441.195 231.398 442.234 231.17 443.374H215.514C215.716 446.161 217.477 447.554 220.796 447.554C221.834 447.554 222.822 447.389 223.76 447.06C224.722 446.731 225.558 446.262 226.268 445.654L228.738 449.568C227.598 450.48 226.293 451.164 224.824 451.62C223.354 452.076 221.809 452.304 220.188 452.304C218.085 452.304 216.236 451.937 214.64 451.202C213.069 450.442 211.853 449.365 210.992 447.972C210.156 446.579 209.738 444.97 209.738 443.146C209.738 440.891 210.244 438.865 211.258 437.066C212.296 435.242 213.728 433.823 215.552 432.81C217.376 431.771 219.453 431.252 221.784 431.252C223.76 431.252 225.47 431.619 226.914 432.354C228.383 433.089 229.51 434.14 230.296 435.508C231.106 436.876 231.512 438.459 231.512 440.258ZM221.518 435.698C220.124 435.698 218.946 436.078 217.984 436.838C217.021 437.573 216.337 438.599 215.932 439.916H226.078C226.078 438.599 225.66 437.573 224.824 436.838C224.013 436.078 222.911 435.698 221.518 435.698ZM242.377 433.988C243.264 433.025 244.328 432.329 245.569 431.898C246.836 431.467 248.318 431.252 250.015 431.252L248.951 436.724C248.242 436.673 247.786 436.648 247.583 436.648C245.784 436.648 244.34 437.091 243.251 437.978C242.187 438.865 241.465 440.245 241.085 442.12L239.109 452H233.181L237.247 431.556H242.871L242.377 433.988ZM252.329 444.932C253.342 444.932 254.166 445.249 254.799 445.882C255.458 446.515 255.787 447.339 255.787 448.352C255.787 448.884 255.686 449.391 255.483 449.872C255.306 450.328 254.964 450.949 254.457 451.734L250.657 457.852H246.933L249.859 451.734C249.403 451.43 249.036 451.037 248.757 450.556C248.504 450.049 248.377 449.492 248.377 448.884C248.377 447.719 248.757 446.769 249.517 446.034C250.277 445.299 251.214 444.932 252.329 444.932ZM294.544 431.556L290.478 452H284.854L285.272 449.796C284.385 450.632 283.372 451.265 282.232 451.696C281.092 452.101 279.889 452.304 278.622 452.304C276.393 452.304 274.607 451.696 273.264 450.48C271.947 449.264 271.288 447.554 271.288 445.35C271.288 444.514 271.377 443.691 271.554 442.88L273.796 431.556H279.724L277.558 442.5C277.457 442.981 277.406 443.475 277.406 443.982C277.406 446.11 278.546 447.174 280.826 447.174C282.321 447.174 283.549 446.743 284.512 445.882C285.5 444.995 286.171 443.678 286.526 441.93L288.616 431.556H294.544ZM311.93 431.252C314.21 431.252 316.021 431.86 317.364 433.076C318.707 434.267 319.378 435.977 319.378 438.206C319.378 439.042 319.289 439.865 319.112 440.676L316.832 452H310.904L313.108 441.056C313.209 440.625 313.26 440.157 313.26 439.65C313.26 438.586 312.969 437.775 312.386 437.218C311.803 436.661 310.929 436.382 309.764 436.382C308.244 436.382 306.977 436.825 305.964 437.712C304.976 438.573 304.305 439.878 303.95 441.626L301.898 452H295.97L300.036 431.556H305.66L305.204 433.76C307.028 432.088 309.27 431.252 311.93 431.252ZM326.309 431.556H332.199L328.133 452H322.243L326.309 431.556ZM330.261 428.706C329.248 428.706 328.412 428.415 327.753 427.832C327.12 427.224 326.803 426.489 326.803 425.628C326.803 424.615 327.158 423.779 327.867 423.12C328.602 422.436 329.552 422.094 330.717 422.094C331.756 422.094 332.592 422.385 333.225 422.968C333.884 423.525 334.213 424.222 334.213 425.058C334.213 426.147 333.846 427.034 333.111 427.718C332.377 428.377 331.427 428.706 330.261 428.706ZM341.692 444.78C341.641 444.983 341.616 445.261 341.616 445.616C341.616 446.933 342.338 447.592 343.782 447.592C344.567 447.592 345.365 447.351 346.176 446.87L347.05 451.088C345.733 451.899 344.035 452.304 341.958 452.304C340.033 452.304 338.487 451.797 337.322 450.784C336.157 449.771 335.574 448.377 335.574 446.604C335.574 446.097 335.637 445.502 335.764 444.818L337.398 436.572H334.244L335.156 432.012H338.31L339.298 427.034H345.226L344.238 432.012H349.33L348.418 436.572H343.326L341.692 444.78ZM374.137 431.556L360.533 453.368C359.063 455.749 357.632 457.396 356.239 458.308C354.871 459.22 353.186 459.676 351.185 459.676C350.121 459.676 349.082 459.511 348.069 459.182C347.03 458.853 346.219 458.422 345.637 457.89L348.373 453.634C349.285 454.47 350.374 454.888 351.641 454.888C352.401 454.888 353.059 454.698 353.617 454.318C354.174 453.938 354.744 453.292 355.327 452.38L355.517 452.038L350.805 431.556H356.733L359.773 445.464L368.285 431.556H374.137ZM404.949 429.39L397.501 436.344C399.351 436.775 400.782 437.573 401.795 438.738C402.809 439.903 403.315 441.347 403.315 443.07C403.315 444.869 402.783 446.477 401.719 447.896C400.681 449.315 399.224 450.429 397.349 451.24C395.475 452.051 393.347 452.456 390.965 452.456C389.015 452.456 387.191 452.19 385.493 451.658C383.796 451.126 382.377 450.366 381.237 449.378L384.201 444.856C385.088 445.616 386.152 446.211 387.393 446.642C388.66 447.073 389.99 447.288 391.383 447.288C393.207 447.288 394.613 446.959 395.601 446.3C396.589 445.616 397.083 444.666 397.083 443.45C397.083 442.487 396.716 441.778 395.981 441.322C395.272 440.841 394.183 440.6 392.713 440.6H389.901L390.699 436.534L397.311 430.34H386.063L387.089 425.4H405.709L404.949 429.39ZM432.15 423.804L426.526 452H420.902L421.32 449.948C419.597 451.519 417.507 452.304 415.05 452.304C413.454 452.304 411.984 451.937 410.642 451.202C409.299 450.467 408.222 449.416 407.412 448.048C406.626 446.655 406.234 445.021 406.234 443.146C406.234 440.891 406.728 438.865 407.716 437.066C408.729 435.242 410.097 433.823 411.82 432.81C413.542 431.771 415.442 431.252 417.52 431.252C419.014 431.252 420.319 431.505 421.434 432.012C422.574 432.519 423.473 433.266 424.132 434.254L426.222 423.804H432.15ZM416.874 447.402C418.039 447.402 419.078 447.123 419.99 446.566C420.902 445.983 421.611 445.185 422.118 444.172C422.624 443.159 422.878 441.993 422.878 440.676C422.878 439.283 422.46 438.181 421.624 437.37C420.813 436.559 419.673 436.154 418.204 436.154C417.038 436.154 416 436.445 415.088 437.028C414.176 437.585 413.466 438.371 412.96 439.384C412.453 440.397 412.2 441.563 412.2 442.88C412.2 444.273 412.605 445.375 413.416 446.186C414.252 446.997 415.404 447.402 416.874 447.402ZM434.748 452.304C433.735 452.304 432.899 451.987 432.24 451.354C431.581 450.695 431.252 449.872 431.252 448.884C431.252 447.719 431.632 446.769 432.392 446.034C433.152 445.299 434.089 444.932 435.204 444.932C436.217 444.932 437.041 445.249 437.674 445.882C438.333 446.515 438.662 447.339 438.662 448.352C438.662 449.492 438.269 450.442 437.484 451.202C436.724 451.937 435.812 452.304 434.748 452.304ZM13.8868 471.4H20.0808L14.7608 498H8.56684L13.8868 471.4ZM42.2093 498.304C40.1066 498.304 38.27 497.924 36.6993 497.164C35.1286 496.404 33.9126 495.34 33.0513 493.972C32.2153 492.579 31.7973 490.97 31.7973 489.146C31.7973 486.891 32.3293 484.865 33.3933 483.066C34.4573 481.267 35.9393 479.849 37.8393 478.81C39.7393 477.771 41.88 477.252 44.2613 477.252C46.44 477.252 48.3146 477.708 49.8853 478.62C51.4813 479.507 52.672 480.773 53.4573 482.42L48.4413 484.928C47.5546 483.079 46.0346 482.154 43.8813 482.154C42.716 482.154 41.6646 482.445 40.7273 483.028C39.8153 483.585 39.0933 484.371 38.5613 485.384C38.0546 486.397 37.8013 487.55 37.8013 488.842C37.8013 490.235 38.2193 491.35 39.0553 492.186C39.8913 492.997 41.0566 493.402 42.5513 493.402C44.73 493.402 46.402 492.49 47.5673 490.666L51.9373 493.402C50.9493 494.947 49.594 496.151 47.8713 497.012C46.174 497.873 44.2866 498.304 42.2093 498.304ZM78.4227 477.556L74.3567 498H68.7327L69.1127 495.986C67.4154 497.531 65.3254 498.304 62.8427 498.304C61.2467 498.304 59.7774 497.937 58.4347 497.202C57.0921 496.467 56.0154 495.416 55.2047 494.048C54.4194 492.655 54.0267 491.021 54.0267 489.146C54.0267 486.891 54.5207 484.865 55.5087 483.066C56.5221 481.242 57.8901 479.823 59.6127 478.81C61.3354 477.771 63.2354 477.252 65.3127 477.252C68.4541 477.252 70.6707 478.278 71.9627 480.33L72.4947 477.556H78.4227ZM64.6667 493.402C65.8321 493.402 66.8707 493.123 67.7827 492.566C68.6947 491.983 69.4041 491.185 69.9107 490.172C70.4174 489.159 70.6707 487.993 70.6707 486.676C70.6707 485.283 70.2527 484.181 69.4167 483.37C68.6061 482.559 67.4661 482.154 65.9967 482.154C64.8314 482.154 63.7927 482.445 62.8807 483.028C61.9687 483.585 61.2594 484.371 60.7527 485.384C60.2461 486.397 59.9927 487.563 59.9927 488.88C59.9927 490.273 60.3981 491.375 61.2087 492.186C62.0447 492.997 63.1974 493.402 64.6667 493.402ZM95.805 477.252C98.085 477.252 99.8964 477.86 101.239 479.076C102.582 480.267 103.253 481.977 103.253 484.206C103.253 485.042 103.164 485.865 102.987 486.676L100.707 498H94.779L96.983 487.056C97.0844 486.625 97.135 486.157 97.135 485.65C97.135 484.586 96.8437 483.775 96.261 483.218C95.6784 482.661 94.8044 482.382 93.639 482.382C92.119 482.382 90.8524 482.825 89.839 483.712C88.851 484.573 88.1797 485.878 87.825 487.626L85.773 498H79.845L83.911 477.556H89.535L89.079 479.76C90.903 478.088 93.145 477.252 95.805 477.252ZM141.694 477.556L137.628 498H132.004L132.384 495.986C130.687 497.531 128.597 498.304 126.114 498.304C124.518 498.304 123.049 497.937 121.706 497.202C120.364 496.467 119.287 495.416 118.476 494.048C117.691 492.655 117.298 491.021 117.298 489.146C117.298 486.891 117.792 484.865 118.78 483.066C119.794 481.242 121.162 479.823 122.884 478.81C124.607 477.771 126.507 477.252 128.584 477.252C131.726 477.252 133.942 478.278 135.234 480.33L135.766 477.556H141.694ZM127.938 493.402C129.104 493.402 130.142 493.123 131.054 492.566C131.966 491.983 132.676 491.185 133.182 490.172C133.689 489.159 133.942 487.993 133.942 486.676C133.942 485.283 133.524 484.181 132.688 483.37C131.878 482.559 130.738 482.154 129.268 482.154C128.103 482.154 127.064 482.445 126.152 483.028C125.24 483.585 124.531 484.371 124.024 485.384C123.518 486.397 123.264 487.563 123.264 488.88C123.264 490.273 123.67 491.375 124.48 492.186C125.316 492.997 126.469 493.402 127.938 493.402ZM148.741 469.804H154.669L149.045 498H143.117L148.741 469.804ZM161.994 498.304C160.221 498.304 158.536 498.114 156.94 497.734C155.37 497.329 154.141 496.809 153.254 496.176L155.534 491.882C156.421 492.465 157.498 492.933 158.764 493.288C160.056 493.643 161.348 493.82 162.64 493.82C163.983 493.82 164.984 493.655 165.642 493.326C166.301 492.971 166.63 492.477 166.63 491.844C166.63 491.337 166.339 490.97 165.756 490.742C165.174 490.514 164.236 490.273 162.944 490.02C161.475 489.741 160.259 489.437 159.296 489.108C158.359 488.779 157.536 488.247 156.826 487.512C156.142 486.752 155.8 485.726 155.8 484.434C155.8 482.179 156.738 480.419 158.612 479.152C160.512 477.885 162.995 477.252 166.06 477.252C167.479 477.252 168.86 477.404 170.202 477.708C171.545 478.012 172.685 478.43 173.622 478.962L171.494 483.294C169.822 482.255 167.808 481.736 165.452 481.736C164.16 481.736 163.172 481.926 162.488 482.306C161.83 482.686 161.5 483.167 161.5 483.75C161.5 484.282 161.792 484.675 162.374 484.928C162.957 485.156 163.932 485.409 165.3 485.688C166.744 485.967 167.922 486.271 168.834 486.6C169.772 486.904 170.582 487.423 171.266 488.158C171.95 488.893 172.292 489.893 172.292 491.16C172.292 493.44 171.33 495.201 169.404 496.442C167.504 497.683 165.034 498.304 161.994 498.304ZM185.412 498.304C183.36 498.304 181.548 497.924 179.978 497.164C178.432 496.404 177.229 495.34 176.368 493.972C175.532 492.579 175.114 490.97 175.114 489.146C175.114 486.891 175.646 484.865 176.71 483.066C177.774 481.267 179.243 479.849 181.118 478.81C182.992 477.771 185.108 477.252 187.464 477.252C189.541 477.252 191.352 477.632 192.898 478.392C194.443 479.152 195.634 480.229 196.47 481.622C197.331 482.99 197.762 484.586 197.762 486.41C197.762 488.665 197.23 490.691 196.166 492.49C195.127 494.289 193.658 495.707 191.758 496.746C189.883 497.785 187.768 498.304 185.412 498.304ZM185.792 493.402C186.932 493.402 187.958 493.123 188.87 492.566C189.782 491.983 190.491 491.185 190.998 490.172C191.504 489.159 191.758 487.993 191.758 486.676C191.758 485.283 191.352 484.181 190.542 483.37C189.731 482.559 188.591 482.154 187.122 482.154C185.956 482.154 184.918 482.445 184.006 483.028C183.094 483.585 182.384 484.371 181.878 485.384C181.371 486.397 181.118 487.563 181.118 488.88C181.118 490.273 181.523 491.375 182.334 492.186C183.17 492.997 184.322 493.402 185.792 493.402ZM218.415 490.78C218.364 490.983 218.339 491.261 218.339 491.616C218.339 492.933 219.061 493.592 220.505 493.592C221.29 493.592 222.088 493.351 222.899 492.87L223.773 497.088C222.455 497.899 220.758 498.304 218.681 498.304C216.755 498.304 215.21 497.797 214.045 496.784C212.879 495.771 212.297 494.377 212.297 492.604C212.297 492.097 212.36 491.502 212.487 490.818L214.121 482.572H210.967L211.879 478.012H215.033L216.021 473.034H221.949L220.961 478.012H226.053L225.141 482.572H220.049L218.415 490.78ZM242.832 477.252C245.112 477.252 246.924 477.86 248.266 479.076C249.609 480.292 250.28 482.015 250.28 484.244C250.28 485.055 250.192 485.865 250.014 486.676L247.734 498H241.806L244.01 487.056C244.112 486.625 244.162 486.157 244.162 485.65C244.162 484.586 243.871 483.775 243.288 483.218C242.706 482.661 241.832 482.382 240.666 482.382C239.146 482.382 237.88 482.825 236.866 483.712C235.878 484.573 235.207 485.878 234.852 487.626L232.8 498H226.872L232.496 469.804H238.424L236.524 479.418C238.272 477.974 240.375 477.252 242.832 477.252ZM257.212 477.556H263.102L259.036 498H253.146L257.212 477.556ZM261.164 474.706C260.15 474.706 259.314 474.415 258.656 473.832C258.022 473.224 257.706 472.489 257.706 471.628C257.706 470.615 258.06 469.779 258.77 469.12C259.504 468.436 260.454 468.094 261.62 468.094C262.658 468.094 263.494 468.385 264.128 468.968C264.786 469.525 265.116 470.222 265.116 471.058C265.116 472.147 264.748 473.034 264.014 473.718C263.279 474.377 262.329 474.706 261.164 474.706ZM280.498 477.252C282.778 477.252 284.59 477.86 285.932 479.076C287.275 480.267 287.946 481.977 287.946 484.206C287.946 485.042 287.858 485.865 287.68 486.676L285.4 498H279.472L281.676 487.056C281.778 486.625 281.828 486.157 281.828 485.65C281.828 484.586 281.537 483.775 280.954 483.218C280.372 482.661 279.498 482.382 278.332 482.382C276.812 482.382 275.546 482.825 274.532 483.712C273.544 484.573 272.873 485.878 272.518 487.626L270.466 498H264.538L268.604 477.556H274.228L273.772 479.76C275.596 478.088 277.838 477.252 280.498 477.252ZM306.05 486.448L313.08 498H306.202L301.338 490.058L297.728 493.06L296.74 498H290.812L296.436 469.804H302.364L299.21 485.574L309.014 477.556H316.728L306.05 486.448ZM336.744 498.304C334.692 498.304 332.88 497.924 331.31 497.164C329.764 496.404 328.561 495.34 327.7 493.972C326.864 492.579 326.446 490.97 326.446 489.146C326.446 486.891 326.978 484.865 328.042 483.066C329.106 481.267 330.575 479.849 332.45 478.81C334.324 477.771 336.44 477.252 338.796 477.252C340.873 477.252 342.684 477.632 344.23 478.392C345.775 479.152 346.966 480.229 347.802 481.622C348.663 482.99 349.094 484.586 349.094 486.41C349.094 488.665 348.562 490.691 347.498 492.49C346.459 494.289 344.99 495.707 343.09 496.746C341.215 497.785 339.1 498.304 336.744 498.304ZM337.124 493.402C338.264 493.402 339.29 493.123 340.202 492.566C341.114 491.983 341.823 491.185 342.33 490.172C342.836 489.159 343.09 487.993 343.09 486.676C343.09 485.283 342.684 484.181 341.874 483.37C341.063 482.559 339.923 482.154 338.454 482.154C337.288 482.154 336.25 482.445 335.338 483.028C334.426 483.585 333.716 484.371 333.21 485.384C332.703 486.397 332.45 487.563 332.45 488.88C332.45 490.273 332.855 491.375 333.666 492.186C334.502 492.997 335.654 493.402 337.124 493.402ZM364.799 474.174C363.887 474.174 363.165 474.427 362.633 474.934C362.126 475.415 361.772 476.188 361.569 477.252L361.417 478.012H366.623L365.711 482.572H360.657L357.579 498H351.651L354.729 482.572H351.537L352.449 478.012H355.641L355.869 476.834C356.35 474.554 357.338 472.768 358.833 471.476C360.353 470.159 362.329 469.5 364.761 469.5C365.673 469.5 366.534 469.601 367.345 469.804C368.181 470.007 368.89 470.285 369.473 470.64L367.155 474.896C366.522 474.415 365.736 474.174 364.799 474.174ZM384.442 490.78C384.391 490.983 384.366 491.261 384.366 491.616C384.366 492.933 385.088 493.592 386.532 493.592C387.317 493.592 388.115 493.351 388.926 492.87L389.8 497.088C388.483 497.899 386.785 498.304 384.708 498.304C382.783 498.304 381.237 497.797 380.072 496.784C378.907 495.771 378.324 494.377 378.324 492.604C378.324 492.097 378.387 491.502 378.514 490.818L380.148 482.572H376.994L377.906 478.012H381.06L382.048 473.034H387.976L386.988 478.012H392.08L391.168 482.572H386.076L384.442 490.78ZM408.86 477.252C411.14 477.252 412.951 477.86 414.294 479.076C415.636 480.292 416.308 482.015 416.308 484.244C416.308 485.055 416.219 485.865 416.042 486.676L413.762 498H407.834L410.038 487.056C410.139 486.625 410.19 486.157 410.19 485.65C410.19 484.586 409.898 483.775 409.316 483.218C408.733 482.661 407.859 482.382 406.694 482.382C405.174 482.382 403.907 482.825 402.894 483.712C401.906 484.573 401.234 485.878 400.88 487.626L398.828 498H392.9L398.524 469.804H404.452L402.552 479.418C404.3 477.974 406.402 477.252 408.86 477.252ZM441.588 486.258C441.588 487.195 441.474 488.234 441.246 489.374H425.59C425.792 492.161 427.553 493.554 430.872 493.554C431.91 493.554 432.898 493.389 433.836 493.06C434.798 492.731 435.634 492.262 436.344 491.654L438.814 495.568C437.674 496.48 436.369 497.164 434.9 497.62C433.43 498.076 431.885 498.304 430.264 498.304C428.161 498.304 426.312 497.937 424.716 497.202C423.145 496.442 421.929 495.365 421.068 493.972C420.232 492.579 419.814 490.97 419.814 489.146C419.814 486.891 420.32 484.865 421.334 483.066C422.372 481.242 423.804 479.823 425.628 478.81C427.452 477.771 429.529 477.252 431.86 477.252C433.836 477.252 435.546 477.619 436.99 478.354C438.459 479.089 439.586 480.14 440.372 481.508C441.182 482.876 441.588 484.459 441.588 486.258ZM431.594 481.698C430.2 481.698 429.022 482.078 428.06 482.838C427.097 483.573 426.413 484.599 426.008 485.916H436.154C436.154 484.599 435.736 483.573 434.9 482.838C434.089 482.078 432.987 481.698 431.594 481.698ZM92.0751 523.556H97.9651L93.8991 544H88.0091L92.0751 523.556ZM96.0271 520.706C95.0138 520.706 94.1778 520.415 93.5191 519.832C92.8858 519.224 92.5691 518.489 92.5691 517.628C92.5691 516.615 92.9238 515.779 93.6331 515.12C94.3678 514.436 95.3178 514.094 96.4831 514.094C97.5218 514.094 98.3578 514.385 98.9911 514.968C99.6498 515.525 99.9791 516.222 99.9791 517.058C99.9791 518.147 99.6118 519.034 98.8771 519.718C98.1424 520.377 97.1924 520.706 96.0271 520.706ZM125.812 515.804L120.188 544H114.564L114.982 541.948C113.259 543.519 111.169 544.304 108.712 544.304C107.116 544.304 105.646 543.937 104.304 543.202C102.961 542.467 101.884 541.416 101.074 540.048C100.288 538.655 99.8957 537.021 99.8957 535.146C99.8957 532.891 100.39 530.865 101.378 529.066C102.391 527.242 103.759 525.823 105.482 524.81C107.204 523.771 109.104 523.252 111.182 523.252C112.676 523.252 113.981 523.505 115.096 524.012C116.236 524.519 117.135 525.266 117.794 526.254L119.884 515.804H125.812ZM110.536 539.402C111.701 539.402 112.74 539.123 113.652 538.566C114.564 537.983 115.273 537.185 115.78 536.172C116.286 535.159 116.54 533.993 116.54 532.676C116.54 531.283 116.122 530.181 115.286 529.37C114.475 528.559 113.335 528.154 111.866 528.154C110.7 528.154 109.662 528.445 108.75 529.028C107.838 529.585 107.128 530.371 106.622 531.384C106.115 532.397 105.862 533.563 105.862 534.88C105.862 536.273 106.267 537.375 107.078 538.186C107.914 538.997 109.066 539.402 110.536 539.402ZM147.904 532.258C147.904 533.195 147.79 534.234 147.562 535.374H131.906C132.109 538.161 133.87 539.554 137.188 539.554C138.227 539.554 139.215 539.389 140.152 539.06C141.115 538.731 141.951 538.262 142.66 537.654L145.13 541.568C143.99 542.48 142.686 543.164 141.216 543.62C139.747 544.076 138.202 544.304 136.58 544.304C134.478 544.304 132.628 543.937 131.032 543.202C129.462 542.442 128.246 541.365 127.384 539.972C126.548 538.579 126.13 536.97 126.13 535.146C126.13 532.891 126.637 530.865 127.65 529.066C128.689 527.242 130.12 525.823 131.944 524.81C133.768 523.771 135.846 523.252 138.176 523.252C140.152 523.252 141.862 523.619 143.306 524.354C144.776 525.089 145.903 526.14 146.688 527.508C147.499 528.876 147.904 530.459 147.904 532.258ZM137.91 527.698C136.517 527.698 135.339 528.078 134.376 528.838C133.414 529.573 132.73 530.599 132.324 531.916H142.47C142.47 530.599 142.052 529.573 141.216 528.838C140.406 528.078 139.304 527.698 137.91 527.698ZM174.388 523.556L170.322 544H164.698L165.078 541.986C163.38 543.531 161.29 544.304 158.808 544.304C157.212 544.304 155.742 543.937 154.4 543.202C153.057 542.467 151.98 541.416 151.17 540.048C150.384 538.655 149.992 537.021 149.992 535.146C149.992 532.891 150.486 530.865 151.474 529.066C152.487 527.242 153.855 525.823 155.578 524.81C157.3 523.771 159.2 523.252 161.278 523.252C164.419 523.252 166.636 524.278 167.928 526.33L168.46 523.556H174.388ZM160.632 539.402C161.797 539.402 162.836 539.123 163.748 538.566C164.66 537.983 165.369 537.185 165.876 536.172C166.382 535.159 166.636 533.993 166.636 532.676C166.636 531.283 166.218 530.181 165.382 529.37C164.571 528.559 163.431 528.154 161.962 528.154C160.796 528.154 159.758 528.445 158.846 529.028C157.934 529.585 157.224 530.371 156.718 531.384C156.211 532.397 155.958 533.563 155.958 534.88C155.958 536.273 156.363 537.375 157.174 538.186C158.01 538.997 159.162 539.402 160.632 539.402ZM183.258 544.304C181.485 544.304 179.8 544.114 178.204 543.734C176.633 543.329 175.405 542.809 174.518 542.176L176.798 537.882C177.685 538.465 178.761 538.933 180.028 539.288C181.32 539.643 182.612 539.82 183.904 539.82C185.247 539.82 186.247 539.655 186.906 539.326C187.565 538.971 187.894 538.477 187.894 537.844C187.894 537.337 187.603 536.97 187.02 536.742C186.437 536.514 185.5 536.273 184.208 536.02C182.739 535.741 181.523 535.437 180.56 535.108C179.623 534.779 178.799 534.247 178.09 533.512C177.406 532.752 177.064 531.726 177.064 530.434C177.064 528.179 178.001 526.419 179.876 525.152C181.776 523.885 184.259 523.252 187.324 523.252C188.743 523.252 190.123 523.404 191.466 523.708C192.809 524.012 193.949 524.43 194.886 524.962L192.758 529.294C191.086 528.255 189.072 527.736 186.716 527.736C185.424 527.736 184.436 527.926 183.752 528.306C183.093 528.686 182.764 529.167 182.764 529.75C182.764 530.282 183.055 530.675 183.638 530.928C184.221 531.156 185.196 531.409 186.564 531.688C188.008 531.967 189.186 532.271 190.098 532.6C191.035 532.904 191.846 533.423 192.53 534.158C193.214 534.893 193.556 535.893 193.556 537.16C193.556 539.44 192.593 541.201 190.668 542.442C188.768 543.683 186.298 544.304 183.258 544.304ZM231.573 523.556L227.507 544H221.883L222.263 541.986C220.566 543.531 218.476 544.304 215.993 544.304C214.397 544.304 212.928 543.937 211.585 543.202C210.242 542.467 209.166 541.416 208.355 540.048C207.57 538.655 207.177 537.021 207.177 535.146C207.177 532.891 207.671 530.865 208.659 529.066C209.672 527.242 211.04 525.823 212.763 524.81C214.486 523.771 216.386 523.252 218.463 523.252C221.604 523.252 223.821 524.278 225.113 526.33L225.645 523.556H231.573ZM217.817 539.402C218.982 539.402 220.021 539.123 220.933 538.566C221.845 537.983 222.554 537.185 223.061 536.172C223.568 535.159 223.821 533.993 223.821 532.676C223.821 531.283 223.403 530.181 222.567 529.37C221.756 528.559 220.616 528.154 219.147 528.154C217.982 528.154 216.943 528.445 216.031 529.028C215.119 529.585 214.41 530.371 213.903 531.384C213.396 532.397 213.143 533.563 213.143 534.88C213.143 536.273 213.548 537.375 214.359 538.186C215.195 538.997 216.348 539.402 217.817 539.402ZM248.955 523.252C251.235 523.252 253.047 523.86 254.389 525.076C255.732 526.267 256.403 527.977 256.403 530.206C256.403 531.042 256.315 531.865 256.137 532.676L253.857 544H247.929L250.133 533.056C250.235 532.625 250.285 532.157 250.285 531.65C250.285 530.586 249.994 529.775 249.411 529.218C248.829 528.661 247.955 528.382 246.789 528.382C245.269 528.382 244.003 528.825 242.989 529.712C242.001 530.573 241.33 531.878 240.975 533.626L238.923 544H232.995L237.061 523.556H242.685L242.229 525.76C244.053 524.088 246.295 523.252 248.955 523.252ZM285.902 515.804L280.278 544H274.654L275.072 541.948C273.349 543.519 271.259 544.304 268.802 544.304C267.206 544.304 265.736 543.937 264.394 543.202C263.051 542.467 261.974 541.416 261.164 540.048C260.378 538.655 259.986 537.021 259.986 535.146C259.986 532.891 260.48 530.865 261.468 529.066C262.481 527.242 263.849 525.823 265.572 524.81C267.294 523.771 269.194 523.252 271.272 523.252C272.766 523.252 274.071 523.505 275.186 524.012C276.326 524.519 277.225 525.266 277.884 526.254L279.974 515.804H285.902ZM270.626 539.402C271.791 539.402 272.83 539.123 273.742 538.566C274.654 537.983 275.363 537.185 275.87 536.172C276.376 535.159 276.63 533.993 276.63 532.676C276.63 531.283 276.212 530.181 275.376 529.37C274.565 528.559 273.425 528.154 271.956 528.154C270.79 528.154 269.752 528.445 268.84 529.028C267.928 529.585 267.218 530.371 266.712 531.384C266.205 532.397 265.952 533.563 265.952 534.88C265.952 536.273 266.357 537.375 267.168 538.186C268.004 538.997 269.156 539.402 270.626 539.402ZM304.62 536.78C304.569 536.983 304.544 537.261 304.544 537.616C304.544 538.933 305.266 539.592 306.71 539.592C307.495 539.592 308.293 539.351 309.104 538.87L309.978 543.088C308.66 543.899 306.963 544.304 304.886 544.304C302.96 544.304 301.415 543.797 300.25 542.784C299.084 541.771 298.502 540.377 298.502 538.604C298.502 538.097 298.565 537.502 298.692 536.818L300.326 528.572H297.172L298.084 524.012H301.238L302.226 519.034H308.154L307.166 524.012H312.258L311.346 528.572H306.254L304.62 536.78ZM329.037 523.252C331.317 523.252 333.129 523.86 334.471 525.076C335.814 526.292 336.485 528.015 336.485 530.244C336.485 531.055 336.397 531.865 336.219 532.676L333.939 544H328.011L330.215 533.056C330.317 532.625 330.367 532.157 330.367 531.65C330.367 530.586 330.076 529.775 329.493 529.218C328.911 528.661 328.037 528.382 326.871 528.382C325.351 528.382 324.085 528.825 323.071 529.712C322.083 530.573 321.412 531.878 321.057 533.626L319.005 544H313.077L318.701 515.804H324.629L322.729 525.418C324.477 523.974 326.58 523.252 329.037 523.252ZM361.766 532.258C361.766 533.195 361.652 534.234 361.424 535.374H345.768C345.97 538.161 347.731 539.554 351.05 539.554C352.088 539.554 353.076 539.389 354.014 539.06C354.976 538.731 355.812 538.262 356.522 537.654L358.992 541.568C357.852 542.48 356.547 543.164 355.078 543.62C353.608 544.076 352.063 544.304 350.442 544.304C348.339 544.304 346.49 543.937 344.894 543.202C343.323 542.442 342.107 541.365 341.246 539.972C340.41 538.579 339.992 536.97 339.992 535.146C339.992 532.891 340.498 530.865 341.512 529.066C342.55 527.242 343.982 525.823 345.806 524.81C347.63 523.771 349.707 523.252 352.038 523.252C354.014 523.252 355.724 523.619 357.168 524.354C358.637 525.089 359.764 526.14 360.55 527.508C361.36 528.876 361.766 530.459 361.766 532.258ZM351.772 527.698C350.378 527.698 349.2 528.078 348.238 528.838C347.275 529.573 346.591 530.599 346.186 531.916H356.332C356.332 530.599 355.914 529.573 355.078 528.838C354.267 528.078 353.165 527.698 351.772 527.698ZM140.826 569.252C143.055 569.252 144.828 569.86 146.146 571.076C147.463 572.267 148.122 573.964 148.122 576.168C148.122 576.979 148.033 577.815 147.856 578.676L145.614 590H139.686L141.852 579.094C141.953 578.587 142.004 578.068 142.004 577.536C142.004 576.497 141.725 575.712 141.168 575.18C140.636 574.648 139.838 574.382 138.774 574.382C135.911 574.382 134.125 576.092 133.416 579.512L131.326 590H125.398L127.564 579.094C127.665 578.587 127.716 578.081 127.716 577.574C127.716 576.535 127.437 575.75 126.88 575.218C126.348 574.661 125.55 574.382 124.486 574.382C121.623 574.382 119.824 576.117 119.09 579.588L117.038 590H111.11L115.176 569.556H120.8L120.344 571.684C122.117 570.063 124.258 569.252 126.766 569.252C128.184 569.252 129.438 569.543 130.528 570.126C131.642 570.683 132.478 571.507 133.036 572.596C134.024 571.507 135.176 570.683 136.494 570.126C137.811 569.543 139.255 569.252 140.826 569.252ZM173.38 578.258C173.38 579.195 173.266 580.234 173.038 581.374H157.382C157.584 584.161 159.345 585.554 162.664 585.554C163.702 585.554 164.69 585.389 165.628 585.06C166.59 584.731 167.426 584.262 168.136 583.654L170.606 587.568C169.466 588.48 168.161 589.164 166.692 589.62C165.222 590.076 163.677 590.304 162.056 590.304C159.953 590.304 158.104 589.937 156.508 589.202C154.937 588.442 153.721 587.365 152.86 585.972C152.024 584.579 151.606 582.97 151.606 581.146C151.606 578.891 152.112 576.865 153.126 575.066C154.164 573.242 155.596 571.823 157.42 570.81C159.244 569.771 161.321 569.252 163.652 569.252C165.628 569.252 167.338 569.619 168.782 570.354C170.251 571.089 171.378 572.14 172.164 573.508C172.974 574.876 173.38 576.459 173.38 578.258ZM163.386 573.698C161.992 573.698 160.814 574.078 159.852 574.838C158.889 575.573 158.205 576.599 157.8 577.916H167.946C167.946 576.599 167.528 575.573 166.692 574.838C165.881 574.078 164.779 573.698 163.386 573.698ZM185.841 590.304C183.738 590.304 181.902 589.924 180.331 589.164C178.76 588.404 177.544 587.34 176.683 585.972C175.847 584.579 175.429 582.97 175.429 581.146C175.429 578.891 175.961 576.865 177.025 575.066C178.089 573.267 179.571 571.849 181.471 570.81C183.371 569.771 185.512 569.252 187.893 569.252C190.072 569.252 191.946 569.708 193.517 570.62C195.113 571.507 196.304 572.773 197.089 574.42L192.073 576.928C191.186 575.079 189.666 574.154 187.513 574.154C186.348 574.154 185.296 574.445 184.359 575.028C183.447 575.585 182.725 576.371 182.193 577.384C181.686 578.397 181.433 579.55 181.433 580.842C181.433 582.235 181.851 583.35 182.687 584.186C183.523 584.997 184.688 585.402 186.183 585.402C188.362 585.402 190.034 584.49 191.199 582.666L195.569 585.402C194.581 586.947 193.226 588.151 191.503 589.012C189.806 589.873 187.918 590.304 185.841 590.304ZM213.312 569.252C215.592 569.252 217.403 569.86 218.746 571.076C220.089 572.292 220.76 574.015 220.76 576.244C220.76 577.055 220.671 577.865 220.494 578.676L218.214 590H212.286L214.49 579.056C214.591 578.625 214.642 578.157 214.642 577.65C214.642 576.586 214.351 575.775 213.768 575.218C213.185 574.661 212.311 574.382 211.146 574.382C209.626 574.382 208.359 574.825 207.346 575.712C206.358 576.573 205.687 577.878 205.332 579.626L203.28 590H197.352L202.976 561.804H208.904L207.004 571.418C208.752 569.974 210.855 569.252 213.312 569.252ZM248.662 569.556L244.596 590H238.972L239.352 587.986C237.655 589.531 235.565 590.304 233.082 590.304C231.486 590.304 230.017 589.937 228.674 589.202C227.331 588.467 226.255 587.416 225.444 586.048C224.659 584.655 224.266 583.021 224.266 581.146C224.266 578.891 224.76 576.865 225.748 575.066C226.761 573.242 228.129 571.823 229.852 570.81C231.575 569.771 233.475 569.252 235.552 569.252C238.693 569.252 240.91 570.278 242.202 572.33L242.734 569.556H248.662ZM234.906 585.402C236.071 585.402 237.11 585.123 238.022 584.566C238.934 583.983 239.643 583.185 240.15 582.172C240.657 581.159 240.91 579.993 240.91 578.676C240.91 577.283 240.492 576.181 239.656 575.37C238.845 574.559 237.705 574.154 236.236 574.154C235.071 574.154 234.032 574.445 233.12 575.028C232.208 575.585 231.499 576.371 230.992 577.384C230.485 578.397 230.232 579.563 230.232 580.88C230.232 582.273 230.637 583.375 231.448 584.186C232.284 584.997 233.437 585.402 234.906 585.402ZM266.044 569.252C268.324 569.252 270.136 569.86 271.478 571.076C272.821 572.267 273.492 573.977 273.492 576.206C273.492 577.042 273.404 577.865 273.226 578.676L270.946 590H265.018L267.222 579.056C267.324 578.625 267.374 578.157 267.374 577.65C267.374 576.586 267.083 575.775 266.5 575.218C265.918 574.661 265.044 574.382 263.878 574.382C262.358 574.382 261.092 574.825 260.078 575.712C259.09 576.573 258.419 577.878 258.064 579.626L256.012 590H250.084L254.15 569.556H259.774L259.318 571.76C261.142 570.088 263.384 569.252 266.044 569.252ZM280.424 569.556H286.314L282.248 590H276.358L280.424 569.556ZM284.376 566.706C283.362 566.706 282.526 566.415 281.868 565.832C281.234 565.224 280.918 564.489 280.918 563.628C280.918 562.615 281.272 561.779 281.982 561.12C282.716 560.436 283.666 560.094 284.832 560.094C285.87 560.094 286.706 560.385 287.34 560.968C287.998 561.525 288.328 562.222 288.328 563.058C288.328 564.147 287.96 565.034 287.226 565.718C286.491 566.377 285.541 566.706 284.376 566.706ZM298.542 590.304C296.44 590.304 294.603 589.924 293.032 589.164C291.462 588.404 290.246 587.34 289.384 585.972C288.548 584.579 288.13 582.97 288.13 581.146C288.13 578.891 288.662 576.865 289.726 575.066C290.79 573.267 292.272 571.849 294.172 570.81C296.072 569.771 298.213 569.252 300.594 569.252C302.773 569.252 304.648 569.708 306.218 570.62C307.814 571.507 309.005 572.773 309.79 574.42L304.774 576.928C303.888 575.079 302.368 574.154 300.214 574.154C299.049 574.154 297.998 574.445 297.06 575.028C296.148 575.585 295.426 576.371 294.894 577.384C294.388 578.397 294.134 579.55 294.134 580.842C294.134 582.235 294.552 583.35 295.388 584.186C296.224 584.997 297.39 585.402 298.884 585.402C301.063 585.402 302.735 584.49 303.9 582.666L308.27 585.402C307.282 586.947 305.927 588.151 304.204 589.012C302.507 589.873 300.62 590.304 298.542 590.304ZM317.649 590.304C315.876 590.304 314.191 590.114 312.595 589.734C311.025 589.329 309.796 588.809 308.909 588.176L311.189 583.882C312.076 584.465 313.153 584.933 314.419 585.288C315.711 585.643 317.003 585.82 318.295 585.82C319.638 585.82 320.639 585.655 321.297 585.326C321.956 584.971 322.285 584.477 322.285 583.844C322.285 583.337 321.994 582.97 321.411 582.742C320.829 582.514 319.891 582.273 318.599 582.02C317.13 581.741 315.914 581.437 314.951 581.108C314.014 580.779 313.191 580.247 312.481 579.512C311.797 578.752 311.455 577.726 311.455 576.434C311.455 574.179 312.393 572.419 314.267 571.152C316.167 569.885 318.65 569.252 321.715 569.252C323.134 569.252 324.515 569.404 325.857 569.708C327.2 570.012 328.34 570.43 329.277 570.962L327.149 575.294C325.477 574.255 323.463 573.736 321.107 573.736C319.815 573.736 318.827 573.926 318.143 574.306C317.485 574.686 317.155 575.167 317.155 575.75C317.155 576.282 317.447 576.675 318.029 576.928C318.612 577.156 319.587 577.409 320.955 577.688C322.399 577.967 323.577 578.271 324.489 578.6C325.427 578.904 326.237 579.423 326.921 580.158C327.605 580.893 327.947 581.893 327.947 583.16C327.947 585.44 326.985 587.201 325.059 588.442C323.159 589.683 320.689 590.304 317.649 590.304ZM333.087 590.304C332.074 590.304 331.238 589.987 330.579 589.354C329.92 588.695 329.591 587.872 329.591 586.884C329.591 585.719 329.971 584.769 330.731 584.034C331.491 583.299 332.428 582.932 333.543 582.932C334.556 582.932 335.38 583.249 336.013 583.882C336.672 584.515 337.001 585.339 337.001 586.352C337.001 587.492 336.608 588.442 335.823 589.202C335.063 589.937 334.151 590.304 333.087 590.304Z" fill="white"/>
<path d="M99.825 313.34H108.705L105.225 330.62C103.105 332.26 100.645 333.52 97.845 334.4C95.045 335.28 92.145 335.72 89.145 335.72C84.945 335.72 81.285 334.96 78.165 333.44C75.045 331.92 72.625 329.78 70.905 327.02C69.225 324.26 68.385 321.08 68.385 317.48C68.385 312.72 69.485 308.42 71.685 304.58C73.885 300.74 76.985 297.74 80.985 295.58C84.985 293.38 89.585 292.28 94.785 292.28C98.785 292.28 102.245 292.9 105.165 294.14C108.125 295.38 110.505 297.2 112.305 299.6L105.345 305.24C103.945 303.6 102.365 302.42 100.605 301.7C98.845 300.94 96.765 300.56 94.365 300.56C91.165 300.56 88.345 301.28 85.905 302.72C83.465 304.12 81.565 306.06 80.205 308.54C78.885 311.02 78.225 313.8 78.225 316.88C78.225 320.12 79.265 322.7 81.345 324.62C83.465 326.5 86.485 327.44 90.405 327.44C92.885 327.44 95.205 326.94 97.365 325.94L99.825 313.34ZM151.934 302.72L145.514 335H136.634L137.234 331.82C134.554 334.26 131.254 335.48 127.334 335.48C124.814 335.48 122.494 334.9 120.374 333.74C118.254 332.58 116.554 330.92 115.274 328.76C114.034 326.56 113.414 323.98 113.414 321.02C113.414 317.46 114.194 314.26 115.754 311.42C117.354 308.54 119.514 306.3 122.234 304.7C124.954 303.06 127.954 302.24 131.234 302.24C136.194 302.24 139.694 303.86 141.734 307.1L142.574 302.72H151.934ZM130.214 327.74C132.054 327.74 133.694 327.3 135.134 326.42C136.574 325.5 137.694 324.24 138.494 322.64C139.294 321.04 139.694 319.2 139.694 317.12C139.694 314.92 139.034 313.18 137.714 311.9C136.434 310.62 134.634 309.98 132.314 309.98C130.474 309.98 128.834 310.44 127.394 311.36C125.954 312.24 124.834 313.48 124.034 315.08C123.234 316.68 122.834 318.52 122.834 320.6C122.834 322.8 123.474 324.54 124.754 325.82C126.074 327.1 127.894 327.74 130.214 327.74ZM201.1 302.24C204.62 302.24 207.42 303.2 209.5 305.12C211.58 307 212.62 309.68 212.62 313.16C212.62 314.44 212.48 315.76 212.2 317.12L208.66 335H199.3L202.72 317.78C202.88 316.98 202.96 316.16 202.96 315.32C202.96 313.68 202.52 312.44 201.64 311.6C200.8 310.76 199.54 310.34 197.86 310.34C193.34 310.34 190.52 313.04 189.4 318.44L186.1 335H176.74L180.16 317.78C180.32 316.98 180.4 316.18 180.4 315.38C180.4 313.74 179.96 312.5 179.08 311.66C178.24 310.78 176.98 310.34 175.3 310.34C170.78 310.34 167.94 313.08 166.78 318.56L163.54 335H154.18L160.6 302.72H169.48L168.76 306.08C171.56 303.52 174.94 302.24 178.9 302.24C181.14 302.24 183.12 302.7 184.84 303.62C186.6 304.5 187.92 305.8 188.8 307.52C190.36 305.8 192.18 304.5 194.26 303.62C196.34 302.7 198.62 302.24 201.1 302.24ZM252.501 316.46C252.501 317.94 252.321 319.58 251.961 321.38H227.241C227.561 325.78 230.341 327.98 235.581 327.98C237.221 327.98 238.781 327.72 240.261 327.2C241.781 326.68 243.101 325.94 244.221 324.98L248.121 331.16C246.321 332.6 244.261 333.68 241.941 334.4C239.621 335.12 237.181 335.48 234.621 335.48C231.301 335.48 228.381 334.9 225.861 333.74C223.381 332.54 221.461 330.84 220.101 328.64C218.781 326.44 218.121 323.9 218.121 321.02C218.121 317.46 218.921 314.26 220.521 311.42C222.161 308.54 224.421 306.3 227.301 304.7C230.181 303.06 233.461 302.24 237.141 302.24C240.261 302.24 242.961 302.82 245.241 303.98C247.561 305.14 249.341 306.8 250.581 308.96C251.861 311.12 252.501 313.62 252.501 316.46ZM236.721 309.26C234.521 309.26 232.661 309.86 231.141 311.06C229.621 312.22 228.541 313.84 227.901 315.92H243.921C243.921 313.84 243.261 312.22 241.941 311.06C240.661 309.86 238.921 309.26 236.721 309.26ZM313.829 290.48L304.949 335H296.069L296.729 331.76C294.009 334.24 290.709 335.48 286.829 335.48C284.309 335.48 281.989 334.9 279.869 333.74C277.749 332.58 276.049 330.92 274.769 328.76C273.529 326.56 272.909 323.98 272.909 321.02C272.909 317.46 273.689 314.26 275.249 311.42C276.849 308.54 279.009 306.3 281.729 304.7C284.449 303.06 287.449 302.24 290.729 302.24C293.089 302.24 295.149 302.64 296.909 303.44C298.709 304.24 300.129 305.42 301.169 306.98L304.469 290.48H313.829ZM289.709 327.74C291.549 327.74 293.189 327.3 294.629 326.42C296.069 325.5 297.189 324.24 297.989 322.64C298.789 321.04 299.189 319.2 299.189 317.12C299.189 314.92 298.529 313.18 297.209 311.9C295.929 310.62 294.129 309.98 291.809 309.98C289.969 309.98 288.329 310.44 286.889 311.36C285.449 312.24 284.329 313.48 283.529 315.08C282.729 316.68 282.329 318.52 282.329 320.6C282.329 322.8 282.969 324.54 284.249 325.82C285.569 327.1 287.389 327.74 289.709 327.74ZM348.712 316.46C348.712 317.94 348.532 319.58 348.172 321.38H323.452C323.772 325.78 326.552 327.98 331.792 327.98C333.432 327.98 334.992 327.72 336.472 327.2C337.992 326.68 339.312 325.94 340.432 324.98L344.332 331.16C342.532 332.6 340.472 333.68 338.152 334.4C335.832 335.12 333.392 335.48 330.832 335.48C327.512 335.48 324.592 334.9 322.072 333.74C319.592 332.54 317.672 330.84 316.312 328.64C314.992 326.44 314.332 323.9 314.332 321.02C314.332 317.46 315.132 314.26 316.732 311.42C318.372 308.54 320.632 306.3 323.512 304.7C326.392 303.06 329.672 302.24 333.352 302.24C336.472 302.24 339.172 302.82 341.452 303.98C343.772 305.14 345.552 306.8 346.792 308.96C348.072 311.12 348.712 313.62 348.712 316.46ZM332.932 309.26C330.732 309.26 328.872 309.86 327.352 311.06C325.832 312.22 324.752 313.84 324.112 315.92H340.132C340.132 313.84 339.472 312.22 338.152 311.06C336.872 309.86 335.132 309.26 332.932 309.26ZM389.222 302.72L369.182 335H359.522L352.382 302.72H361.622L366.302 324.74L379.862 302.72H389.222Z" fill="white"/>
<path d="M200.938 186.811L204.103 198.621L139.604 215.903L136.44 204.093L122.359 207.866L119.316 196.511L110.686 198.823L81.4768 89.8118L92.8322 86.7691L90.5198 78.139L101.875 75.0963L98.7108 63.2867L314.917 5.3544L318.082 17.164L329.437 14.1213L331.749 22.7514L340.379 20.439L369.589 129.451L360.959 131.763L364.002 143.118L352.646 146.161L355.811 157.971L291.312 175.253L288.148 163.443L200.938 186.811Z" fill="white"/>
<rect x="208.478" y="133.188" width="10.3452" height="10.3452" transform="rotate(-15 208.478 133.188)" fill="#C4C4C4"/>
<rect x="215.55" y="119.609" width="10.3452" height="10.3452" transform="rotate(-15 215.55 119.609)" fill="#C4C4C4"/>
<rect x="241.181" y="124.425" width="10.3452" height="10.3452" transform="rotate(-15 241.181 124.425)" fill="#C4C4C4"/>
<rect x="248.253" y="110.846" width="10.3452" height="10.3452" transform="rotate(-15 248.253 110.846)" fill="#C4C4C4"/>
<rect x="130.947" y="94.5691" width="17.8691" height="53.6072" transform="rotate(-15 130.947 94.5691)" fill="#F9CC14"/>
<rect x="122.937" y="133.714" width="17.8691" height="53.6072" transform="rotate(-105 122.937 133.714)" fill="#F9CC14"/>
<path d="M354.541 109.629L363.625 107.194L369.589 129.451L361.535 132.096L363.547 143.24L353.1 146.04L356.265 157.849L291.312 175.253L288.148 163.444L201.392 186.69L204.557 198.499L139.604 215.903L136.44 204.094L122.359 207.867L119.316 196.511L110.686 198.824L104.723 176.567L113.353 174.255L116.639 186.519L129.357 183.111L132.034 193.103L196.533 175.821L193.855 165.828L282.427 142.096L285.105 152.088L350.058 134.684L347.38 124.692L357.827 121.892L354.541 109.629Z" fill="#C4C4C4"/>
<rect x="287.197" y="52.7019" width="16.9286" height="16.9286" transform="rotate(-15 287.197 52.7019)" fill="#F2C94C"/>
<rect x="296.934" y="89.0388" width="16.9286" height="16.9286" transform="rotate(-15 296.934 89.0388)" fill="#F2C94C"/>
<rect x="272.988" y="75.9822" width="16.9286" height="16.9286" transform="rotate(-15 272.988 75.9822)" fill="#F2C94C"/>
<rect x="311.143" y="65.7588" width="16.9286" height="16.9286" transform="rotate(-15 311.143 65.7588)" fill="#F2C94C"/>
</svg>
