<svg width="336" height="410" viewBox="0 0 336 410" fill="none" xmlns="http://www.w3.org/2000/svg">
<rect y="74" width="336" height="336" fill="#007AE0"/>
<path d="M99.25 364.266V367H89.875V363.875H86.75V348.25H89.875V345.125H105.5V351.375H102.375V348.25H93V363.875H98.8594L99.25 363.484V357.625H96.125V354.5H105.5V367H102.375V363.875H99.6406L99.25 364.266ZM121.125 357.625V348.25H114.875V357.625H121.125ZM114.875 360.75V367H108.625V348.25H111.75V345.125H124.25V348.25H127.375V367H121.125V360.75H114.875ZM133.625 357.625V367H130.5V345.125H136.75V351.375H146.125V345.125H152.375V367H146.125V357.625H143V363.875H136.75V357.625H133.625ZM155.5 367V345.125H171.125V348.25H161.75V354.5H171.125V357.625H161.75V363.875H171.125V367H155.5ZM199.25 348.25H193V363.875H199.25V348.25ZM186.75 367V345.125H202.375V348.25H205.5V363.875H202.375V367H186.75ZM208.625 367V345.125H224.25V348.25H214.875V354.5H224.25V357.625H214.875V363.875H224.25V367H208.625ZM239.875 360.75V345.125H246.125V360.75H243V363.875H239.875V367H233.625V363.875H230.5V360.75H227.375V345.125H233.625V360.75H239.875Z" fill="white"/>
<path d="M254.353 74.8329L316.647 74.713L285.12 39.0084L248.59 74.844L254.353 74.8329Z" fill="#007AE0"/>
<path d="M132.783 75.0668L195.077 74.9469L163.55 39.2422L127.02 75.0779L132.783 75.0668Z" fill="#007AE0"/>
<path d="M203.344 75.2197L239.514 75.1501L221.208 54.4184L199.997 75.2262L203.344 75.2197Z" fill="#007AE0"/>
<path d="M230.567 46.9014L266.738 46.8318L245.527 67.6396L227.22 46.9079L230.567 46.9014Z" fill="#007AE0"/>
<path d="M223.139 37.1089L278.4 37.0026L250.432 5.32909L218.027 37.1188L223.139 37.1089Z" fill="#007AE0"/>
<path d="M162.744 26.5401L198.947 67.5402L202.085 22.665L159.395 22.7471L162.744 26.5401Z" fill="#007AE0"/>
<path d="M146.119 271.701L148.654 281.164L96.9688 295.014L94.4331 285.55L83.1496 288.573L80.7114 279.474L73.7957 281.327L50.3888 193.971L59.4884 191.533L57.6353 184.617L66.7349 182.179L64.1991 172.715L237.455 126.292L239.991 135.755L249.09 133.317L250.943 140.233L257.859 138.38L281.266 225.735L274.35 227.588L276.788 236.688L267.689 239.126L270.225 248.59L218.539 262.439L216.003 252.975L146.119 271.701Z" fill="white"/>
<rect x="152.16" y="228.73" width="8.2901" height="8.2901" transform="rotate(-15 152.16 228.73)" fill="#C4C4C4"/>
<rect x="157.824" y="217.849" width="8.2901" height="8.2901" transform="rotate(-15 157.824 217.849)" fill="#C4C4C4"/>
<rect x="178.369" y="221.708" width="8.2901" height="8.2901" transform="rotate(-15 178.369 221.708)" fill="#C4C4C4"/>
<rect x="184.033" y="210.826" width="8.2901" height="8.2901" transform="rotate(-15 184.033 210.826)" fill="#C4C4C4"/>
<rect x="90.0332" y="197.782" width="14.3193" height="42.9578" transform="rotate(-15 90.0332 197.782)" fill="#F9CC14"/>
<rect x="84.1641" y="229.488" width="14.3193" height="42.9578" transform="rotate(-105 84.1641 229.488)" fill="#F9CC14"/>
<path d="M269.208 209.851L276.488 207.9L281.267 225.735L274.813 227.855L276.425 236.786L268.054 239.029L270.589 248.492L218.54 262.439L216.004 252.975L146.483 271.603L149.019 281.067L96.9696 295.014L94.4339 285.55L83.1504 288.573L80.7122 279.474L73.7965 281.327L69.0176 263.492L75.9333 261.639L78.5665 271.466L88.758 268.735L90.9037 276.743L142.589 262.894L140.444 254.886L211.42 235.868L213.566 243.876L265.615 229.929L263.47 221.922L271.841 219.678L269.208 209.851Z" fill="#C4C4C4"/>
<rect x="215.244" y="164.233" width="13.5656" height="13.5656" transform="rotate(-15 215.244 164.233)" fill="#F2C94C"/>
<rect x="223.047" y="193.352" width="13.5656" height="13.5656" transform="rotate(-15 223.047 193.352)" fill="#F2C94C"/>
<rect x="203.857" y="182.889" width="13.5656" height="13.5656" transform="rotate(-15 203.857 182.889)" fill="#F2C94C"/>
<rect x="234.43" y="174.696" width="13.5656" height="13.5656" transform="rotate(-15 234.43 174.696)" fill="#F2C94C"/>
</svg>
