<svg width="215" height="245" viewBox="0 0 215 245" fill="none" xmlns="http://www.w3.org/2000/svg">
<g filter="url(#filter0_d)">
<path fill-rule="evenodd" clip-rule="evenodd" d="M88.1947 21.0216L88.0997 23.802L82.3155 23.6104L76.5313 23.4188L76.4374 26.2094L76.3445 28.9997L73.4514 28.899L70.5582 28.7983L70.4643 31.5889L70.3714 34.3791L67.4783 34.2784L64.5872 34.1875L64.4933 36.978L64.3983 39.7586L61.5073 39.6676L58.6141 39.567L58.5202 42.3574L58.4273 45.1477L55.5342 45.047L52.6431 44.9562L52.5471 47.7369L52.4533 50.5273L49.5632 50.4363L46.67 50.3355L46.4823 55.9166L46.2934 61.4876L43.4023 61.3966L40.5092 61.296L40.3225 66.8768L40.1336 72.4478L37.2425 72.3569L34.3494 72.2562L33.5053 97.3602L32.6623 122.464L35.5524 122.555L38.4455 122.656L38.2588 128.237L38.0699 133.808L40.9631 133.908L43.8562 134.009L43.7603 136.79L43.6664 139.58L46.5596 139.681L49.4527 139.782L49.3588 142.572L49.2639 145.353L52.157 145.453L55.0502 145.554L54.9563 148.345L54.8603 151.125L57.7535 151.226L60.6467 151.327L60.5528 154.117L60.4578 156.898L63.351 156.998L66.2441 157.099L66.1502 159.889L66.0543 162.67L68.9474 162.771L71.8406 162.871L71.7467 165.662L71.6518 168.443L77.4381 168.644L83.2213 168.836L83.1284 171.626L83.0345 174.416L88.8188 174.608L94.603 174.8L94.9786 163.648L95.3552 152.496L83.7847 152.103L72.2151 151.71L72.308 148.919L72.404 146.139L69.5108 146.038L66.6177 145.937L66.7115 143.147L66.8065 140.366L63.9143 140.265L61.0212 140.165L61.1141 137.374L61.21 134.594L58.3169 134.493L55.4237 134.392L55.5176 131.602L55.6126 128.821L61.3968 129.013L67.181 129.205L67.0871 131.995L66.9943 134.785L69.8874 134.886L72.7775 134.977L72.6846 137.767L72.5907 140.558L75.4839 140.659L78.375 140.749L78.2811 143.54L78.1882 146.33L83.9715 146.522L89.7557 146.714L89.8516 143.933L89.9455 141.142L92.8356 141.234L95.7288 141.334L95.8226 138.544L95.9165 135.753L98.8087 135.854L101.702 135.955L101.796 133.164L101.89 130.374L90.3191 129.981L78.7516 129.598L78.8445 126.807L78.9383 124.017L76.0452 123.916L73.1541 123.825L73.248 121.035L73.3409 118.244L70.4477 118.144L67.5576 118.053L67.6505 115.262L67.7444 112.472L64.8513 112.371L61.9601 112.28L62.5235 95.5474L63.0848 78.8048L65.978 78.9056L68.8701 79.0064L68.9641 76.216L69.0579 73.4255L71.9511 73.5261L74.8411 73.6172L74.935 70.8267L75.031 68.0461L72.1378 67.9453L69.2447 67.8447L69.5274 59.4832L69.8081 51.1119L78.4844 51.4043L87.1618 51.6965L87.069 54.4869L86.9751 57.2774L89.8662 57.3683L92.7593 57.469L92.6654 60.2594L92.5716 63.05L95.4626 63.1408L98.3558 63.2415L98.4497 60.451L98.5426 57.6608L113.006 58.1544L127.467 58.6384L127.374 61.4286L127.28 64.2192L130.171 64.3101L133.064 64.4108L133.157 61.6204L133.251 58.83L136.144 58.9306L139.035 59.0216L139.131 56.2408L139.224 53.4505L147.902 53.7428L156.579 54.0351L156.296 62.3966L156.016 70.7679L153.122 70.6671L150.231 70.5763L150.135 73.357L150.043 76.1473L152.936 76.248L155.828 76.3488L155.733 79.1294L155.639 81.9198L158.532 82.0205L161.425 82.1212L160.862 98.854L160.299 115.587L157.405 115.486L154.515 115.395L154.419 118.176L154.325 120.966L151.434 120.875L148.541 120.775L148.448 123.565L148.354 126.355L145.461 126.255L142.568 126.154L142.475 128.944L142.381 131.735L130.812 131.342L119.243 130.959L119.15 133.749L119.057 136.539L121.948 136.63L124.84 136.731L124.747 139.521L124.653 142.312L127.544 142.403L130.437 142.503L129.874 159.236L129.311 175.969L135.095 176.161L140.881 176.362L140.975 173.571L141.068 170.781L143.961 170.882L146.852 170.973L146.948 168.192L147.041 165.402L149.932 165.493L152.825 165.593L152.919 162.803L153.012 160.013L155.905 160.113L158.798 160.214L158.892 157.423L158.985 154.633L161.876 154.724L164.769 154.825L164.863 152.034L164.956 149.244L167.849 149.345L170.742 149.445L170.836 146.655L170.929 143.864L173.822 143.965L176.713 144.056L176.807 141.266L176.903 138.485L179.793 138.576L182.686 138.677L182.874 133.096L183.061 127.515L185.954 127.616L188.847 127.716L189.69 102.612L190.534 77.5083L187.643 77.4174L184.75 77.3168L184.938 71.7357L185.127 66.1647L182.234 66.064L179.34 65.9633L179.529 60.3924L179.717 54.8113L176.824 54.7107L173.933 54.6198L174.027 51.8293L174.12 49.0391L171.226 48.9383L168.335 48.8475L168.429 46.0569L168.523 43.2664L165.63 43.1658L162.739 43.0748L162.832 40.2846L162.926 37.4941L160.032 37.3934L157.141 37.3025L157.235 34.512L157.329 31.7215L154.436 31.6209L151.545 31.5299L151.638 28.7396L151.732 25.9492L145.945 25.7478L140.162 25.556L140.255 22.7658L140.349 19.9752L114.32 19.108L88.2886 18.231L88.1947 21.0216Z" fill="#F8CC14"/>
</g>
<g filter="url(#filter1_d)">
<path d="M56.6005 208.585H62.5101L60.1942 220.085C58.7833 221.177 57.1462 222.015 55.2828 222.601C53.4194 223.186 51.4894 223.479 49.4929 223.479C46.6978 223.479 44.2621 222.973 42.1857 221.962C40.1094 220.95 38.4989 219.526 37.3542 217.689C36.2362 215.853 35.6772 213.736 35.6772 211.34C35.6772 208.173 36.4092 205.311 37.8733 202.755C39.3374 200.2 41.4005 198.203 44.0625 196.766C46.7245 195.302 49.7858 194.57 53.2464 194.57C55.9084 194.57 58.211 194.982 60.1542 195.808C62.1241 196.633 63.708 197.844 64.9059 199.441L60.274 203.195C59.3423 202.103 58.2908 201.318 57.1196 200.839C55.9483 200.333 54.564 200.08 52.9668 200.08C50.8372 200.08 48.9605 200.559 47.3367 201.518C45.7129 202.449 44.4484 203.74 43.5434 205.391C42.6649 207.041 42.2257 208.891 42.2257 210.941C42.2257 213.097 42.9178 214.814 44.302 216.092C45.7129 217.343 47.7227 217.969 50.3315 217.969C51.9819 217.969 53.5259 217.636 54.9633 216.971L56.6005 208.585ZM69.4773 201.518H75.6664L71.3939 223H65.2048L69.4773 201.518ZM73.63 198.523C72.5652 198.523 71.6867 198.217 70.9946 197.605C70.3291 196.966 69.9964 196.194 69.9964 195.289C69.9964 194.224 70.369 193.345 71.1144 192.653C71.8864 191.934 72.8846 191.575 74.1092 191.575C75.2006 191.575 76.079 191.881 76.7445 192.493C77.4367 193.079 77.7827 193.811 77.7827 194.69C77.7827 195.834 77.3967 196.766 76.6247 197.485C75.8528 198.177 74.8545 198.523 73.63 198.523ZM85.6411 215.413C85.5879 215.626 85.5613 215.919 85.5613 216.292C85.5613 217.676 86.3199 218.368 87.8373 218.368C88.6625 218.368 89.501 218.115 90.3529 217.609L91.2713 222.042C89.887 222.894 88.1035 223.319 85.9206 223.319C83.8975 223.319 82.2737 222.787 81.0492 221.722C79.8247 220.657 79.2124 219.193 79.2124 217.33C79.2124 216.798 79.2789 216.172 79.412 215.453L81.129 206.788H77.8148L78.7732 201.997H82.0874L83.1255 196.766H89.3546L88.3164 201.997H93.6671L92.7087 206.788H87.3581L85.6411 215.413ZM111.299 201.198C113.695 201.198 115.598 201.837 117.009 203.115C118.42 204.393 119.125 206.203 119.125 208.545C119.125 209.397 119.032 210.249 118.846 211.101L116.45 223H110.221L112.537 211.5C112.643 211.048 112.697 210.555 112.697 210.023C112.697 208.905 112.39 208.053 111.778 207.467C111.166 206.882 110.247 206.589 109.023 206.589C107.426 206.589 106.095 207.055 105.03 207.986C103.992 208.891 103.286 210.262 102.914 212.099L100.757 223H94.5284L100.438 193.372H106.667L104.671 203.474C106.507 201.957 108.717 201.198 111.299 201.198ZM148.051 201.518L143.778 223H137.869L138.308 220.684C137.376 221.563 136.311 222.228 135.113 222.681C133.916 223.106 132.651 223.319 131.32 223.319C128.978 223.319 127.101 222.681 125.69 221.403C124.306 220.125 123.614 218.328 123.614 216.012C123.614 215.134 123.707 214.269 123.893 213.417L126.249 201.518H132.478L130.202 213.017C130.096 213.523 130.042 214.042 130.042 214.575C130.042 216.811 131.24 217.929 133.636 217.929C135.207 217.929 136.498 217.476 137.509 216.571C138.547 215.64 139.253 214.255 139.626 212.419L141.822 201.518H148.051ZM165.88 201.198C167.558 201.198 169.101 201.584 170.512 202.356C171.95 203.128 173.081 204.246 173.906 205.71C174.758 207.148 175.184 208.851 175.184 210.821C175.184 213.191 174.652 215.333 173.587 217.25C172.549 219.14 171.125 220.631 169.314 221.722C167.504 222.787 165.494 223.319 163.285 223.319C161.608 223.319 160.157 223.027 158.933 222.441C157.708 221.855 156.763 220.977 156.098 219.806L155.459 223H149.549L155.459 193.372H161.688L159.691 203.354C161.422 201.917 163.485 201.198 165.88 201.198ZM162.566 218.168C163.791 218.168 164.882 217.876 165.841 217.29C166.799 216.678 167.544 215.839 168.077 214.774C168.609 213.71 168.875 212.485 168.875 211.101C168.875 209.637 168.436 208.479 167.558 207.627C166.706 206.775 165.508 206.349 163.964 206.349C162.766 206.349 161.688 206.655 160.729 207.268C159.771 207.853 159.026 208.678 158.493 209.743C157.961 210.808 157.695 212.033 157.695 213.417C157.695 214.881 158.121 216.039 158.973 216.891C159.824 217.743 161.022 218.168 162.566 218.168Z" fill="#F8CC14"/>
</g>
<defs>
<filter id="filter0_d" x="13.8691" y="0" width="200.623" height="202.041" filterUnits="userSpaceOnUse" color-interpolation-filters="sRGB">
<feFlood flood-opacity="0" result="BackgroundImageFix"/>
<feColorMatrix in="SourceAlpha" type="matrix" values="0 0 0 0 0 0 0 0 0 0 0 0 0 0 0 0 0 0 127 0"/>
<feOffset dx="6" dy="6"/>
<feColorMatrix type="matrix" values="0 0 0 0 0 0 0 0 0 0.478431 0 0 0 0 0.878431 0 0 0 1 0"/>
<feBlend mode="normal" in2="BackgroundImageFix" result="effect1_dropShadow"/>
<feBlend mode="normal" in="SourceGraphic" in2="effect1_dropShadow" result="shape"/>
</filter>
<filter id="filter1_d" x="35.6777" y="191.575" width="145.507" height="37.9041" filterUnits="userSpaceOnUse" color-interpolation-filters="sRGB">
<feFlood flood-opacity="0" result="BackgroundImageFix"/>
<feColorMatrix in="SourceAlpha" type="matrix" values="0 0 0 0 0 0 0 0 0 0 0 0 0 0 0 0 0 0 127 0"/>
<feOffset dx="6" dy="6"/>
<feColorMatrix type="matrix" values="0 0 0 0 0 0 0 0 0 0.478431 0 0 0 0 0.878431 0 0 0 1 0"/>
<feBlend mode="normal" in2="BackgroundImageFix" result="effect1_dropShadow"/>
<feBlend mode="normal" in="SourceGraphic" in2="effect1_dropShadow" result="shape"/>
</filter>
</defs>
</svg>
