<svg width="142" height="154" viewBox="0 0 142 154" fill="none" xmlns="http://www.w3.org/2000/svg">
<path d="M98.9368 29.9984L124.833 62.7934L127.174 29.5084L96.5412 26.9645L98.9368 29.9984Z" fill="#007AE0"/>
<path d="M17.4078 60.6357L28.6138 28.4952L6.3347 39.4007L16.3711 63.609L17.4078 60.6357Z" fill="#007AE0"/>
<path d="M79.174 129.244L48.9191 135.329L68.5054 149.963L81.9729 128.681L79.174 129.244Z" fill="#007AE0"/>
<path d="M86.921 18.5459L122.508 65.606L102.731 122.634L47.3685 132.603L11.7819 85.5425L31.5581 28.5142L86.921 18.5459Z" fill="#007AE0"/>
<path fill-rule="evenodd" clip-rule="evenodd" d="M56.6667 45.1071V46.2143H54.3704H52.0741V47.3214V48.4286H50.9259H49.7778V49.5357V50.6429H48.6296H47.4815V51.75V52.8571H46.3333H45.1852V53.9643V55.0714H44.037H42.8889V56.1786V57.2857H41.7407H40.5926V59.5V61.7143H39.4444H38.2963V63.9286V66.1429H37.1481H36V76.1071V86.0714H37.1481H38.2963V88.2857V90.5H39.4444H40.5926V91.6071V92.7143H41.7407H42.8889V93.8214V94.9286H44.037H45.1852V96.0357V97.1429H46.3333H47.4815V98.25V99.3571H48.6296H49.7778V100.464V101.571H50.9259H52.0741V102.679V103.786H54.3704H56.6667V104.893V106H58.963H61.2593V101.571V97.1429H56.6667H52.0741V96.0357V94.9286H50.9259H49.7778V93.8214V92.7143H48.6296H47.4815V91.6071V90.5H46.3333H45.1852V89.3929V88.2857H47.4815H49.7778V89.3929V90.5H50.9259H52.0741V91.6071V92.7143H53.2222H54.3704V93.8214V94.9286H56.6667H58.963V93.8214V92.7143H60.1111H61.2593V91.6071V90.5H62.4074H63.5556V89.3929V88.2857H58.963H54.3704V87.1786V86.0714H53.2222H52.0741V84.9643V83.8571H50.9259H49.7778V82.75V81.6429H48.6296H47.4815V75V68.3571H48.6296H49.7778V67.25V66.1429H50.9259H52.0741V65.0357V63.9286H50.9259H49.7778V60.6071V57.2857H53.2222H56.6667V58.3929V59.5H57.8148H58.963V60.6071V61.7143H60.1111H61.2593V60.6071V59.5H67H72.7407V60.6071V61.7143H73.8889H75.037V60.6071V59.5H76.1852H77.3333V58.3929V57.2857H80.7778H84.2222V60.6071V63.9286H83.0741H81.9259V65.0357V66.1429H83.0741H84.2222V67.25V68.3571H85.3704H86.5185V75V81.6429H85.3704H84.2222V82.75V83.8571H83.0741H81.9259V84.9643V86.0714H80.7778H79.6296V87.1786V88.2857H75.037H70.4444V89.3929V90.5H71.5926H72.7407V91.6071V92.7143H73.8889H75.037V99.3571V106H77.3333H79.6296V104.893V103.786H80.7778H81.9259V102.679V101.571H83.0741H84.2222V100.464V99.3571H85.3704H86.5185V98.25V97.1429H87.6667H88.8148V96.0357V94.9286H89.963H91.1111V93.8214V92.7143H92.2593H93.4074V91.6071V90.5H94.5556H95.7037V88.2857V86.0714H96.8519H98V76.1071V66.1429H96.8519H95.7037V63.9286V61.7143H94.5556H93.4074V59.5V57.2857H92.2593H91.1111V56.1786V55.0714H89.963H88.8148V53.9643V52.8571H87.6667H86.5185V51.75V50.6429H85.3704H84.2222V49.5357V48.4286H83.0741H81.9259V47.3214V46.2143H79.6296H77.3333V45.1071V44H67H56.6667V45.1071Z" fill="white"/>
</svg>
