<svg width="840" height="321" viewBox="0 0 840 321" fill="none" xmlns="http://www.w3.org/2000/svg">
<path d="M299.564 82.9762H391.814L341.422 43.249L291.03 82.9762H299.564Z" fill="#007AE0"/>
<path d="M119.534 82.9782H211.784L161.392 43.251L111 82.9782H119.534Z" fill="#007AE0"/>
<path d="M224.055 83.2989H277.619L248.359 60.2314L219.099 83.2989H224.055Z" fill="#007AE0"/>
<path d="M261.442 51.9013H315.007L285.747 74.9688L256.487 51.9013H261.442Z" fill="#007AE0"/>
<path d="M249.428 41.0085H331.263L286.56 5.7666L241.857 41.0085L249.428 41.0085Z" fill="#007AE0"/>
<path d="M158.884 29.1404L216.75 74.7596V24.9201H153.531L158.884 29.1404Z" fill="#007AE0"/>
<path d="M540.25 237.323H448L498.392 277.05L548.784 237.323H540.25Z" fill="#007AE0"/>
<path d="M720.28 237.321H628.03L678.422 277.048L728.815 237.321H720.28Z" fill="#007AE0"/>
<path d="M615.76 237H562.195L591.455 260.067L620.715 237H615.76Z" fill="#007AE0"/>
<path d="M578.372 268.397H524.808L554.068 245.33L583.328 268.397H578.372Z" fill="#007AE0"/>
<path d="M590.387 279.29H508.552L553.254 314.532L597.957 279.29H590.387Z" fill="#007AE0"/>
<path d="M680.931 291.158L623.065 245.539V295.379H686.284L680.931 291.158Z" fill="#007AE0"/>
<path d="M59.5022 83H840L786.394 239H0L59.5022 83Z" fill="#007AE0"/>
<path d="M138.815 166.82H147.995L146.778 171.41H142.188L140.949 176H122.59L123.829 171.41H119.239L125.39 148.461H129.979L131.196 143.871H149.555L148.339 148.461H152.929L151.689 153.051H142.51L143.749 148.461H134.569L128.419 171.41H137.599L138.815 166.82ZM174.616 170.263L173.078 176H150.129L158.735 143.871H167.915L160.846 170.263H174.616ZM177.668 176L186.274 143.871H195.454L186.848 176H177.668ZM212.252 166.82H221.432L220.216 171.41H215.626L214.387 176H196.027L197.267 171.41H192.677L198.827 148.461H203.417L204.633 143.871H222.993L221.776 148.461H226.366L225.127 153.051H215.947L217.187 148.461H208.007L201.856 171.41H211.036L212.252 166.82ZM232.746 176H223.566L232.172 143.871H241.352L237.657 157.641H242.247L243.486 153.051H248.076L250.532 143.871H259.711L257.256 153.051H252.666L251.427 157.641H246.837L245.621 162.23H250.21L248.971 166.82H253.561L251.105 176H241.926L244.381 166.82H239.792L241.031 162.23H236.441L232.746 176ZM310.2 143.871L308.983 148.461H299.804L292.414 176H283.234L290.624 148.461H281.444L282.661 143.871H310.2ZM331.933 148.461H322.753L316.603 171.41H325.782L331.933 148.461ZM312.013 171.41H307.423L313.573 148.461H318.163L319.379 143.871H337.739L336.522 148.461H341.112L334.962 171.41H330.372L329.133 176H310.773L312.013 171.41ZM377.487 166.82L383.637 143.871H392.817L386.667 166.82H382.077L380.86 171.41H376.271L375.031 176H365.852L367.091 171.41H362.501L363.717 166.82H359.127L365.278 143.871H374.458L368.307 166.82H377.487ZM388.801 176L397.407 143.871H406.586L397.98 176H388.801ZM402.57 176L411.176 143.871H434.125L432.909 148.461H419.14L416.661 157.641H430.431L429.214 162.23H415.445L412.989 171.41H426.759L425.52 176H402.57ZM462.56 157.641L466.254 143.871H470.844L462.238 176H453.059L455.514 166.82H441.745L439.289 176H430.109L438.715 143.871H447.895L444.2 157.641H448.79L451.269 148.461H460.448L457.97 157.641H462.56ZM510.937 148.461H501.757L495.606 171.41H504.786L510.937 148.461ZM491.017 171.41H486.427L492.577 148.461H497.167L498.383 143.871H516.743L515.526 148.461H520.116L513.966 171.41H509.376L508.137 176H489.777L491.017 171.41ZM525.601 162.23L521.906 176H517.316L525.922 143.871H535.102L532.646 153.051H537.236L534.781 162.23H539.371L544.282 143.871H553.461L544.855 176H535.676L536.915 171.41H527.735L530.191 162.23H525.601ZM587.243 171.984L586.164 176H572.395L573.634 171.41H569.044L575.194 148.461H579.784L581 143.871H603.95L601.494 153.051H596.904L598.144 148.461H584.374L578.224 171.41H586.83L587.541 170.836L589.859 162.23H585.269L586.485 157.641H600.255L595.344 176H590.754L591.993 171.41H587.977L587.243 171.984ZM599.934 176L608.54 143.871H617.719L609.113 176H599.934ZM649.848 143.871L648.632 148.461H639.452L632.062 176H622.883L630.272 148.461H621.093L622.309 143.871H649.848ZM672.797 143.871H681.977L673.371 176H664.191L667.886 162.23H658.707L655.012 176H645.832L654.438 143.871H663.618L659.923 157.641H669.103L672.797 143.871ZM704.926 143.871H714.106L705.5 176H682.551L683.79 171.41H679.2L686.567 143.871H695.747L688.38 171.41H697.56L704.926 143.871ZM735.839 148.461H726.659L724.181 157.641H733.36L735.839 148.461ZM710.09 176L718.696 143.871H741.645L740.429 148.461H745.019L742.54 157.641H737.95L736.734 162.23H741.324L738.868 171.41H734.278L733.039 176H710.09ZM729.688 171.41L732.144 162.23H722.964L720.509 171.41H729.688Z" fill="white"/>
</svg>
