<svg width="468" height="934" viewBox="0 0 468 934" fill="none" xmlns="http://www.w3.org/2000/svg">
<rect width="468" height="934" fill="#999999"/>
<rect width="468" height="934" fill="#007AE0"/>
<path fill-rule="evenodd" clip-rule="evenodd" d="M274.2 332.077V372.154H254.1H234V382.173V392.192H223.95H213.9V412.231V432.269H203.85H193.8V452.308V472.346H183.75H173.7V482.365V492.385H163.65H153.6V512.423V532.462H163.65H173.7V522.442V512.423H183.75H193.8V492.385V472.346H213.9H234V492.385V512.423H223.95H213.9V532.462V552.5H203.85H193.8V562.519V572.538H183.75H173.7V592.577V612.615H163.65H153.6V622.635V632.654H133.5H113.4V612.615V592.577H93.3H73.2V602.596V612.615H53.1H33V632.654V652.692H73.2H113.4V662.712V672.731H123.45H133.5V682.75V692.769H153.6H173.7V682.75V672.731H183.75H193.8V662.712V652.692H213.9H234V642.673V632.654H244.05H254.1V622.635V612.615H264.15H274.2V622.635V632.654H284.25H294.3V642.673V652.692H304.35H314.4V662.712V672.731H334.5H354.6V682.75V692.769V702.788V712.808V762.904V813H394.8H435V792.962V772.923H414.9H394.8V712.808V652.692H384.75H374.7V632.654V612.615H364.65H354.6V602.596V592.577H344.55H334.5V492.385V392.192H344.55H354.6V382.173V372.154H364.65H374.7V352.115V332.077H384.75H394.8V312.038V292H384.75H374.7V302.019V312.038H364.65H354.6V332.077V352.115H344.55H334.5V322.058V292H304.35H274.2V332.077ZM334.5 362.135V372.154H324.45H314.4V362.135V352.115H324.45H334.5V362.135ZM254.1 742.865V752.885H244.05H234V772.923V792.962H244.05H254.1V802.981V813H274.2H294.3V802.981V792.962H304.35H314.4V772.923V752.885H304.35H294.3V742.865V732.846H274.2H254.1V742.865Z" fill="#F9CC14"/>
<path d="M119.021 91.4023V96.7734H102.908V107.516H119.021V112.887H102.908V129H92.166V91.4023H119.021ZM145.877 96.7734H135.135V123.629H145.877V96.7734ZM129.764 123.629H124.393V96.7734H129.764V91.4023H151.248V96.7734H156.619V123.629H151.248V129H129.764V123.629ZM183.475 96.7734H172.732V123.629H183.475V96.7734ZM167.361 123.629H161.99V96.7734H167.361V91.4023H188.846V96.7734H194.217V123.629H188.846V129H167.361V123.629ZM231.814 91.4023V96.7734H221.072V129H210.33V96.7734H199.588V91.4023H231.814ZM258.67 96.7734H247.928V107.516H258.67V96.7734ZM237.186 129V91.4023H264.041V96.7734H269.412V107.516H264.041V112.887H269.412V123.629H264.041V129H237.186ZM258.67 123.629V112.887H247.928V123.629H258.67ZM296.268 112.887V96.7734H285.525V112.887H296.268ZM285.525 118.258V129H274.783V96.7734H280.154V91.4023H301.639V96.7734H307.01V129H296.268V118.258H285.525ZM339.236 122.286V129H312.381V91.4023H323.123V122.286H339.236ZM371.463 122.286V129H344.607V91.4023H355.35V122.286H371.463Z" fill="white"/>
<path d="M119.021 91.4023V96.7734H102.908V107.516H119.021V112.887H102.908V129H92.166V91.4023H119.021ZM145.877 96.7734H135.135V123.629H145.877V96.7734ZM129.764 123.629H124.393V96.7734H129.764V91.4023H151.248V96.7734H156.619V123.629H151.248V129H129.764V123.629ZM183.475 96.7734H172.732V123.629H183.475V96.7734ZM167.361 123.629H161.99V96.7734H167.361V91.4023H188.846V96.7734H194.217V123.629H188.846V129H167.361V123.629ZM231.814 91.4023V96.7734H221.072V129H210.33V96.7734H199.588V91.4023H231.814ZM258.67 96.7734H247.928V107.516H258.67V96.7734ZM237.186 129V91.4023H264.041V96.7734H269.412V107.516H264.041V112.887H269.412V123.629H264.041V129H237.186ZM258.67 123.629V112.887H247.928V123.629H258.67ZM296.268 112.887V96.7734H285.525V112.887H296.268ZM285.525 118.258V129H274.783V96.7734H280.154V91.4023H301.639V96.7734H307.01V129H296.268V118.258H285.525ZM339.236 122.286V129H312.381V91.4023H323.123V122.286H339.236ZM371.463 122.286V129H344.607V91.4023H355.35V122.286H371.463Z" fill="white"/>
</svg>
