<svg width="852" height="322" viewBox="0 0 852 322" fill="none" xmlns="http://www.w3.org/2000/svg">
<g filter="url(#filter0_d)">
<path fill-rule="evenodd" clip-rule="evenodd" d="M331.263 36.0085H249.428H241.857L286.56 0.766602L331.263 36.0085ZM299.564 77.9761H391.814L341.422 38.2489L291.03 77.9761H299.564ZM119.534 77.978H211.784L161.392 38.2508L111 77.978H119.534ZM277.239 77.9996L248.359 55.2313L219.479 77.9996H59.5022L0 234H450.128L498.392 272.049L546.656 234H564.733L591.455 255.067L618.178 234H630.161L678.422 272.047L726.684 234H786.394L840 77.9996H277.239ZM261.442 46.9011H315.007L285.747 69.9686L256.487 46.9011H261.442ZM158.883 24.1396L216.749 69.7589V19.9193H153.53L158.883 24.1396ZM578.373 263.397H524.808L554.068 240.329L583.328 263.397H578.373ZM508.552 274.289H590.387H597.957L553.255 309.531L508.552 274.289ZM680.931 286.158L623.065 240.539V290.379H686.284L680.931 286.158Z" fill="#007AE0"/>
</g>
<path d="M138.815 161.82H147.995L146.778 166.41H142.188L140.949 171H122.59L123.829 166.41H119.239L125.39 143.461H129.979L131.196 138.871H149.555L148.339 143.461H152.929L151.689 148.051H142.51L143.749 143.461H134.569L128.419 166.41H137.599L138.815 161.82ZM174.616 165.263L173.078 171H150.129L158.735 138.871H167.915L160.846 165.263H174.616ZM177.668 171L186.274 138.871H195.454L186.848 171H177.668ZM212.252 161.82H221.432L220.216 166.41H215.626L214.387 171H196.027L197.267 166.41H192.677L198.827 143.461H203.417L204.633 138.871H222.993L221.776 143.461H226.366L225.127 148.051H215.947L217.187 143.461H208.007L201.856 166.41H211.036L212.252 161.82ZM232.746 171H223.566L232.172 138.871H241.352L237.657 152.641H242.247L243.486 148.051H248.076L250.532 138.871H259.711L257.256 148.051H252.666L251.427 152.641H246.837L245.621 157.23H250.21L248.971 161.82H253.561L251.105 171H241.926L244.381 161.82H239.792L241.031 157.23H236.441L232.746 171ZM310.2 138.871L308.983 143.461H299.804L292.414 171H283.234L290.624 143.461H281.444L282.661 138.871H310.2ZM331.933 143.461H322.753L316.603 166.41H325.782L331.933 143.461ZM312.013 166.41H307.423L313.573 143.461H318.163L319.379 138.871H337.739L336.522 143.461H341.112L334.962 166.41H330.372L329.133 171H310.773L312.013 166.41ZM377.487 161.82L383.637 138.871H392.817L386.667 161.82H382.077L380.86 166.41H376.271L375.031 171H365.852L367.091 166.41H362.501L363.717 161.82H359.127L365.278 138.871H374.458L368.307 161.82H377.487ZM388.801 171L397.407 138.871H406.586L397.98 171H388.801ZM402.57 171L411.176 138.871H434.125L432.909 143.461H419.14L416.661 152.641H430.431L429.214 157.23H415.445L412.989 166.41H426.759L425.52 171H402.57ZM462.56 152.641L466.254 138.871H470.844L462.238 171H453.059L455.514 161.82H441.745L439.289 171H430.109L438.715 138.871H447.895L444.2 152.641H448.79L451.269 143.461H460.448L457.97 152.641H462.56ZM510.937 143.461H501.757L495.606 166.41H504.786L510.937 143.461ZM491.017 166.41H486.427L492.577 143.461H497.167L498.383 138.871H516.743L515.526 143.461H520.116L513.966 166.41H509.376L508.137 171H489.777L491.017 166.41ZM525.601 157.23L521.906 171H517.316L525.922 138.871H535.102L532.646 148.051H537.236L534.781 157.23H539.371L544.282 138.871H553.461L544.855 171H535.676L536.915 166.41H527.735L530.191 157.23H525.601ZM587.243 166.984L586.164 171H572.395L573.634 166.41H569.044L575.194 143.461H579.784L581 138.871H603.95L601.494 148.051H596.904L598.144 143.461H584.374L578.224 166.41H586.83L587.541 165.836L589.859 157.23H585.269L586.485 152.641H600.255L595.344 171H590.754L591.993 166.41H587.977L587.243 166.984ZM599.934 171L608.54 138.871H617.719L609.113 171H599.934ZM649.848 138.871L648.632 143.461H639.452L632.062 171H622.883L630.272 143.461H621.093L622.309 138.871H649.848ZM672.797 138.871H681.977L673.371 171H664.191L667.886 157.23H658.707L655.012 171H645.832L654.438 138.871H663.618L659.923 152.641H669.103L672.797 138.871ZM704.926 138.871H714.106L705.5 171H682.551L683.79 166.41H679.2L686.567 138.871H695.747L688.38 166.41H697.56L704.926 138.871ZM735.839 143.461H726.659L724.181 152.641H733.36L735.839 143.461ZM710.09 171L718.696 138.871H741.645L740.429 143.461H745.019L742.54 152.641H737.95L736.734 157.23H741.324L738.868 166.41H734.278L733.039 171H710.09ZM729.688 166.41L732.144 157.23H722.964L720.509 166.41H729.688Z" fill="white"/>
<defs>
<filter id="filter0_d" x="0" y="0.766602" width="852" height="320.765" filterUnits="userSpaceOnUse" color-interpolation-filters="sRGB">
<feFlood flood-opacity="0" result="BackgroundImageFix"/>
<feColorMatrix in="SourceAlpha" type="matrix" values="0 0 0 0 0 0 0 0 0 0 0 0 0 0 0 0 0 0 127 0"/>
<feOffset dx="12" dy="12"/>
<feColorMatrix type="matrix" values="0 0 0 0 0.4 0 0 0 0 0.988235 0 0 0 0 0.945098 0 0 0 1 0"/>
<feBlend mode="normal" in2="BackgroundImageFix" result="effect1_dropShadow"/>
<feBlend mode="normal" in="SourceGraphic" in2="effect1_dropShadow" result="shape"/>
</filter>
</defs>
</svg>
