<svg width="336" height="410" viewBox="0 0 336 410" fill="none" xmlns="http://www.w3.org/2000/svg">
<rect y="74" width="336" height="336" fill="#007AE0"/>
<path d="M254.353 74.8329L316.647 74.713L285.12 39.0084L248.59 74.844L254.353 74.8329Z" fill="#007AE0"/>
<path d="M132.783 75.0668L195.077 74.9469L163.55 39.2422L127.02 75.0779L132.783 75.0668Z" fill="#007AE0"/>
<path d="M203.344 75.2197L239.514 75.1501L221.208 54.4184L199.997 75.2262L203.344 75.2197Z" fill="#007AE0"/>
<path d="M230.567 46.9014L266.738 46.8318L245.527 67.6396L227.22 46.9079L230.567 46.9014Z" fill="#007AE0"/>
<path d="M223.139 37.1089L278.4 37.0026L250.432 5.32909L218.027 37.1188L223.139 37.1089Z" fill="#007AE0"/>
<path d="M162.744 26.5401L198.947 67.5402L202.085 22.665L159.395 22.7471L162.744 26.5401Z" fill="#007AE0"/>
<path d="M58.665 197.521H61.8678V199.122H60.2664V200.724H53.8608V199.122H52.2594V191.115H53.8608V189.514H60.2664V191.115H61.8678V192.717H58.665V191.115H55.4622V199.122H58.665V197.521ZM76.2805 191.115H73.0777V194.318H77.8819V195.919H79.4834V199.122H77.8819V200.724H71.4763V199.122H69.8749V197.521H73.0777V199.122H76.2805V195.919H71.4763V194.318H69.8749V191.115H71.4763V189.514H77.8819V191.115H79.4834V192.717H76.2805V191.115ZM87.4904 189.514H90.6932V200.724H87.4904V195.919H84.2876V200.724H81.0848V189.514H84.2876V194.318H87.4904V189.514ZM98.7003 195.919V191.115H95.4975V195.919H98.7003ZM95.4975 197.521V200.724H92.2946V191.115H93.896V189.514H100.302V191.115H101.903V200.724H98.7003V197.521H95.4975ZM109.91 191.115H106.707V194.318H109.91V191.115ZM111.512 195.919H113.113V200.724H109.91V195.919H106.707V200.724H103.505V189.514H111.512V191.115H113.113V194.318H111.512V195.919ZM121.12 191.115H117.917V194.318H121.12V191.115ZM122.721 194.318V195.919H117.917V200.724H114.714V189.514H122.721V191.115H124.323V194.318H122.721Z" fill="white"/>
<path d="M74.6704 156.736H88.9341V163.868H81.8022V171H53.2749V163.868H46.1431V128.209H53.2749V121.077H81.8022V128.209H88.9341V135.341H74.6704V128.209H60.4067V163.868H74.6704V156.736ZM117.461 156.736H110.33V163.868H103.198V156.736H96.0659V149.604H103.198V142.473H96.0659V135.341H103.198V128.209H110.33V135.341H117.461V128.209H124.593V135.341H131.725V142.473H124.593V149.604H131.725V156.736H124.593V163.868H117.461V156.736ZM110.33 149.604H117.461V142.473H110.33V149.604Z" fill="#F9CC14"/>
<path d="M199.85 193.424H203.053V203.032H201.452V204.634H195.046V201.431H196.647V203.032H199.85V193.424ZM211.06 199.83V195.025H207.857V199.83H211.06ZM207.857 201.431V204.634H204.654V195.025H206.256V193.424H212.661V195.025H214.263V204.634H211.06V201.431H207.857ZM222.27 201.431V193.424H225.473V201.431H223.871V203.032H222.27V204.634H219.067V203.032H217.466V201.431H215.864V193.424H219.067V201.431H222.27ZM233.48 199.83V195.025H230.277V199.83H233.48ZM230.277 201.431V204.634H227.074V195.025H228.676V193.424H235.081V195.025H236.683V204.634H233.48V201.431H230.277ZM244.69 195.025H241.487V198.228H246.291V199.83H247.893V203.032H246.291V204.634H239.885V203.032H238.284V201.431H241.487V203.032H244.69V199.83H239.885V198.228H238.284V195.025H239.885V193.424H246.291V195.025H247.893V196.627H244.69V195.025ZM255.9 201.431H259.102V203.032H257.501V204.634H251.095V203.032H249.494V195.025H251.095V193.424H257.501V195.025H259.102V196.627H255.9V195.025H252.697V203.032H255.9V201.431ZM267.109 195.025H263.907V198.228H267.109V195.025ZM268.711 199.83H270.312V204.634H267.109V199.83H263.907V204.634H260.704V193.424H268.711V195.025H270.312V198.228H268.711V199.83ZM271.914 204.634V193.424H275.116V204.634H271.914ZM283.124 195.025H279.921V198.228H283.124V195.025ZM284.725 198.228V199.83H279.921V204.634H276.718V193.424H284.725V195.025H286.326V198.228H284.725ZM297.536 193.424V195.025H294.333V204.634H291.131V195.025H287.928V193.424H297.536Z" fill="white"/>
<path d="M203.057 355.481H199.854V358.684H203.057V355.481ZM204.658 358.684V360.285H199.854V365.089H196.651V353.879H204.658V355.481H206.259V358.684H204.658ZM214.266 353.879H217.469V365.089H214.266V360.285H211.064V365.089H207.861V353.879H211.064V358.684H214.266V353.879ZM225.476 360.285V355.481H222.273V360.285H225.476ZM222.273 361.887V365.089H219.071V355.481H220.672V353.879H227.078V355.481H228.679V365.089H225.476V361.887H222.273ZM236.686 355.481H233.483V358.684H238.288V360.285H239.889V363.488H238.288V365.089H231.882V363.488H230.281V361.887H233.483V363.488H236.686V360.285H231.882V358.684H230.281V355.481H231.882V353.879H238.288V355.481H239.889V357.082H236.686V355.481ZM241.49 365.089V353.879H249.497V355.481H244.693V358.684H249.497V360.285H244.693V363.488H249.497V365.089H241.49ZM257.505 355.481H254.302V358.684H257.505V355.481ZM259.106 360.285H260.707V365.089H257.505V360.285H254.302V365.089H251.099V353.879H259.106V355.481H260.707V358.684H259.106V360.285ZM273.519 353.879H276.721V363.488H275.12V365.089H268.714V361.887H270.316V363.488H273.519V353.879ZM284.728 355.481H281.526V358.684H286.33V360.285H287.931V363.488H286.33V365.089H279.924V363.488H278.323V361.887H281.526V363.488H284.728V360.285H279.924V358.684H278.323V355.481H279.924V353.879H286.33V355.481H287.931V357.082H284.728V355.481Z" fill="white"/>
<path d="M194.282 302.646H187.831V309.098H194.282V302.646ZM197.507 309.098V312.323H187.831V322H181.379V299.421H197.507V302.646H200.733V309.098H197.507ZM216.861 299.421H223.312V322H216.861V312.323H210.41V322H203.958V299.421H210.41V309.098H216.861V299.421ZM239.44 312.323V302.646H232.989V312.323H239.44ZM232.989 315.549V322H226.538V302.646H229.763V299.421H242.666V302.646H245.891V322H239.44V315.549H232.989ZM262.019 302.646H255.568V309.098H265.245V312.323H268.47V318.774H265.245V322H252.342V318.774H249.117V315.549H255.568V318.774H262.019V312.323H252.342V309.098H249.117V302.646H252.342V299.421H265.245V302.646H268.47V305.872H262.019V302.646ZM271.696 322V299.421H287.824V302.646H278.147V309.098H287.824V312.323H278.147V318.774H287.824V322H271.696ZM303.952 302.646H297.5V309.098H303.952V302.646ZM307.177 312.323H310.403V322H303.952V312.323H297.5V322H291.049V299.421H307.177V302.646H310.403V309.098H307.177V312.323Z" fill="#F9CC14"/>
<path d="M56.2629 355.879H59.4657V367.089H51.4587V365.488H49.8573V355.879H53.0601V365.488H56.2629V355.879ZM62.6685 362.285V367.089H61.0671V355.879H64.27V359.082H65.8714V362.285H67.4728V355.879H70.6756V367.089H67.4728V365.488H64.27V362.285H62.6685ZM72.277 367.089V355.879H75.4798V367.089H72.277ZM86.6897 355.879V357.481H83.4869V367.089H80.2841V357.481H77.0812V355.879H86.6897ZM94.6967 360.684V355.879H97.8996V360.684H96.2982V362.285H94.6967V367.089H91.4939V362.285H89.8925V360.684H88.2911V355.879H91.4939V360.684H94.6967ZM109.109 362.285V360.684H112.312V357.481H109.109V359.082H105.907V357.481H107.508V355.879H113.914V357.481H115.515V360.684H113.914V362.285H115.515V365.488H113.914V367.089H107.508V365.488H105.907V363.887H109.109V365.488H112.312V362.285H109.109ZM123.522 357.481H120.319V365.488H123.522V357.481ZM117.116 367.089V355.879H125.124V357.481H126.725V365.488H125.124V367.089H117.116Z" fill="white"/>
<path fill-rule="evenodd" clip-rule="evenodd" d="M115 251V253H107H99V255V257H93H87V259V261H85H83V265V269H75H67V271V273H65H63V275V277H61H59V279V281H57H55V283V285H53H51V287V289H49H47V291V293H45H43V295V297H45H47V299V301H49H51V303V305H53H55V307V309H57H59V311V313H61H63V315V317H65H67V319V321H73H79V319V317H77H75V315V313H73H71V311V309H69H67V307V305H65H63V303V301H79H95V303V305H97H99V309V313H101H103V315V317H105H107V321V325H99H91V323V321H87H83V325V329H85H87V331V333H93H99V335V337H107H115V339V341H119H123V339V337H125H127V329V321H129H131V309V297H127H123V305V313H121H119V317V321H117H115V317V313H113H111V311V309H109H107V305V301H105H103V295V289H105H107V287V285H109H111V281V277H113H115V273V269H117H119V273V277H121H123V285V293H127H131V281V269H129H127V261V253H125H123V251V249H119H115V251ZM107 269V273H105H103V275V277H101H99V281V285H97H95V287V289H81H67V287V285H69H71V283V281H73H75V279V277H77H79V275V273H81H83V271V269H89H95V267V265H101H107V269ZM111 327V329H109H107V327V325H109H111V327Z" fill="#F9CC14"/>
<rect x="211" y="106" width="77" height="77" fill="#F9CC14"/>
<path d="M248.559 153.117H255.668V174.445H252.113V178H237.895V170.891H241.449V174.445H248.559V153.117ZM273.441 156.672H266.332V163.781H276.996V167.336H280.551V174.445H276.996V178H262.777V174.445H259.223V170.891H266.332V174.445H273.441V167.336H262.777V163.781H259.223V156.672H262.777V153.117H276.996V156.672H280.551V160.227H273.441V156.672Z" fill="#007AE0"/>
</svg>
