<svg width="221" height="178" viewBox="0 0 221 178" fill="none" xmlns="http://www.w3.org/2000/svg">
<path fill-rule="evenodd" clip-rule="evenodd" d="M101.598 4.2328V8.46561H97.3651H93.1323V12.6984V16.9312H88.8995H84.6667V21.164V25.3968H80.4339H76.2011V29.6296V33.8624H71.9683H67.7354V38.0226C67.7354 41.4024 67.6901 42.2283 67.4935 42.4247C67.2971 42.6213 66.4712 42.6667 63.0914 42.6667H58.9312V46.8995V51.1323H54.6984H50.4656V55.3651V59.5979H46.2328H42V68.0635V76.5291H46.2328H50.4656V72.2963V68.0635H54.6984H58.9312V93.6296V119.196H76.0317H93.1323V102.265V85.3333H106H118.868V102.265V119.196H135.968H153.069V112.607C153.069 107.501 153.021 105.995 152.857 105.919C152.688 105.84 152.688 105.8 152.857 105.721C153.025 105.643 153.069 101.701 153.069 86.8431V68.0635H157.302H161.534V72.2963V76.5291H165.767H170V68.0635V59.5979H165.767H161.534V55.3651V51.1323H157.302H153.069V46.8995V42.6667H148.909C145.529 42.6667 144.703 42.6213 144.506 42.4247C144.31 42.2283 144.265 41.4024 144.265 38.0226V33.8624H140.032H135.799V29.6296V25.3968H131.566H127.333V21.164V16.9312H123.101H118.868V12.6984V8.46561H114.635H110.402V4.2328V0H106H101.598V4.2328ZM110.16 17.1732C110.356 17.3691 110.402 18.1728 110.402 21.406V25.3968H114.635H118.868V29.6296V33.8624H114.635H110.402V29.6296V25.3968H106H101.598V29.6296V33.8624H97.3651H93.1323V38.2646V42.6667H91.1146C89.6661 42.6667 89.0691 42.6069 88.9982 42.455C88.9193 42.2857 88.8797 42.2857 88.8008 42.455C88.7298 42.6069 88.1328 42.6667 86.6844 42.6667H84.6667V46.8995V51.1323H80.4339H76.2011V55.3651V59.5979H71.9683H67.7354V60.4304C67.7354 60.9377 67.6528 61.2963 67.5238 61.3487C67.364 61.4134 67.3743 61.4823 67.5661 61.6296C67.758 61.7769 67.7683 61.8458 67.6085 61.9105C67.3577 62.0124 67.3184 63.3228 67.5661 63.3228C67.6709 63.3228 67.7354 64.2257 67.7354 65.6931V68.0635H63.3333H58.9312V64.6913C58.9312 62.1523 58.9835 61.298 59.1429 61.2333C59.3022 61.1688 59.2917 61.1024 59.1005 60.9653C58.8748 60.8034 58.8748 60.7628 59.1005 60.6009C59.2917 60.4638 59.3022 60.3974 59.1429 60.3329C59.0265 60.2856 58.9312 60.1009 58.9312 59.9225C58.9312 59.6109 59.1078 59.5979 63.3333 59.5979H67.7354V58.0881C67.7354 57.046 67.6699 56.5479 67.5238 56.4797C67.3545 56.4008 67.3545 56.3611 67.5238 56.2822C67.6792 56.2096 67.7354 55.5127 67.7354 53.6579V51.1323H71.9683H76.2011V46.8995V42.6667H80.4339H84.6667V38.5065C84.6667 35.1267 84.712 34.3008 84.9086 34.1044C85.1045 33.9083 85.9082 33.8624 89.1414 33.8624H93.1323V29.6296V25.3968H97.3651H101.598V21.164V16.9312H105.758C109.138 16.9312 109.964 16.9766 110.16 17.1732ZM127.091 34.1044C127.288 34.3008 127.333 35.1267 127.333 38.5065V42.6667H131.566H135.799V46.8995V51.1323H140.032H144.265V55.3651V59.5979H140.032H135.799V55.3651V51.1323H131.566H127.333V46.8995V42.6667H123.101H118.868V38.5114C118.868 35.4282 118.922 34.294 119.079 34.1157C119.392 33.7603 126.737 33.7498 127.091 34.1044ZM153.069 59.7672C153.069 59.8603 152.993 59.9365 152.899 59.9365C152.806 59.9365 152.73 60.0889 152.73 60.2751C152.73 60.4614 152.806 60.6138 152.899 60.6138C152.993 60.6138 153.069 60.7661 153.069 60.9524C153.069 61.1386 152.993 61.291 152.899 61.291C152.806 61.291 152.73 61.4434 152.73 61.6296C152.73 61.8159 152.806 61.9683 152.899 61.9683C153.006 61.9683 153.069 63.0971 153.069 65.0159V68.0635H148.667H144.265V65.0299C144.265 62.7618 144.318 61.9749 144.476 61.9105C144.636 61.846 144.625 61.7796 144.434 61.6425C144.208 61.4806 144.208 61.4415 144.434 61.291C144.66 61.1405 144.66 61.1029 144.434 60.9524C144.208 60.8019 144.208 60.7643 144.434 60.6138C144.648 60.471 144.651 60.4207 144.453 60.2931C144.252 60.1639 144.252 60.1026 144.453 59.8762C144.654 59.649 145.291 59.6099 148.878 59.6043C151.563 59.6003 153.069 59.6587 153.069 59.7672ZM84.6667 85.164V93.7989H76.2011H67.7354V85.164V76.5291H76.2011H84.6667V85.164ZM144.265 85.164V93.7989H135.799H127.333V85.164V76.5291H135.799H144.265V85.164Z" fill="#F9CC14"/>
<rect x="47.418" y="59.5979" width="114.455" height="16.9312" fill="#F9CC14"/>
<path d="M56.3916 62.4763L105.661 10.6667C119.601 25.2276 147.651 54.4847 148.328 55.0265C149.175 55.7038 147.482 62.4763 146.466 65.016C145.45 67.5556 144.942 66.7091 141.217 69.0794C137.492 71.4498 120.053 69.4181 111.757 70.2646C103.46 71.1112 96.8572 70.7726 76.7091 66.7091C60.5905 63.4583 56.448 62.5327 56.3916 62.4763Z" fill="#F9CC14"/>
<path d="M63.625 145.188H73V178H63.625V163.938H54.25V178H44.875V145.188H54.25V159.25H63.625V145.188ZM96.4375 149.875H87.0625V173.312H96.4375V149.875ZM82.375 173.312H77.6875V149.875H82.375V145.188H101.125V149.875H105.812V173.312H101.125V178H82.375V173.312ZM115.188 163.938V178H110.5V145.188H119.875V154.562H133.938V145.188H143.312V178H133.938V163.938H129.25V173.312H119.875V163.938H115.188ZM148 178V145.188H171.438V149.875H157.375V159.25H171.438V163.938H157.375V173.312H171.438V178H148Z" fill="white"/>
</svg>
