<svg width="462" height="934" viewBox="0 0 462 934" fill="none" xmlns="http://www.w3.org/2000/svg">
<rect width="466" height="934" fill="#F9CC14"/>
<path d="M77.125 846.039V821.137H87.0859V846.039H82.1055V851.02H77.125V856H67.1641V851.02H62.1836V846.039H57.2031V821.137H67.1641V846.039H77.125ZM92.0664 856V821.137H102.027V856H92.0664ZM126.93 826.117H116.969V851.02H126.93V826.117ZM107.008 856V821.137H131.91V826.117H136.891V851.02H131.91V856H107.008ZM141.871 856V821.137H166.773V826.117H151.832V836.078H166.773V841.059H151.832V851.02H166.773V856H141.871ZM191.676 826.117H181.715V851.02H191.676V826.117ZM176.734 851.02H171.754V826.117H176.734V821.137H196.656V826.117H201.637V851.02H196.656V856H176.734V851.02ZM226.539 851.642V856H211.598V851.02H206.617V826.117H211.598V821.137H236.5V831.098H231.52V826.117H216.578V851.02H225.917L226.539 850.397V841.059H221.559V836.078H236.5V856H231.52V851.02H227.162L226.539 851.642ZM261.402 826.117H251.441V836.078H261.402V826.117ZM266.383 841.059H271.363V856H261.402V841.059H251.441V856H241.48V821.137H266.383V826.117H271.363V836.078H266.383V841.059ZM296.266 841.059V826.117H286.305V841.059H296.266ZM286.305 846.039V856H276.344V826.117H281.324V821.137H301.246V826.117H306.227V856H296.266V846.039H286.305ZM331.129 826.117H321.168V836.078H331.129V826.117ZM336.109 836.078V841.059H321.168V856H311.207V821.137H336.109V826.117H341.09V836.078H336.109ZM365.992 821.137H375.953V856H365.992V841.059H356.031V856H346.07V821.137H356.031V836.078H365.992V821.137ZM400.855 836.078V821.137H410.816V836.078H405.836V841.059H400.855V856H390.895V841.059H385.914V836.078H380.934V821.137H390.895V836.078H400.855Z" fill="white"/>
<path d="M77.125 846.039V821.137H87.0859V846.039H82.1055V851.02H77.125V856H67.1641V851.02H62.1836V846.039H57.2031V821.137H67.1641V846.039H77.125ZM92.0664 856V821.137H102.027V856H92.0664ZM126.93 826.117H116.969V851.02H126.93V826.117ZM107.008 856V821.137H131.91V826.117H136.891V851.02H131.91V856H107.008ZM141.871 856V821.137H166.773V826.117H151.832V836.078H166.773V841.059H151.832V851.02H166.773V856H141.871ZM191.676 826.117H181.715V851.02H191.676V826.117ZM176.734 851.02H171.754V826.117H176.734V821.137H196.656V826.117H201.637V851.02H196.656V856H176.734V851.02ZM226.539 851.642V856H211.598V851.02H206.617V826.117H211.598V821.137H236.5V831.098H231.52V826.117H216.578V851.02H225.917L226.539 850.397V841.059H221.559V836.078H236.5V856H231.52V851.02H227.162L226.539 851.642ZM261.402 826.117H251.441V836.078H261.402V826.117ZM266.383 841.059H271.363V856H261.402V841.059H251.441V856H241.48V821.137H266.383V826.117H271.363V836.078H266.383V841.059ZM296.266 841.059V826.117H286.305V841.059H296.266ZM286.305 846.039V856H276.344V826.117H281.324V821.137H301.246V826.117H306.227V856H296.266V846.039H286.305ZM331.129 826.117H321.168V836.078H331.129V826.117ZM336.109 836.078V841.059H321.168V856H311.207V821.137H336.109V826.117H341.09V836.078H336.109ZM365.992 821.137H375.953V856H365.992V841.059H356.031V856H346.07V821.137H356.031V836.078H365.992V821.137ZM400.855 836.078V821.137H410.816V836.078H405.836V841.059H400.855V856H390.895V841.059H385.914V836.078H380.934V821.137H390.895V836.078H400.855Z" fill="black"/>
</svg>
