<svg  viewBox="0 0 1863 1188" fill="none" xmlns="http://www.w3.org/2000/svg" preserveAspectRatio="none">
<path d="M2 0.657043V1090.98L1863 1187.08V754.035L1327.18 899.965L629.108 0.657043H2Z" fill="#007AE0"/>
<path d="M1863 903.54V405.145L1454.41 588.584L-4 1090.35V1154.41L1863 903.54Z" fill="#F9CC14"/>
<path d="M1862.07 139.242V11.3608L1802.67 81.2166L1862.07 151.072V139.242Z" fill="#F9CC14"/>
<path d="M1862.07 388.808V260.926L1802.67 330.782L1862.07 400.638V388.808Z" fill="#F9CC14"/>
<path d="M1862.55 243.917V169.663L1828.06 210.225L1862.55 250.786V243.917Z" fill="#F9CC14"/>
<path d="M1815.6 192.088V117.835L1850.09 158.396L1815.6 198.958V192.088Z" fill="#F9CC14"/>
<path d="M1799.32 208.744V95.3005L1746.62 157.269L1799.32 219.238V208.744Z" fill="#F9CC14"/>
<path d="M1781.57 334.26L1849.78 254.043H1775.26V341.681L1781.57 334.26Z" fill="#F9CC14"/>
<path d="M1349.72 615.011L1214.25 665.986L1311.93 718.019L1362.25 610.295L1349.72 615.011Z" fill="black"/>
<path d="M1614.09 515.529L1478.62 566.505L1576.3 618.538L1626.62 510.813L1614.09 515.529Z" fill="black"/>
<path d="M1460.41 572.641L1381.75 602.24L1438.47 632.452L1467.69 569.903L1460.41 572.641Z" fill="black"/>
<path d="M1424.22 656.431L1345.56 686.029L1374.78 623.48L1431.5 653.692L1424.22 656.431Z" fill="black"/>
<path d="M1448.36 671.694L1328.18 716.914L1414.83 763.073L1459.47 667.511L1448.36 671.694Z" fill="black"/>
<path d="M1588.39 645.525L1476.23 585.775L1505.93 685.986L1598.77 651.052L1588.39 645.525Z" fill="black"/>
</svg>
