<svg width="508" height="206" viewBox="0 0 508 206" fill="none" xmlns="http://www.w3.org/2000/svg">
<g filter="url(#filter0_d)">
<path fill-rule="evenodd" clip-rule="evenodd" d="M383.19 21.388H424.772L402.058 0L379.344 21.388H383.19ZM429.934 22.7483L455.355 46.6847H500L464.253 150.672H123.43L108.744 164.5L94.0591 150.672H0L39.2178 46.6847H313.039L338.458 22.7491L363.878 46.6847H368.174L382.648 33.0552L397.123 46.6847H404.514L429.934 22.7483ZM416.513 27.9995H389.296H386.778L401.645 41.999L416.513 27.9995ZM366.586 41.8709L337.183 14.1849L334.463 11.6237H366.586V41.8709ZM82.727 150.697H35.8535L61.4584 174.807L87.0633 150.697H82.727ZM127.329 150.696H174.203H178.539L152.934 174.806L127.329 150.696ZM74.8799 169.555H102.097H104.615L89.7473 155.556L74.8799 169.555ZM108.202 176.167H66.621L89.335 197.555L112.049 176.167H108.202ZM124.807 155.684L154.209 183.37L156.929 185.931H124.807V155.684Z" fill="#F9CC14"/>
<path d="M197.367 88.0752H204.398V112.685H197.367V102.138H190.336V112.685H183.304V88.0752H190.336V98.6221H197.367V88.0752ZM207.914 112.685V88.0752H214.945V112.685H207.914ZM232.523 91.5908H225.492V98.6221H232.523V91.5908ZM236.039 102.138H239.554V112.685H232.523V102.138H225.492V112.685H218.461V88.0752H236.039V91.5908H239.554V98.6221H236.039V102.138ZM243.07 112.685V88.0752H260.648V91.5908H250.101V98.6221H260.648V102.138H250.101V109.169H260.648V112.685H243.07ZM281.742 102.138V112.685H278.226V88.0752H285.257V95.1064H295.804V88.0752H302.836V112.685H295.804V102.138H292.289V109.169H285.257V102.138H281.742ZM306.351 112.685V88.0752H323.929V91.5908H313.382V98.6221H323.929V102.138H313.382V109.169H323.929V112.685H306.351Z" fill="black"/>
</g>
<defs>
<filter id="filter0_d" x="0" y="0" width="508" height="205.555" filterUnits="userSpaceOnUse" color-interpolation-filters="sRGB">
<feFlood flood-opacity="0" result="BackgroundImageFix"/>
<feColorMatrix in="SourceAlpha" type="matrix" values="0 0 0 0 0 0 0 0 0 0 0 0 0 0 0 0 0 0 127 0"/>
<feOffset dx="8" dy="8"/>
<feColorMatrix type="matrix" values="0 0 0 0 0 0 0 0 0 0.478431 0 0 0 0 0.878431 0 0 0 1 0"/>
<feBlend mode="normal" in2="BackgroundImageFix" result="effect1_dropShadow"/>
<feBlend mode="normal" in="SourceGraphic" in2="effect1_dropShadow" result="shape"/>
</filter>
</defs>
</svg>
