<svg width="136" height="128" viewBox="0 0 136 128" fill="none" xmlns="http://www.w3.org/2000/svg">
<g filter="url(#filter0_d)">
<path fill-rule="evenodd" clip-rule="evenodd" d="M59.5979 4.2328V8.46561H55.3651H51.1323V12.6984V16.9312H46.8995H42.6667V21.164V25.3968H38.4339H34.2011V29.6296V33.8624H29.9683H25.7354V38.0226C25.7354 41.4024 25.6901 42.2283 25.4935 42.4247C25.2971 42.6213 24.4712 42.6667 21.0914 42.6667H16.9312V46.8995V51.1323H12.6984H8.46561V55.3651V59.5979H4.2328H0V68.0635V76.5291H4.2328H8.46561V72.2963V68.0635H12.6984H16.9312V93.6296V119.196H34.0317H51.1323V102.265V85.3333H64H76.8677V102.265V119.196H93.9683H111.069V112.607C111.069 107.501 111.021 105.995 110.857 105.919C110.688 105.84 110.688 105.8 110.857 105.721C111.025 105.643 111.069 101.701 111.069 86.8431V68.0635H115.302H119.534V72.2963V76.5291H123.767H128V68.0635V59.5979H123.767H119.534V55.3651V51.1323H115.302H111.069V46.8995V42.6667H106.909C103.529 42.6667 102.703 42.6213 102.506 42.4247C102.31 42.2283 102.265 41.4024 102.265 38.0226V33.8624H98.0317H93.7989V29.6296V25.3968H89.5661H85.3333V21.164V16.9312H81.1005H76.8677V12.6984V8.46561H72.6349H68.4021V4.2328V0H64H59.5979V4.2328ZM68.1602 17.1732C68.3562 17.3691 68.4021 18.1728 68.4021 21.406V25.3968H72.6349H76.8677V29.6296V33.8624H72.6349H68.4021V29.6296V25.3968H64H59.5979V29.6296V33.8624H55.3651H51.1323V38.2646V42.6667H49.1146C47.6661 42.6667 47.0691 42.6069 46.9982 42.455C46.9193 42.2857 46.8797 42.2857 46.8008 42.455C46.7298 42.6069 46.1328 42.6667 44.6844 42.6667H42.6667V46.8995V51.1323H38.4339H34.2011V55.3651V59.5979H29.9683H25.7354V60.4304C25.7354 60.9377 25.6528 61.2963 25.5238 61.3487C25.364 61.4134 25.3743 61.4823 25.5661 61.6296C25.758 61.7769 25.7683 61.8458 25.6085 61.9105C25.3577 62.0124 25.3184 63.3228 25.5661 63.3228C25.6709 63.3228 25.7354 64.2257 25.7354 65.6931V68.0635H21.3333H16.9312V64.6913C16.9312 62.1523 16.9835 61.298 17.1429 61.2333C17.3022 61.1688 17.2917 61.1024 17.1005 60.9653C16.8748 60.8034 16.8748 60.7628 17.1005 60.6009C17.2917 60.4638 17.3022 60.3974 17.1429 60.3329C17.0265 60.2856 16.9312 60.1009 16.9312 59.9225C16.9312 59.6109 17.1078 59.5979 21.3333 59.5979H25.7354V58.0881C25.7354 57.046 25.6699 56.5479 25.5238 56.4797C25.3545 56.4008 25.3545 56.3611 25.5238 56.2822C25.6792 56.2096 25.7354 55.5127 25.7354 53.6579V51.1323H29.9683H34.2011V46.8995V42.6667H38.4339H42.6667V38.5065C42.6667 35.1267 42.712 34.3008 42.9086 34.1044C43.1045 33.9083 43.9082 33.8624 47.1414 33.8624H51.1323V29.6296V25.3968H55.3651H59.5979V21.164V16.9312H63.7581C67.1379 16.9312 67.9638 16.9766 68.1602 17.1732ZM85.0914 34.1044C85.288 34.3008 85.3333 35.1267 85.3333 38.5065V42.6667H89.5661H93.7989V46.8995V51.1323H98.0317H102.265V55.3651V59.5979H98.0317H93.7989V55.3651V51.1323H89.5661H85.3333V46.8995V42.6667H81.1005H76.8677V38.5114C76.8677 35.4282 76.9224 34.294 77.0794 34.1157C77.3923 33.7603 84.737 33.7498 85.0914 34.1044ZM111.069 59.7672C111.069 59.8603 110.993 59.9365 110.899 59.9365C110.806 59.9365 110.73 60.0889 110.73 60.2751C110.73 60.4614 110.806 60.6138 110.899 60.6138C110.993 60.6138 111.069 60.7661 111.069 60.9524C111.069 61.1386 110.993 61.291 110.899 61.291C110.806 61.291 110.73 61.4434 110.73 61.6296C110.73 61.8159 110.806 61.9683 110.899 61.9683C111.006 61.9683 111.069 63.0971 111.069 65.0159V68.0635H106.667H102.265V65.0299C102.265 62.7618 102.318 61.9749 102.476 61.9105C102.636 61.846 102.625 61.7796 102.434 61.6425C102.208 61.4806 102.208 61.4415 102.434 61.291C102.66 61.1405 102.66 61.1029 102.434 60.9524C102.208 60.8019 102.208 60.7643 102.434 60.6138C102.648 60.471 102.651 60.4207 102.453 60.2931C102.252 60.1639 102.252 60.1026 102.453 59.8762C102.654 59.649 103.291 59.6099 106.878 59.6043C109.563 59.6003 111.069 59.6587 111.069 59.7672ZM42.6667 85.164V93.7989H34.2011H25.7354V85.164V76.5291H34.2011H42.6667V85.164ZM102.265 85.164V93.7989H93.7989H85.3333V85.164V76.5291H93.7989H102.265V85.164Z" fill="#F9CC14"/>
<rect x="5.41797" y="59.5979" width="114.455" height="16.9312" fill="#F9CC14"/>
<path d="M14.3916 62.4763L63.6614 10.6667C77.6015 25.2276 105.651 54.4847 106.328 55.0265C107.175 55.7038 105.482 62.4763 104.466 65.016C103.45 67.5556 102.942 66.7091 99.217 69.0794C95.4921 71.4498 78.053 69.4181 69.7567 70.2646C61.4604 71.1112 54.8572 70.7726 34.7091 66.7091C18.5905 63.4583 14.448 62.5327 14.3916 62.4763Z" fill="#F9CC14"/>
</g>
<defs>
<filter id="filter0_d" x="0" y="0" width="136" height="127.196" filterUnits="userSpaceOnUse" color-interpolation-filters="sRGB">
<feFlood flood-opacity="0" result="BackgroundImageFix"/>
<feColorMatrix in="SourceAlpha" type="matrix" values="0 0 0 0 0 0 0 0 0 0 0 0 0 0 0 0 0 0 127 0"/>
<feOffset dx="8" dy="8"/>
<feColorMatrix type="matrix" values="0 0 0 0 0 0 0 0 0 0.478431 0 0 0 0 0.878431 0 0 0 1 0"/>
<feBlend mode="normal" in2="BackgroundImageFix" result="effect1_dropShadow"/>
<feBlend mode="normal" in="SourceGraphic" in2="effect1_dropShadow" result="shape"/>
</filter>
</defs>
</svg>
