<svg width="255" height="84" viewBox="0 0 255 84" fill="none" xmlns="http://www.w3.org/2000/svg">
<path d="M103.847 32.6V55H98.6635V45.816H88.4875V55H83.3035V32.6H88.4875V41.432H98.6635V32.6H103.847ZM116.987 55.256C115.174 55.256 113.542 54.8827 112.091 54.136C110.662 53.368 109.542 52.312 108.731 50.968C107.921 49.624 107.515 48.0987 107.515 46.392C107.515 44.6853 107.921 43.16 108.731 41.816C109.542 40.472 110.662 39.4267 112.091 38.68C113.542 37.912 115.174 37.528 116.987 37.528C118.801 37.528 120.422 37.912 121.851 38.68C123.281 39.4267 124.401 40.472 125.211 41.816C126.022 43.16 126.427 44.6853 126.427 46.392C126.427 48.0987 126.022 49.624 125.211 50.968C124.401 52.312 123.281 53.368 121.851 54.136C120.422 54.8827 118.801 55.256 116.987 55.256ZM116.987 51.16C118.267 51.16 119.313 50.7333 120.123 49.88C120.955 49.0053 121.371 47.8427 121.371 46.392C121.371 44.9413 120.955 43.7893 120.123 42.936C119.313 42.0613 118.267 41.624 116.987 41.624C115.707 41.624 114.651 42.0613 113.819 42.936C112.987 43.7893 112.571 44.9413 112.571 46.392C112.571 47.8427 112.987 49.0053 113.819 49.88C114.651 50.7333 115.707 51.16 116.987 51.16ZM151.812 37.528C153.967 37.528 155.673 38.168 156.932 39.448C158.212 40.7067 158.852 42.6053 158.852 45.144V55H153.86V45.912C153.86 44.5467 153.572 43.5333 152.996 42.872C152.441 42.1893 151.641 41.848 150.596 41.848C149.423 41.848 148.495 42.232 147.812 43C147.129 43.7467 146.788 44.8667 146.788 46.36V55H141.796V45.912C141.796 43.2027 140.708 41.848 138.532 41.848C137.38 41.848 136.463 42.232 135.78 43C135.097 43.7467 134.756 44.8667 134.756 46.36V55H129.764V37.784H134.532V39.768C135.172 39.0427 135.951 38.488 136.868 38.104C137.807 37.72 138.831 37.528 139.94 37.528C141.156 37.528 142.255 37.7733 143.236 38.264C144.217 38.7333 145.007 39.4267 145.604 40.344C146.308 39.448 147.193 38.7547 148.26 38.264C149.348 37.7733 150.532 37.528 151.812 37.528ZM180.378 46.456C180.378 46.52 180.346 46.968 180.282 47.8H167.258C167.493 48.8667 168.047 49.7093 168.922 50.328C169.797 50.9467 170.885 51.256 172.186 51.256C173.082 51.256 173.871 51.128 174.554 50.872C175.258 50.5947 175.909 50.168 176.506 49.592L179.162 52.472C177.541 54.328 175.173 55.256 172.058 55.256C170.117 55.256 168.399 54.8827 166.906 54.136C165.413 53.368 164.261 52.312 163.45 50.968C162.639 49.624 162.234 48.0987 162.234 46.392C162.234 44.7067 162.629 43.192 163.418 41.848C164.229 40.4827 165.327 39.4267 166.714 38.68C168.122 37.912 169.69 37.528 171.418 37.528C173.103 37.528 174.629 37.8907 175.994 38.616C177.359 39.3413 178.426 40.3867 179.194 41.752C179.983 43.096 180.378 44.664 180.378 46.456ZM171.45 41.304C170.319 41.304 169.37 41.624 168.602 42.264C167.834 42.904 167.365 43.7787 167.194 44.888H175.674C175.503 43.8 175.034 42.936 174.266 42.296C173.498 41.6347 172.559 41.304 171.45 41.304Z" fill="#FFD142"/>
<path d="M246.441 48.9062H239.41V55.9375H232.379V62.9688H218.316V55.9375H225.348V48.9062H232.379V41.875H225.348V34.8438H218.316V27.8125H232.379V34.8438H239.41V41.875H246.441V48.9062Z" fill="#FFD142"/>
<path d="M8.39941 48.9062H15.4307V55.9375H22.4619V62.9688H36.5244V55.9375H29.4932V48.9062H22.4619V41.875H29.4932V34.8438H36.5244V27.8125H22.4619V34.8438H15.4307V41.875H8.39941V48.9062Z" fill="#FFD142"/>
</svg>
