<svg width="132" height="129" viewBox="0 0 132 129" fill="none" xmlns="http://www.w3.org/2000/svg">
<path d="M104.961 104.809L131.375 84.4207L112.902 59.8528L104.961 104.809Z" fill="#007AE0"/>
<path d="M66.583 10.1429L43.6219 0.757812L32.2182 24.3529L66.583 10.1429Z" fill="#007AE0"/>
<path d="M0.304688 96.358L2.40241 120.717L27.2525 116.621L0.304688 96.358Z" fill="#007AE0"/>
<path d="M112.791 47.07L101.314 104.943L45.5735 128.102L1.30975 93.3869L12.7866 35.5134L68.5272 12.3549L112.791 47.07Z" fill="#007AE0"/>
<path fill-rule="evenodd" clip-rule="evenodd" d="M33.4818 42.2409V44.4818H31.2409H29V69V93.5182H31.2409H33.4818V95.7591V98H46.7955H60.1091V89.1682V80.3364H55.8156C52.2703 80.3364 51.4892 80.3035 51.3338 80.148C51.1014 79.9157 51.0897 79.59 51.3102 79.5005C51.4347 79.4501 51.4266 79.3965 51.2773 79.2818C51.1279 79.1671 51.1199 79.1135 51.2443 79.0631C51.4395 78.9838 51.468 78.4909 51.2773 78.4909C51.1926 78.4909 51.1455 77.2355 51.1455 74.9884C51.1455 72.1284 51.18 71.4512 51.3338 71.2975C51.4892 71.1419 52.2703 71.1091 55.8156 71.1091H60.1091V62.2773V53.4455H62.35H64.5909V51.2045V48.9636H71.3136H78.0364V53.4455V57.9273H73.7429C69.9083 57.9273 69.4259 57.9507 69.2293 58.1474C69.0692 58.3074 69.0537 58.3823 69.1728 58.422C69.3861 58.493 69.3851 59.2008 69.1716 59.3004C69.0398 59.3618 69.0398 59.3927 69.1716 59.4541C69.3826 59.5527 69.4153 70.3182 69.2045 70.3182C69.0088 70.3182 69.045 70.7048 69.2611 70.9207C69.4165 71.0763 70.1975 71.1091 73.7429 71.1091H78.0364V75.5344C78.0364 79.4921 78.0132 79.983 77.8162 80.1798C77.6562 80.3399 77.5813 80.3553 77.5416 80.2363C77.4769 80.0421 76.9818 80.0139 76.9818 80.2045C76.9818 80.289 75.7516 80.3364 73.5545 80.3364C71.3575 80.3364 70.1273 80.289 70.1273 80.2045C70.1273 80.132 70.0086 80.0727 69.8636 80.0727C69.7186 80.0727 69.6 80.132 69.6 80.2045C69.6 80.277 69.4814 80.3364 69.3364 80.3364C69.1914 80.3364 69.0727 80.3957 69.0727 80.4682C69.0727 80.5407 69.132 80.6 69.2045 80.6C69.291 80.6 69.3364 83.5439 69.3364 89.1682C98.5 91.5 65.5865 95.5 65.5 95.5C60.1091 88 60.1091 97.9275 60.1091 98C60.1091 98.0862 71.4016 98 75.7955 98H82.5182V95.7591V93.5182H84.7591H87V69V44.4818H84.7591H82.5182V42.2409V40H58H33.4818V42.2409Z" fill="white"/>
<rect x="45" y="48" width="37" height="50" fill="white"/>
<path fill-rule="evenodd" clip-rule="evenodd" d="M65.9444 54H50.2677V56.6124H47.1324V58.7034H43.9976V61.8382H41.9072V78.0374H47.1328V61.8387H47.133V61.838H50.2677V59.2256H65.9444V54ZM69.0802 56.6124H65.9449V61.838H69.0802V56.6124ZM69.0805 58.7034H72.2158V61.8382H74.3061V78.0374H69.0805V61.8387V61.8382V58.7034ZM50.2682 85.8758H65.9449V83.2634H69.0802V78.0378H65.9449V80.6503H50.2682V85.8758ZM50.2677 83.2634H47.1324V81.1733H43.9976V78.0379H47.1324V78.0378H50.2677V83.2634ZM72.2158 81.1733H69.0805V78.0379H72.2158V81.1733Z" fill="#007AE0"/>
<rect x="76.918" y="46.0088" width="2.61278" height="7.83835" fill="#007AE0"/>
<rect x="74.3057" y="51.2344" width="2.61278" height="7.83835" transform="rotate(-90 74.3057 51.2344)" fill="#007AE0"/>
</svg>
