<svg width="1584" height="387" viewBox="0 0 1584 387" fill="none" xmlns="http://www.w3.org/2000/svg">
<rect width="1584" height="386.513" fill="#2F2F2F"/>
<path d="M1584 222L1223 0H1584V222Z" fill="#318EDE"/>
<path d="M1319.09 55.105L1269.1 27.7645L1282.1 68.8612L1323.72 57.6343L1319.09 55.105Z" fill="#318EDE"/>
<path d="M1416.65 108.461L1366.66 81.1207L1379.66 122.217L1421.27 110.99L1416.65 108.461Z" fill="#318EDE"/>
<path d="M1360.13 77.273L1331.1 61.3979L1338.65 85.2605L1362.81 78.7417L1360.13 77.273Z" fill="#318EDE"/>
<path d="M1328.56 86.8684L1299.53 70.9932L1323.7 64.4744L1331.24 88.337L1328.56 86.8684Z" fill="#318EDE"/>
<path d="M1331.15 97.6028L1286.8 73.3491L1298.33 109.806L1335.25 99.8465L1331.15 97.6028Z" fill="#318EDE"/>
<path d="M1375.94 132.253L1361.01 85.0614L1343.06 117.883L1377.32 136.619L1375.94 132.253Z" fill="#318EDE"/>
<path d="M749.479 170.899H772.761C773.007 170.899 773.236 171.028 773.363 171.239L803.809 221.847L812.715 235.609C812.844 235.809 813.066 235.93 813.304 235.93H937.995C938.684 235.93 938.961 235.041 938.393 234.65L836.245 164.231C835.94 164.021 835.851 163.611 836.04 163.293L848.149 142.981C848.361 142.626 848.833 142.53 849.167 142.774L1008.25 259.237C1008.8 259.638 1008.51 260.506 1007.83 260.506H798.831C798.582 260.506 798.352 260.374 798.226 260.16L775.643 221.847L748.86 171.933C748.609 171.465 748.948 170.899 749.479 170.899Z" fill="#318EDE"/>
<path d="M749.515 74.8284H772.758C773.006 74.8284 773.235 74.9589 773.362 75.1718L858.683 218.741C858.961 219.209 858.624 219.802 858.08 219.802H831.555C831.303 219.802 831.07 219.667 830.945 219.448L748.906 75.8788C748.638 75.4107 748.976 74.8284 749.515 74.8284Z" fill="#FFD103"/>
<path d="M611.558 219.388H597.232C596.662 219.388 596.33 218.745 596.658 218.28L698.39 74.2969C698.522 74.1107 698.736 73.9999 698.964 73.9999H718.84C719.398 73.9999 719.733 74.6199 719.427 75.0868L625.583 218.301C625.277 218.768 625.612 219.388 626.17 219.388H627.356H639.307C639.985 219.388 640.269 220.252 639.725 220.654L589.096 258.059C588.466 258.524 587.662 257.764 588.092 257.109L612.145 220.475C612.451 220.008 612.116 219.388 611.558 219.388Z" fill="#FFD103"/>
<path d="M713.283 94.8018L722.005 79.6334C722.277 79.1599 722.962 79.1651 723.227 79.6427L768.602 161.398H616.225C615.667 161.398 615.332 160.78 615.636 160.313L626.32 143.906C626.45 143.707 626.671 143.587 626.908 143.587H736.707L713.261 95.4592C713.159 95.2499 713.167 95.0036 713.283 94.8018Z" fill="#318EDE"/>
<path d="M819.735 141.425L828.457 156.593C828.729 157.067 829.414 157.062 829.679 156.584L875.053 74.8285H783.565C783.008 74.8285 782.673 75.4466 782.977 75.9136L793.661 92.3205C793.79 92.5195 794.012 92.6395 794.249 92.6395H843.159L819.712 140.767C819.61 140.977 819.619 141.223 819.735 141.425Z" fill="#318EDE"/>
<path d="M722.164 306.071H707.516L703.427 312.811H695.654L716.008 281.359H723.198L730.926 312.811H723.647L722.164 306.071ZM720.951 300.545L718.3 288.413L710.886 300.545H720.951ZM744.613 291.513C745.662 290.375 746.92 289.551 748.388 289.042C749.885 288.533 751.638 288.278 753.645 288.278L752.387 294.748C751.548 294.688 751.009 294.658 750.769 294.658C748.642 294.658 746.935 295.183 745.647 296.231C744.389 297.279 743.535 298.912 743.086 301.129L740.749 312.811H733.74L738.548 288.638H745.197L744.613 291.513ZM761.809 313.17C759.713 313.17 757.721 312.946 755.833 312.497C753.976 312.017 752.523 311.403 751.475 310.654L754.171 305.577C755.219 306.266 756.492 306.82 757.99 307.239C759.518 307.659 761.046 307.868 762.573 307.868C764.161 307.868 765.344 307.674 766.123 307.284C766.902 306.865 767.291 306.281 767.291 305.532C767.291 304.933 766.947 304.499 766.258 304.229C765.569 303.959 764.46 303.675 762.933 303.375C761.195 303.046 759.757 302.686 758.619 302.297C757.511 301.907 756.537 301.278 755.699 300.41C754.89 299.511 754.485 298.298 754.485 296.77C754.485 294.104 755.594 292.022 757.81 290.525C760.057 289.027 762.993 288.278 766.617 288.278C768.295 288.278 769.927 288.458 771.515 288.817C773.102 289.177 774.45 289.671 775.559 290.3L773.042 295.422C771.065 294.194 768.684 293.58 765.898 293.58C764.371 293.58 763.202 293.805 762.393 294.254C761.615 294.703 761.225 295.273 761.225 295.961C761.225 296.591 761.57 297.055 762.259 297.354C762.948 297.624 764.101 297.924 765.718 298.253C767.426 298.583 768.819 298.942 769.897 299.331C771.005 299.691 771.964 300.305 772.773 301.174C773.582 302.042 773.986 303.226 773.986 304.723C773.986 307.419 772.848 309.501 770.571 310.969C768.325 312.437 765.404 313.17 761.809 313.17ZM795.744 288.278C798.44 288.278 800.582 288.997 802.17 290.435C803.757 291.873 804.551 293.91 804.551 296.546C804.551 297.504 804.446 298.463 804.237 299.421L801.541 312.811H794.531L797.137 299.871C797.257 299.361 797.317 298.807 797.317 298.208C797.317 296.95 796.973 295.991 796.284 295.332C795.595 294.673 794.561 294.344 793.183 294.344C791.386 294.344 789.888 294.868 788.69 295.917C787.522 296.935 786.728 298.478 786.309 300.545L783.882 312.811H776.873L783.523 279.471H790.532L788.286 290.839C790.353 289.132 792.839 288.278 795.744 288.278ZM837.543 288.638L832.735 312.811H826.086L826.535 310.43C824.528 312.257 822.057 313.17 819.121 313.17C817.234 313.17 815.497 312.736 813.909 311.867C812.321 310.999 811.048 309.756 810.09 308.138C809.161 306.491 808.697 304.558 808.697 302.342C808.697 299.676 809.281 297.279 810.449 295.153C811.647 292.996 813.265 291.318 815.302 290.12C817.339 288.892 819.585 288.278 822.042 288.278C825.756 288.278 828.377 289.491 829.905 291.918L830.534 288.638H837.543ZM821.278 307.374C822.656 307.374 823.884 307.045 824.962 306.386C826.041 305.697 826.879 304.753 827.478 303.555C828.078 302.357 828.377 300.979 828.377 299.421C828.377 297.774 827.883 296.471 826.894 295.512C825.936 294.554 824.588 294.074 822.85 294.074C821.472 294.074 820.244 294.419 819.166 295.108C818.088 295.767 817.249 296.695 816.65 297.894C816.051 299.092 815.751 300.47 815.751 302.027C815.751 303.675 816.23 304.978 817.189 305.936C818.177 306.895 819.54 307.374 821.278 307.374ZM874.362 288.278C876.998 288.278 879.095 288.997 880.652 290.435C882.21 291.843 882.989 293.85 882.989 296.456C882.989 297.414 882.884 298.403 882.674 299.421L880.023 312.811H873.014L875.575 299.916C875.695 299.316 875.755 298.702 875.755 298.073C875.755 296.845 875.425 295.917 874.766 295.287C874.137 294.658 873.194 294.344 871.936 294.344C868.551 294.344 866.439 296.366 865.6 300.41L863.129 312.811H856.12L858.681 299.916C858.8 299.316 858.86 298.717 858.86 298.118C858.86 296.89 858.531 295.961 857.872 295.332C857.243 294.673 856.299 294.344 855.041 294.344C851.656 294.344 849.529 296.396 848.661 300.5L846.234 312.811H839.225L844.033 288.638H850.683L850.144 291.154C852.24 289.237 854.772 288.278 857.737 288.278C859.415 288.278 860.897 288.623 862.185 289.312C863.503 289.971 864.492 290.944 865.151 292.232C866.319 290.944 867.682 289.971 869.24 289.312C870.797 288.623 872.505 288.278 874.362 288.278Z" fill="white"/>
<path d="M366.008 386.205H0V188L366.008 386.205Z" fill="#FFD103"/>
<path d="M140.876 259.552L90.8864 232.211L103.885 273.308L145.5 262.081L140.876 259.552Z" fill="#2F2F2F"/>
<path d="M238.432 312.908L188.443 285.567L201.441 326.664L243.057 315.437L238.432 312.908Z" fill="#2F2F2F"/>
<path d="M181.909 281.72L152.883 265.844L160.431 289.707L184.594 283.188L181.909 281.72Z" fill="#2F2F2F"/>
<path d="M150.341 291.315L121.315 275.44L145.479 268.921L153.026 292.784L150.341 291.315Z" fill="#2F2F2F"/>
<path d="M152.928 302.05L108.583 277.796L120.113 314.253L157.03 304.293L152.928 302.05Z" fill="#2F2F2F"/>
<path d="M197.718 336.7L182.792 289.508L164.841 322.329L199.099 341.066L197.718 336.7Z" fill="#2F2F2F"/>
</svg>
