<svg width="142" height="154" viewBox="0 0 142 154" fill="none" xmlns="http://www.w3.org/2000/svg">
<path d="M98.9368 29.9984L124.833 62.7934L127.174 29.5084L96.5412 26.9645L98.9368 29.9984Z" fill="#007AE0"/>
<path d="M17.4078 60.6357L28.6138 28.4952L6.3347 39.4007L16.3711 63.609L17.4078 60.6357Z" fill="#007AE0"/>
<path d="M79.174 129.244L48.9191 135.329L68.5054 149.963L81.9729 128.681L79.174 129.244Z" fill="#007AE0"/>
<path d="M86.921 18.5459L122.508 65.606L102.731 122.634L47.3685 132.603L11.7819 85.5425L31.5581 28.5142L86.921 18.5459Z" fill="#007AE0"/>
<path fill-rule="evenodd" clip-rule="evenodd" d="M38.3057 45.898V46.7959H37.4077H36.5098V75.531V104.266H37.4077H38.3057V105.164V106.062H67.0408H95.7759V105.164V104.266H96.6739H97.5719V75.531V46.7959H96.6739H95.7759V45.898V45H67.0408H38.3057V45.898ZM54.4692 55.7757V57.5716H55.3672H56.2651V58.4696V59.3676H55.3672H54.4692V61.1635V62.9594H52.6733H50.8773V63.8574V64.7554H49.9793H49.0814V63.8574V62.9594H47.2854H45.4895V59.3676V55.7757H46.3875H47.2854V54.8777V53.9797H50.8773H54.4692V55.7757ZM79.6124 67.4493V68.3473H82.3063H85.0003V69.2452V70.1432H85.8982H86.7962V71.9392V73.7351H87.6942H88.5921V85.4087V97.0824H84.1023H79.6124V87.2047V77.327H78.7145H77.8165V76.429V75.531H74.2246H70.6327V77.327V79.1229H69.7347H68.8368V88.1027V97.0824H64.3469H59.857V82.7148V68.3473H64.3469H68.8368V70.1432V71.9392H69.7347H70.6327V71.0412V70.1432H71.5307H72.4286V69.2452V68.3473H74.2246H76.0205V67.4493V66.5513H77.8165H79.6124V67.4493ZM54.4692 82.7148V97.0824H49.9793H45.4895V82.7148V68.3473H49.9793H54.4692V82.7148Z" fill="white"/>
</svg>
