<svg width="218" height="248" viewBox="0 0 218 248" fill="none" xmlns="http://www.w3.org/2000/svg">
<g filter="url(#filter0_d)">
<path fill-rule="evenodd" clip-rule="evenodd" d="M39.09 37.2725L39.0899 39.3642L36.998 39.365L34.9054 39.3647L34.906 106.313L34.9056 173.262L36.9981 173.262L39.0899 173.262L39.0898 175.354L39.0903 177.447L106.039 177.446L172.987 177.446L172.988 175.354L172.988 173.262L175.079 173.262L177.172 173.263L177.172 106.313L177.172 39.3646L175.08 39.3643L172.988 39.3642L172.988 37.2725L172.987 35.1806L106.039 35.1804L39.0902 35.1799L39.09 37.2725ZM76.7491 60.2859L76.7488 64.4701L78.8413 64.4704L80.933 64.4705L80.933 66.5622L80.9327 68.6548L78.841 68.6547L76.7484 68.6544L76.7489 72.8389L76.7485 77.0232L72.5643 77.0228L68.3798 77.0233L68.3805 79.1153L68.3802 81.2078L66.2877 81.2075L64.196 81.2075L64.1961 79.1157L64.1963 77.0232L60.0119 77.0236L55.8276 77.0233L55.8274 68.6545L55.8273 60.2858L57.9199 60.2861L60.0116 60.2861L60.0119 58.1936L60.0119 56.1018L68.3799 56.1015L76.7487 56.1014L76.7491 60.2859ZM135.329 87.4842L135.329 89.5759L141.605 89.5765L147.882 89.5762L147.882 91.6679L147.882 93.7607L149.974 93.7607L152.066 93.76L152.066 97.9444L152.066 102.129L154.158 102.129L156.25 102.129L156.251 129.327L156.25 156.525L145.789 156.525L135.329 156.525L135.329 133.511L135.329 110.498L133.237 110.498L131.144 110.497L131.144 108.406L131.145 106.313L122.776 106.313L114.407 106.313L114.408 110.498L114.407 114.682L112.315 114.682L110.223 114.682L110.223 135.604L110.223 156.525L99.7625 156.525L89.3019 156.525L89.3013 123.05L89.3014 89.5764L99.7627 89.5766L110.223 89.5765L110.223 93.76L110.224 97.9445L112.315 97.9445L114.408 97.9448L114.407 95.8529L114.407 93.7603L116.5 93.7606L118.592 93.7607L118.592 91.6682L118.592 89.5764L122.776 89.5759L126.961 89.5763L126.96 87.4835L126.96 85.3918L131.144 85.3921L135.329 85.3916L135.329 87.4842ZM76.749 123.05L76.7489 156.524L66.2884 156.524L55.8269 156.525L55.8273 123.05L55.8273 89.5763L66.2878 89.5763L76.7483 89.5762L76.749 123.05Z" fill="#F8CC14"/>
</g>
<g filter="url(#filter1_d)">
<path d="M18.1402 198.049H24.6488L20.0968 220.729H34.1122L33.0341 226H12.55L18.1402 198.049ZM40.5216 204.518H46.7107L42.4382 226H36.2491L40.5216 204.518ZM44.6743 201.523C43.6095 201.523 42.731 201.217 42.0389 200.605C41.3734 199.966 41.0407 199.194 41.0407 198.289C41.0407 197.224 41.4133 196.345 42.1587 195.653C42.9307 194.934 43.9289 194.575 45.1535 194.575C46.2449 194.575 47.1233 194.881 47.7888 195.493C48.481 196.079 48.827 196.811 48.827 197.69C48.827 198.834 48.441 199.766 47.669 200.485C46.8971 201.177 45.8988 201.523 44.6743 201.523ZM64.9909 204.198C67.3867 204.198 69.29 204.837 70.7009 206.115C72.1117 207.366 72.8171 209.163 72.8171 211.505C72.8171 212.384 72.724 213.249 72.5376 214.101L70.1418 226H63.9128L66.2287 214.5C66.3352 214.048 66.3884 213.555 66.3884 213.023C66.3884 211.905 66.0823 211.053 65.47 210.467C64.8578 209.882 63.9394 209.589 62.7149 209.589C61.1177 209.589 59.7867 210.055 58.7219 210.986C57.6837 211.891 56.9782 213.262 56.6056 215.099L54.4493 226H48.2203L52.4928 204.518H58.4024L57.9233 206.834C59.8399 205.077 62.1958 204.198 64.9909 204.198ZM91.84 213.861L99.2271 226H91.9998L86.8887 217.655L83.0954 220.809L82.0572 226H75.8281L81.7378 196.372H87.9668L84.6526 212.943L94.9546 204.518H103.06L91.84 213.861ZM123.948 213.662C123.948 214.647 123.828 215.738 123.588 216.936H107.137C107.35 219.864 109.2 221.328 112.687 221.328C113.779 221.328 114.817 221.155 115.802 220.809C116.813 220.463 117.692 219.971 118.437 219.332L121.033 223.444C119.835 224.403 118.464 225.122 116.92 225.601C115.376 226.08 113.752 226.319 112.048 226.319C109.839 226.319 107.896 225.933 106.219 225.161C104.568 224.363 103.29 223.232 102.385 221.767C101.507 220.303 101.068 218.613 101.068 216.696C101.068 214.327 101.6 212.198 102.665 210.308C103.756 208.391 105.26 206.9 107.177 205.835C109.094 204.744 111.276 204.198 113.725 204.198C115.802 204.198 117.599 204.584 119.116 205.356C120.66 206.128 121.845 207.233 122.67 208.67C123.522 210.108 123.948 211.772 123.948 213.662ZM113.446 208.87C111.982 208.87 110.744 209.269 109.732 210.068C108.721 210.84 108.002 211.918 107.576 213.302H118.238C118.238 211.918 117.798 210.84 116.92 210.068C116.068 209.269 114.91 208.87 113.446 208.87ZM153.453 196.372L147.543 226H141.634L142.073 223.844C140.263 225.494 138.067 226.319 135.484 226.319C133.807 226.319 132.263 225.933 130.853 225.161C129.442 224.389 128.31 223.285 127.459 221.847C126.633 220.383 126.221 218.666 126.221 216.696C126.221 214.327 126.74 212.198 127.778 210.308C128.843 208.391 130.28 206.9 132.09 205.835C133.901 204.744 135.897 204.198 138.08 204.198C139.65 204.198 141.021 204.464 142.193 204.997C143.391 205.529 144.336 206.315 145.028 207.353L147.224 196.372H153.453ZM137.401 221.168C138.626 221.168 139.717 220.876 140.675 220.29C141.634 219.678 142.379 218.839 142.911 217.774C143.444 216.71 143.71 215.485 143.71 214.101C143.71 212.637 143.271 211.479 142.392 210.627C141.541 209.775 140.343 209.349 138.799 209.349C137.574 209.349 136.483 209.655 135.524 210.268C134.566 210.853 133.821 211.678 133.288 212.743C132.756 213.808 132.49 215.033 132.49 216.417C132.49 217.881 132.916 219.039 133.767 219.891C134.646 220.743 135.857 221.168 137.401 221.168ZM170.646 198.049H177.155L171.565 226H165.056L170.646 198.049ZM194.529 204.198C196.925 204.198 198.829 204.837 200.239 206.115C201.65 207.366 202.356 209.163 202.356 211.505C202.356 212.384 202.263 213.249 202.076 214.101L199.68 226H193.451L195.767 214.5C195.874 214.048 195.927 213.555 195.927 213.023C195.927 211.905 195.621 211.053 195.009 210.467C194.396 209.882 193.478 209.589 192.253 209.589C190.656 209.589 189.325 210.055 188.26 210.986C187.222 211.891 186.517 213.262 186.144 215.099L183.988 226H177.759L182.031 204.518H187.941L187.462 206.834C189.378 205.077 191.734 204.198 194.529 204.198Z" fill="#F8CC14"/>
</g>
<defs>
<filter id="filter0_d" x="0.666016" y="0.94043" width="216.747" height="216.746" filterUnits="userSpaceOnUse" color-interpolation-filters="sRGB">
<feFlood flood-opacity="0" result="BackgroundImageFix"/>
<feColorMatrix in="SourceAlpha" type="matrix" values="0 0 0 0 0 0 0 0 0 0 0 0 0 0 0 0 0 0 127 0"/>
<feOffset dx="6" dy="6"/>
<feColorMatrix type="matrix" values="0 0 0 0 0 0 0 0 0 0.478431 0 0 0 0 0.878431 0 0 0 1 0"/>
<feBlend mode="normal" in2="BackgroundImageFix" result="effect1_dropShadow"/>
<feBlend mode="normal" in="SourceGraphic" in2="effect1_dropShadow" result="shape"/>
</filter>
<filter id="filter1_d" x="12.5508" y="194.575" width="195.806" height="37.7444" filterUnits="userSpaceOnUse" color-interpolation-filters="sRGB">
<feFlood flood-opacity="0" result="BackgroundImageFix"/>
<feColorMatrix in="SourceAlpha" type="matrix" values="0 0 0 0 0 0 0 0 0 0 0 0 0 0 0 0 0 0 127 0"/>
<feOffset dx="6" dy="6"/>
<feColorMatrix type="matrix" values="0 0 0 0 0 0 0 0 0 0.478431 0 0 0 0 0.878431 0 0 0 1 0"/>
<feBlend mode="normal" in2="BackgroundImageFix" result="effect1_dropShadow"/>
<feBlend mode="normal" in="SourceGraphic" in2="effect1_dropShadow" result="shape"/>
</filter>
</defs>
</svg>
