<svg width="379" height="167" viewBox="0 0 379 167" fill="none" xmlns="http://www.w3.org/2000/svg">
<path d="M146.135 86.5847H166.939C167.159 86.5847 167.363 86.7001 167.477 86.8887L194.683 132.109L202.64 144.407C202.755 144.586 202.954 144.693 203.167 144.693H314.585C315.2 144.693 315.448 143.899 314.941 143.55L223.665 80.626C223.393 80.4385 223.313 80.0721 223.483 79.7883L234.302 61.6388C234.492 61.3211 234.913 61.2354 235.212 61.4538L377.361 165.52C377.85 165.878 377.597 166.653 376.991 166.653H190.234C190.012 166.653 189.806 166.536 189.694 166.344L169.515 132.109L145.582 87.5087C145.358 87.0908 145.661 86.5847 146.135 86.5847Z" fill="#318EDE"/>
<path d="M146.168 0.740234H166.937C167.158 0.740234 167.363 0.856828 167.476 1.04707L243.715 129.334C243.964 129.752 243.662 130.282 243.176 130.282H219.475C219.249 130.282 219.042 130.161 218.93 129.966L145.623 1.67881C145.384 1.2606 145.686 0.740234 146.168 0.740234Z" fill="#FFD103"/>
<path d="M22.8954 129.912H10.0942C9.58546 129.912 9.2883 129.338 9.58189 128.922L100.485 0.26535C100.603 0.0989532 100.794 1.52588e-05 100.997 1.52588e-05H118.758C119.256 1.52588e-05 119.556 0.553986 119.282 0.971191L35.4276 128.941C35.1542 129.358 35.4535 129.912 35.9523 129.912H37.0119H47.6911C48.2963 129.912 48.5506 130.684 48.0639 131.044L2.82473 164.467C2.2615 164.883 1.54321 164.203 1.92755 163.618L23.4198 130.883C23.6937 130.466 23.3945 129.912 22.8954 129.912Z" fill="#FFD103"/>
<path d="M113.792 18.5877L121.586 5.03391C121.829 4.61073 122.441 4.61537 122.678 5.04219L163.223 78.0951H27.0654C26.5675 78.0951 26.268 77.5428 26.5397 77.1255L36.0861 62.465C36.2018 62.2872 36.3996 62.18 36.6118 62.18H134.723L113.772 19.1751C113.681 18.9881 113.689 18.768 113.792 18.5877Z" fill="#318EDE"/>
<path d="M208.913 60.2477L216.706 73.8014C216.95 74.2246 217.562 74.22 217.799 73.7932L258.343 0.740242H176.594C176.096 0.740242 175.796 1.29259 176.068 1.7099L185.614 16.3703C185.73 16.5481 185.928 16.6554 186.14 16.6554H229.844L208.893 59.6602C208.802 59.8473 208.809 60.0673 208.913 60.2477Z" fill="#318EDE"/>
</svg>
