<svg width="379" height="248" viewBox="0 0 379 248" fill="none" xmlns="http://www.w3.org/2000/svg">
<path d="M146.135 86.5847H166.939C167.159 86.5847 167.363 86.7001 167.477 86.8887L194.683 132.109L202.64 144.407C202.755 144.586 202.954 144.693 203.167 144.693H314.585C315.2 144.693 315.448 143.899 314.941 143.55L223.665 80.626C223.393 80.4385 223.313 80.0721 223.483 79.7883L234.302 61.6388C234.492 61.3211 234.913 61.2354 235.212 61.4538L377.361 165.52C377.85 165.878 377.597 166.653 376.991 166.653H190.234C190.012 166.653 189.806 166.536 189.694 166.344L169.515 132.109L145.582 87.5087C145.358 87.0908 145.661 86.5847 146.135 86.5847Z" fill="#318EDE"/>
<path d="M146.168 0.740234H166.937C167.158 0.740234 167.363 0.856828 167.476 1.04707L243.715 129.334C243.964 129.752 243.662 130.282 243.176 130.282H219.475C219.249 130.282 219.042 130.161 218.93 129.966L145.623 1.67881C145.384 1.2606 145.686 0.740234 146.168 0.740234Z" fill="#FFD103"/>
<path d="M22.8954 129.912H10.0943C9.58549 129.912 9.28833 129.338 9.58192 128.922L100.485 0.26535C100.603 0.0989532 100.794 1.52588e-05 100.997 1.52588e-05H118.758C119.256 1.52588e-05 119.556 0.553986 119.282 0.971191L35.4276 128.941C35.1542 129.358 35.4535 129.912 35.9523 129.912H37.012H47.6912C48.2963 129.912 48.5507 130.684 48.0639 131.044L2.82476 164.467C2.26153 164.883 1.54324 164.203 1.92758 163.618L23.4198 130.883C23.6937 130.466 23.3945 129.912 22.8954 129.912Z" fill="#FFD103"/>
<path d="M113.792 18.5877L121.586 5.03391C121.829 4.61073 122.441 4.61537 122.678 5.04219L163.223 78.0951H27.0655C26.5675 78.0951 26.268 77.5428 26.5398 77.1255L36.0861 62.465C36.2019 62.2872 36.3996 62.18 36.6118 62.18H134.723L113.772 19.1751C113.681 18.9881 113.689 18.768 113.792 18.5877Z" fill="#318EDE"/>
<path d="M208.913 60.2477L216.706 73.8014C216.95 74.2246 217.562 74.22 217.799 73.7932L258.343 0.740242H176.594C176.096 0.740242 175.796 1.29259 176.068 1.7099L185.614 16.3703C185.73 16.5481 185.928 16.6554 186.14 16.6554H229.844L208.893 59.6602C208.802 59.8473 208.809 60.0673 208.913 60.2477Z" fill="#318EDE"/>
<path d="M103.643 237H96.4316L103.211 198H110.396L103.643 237ZM125.453 209.02C127.874 209.053 129.956 209.68 131.699 210.898C133.46 212.1 134.746 213.768 135.559 215.9C136.388 218.016 136.684 220.369 136.447 222.959C136.058 227.326 134.535 230.864 131.877 233.572C129.236 236.264 125.969 237.576 122.076 237.508C119.689 237.474 117.624 236.865 115.881 235.68C114.137 234.478 112.851 232.819 112.021 230.703C111.192 228.587 110.896 226.251 111.133 223.695C111.573 219.159 113.113 215.553 115.754 212.879C118.395 210.204 121.628 208.918 125.453 209.02ZM118.217 226.311C118.251 227.936 118.632 229.222 119.359 230.17C120.087 231.101 121.111 231.583 122.432 231.617C124.632 231.685 126.359 230.678 127.611 228.596C128.864 226.497 129.448 223.746 129.363 220.344C129.296 218.719 128.898 217.424 128.17 216.459C127.459 215.477 126.435 214.969 125.098 214.936C122.965 214.868 121.255 215.875 119.969 217.957C118.699 220.022 118.115 222.807 118.217 226.311ZM154.424 237C154.204 236.306 154.111 235.477 154.145 234.512C152.079 236.577 149.743 237.576 147.137 237.508C144.733 237.474 142.736 236.695 141.145 235.172C139.57 233.632 138.834 231.736 138.936 229.484C139.054 226.488 140.307 224.195 142.693 222.604C145.097 220.995 148.313 220.191 152.342 220.191L155.693 220.242L156.049 218.592C156.15 218.033 156.176 217.5 156.125 216.992C156.04 216.197 155.736 215.579 155.211 215.139C154.703 214.682 154.026 214.445 153.18 214.428C152.062 214.394 151.115 214.673 150.336 215.266C149.557 215.841 149.058 216.679 148.838 217.779L141.652 217.805C141.771 215.181 142.973 213.057 145.258 211.432C147.56 209.79 150.395 208.986 153.764 209.02C156.878 209.087 159.316 210.018 161.076 211.812C162.837 213.59 163.573 215.883 163.285 218.693L161.178 231.846L161.051 233.471C161.017 234.673 161.161 235.688 161.482 236.518L161.457 237H154.424ZM148.914 231.947C150.979 232.015 152.782 231.118 154.322 229.256L155.211 224.508L152.723 224.482C150.082 224.55 148.178 225.354 147.01 226.895C146.587 227.453 146.324 228.139 146.223 228.951C146.087 229.865 146.273 230.593 146.781 231.135C147.306 231.66 148.017 231.93 148.914 231.947ZM179.484 208.994C182.04 209.062 184.105 210.086 185.68 212.066L188.371 198H195.557L188.803 237H182.404L182.811 234.055C180.762 236.441 178.376 237.601 175.65 237.533C173.941 237.516 172.443 237.068 171.156 236.188C169.87 235.307 168.871 234.046 168.16 232.404C167.466 230.745 167.085 228.9 167.018 226.869C166.967 225.803 166.992 224.77 167.094 223.771L167.246 222.629C167.652 219.819 168.431 217.348 169.582 215.215C170.75 213.082 172.172 211.499 173.848 210.467C175.54 209.434 177.419 208.943 179.484 208.994ZM174.279 223.771C174.144 225.058 174.102 226.141 174.152 227.021C174.322 230.001 175.523 231.516 177.758 231.566C179.772 231.651 181.524 230.703 183.014 228.723L184.969 217.805C184.309 215.993 182.988 215.046 181.008 214.961C179.264 214.91 177.809 215.587 176.641 216.992C175.49 218.38 174.702 220.64 174.279 223.771ZM202.107 237H194.896L199.67 209.527H206.881L202.107 237ZM200.508 202.545C200.474 201.411 200.846 200.471 201.625 199.727C202.404 198.982 203.343 198.609 204.443 198.609C205.527 198.576 206.466 198.906 207.262 199.6C208.057 200.294 208.472 201.191 208.506 202.291C208.54 203.34 208.184 204.255 207.439 205.033C206.712 205.812 205.755 206.218 204.57 206.252C203.504 206.286 202.564 205.964 201.752 205.287C200.956 204.61 200.542 203.696 200.508 202.545ZM219.525 209.502L218.916 212.752C221.117 210.196 223.783 208.952 226.914 209.02C229.504 209.07 231.417 210.018 232.652 211.863C233.888 213.708 234.337 216.264 233.998 219.531L231.104 237H223.943L226.889 219.455C226.973 218.795 226.99 218.194 226.939 217.652C226.719 215.926 225.636 215.037 223.689 214.986C221.811 214.919 220.126 215.79 218.637 217.602L215.209 237H208.049L212.822 209.527L219.525 209.502ZM238.111 223.238C238.619 218.99 239.999 215.545 242.25 212.904C244.518 210.247 247.37 208.943 250.807 208.994C253.735 209.062 255.919 210.12 257.357 212.168L258.297 209.502L264.873 209.527L260.379 236.061C259.888 239.717 258.331 242.611 255.707 244.744C253.083 246.877 249.833 247.91 245.957 247.842C244.061 247.808 242.25 247.393 240.523 246.598C238.797 245.819 237.375 244.744 236.258 243.373L239.812 239.006C241.404 241.02 243.401 242.061 245.805 242.129C247.667 242.197 249.258 241.706 250.578 240.656C251.898 239.624 252.796 238.16 253.27 236.264L253.676 234.613C251.678 236.611 249.436 237.576 246.947 237.508C244.273 237.474 242.148 236.484 240.574 234.537C239 232.574 238.137 230.026 237.984 226.895C237.934 225.862 237.976 224.643 238.111 223.238ZM245.145 226.234C245.145 227.826 245.475 229.104 246.135 230.068C246.812 231.016 247.785 231.516 249.055 231.566C251.001 231.634 252.728 230.805 254.234 229.078L256.367 217.449C255.639 215.858 254.294 215.029 252.33 214.961C250.502 214.91 248.953 215.646 247.684 217.17C246.414 218.693 245.618 220.716 245.297 223.238C245.178 224.474 245.128 225.473 245.145 226.234Z" fill="white"/>
</svg>
