<svg width="453" height="452" viewBox="0 0 453 452" fill="none" xmlns="http://www.w3.org/2000/svg">
<path d="M395.662 262.53H370.363V287H395.662H430.5V269.166H452.066V236.402V185.803V138.108H430.5V118.201V85.4364H411.837V48.9393H385.708V23.2254H370.363H342.99V0H23.6402V23.2254H0V164.237H23.6402V185.803H342.99H370.363V209.029H395.662V223.545V245.526V262.53Z" fill="#007AE0"/>
<path d="M58.3966 51.0547H64.2794V71.6445H58.3966V62.8203H52.5138V71.6445H46.631V51.0547H52.5138V59.8789H58.3966V51.0547ZM78.9864 53.9961H73.1036V68.7031H78.9864V53.9961ZM70.1622 68.7031H67.2208V53.9961H70.1622V51.0547H81.9278V53.9961H84.8692V68.7031H81.9278V71.6445H70.1622V68.7031ZM99.5763 65.7617V51.0547H105.459V65.7617H102.518V68.7031H99.5763V71.6445H93.6935V68.7031H90.7521V65.7617H87.8107V51.0547H93.6935V65.7617H99.5763ZM108.4 71.6445V51.0547H123.108V53.9961H114.283V59.8789H123.108V62.8203H114.283V68.7031H123.108V71.6445H108.4ZM137.815 53.9961H131.932V59.8789H137.815V53.9961ZM140.756 62.8203H143.697V71.6445H137.815V62.8203H131.932V71.6445H126.049V51.0547H140.756V53.9961H143.697V59.8789H140.756V62.8203ZM170.17 53.9961H164.287V68.7031H170.17V53.9961ZM161.346 68.7031H158.404V53.9961H161.346V51.0547H173.111V53.9961H176.053V68.7031H173.111V71.6445H161.346V68.7031ZM190.76 65.7617V51.0547H196.643V65.7617H193.701V68.7031H190.76V71.6445H184.877V68.7031H181.936V65.7617H178.994V51.0547H184.877V65.7617H190.76ZM199.584 71.6445V51.0547H214.291V53.9961H205.467V59.8789H214.291V62.8203H205.467V68.7031H214.291V71.6445H199.584ZM228.998 53.9961H223.115V59.8789H228.998V53.9961ZM231.94 62.8203H234.881V71.6445H228.998V62.8203H223.115V71.6445H217.233V51.0547H231.94V53.9961H234.881V59.8789H231.94V62.8203ZM252.529 62.8203V71.6445H249.588V51.0547H255.471V56.9375H264.295V51.0547H270.178V71.6445H264.295V62.8203H261.354V68.7031H255.471V62.8203H252.529ZM273.119 71.6445V51.0547H287.826V53.9961H279.002V59.8789H287.826V62.8203H279.002V68.7031H287.826V71.6445H273.119ZM320.182 51.0547V53.9961H314.299V71.6445H308.416V53.9961H302.533V51.0547H320.182ZM334.889 53.9961H329.006V68.7031H334.889V53.9961ZM326.065 68.7031H323.123V53.9961H326.065V51.0547H337.83V53.9961H340.772V68.7031H337.83V71.6445H326.065V68.7031ZM73.1036 88.9961H67.2208V94.8789H76.045V97.8203H78.9864V103.703H76.045V106.645H64.2794V103.703H61.338V100.762H67.2208V103.703H73.1036V97.8203H64.2794V94.8789H61.338V88.9961H64.2794V86.0547H76.045V88.9961H78.9864V91.9375H73.1036V88.9961ZM81.9278 106.645V86.0547H96.6349V88.9961H87.8107V94.8789H96.6349V97.8203H87.8107V103.703H96.6349V106.645H81.9278ZM99.5763 106.645V86.0547H114.283V88.9961H105.459V94.8789H114.283V97.8203H105.459V103.703H114.283V106.645H99.5763ZM131.932 97.8203V106.645H128.99V86.0547H134.873V91.9375H143.697V86.0547H149.58V106.645H143.697V97.8203H140.756V103.703H134.873V97.8203H131.932ZM164.287 94.8789V86.0547H170.17V94.8789H167.229V97.8203H164.287V106.645H158.404V97.8203H155.463V94.8789H152.522V86.0547H158.404V94.8789H164.287ZM196.643 100.762H202.525V103.703H199.584V106.645H187.818V103.703H184.877V88.9961H187.818V86.0547H199.584V88.9961H202.525V91.9375H196.643V88.9961H190.76V103.703H196.643V100.762ZM217.233 88.9961H211.35V103.703H217.233V88.9961ZM208.408 103.703H205.467V88.9961H208.408V86.0547H220.174V88.9961H223.115V103.703H220.174V106.645H208.408V103.703ZM228.998 97.8203V106.645H226.057V86.0547H231.94V91.9375H234.881V97.8203H237.822V86.0547H243.705V106.645H237.822V103.703H231.94V97.8203H228.998ZM264.295 86.0547V88.9961H258.412V106.645H252.529V88.9961H246.647V86.0547H264.295ZM279.002 97.8203V88.9961H273.119V97.8203H279.002ZM273.119 100.762V106.645H267.236V88.9961H270.178V86.0547H281.943V88.9961H284.885V106.645H279.002V100.762H273.119ZM299.592 100.762H305.475V103.703H302.533V106.645H290.768V103.703H287.826V88.9961H290.768V86.0547H302.533V88.9961H305.475V91.9375H299.592V88.9961H293.709V103.703H299.592V100.762ZM326.065 86.0547V88.9961H320.182V106.645H314.299V88.9961H308.416V86.0547H326.065ZM143.697 123.996H137.815V138.703H143.697V123.996ZM131.932 141.645V121.055H146.639V123.996H149.58V138.703H146.639V141.645H131.932ZM152.522 141.645V121.055H167.229V123.996H158.404V129.879H167.229V132.82H158.404V138.703H167.229V141.645H152.522ZM187.818 121.055V123.996H181.936V141.645H176.053V123.996H170.17V121.055H187.818ZM202.525 132.82V123.996H196.643V132.82H202.525ZM196.643 135.762V141.645H190.76V123.996H193.701V121.055H205.467V123.996H208.408V141.645H202.525V135.762H196.643ZM211.35 141.645V121.055H217.233V141.645H211.35ZM234.881 137.968V141.645H220.174V121.055H226.057V137.968H234.881ZM249.588 123.996H243.705V129.879H252.529V132.82H255.471V138.703H252.529V141.645H240.764V138.703H237.822V135.762H243.705V138.703H249.588V132.82H240.764V129.879H237.822V123.996H240.764V121.055H252.529V123.996H255.471V126.937H249.588V123.996Z" fill="white"/>
<path fill-rule="evenodd" clip-rule="evenodd" d="M259.527 267.824C259.053 268.313 258.869 270.867 258.869 276.909V285.314H251.194C245.245 285.314 243.35 285.467 242.767 285.998C242.183 286.529 242.014 288.252 242.014 293.664V300.645H232.76C225.441 300.645 223.347 300.788 222.753 301.33C222.119 301.906 222 306.075 222 327.681V353.348H232.007H242.014V367.995C242.014 380.05 242.148 382.763 242.767 383.326C243.35 383.857 245.245 384.011 251.194 384.011H258.869V400.78V417.549H269.403H279.936V434.318V451.087H288.364H296.791V434.318V417.549H305.218H313.645V400.78V384.011H323.652H333.659V368.679V353.348H342.086H350.513V327.681C350.513 306.075 350.394 301.906 349.761 301.33C349.178 300.799 347.283 300.645 341.334 300.645H333.659V293.664C333.659 288.252 333.49 286.529 332.907 285.998C332.312 285.457 330.218 285.314 322.899 285.314H313.645V276.895C313.645 270.237 313.917 268.295 313.274 267.71C312.155 266.691 260.514 266.804 259.527 267.824ZM296.038 301.33C296.622 301.86 296.791 303.584 296.791 308.996V315.977H304.465C310.415 315.977 312.309 316.131 312.892 316.661C313.99 317.66 313.99 333.458 312.892 334.457C312.309 334.988 310.415 335.141 304.465 335.141H296.791V344.245V353.348H288.364H279.936V344.245V335.141H270.155C262.38 335.141 260.219 335.001 259.621 334.457C258.524 333.458 258.524 317.66 259.621 316.661C260.219 316.117 262.38 315.977 270.155 315.977H279.936V308.311V300.645H287.611C293.56 300.645 295.455 300.799 296.038 301.33Z" fill="#007AE0"/>
</svg>
