<svg width="434" height="421" viewBox="0 0 434 421" fill="none" xmlns="http://www.w3.org/2000/svg">
<path d="M24 65V88H415V23.5H387V0H327.715H0V65H24Z" fill="#007AE0"/>

<path fill-rule="evenodd" clip-rule="evenodd" d="M175.429 137.882C174.843 138.405 174.615 141.139 174.615 147.604V156.598H165.12C157.759 156.598 155.415 156.763 154.693 157.331C153.971 157.898 153.762 159.743 153.762 165.534V173.005H142.312C133.257 173.005 130.667 173.159 129.931 173.738C129.147 174.354 129 183.779 129 206.901V234.368H153.762V250.043C153.762 262.944 153.927 265.847 154.693 266.45C155.415 267.018 157.759 267.182 165.12 267.182H174.615V303.073H200.68V338.963H221.533V303.073H242.385V267.182H267.148V234.368H288V206.901C288 183.779 287.853 174.354 287.069 173.738C286.347 173.17 284.003 173.005 276.643 173.005H267.148V165.534C267.148 159.743 266.938 157.898 266.216 157.331C265.481 156.751 262.89 156.598 253.835 156.598H242.385V147.589C242.385 140.464 242.721 138.386 241.926 137.76C240.541 136.669 176.65 136.79 175.429 137.882ZM220.602 173.738C221.324 174.306 221.533 176.15 221.533 181.942V194.376H231.028C238.389 194.376 240.733 194.54 241.454 195.109C242.812 196.177 242.812 213.084 241.454 214.152C240.733 214.72 238.389 214.885 231.028 214.885H221.533V234.368H200.68V214.885H188.579C178.959 214.885 176.286 214.734 175.546 214.152C174.188 213.084 174.188 196.177 175.546 195.109C176.286 194.526 178.959 194.376 188.579 194.376H200.68V173.005H210.175C217.536 173.005 219.88 173.17 220.602 173.738Z" fill="#EE3E34"/>
<path d="M50 67V24.6172H62.1094V67H50ZM116.602 48.8359V30.6719H104.492V48.8359H116.602ZM104.492 54.8906V67H92.3828V30.6719H98.4375V24.6172H122.656V30.6719H128.711V67H116.602V54.8906H104.492ZM140.82 48.8359V67H134.766V24.6172H146.875V36.7266H165.039V24.6172H177.148V67H165.039V48.8359H158.984V60.9453H146.875V48.8359H140.82ZM231.641 24.6172H243.75V67H231.641V48.8359H219.531V67H207.422V24.6172H219.531V42.7812H231.641V24.6172ZM249.805 67V24.6172H280.078V30.6719H261.914V42.7812H280.078V48.8359H261.914V60.9453H280.078V67H249.805ZM310.352 30.6719H298.242V42.7812H310.352V30.6719ZM316.406 48.8359H322.461V67H310.352V48.8359H298.242V67H286.133V24.6172H316.406V30.6719H322.461V42.7812H316.406V48.8359ZM328.516 67V24.6172H358.789V30.6719H340.625V42.7812H358.789V48.8359H340.625V60.9453H358.789V67H328.516Z" fill="white"/>

<path d="M165 318.5H197H222.5H252V343H291V393H259V421H165V393H125V343H165V318.5Z" fill="black" fill-opacity="0.58"/>
</svg>
