<svg width="1866" height="1065" viewBox="0 0 1866 1065" fill="none" xmlns="http://www.w3.org/2000/svg">
<path d="M0.5 690.5L1865.5 141.28V859.976L0.5 1065V690.5Z" fill="#F9CC14"/>
<path d="M0 4L1590.5 222L0 689V4Z" fill="#007AE0"/>
<path d="M476.391 153.483L583.776 278.641L593.485 151.613L466.457 141.905L476.391 153.483Z" fill="#0A0C10"/>
<path d="M138.302 270.406L184.771 147.746L92.3833 189.365L134.003 281.753L138.302 270.406Z" fill="#0A0C10"/>
<path d="M575.047 317.548L549.28 400.123L608.462 369.091L577.43 309.909L575.047 317.548Z" fill="#0A0C10"/>
<path d="M394.437 532.241L268.975 555.466L350.196 611.313L406.044 530.092L394.437 532.241Z" fill="#0A0C10"/>
<path d="M426.506 109.896L574.094 289.634L492.23 507.318L262.778 545.264L115.19 365.526L197.054 147.842L426.506 109.896Z" fill="#0A0C10"/>
<path d="M225.245 246.513H215.658V243.037H238.787V246.513H229.2V271H225.245V246.513ZM253.883 249.628C256.573 249.628 258.704 250.414 260.275 251.985C261.873 253.53 262.672 255.807 262.672 258.816V271H258.837V259.256C258.837 257.205 258.344 255.66 257.359 254.622C256.374 253.583 254.962 253.064 253.125 253.064C251.047 253.064 249.409 253.676 248.211 254.901C247.013 256.1 246.413 257.831 246.413 260.095V271H242.579V241.359H246.413V252.824C247.212 251.812 248.251 251.027 249.529 250.467C250.834 249.908 252.286 249.628 253.883 249.628ZM269.769 249.828H273.604V271H269.769V249.828ZM271.686 245.754C270.941 245.754 270.315 245.514 269.809 245.035C269.329 244.555 269.09 243.969 269.09 243.277C269.09 242.585 269.329 241.999 269.809 241.519C270.315 241.013 270.941 240.76 271.686 240.76C272.432 240.76 273.045 241 273.524 241.479C274.03 241.932 274.283 242.505 274.283 243.197C274.283 243.916 274.03 244.529 273.524 245.035C273.045 245.514 272.432 245.754 271.686 245.754ZM286.998 271.24C285.267 271.24 283.602 271.013 282.004 270.561C280.407 270.081 279.155 269.482 278.249 268.763L279.847 265.727C280.779 266.393 281.911 266.925 283.243 267.325C284.574 267.724 285.919 267.924 287.277 267.924C290.633 267.924 292.311 266.965 292.311 265.048C292.311 264.409 292.084 263.903 291.632 263.53C291.179 263.157 290.606 262.891 289.914 262.731C289.248 262.545 288.289 262.345 287.038 262.132C285.333 261.865 283.935 261.559 282.843 261.213C281.778 260.867 280.859 260.281 280.087 259.455C279.315 258.63 278.929 257.471 278.929 255.98C278.929 254.063 279.728 252.531 281.325 251.386C282.923 250.214 285.067 249.628 287.757 249.628C289.168 249.628 290.58 249.802 291.991 250.148C293.403 250.494 294.561 250.96 295.467 251.546L293.829 254.582C292.098 253.463 290.06 252.904 287.717 252.904C286.092 252.904 284.854 253.17 284.002 253.703C283.15 254.236 282.724 254.941 282.724 255.82C282.724 256.513 282.963 257.059 283.443 257.458C283.922 257.858 284.508 258.15 285.2 258.337C285.919 258.523 286.918 258.736 288.196 258.976C289.901 259.269 291.272 259.589 292.311 259.935C293.376 260.254 294.281 260.814 295.027 261.613C295.773 262.411 296.146 263.53 296.146 264.968C296.146 266.885 295.32 268.417 293.669 269.562C292.044 270.68 289.821 271.24 286.998 271.24ZM311.666 249.828H315.501V271H311.666V249.828ZM313.584 245.754C312.838 245.754 312.212 245.514 311.706 245.035C311.227 244.555 310.987 243.969 310.987 243.277C310.987 242.585 311.227 241.999 311.706 241.519C312.212 241.013 312.838 240.76 313.584 240.76C314.329 240.76 314.942 241 315.421 241.479C315.927 241.932 316.18 242.505 316.18 243.197C316.18 243.916 315.927 244.529 315.421 245.035C314.942 245.514 314.329 245.754 313.584 245.754ZM328.895 271.24C327.164 271.24 325.5 271.013 323.902 270.561C322.304 270.081 321.052 269.482 320.147 268.763L321.745 265.727C322.677 266.393 323.809 266.925 325.14 267.325C326.472 267.724 327.817 267.924 329.175 267.924C332.53 267.924 334.208 266.965 334.208 265.048C334.208 264.409 333.982 263.903 333.529 263.53C333.076 263.157 332.504 262.891 331.811 262.731C331.146 262.545 330.187 262.345 328.935 262.132C327.231 261.865 325.833 261.559 324.741 261.213C323.675 260.867 322.757 260.281 321.984 259.455C321.212 258.63 320.826 257.471 320.826 255.98C320.826 254.063 321.625 252.531 323.223 251.386C324.821 250.214 326.964 249.628 329.654 249.628C331.066 249.628 332.477 249.802 333.889 250.148C335.3 250.494 336.458 250.96 337.364 251.546L335.726 254.582C333.995 253.463 331.958 252.904 329.614 252.904C327.99 252.904 326.751 253.17 325.899 253.703C325.047 254.236 324.621 254.941 324.621 255.82C324.621 256.513 324.861 257.059 325.34 257.458C325.819 257.858 326.405 258.15 327.098 258.337C327.817 258.523 328.815 258.736 330.094 258.976C331.798 259.269 333.169 259.589 334.208 259.935C335.273 260.254 336.179 260.814 336.924 261.613C337.67 262.411 338.043 263.53 338.043 264.968C338.043 266.885 337.217 268.417 335.566 269.562C333.942 270.68 331.718 271.24 328.895 271.24ZM365.468 269.762C364.908 270.241 364.216 270.614 363.39 270.88C362.565 271.12 361.713 271.24 360.834 271.24C358.703 271.24 357.052 270.667 355.88 269.522C354.709 268.377 354.123 266.739 354.123 264.609V252.984H350.528V249.828H354.123V245.194H357.958V249.828H364.03V252.984H357.958V264.449C357.958 265.594 358.237 266.473 358.797 267.085C359.382 267.698 360.208 268.004 361.273 268.004C362.445 268.004 363.444 267.671 364.269 267.005L365.468 269.762ZM381.409 249.628C384.099 249.628 386.229 250.414 387.8 251.985C389.398 253.53 390.197 255.807 390.197 258.816V271H386.362V259.256C386.362 257.205 385.87 255.66 384.884 254.622C383.899 253.583 382.488 253.064 380.65 253.064C378.573 253.064 376.935 253.676 375.737 254.901C374.538 256.1 373.939 257.831 373.939 260.095V271H370.104V241.359H373.939V252.824C374.738 251.812 375.776 251.027 377.055 250.467C378.36 249.908 379.811 249.628 381.409 249.628ZM416.546 260.534C416.546 260.827 416.519 261.213 416.466 261.692H399.289C399.529 263.557 400.341 265.061 401.726 266.206C403.137 267.325 404.881 267.884 406.959 267.884C409.489 267.884 411.526 267.032 413.071 265.328L415.188 267.804C414.229 268.923 413.031 269.775 411.593 270.361C410.181 270.947 408.597 271.24 406.839 271.24C404.602 271.24 402.618 270.787 400.887 269.881C399.156 268.949 397.811 267.658 396.852 266.007C395.92 264.356 395.454 262.491 395.454 260.414C395.454 258.363 395.907 256.513 396.812 254.861C397.744 253.21 399.009 251.932 400.607 251.027C402.232 250.095 404.056 249.628 406.08 249.628C408.104 249.628 409.901 250.095 411.473 251.027C413.071 251.932 414.309 253.21 415.188 254.861C416.093 256.513 416.546 258.403 416.546 260.534ZM406.08 252.864C404.242 252.864 402.698 253.423 401.446 254.542C400.221 255.66 399.502 257.125 399.289 258.936H412.871C412.658 257.152 411.925 255.7 410.674 254.582C409.449 253.437 407.917 252.864 406.08 252.864ZM440.349 244.276C438.058 244.276 436.913 245.514 436.913 247.991V249.828H443.065V252.984H436.993V271H433.158V252.984H429.563V249.828H433.158V247.951C433.158 245.847 433.771 244.182 434.996 242.957C436.221 241.732 437.938 241.12 440.149 241.12C441.001 241.12 441.8 241.226 442.546 241.439C443.291 241.652 443.931 241.959 444.463 242.358L443.305 245.274C442.426 244.608 441.44 244.276 440.349 244.276ZM449.896 249.828H453.731V271H449.896V249.828ZM451.813 245.754C451.068 245.754 450.442 245.514 449.936 245.035C449.456 244.555 449.217 243.969 449.217 243.277C449.217 242.585 449.456 241.999 449.936 241.519C450.442 241.013 451.068 240.76 451.813 240.76C452.559 240.76 453.172 241 453.651 241.479C454.157 241.932 454.41 242.505 454.41 243.197C454.41 243.916 454.157 244.529 453.651 245.035C453.172 245.514 452.559 245.754 451.813 245.754ZM464.713 253.383C465.379 252.158 466.364 251.226 467.669 250.587C468.974 249.948 470.558 249.628 472.422 249.628V253.344C472.209 253.317 471.916 253.304 471.544 253.304C469.466 253.304 467.829 253.929 466.63 255.181C465.458 256.406 464.873 258.164 464.873 260.454V271H461.038V249.828H464.713V253.383ZM483.377 271.24C481.646 271.24 479.981 271.013 478.384 270.561C476.786 270.081 475.534 269.482 474.629 268.763L476.226 265.727C477.159 266.393 478.29 266.925 479.622 267.325C480.953 267.724 482.298 267.924 483.657 267.924C487.012 267.924 488.69 266.965 488.69 265.048C488.69 264.409 488.463 263.903 488.011 263.53C487.558 263.157 486.985 262.891 486.293 262.731C485.627 262.545 484.669 262.345 483.417 262.132C481.712 261.865 480.314 261.559 479.222 261.213C478.157 260.867 477.238 260.281 476.466 259.455C475.694 258.63 475.308 257.471 475.308 255.98C475.308 254.063 476.107 252.531 477.704 251.386C479.302 250.214 481.446 249.628 484.136 249.628C485.547 249.628 486.959 249.802 488.37 250.148C489.782 250.494 490.94 250.96 491.846 251.546L490.208 254.582C488.477 253.463 486.44 252.904 484.096 252.904C482.471 252.904 481.233 253.17 480.381 253.703C479.529 254.236 479.103 254.941 479.103 255.82C479.103 256.513 479.342 257.059 479.822 257.458C480.301 257.858 480.887 258.15 481.579 258.337C482.298 258.523 483.297 258.736 484.575 258.976C486.28 259.269 487.651 259.589 488.69 259.935C489.755 260.254 490.661 260.814 491.406 261.613C492.152 262.411 492.525 263.53 492.525 264.968C492.525 266.885 491.699 268.417 490.048 269.562C488.424 270.68 486.2 271.24 483.377 271.24ZM509.222 269.762C508.662 270.241 507.97 270.614 507.144 270.88C506.319 271.12 505.467 271.24 504.588 271.24C502.457 271.24 500.806 270.667 499.634 269.522C498.463 268.377 497.877 266.739 497.877 264.609V252.984H494.281V249.828H497.877V245.194H501.712V249.828H507.784V252.984H501.712V264.449C501.712 265.594 501.991 266.473 502.55 267.085C503.136 267.698 503.962 268.004 505.027 268.004C506.199 268.004 507.198 267.671 508.023 267.005L509.222 269.762ZM525.145 243.037H529.14V271H525.145V243.037ZM567.653 241.359V271H563.978V267.644C563.126 268.816 562.048 269.708 560.743 270.321C559.438 270.933 558 271.24 556.428 271.24C554.378 271.24 552.54 270.787 550.916 269.881C549.291 268.976 548.013 267.711 547.081 266.087C546.175 264.435 545.723 262.545 545.723 260.414C545.723 258.284 546.175 256.406 547.081 254.782C548.013 253.157 549.291 251.892 550.916 250.987C552.54 250.081 554.378 249.628 556.428 249.628C557.946 249.628 559.345 249.921 560.623 250.507C561.901 251.067 562.966 251.905 563.819 253.024V241.359H567.653ZM556.748 267.884C558.08 267.884 559.291 267.578 560.383 266.965C561.475 266.326 562.327 265.447 562.94 264.329C563.552 263.184 563.859 261.879 563.859 260.414C563.859 258.949 563.552 257.658 562.94 256.539C562.327 255.394 561.475 254.515 560.383 253.903C559.291 253.29 558.08 252.984 556.748 252.984C555.39 252.984 554.165 253.29 553.073 253.903C552.008 254.515 551.155 255.394 550.516 256.539C549.904 257.658 549.598 258.949 549.598 260.414C549.598 261.879 549.904 263.184 550.516 264.329C551.155 265.447 552.008 266.326 553.073 266.965C554.165 267.578 555.39 267.884 556.748 267.884ZM594.044 260.534C594.044 260.827 594.017 261.213 593.964 261.692H576.787C577.027 263.557 577.839 265.061 579.224 266.206C580.635 267.325 582.379 267.884 584.457 267.884C586.987 267.884 589.024 267.032 590.569 265.328L592.686 267.804C591.727 268.923 590.529 269.775 589.091 270.361C587.679 270.947 586.095 271.24 584.337 271.24C582.1 271.24 580.116 270.787 578.385 269.881C576.654 268.949 575.309 267.658 574.35 266.007C573.418 264.356 572.952 262.491 572.952 260.414C572.952 258.363 573.405 256.513 574.31 254.861C575.242 253.21 576.507 251.932 578.105 251.027C579.73 250.095 581.554 249.628 583.578 249.628C585.602 249.628 587.399 250.095 588.971 251.027C590.569 251.932 591.807 253.21 592.686 254.861C593.591 256.513 594.044 258.403 594.044 260.534ZM583.578 252.864C581.74 252.864 580.196 253.423 578.944 254.542C577.719 255.66 577 257.125 576.787 258.936H590.369C590.156 257.152 589.423 255.7 588.172 254.582C586.947 253.437 585.415 252.864 583.578 252.864ZM617.714 249.828L608.446 271H604.532L595.264 249.828H599.259L606.529 266.806L613.959 249.828H617.714ZM639.842 260.534C639.842 260.827 639.816 261.213 639.762 261.692H622.585C622.825 263.557 623.637 265.061 625.022 266.206C626.434 267.325 628.178 267.884 630.255 267.884C632.785 267.884 634.822 267.032 636.367 265.328L638.484 267.804C637.525 268.923 636.327 269.775 634.889 270.361C633.477 270.947 631.893 271.24 630.135 271.24C627.898 271.24 625.914 270.787 624.183 269.881C622.452 268.949 621.107 267.658 620.149 266.007C619.216 264.356 618.75 262.491 618.75 260.414C618.75 258.363 619.203 256.513 620.109 254.861C621.041 253.21 622.306 251.932 623.904 251.027C625.528 250.095 627.352 249.628 629.376 249.628C631.4 249.628 633.198 250.095 634.769 251.027C636.367 251.932 637.605 253.21 638.484 254.861C639.39 256.513 639.842 258.403 639.842 260.534ZM629.376 252.864C627.539 252.864 625.994 253.423 624.742 254.542C623.517 255.66 622.798 257.125 622.585 258.936H636.167C635.954 257.152 635.222 255.7 633.97 254.582C632.745 253.437 631.214 252.864 629.376 252.864ZM645.167 241.359H649.002V271H645.167V241.359ZM665.392 271.24C663.289 271.24 661.398 270.774 659.72 269.842C658.042 268.909 656.724 267.631 655.765 266.007C654.833 264.356 654.367 262.491 654.367 260.414C654.367 258.337 654.833 256.486 655.765 254.861C656.724 253.21 658.042 251.932 659.72 251.027C661.398 250.095 663.289 249.628 665.392 249.628C667.496 249.628 669.374 250.095 671.025 251.027C672.703 251.932 674.008 253.21 674.94 254.861C675.898 256.486 676.378 258.337 676.378 260.414C676.378 262.491 675.898 264.356 674.94 266.007C674.008 267.631 672.703 268.909 671.025 269.842C669.374 270.774 667.496 271.24 665.392 271.24ZM665.392 267.884C666.751 267.884 667.962 267.578 669.028 266.965C670.119 266.326 670.972 265.447 671.584 264.329C672.197 263.184 672.503 261.879 672.503 260.414C672.503 258.949 672.197 257.658 671.584 256.539C670.972 255.394 670.119 254.515 669.028 253.903C667.962 253.29 666.751 252.984 665.392 252.984C664.034 252.984 662.809 253.29 661.717 253.903C660.652 254.515 659.8 255.394 659.161 256.539C658.548 257.658 658.242 258.949 658.242 260.414C658.242 261.879 658.548 263.184 659.161 264.329C659.8 265.447 660.652 266.326 661.717 266.965C662.809 267.578 664.034 267.884 665.392 267.884ZM692.906 249.628C694.957 249.628 696.795 250.081 698.419 250.987C700.044 251.892 701.308 253.157 702.214 254.782C703.146 256.406 703.612 258.284 703.612 260.414C703.612 262.545 703.146 264.435 702.214 266.087C701.308 267.711 700.044 268.976 698.419 269.881C696.795 270.787 694.957 271.24 692.906 271.24C691.388 271.24 689.99 270.947 688.712 270.361C687.46 269.775 686.395 268.923 685.516 267.804V278.75H681.681V249.828H685.356V253.184C686.209 252.012 687.287 251.133 688.592 250.547C689.897 249.935 691.335 249.628 692.906 249.628ZM692.587 267.884C693.945 267.884 695.157 267.578 696.222 266.965C697.314 266.326 698.166 265.447 698.779 264.329C699.418 263.184 699.737 261.879 699.737 260.414C699.737 258.949 699.418 257.658 698.779 256.539C698.166 255.394 697.314 254.515 696.222 253.903C695.157 253.29 693.945 252.984 692.587 252.984C691.255 252.984 690.043 253.304 688.952 253.943C687.886 254.555 687.034 255.421 686.395 256.539C685.783 257.658 685.476 258.949 685.476 260.414C685.476 261.879 685.783 263.184 686.395 264.329C687.008 265.447 687.86 266.326 688.952 266.965C690.043 267.578 691.255 267.884 692.587 267.884ZM728.045 260.534C728.045 260.827 728.019 261.213 727.965 261.692H710.788C711.028 263.557 711.84 265.061 713.225 266.206C714.636 267.325 716.381 267.884 718.458 267.884C720.988 267.884 723.025 267.032 724.57 265.328L726.687 267.804C725.728 268.923 724.53 269.775 723.092 270.361C721.68 270.947 720.096 271.24 718.338 271.24C716.101 271.24 714.117 270.787 712.386 269.881C710.655 268.949 709.31 267.658 708.351 266.007C707.419 264.356 706.953 262.491 706.953 260.414C706.953 258.363 707.406 256.513 708.311 254.861C709.244 253.21 710.509 251.932 712.106 251.027C713.731 250.095 715.555 249.628 717.579 249.628C719.603 249.628 721.401 250.095 722.972 251.027C724.57 251.932 725.808 253.21 726.687 254.861C727.592 256.513 728.045 258.403 728.045 260.534ZM717.579 252.864C715.742 252.864 714.197 253.423 712.945 254.542C711.72 255.66 711.001 257.125 710.788 258.936H724.37C724.157 257.152 723.425 255.7 722.173 254.582C720.948 253.437 719.417 252.864 717.579 252.864ZM753.344 241.359V271H749.669V267.644C748.816 268.816 747.738 269.708 746.433 270.321C745.128 270.933 743.69 271.24 742.119 271.24C740.068 271.24 738.23 270.787 736.606 269.881C734.981 268.976 733.703 267.711 732.771 266.087C731.866 264.435 731.413 262.545 731.413 260.414C731.413 258.284 731.866 256.406 732.771 254.782C733.703 253.157 734.981 251.892 736.606 250.987C738.23 250.081 740.068 249.628 742.119 249.628C743.637 249.628 745.035 249.921 746.313 250.507C747.591 251.067 748.657 251.905 749.509 253.024V241.359H753.344ZM742.438 267.884C743.77 267.884 744.981 267.578 746.073 266.965C747.165 266.326 748.017 265.447 748.63 264.329C749.242 263.184 749.549 261.879 749.549 260.414C749.549 258.949 749.242 257.658 748.63 256.539C748.017 255.394 747.165 254.515 746.073 253.903C744.981 253.29 743.77 252.984 742.438 252.984C741.08 252.984 739.855 253.29 738.763 253.903C737.698 254.515 736.846 255.394 736.206 256.539C735.594 257.658 735.288 258.949 735.288 260.414C735.288 261.879 735.594 263.184 736.206 264.329C736.846 265.447 737.698 266.326 738.763 266.965C739.855 267.578 741.08 267.884 742.438 267.884ZM797.812 249.628C800.475 249.628 802.579 250.401 804.124 251.945C805.695 253.49 806.481 255.78 806.481 258.816V271H802.646V259.256C802.646 257.205 802.166 255.66 801.208 254.622C800.276 253.583 798.931 253.064 797.173 253.064C795.229 253.064 793.684 253.676 792.539 254.901C791.394 256.1 790.822 257.831 790.822 260.095V271H786.987V259.256C786.987 257.205 786.507 255.66 785.549 254.622C784.617 253.583 783.272 253.064 781.514 253.064C779.57 253.064 778.025 253.676 776.88 254.901C775.735 256.1 775.162 257.831 775.162 260.095V271H771.328V249.828H775.003V252.984C775.775 251.892 776.787 251.067 778.039 250.507C779.29 249.921 780.715 249.628 782.313 249.628C783.964 249.628 785.429 249.961 786.707 250.627C787.985 251.293 788.971 252.265 789.663 253.543C790.462 252.318 791.567 251.359 792.979 250.667C794.417 249.975 796.028 249.628 797.812 249.628ZM821.247 249.628C824.176 249.628 826.413 250.348 827.958 251.786C829.529 253.224 830.315 255.367 830.315 258.217V271H826.679V268.204C826.04 269.189 825.122 269.948 823.923 270.481C822.751 270.987 821.353 271.24 819.729 271.24C817.359 271.24 815.454 270.667 814.016 269.522C812.605 268.377 811.899 266.872 811.899 265.008C811.899 263.144 812.578 261.652 813.936 260.534C815.295 259.389 817.452 258.816 820.408 258.816H826.48V258.057C826.48 256.406 826 255.141 825.042 254.262C824.083 253.383 822.671 252.944 820.807 252.944C819.556 252.944 818.331 253.157 817.132 253.583C815.934 253.983 814.922 254.529 814.096 255.221L812.498 252.345C813.59 251.466 814.895 250.8 816.413 250.348C817.931 249.868 819.542 249.628 821.247 249.628ZM820.368 268.284C821.833 268.284 823.098 267.964 824.163 267.325C825.228 266.659 826 265.727 826.48 264.529V261.573H820.568C817.319 261.573 815.694 262.664 815.694 264.848C815.694 265.913 816.107 266.752 816.932 267.365C817.758 267.977 818.903 268.284 820.368 268.284ZM857.502 241.359V271H853.827V267.644C852.975 268.816 851.896 269.708 850.591 270.321C849.286 270.933 847.848 271.24 846.277 271.24C844.226 271.24 842.389 270.787 840.764 269.881C839.14 268.976 837.861 267.711 836.929 266.087C836.024 264.435 835.571 262.545 835.571 260.414C835.571 258.284 836.024 256.406 836.929 254.782C837.861 253.157 839.14 251.892 840.764 250.987C842.389 250.081 844.226 249.628 846.277 249.628C847.795 249.628 849.193 249.921 850.471 250.507C851.75 251.067 852.815 251.905 853.667 253.024V241.359H857.502ZM846.596 267.884C847.928 267.884 849.14 267.578 850.232 266.965C851.323 266.326 852.176 265.447 852.788 264.329C853.401 263.184 853.707 261.879 853.707 260.414C853.707 258.949 853.401 257.658 852.788 256.539C852.176 255.394 851.323 254.515 850.232 253.903C849.14 253.29 847.928 252.984 846.596 252.984C845.238 252.984 844.013 253.29 842.921 253.903C841.856 254.515 841.004 255.394 840.365 256.539C839.752 257.658 839.446 258.949 839.446 260.414C839.446 261.879 839.752 263.184 840.365 264.329C841.004 265.447 841.856 266.326 842.921 266.965C844.013 267.578 845.238 267.884 846.596 267.884ZM883.892 260.534C883.892 260.827 883.866 261.213 883.812 261.692H866.635C866.875 263.557 867.687 265.061 869.072 266.206C870.484 267.325 872.228 267.884 874.305 267.884C876.835 267.884 878.872 267.032 880.417 265.328L882.534 267.804C881.575 268.923 880.377 269.775 878.939 270.361C877.528 270.947 875.943 271.24 874.185 271.24C871.948 271.24 869.964 270.787 868.233 269.881C866.502 268.949 865.157 267.658 864.199 266.007C863.266 264.356 862.8 262.491 862.8 260.414C862.8 258.363 863.253 256.513 864.159 254.861C865.091 253.21 866.356 251.932 867.954 251.027C869.578 250.095 871.402 249.628 873.426 249.628C875.45 249.628 877.248 250.095 878.819 251.027C880.417 251.932 881.655 253.21 882.534 254.861C883.44 256.513 883.892 258.403 883.892 260.534ZM873.426 252.864C871.589 252.864 870.044 253.423 868.792 254.542C867.567 255.66 866.848 257.125 866.635 258.936H880.217C880.004 257.152 879.272 255.7 878.02 254.582C876.795 253.437 875.264 252.864 873.426 252.864ZM911.17 249.628C913.221 249.628 915.059 250.081 916.683 250.987C918.308 251.892 919.573 253.157 920.478 254.782C921.41 256.406 921.876 258.284 921.876 260.414C921.876 262.545 921.41 264.435 920.478 266.087C919.573 267.711 918.308 268.976 916.683 269.881C915.059 270.787 913.221 271.24 911.17 271.24C909.599 271.24 908.161 270.933 906.856 270.321C905.551 269.708 904.473 268.816 903.62 267.644V271H899.945V241.359H903.78V253.024C904.632 251.905 905.698 251.067 906.976 250.507C908.254 249.921 909.652 249.628 911.17 249.628ZM910.851 267.884C912.209 267.884 913.421 267.578 914.486 266.965C915.578 266.326 916.43 265.447 917.043 264.329C917.682 263.184 918.001 261.879 918.001 260.414C918.001 258.949 917.682 257.658 917.043 256.539C916.43 255.394 915.578 254.515 914.486 253.903C913.421 253.29 912.209 252.984 910.851 252.984C909.519 252.984 908.308 253.29 907.216 253.903C906.124 254.515 905.272 255.394 904.659 256.539C904.047 257.658 903.74 258.949 903.74 260.414C903.74 261.879 904.047 263.184 904.659 264.329C905.272 265.447 906.124 266.326 907.216 266.965C908.308 267.578 909.519 267.884 910.851 267.884ZM945.325 249.828L935.058 273.117C934.153 275.274 933.088 276.792 931.863 277.671C930.664 278.55 929.213 278.989 927.508 278.989C926.47 278.989 925.458 278.816 924.472 278.47C923.514 278.15 922.715 277.671 922.076 277.032L923.713 274.156C924.805 275.194 926.07 275.714 927.508 275.714C928.44 275.714 929.213 275.461 929.825 274.955C930.464 274.475 931.037 273.636 931.543 272.438L932.222 270.96L922.875 249.828H926.869L934.259 266.766L941.57 249.828H945.325ZM245.618 298.628C248.281 298.628 250.385 299.401 251.93 300.945C253.501 302.49 254.286 304.78 254.286 307.816V320H250.452V308.256C250.452 306.205 249.972 304.66 249.013 303.622C248.081 302.583 246.736 302.064 244.979 302.064C243.035 302.064 241.49 302.676 240.345 303.901C239.2 305.1 238.627 306.831 238.627 309.095V320H234.792V308.256C234.792 306.205 234.313 304.66 233.354 303.622C232.422 302.583 231.077 302.064 229.32 302.064C227.376 302.064 225.831 302.676 224.686 303.901C223.541 305.1 222.968 306.831 222.968 309.095V320H219.133V298.828H222.808V301.984C223.581 300.892 224.593 300.067 225.844 299.507C227.096 298.921 228.521 298.628 230.119 298.628C231.77 298.628 233.234 298.961 234.513 299.627C235.791 300.293 236.776 301.265 237.469 302.543C238.268 301.318 239.373 300.359 240.784 299.667C242.222 298.975 243.834 298.628 245.618 298.628ZM279.688 298.828L269.421 322.117C268.516 324.274 267.451 325.792 266.225 326.671C265.027 327.55 263.576 327.989 261.871 327.989C260.833 327.989 259.821 327.816 258.835 327.47C257.877 327.15 257.078 326.671 256.439 326.032L258.076 323.156C259.168 324.194 260.433 324.714 261.871 324.714C262.803 324.714 263.576 324.461 264.188 323.955C264.827 323.475 265.4 322.636 265.906 321.438L266.585 319.96L257.237 298.828H261.232L268.622 315.766L275.933 298.828H279.688ZM289.065 320.24C287.334 320.24 285.67 320.013 284.072 319.561C282.474 319.081 281.222 318.482 280.317 317.763L281.915 314.727C282.847 315.393 283.979 315.925 285.31 316.325C286.642 316.724 287.987 316.924 289.345 316.924C292.701 316.924 294.378 315.965 294.378 314.048C294.378 313.409 294.152 312.903 293.699 312.53C293.246 312.157 292.674 311.891 291.982 311.731C291.316 311.545 290.357 311.345 289.105 311.132C287.401 310.865 286.003 310.559 284.911 310.213C283.846 309.867 282.927 309.281 282.155 308.455C281.382 307.63 280.996 306.471 280.996 304.98C280.996 303.063 281.795 301.531 283.393 300.386C284.991 299.214 287.135 298.628 289.824 298.628C291.236 298.628 292.647 298.802 294.059 299.148C295.47 299.494 296.629 299.96 297.534 300.546L295.896 303.582C294.165 302.463 292.128 301.904 289.784 301.904C288.16 301.904 286.922 302.17 286.069 302.703C285.217 303.236 284.791 303.941 284.791 304.82C284.791 305.513 285.031 306.059 285.51 306.458C285.989 306.858 286.575 307.15 287.268 307.337C287.987 307.523 288.985 307.736 290.264 307.976C291.968 308.269 293.34 308.589 294.378 308.935C295.444 309.254 296.349 309.814 297.095 310.613C297.84 311.411 298.213 312.53 298.213 313.968C298.213 315.885 297.388 317.417 295.737 318.562C294.112 319.68 291.888 320.24 289.065 320.24ZM322.14 309.534C322.14 309.827 322.114 310.213 322.061 310.692H304.883C305.123 312.557 305.935 314.061 307.32 315.206C308.732 316.325 310.476 316.884 312.553 316.884C315.083 316.884 317.12 316.032 318.665 314.328L320.782 316.804C319.823 317.923 318.625 318.775 317.187 319.361C315.776 319.947 314.191 320.24 312.433 320.24C310.196 320.24 308.212 319.787 306.481 318.881C304.75 317.949 303.405 316.658 302.447 315.007C301.515 313.356 301.048 311.491 301.048 309.414C301.048 307.363 301.501 305.513 302.407 303.861C303.339 302.21 304.604 300.932 306.202 300.027C307.826 299.095 309.65 298.628 311.674 298.628C313.698 298.628 315.496 299.095 317.067 300.027C318.665 300.932 319.903 302.21 320.782 303.861C321.688 305.513 322.14 307.403 322.14 309.534ZM311.674 301.864C309.837 301.864 308.292 302.423 307.041 303.542C305.815 304.66 305.096 306.125 304.883 307.936H318.465C318.252 306.152 317.52 304.7 316.268 303.582C315.043 302.437 313.512 301.864 311.674 301.864ZM327.466 290.359H331.3V320H327.466V290.359ZM346.372 293.276C344.082 293.276 342.937 294.514 342.937 296.991V298.828H349.089V301.984H343.017V320H339.182V301.984H335.587V298.828H339.182V296.951C339.182 294.847 339.794 293.182 341.019 291.957C342.244 290.732 343.962 290.12 346.172 290.12C347.025 290.12 347.824 290.226 348.569 290.439C349.315 290.652 349.954 290.959 350.487 291.358L349.328 294.274C348.449 293.608 347.464 293.276 346.372 293.276ZM363.992 292.037H367.987V320H363.992V292.037ZM387.704 318.762C387.144 319.241 386.452 319.614 385.626 319.88C384.801 320.12 383.949 320.24 383.07 320.24C380.939 320.24 379.288 319.667 378.116 318.522C376.945 317.377 376.359 315.739 376.359 313.609V301.984H372.764V298.828H376.359V294.194H380.194V298.828H386.266V301.984H380.194V313.449C380.194 314.594 380.473 315.473 381.033 316.085C381.618 316.698 382.444 317.004 383.509 317.004C384.681 317.004 385.68 316.671 386.505 316.005L387.704 318.762ZM403.068 298.828H406.903V320H403.068V298.828ZM404.985 294.754C404.24 294.754 403.614 294.514 403.108 294.035C402.629 293.555 402.389 292.969 402.389 292.277C402.389 291.585 402.629 290.999 403.108 290.519C403.614 290.013 404.24 289.76 404.985 289.76C405.731 289.76 406.344 290 406.823 290.479C407.329 290.932 407.582 291.505 407.582 292.197C407.582 292.916 407.329 293.529 406.823 294.035C406.344 294.514 405.731 294.754 404.985 294.754ZM420.297 320.24C418.566 320.24 416.901 320.013 415.304 319.561C413.706 319.081 412.454 318.482 411.549 317.763L413.146 314.727C414.079 315.393 415.21 315.925 416.542 316.325C417.873 316.724 419.218 316.924 420.577 316.924C423.932 316.924 425.61 315.965 425.61 314.048C425.61 313.409 425.383 312.903 424.931 312.53C424.478 312.157 423.905 311.891 423.213 311.731C422.547 311.545 421.589 311.345 420.337 311.132C418.632 310.865 417.234 310.559 416.142 310.213C415.077 309.867 414.158 309.281 413.386 308.455C412.614 307.63 412.228 306.471 412.228 304.98C412.228 303.063 413.027 301.531 414.624 300.386C416.222 299.214 418.366 298.628 421.056 298.628C422.467 298.628 423.879 298.802 425.29 299.148C426.702 299.494 427.86 299.96 428.766 300.546L427.128 303.582C425.397 302.463 423.359 301.904 421.016 301.904C419.391 301.904 418.153 302.17 417.301 302.703C416.449 303.236 416.023 303.941 416.023 304.82C416.023 305.513 416.262 306.059 416.742 306.458C417.221 306.858 417.807 307.15 418.499 307.337C419.218 307.523 420.217 307.736 421.495 307.976C423.2 308.269 424.571 308.589 425.61 308.935C426.675 309.254 427.581 309.814 428.326 310.613C429.072 311.411 429.445 312.53 429.445 313.968C429.445 315.885 428.619 317.417 426.968 318.562C425.344 319.68 423.12 320.24 420.297 320.24ZM454.193 320.24C452.036 320.24 450.105 319.774 448.401 318.842C446.723 317.909 445.405 316.631 444.446 315.007C443.487 313.356 443.008 311.491 443.008 309.414C443.008 307.337 443.487 305.486 444.446 303.861C445.405 302.21 446.723 300.932 448.401 300.027C450.105 299.095 452.036 298.628 454.193 298.628C456.11 298.628 457.815 299.015 459.306 299.787C460.824 300.559 461.996 301.678 462.822 303.142L459.905 305.02C459.24 304.008 458.414 303.249 457.429 302.743C456.443 302.237 455.351 301.984 454.153 301.984C452.768 301.984 451.517 302.29 450.398 302.903C449.306 303.515 448.441 304.394 447.802 305.539C447.189 306.658 446.883 307.949 446.883 309.414C446.883 310.905 447.189 312.224 447.802 313.369C448.441 314.487 449.306 315.353 450.398 315.965C451.517 316.578 452.768 316.884 454.153 316.884C455.351 316.884 456.443 316.631 457.429 316.125C458.414 315.619 459.24 314.86 459.905 313.848L462.822 315.686C461.996 317.15 460.824 318.282 459.306 319.081C457.815 319.854 456.11 320.24 454.193 320.24ZM475.496 298.628C478.426 298.628 480.663 299.348 482.207 300.786C483.778 302.224 484.564 304.367 484.564 307.217V320H480.929V317.204C480.29 318.189 479.371 318.948 478.173 319.481C477.001 319.987 475.603 320.24 473.978 320.24C471.608 320.24 469.704 319.667 468.266 318.522C466.854 317.377 466.149 315.872 466.149 314.008C466.149 312.144 466.828 310.652 468.186 309.534C469.544 308.389 471.701 307.816 474.657 307.816H480.729V307.057C480.729 305.406 480.25 304.141 479.291 303.262C478.332 302.383 476.921 301.944 475.057 301.944C473.805 301.944 472.58 302.157 471.382 302.583C470.183 302.983 469.171 303.529 468.346 304.221L466.748 301.345C467.84 300.466 469.145 299.8 470.663 299.348C472.181 298.868 473.792 298.628 475.496 298.628ZM474.617 317.284C476.082 317.284 477.347 316.964 478.412 316.325C479.478 315.659 480.25 314.727 480.729 313.529V310.573H474.817C471.568 310.573 469.944 311.664 469.944 313.848C469.944 314.913 470.356 315.752 471.182 316.365C472.007 316.977 473.153 317.284 474.617 317.284ZM491.661 290.359H495.496V320H491.661V290.359ZM502.818 290.359H506.653V320H502.818V290.359ZM533.109 309.534C533.109 309.827 533.083 310.213 533.03 310.692H515.852C516.092 312.557 516.904 314.061 518.289 315.206C519.701 316.325 521.445 316.884 523.522 316.884C526.052 316.884 528.089 316.032 529.634 314.328L531.751 316.804C530.793 317.923 529.594 318.775 528.156 319.361C526.745 319.947 525.16 320.24 523.402 320.24C521.165 320.24 519.181 319.787 517.45 318.881C515.719 317.949 514.374 316.658 513.416 315.007C512.484 313.356 512.018 311.491 512.018 309.414C512.018 307.363 512.47 305.513 513.376 303.861C514.308 302.21 515.573 300.932 517.171 300.027C518.795 299.095 520.619 298.628 522.643 298.628C524.667 298.628 526.465 299.095 528.036 300.027C529.634 300.932 530.872 302.21 531.751 303.861C532.657 305.513 533.109 307.403 533.109 309.534ZM522.643 301.864C520.806 301.864 519.261 302.423 518.01 303.542C516.785 304.66 516.065 306.125 515.852 307.936H529.434C529.221 306.152 528.489 304.7 527.237 303.582C526.012 302.437 524.481 301.864 522.643 301.864ZM558.408 290.359V320H554.733V316.644C553.881 317.816 552.802 318.708 551.497 319.321C550.192 319.933 548.754 320.24 547.183 320.24C545.132 320.24 543.295 319.787 541.67 318.881C540.046 317.976 538.767 316.711 537.835 315.087C536.93 313.435 536.477 311.545 536.477 309.414C536.477 307.284 536.93 305.406 537.835 303.782C538.767 302.157 540.046 300.892 541.67 299.987C543.295 299.081 545.132 298.628 547.183 298.628C548.701 298.628 550.099 298.921 551.377 299.507C552.656 300.067 553.721 300.905 554.573 302.024V290.359H558.408ZM547.502 316.884C548.834 316.884 550.046 316.578 551.138 315.965C552.23 315.326 553.082 314.447 553.694 313.329C554.307 312.184 554.613 310.879 554.613 309.414C554.613 307.949 554.307 306.658 553.694 305.539C553.082 304.394 552.23 303.515 551.138 302.903C550.046 302.29 548.834 301.984 547.502 301.984C546.144 301.984 544.919 302.29 543.827 302.903C542.762 303.515 541.91 304.394 541.271 305.539C540.658 306.658 540.352 307.949 540.352 309.414C540.352 310.879 540.658 312.184 541.271 313.329C541.91 314.447 542.762 315.326 543.827 315.965C544.919 316.578 546.144 316.884 547.502 316.884ZM597.244 316.525V320H576.951V292.037H596.685V295.513H580.946V304.101H594.967V307.497H580.946V316.525H597.244ZM614.458 298.628C617.148 298.628 619.278 299.414 620.85 300.985C622.447 302.53 623.246 304.807 623.246 307.816V320H619.411V308.256C619.411 306.205 618.919 304.66 617.933 303.622C616.948 302.583 615.537 302.064 613.699 302.064C611.622 302.064 609.984 302.676 608.786 303.901C607.587 305.1 606.988 306.831 606.988 309.095V320H603.153V298.828H606.828V302.024C607.6 300.932 608.639 300.093 609.944 299.507C611.276 298.921 612.78 298.628 614.458 298.628ZM630.343 298.828H634.178V320H630.343V298.828ZM632.261 294.754C631.515 294.754 630.889 294.514 630.383 294.035C629.904 293.555 629.664 292.969 629.664 292.277C629.664 291.585 629.904 290.999 630.383 290.519C630.889 290.013 631.515 289.76 632.261 289.76C633.007 289.76 633.619 290 634.098 290.479C634.604 290.932 634.857 291.505 634.857 292.197C634.857 292.916 634.604 293.529 634.098 294.035C633.619 294.514 633.007 294.754 632.261 294.754ZM649.21 298.628C652.14 298.628 654.377 299.348 655.921 300.786C657.492 302.224 658.278 304.367 658.278 307.217V320H654.643V317.204C654.004 318.189 653.085 318.948 651.887 319.481C650.715 319.987 649.317 320.24 647.692 320.24C645.322 320.24 643.418 319.667 641.98 318.522C640.568 317.377 639.863 315.872 639.863 314.008C639.863 312.144 640.542 310.652 641.9 309.534C643.258 308.389 645.415 307.816 648.371 307.816H654.443V307.057C654.443 305.406 653.964 304.141 653.005 303.262C652.046 302.383 650.635 301.944 648.771 301.944C647.519 301.944 646.294 302.157 645.096 302.583C643.897 302.983 642.885 303.529 642.06 304.221L640.462 301.345C641.554 300.466 642.859 299.8 644.377 299.348C645.895 298.868 647.506 298.628 649.21 298.628ZM648.331 317.284C649.796 317.284 651.061 316.964 652.126 316.325C653.192 315.659 653.964 314.727 654.443 313.529V310.573H648.531C645.282 310.573 643.658 311.664 643.658 313.848C643.658 314.913 644.07 315.752 644.896 316.365C645.722 316.977 646.867 317.284 648.331 317.284ZM674.72 320.24C672.563 320.24 670.632 319.774 668.927 318.842C667.25 317.909 665.931 316.631 664.973 315.007C664.014 313.356 663.535 311.491 663.535 309.414C663.535 307.337 664.014 305.486 664.973 303.861C665.931 302.21 667.25 300.932 668.927 300.027C670.632 299.095 672.563 298.628 674.72 298.628C676.637 298.628 678.341 299.015 679.833 299.787C681.351 300.559 682.523 301.678 683.348 303.142L680.432 305.02C679.766 304.008 678.941 303.249 677.955 302.743C676.97 302.237 675.878 301.984 674.68 301.984C673.295 301.984 672.043 302.29 670.925 302.903C669.833 303.515 668.967 304.394 668.328 305.539C667.716 306.658 667.409 307.949 667.409 309.414C667.409 310.905 667.716 312.224 668.328 313.369C668.967 314.487 669.833 315.353 670.925 315.965C672.043 316.578 673.295 316.884 674.68 316.884C675.878 316.884 676.97 316.631 677.955 316.125C678.941 315.619 679.766 314.86 680.432 313.848L683.348 315.686C682.523 317.15 681.351 318.282 679.833 319.081C678.341 319.854 676.637 320.24 674.72 320.24ZM717.417 313.009H702.556L699.48 320H695.366L708.029 292.037H711.984L724.687 320H720.492L717.417 313.009ZM716.018 309.814L709.986 296.112L703.954 309.814H716.018ZM740.008 318.762C739.449 319.241 738.756 319.614 737.931 319.88C737.105 320.12 736.253 320.24 735.374 320.24C733.244 320.24 731.593 319.667 730.421 318.522C729.249 317.377 728.663 315.739 728.663 313.609V301.984H725.068V298.828H728.663V294.194H732.498V298.828H738.57V301.984H732.498V313.449C732.498 314.594 732.778 315.473 733.337 316.085C733.923 316.698 734.748 317.004 735.814 317.004C736.985 317.004 737.984 316.671 738.81 316.005L740.008 318.762ZM756.041 318.762C755.482 319.241 754.79 319.614 753.964 319.88C753.139 320.12 752.286 320.24 751.407 320.24C749.277 320.24 747.626 319.667 746.454 318.522C745.282 317.377 744.696 315.739 744.696 313.609V301.984H741.101V298.828H744.696V294.194H748.531V298.828H754.603V301.984H748.531V313.449C748.531 314.594 748.811 315.473 749.37 316.085C749.956 316.698 750.782 317.004 751.847 317.004C753.019 317.004 754.017 316.671 754.843 316.005L756.041 318.762ZM768.387 298.628C771.317 298.628 773.554 299.348 775.098 300.786C776.67 302.224 777.455 304.367 777.455 307.217V320H773.82V317.204C773.181 318.189 772.262 318.948 771.064 319.481C769.892 319.987 768.494 320.24 766.869 320.24C764.499 320.24 762.595 319.667 761.157 318.522C759.746 317.377 759.04 315.872 759.04 314.008C759.04 312.144 759.719 310.652 761.077 309.534C762.435 308.389 764.592 307.816 767.549 307.816H773.62V307.057C773.62 305.406 773.141 304.141 772.182 303.262C771.224 302.383 769.812 301.944 767.948 301.944C766.696 301.944 765.471 302.157 764.273 302.583C763.075 302.983 762.063 303.529 761.237 304.221L759.639 301.345C760.731 300.466 762.036 299.8 763.554 299.348C765.072 298.868 766.683 298.628 768.387 298.628ZM767.509 317.284C768.973 317.284 770.238 316.964 771.304 316.325C772.369 315.659 773.141 314.727 773.62 313.529V310.573H767.708C764.459 310.573 762.835 311.664 762.835 313.848C762.835 314.913 763.248 315.752 764.073 316.365C764.899 316.977 766.044 317.284 767.509 317.284ZM793.897 320.24C791.74 320.24 789.809 319.774 788.105 318.842C786.427 317.909 785.109 316.631 784.15 315.007C783.191 313.356 782.712 311.491 782.712 309.414C782.712 307.337 783.191 305.486 784.15 303.861C785.109 302.21 786.427 300.932 788.105 300.027C789.809 299.095 791.74 298.628 793.897 298.628C795.814 298.628 797.519 299.015 799.01 299.787C800.528 300.559 801.7 301.678 802.525 303.142L799.609 305.02C798.943 304.008 798.118 303.249 797.133 302.743C796.147 302.237 795.055 301.984 793.857 301.984C792.472 301.984 791.22 302.29 790.102 302.903C789.01 303.515 788.145 304.394 787.505 305.539C786.893 306.658 786.587 307.949 786.587 309.414C786.587 310.905 786.893 312.224 787.505 313.369C788.145 314.487 789.01 315.353 790.102 315.965C791.22 316.578 792.472 316.884 793.857 316.884C795.055 316.884 796.147 316.631 797.133 316.125C798.118 315.619 798.943 314.86 799.609 313.848L802.525 315.686C801.7 317.15 800.528 318.282 799.01 319.081C797.519 319.854 795.814 320.24 793.897 320.24ZM815.446 310.133L811.052 314.208V320H807.217V290.359H811.052V309.374L822.597 298.828H827.231L818.322 307.577L828.109 320H823.396L815.446 310.133ZM850.271 298.628C853.2 298.628 855.437 299.348 856.982 300.786C858.553 302.224 859.338 304.367 859.338 307.217V320H855.703V317.204C855.064 318.189 854.145 318.948 852.947 319.481C851.775 319.987 850.377 320.24 848.753 320.24C846.382 320.24 844.478 319.667 843.04 318.522C841.629 317.377 840.923 315.872 840.923 314.008C840.923 312.144 841.602 310.652 842.96 309.534C844.318 308.389 846.476 307.816 849.432 307.816H855.504V307.057C855.504 305.406 855.024 304.141 854.065 303.262C853.107 302.383 851.695 301.944 849.831 301.944C848.579 301.944 847.354 302.157 846.156 302.583C844.958 302.983 843.946 303.529 843.12 304.221L841.522 301.345C842.614 300.466 843.919 299.8 845.437 299.348C846.955 298.868 848.566 298.628 850.271 298.628ZM849.392 317.284C850.856 317.284 852.121 316.964 853.187 316.325C854.252 315.659 855.024 314.727 855.504 313.529V310.573H849.591C846.342 310.573 844.718 311.664 844.718 313.848C844.718 314.913 845.131 315.752 845.956 316.365C846.782 316.977 847.927 317.284 849.392 317.284ZM877.74 298.628C880.43 298.628 882.56 299.414 884.132 300.985C885.73 302.53 886.529 304.807 886.529 307.816V320H882.694V308.256C882.694 306.205 882.201 304.66 881.216 303.622C880.23 302.583 878.819 302.064 876.981 302.064C874.904 302.064 873.266 302.676 872.068 303.901C870.869 305.1 870.27 306.831 870.27 309.095V320H866.435V298.828H870.11V302.024C870.883 300.932 871.921 300.093 873.226 299.507C874.558 298.921 876.062 298.628 877.74 298.628ZM913.716 290.359V320H910.041V316.644C909.189 317.816 908.11 318.708 906.805 319.321C905.5 319.933 904.062 320.24 902.491 320.24C900.44 320.24 898.603 319.787 896.978 318.881C895.354 317.976 894.076 316.711 893.143 315.087C892.238 313.435 891.785 311.545 891.785 309.414C891.785 307.284 892.238 305.406 893.143 303.782C894.076 302.157 895.354 300.892 896.978 299.987C898.603 299.081 900.44 298.628 902.491 298.628C904.009 298.628 905.407 298.921 906.685 299.507C907.964 300.067 909.029 300.905 909.881 302.024V290.359H913.716ZM902.811 316.884C904.142 316.884 905.354 316.578 906.446 315.965C907.538 315.326 908.39 314.447 909.002 313.329C909.615 312.184 909.921 310.879 909.921 309.414C909.921 307.949 909.615 306.658 909.002 305.539C908.39 304.394 907.538 303.515 906.446 302.903C905.354 302.29 904.142 301.984 902.811 301.984C901.452 301.984 900.227 302.29 899.135 302.903C898.07 303.515 897.218 304.394 896.579 305.539C895.966 306.658 895.66 307.949 895.66 309.414C895.66 310.879 895.966 312.184 896.579 313.329C897.218 314.447 898.07 315.326 899.135 315.965C900.227 316.578 901.452 316.884 902.811 316.884ZM932.259 292.037H936.254V320H932.259V292.037ZM245.618 347.628C248.281 347.628 250.385 348.401 251.93 349.945C253.501 351.49 254.286 353.78 254.286 356.816V369H250.452V357.256C250.452 355.205 249.972 353.66 249.013 352.622C248.081 351.583 246.736 351.064 244.979 351.064C243.035 351.064 241.49 351.676 240.345 352.901C239.2 354.1 238.627 355.831 238.627 358.095V369H234.792V357.256C234.792 355.205 234.313 353.66 233.354 352.622C232.422 351.583 231.077 351.064 229.32 351.064C227.376 351.064 225.831 351.676 224.686 352.901C223.541 354.1 222.968 355.831 222.968 358.095V369H219.133V347.828H222.808V350.984C223.581 349.892 224.593 349.067 225.844 348.507C227.096 347.921 228.521 347.628 230.119 347.628C231.77 347.628 233.234 347.961 234.513 348.627C235.791 349.293 236.776 350.265 237.469 351.543C238.268 350.318 239.373 349.359 240.784 348.667C242.222 347.975 243.834 347.628 245.618 347.628ZM269.052 347.628C271.982 347.628 274.219 348.348 275.763 349.786C277.335 351.224 278.12 353.367 278.12 356.217V369H274.485V366.204C273.846 367.189 272.927 367.948 271.729 368.481C270.557 368.987 269.159 369.24 267.534 369.24C265.164 369.24 263.26 368.667 261.822 367.522C260.411 366.377 259.705 364.872 259.705 363.008C259.705 361.144 260.384 359.652 261.742 358.534C263.1 357.389 265.257 356.816 268.213 356.816H274.285V356.057C274.285 354.406 273.806 353.141 272.847 352.262C271.889 351.383 270.477 350.944 268.613 350.944C267.361 350.944 266.136 351.157 264.938 351.583C263.739 351.983 262.727 352.529 261.902 353.221L260.304 350.345C261.396 349.466 262.701 348.8 264.219 348.348C265.737 347.868 267.348 347.628 269.052 347.628ZM268.174 366.284C269.638 366.284 270.903 365.964 271.968 365.325C273.034 364.659 273.806 363.727 274.285 362.529V359.573H268.373C265.124 359.573 263.5 360.664 263.5 362.848C263.5 363.913 263.913 364.752 264.738 365.365C265.564 365.977 266.709 366.284 268.174 366.284ZM305.308 339.359V369H301.632V365.644C300.78 366.816 299.702 367.708 298.397 368.321C297.092 368.933 295.654 369.24 294.082 369.24C292.032 369.24 290.194 368.787 288.57 367.881C286.945 366.976 285.667 365.711 284.735 364.087C283.829 362.435 283.377 360.545 283.377 358.414C283.377 356.284 283.829 354.406 284.735 352.782C285.667 351.157 286.945 349.892 288.57 348.987C290.194 348.081 292.032 347.628 294.082 347.628C295.6 347.628 296.999 347.921 298.277 348.507C299.555 349.067 300.62 349.905 301.473 351.024V339.359H305.308ZM294.402 365.884C295.734 365.884 296.945 365.578 298.037 364.965C299.129 364.326 299.981 363.447 300.594 362.329C301.206 361.184 301.513 359.879 301.513 358.414C301.513 356.949 301.206 355.658 300.594 354.539C299.981 353.394 299.129 352.515 298.037 351.903C296.945 351.29 295.734 350.984 294.402 350.984C293.044 350.984 291.819 351.29 290.727 351.903C289.662 352.515 288.809 353.394 288.17 354.539C287.558 355.658 287.252 356.949 287.252 358.414C287.252 359.879 287.558 361.184 288.17 362.329C288.809 363.447 289.662 364.326 290.727 364.965C291.819 365.578 293.044 365.884 294.402 365.884ZM331.698 358.534C331.698 358.827 331.671 359.213 331.618 359.692H314.441C314.681 361.557 315.493 363.061 316.878 364.206C318.289 365.325 320.034 365.884 322.111 365.884C324.641 365.884 326.678 365.032 328.223 363.328L330.34 365.804C329.381 366.923 328.183 367.775 326.745 368.361C325.333 368.947 323.749 369.24 321.991 369.24C319.754 369.24 317.77 368.787 316.039 367.881C314.308 366.949 312.963 365.658 312.004 364.007C311.072 362.356 310.606 360.491 310.606 358.414C310.606 356.363 311.059 354.513 311.964 352.861C312.896 351.21 314.161 349.932 315.759 349.027C317.384 348.095 319.208 347.628 321.232 347.628C323.256 347.628 325.054 348.095 326.625 349.027C328.223 349.932 329.461 351.21 330.34 352.861C331.245 354.513 331.698 356.403 331.698 358.534ZM321.232 350.864C319.394 350.864 317.85 351.423 316.598 352.542C315.373 353.66 314.654 355.125 314.441 356.936H328.023C327.81 355.152 327.077 353.7 325.826 352.582C324.601 351.437 323.069 350.864 321.232 350.864ZM347.751 347.828H351.586V369H347.751V347.828ZM349.668 343.754C348.923 343.754 348.297 343.514 347.791 343.035C347.312 342.555 347.072 341.969 347.072 341.277C347.072 340.585 347.312 339.999 347.791 339.519C348.297 339.013 348.923 338.76 349.668 338.76C350.414 338.76 351.027 339 351.506 339.479C352.012 339.932 352.265 340.505 352.265 341.197C352.265 341.916 352.012 342.529 351.506 343.035C351.027 343.514 350.414 343.754 349.668 343.754ZM370.812 367.762C370.253 368.241 369.56 368.614 368.735 368.88C367.909 369.12 367.057 369.24 366.178 369.24C364.048 369.24 362.397 368.667 361.225 367.522C360.053 366.377 359.467 364.739 359.467 362.609V350.984H355.872V347.828H359.467V343.194H363.302V347.828H369.374V350.984H363.302V362.449C363.302 363.594 363.582 364.473 364.141 365.085C364.727 365.698 365.553 366.004 366.618 366.004C367.79 366.004 368.788 365.671 369.614 365.005L370.812 367.762ZM405.91 347.828V369H402.275V365.804C401.503 366.896 400.477 367.748 399.199 368.361C397.947 368.947 396.576 369.24 395.085 369.24C392.262 369.24 390.038 368.467 388.413 366.923C386.789 365.352 385.977 363.048 385.977 360.012V347.828H389.812V359.573C389.812 361.623 390.304 363.181 391.29 364.246C392.275 365.285 393.686 365.804 395.524 365.804C397.548 365.804 399.146 365.192 400.318 363.967C401.489 362.742 402.075 361.011 402.075 358.774V347.828H405.91ZM419.283 369.24C417.552 369.24 415.887 369.013 414.289 368.561C412.691 368.081 411.44 367.482 410.534 366.763L412.132 363.727C413.064 364.393 414.196 364.925 415.528 365.325C416.859 365.724 418.204 365.924 419.562 365.924C422.918 365.924 424.596 364.965 424.596 363.048C424.596 362.409 424.369 361.903 423.916 361.53C423.464 361.157 422.891 360.891 422.199 360.731C421.533 360.545 420.574 360.345 419.323 360.132C417.618 359.865 416.22 359.559 415.128 359.213C414.063 358.867 413.144 358.281 412.372 357.455C411.6 356.63 411.213 355.471 411.213 353.98C411.213 352.063 412.012 350.531 413.61 349.386C415.208 348.214 417.352 347.628 420.042 347.628C421.453 347.628 422.865 347.802 424.276 348.148C425.687 348.494 426.846 348.96 427.751 349.546L426.114 352.582C424.382 351.463 422.345 350.904 420.002 350.904C418.377 350.904 417.139 351.17 416.287 351.703C415.434 352.236 415.008 352.941 415.008 353.82C415.008 354.513 415.248 355.059 415.727 355.458C416.207 355.858 416.793 356.15 417.485 356.337C418.204 356.523 419.203 356.736 420.481 356.976C422.185 357.269 423.557 357.589 424.596 357.935C425.661 358.254 426.566 358.814 427.312 359.613C428.058 360.411 428.43 361.53 428.43 362.968C428.43 364.885 427.605 366.417 425.954 367.562C424.329 368.68 422.106 369.24 419.283 369.24ZM433.223 347.828H437.058V369H433.223V347.828ZM435.141 343.754C434.395 343.754 433.769 343.514 433.263 343.035C432.784 342.555 432.544 341.969 432.544 341.277C432.544 340.585 432.784 339.999 433.263 339.519C433.769 339.013 434.395 338.76 435.141 338.76C435.886 338.76 436.499 339 436.978 339.479C437.484 339.932 437.737 340.505 437.737 341.197C437.737 341.916 437.484 342.529 436.978 343.035C436.499 343.514 435.886 343.754 435.141 343.754ZM455.685 347.628C458.375 347.628 460.505 348.414 462.077 349.985C463.674 351.53 464.473 353.807 464.473 356.816V369H460.638V357.256C460.638 355.205 460.146 353.66 459.16 352.622C458.175 351.583 456.764 351.064 454.926 351.064C452.849 351.064 451.211 351.676 450.013 352.901C448.814 354.1 448.215 355.831 448.215 358.095V369H444.38V347.828H448.055V351.024C448.828 349.932 449.866 349.093 451.171 348.507C452.503 347.921 454.007 347.628 455.685 347.628ZM491.941 347.828V366.124C491.941 369.826 491.022 372.555 489.184 374.313C487.347 376.097 484.604 376.989 480.955 376.989C478.958 376.989 477.054 376.71 475.243 376.15C473.432 375.618 471.967 374.846 470.849 373.834L472.686 370.877C473.672 371.73 474.883 372.395 476.321 372.875C477.786 373.381 479.291 373.634 480.835 373.634C483.312 373.634 485.136 373.048 486.308 371.876C487.506 370.704 488.106 368.92 488.106 366.523V364.846C487.2 365.937 486.082 366.763 484.75 367.322C483.445 367.855 482.02 368.121 480.476 368.121C478.452 368.121 476.614 367.695 474.963 366.843C473.339 365.964 472.06 364.752 471.128 363.208C470.196 361.636 469.73 359.852 469.73 357.855C469.73 355.858 470.196 354.087 471.128 352.542C472.06 350.971 473.339 349.759 474.963 348.907C476.614 348.055 478.452 347.628 480.476 347.628C482.074 347.628 483.552 347.921 484.91 348.507C486.295 349.093 487.427 349.959 488.305 351.104V347.828H491.941ZM480.915 364.766C482.3 364.766 483.538 364.473 484.63 363.887C485.749 363.301 486.614 362.489 487.227 361.45C487.866 360.385 488.186 359.186 488.186 357.855C488.186 355.804 487.506 354.153 486.148 352.901C484.79 351.623 483.046 350.984 480.915 350.984C478.758 350.984 477 351.623 475.642 352.901C474.284 354.153 473.605 355.804 473.605 357.855C473.605 359.186 473.911 360.385 474.524 361.45C475.163 362.489 476.028 363.301 477.12 363.887C478.239 364.473 479.504 364.766 480.915 364.766ZM517.706 347.628C520.635 347.628 522.872 348.348 524.417 349.786C525.988 351.224 526.774 353.367 526.774 356.217V369H523.138V366.204C522.499 367.189 521.58 367.948 520.382 368.481C519.21 368.987 517.812 369.24 516.188 369.24C513.817 369.24 511.913 368.667 510.475 367.522C509.064 366.377 508.358 364.872 508.358 363.008C508.358 361.144 509.037 359.652 510.395 358.534C511.754 357.389 513.911 356.816 516.867 356.816H522.939V356.057C522.939 354.406 522.459 353.141 521.501 352.262C520.542 351.383 519.13 350.944 517.266 350.944C516.015 350.944 514.789 351.157 513.591 351.583C512.393 351.983 511.381 352.529 510.555 353.221L508.957 350.345C510.049 349.466 511.354 348.8 512.872 348.348C514.39 347.868 516.001 347.628 517.706 347.628ZM516.827 366.284C518.291 366.284 519.556 365.964 520.622 365.325C521.687 364.659 522.459 363.727 522.939 362.529V359.573H517.027C513.778 359.573 512.153 360.664 512.153 362.848C512.153 363.913 512.566 364.752 513.391 365.365C514.217 365.977 515.362 366.284 516.827 366.284ZM544.598 339.359H548.433V369H544.598V339.359ZM555.755 347.828H559.59V369H555.755V347.828ZM557.673 343.754C556.927 343.754 556.301 343.514 555.795 343.035C555.316 342.555 555.076 341.969 555.076 341.277C555.076 340.585 555.316 339.999 555.795 339.519C556.301 339.013 556.927 338.76 557.673 338.76C558.418 338.76 559.031 339 559.51 339.479C560.016 339.932 560.269 340.505 560.269 341.197C560.269 341.916 560.016 342.529 559.51 343.035C559.031 343.514 558.418 343.754 557.673 343.754ZM578.137 347.628C580.188 347.628 582.025 348.081 583.65 348.987C585.274 349.892 586.539 351.157 587.445 352.782C588.377 354.406 588.843 356.284 588.843 358.414C588.843 360.545 588.377 362.435 587.445 364.087C586.539 365.711 585.274 366.976 583.65 367.881C582.025 368.787 580.188 369.24 578.137 369.24C576.566 369.24 575.128 368.933 573.823 368.321C572.518 367.708 571.44 366.816 570.587 365.644V369H566.912V339.359H570.747V351.024C571.599 349.905 572.665 349.067 573.943 348.507C575.221 347.921 576.619 347.628 578.137 347.628ZM577.818 365.884C579.176 365.884 580.388 365.578 581.453 364.965C582.545 364.326 583.397 363.447 584.009 362.329C584.649 361.184 584.968 359.879 584.968 358.414C584.968 356.949 584.649 355.658 584.009 354.539C583.397 353.394 582.545 352.515 581.453 351.903C580.388 351.29 579.176 350.984 577.818 350.984C576.486 350.984 575.274 351.29 574.183 351.903C573.091 352.515 572.238 353.394 571.626 354.539C571.013 355.658 570.707 356.949 570.707 358.414C570.707 359.879 571.013 361.184 571.626 362.329C572.238 363.447 573.091 364.326 574.183 364.965C575.274 365.578 576.486 365.884 577.818 365.884ZM597.817 351.383C598.483 350.158 599.468 349.226 600.773 348.587C602.078 347.948 603.662 347.628 605.526 347.628V351.344C605.313 351.317 605.02 351.304 604.648 351.304C602.57 351.304 600.933 351.929 599.734 353.181C598.562 354.406 597.977 356.164 597.977 358.454V369H594.142V347.828H597.817V351.383ZM617.924 347.628C620.853 347.628 623.09 348.348 624.635 349.786C626.206 351.224 626.992 353.367 626.992 356.217V369H623.356V366.204C622.717 367.189 621.799 367.948 620.6 368.481C619.428 368.987 618.03 369.24 616.406 369.24C614.036 369.24 612.131 368.667 610.693 367.522C609.282 366.377 608.576 364.872 608.576 363.008C608.576 361.144 609.255 359.652 610.613 358.534C611.972 357.389 614.129 356.816 617.085 356.816H623.157V356.057C623.157 354.406 622.677 353.141 621.719 352.262C620.76 351.383 619.348 350.944 617.484 350.944C616.233 350.944 615.008 351.157 613.809 351.583C612.611 351.983 611.599 352.529 610.773 353.221L609.175 350.345C610.267 349.466 611.572 348.8 613.09 348.348C614.608 347.868 616.219 347.628 617.924 347.628ZM617.045 366.284C618.51 366.284 619.775 365.964 620.84 365.325C621.905 364.659 622.677 363.727 623.157 362.529V359.573H617.245C613.996 359.573 612.371 360.664 612.371 362.848C612.371 363.913 612.784 364.752 613.609 365.365C614.435 365.977 615.58 366.284 617.045 366.284ZM637.764 351.383C638.429 350.158 639.415 349.226 640.72 348.587C642.025 347.948 643.609 347.628 645.473 347.628V351.344C645.26 351.317 644.967 351.304 644.594 351.304C642.517 351.304 640.879 351.929 639.681 353.181C638.509 354.406 637.923 356.164 637.923 358.454V369H634.088V347.828H637.764V351.383ZM669.793 347.828L659.527 371.117C658.621 373.274 657.556 374.792 656.331 375.671C655.133 376.55 653.681 376.989 651.977 376.989C650.938 376.989 649.926 376.816 648.941 376.47C647.982 376.15 647.183 375.671 646.544 375.032L648.182 372.156C649.274 373.194 650.539 373.714 651.977 373.714C652.909 373.714 653.681 373.461 654.294 372.955C654.933 372.475 655.505 371.636 656.011 370.438L656.691 368.96L647.343 347.828H651.338L658.728 364.766L666.038 347.828H669.793ZM684.1 347.828H687.935V369H684.1V347.828ZM686.017 343.754C685.272 343.754 684.646 343.514 684.14 343.035C683.661 342.555 683.421 341.969 683.421 341.277C683.421 340.585 683.661 339.999 684.14 339.519C684.646 339.013 685.272 338.76 686.017 338.76C686.763 338.76 687.376 339 687.855 339.479C688.361 339.932 688.614 340.505 688.614 341.197C688.614 341.916 688.361 342.529 687.855 343.035C687.376 343.514 686.763 343.754 686.017 343.754ZM706.562 347.628C709.252 347.628 711.382 348.414 712.953 349.985C714.551 351.53 715.35 353.807 715.35 356.816V369H711.515V357.256C711.515 355.205 711.023 353.66 710.037 352.622C709.052 351.583 707.64 351.064 705.803 351.064C703.726 351.064 702.088 351.676 700.889 352.901C699.691 354.1 699.092 355.831 699.092 358.095V369H695.257V347.828H698.932V351.024C699.704 349.932 700.743 349.093 702.048 348.507C703.38 347.921 704.884 347.628 706.562 347.628ZM737.33 369.32C735.652 369.32 734.094 368.973 732.656 368.281C731.218 367.562 730.059 366.563 729.181 365.285L731.497 362.569C733.042 364.779 734.986 365.884 737.33 365.884C738.901 365.884 740.086 365.405 740.885 364.446C741.711 363.487 742.123 362.076 742.123 360.212V344.513H732.017V341.037H746.078V360.012C746.078 363.101 745.332 365.431 743.841 367.003C742.376 368.547 740.206 369.32 737.33 369.32ZM761.366 347.628C764.295 347.628 766.532 348.348 768.077 349.786C769.648 351.224 770.433 353.367 770.433 356.217V369H766.798V366.204C766.159 367.189 765.24 367.948 764.042 368.481C762.87 368.987 761.472 369.24 759.848 369.24C757.477 369.24 755.573 368.667 754.135 367.522C752.724 366.377 752.018 364.872 752.018 363.008C752.018 361.144 752.697 359.652 754.055 358.534C755.413 357.389 757.571 356.816 760.527 356.816H766.599V356.057C766.599 354.406 766.119 353.141 765.16 352.262C764.202 351.383 762.79 350.944 760.926 350.944C759.674 350.944 758.449 351.157 757.251 351.583C756.053 351.983 755.041 352.529 754.215 353.221L752.617 350.345C753.709 349.466 755.014 348.8 756.532 348.348C758.05 347.868 759.661 347.628 761.366 347.628ZM760.487 366.284C761.951 366.284 763.216 365.964 764.282 365.325C765.347 364.659 766.119 363.727 766.599 362.529V359.573H760.686C757.437 359.573 755.813 360.664 755.813 362.848C755.813 363.913 756.226 364.752 757.051 365.365C757.877 365.977 759.022 366.284 760.487 366.284ZM795.875 347.828L786.607 369H782.693L773.425 347.828H777.42L784.69 364.806L792.12 347.828H795.875ZM806.501 347.628C809.43 347.628 811.667 348.348 813.212 349.786C814.783 351.224 815.569 353.367 815.569 356.217V369H811.933V366.204C811.294 367.189 810.376 367.948 809.177 368.481C808.005 368.987 806.607 369.24 804.983 369.24C802.613 369.24 800.708 368.667 799.27 367.522C797.859 366.377 797.153 364.872 797.153 363.008C797.153 361.144 797.832 359.652 799.19 358.534C800.549 357.389 802.706 356.816 805.662 356.816H811.734V356.057C811.734 354.406 811.254 353.141 810.296 352.262C809.337 351.383 807.925 350.944 806.061 350.944C804.81 350.944 803.585 351.157 802.386 351.583C801.188 351.983 800.176 352.529 799.35 353.221L797.752 350.345C798.844 349.466 800.149 348.8 801.667 348.348C803.185 347.868 804.796 347.628 806.501 347.628ZM805.622 366.284C807.087 366.284 808.352 365.964 809.417 365.325C810.482 364.659 811.254 363.727 811.734 362.529V359.573H805.822C802.573 359.573 800.948 360.664 800.948 362.848C800.948 363.913 801.361 364.752 802.186 365.365C803.012 365.977 804.157 366.284 805.622 366.284ZM828.737 369.24C827.006 369.24 825.342 369.013 823.744 368.561C822.146 368.081 820.894 367.482 819.989 366.763L821.587 363.727C822.519 364.393 823.651 364.925 824.982 365.325C826.314 365.724 827.659 365.924 829.017 365.924C832.373 365.924 834.05 364.965 834.05 363.048C834.05 362.409 833.824 361.903 833.371 361.53C832.918 361.157 832.346 360.891 831.653 360.731C830.988 360.545 830.029 360.345 828.777 360.132C827.073 359.865 825.675 359.559 824.583 359.213C823.518 358.867 822.599 358.281 821.827 357.455C821.054 356.63 820.668 355.471 820.668 353.98C820.668 352.063 821.467 350.531 823.065 349.386C824.663 348.214 826.807 347.628 829.496 347.628C830.908 347.628 832.319 347.802 833.731 348.148C835.142 348.494 836.301 348.96 837.206 349.546L835.568 352.582C833.837 351.463 831.8 350.904 829.456 350.904C827.832 350.904 826.594 351.17 825.741 351.703C824.889 352.236 824.463 352.941 824.463 353.82C824.463 354.513 824.703 355.059 825.182 355.458C825.661 355.858 826.247 356.15 826.94 356.337C827.659 356.523 828.657 356.736 829.936 356.976C831.64 357.269 833.012 357.589 834.05 357.935C835.116 358.254 836.021 358.814 836.767 359.613C837.512 360.411 837.885 361.53 837.885 362.968C837.885 364.885 837.06 366.417 835.408 367.562C833.784 368.68 831.56 369.24 828.737 369.24ZM851.906 369.24C849.748 369.24 847.818 368.774 846.113 367.842C844.435 366.909 843.117 365.631 842.159 364.007C841.2 362.356 840.72 360.491 840.72 358.414C840.72 356.337 841.2 354.486 842.159 352.861C843.117 351.21 844.435 349.932 846.113 349.027C847.818 348.095 849.748 347.628 851.906 347.628C853.823 347.628 855.527 348.015 857.019 348.787C858.537 349.559 859.708 350.678 860.534 352.142L857.618 354.02C856.952 353.008 856.127 352.249 855.141 351.743C854.156 351.237 853.064 350.984 851.866 350.984C850.481 350.984 849.229 351.29 848.111 351.903C847.019 352.515 846.153 353.394 845.514 354.539C844.902 355.658 844.595 356.949 844.595 358.414C844.595 359.905 844.902 361.224 845.514 362.369C846.153 363.487 847.019 364.353 848.111 364.965C849.229 365.578 850.481 365.884 851.866 365.884C853.064 365.884 854.156 365.631 855.141 365.125C856.127 364.619 856.952 363.86 857.618 362.848L860.534 364.686C859.708 366.15 858.537 367.282 857.019 368.081C855.527 368.854 853.823 369.24 851.906 369.24ZM869.174 351.383C869.84 350.158 870.825 349.226 872.13 348.587C873.435 347.948 875.02 347.628 876.884 347.628V351.344C876.671 351.317 876.378 351.304 876.005 351.304C873.928 351.304 872.29 351.929 871.092 353.181C869.92 354.406 869.334 356.164 869.334 358.454V369H865.499V347.828H869.174V351.383ZM881.61 347.828H885.445V369H881.61V347.828ZM883.528 343.754C882.782 343.754 882.156 343.514 881.65 343.035C881.171 342.555 880.931 341.969 880.931 341.277C880.931 340.585 881.171 339.999 881.65 339.519C882.156 339.013 882.782 338.76 883.528 338.76C884.273 338.76 884.886 339 885.365 339.479C885.871 339.932 886.124 340.505 886.124 341.197C886.124 341.916 885.871 342.529 885.365 343.035C884.886 343.514 884.273 343.754 883.528 343.754ZM903.992 347.628C906.043 347.628 907.881 348.081 909.505 348.987C911.13 349.892 912.395 351.157 913.3 352.782C914.232 354.406 914.698 356.284 914.698 358.414C914.698 360.545 914.232 362.435 913.3 364.087C912.395 365.711 911.13 366.976 909.505 367.881C907.881 368.787 906.043 369.24 903.992 369.24C902.474 369.24 901.076 368.947 899.798 368.361C898.546 367.775 897.481 366.923 896.602 365.804V376.75H892.767V347.828H896.443V351.184C897.295 350.012 898.373 349.133 899.678 348.547C900.983 347.935 902.421 347.628 903.992 347.628ZM903.673 365.884C905.031 365.884 906.243 365.578 907.308 364.965C908.4 364.326 909.252 363.447 909.865 362.329C910.504 361.184 910.823 359.879 910.823 358.414C910.823 356.949 910.504 355.658 909.865 354.539C909.252 353.394 908.4 352.515 907.308 351.903C906.243 351.29 905.031 350.984 903.673 350.984C902.341 350.984 901.13 351.304 900.038 351.943C898.972 352.555 898.12 353.421 897.481 354.539C896.869 355.658 896.562 356.949 896.562 358.414C896.562 359.879 896.869 361.184 897.481 362.329C898.094 363.447 898.946 364.326 900.038 364.965C901.13 365.578 902.341 365.884 903.673 365.884ZM931.901 367.762C931.342 368.241 930.649 368.614 929.824 368.88C928.998 369.12 928.146 369.24 927.267 369.24C925.137 369.24 923.485 368.667 922.314 367.522C921.142 366.377 920.556 364.739 920.556 362.609V350.984H916.961V347.828H920.556V343.194H924.391V347.828H930.463V350.984H924.391V362.449C924.391 363.594 924.671 364.473 925.23 365.085C925.816 365.698 926.641 366.004 927.707 366.004C928.878 366.004 929.877 365.671 930.703 365.005L931.901 367.762ZM228.361 418.24C226.204 418.24 224.273 417.774 222.569 416.842C220.891 415.909 219.573 414.631 218.614 413.007C217.655 411.356 217.176 409.491 217.176 407.414C217.176 405.337 217.655 403.486 218.614 401.861C219.573 400.21 220.891 398.932 222.569 398.027C224.273 397.095 226.204 396.628 228.361 396.628C230.278 396.628 231.983 397.015 233.474 397.787C234.992 398.559 236.164 399.678 236.989 401.142L234.073 403.02C233.408 402.008 232.582 401.249 231.597 400.743C230.611 400.237 229.519 399.984 228.321 399.984C226.936 399.984 225.684 400.29 224.566 400.903C223.474 401.515 222.609 402.394 221.969 403.539C221.357 404.658 221.051 405.949 221.051 407.414C221.051 408.905 221.357 410.224 221.969 411.369C222.609 412.487 223.474 413.353 224.566 413.965C225.684 414.578 226.936 414.884 228.321 414.884C229.519 414.884 230.611 414.631 231.597 414.125C232.582 413.619 233.408 412.86 234.073 411.848L236.989 413.686C236.164 415.15 234.992 416.282 233.474 417.081C231.983 417.854 230.278 418.24 228.361 418.24ZM249.664 396.628C252.594 396.628 254.831 397.348 256.375 398.786C257.946 400.224 258.732 402.367 258.732 405.217V418H255.097V415.204C254.458 416.189 253.539 416.948 252.341 417.481C251.169 417.987 249.771 418.24 248.146 418.24C245.776 418.24 243.872 417.667 242.434 416.522C241.022 415.377 240.317 413.872 240.317 412.008C240.317 410.144 240.996 408.652 242.354 407.534C243.712 406.389 245.869 405.816 248.825 405.816H254.897V405.057C254.897 403.406 254.418 402.141 253.459 401.262C252.5 400.383 251.089 399.944 249.225 399.944C247.973 399.944 246.748 400.157 245.55 400.583C244.351 400.983 243.339 401.529 242.514 402.221L240.916 399.345C242.008 398.466 243.313 397.8 244.831 397.348C246.349 396.868 247.96 396.628 249.664 396.628ZM248.785 415.284C250.25 415.284 251.515 414.964 252.58 414.325C253.645 413.659 254.418 412.727 254.897 411.529V408.573H248.985C245.736 408.573 244.112 409.664 244.112 411.848C244.112 412.913 244.524 413.752 245.35 414.365C246.175 414.977 247.321 415.284 248.785 415.284ZM265.829 388.359H269.664V418H265.829V388.359ZM276.986 388.359H280.821V418H276.986V388.359ZM307.277 407.534C307.277 407.827 307.251 408.213 307.197 408.692H290.02C290.26 410.557 291.072 412.061 292.457 413.206C293.869 414.325 295.613 414.884 297.69 414.884C300.22 414.884 302.257 414.032 303.802 412.328L305.919 414.804C304.96 415.923 303.762 416.775 302.324 417.361C300.913 417.947 299.328 418.24 297.57 418.24C295.333 418.24 293.349 417.787 291.618 416.881C289.887 415.949 288.542 414.658 287.584 413.007C286.652 411.356 286.185 409.491 286.185 407.414C286.185 405.363 286.638 403.513 287.544 401.861C288.476 400.21 289.741 398.932 291.339 398.027C292.963 397.095 294.787 396.628 296.811 396.628C298.835 396.628 300.633 397.095 302.204 398.027C303.802 398.932 305.04 400.21 305.919 401.861C306.825 403.513 307.277 405.403 307.277 407.534ZM296.811 399.864C294.974 399.864 293.429 400.423 292.177 401.542C290.952 402.66 290.233 404.125 290.02 405.936H303.602C303.389 404.152 302.657 402.7 301.405 401.582C300.18 400.437 298.649 399.864 296.811 399.864ZM332.576 388.359V418H328.901V414.644C328.049 415.816 326.97 416.708 325.665 417.321C324.36 417.933 322.922 418.24 321.351 418.24C319.3 418.24 317.463 417.787 315.838 416.881C314.214 415.976 312.935 414.711 312.003 413.087C311.098 411.435 310.645 409.545 310.645 407.414C310.645 405.284 311.098 403.406 312.003 401.782C312.935 400.157 314.214 398.892 315.838 397.987C317.463 397.081 319.3 396.628 321.351 396.628C322.869 396.628 324.267 396.921 325.545 397.507C326.824 398.067 327.889 398.905 328.741 400.024V388.359H332.576ZM321.67 414.884C323.002 414.884 324.214 414.578 325.306 413.965C326.397 413.326 327.25 412.447 327.862 411.329C328.475 410.184 328.781 408.879 328.781 407.414C328.781 405.949 328.475 404.658 327.862 403.539C327.25 402.394 326.397 401.515 325.306 400.903C324.214 400.29 323.002 399.984 321.67 399.984C320.312 399.984 319.087 400.29 317.995 400.903C316.93 401.515 316.078 402.394 315.439 403.539C314.826 404.658 314.52 405.949 314.52 407.414C314.52 408.879 314.826 410.184 315.439 411.329C316.078 412.447 316.93 413.326 317.995 413.965C319.087 414.578 320.312 414.884 321.67 414.884ZM361.785 396.628C363.835 396.628 365.673 397.081 367.297 397.987C368.922 398.892 370.187 400.157 371.092 401.782C372.025 403.406 372.491 405.284 372.491 407.414C372.491 409.545 372.025 411.435 371.092 413.087C370.187 414.711 368.922 415.976 367.297 416.881C365.673 417.787 363.835 418.24 361.785 418.24C360.267 418.24 358.869 417.947 357.59 417.361C356.339 416.775 355.273 415.923 354.395 414.804V425.75H350.56V396.828H354.235V400.184C355.087 399.012 356.166 398.133 357.471 397.547C358.775 396.935 360.214 396.628 361.785 396.628ZM361.465 414.884C362.823 414.884 364.035 414.578 365.1 413.965C366.192 413.326 367.044 412.447 367.657 411.329C368.296 410.184 368.616 408.879 368.616 407.414C368.616 405.949 368.296 404.658 367.657 403.539C367.044 402.394 366.192 401.515 365.1 400.903C364.035 400.29 362.823 399.984 361.465 399.984C360.134 399.984 358.922 400.304 357.83 400.943C356.765 401.555 355.913 402.421 355.273 403.539C354.661 404.658 354.355 405.949 354.355 407.414C354.355 408.879 354.661 410.184 355.273 411.329C355.886 412.447 356.738 413.326 357.83 413.965C358.922 414.578 360.134 414.884 361.465 414.884ZM389.094 396.628C391.784 396.628 393.914 397.414 395.486 398.985C397.083 400.53 397.882 402.807 397.882 405.816V418H394.047V406.256C394.047 404.205 393.555 402.66 392.569 401.622C391.584 400.583 390.173 400.064 388.335 400.064C386.258 400.064 384.62 400.676 383.422 401.901C382.223 403.1 381.624 404.831 381.624 407.095V418H377.789V388.359H381.624V399.824C382.423 398.812 383.462 398.027 384.74 397.467C386.045 396.908 387.496 396.628 389.094 396.628ZM412.689 396.628C415.619 396.628 417.856 397.348 419.4 398.786C420.972 400.224 421.757 402.367 421.757 405.217V418H418.122V415.204C417.483 416.189 416.564 416.948 415.366 417.481C414.194 417.987 412.796 418.24 411.171 418.24C408.801 418.24 406.897 417.667 405.459 416.522C404.047 415.377 403.342 413.872 403.342 412.008C403.342 410.144 404.021 408.652 405.379 407.534C406.737 406.389 408.894 405.816 411.85 405.816H417.922V405.057C417.922 403.406 417.443 402.141 416.484 401.262C415.525 400.383 414.114 399.944 412.25 399.944C410.998 399.944 409.773 400.157 408.575 400.583C407.376 400.983 406.364 401.529 405.539 402.221L403.941 399.345C405.033 398.466 406.338 397.8 407.856 397.348C409.374 396.868 410.985 396.628 412.689 396.628ZM411.81 415.284C413.275 415.284 414.54 414.964 415.605 414.325C416.671 413.659 417.443 412.727 417.922 411.529V408.573H412.01C408.761 408.573 407.137 409.664 407.137 411.848C407.137 412.913 407.549 413.752 408.375 414.365C409.201 414.977 410.346 415.284 411.81 415.284ZM434.926 418.24C433.195 418.24 431.53 418.013 429.932 417.561C428.335 417.081 427.083 416.482 426.177 415.763L427.775 412.727C428.707 413.393 429.839 413.925 431.171 414.325C432.502 414.724 433.847 414.924 435.205 414.924C438.561 414.924 440.239 413.965 440.239 412.048C440.239 411.409 440.012 410.903 439.56 410.53C439.107 410.157 438.534 409.891 437.842 409.731C437.176 409.545 436.217 409.345 434.966 409.132C433.261 408.865 431.863 408.559 430.771 408.213C429.706 407.867 428.787 407.281 428.015 406.455C427.243 405.63 426.857 404.471 426.857 402.98C426.857 401.063 427.656 399.531 429.253 398.386C430.851 397.214 432.995 396.628 435.685 396.628C437.096 396.628 438.508 396.802 439.919 397.148C441.331 397.494 442.489 397.96 443.395 398.546L441.757 401.582C440.026 400.463 437.988 399.904 435.645 399.904C434.02 399.904 432.782 400.17 431.93 400.703C431.078 401.236 430.652 401.941 430.652 402.82C430.652 403.513 430.891 404.059 431.371 404.458C431.85 404.858 432.436 405.15 433.128 405.337C433.847 405.523 434.846 405.736 436.124 405.976C437.829 406.269 439.2 406.589 440.239 406.935C441.304 407.254 442.209 407.814 442.955 408.613C443.701 409.411 444.074 410.53 444.074 411.968C444.074 413.885 443.248 415.417 441.597 416.562C439.972 417.68 437.749 418.24 434.926 418.24ZM468.001 407.534C468.001 407.827 467.974 408.213 467.921 408.692H450.744C450.984 410.557 451.796 412.061 453.181 413.206C454.592 414.325 456.336 414.884 458.414 414.884C460.944 414.884 462.981 414.032 464.525 412.328L466.643 414.804C465.684 415.923 464.486 416.775 463.047 417.361C461.636 417.947 460.051 418.24 458.294 418.24C456.057 418.24 454.073 417.787 452.342 416.881C450.611 415.949 449.266 414.658 448.307 413.007C447.375 411.356 446.909 409.491 446.909 407.414C446.909 405.363 447.362 403.513 448.267 401.861C449.199 400.21 450.464 398.932 452.062 398.027C453.687 397.095 455.511 396.628 457.535 396.628C459.559 396.628 461.356 397.095 462.928 398.027C464.525 398.932 465.764 400.21 466.643 401.861C467.548 403.513 468.001 405.403 468.001 407.534ZM457.535 399.864C455.697 399.864 454.153 400.423 452.901 401.542C451.676 402.66 450.957 404.125 450.744 405.936H464.326C464.113 404.152 463.38 402.7 462.129 401.582C460.904 400.437 459.372 399.864 457.535 399.864ZM477.001 400.383C477.667 399.158 478.652 398.226 479.957 397.587C481.262 396.948 482.847 396.628 484.711 396.628V400.344C484.498 400.317 484.205 400.304 483.832 400.304C481.755 400.304 480.117 400.929 478.919 402.181C477.747 403.406 477.161 405.164 477.161 407.454V418H473.326V396.828H477.001V400.383ZM504.593 418.32C502.915 418.32 501.357 417.973 499.919 417.281C498.481 416.562 497.322 415.563 496.444 414.285L498.761 411.569C500.305 413.779 502.249 414.884 504.593 414.884C506.164 414.884 507.349 414.405 508.148 413.446C508.974 412.487 509.386 411.076 509.386 409.212V393.513H499.28V390.037H513.341V409.012C513.341 412.101 512.595 414.431 511.104 416.003C509.639 417.547 507.469 418.32 504.593 418.32ZM529.627 418.32C527.523 418.32 525.486 418 523.515 417.361C521.571 416.695 520.04 415.843 518.921 414.804L520.4 411.688C521.465 412.647 522.823 413.433 524.474 414.045C526.152 414.631 527.87 414.924 529.627 414.924C531.944 414.924 533.675 414.538 534.82 413.766C535.965 412.967 536.538 411.915 536.538 410.61C536.538 409.651 536.218 408.879 535.579 408.293C534.967 407.68 534.194 407.214 533.262 406.895C532.357 406.575 531.065 406.216 529.388 405.816C527.284 405.31 525.579 404.804 524.274 404.298C522.996 403.792 521.891 403.02 520.959 401.981C520.053 400.916 519.601 399.491 519.601 397.707C519.601 396.216 519.987 394.871 520.759 393.672C521.558 392.474 522.756 391.515 524.354 390.796C525.952 390.077 527.936 389.718 530.306 389.718C531.957 389.718 533.582 389.931 535.18 390.357C536.778 390.783 538.149 391.395 539.294 392.194L537.976 395.39C536.804 394.644 535.553 394.085 534.221 393.712C532.89 393.313 531.585 393.113 530.306 393.113C528.043 393.113 526.338 393.526 525.193 394.351C524.075 395.177 523.515 396.242 523.515 397.547C523.515 398.506 523.835 399.292 524.474 399.904C525.113 400.49 525.899 400.956 526.831 401.302C527.79 401.622 529.081 401.968 530.706 402.341C532.81 402.847 534.501 403.353 535.779 403.859C537.057 404.365 538.149 405.137 539.055 406.176C539.987 407.214 540.453 408.613 540.453 410.37C540.453 411.835 540.053 413.18 539.254 414.405C538.455 415.603 537.244 416.562 535.619 417.281C533.995 417.973 531.997 418.32 529.627 418.32Z" fill="white"/>
<path d="M1072.15 152.751L1184.72 167.283L1130.83 100.434L1061.74 151.407L1072.15 152.751Z" fill="#007AE0"/>
<path d="M852.474 124.392L965.039 138.924L911.155 72.0748L842.06 123.048L852.474 124.392Z" fill="#007AE0"/>
<path d="M979.952 141.332L1045.31 149.769L1014.02 110.954L973.905 140.551L979.952 141.332Z" fill="#007AE0"/>
<path d="M1031.58 100.663L1096.94 109.1L1056.82 138.698L1025.54 99.882L1031.58 100.663Z" fill="#007AE0"/>
<path d="M1019.01 82.6168L1118.86 95.5077L1071.06 36.2063L1009.77 81.4243L1019.01 82.6168Z" fill="#007AE0"/>
<path d="M910.796 50.7545L972.672 127.518L982.213 53.6115L905.072 43.653L910.796 50.7545Z" fill="#007AE0"/>
<path d="M373.544 1026L260.742 1038.58L315.781 972.675L383.979 1024.84L373.544 1026Z" fill="#0A0C10"/>
<path d="M593.68 1001.47L480.879 1014.04L535.917 948.138L604.116 1000.3L593.68 1001.47Z" fill="#0A0C10"/>
<path d="M465.928 1016.19L400.43 1023.49L432.388 985.224L471.987 1015.51L465.928 1016.19Z" fill="#0A0C10"/>
<path d="M415.011 974.629L349.513 981.93L389.112 1012.22L421.07 973.954L415.011 974.629Z" fill="#0A0C10"/>
<path d="M427.897 956.804L327.831 967.958L376.656 909.496L437.154 955.773L427.897 956.804Z" fill="#0A0C10"/>
<path d="M536.646 926.828L473.445 1002.5L465.19 928.443L542.493 919.827L536.646 926.828Z" fill="#0A0C10"/>
</svg>
