<svg width="426" height="44" viewBox="0 0 426 44" fill="none" xmlns="http://www.w3.org/2000/svg">
<path d="M7.12502 25.25V44H0.875018V0.249999H13.375V12.75H32.125V0.249999H44.625V44H32.125V25.25H25.875V37.75H13.375V25.25H7.12502ZM75.875 19V0.249999H88.375V19H82.125V25.25H75.875V44H63.375V25.25H57.125V19H50.875V0.249999H63.375V19H75.875ZM144.625 6.5H132.125V19H150.875V25.25H157.125V37.75H150.875V44H125.875V37.75H119.625V31.5H132.125V37.75H144.625V25.25H125.875V19H119.625V6.5H125.875V0.249999H150.875V6.5H157.125V12.75H144.625V6.5ZM163.375 44V0.249999H194.625V6.5H175.875V19L194.625 19V25.25L175.875 25.25V37.75L194.625 37.75V44L163.375 44ZM225.875 6.5H213.375V19H225.875V6.5ZM232.125 25.25H238.375V44H225.875V25.25H213.375V44H200.875V0.249999H232.125V6.5H238.375V19H232.125V25.25ZM269.625 31.5V0.249999H282.125V31.5H275.875V37.75H269.625V44H257.125V37.75H250.875V31.5H244.625V0.249999L257.125 0.249999V31.5H269.625ZM288.375 44V0.249999H300.875V44H288.375ZM332.125 31.5H344.625V37.75H338.375V44H313.375V37.75H307.125V6.5H313.375V0.249999H338.375V6.5H344.625V12.75H332.125V6.5H319.625V37.75H332.125V31.5ZM350.875 44V0.249999L382.125 0.249999V6.5L363.375 6.5V19H382.125V25.25H363.375V37.75H382.125V44H350.875ZM413.375 6.5H400.875V19H419.625V25.25H425.875V37.75H419.625V44H394.625V37.75H388.375V31.5H400.875V37.75H413.375V25.25H394.625V19H388.375V6.5H394.625V0.249999H419.625V6.5H425.875V12.75H413.375V6.5Z" fill="#F3F3F3"/>
</svg>
