<svg width="1356" height="121" viewBox="0 0 1356 121" fill="none" xmlns="http://www.w3.org/2000/svg">
<g filter="url(#filter0_d)">
<path d="M81.0838 54.3137H103.985L95.0104 98.8789C89.5429 103.108 83.1985 106.358 75.9773 108.627C68.7561 110.897 61.277 112.032 53.54 112.032C42.7082 112.032 33.2691 110.072 25.2226 106.152C17.1761 102.232 10.935 96.7125 6.49908 89.5945C2.16636 82.4764 0 74.2752 0 64.9908C0 52.7148 2.8369 41.6251 8.5107 31.7217C14.1845 21.8183 22.1794 14.0813 32.4954 8.51071C42.8114 2.83691 54.6748 0 68.0856 0C78.4016 0 87.3249 1.59898 94.8556 4.79694C102.489 7.9949 108.627 12.6887 113.27 18.8783L95.3199 33.4238C91.7093 29.1943 87.6344 26.1511 83.0954 24.2942C78.5563 22.3342 73.192 21.3541 67.0024 21.3541C58.7496 21.3541 51.4768 23.211 45.1841 26.9248C38.8913 30.5354 33.9912 35.5386 30.4838 41.9345C27.0795 48.3305 25.3774 55.5001 25.3774 63.4434C25.3774 71.7994 28.0595 78.4532 33.4238 83.4049C38.8913 88.2534 46.6799 90.6776 56.7896 90.6776C63.1855 90.6776 69.1688 89.3881 74.7394 86.8091L81.0838 54.3137Z" fill="white"/>
<path d="M158.529 21.9731L153.887 45.4936H204.177L200.309 64.9908H149.863L144.912 90.0587H204.022L199.844 110.175H115.975L137.639 1.85687H219.496L215.318 21.9731H158.529Z" fill="white"/>
<path d="M340.797 1.85687L319.133 110.175H298.553L258.166 42.3988L244.548 110.175H219.79L241.454 1.85687H262.189L302.576 69.7878L316.038 1.85687H340.797Z" fill="white"/>
<path d="M387.314 21.9731L382.672 45.4936H432.963L429.094 64.9908H378.649L373.697 90.0587H432.808L428.63 110.175H344.761L366.424 1.85687H448.282L444.104 21.9731H387.314Z" fill="white"/>
<path d="M556.739 35.4355C556.739 45.5451 554.005 54.2106 548.538 61.4318C543.07 68.653 535.488 73.7594 525.791 76.7511L544.669 110.175H518.208L501.187 79.8458H479.833L473.798 110.175H448.576L470.239 1.85687H514.34C527.751 1.85687 538.17 4.79694 545.598 10.6771C553.025 16.5572 556.739 24.81 556.739 35.4355ZM505.056 59.8844C513.412 59.8844 519.859 57.9759 524.398 54.159C529.04 50.3421 531.361 44.8746 531.361 37.7566C531.361 32.5986 529.608 28.7301 526.1 26.1511C522.593 23.5721 517.59 22.2826 511.09 22.2826H491.284L483.702 59.8844H505.056Z" fill="white"/>
<path d="M639.424 86.9639H588.979L574.898 110.175H548.128L618.225 1.85687H642.983L669.599 110.175H644.531L639.424 86.9639ZM635.246 67.9309L626.117 26.1511L600.585 67.9309H635.246Z" fill="white"/>
<path d="M715.32 22.2826H680.658L684.836 1.85687H779.227L775.049 22.2826H740.542L722.902 110.175H697.834L715.32 22.2826Z" fill="white"/>
<path d="M792.715 1.85687H817.938L796.274 110.175H771.051L792.715 1.85687Z" fill="white"/>
<path d="M877.996 112.032C867.164 112.032 857.777 110.072 849.833 106.152C841.89 102.232 835.804 96.7125 831.574 89.5945C827.344 82.4764 825.23 74.2752 825.23 64.9908C825.23 52.7148 828.015 41.6766 833.586 31.8764C839.259 21.9731 847.151 14.1845 857.261 8.51071C867.474 2.83691 879.131 0 892.232 0C903.064 0 912.451 1.96005 920.395 5.88013C928.338 9.80021 934.424 15.3193 938.654 22.4373C942.884 29.5553 944.998 37.7566 944.998 47.041C944.998 59.317 942.162 70.4067 936.488 80.3101C930.917 90.1103 923.025 97.8473 912.812 103.521C902.703 109.195 891.097 112.032 877.996 112.032ZM880.162 90.6776C888.106 90.6776 895.069 88.7692 901.052 84.9523C907.036 81.1354 911.626 76.0289 914.824 69.633C918.022 63.2371 919.621 56.1706 919.621 48.4336C919.621 40.1808 917.042 33.6302 911.884 28.7816C906.726 23.83 899.453 21.3541 890.066 21.3541C882.122 21.3541 875.159 23.2626 869.176 27.0795C863.193 30.8964 858.602 36.0028 855.404 42.3988C852.206 48.7947 850.607 55.8611 850.607 63.5981C850.607 71.8509 853.186 78.4532 858.344 83.4049C863.502 88.2534 870.775 90.6776 880.162 90.6776Z" fill="white"/>
<path d="M1073.39 1.85687L1051.73 110.175H1031.15L990.763 42.3988L977.146 110.175H952.387L974.051 1.85687H994.786L1035.17 69.7878L1048.64 1.85687H1073.39Z" fill="white"/>
<path d="M1156.58 41.4703L1105.21 91.6061H1147.92L1144.21 110.175H1069.93L1072.87 95.6293L1124.24 45.4936H1084.17L1087.88 26.9248H1159.37L1156.58 41.4703Z" fill="white"/>
<path d="M1265.36 18.1046L1192.48 89.7492H1253.14L1248.96 110.175H1154.26L1157.51 93.9272L1230.55 22.2826H1173.45L1177.62 1.85687H1268.61L1265.36 18.1046Z" fill="white"/>
<path d="M1344.42 41.4703L1293.05 91.6061H1335.75L1332.04 110.175H1257.76L1260.7 95.6293L1312.08 45.4936H1272L1275.71 26.9248H1347.2L1344.42 41.4703Z" fill="white"/>
</g>
<defs>
<filter id="filter0_d" x="0" y="0" width="1355.2" height="120.032" filterUnits="userSpaceOnUse" color-interpolation-filters="sRGB">
<feFlood flood-opacity="0" result="BackgroundImageFix"/>
<feColorMatrix in="SourceAlpha" type="matrix" values="0 0 0 0 0 0 0 0 0 0 0 0 0 0 0 0 0 0 127 0"/>
<feOffset dx="8" dy="8"/>
<feColorMatrix type="matrix" values="0 0 0 0 0.960784 0 0 0 0 0.12549 0 0 0 0 0.627451 0 0 0 1 0"/>
<feBlend mode="normal" in2="BackgroundImageFix" result="effect1_dropShadow"/>
<feBlend mode="normal" in="SourceGraphic" in2="effect1_dropShadow" result="shape"/>
</filter>
</defs>
</svg>
