<svg width="1863" height="1187" viewBox="0 0 1863 1187" fill="none" xmlns="http://www.w3.org/2000/svg">
<path d="M769.624 189.682L693.829 94.494L779.446 101.798L776.635 198.488L769.624 189.682Z" fill="#007AE0"/>
<path d="M917.54 375.445L841.745 280.257L927.362 287.561L924.551 384.251L917.54 375.445Z" fill="#007AE0"/>
<path d="M831.307 267.957L787.297 212.686L837.01 216.927L835.378 273.07L831.307 267.957Z" fill="#007AE0"/>
<path d="M835.532 194.057L791.522 138.786L789.89 194.929L839.603 199.17L835.532 194.057Z" fill="#007AE0"/>
<path d="M857.527 194.199L790.29 109.758L866.24 116.238L863.747 202.011L857.527 194.199Z" fill="#007AE0"/>
<path d="M945.128 274.275L846.813 265.887L902.281 209.818L954.224 275.051L945.128 274.275Z" fill="#007AE0"/>
<path d="M2 0V1090.32L1863 1186.42V753.378L1327.18 899.308L629.108 0H2Z" fill="#007AE0"/>
<path d="M1863 902.883V404.488L1454.41 587.927L-4 1089.7V1153.75L1863 902.883Z" fill="#F9CC14"/>
<path d="M1862.07 138.585V10.7037L1802.67 80.5596L1862.07 150.415V138.585Z" fill="#F9CC14"/>
<path d="M1862.07 388.151V260.269L1802.67 330.125L1862.07 399.981V388.151Z" fill="#F9CC14"/>
<path d="M1862.55 243.26V169.006L1828.06 209.568L1862.55 250.129V243.26Z" fill="#F9CC14"/>
<path d="M1815.6 191.431V117.178L1850.09 157.739L1815.6 198.301V191.431Z" fill="#F9CC14"/>
<path d="M1799.32 208.086V94.6434L1746.62 156.612L1799.32 218.581V208.086Z" fill="#F9CC14"/>
<path d="M1781.57 333.603L1849.78 253.386H1775.26V341.023L1781.57 333.603Z" fill="#F9CC14"/>
<path d="M1349.72 614.354L1214.25 665.329L1311.93 717.362L1362.25 609.638L1349.72 614.354Z" fill="black"/>
<path d="M1614.09 514.872L1478.62 565.848L1576.3 617.881L1626.62 510.156L1614.09 514.872Z" fill="black"/>
<path d="M1460.41 571.984L1381.75 601.583L1438.47 631.795L1467.69 569.246L1460.41 571.984Z" fill="black"/>
<path d="M1424.22 655.774L1345.56 685.373L1374.78 622.823L1431.5 653.036L1424.22 655.774Z" fill="black"/>
<path d="M1448.36 671.037L1328.18 716.257L1414.83 762.416L1459.47 666.854L1448.36 671.037Z" fill="black"/>
<path d="M1588.39 644.868L1476.23 585.118L1505.93 685.329L1598.77 650.395L1588.39 644.868Z" fill="black"/>
<path d="M521.889 146.184L641.713 297.933L652.546 143.917L510.804 132.146L521.889 146.184Z" fill="#0A0C10"/>
<path d="M144.635 287.948L196.488 139.228L93.398 189.69L139.838 301.706L144.635 287.948Z" fill="#0A0C10"/>
<path d="M631.97 345.106L603.218 445.224L669.256 407.6L634.629 335.844L631.97 345.106Z" fill="#0A0C10"/>
<path d="M430.439 605.412L290.444 633.571L381.073 701.284L443.39 602.807L430.439 605.412Z" fill="#0A0C10"/>
<path d="M466.289 93.1936L630.955 310.949L539.446 574.83L283.272 620.954L118.606 403.199L210.115 139.318L466.289 93.1936Z" fill="#0A0C10"/>
</svg>
