<svg width="676" height="676" viewBox="0 0 676 676" fill="none" xmlns="http://www.w3.org/2000/svg">
<rect x="0.230103" y="0.661621" width="675" height="672.829" fill="#2F2F2F"/>
<path d="M440.069 48.4108V0.661621H675.23V245.919H629.504V198.17H585.956V154.761H548.94V117.864H511.924V80.9671H472.73V48.4108H440.069Z" fill="#F2C94C"/>
<path d="M235.391 48.4108V0.661621H0.230118V245.919H45.9559V198.17H89.5043V154.761H126.52V117.864H163.537V80.9671H202.73V48.4108H235.391Z" fill="#00FFEC"/>
<path d="M440.069 627.912V675.661H675.23V430.404H629.504V478.153H585.956V521.562H548.94V558.459H511.924V595.356H472.73V627.912H440.069Z" fill="#771FE8"/>
<path d="M235.391 627.912V675.661H0.230057V430.404H45.9558V478.153H89.5042V521.562H126.52V558.459H163.536V595.356H202.73V627.912H235.391Z" fill="#FF0099"/>
<path d="M343.985 498.877L313.629 468.618L287.533 442.606L312.563 417.656L288.598 393.768L300.847 381.558L316.824 397.484L333.866 380.496L353.571 400.138L374.874 378.904L389.253 393.237L406.296 376.249L422.805 392.706L444.641 370.941L458.487 384.743L436.652 406.508L459.553 429.335L391.916 496.754L369.016 473.927L343.985 498.877Z" fill="#F2C94C"/>
<path d="M341.644 482.681L311.287 452.422L285.191 426.41L310.222 401.46L286.256 377.572L298.506 365.362L314.483 381.288L331.525 364.3L351.23 383.942L372.533 362.708L386.912 377.041L403.954 360.053L420.464 376.51L442.299 354.745L456.146 368.547L434.311 390.312L457.211 413.139L389.575 480.558L366.674 457.731L341.644 482.681Z" fill="#F2C94C"/>
<path fill-rule="evenodd" clip-rule="evenodd" d="M234.768 190.54L178.567 246.56L194.544 262.486L167.383 289.56L206.844 328.893L221.223 314.56L233.472 326.77L246.254 314.029L271.234 338.929L244.073 366.003L265.376 387.237L240.878 411.657L339.453 509.915L363.952 485.496L386.852 508.323L496.842 398.686L473.942 375.859L495.777 354.094L397.202 255.835L375.366 277.6L354.063 256.366L327.435 282.909L302.455 258.009L313.639 246.861L301.39 234.651L316.834 219.257L277.373 179.923L250.745 206.466L234.768 190.54ZM288.276 246.56L277.092 257.708L327.737 308.19L354.365 281.647L375.668 302.881L397.503 281.116L470.415 353.793L448.58 375.558L471.48 398.385L386.55 483.042L363.65 460.215L339.152 484.635L266.24 411.958L290.738 387.538L269.435 366.304L296.596 339.23L245.952 288.748L233.17 301.489L220.921 289.279L206.542 303.612L192.745 289.86L219.906 262.787L203.929 246.861L235.07 215.821L251.047 231.747L277.675 205.204L291.472 218.956L276.027 234.351L288.276 246.56Z" fill="#00FFEC" fill-opacity="0.75"/>
<path d="M339.302 466.485L308.946 436.226L282.85 410.214L307.88 385.264L283.915 361.375L296.164 349.166L312.141 365.091L329.183 348.104L348.888 367.746L370.191 346.511L384.57 360.845L401.613 343.857L418.122 360.314L439.958 338.549L453.804 352.351L431.969 374.116L454.87 396.943L387.233 464.362L364.333 441.535L339.302 466.485Z" fill="#F9CC14"/>
<path fill-rule="evenodd" clip-rule="evenodd" d="M233.543 170.193L177.342 226.213L193.319 242.139L166.158 269.212L205.619 308.546L219.998 294.213L232.247 306.423L245.029 293.682L270.009 318.582L242.848 345.656L264.151 366.89L239.653 391.309L338.228 489.568L362.727 465.149L385.627 487.976L495.618 378.339L472.717 355.512L494.552 333.747L395.977 235.488L374.141 257.253L352.838 236.019L326.21 262.562L301.23 237.662L312.414 226.514L300.165 214.304L315.609 198.909L276.149 159.576L249.52 186.118L233.543 170.193ZM287.051 226.213L275.867 237.361L326.512 287.843L353.14 261.3L374.443 282.534L396.278 260.769L469.19 333.446L447.355 355.211L470.255 378.038L385.325 462.695L362.425 439.868L337.927 464.287L265.015 391.61L289.513 367.191L268.21 345.957L295.371 318.883L244.727 268.401L231.945 281.142L219.696 268.932L205.317 283.265L191.52 269.513L218.681 242.439L202.704 226.514L233.845 195.474L249.822 211.399L276.45 184.856L290.247 198.608L274.802 214.003L287.051 226.213Z" fill="#00FFEC"/>
<path d="M338.078 446.137L307.721 415.878L281.626 389.866L306.656 364.916L282.691 341.028L294.94 328.818L310.917 344.744L327.959 327.756L347.664 347.398L368.967 326.164L383.346 340.497L400.388 323.509L416.898 339.966L438.733 318.201L452.58 332.003L430.745 353.768L453.645 376.595L386.009 444.014L363.109 421.187L338.078 446.137Z" fill="#F2C94C"/>
</svg>
