<svg width="3011" height="2414" viewBox="0 0 3011 2414" fill="none" xmlns="http://www.w3.org/2000/svg">
<path fill-rule="evenodd" clip-rule="evenodd" d="M0 520.185H87.6766V2326.32H0V520.185ZM2922.55 520.185H3010.23V2326.32H2922.55V520.185ZM1291.77 2238.65H87.6768V2326.32L1209.94 2326.32V2414H1806.14V2326.32L2922.55 2326.32V2238.65H1718.46V2326.32H1291.77V2238.65Z" fill="#F9CC14"/>
<path fill-rule="evenodd" clip-rule="evenodd" d="M1461.28 263H257.185V350.677H1461.28V263ZM1461.28 2074.98V350.677H175.354V2074.98H1461.28Z" fill="#F3F3F3"/>
<path fill-rule="evenodd" clip-rule="evenodd" d="M1548.95 263H2753.05V350.677H1548.95V263ZM1548.95 2074.98V350.677H2834.88V2074.98H1548.95Z" fill="#F3F3F3"/>
<path fill-rule="evenodd" clip-rule="evenodd" d="M175.353 438.353H87.6768V2238.65H175.353V438.353ZM1367.76 2074.98H175.354V2238.65H1367.76L1367.76 2168.51H1461.28V2074.98H1367.76ZM2834.88 438.353H2922.55V2238.65H2834.88L1642.48 2238.65L1642.48 2168.51H1548.95V2074.98H1642.48H2834.88L2834.88 438.353Z" fill="#DBDBDB"/>
<path fill-rule="evenodd" clip-rule="evenodd" d="M1548.95 344.832H1461.28V2074.98V2168.51H1367.76V2238.65H1291.77V2326.32H1718.46V2238.65H1642.48V2168.51H1548.95V2074.98V344.832Z" fill="#CCCCCC"/>
<path d="M331.344 473.148H345.016V521H331.344V500.492H317.672V521H304V473.148H317.672V493.656H331.344V473.148ZM351.852 521V473.148H365.523V521H351.852ZM372.359 527.836V514.164H379.195V527.836H372.359ZM420.211 500.492V521H413.375V473.148H427.047V486.82H447.555V473.148H461.227V521H447.555V500.492H440.719V514.164H427.047V500.492H420.211ZM495.406 493.656V473.148H509.078V493.656H502.242V500.492H495.406V521H481.734V500.492H474.898V493.656H468.062V473.148H481.734V493.656H495.406ZM550.094 500.492V521H543.258V473.148H556.93V486.82H563.766V500.492H570.602V473.148H584.273V521H570.602V514.164H556.93V500.492H550.094ZM618.453 500.492V479.984H604.781V500.492H618.453ZM604.781 507.328V521H591.109V479.984H597.945V473.148H625.289V479.984H632.125V521H618.453V507.328H604.781ZM645.797 500.492V521H638.961V473.148H652.633V486.82H673.141V473.148H686.812V521H673.141V500.492H666.305V514.164H652.633V500.492H645.797ZM693.648 521V473.148H727.828V479.984H707.32V493.656H727.828V500.492H707.32V514.164H727.828V521H693.648ZM762.008 521V473.148H775.68V521H762.008ZM809.859 479.984H796.188V493.656H816.695V500.492H823.531V514.164H816.695V521H789.352V514.164H782.516V507.328H796.188V514.164H809.859V500.492H789.352V493.656H782.516V479.984H789.352V473.148H816.695V479.984H823.531V486.82H809.859V479.984ZM885.055 500.492V479.984H871.383V500.492H885.055ZM871.383 507.328V521H857.711V479.984H864.547V473.148H891.891V479.984H898.727V521H885.055V507.328H871.383ZM932.906 479.984H919.234V493.656H932.906V479.984ZM939.742 500.492H946.578V521H932.906V500.492H919.234V521H905.562V473.148H939.742V479.984H946.578V493.656H939.742V500.492ZM980.758 479.984H967.086V493.656H987.594V500.492H994.43V514.164H987.594V521H960.25V514.164H953.414V507.328H967.086V514.164H980.758V500.492H960.25V493.656H953.414V479.984H960.25V473.148H987.594V479.984H994.43V486.82H980.758V479.984ZM1028.61 473.148H1042.28V521H1028.61V500.492H1014.94V521H1001.27V473.148H1014.94V493.656H1028.61V473.148ZM1076.46 500.492V479.984H1062.79V500.492H1076.46ZM1062.79 507.328V521H1049.12V479.984H1055.95V473.148H1083.3V479.984H1090.13V521H1076.46V507.328H1062.79ZM1103.8 500.492V521H1096.97V473.148H1110.64V486.82H1131.15V473.148H1144.82V521H1131.15V500.492H1124.31V514.164H1110.64V500.492H1103.8ZM1179 521V473.148H1192.67V521H1179ZM1254.2 500.492V479.984H1240.52V500.492H1254.2ZM1240.52 507.328V521H1226.85V479.984H1233.69V473.148H1261.03V479.984H1267.87V521H1254.2V507.328H1240.52ZM1281.54 500.492V521H1274.7V473.148H1288.38V486.82H1308.88V473.148H1322.55V521H1308.88V500.492H1302.05V514.164H1288.38V500.492H1281.54ZM331.344 612.492V591.984H317.672V612.492H331.344ZM317.672 619.328V633H304V591.984H310.836V585.148H338.18V591.984H345.016V633H331.344V619.328H317.672ZM406.539 627.019V633H386.031V626.164H379.195V591.984H386.031V585.148H420.211V598.82H413.375V591.984H392.867V626.164H405.685L406.539 625.31V612.492H399.703V605.656H420.211V633H413.375V626.164H407.394L406.539 627.019ZM454.391 612.492V591.984H440.719V612.492H454.391ZM440.719 619.328V633H427.047V591.984H433.883V585.148H461.227V591.984H468.062V633H454.391V619.328H440.719ZM481.734 612.492V633H474.898V585.148H488.57V598.82H509.078V585.148H522.75V633H509.078V612.492H502.242V626.164H488.57V612.492H481.734ZM529.586 633V585.148H563.766V591.984H543.258V605.656H563.766V612.492H543.258V626.164H563.766V633H529.586ZM597.945 591.984H584.273V605.656H597.945V591.984ZM604.781 612.492H611.617V633H597.945V612.492H584.273V633H570.602V585.148H604.781V591.984H611.617V605.656H604.781V612.492ZM673.141 612.492V591.984H659.469V612.492H673.141ZM659.469 619.328V633H645.797V591.984H652.633V585.148H679.977V591.984H686.812V633H673.141V619.328H659.469ZM700.484 612.492V633H693.648V585.148H707.32V598.82H714.156V612.492H720.992V585.148H734.664V633H720.992V626.164H707.32V612.492H700.484ZM768.844 591.984H755.172V626.164H768.844V591.984ZM741.5 633V585.148H775.68V591.984H782.516V626.164H775.68V633H741.5ZM844.039 612.492V591.984H830.367V612.492H844.039ZM830.367 619.328V633H816.695V591.984H823.531V585.148H850.875V591.984H857.711V633H844.039V619.328H830.367ZM919.234 627.019V633H898.727V626.164H891.891V591.984H898.727V585.148H932.906V598.82H926.07V591.984H905.562V626.164H918.38L919.234 625.31V612.492H912.398V605.656H932.906V633H926.07V626.164H920.089L919.234 627.019ZM967.086 612.492V591.984H953.414V612.492H967.086ZM953.414 619.328V633H939.742V591.984H946.578V585.148H973.922V591.984H980.758V633H967.086V619.328H953.414ZM994.43 612.492V633H987.594V585.148H1001.27V598.82H1021.77V585.148H1035.45V633H1021.77V612.492H1014.94V626.164H1001.27V612.492H994.43ZM1042.28 633V585.148H1076.46V591.984H1055.95V605.656H1076.46V612.492H1055.95V626.164H1076.46V633H1042.28ZM331.344 703.984H317.672V738.164H331.344V703.984ZM304 745V697.148H338.18V703.984H345.016V738.164H338.18V745H304ZM351.852 745V697.148H386.031V703.984H365.523V717.656H386.031V724.492H365.523V738.164H386.031V745H351.852ZM420.211 731.328V697.148H433.883V731.328H427.047V738.164H420.211V745H406.539V738.164H399.703V731.328H392.867V697.148H406.539V731.328H420.211ZM440.719 745V697.148H474.898V703.984H454.391V717.656H474.898V724.492H454.391V738.164H474.898V745H440.719ZM515.914 736.455V745H481.734V697.148H495.406V736.455H515.914ZM550.094 703.984H536.422V738.164H550.094V703.984ZM529.586 738.164H522.75V703.984H529.586V697.148H556.93V703.984H563.766V738.164H556.93V745H529.586V738.164ZM597.945 703.984H584.273V717.656H597.945V703.984ZM604.781 717.656V724.492H584.273V745H570.602V697.148H604.781V703.984H611.617V717.656H604.781ZM618.453 745V697.148H652.633V703.984H632.125V717.656H652.633V724.492H632.125V738.164H652.633V745H618.453ZM686.812 703.984H673.141V717.656H686.812V703.984ZM693.648 724.492H700.484V745H686.812V724.492H673.141V745H659.469V697.148H693.648V703.984H700.484V717.656H693.648V724.492ZM707.32 745V738.164H714.156V745H707.32ZM755.172 724.492V745H748.336V697.148H762.008V710.82H782.516V697.148H796.188V745H782.516V724.492H775.68V738.164H762.008V724.492H755.172ZM830.367 717.656V697.148H844.039V717.656H837.203V724.492H830.367V745H816.695V724.492H809.859V717.656H803.023V697.148H816.695V717.656H830.367ZM905.562 703.984H891.891V738.164H905.562V703.984ZM878.219 745V697.148H912.398V703.984H919.234V738.164H912.398V745H878.219ZM953.414 703.984H939.742V717.656H953.414V703.984ZM960.25 724.492H967.086V745H953.414V724.492H939.742V745H926.07V697.148H960.25V703.984H967.086V717.656H960.25V724.492ZM973.922 745V697.148H1008.1V703.984H987.594V717.656H1008.1V724.492H987.594V738.164H1008.1V745H973.922ZM1042.28 724.492V703.984H1028.61V724.492H1042.28ZM1028.61 731.328V745H1014.94V703.984H1021.77V697.148H1049.12V703.984H1055.95V745H1042.28V731.328H1028.61ZM1069.62 724.492V745H1062.79V697.148H1076.46V710.82H1096.97V697.148H1110.64V745H1096.97V724.492H1090.13V738.164H1076.46V724.492H1069.62ZM1165.33 697.148H1179V738.164H1172.16V745H1144.82V731.328H1151.66V738.164H1165.33V697.148ZM1213.18 703.984H1199.51V738.164H1213.18V703.984ZM1192.67 738.164H1185.84V703.984H1192.67V697.148H1220.02V703.984H1226.85V738.164H1220.02V745H1192.67V738.164ZM1261.03 703.984H1247.36V717.656H1261.03V703.984ZM1233.69 745V697.148H1267.87V703.984H1274.7V717.656H1267.87V724.492H1274.7V738.164H1267.87V745H1233.69ZM1261.03 738.164V724.492H1247.36V738.164H1261.03ZM1308.88 745V697.148H1322.55V745H1308.88ZM1356.73 703.984H1343.06V717.656H1363.57V724.492H1370.41V738.164H1363.57V745H1336.23V738.164H1329.39V731.328H1343.06V738.164H1356.73V724.492H1336.23V717.656H1329.39V703.984H1336.23V697.148H1363.57V703.984H1370.41V710.82H1356.73V703.984ZM345.016 809.148V815.984H331.344V857H317.672V815.984H304V809.148H345.016ZM379.195 809.148H392.867V857H379.195V836.492H365.523V857H351.852V809.148H365.523V829.656H379.195V809.148ZM427.047 836.492V815.984H413.375V836.492H427.047ZM413.375 843.328V857H399.703V815.984H406.539V809.148H433.883V815.984H440.719V857H427.047V843.328H413.375ZM488.57 809.148V815.984H474.898V857H461.227V815.984H447.555V809.148H488.57ZM522.75 857V809.148H536.422V857H522.75ZM611.617 829.656V809.148H618.453V857H604.781V843.328H584.273V857H570.602V809.148H584.273V829.656H591.109V815.984H604.781V829.656H611.617ZM652.633 836.492V815.984H638.961V836.492H652.633ZM638.961 843.328V857H625.289V815.984H632.125V809.148H659.469V815.984H666.305V857H652.633V843.328H638.961ZM679.977 836.492V857H673.141V809.148H686.812V822.82H693.648V836.492H700.484V809.148H714.156V857H700.484V850.164H686.812V836.492H679.977ZM762.008 809.148V815.984H748.336V857H734.664V815.984H720.992V809.148H762.008ZM837.203 809.148V815.984H823.531V857H809.859V815.984H796.188V809.148H837.203ZM871.383 815.984H857.711V850.164H871.383V815.984ZM850.875 850.164H844.039V815.984H850.875V809.148H878.219V815.984H885.055V850.164H878.219V857H850.875V850.164ZM946.578 815.984H932.906V829.656H946.578V815.984ZM919.234 857V809.148H953.414V815.984H960.25V829.656H953.414V836.492H960.25V850.164H953.414V857H919.234ZM946.578 850.164V836.492H932.906V850.164H946.578ZM967.086 857V809.148H1001.27V815.984H980.758V829.656H1001.27V836.492H980.758V850.164H1001.27V857H967.086ZM1062.79 836.492V815.984H1049.12V836.492H1062.79ZM1049.12 843.328V857H1035.45V815.984H1042.28V809.148H1069.62V815.984H1076.46V857H1062.79V843.328H1049.12ZM1137.98 851.019V857H1117.48V850.164H1110.64V815.984H1117.48V809.148H1151.66V822.82H1144.82V815.984H1124.31V850.164H1137.13L1137.98 849.31V836.492H1131.15V829.656H1151.66V857H1144.82V850.164H1138.84L1137.98 851.019ZM1185.84 836.492V815.984H1172.16V836.492H1185.84ZM1172.16 843.328V857H1158.49V815.984H1165.33V809.148H1192.67V815.984H1199.51V857H1185.84V843.328H1172.16ZM1213.18 836.492V857H1206.34V809.148H1220.02V822.82H1240.52V809.148H1254.2V857H1240.52V836.492H1233.69V850.164H1220.02V836.492H1213.18ZM1261.03 857V809.148H1295.21V815.984H1274.7V829.656H1295.21V836.492H1274.7V850.164H1295.21V857H1261.03ZM331.344 927.984H317.672V962.164H331.344V927.984ZM304 969V921.148H338.18V927.984H345.016V962.164H338.18V969H304ZM351.852 969V921.148H386.031V927.984H365.523V941.656H386.031V948.492H365.523V962.164H386.031V969H351.852ZM420.211 955.328V921.148H433.883V955.328H427.047V962.164H420.211V969H406.539V962.164H399.703V955.328H392.867V921.148H406.539V955.328H420.211ZM440.719 969V921.148H474.898V927.984H454.391V941.656H474.898V948.492H454.391V962.164H474.898V969H440.719ZM515.914 960.455V969H481.734V921.148H495.406V960.455H515.914ZM550.094 927.984H536.422V962.164H550.094V927.984ZM529.586 962.164H522.75V927.984H529.586V921.148H556.93V927.984H563.766V962.164H556.93V969H529.586V962.164ZM597.945 927.984H584.273V941.656H597.945V927.984ZM604.781 941.656V948.492H584.273V969H570.602V921.148H604.781V927.984H611.617V941.656H604.781ZM618.453 969V921.148H652.633V927.984H632.125V941.656H652.633V948.492H632.125V962.164H652.633V969H618.453ZM686.812 927.984H673.141V941.656H686.812V927.984ZM693.648 948.492H700.484V969H686.812V948.492H673.141V969H659.469V921.148H693.648V927.984H700.484V941.656H693.648V948.492ZM768.844 921.148V927.984H748.336V941.656H768.844V948.492H748.336V969H734.664V921.148H768.844ZM803.023 927.984H789.352V962.164H803.023V927.984ZM782.516 962.164H775.68V927.984H782.516V921.148H809.859V927.984H816.695V962.164H809.859V969H782.516V962.164ZM850.875 927.984H837.203V941.656H850.875V927.984ZM857.711 948.492H864.547V969H850.875V948.492H837.203V969H823.531V921.148H857.711V927.984H864.547V941.656H857.711V948.492ZM932.906 921.148V927.984H912.398V941.656H932.906V948.492H912.398V969H898.727V921.148H932.906ZM967.086 948.492V927.984H953.414V948.492H967.086ZM953.414 955.328V969H939.742V927.984H946.578V921.148H973.922V927.984H980.758V969H967.086V955.328H953.414ZM994.43 948.492V969H987.594V921.148H1001.27V934.82H1021.77V921.148H1035.45V969H1021.77V948.492H1014.94V962.164H1001.27V948.492H994.43ZM1069.62 927.984H1055.95V962.164H1069.62V927.984ZM1049.12 962.164H1042.28V927.984H1049.12V921.148H1076.46V927.984H1083.3V962.164H1076.46V969H1049.12V962.164ZM1117.48 921.148H1131.15V969H1096.97V962.164H1090.13V921.148H1103.8V962.164H1117.48V921.148ZM1165.33 927.984H1151.66V941.656H1172.16V948.492H1179V962.164H1172.16V969H1144.82V962.164H1137.98V955.328H1151.66V962.164H1165.33V948.492H1144.82V941.656H1137.98V927.984H1144.82V921.148H1172.16V927.984H1179V934.82H1165.33V927.984ZM331.344 1075.02V1081H310.836V1074.16H304V1039.98H310.836V1033.15H345.016V1046.82H338.18V1039.98H317.672V1074.16H330.489L331.344 1073.31V1060.49H324.508V1053.66H345.016V1081H338.18V1074.16H332.198L331.344 1075.02ZM379.195 1060.49V1039.98H365.523V1060.49H379.195ZM365.523 1067.33V1081H351.852V1039.98H358.688V1033.15H386.031V1039.98H392.867V1081H379.195V1067.33H365.523ZM406.539 1060.49V1081H399.703V1033.15H413.375V1046.82H433.883V1033.15H447.555V1081H433.883V1060.49H427.047V1074.16H413.375V1060.49H406.539ZM454.391 1081V1033.15H488.57V1039.98H468.062V1053.66H488.57V1060.49H468.062V1074.16H488.57V1081H454.391ZM529.586 1060.49V1081H522.75V1033.15H536.422V1046.82H556.93V1033.15H570.602V1081H556.93V1060.49H550.094V1074.16H536.422V1060.49H529.586ZM604.781 1060.49V1039.98H591.109V1060.49H604.781ZM591.109 1067.33V1081H577.438V1039.98H584.273V1033.15H611.617V1039.98H618.453V1081H604.781V1067.33H591.109ZM638.961 1081H625.289V1033.15H638.961V1053.66H645.797V1046.82H652.633V1033.15H666.305V1046.82H659.469V1053.66H652.633V1060.49H659.469V1067.33H666.305V1081H652.633V1067.33H645.797V1060.49H638.961V1081ZM673.141 1081V1033.15H686.812V1081H673.141ZM700.484 1060.49V1081H693.648V1033.15H707.32V1046.82H714.156V1060.49H720.992V1033.15H734.664V1081H720.992V1074.16H707.32V1060.49H700.484ZM768.844 1075.02V1081H748.336V1074.16H741.5V1039.98H748.336V1033.15H782.516V1046.82H775.68V1039.98H755.172V1074.16H767.989L768.844 1073.31V1060.49H762.008V1053.66H782.516V1081H775.68V1074.16H769.698L768.844 1075.02ZM844.039 1067.33H857.711V1074.16H850.875V1081H823.531V1074.16H816.695V1039.98H823.531V1033.15H850.875V1039.98H857.711V1046.82H844.039V1039.98H830.367V1074.16H844.039V1067.33ZM891.891 1039.98H878.219V1074.16H891.891V1039.98ZM871.383 1074.16H864.547V1039.98H871.383V1033.15H898.727V1039.98H905.562V1074.16H898.727V1081H871.383V1074.16ZM919.234 1060.49V1081H912.398V1033.15H926.07V1046.82H946.578V1033.15H960.25V1081H946.578V1060.49H939.742V1074.16H926.07V1060.49H919.234ZM994.43 1039.98H980.758V1053.66H994.43V1039.98ZM1001.27 1053.66V1060.49H980.758V1081H967.086V1033.15H1001.27V1039.98H1008.1V1053.66H1001.27ZM1042.28 1060.49V1039.98H1028.61V1060.49H1042.28ZM1028.61 1067.33V1081H1014.94V1039.98H1021.77V1033.15H1049.12V1039.98H1055.95V1081H1042.28V1067.33H1028.61ZM1069.62 1060.49V1081H1062.79V1033.15H1076.46V1046.82H1083.3V1060.49H1090.13V1033.15H1103.8V1081H1090.13V1074.16H1076.46V1060.49H1069.62ZM1110.64 1081V1033.15H1124.31V1081H1110.64ZM1131.15 1081V1033.15H1165.33V1039.98H1144.82V1053.66H1165.33V1060.49H1144.82V1074.16H1165.33V1081H1131.15ZM1199.51 1039.98H1185.84V1053.66H1206.34V1060.49H1213.18V1074.16H1206.34V1081H1179V1074.16H1172.16V1067.33H1185.84V1074.16H1199.51V1060.49H1179V1053.66H1172.16V1039.98H1179V1033.15H1206.34V1039.98H1213.18V1046.82H1199.51V1039.98ZM338.18 1184.46V1193H304V1145.15H317.672V1184.46H338.18ZM345.016 1193V1145.15H358.688V1193H345.016ZM379.195 1193H365.523V1145.15H379.195V1165.66H386.031V1158.82H392.867V1145.15H406.539V1158.82H399.703V1165.66H392.867V1172.49H399.703V1179.33H406.539V1193H392.867V1179.33H386.031V1172.49H379.195V1193ZM413.375 1193V1145.15H447.555V1151.98H427.047V1165.66H447.555V1172.49H427.047V1186.16H447.555V1193H413.375ZM481.734 1193V1145.15H495.406V1193H481.734ZM509.078 1172.49V1193H502.242V1145.15H515.914V1158.82H522.75V1172.49H529.586V1145.15H543.258V1193H529.586V1186.16H515.914V1172.49H509.078ZM577.438 1151.98H563.766V1165.66H584.273V1172.49H591.109V1186.16H584.273V1193H556.93V1186.16H550.094V1179.33H563.766V1186.16H577.438V1172.49H556.93V1165.66H550.094V1151.98H556.93V1145.15H584.273V1151.98H591.109V1158.82H577.438V1151.98ZM625.289 1151.98H611.617V1186.16H625.289V1151.98ZM604.781 1186.16H597.945V1151.98H604.781V1145.15H632.125V1151.98H638.961V1186.16H632.125V1193H604.781V1186.16ZM652.633 1172.49V1193H645.797V1145.15H659.469V1158.82H679.977V1145.15H693.648V1193H679.977V1172.49H673.141V1186.16H659.469V1172.49H652.633ZM707.32 1172.49V1193H700.484V1145.15H714.156V1158.82H720.992V1172.49H727.828V1145.15H741.5V1193H727.828V1186.16H714.156V1172.49H707.32ZM748.336 1193V1145.15H762.008V1193H748.336ZM796.188 1172.49V1151.98H782.516V1172.49H796.188ZM782.516 1179.33V1193H768.844V1151.98H775.68V1145.15H803.023V1151.98H809.859V1193H796.188V1179.33H782.516ZM844.039 1179.33H857.711V1186.16H850.875V1193H823.531V1186.16H816.695V1151.98H823.531V1145.15H850.875V1151.98H857.711V1158.82H844.039V1151.98H830.367V1186.16H844.039V1179.33ZM919.234 1172.49V1151.98H905.562V1172.49H919.234ZM905.562 1179.33V1193H891.891V1151.98H898.727V1145.15H926.07V1151.98H932.906V1193H919.234V1179.33H905.562ZM946.578 1172.49V1193H939.742V1145.15H953.414V1158.82H960.25V1172.49H967.086V1145.15H980.758V1193H967.086V1186.16H953.414V1172.49H946.578ZM1014.94 1151.98H1001.27V1186.16H1014.94V1151.98ZM987.594 1193V1145.15H1021.77V1151.98H1028.61V1186.16H1021.77V1193H987.594ZM331.344 1284.49V1263.98H317.672V1284.49H331.344ZM317.672 1291.33V1305H304V1263.98H310.836V1257.15H338.18V1263.98H345.016V1305H331.344V1291.33H317.672ZM379.195 1291.33H392.867V1298.16H386.031V1305H358.688V1298.16H351.852V1263.98H358.688V1257.15H386.031V1263.98H392.867V1270.82H379.195V1263.98H365.523V1298.16H379.195V1291.33ZM440.719 1257.15V1263.98H427.047V1305H413.375V1263.98H399.703V1257.15H440.719ZM447.555 1305V1257.15H461.227V1305H447.555ZM495.406 1291.33V1257.15H509.078V1291.33H502.242V1298.16H495.406V1305H481.734V1298.16H474.898V1291.33H468.062V1257.15H481.734V1291.33H495.406ZM515.914 1305V1257.15H529.586V1305H515.914ZM563.766 1263.98H550.094V1277.66H570.602V1284.49H577.438V1298.16H570.602V1305H543.258V1298.16H536.422V1291.33H550.094V1298.16H563.766V1284.49H543.258V1277.66H536.422V1263.98H543.258V1257.15H570.602V1263.98H577.438V1270.82H563.766V1263.98ZM584.273 1305V1257.15H597.945V1305H584.273ZM632.125 1263.98H618.453V1298.16H632.125V1263.98ZM611.617 1298.16H604.781V1263.98H611.617V1257.15H638.961V1263.98H645.797V1298.16H638.961V1305H611.617V1298.16ZM659.469 1284.49V1305H652.633V1257.15H666.305V1270.82H673.141V1284.49H679.977V1257.15H693.648V1305H679.977V1298.16H666.305V1284.49H659.469ZM700.484 1305V1298.16H707.32V1305H700.484ZM768.844 1257.15H782.516V1305H768.844V1284.49H755.172V1305H741.5V1257.15H755.172V1277.66H768.844V1257.15ZM816.695 1263.98H803.023V1298.16H816.695V1263.98ZM796.188 1298.16H789.352V1263.98H796.188V1257.15H823.531V1263.98H830.367V1298.16H823.531V1305H796.188V1298.16ZM878.219 1277.66V1257.15H885.055V1305H871.383V1291.33H850.875V1305H837.203V1257.15H850.875V1277.66H857.711V1263.98H871.383V1277.66H878.219ZM891.891 1305V1257.15H926.07V1263.98H905.562V1277.66H926.07V1284.49H905.562V1298.16H926.07V1305H891.891ZM960.25 1291.33V1257.15H973.922V1291.33H967.086V1298.16H960.25V1305H946.578V1298.16H939.742V1291.33H932.906V1257.15H946.578V1291.33H960.25ZM980.758 1305V1257.15H1014.94V1263.98H994.43V1277.66H1014.94V1284.49H994.43V1298.16H1014.94V1305H980.758ZM1049.12 1263.98H1035.45V1277.66H1049.12V1263.98ZM1055.95 1284.49H1062.79V1305H1049.12V1284.49H1035.45V1305H1021.77V1257.15H1055.95V1263.98H1062.79V1277.66H1055.95V1284.49ZM1069.62 1311.84V1298.16H1076.46V1311.84H1069.62ZM1110.64 1305V1257.15H1124.31V1305H1110.64ZM1137.98 1284.49V1305H1131.15V1257.15H1144.82V1270.82H1151.66V1284.49H1158.49V1257.15H1172.16V1305H1158.49V1298.16H1144.82V1284.49H1137.98ZM331.344 1375.98H317.672V1410.16H331.344V1375.98ZM310.836 1410.16H304V1375.98H310.836V1369.15H338.18V1375.98H345.016V1410.16H338.18V1417H310.836V1410.16ZM379.195 1375.98H365.523V1389.66H379.195V1375.98ZM386.031 1396.49H392.867V1417H379.195V1396.49H365.523V1417H351.852V1369.15H386.031V1375.98H392.867V1389.66H386.031V1396.49ZM427.047 1375.98H413.375V1410.16H427.047V1375.98ZM399.703 1417V1369.15H433.883V1375.98H440.719V1410.16H433.883V1417H399.703ZM447.555 1417V1369.15H481.734V1375.98H461.227V1389.66H481.734V1396.49H461.227V1410.16H481.734V1417H447.555ZM515.914 1375.98H502.242V1389.66H515.914V1375.98ZM522.75 1396.49H529.586V1417H515.914V1396.49H502.242V1417H488.57V1369.15H522.75V1375.98H529.586V1389.66H522.75V1396.49ZM604.781 1369.15V1375.98H591.109V1417H577.438V1375.98H563.766V1369.15H604.781ZM638.961 1375.98H625.289V1410.16H638.961V1375.98ZM618.453 1410.16H611.617V1375.98H618.453V1369.15H645.797V1375.98H652.633V1410.16H645.797V1417H618.453V1410.16ZM714.156 1375.98H700.484V1410.16H714.156V1375.98ZM686.812 1417V1369.15H720.992V1375.98H727.828V1410.16H720.992V1417H686.812ZM762.008 1375.98H748.336V1410.16H762.008V1375.98ZM741.5 1410.16H734.664V1375.98H741.5V1369.15H768.844V1375.98H775.68V1410.16H768.844V1417H741.5V1410.16ZM837.203 1375.98H823.531V1389.66H844.039V1396.49H850.875V1410.16H844.039V1417H816.695V1410.16H809.859V1403.33H823.531V1410.16H837.203V1396.49H816.695V1389.66H809.859V1375.98H816.695V1369.15H844.039V1375.98H850.875V1382.82H837.203V1375.98ZM885.055 1375.98H871.383V1410.16H885.055V1375.98ZM864.547 1410.16H857.711V1375.98H864.547V1369.15H891.891V1375.98H898.727V1410.16H891.891V1417H864.547V1410.16ZM905.562 1423.84V1410.16H912.398V1423.84H905.562ZM987.594 1389.66V1369.15H994.43V1417H980.758V1403.33H960.25V1417H946.578V1369.15H960.25V1389.66H967.086V1375.98H980.758V1389.66H987.594ZM1001.27 1417V1369.15H1035.45V1375.98H1014.94V1389.66H1035.45V1396.49H1014.94V1410.16H1035.45V1417H1001.27ZM1096.97 1396.49V1375.98H1083.3V1396.49H1096.97ZM1083.3 1403.33V1417H1069.62V1375.98H1076.46V1369.15H1103.8V1375.98H1110.64V1417H1096.97V1403.33H1083.3ZM1151.66 1408.46V1417H1117.48V1369.15H1131.15V1408.46H1151.66ZM1192.67 1408.46V1417H1158.49V1369.15H1172.16V1408.46H1192.67ZM331.344 1481.15H345.016V1529H331.344V1508.49H317.672V1529H304V1481.15H317.672V1501.66H331.344V1481.15ZM379.195 1508.49V1487.98H365.523V1508.49H379.195ZM365.523 1515.33V1529H351.852V1487.98H358.688V1481.15H386.031V1487.98H392.867V1529H379.195V1515.33H365.523ZM427.047 1515.33V1481.15H440.719V1515.33H433.883V1522.16H427.047V1529H413.375V1522.16H406.539V1515.33H399.703V1481.15H413.375V1515.33H427.047ZM447.555 1529V1481.15H481.734V1487.98H461.227V1501.66H481.734V1508.49H461.227V1522.16H481.734V1529H447.555ZM556.93 1481.15V1487.98H543.258V1529H529.586V1487.98H515.914V1481.15H556.93ZM591.109 1487.98H577.438V1522.16H591.109V1487.98ZM570.602 1522.16H563.766V1487.98H570.602V1481.15H597.945V1487.98H604.781V1522.16H597.945V1529H570.602V1522.16ZM666.305 1487.98H652.633V1501.66H673.141V1508.49H679.977V1522.16H673.141V1529H645.797V1522.16H638.961V1515.33H652.633V1522.16H666.305V1508.49H645.797V1501.66H638.961V1487.98H645.797V1481.15H673.141V1487.98H679.977V1494.82H666.305V1487.98ZM727.828 1481.15V1487.98H714.156V1529H700.484V1487.98H686.812V1481.15H727.828ZM762.008 1508.49V1487.98H748.336V1508.49H762.008ZM748.336 1515.33V1529H734.664V1487.98H741.5V1481.15H768.844V1487.98H775.68V1529H762.008V1515.33H748.336ZM809.859 1487.98H796.188V1501.66H809.859V1487.98ZM816.695 1508.49H823.531V1529H809.859V1508.49H796.188V1529H782.516V1481.15H816.695V1487.98H823.531V1501.66H816.695V1508.49ZM871.383 1481.15V1487.98H857.711V1529H844.039V1487.98H830.367V1481.15H871.383ZM932.906 1487.98H919.234V1501.66H939.742V1508.49H946.578V1522.16H939.742V1529H912.398V1522.16H905.562V1515.33H919.234V1522.16H932.906V1508.49H912.398V1501.66H905.562V1487.98H912.398V1481.15H939.742V1487.98H946.578V1494.82H932.906V1487.98ZM980.758 1487.98H967.086V1522.16H980.758V1487.98ZM960.25 1522.16H953.414V1487.98H960.25V1481.15H987.594V1487.98H994.43V1522.16H987.594V1529H960.25V1522.16ZM1008.1 1508.49V1529H1001.27V1481.15H1014.94V1494.82H1035.45V1481.15H1049.12V1529H1035.45V1508.49H1028.61V1522.16H1014.94V1508.49H1008.1ZM1055.95 1529V1481.15H1090.13V1487.98H1069.62V1501.66H1090.13V1508.49H1069.62V1522.16H1090.13V1529H1055.95ZM1137.98 1501.66V1481.15H1144.82V1529H1131.15V1515.33H1110.64V1529H1096.97V1481.15H1110.64V1501.66H1117.48V1487.98H1131.15V1501.66H1137.98ZM1179 1481.15H1192.67V1529H1179V1508.49H1165.33V1529H1151.66V1481.15H1165.33V1501.66H1179V1481.15ZM1199.51 1529V1481.15H1233.69V1487.98H1213.18V1501.66H1233.69V1508.49H1213.18V1522.16H1233.69V1529H1199.51ZM1267.87 1487.98H1254.2V1501.66H1267.87V1487.98ZM1274.7 1508.49H1281.54V1529H1267.87V1508.49H1254.2V1529H1240.52V1481.15H1274.7V1487.98H1281.54V1501.66H1274.7V1508.49ZM1288.38 1529V1481.15H1322.55V1487.98H1302.05V1501.66H1322.55V1508.49H1302.05V1522.16H1322.55V1529H1288.38ZM331.344 1620.49V1599.98H317.672V1620.49H331.344ZM317.672 1627.33V1641H304V1599.98H310.836V1593.15H338.18V1599.98H345.016V1641H331.344V1627.33H317.672ZM358.688 1620.49V1641H351.852V1593.15H365.523V1606.82H372.359V1620.49H379.195V1593.15H392.867V1641H379.195V1634.16H365.523V1620.49H358.688ZM427.047 1599.98H413.375V1634.16H427.047V1599.98ZM399.703 1641V1593.15H433.883V1599.98H440.719V1634.16H433.883V1641H399.703ZM515.914 1593.15V1599.98H502.242V1641H488.57V1599.98H474.898V1593.15H515.914ZM550.094 1593.15H563.766V1641H550.094V1620.49H536.422V1641H522.75V1593.15H536.422V1613.66H550.094V1593.15ZM570.602 1641V1593.15H584.273V1641H570.602ZM618.453 1599.98H604.781V1613.66H625.289V1620.49H632.125V1634.16H625.289V1641H597.945V1634.16H591.109V1627.33H604.781V1634.16H618.453V1620.49H597.945V1613.66H591.109V1599.98H597.945V1593.15H625.289V1599.98H632.125V1606.82H618.453V1599.98ZM666.305 1641V1593.15H679.977V1641H666.305ZM714.156 1599.98H700.484V1613.66H720.992V1620.49H727.828V1634.16H720.992V1641H693.648V1634.16H686.812V1627.33H700.484V1634.16H714.156V1620.49H693.648V1613.66H686.812V1599.98H693.648V1593.15H720.992V1599.98H727.828V1606.82H714.156V1599.98ZM803.023 1613.66V1593.15H809.859V1641H796.188V1627.33H775.68V1641H762.008V1593.15H775.68V1613.66H782.516V1599.98H796.188V1613.66H803.023ZM844.039 1593.15H857.711V1641H844.039V1620.49H830.367V1641H816.695V1593.15H830.367V1613.66H844.039V1593.15ZM864.547 1641V1593.15H898.727V1599.98H878.219V1613.66H898.727V1620.49H878.219V1634.16H898.727V1641H864.547ZM932.906 1599.98H919.234V1613.66H932.906V1599.98ZM939.742 1620.49H946.578V1641H932.906V1620.49H919.234V1641H905.562V1593.15H939.742V1599.98H946.578V1613.66H939.742V1620.49ZM953.414 1641V1593.15H987.594V1599.98H967.086V1613.66H987.594V1620.49H967.086V1634.16H987.594V1641H953.414ZM1021.77 1641V1593.15H1035.45V1641H1021.77ZM1096.97 1599.98H1083.3V1613.66H1096.97V1599.98ZM1069.62 1641V1593.15H1103.8V1599.98H1110.64V1613.66H1103.8V1620.49H1110.64V1634.16H1103.8V1641H1069.62ZM1096.97 1634.16V1620.49H1083.3V1634.16H1096.97ZM1117.48 1641V1593.15H1151.66V1599.98H1131.15V1613.66H1151.66V1620.49H1131.15V1634.16H1151.66V1641H1117.48ZM1185.84 1635.02V1641H1165.33V1634.16H1158.49V1599.98H1165.33V1593.15H1199.51V1606.82H1192.67V1599.98H1172.16V1634.16H1184.98L1185.84 1633.31V1620.49H1179V1613.66H1199.51V1641H1192.67V1634.16H1186.69L1185.84 1635.02ZM1233.69 1620.49V1599.98H1220.02V1620.49H1233.69ZM1220.02 1627.33V1641H1206.34V1599.98H1213.18V1593.15H1240.52V1599.98H1247.36V1641H1233.69V1627.33H1220.02ZM1261.03 1620.49V1641H1254.2V1593.15H1267.87V1606.82H1274.7V1620.49H1281.54V1593.15H1295.21V1641H1281.54V1634.16H1267.87V1620.49H1261.03ZM331.344 1711.98H317.672V1725.66H331.344V1711.98ZM304 1753V1705.15H338.18V1711.98H345.016V1725.66H338.18V1732.49H345.016V1746.16H338.18V1753H304ZM331.344 1746.16V1732.49H317.672V1746.16H331.344ZM379.195 1725.66V1705.15H392.867V1725.66H386.031V1732.49H379.195V1753H365.523V1732.49H358.688V1725.66H351.852V1705.15H365.523V1725.66H379.195ZM433.883 1732.49V1753H427.047V1705.15H440.719V1718.82H461.227V1705.15H474.898V1753H461.227V1732.49H454.391V1746.16H440.719V1732.49H433.883ZM509.078 1732.49V1711.98H495.406V1732.49H509.078ZM495.406 1739.33V1753H481.734V1711.98H488.57V1705.15H515.914V1711.98H522.75V1753H509.078V1739.33H495.406ZM543.258 1753H529.586V1705.15H543.258V1725.66H550.094V1718.82H556.93V1705.15H570.602V1718.82H563.766V1725.66H556.93V1732.49H563.766V1739.33H570.602V1753H556.93V1739.33H550.094V1732.49H543.258V1753ZM577.438 1753V1705.15H591.109V1753H577.438ZM604.781 1732.49V1753H597.945V1705.15H611.617V1718.82H618.453V1732.49H625.289V1705.15H638.961V1753H625.289V1746.16H611.617V1732.49H604.781ZM673.141 1747.02V1753H652.633V1746.16H645.797V1711.98H652.633V1705.15H686.812V1718.82H679.977V1711.98H659.469V1746.16H672.286L673.141 1745.31V1732.49H666.305V1725.66H686.812V1753H679.977V1746.16H673.995L673.141 1747.02ZM748.336 1732.49V1711.98H734.664V1732.49H748.336ZM734.664 1739.33V1753H720.992V1711.98H727.828V1705.15H755.172V1711.98H762.008V1753H748.336V1739.33H734.664ZM823.531 1711.98H809.859V1725.66H830.367V1732.49H837.203V1746.16H830.367V1753H803.023V1746.16H796.188V1739.33H809.859V1746.16H823.531V1732.49H803.023V1725.66H796.188V1711.98H803.023V1705.15H830.367V1711.98H837.203V1718.82H823.531V1711.98ZM844.039 1753V1705.15H857.711V1753H844.039ZM871.383 1732.49V1753H864.547V1705.15H878.219V1718.82H898.727V1705.15H912.398V1753H898.727V1732.49H891.891V1746.16H878.219V1732.49H871.383ZM946.578 1711.98H932.906V1725.66H946.578V1711.98ZM953.414 1725.66V1732.49H932.906V1753H919.234V1705.15H953.414V1711.98H960.25V1725.66H953.414ZM1001.27 1744.46V1753H967.086V1705.15H980.758V1744.46H1001.27ZM1008.1 1753V1705.15H1042.28V1711.98H1021.77V1725.66H1042.28V1732.49H1021.77V1746.16H1042.28V1753H1008.1ZM1103.8 1747.02V1753H1083.3V1746.16H1076.46V1711.98H1083.3V1705.15H1117.48V1718.82H1110.64V1711.98H1090.13V1746.16H1102.95L1103.8 1745.31V1732.49H1096.97V1725.66H1117.48V1753H1110.64V1746.16H1104.66L1103.8 1747.02ZM1151.66 1732.49V1711.98H1137.98V1732.49H1151.66ZM1137.98 1739.33V1753H1124.31V1711.98H1131.15V1705.15H1158.49V1711.98H1165.33V1753H1151.66V1739.33H1137.98ZM1179 1732.49V1753H1172.16V1705.15H1185.84V1718.82H1206.34V1705.15H1220.02V1753H1206.34V1732.49H1199.51V1746.16H1185.84V1732.49H1179ZM1226.85 1753V1705.15H1261.03V1711.98H1240.52V1725.66H1261.03V1732.49H1240.52V1746.16H1261.03V1753H1226.85ZM345.016 1837.66V1817.15H351.852V1865H338.18V1851.33H317.672V1865H304V1817.15H317.672V1837.66H324.508V1823.98H338.18V1837.66H345.016ZM358.688 1865V1817.15H372.359V1865H358.688ZM420.211 1817.15V1823.98H406.539V1865H392.867V1823.98H379.195V1817.15H420.211ZM454.391 1817.15H468.062V1865H454.391V1844.49H440.719V1865H427.047V1817.15H440.719V1837.66H454.391V1817.15ZM509.078 1844.49V1865H502.242V1817.15H515.914V1830.82H536.422V1817.15H550.094V1865H536.422V1844.49H529.586V1858.16H515.914V1844.49H509.078ZM584.273 1837.66V1817.15H597.945V1837.66H591.109V1844.49H584.273V1865H570.602V1844.49H563.766V1837.66H556.93V1817.15H570.602V1837.66H584.273ZM645.797 1865H632.125V1817.15H645.797V1837.66H652.633V1830.82H659.469V1817.15H673.141V1830.82H666.305V1837.66H659.469V1844.49H666.305V1851.33H673.141V1865H659.469V1851.33H652.633V1844.49H645.797V1865ZM686.812 1844.49V1865H679.977V1817.15H693.648V1830.82H700.484V1844.49H707.32V1817.15H720.992V1865H707.32V1858.16H693.648V1844.49H686.812ZM755.172 1823.98H741.5V1858.16H755.172V1823.98ZM734.664 1858.16H727.828V1823.98H734.664V1817.15H762.008V1823.98H768.844V1858.16H762.008V1865H734.664V1858.16ZM816.695 1837.66V1817.15H823.531V1865H809.859V1851.33H789.352V1865H775.68V1817.15H789.352V1837.66H796.188V1823.98H809.859V1837.66H816.695ZM864.547 1856.46V1865H830.367V1817.15H844.039V1856.46H864.547ZM871.383 1865V1817.15H905.562V1823.98H885.055V1837.66H905.562V1844.49H885.055V1858.16H905.562V1865H871.383ZM939.742 1823.98H926.07V1858.16H939.742V1823.98ZM912.398 1865V1817.15H946.578V1823.98H953.414V1858.16H946.578V1865H912.398ZM987.594 1859.02V1865H967.086V1858.16H960.25V1823.98H967.086V1817.15H1001.27V1830.82H994.43V1823.98H973.922V1858.16H986.739L987.594 1857.31V1844.49H980.758V1837.66H1001.27V1865H994.43V1858.16H988.448L987.594 1859.02ZM1008.1 1865V1817.15H1042.28V1823.98H1021.77V1837.66H1042.28V1844.49H1021.77V1858.16H1042.28V1865H1008.1ZM1049.12 1865V1858.16H1055.95V1865H1049.12Z" fill="#3E3E3E"/>
<path d="M1664 521V473.148H1677.67V521H1664ZM1739.2 500.492V479.984H1725.52V500.492H1739.2ZM1725.52 507.328V521H1711.85V479.984H1718.69V473.148H1746.03V479.984H1752.87V521H1739.2V507.328H1725.52ZM1766.54 500.492V521H1759.7V473.148H1773.38V486.82H1793.88V473.148H1807.55V521H1793.88V500.492H1787.05V514.164H1773.38V500.492H1766.54ZM1869.08 479.984H1855.41V493.656H1875.91V500.492H1882.75V514.164H1875.91V521H1848.57V514.164H1841.73V507.328H1855.41V514.164H1869.08V500.492H1848.57V493.656H1841.73V479.984H1848.57V473.148H1875.91V479.984H1882.75V486.82H1869.08V479.984ZM1930.6 473.148V479.984H1916.93V521H1903.26V479.984H1889.59V473.148H1930.6ZM1964.78 473.148H1978.45V521H1944.27V514.164H1937.44V473.148H1951.11V514.164H1964.78V473.148ZM2012.63 479.984H1998.96V514.164H2012.63V479.984ZM1985.29 521V473.148H2019.47V479.984H2026.3V514.164H2019.47V521H1985.29ZM2060.48 493.656V473.148H2074.16V493.656H2067.32V500.492H2060.48V521H2046.81V500.492H2039.98V493.656H2033.14V473.148H2046.81V493.656H2060.48ZM2080.99 521V473.148H2094.66V521H2080.99ZM2108.34 500.492V521H2101.5V473.148H2115.17V486.82H2122.01V500.492H2128.84V473.148H2142.52V521H2128.84V514.164H2115.17V500.492H2108.34ZM2176.7 515.019V521H2156.19V514.164H2149.35V479.984H2156.19V473.148H2190.37V486.82H2183.53V479.984H2163.02V514.164H2175.84L2176.7 513.31V500.492H2169.86V493.656H2190.37V521H2183.53V514.164H2177.55L2176.7 515.019ZM2251.89 500.492V479.984H2238.22V500.492H2251.89ZM2238.22 507.328V521H2224.55V479.984H2231.38V473.148H2258.73V479.984H2265.56V521H2251.89V507.328H2238.22ZM2313.41 473.148V479.984H2299.74V521H2286.07V479.984H2272.4V473.148H2313.41ZM2374.94 500.492V479.984H2361.27V500.492H2374.94ZM2361.27 507.328V521H2347.59V479.984H2354.43V473.148H2381.77V479.984H2388.61V521H2374.94V507.328H2361.27ZM2450.13 507.328H2463.8V514.164H2456.97V521H2429.62V514.164H2422.79V479.984H2429.62V473.148H2456.97V479.984H2463.8V486.82H2450.13V479.984H2436.46V514.164H2450.13V507.328ZM2470.64 521V473.148H2504.82V479.984H2484.31V493.656H2504.82V500.492H2484.31V514.164H2504.82V521H2470.64ZM2518.49 500.492V521H2511.66V473.148H2525.33V486.82H2532.16V500.492H2539V473.148H2552.67V521H2539V514.164H2525.33V500.492H2518.49ZM2600.52 473.148V479.984H2586.85V521H2573.18V479.984H2559.51V473.148H2600.52ZM2607.36 521V473.148H2641.54V479.984H2621.03V493.656H2641.54V500.492H2621.03V514.164H2641.54V521H2607.36ZM2675.72 479.984H2662.05V493.656H2675.72V479.984ZM2682.55 500.492H2689.39V521H2675.72V500.492H2662.05V521H2648.38V473.148H2682.55V479.984H2689.39V493.656H2682.55V500.492ZM1691.34 619.328H1705.02V626.164H1698.18V633H1670.84V626.164H1664V591.984H1670.84V585.148H1698.18V591.984H1705.02V598.82H1691.34V591.984H1677.67V626.164H1691.34V619.328ZM1739.2 612.492V591.984H1725.52V612.492H1739.2ZM1725.52 619.328V633H1711.85V591.984H1718.69V585.148H1746.03V591.984H1752.87V633H1739.2V619.328H1725.52ZM1793.88 624.455V633H1759.7V585.148H1773.38V624.455H1793.88ZM1834.9 624.455V633H1800.72V585.148H1814.39V624.455H1834.9ZM1841.73 633V585.148H1875.91V591.984H1855.41V605.656H1875.91V612.492H1855.41V626.164H1875.91V633H1841.73ZM1910.09 591.984H1896.42V626.164H1910.09V591.984ZM1882.75 633V585.148H1916.93V591.984H1923.77V626.164H1916.93V633H1882.75ZM1971.62 633H1957.95V585.148H1971.62V605.656H1978.45V598.82H1985.29V585.148H1998.96V598.82H1992.12V605.656H1985.29V612.492H1992.12V619.328H1998.96V633H1985.29V619.328H1978.45V612.492H1971.62V633ZM2005.8 633V585.148H2019.47V633H2005.8ZM2053.65 591.984H2039.98V626.164H2053.65V591.984ZM2026.3 633V585.148H2060.48V591.984H2067.32V626.164H2060.48V633H2026.3ZM2101.5 619.328H2115.17V626.164H2108.34V633H2080.99V626.164H2074.16V591.984H2080.99V585.148H2108.34V591.984H2115.17V598.82H2101.5V591.984H2087.83V626.164H2101.5V619.328ZM2149.35 591.984H2135.68V626.164H2149.35V591.984ZM2128.84 626.164H2122.01V591.984H2128.84V585.148H2156.19V591.984H2163.02V626.164H2156.19V633H2128.84V626.164ZM2197.2 591.984H2183.53V626.164H2197.2V591.984ZM2169.86 633V585.148H2204.04V591.984H2210.88V626.164H2204.04V633H2169.86ZM2217.71 633V585.148H2251.89V591.984H2231.38V605.656H2251.89V612.492H2231.38V626.164H2251.89V633H2217.71ZM2320.25 585.148V591.984H2299.74V605.656H2320.25V612.492H2299.74V633H2286.07V585.148H2320.25ZM2354.43 591.984H2340.76V626.164H2354.43V591.984ZM2333.92 626.164H2327.09V591.984H2333.92V585.148H2361.27V591.984H2368.1V626.164H2361.27V633H2333.92V626.164ZM2402.28 591.984H2388.61V605.656H2402.28V591.984ZM2409.12 612.492H2415.95V633H2402.28V612.492H2388.61V633H2374.94V585.148H2409.12V591.984H2415.95V605.656H2409.12V612.492ZM2477.48 612.492V591.984H2463.8V612.492H2477.48ZM2463.8 619.328V633H2450.13V591.984H2456.97V585.148H2484.31V591.984H2491.15V633H2477.48V619.328H2463.8ZM2525.33 591.984H2511.66V605.656H2525.33V591.984ZM2532.16 612.492H2539V633H2525.33V612.492H2511.66V633H2497.98V585.148H2532.16V591.984H2539V605.656H2532.16V612.492ZM2573.18 591.984H2559.51V626.164H2573.18V591.984ZM2552.67 626.164H2545.84V591.984H2552.67V585.148H2580.02V591.984H2586.85V626.164H2580.02V633H2552.67V626.164ZM2621.03 585.148H2634.7V633H2600.52V626.164H2593.69V585.148H2607.36V626.164H2621.03V585.148ZM2648.38 612.492V633H2641.54V585.148H2655.21V598.82H2662.05V612.492H2668.88V585.148H2682.55V633H2668.88V626.164H2655.21V612.492H2648.38ZM2716.73 591.984H2703.06V626.164H2716.73V591.984ZM2689.39 633V585.148H2723.57V591.984H2730.41V626.164H2723.57V633H2689.39ZM1698.18 731.328V745H1684.51V731.328H1664V697.148H1670.84V724.492H1684.51V697.148H1698.18V724.492H1705.02V731.328H1698.18ZM1766.54 717.656V697.148H1780.21V717.656H1773.38V724.492H1766.54V745H1752.87V724.492H1746.03V717.656H1739.2V697.148H1752.87V717.656H1766.54ZM1787.05 745V697.148H1821.23V703.984H1800.72V717.656H1821.23V724.492H1800.72V738.164H1821.23V745H1787.05ZM1855.41 724.492V703.984H1841.73V724.492H1855.41ZM1841.73 731.328V745H1828.06V703.984H1834.9V697.148H1862.24V703.984H1869.08V745H1855.41V731.328H1841.73ZM1903.26 703.984H1889.59V717.656H1903.26V703.984ZM1910.09 724.492H1916.93V745H1903.26V724.492H1889.59V745H1875.91V697.148H1910.09V703.984H1916.93V717.656H1910.09V724.492ZM1951.11 703.984H1937.44V717.656H1957.95V724.492H1964.78V738.164H1957.95V745H1930.6V738.164H1923.77V731.328H1937.44V738.164H1951.11V724.492H1930.6V717.656H1923.77V703.984H1930.6V697.148H1957.95V703.984H1964.78V710.82H1951.11V703.984ZM1971.62 745V738.164H1978.45V745H1971.62ZM2046.81 697.148V703.984H2026.3V717.656H2046.81V724.492H2026.3V745H2012.63V697.148H2046.81ZM2080.99 703.984H2067.32V717.656H2080.99V703.984ZM2087.83 724.492H2094.66V745H2080.99V724.492H2067.32V745H2053.65V697.148H2087.83V703.984H2094.66V717.656H2087.83V724.492ZM2128.84 703.984H2115.17V738.164H2128.84V703.984ZM2108.34 738.164H2101.5V703.984H2108.34V697.148H2135.68V703.984H2142.52V738.164H2135.68V745H2108.34V738.164ZM2156.19 724.492V745H2149.35V697.148H2163.02V710.82H2183.53V697.148H2197.2V745H2183.53V724.492H2176.7V738.164H2163.02V724.492H2156.19ZM2272.4 697.148V703.984H2258.73V745H2245.05V703.984H2231.38V697.148H2272.4ZM2306.58 697.148H2320.25V745H2306.58V724.492H2292.91V745H2279.23V697.148H2292.91V717.656H2306.58V697.148ZM2327.09 745V697.148H2361.27V703.984H2340.76V717.656H2361.27V724.492H2340.76V738.164H2361.27V745H2327.09ZM2395.45 703.984H2381.77V717.656H2395.45V703.984ZM2402.28 724.492H2409.12V745H2395.45V724.492H2381.77V745H2368.1V697.148H2402.28V703.984H2409.12V717.656H2402.28V724.492ZM2415.95 745V697.148H2450.13V703.984H2429.62V717.656H2450.13V724.492H2429.62V738.164H2450.13V745H2415.95ZM2456.97 751.836V738.164H2463.8V751.836H2456.97ZM2497.98 745V697.148H2511.66V745H2497.98ZM2573.18 697.148H2586.85V745H2573.18V724.492H2559.51V745H2545.84V697.148H2559.51V717.656H2573.18V697.148ZM2621.03 724.492V703.984H2607.36V724.492H2621.03ZM2607.36 731.328V745H2593.69V703.984H2600.52V697.148H2627.87V703.984H2634.7V745H2621.03V731.328H2607.36ZM2668.88 731.328V697.148H2682.55V731.328H2675.72V738.164H2668.88V745H2655.21V738.164H2648.38V731.328H2641.54V697.148H2655.21V731.328H2668.88ZM2689.39 745V697.148H2723.57V703.984H2703.06V717.656H2723.57V724.492H2703.06V738.164H2723.57V745H2689.39ZM1698.18 848.455V857H1664V809.148H1677.67V848.455H1698.18ZM1705.02 857V809.148H1739.2V815.984H1718.69V829.656H1739.2V836.492H1718.69V850.164H1739.2V857H1705.02ZM1773.38 836.492V815.984H1759.7V836.492H1773.38ZM1759.7 843.328V857H1746.03V815.984H1752.87V809.148H1780.21V815.984H1787.05V857H1773.38V843.328H1759.7ZM1821.23 815.984H1807.55V829.656H1821.23V815.984ZM1828.06 836.492H1834.9V857H1821.23V836.492H1807.55V857H1793.88V809.148H1828.06V815.984H1834.9V829.656H1828.06V836.492ZM1848.57 836.492V857H1841.73V809.148H1855.41V822.82H1862.24V836.492H1869.08V809.148H1882.75V857H1869.08V850.164H1855.41V836.492H1848.57ZM1889.59 857V809.148H1923.77V815.984H1903.26V829.656H1923.77V836.492H1903.26V850.164H1923.77V857H1889.59ZM1957.95 815.984H1944.27V850.164H1957.95V815.984ZM1930.6 857V809.148H1964.78V815.984H1971.62V850.164H1964.78V857H1930.6ZM2033.14 836.492V815.984H2019.47V836.492H2033.14ZM2019.47 843.328V857H2005.8V815.984H2012.63V809.148H2039.98V815.984H2046.81V857H2033.14V843.328H2019.47ZM2115.17 848.455V857H2080.99V809.148H2094.66V848.455H2115.17ZM2149.35 815.984H2135.68V850.164H2149.35V815.984ZM2128.84 850.164H2122.01V815.984H2128.84V809.148H2156.19V815.984H2163.02V850.164H2156.19V857H2128.84V850.164ZM2210.88 809.148V815.984H2197.2V857H2183.53V815.984H2169.86V809.148H2210.88ZM2272.4 815.984H2258.73V850.164H2272.4V815.984ZM2251.89 850.164H2245.05V815.984H2251.89V809.148H2279.23V815.984H2286.07V850.164H2279.23V857H2251.89V850.164ZM2327.09 809.148V815.984H2306.58V829.656H2327.09V836.492H2306.58V857H2292.91V809.148H2327.09ZM2402.28 809.148V815.984H2388.61V857H2374.94V815.984H2361.27V809.148H2402.28ZM2436.46 809.148H2450.13V857H2436.46V836.492H2422.79V857H2409.12V809.148H2422.79V829.656H2436.46V809.148ZM2456.97 857V809.148H2470.64V857H2456.97ZM2484.31 836.492V857H2477.48V809.148H2491.15V822.82H2497.98V836.492H2504.82V809.148H2518.49V857H2504.82V850.164H2491.15V836.492H2484.31ZM2552.67 851.019V857H2532.16V850.164H2525.33V815.984H2532.16V809.148H2566.34V822.82H2559.51V815.984H2539V850.164H2551.82L2552.67 849.31V836.492H2545.84V829.656H2566.34V857H2559.51V850.164H2553.53L2552.67 851.019ZM2600.52 815.984H2586.85V829.656H2607.36V836.492H2614.2V850.164H2607.36V857H2580.02V850.164H2573.18V843.328H2586.85V850.164H2600.52V836.492H2580.02V829.656H2573.18V815.984H2580.02V809.148H2607.36V815.984H2614.2V822.82H2600.52V815.984ZM1691.34 948.492V927.984H1677.67V948.492H1691.34ZM1677.67 955.328V969H1664V927.984H1670.84V921.148H1698.18V927.984H1705.02V969H1691.34V955.328H1677.67ZM1746.03 960.455V969H1711.85V921.148H1725.52V960.455H1746.03ZM1780.21 927.984H1766.54V962.164H1780.21V927.984ZM1759.7 962.164H1752.87V927.984H1759.7V921.148H1787.05V927.984H1793.88V962.164H1787.05V969H1759.7V962.164ZM1807.55 948.492V969H1800.72V921.148H1814.39V934.82H1821.23V948.492H1828.06V921.148H1841.73V969H1828.06V962.164H1814.39V948.492H1807.55ZM1875.91 963.019V969H1855.41V962.164H1848.57V927.984H1855.41V921.148H1889.59V934.82H1882.75V927.984H1862.24V962.164H1875.06L1875.91 961.31V948.492H1869.08V941.656H1889.59V969H1882.75V962.164H1876.77L1875.91 963.019ZM1964.78 921.148V927.984H1951.11V969H1937.44V927.984H1923.77V921.148H1964.78ZM1998.96 921.148H2012.63V969H1998.96V948.492H1985.29V969H1971.62V921.148H1985.29V941.656H1998.96V921.148ZM2019.47 969V921.148H2053.65V927.984H2033.14V941.656H2053.65V948.492H2033.14V962.164H2053.65V969H2019.47ZM2128.84 941.656V921.148H2135.68V969H2122.01V955.328H2101.5V969H2087.83V921.148H2101.5V941.656H2108.34V927.984H2122.01V941.656H2128.84ZM2169.86 948.492V927.984H2156.19V948.492H2169.86ZM2156.19 955.328V969H2142.52V927.984H2149.35V921.148H2176.7V927.984H2183.53V969H2169.86V955.328H2156.19ZM2217.71 941.656V921.148H2231.38V941.656H2224.55V948.492H2217.71V969H2204.04V948.492H2197.2V941.656H2190.37V921.148H2204.04V941.656H2217.71ZM2238.22 975.836V962.164H2245.05V975.836H2238.22ZM2306.58 927.984H2292.91V941.656H2313.41V948.492H2320.25V962.164H2313.41V969H2286.07V962.164H2279.23V955.328H2292.91V962.164H2306.58V948.492H2286.07V941.656H2279.23V927.984H2286.07V921.148H2313.41V927.984H2320.25V934.82H2306.58V927.984ZM2354.43 921.148H2368.1V969H2333.92V962.164H2327.09V921.148H2340.76V962.164H2354.43V921.148ZM2402.28 955.328H2415.95V962.164H2409.12V969H2381.77V962.164H2374.94V927.984H2381.77V921.148H2409.12V927.984H2415.95V934.82H2402.28V927.984H2388.61V962.164H2402.28V955.328ZM2450.13 921.148H2463.8V969H2450.13V948.492H2436.46V969H2422.79V921.148H2436.46V941.656H2450.13V921.148ZM2525.33 948.492V927.984H2511.66V948.492H2525.33ZM2511.66 955.328V969H2497.98V927.984H2504.82V921.148H2532.16V927.984H2539V969H2525.33V955.328H2511.66ZM2573.18 927.984H2559.51V941.656H2580.02V948.492H2586.85V962.164H2580.02V969H2552.67V962.164H2545.84V955.328H2559.51V962.164H2573.18V948.492H2552.67V941.656H2545.84V927.984H2552.67V921.148H2580.02V927.984H2586.85V934.82H2573.18V927.984ZM2593.69 975.836V962.164H2600.52V975.836H2593.69ZM1705.02 1053.66V1033.15H1711.85V1081H1698.18V1067.33H1677.67V1081H1664V1033.15H1677.67V1053.66H1684.51V1039.98H1698.18V1053.66H1705.02ZM1718.69 1081V1033.15H1752.87V1039.98H1732.36V1053.66H1752.87V1060.49H1732.36V1074.16H1752.87V1081H1718.69ZM1787.05 1039.98H1773.38V1053.66H1787.05V1039.98ZM1759.7 1081V1033.15H1793.88V1039.98H1800.72V1053.66H1793.88V1060.49H1800.72V1074.16H1793.88V1081H1759.7ZM1787.05 1074.16V1060.49H1773.38V1074.16H1787.05ZM1862.24 1039.98H1848.57V1074.16H1862.24V1039.98ZM1834.9 1081V1033.15H1869.08V1039.98H1875.91V1074.16H1869.08V1081H1834.9ZM1882.75 1081V1033.15H1916.93V1039.98H1896.42V1053.66H1916.93V1060.49H1896.42V1074.16H1916.93V1081H1882.75ZM1951.11 1067.33V1033.15H1964.78V1067.33H1957.95V1074.16H1951.11V1081H1937.44V1074.16H1930.6V1067.33H1923.77V1033.15H1937.44V1067.33H1951.11ZM1971.62 1081V1033.15H2005.8V1039.98H1985.29V1053.66H2005.8V1060.49H1985.29V1074.16H2005.8V1081H1971.62ZM2046.81 1072.46V1081H2012.63V1033.15H2026.3V1072.46H2046.81ZM2080.99 1039.98H2067.32V1074.16H2080.99V1039.98ZM2060.48 1074.16H2053.65V1039.98H2060.48V1033.15H2087.83V1039.98H2094.66V1074.16H2087.83V1081H2060.48V1074.16ZM2128.84 1039.98H2115.17V1053.66H2128.84V1039.98ZM2135.68 1053.66V1060.49H2115.17V1081H2101.5V1033.15H2135.68V1039.98H2142.52V1053.66H2135.68ZM2156.19 1060.49V1081H2149.35V1033.15H2163.02V1046.82H2183.53V1033.15H2197.2V1081H2183.53V1060.49H2176.7V1074.16H2163.02V1060.49H2156.19ZM2204.04 1081V1033.15H2238.22V1039.98H2217.71V1053.66H2238.22V1060.49H2217.71V1074.16H2238.22V1081H2204.04ZM2251.89 1060.49V1081H2245.05V1033.15H2258.73V1046.82H2265.56V1060.49H2272.4V1033.15H2286.07V1081H2272.4V1074.16H2258.73V1060.49H2251.89ZM2333.92 1033.15V1039.98H2320.25V1081H2306.58V1039.98H2292.91V1033.15H2333.92ZM2340.76 1087.84V1074.16H2347.59V1087.84H2340.76ZM2409.12 1075.02V1081H2388.61V1074.16H2381.77V1039.98H2388.61V1033.15H2422.79V1046.82H2415.95V1039.98H2395.45V1074.16H2408.26L2409.12 1073.31V1060.49H2402.28V1053.66H2422.79V1081H2415.95V1074.16H2409.97L2409.12 1075.02ZM2456.97 1060.49V1039.98H2443.3V1060.49H2456.97ZM2443.3 1067.33V1081H2429.62V1039.98H2436.46V1033.15H2463.8V1039.98H2470.64V1081H2456.97V1067.33H2443.3ZM2484.31 1060.49V1081H2477.48V1033.15H2491.15V1046.82H2511.66V1033.15H2525.33V1081H2511.66V1060.49H2504.82V1074.16H2491.15V1060.49H2484.31ZM2532.16 1081V1033.15H2566.34V1039.98H2545.84V1053.66H2566.34V1060.49H2545.84V1074.16H2566.34V1081H2532.16ZM1691.34 1151.98H1677.67V1186.16H1691.34V1151.98ZM1664 1193V1145.15H1698.18V1151.98H1705.02V1186.16H1698.18V1193H1664ZM1711.85 1193V1145.15H1746.03V1151.98H1725.52V1165.66H1746.03V1172.49H1725.52V1186.16H1746.03V1193H1711.85ZM1780.21 1179.33V1145.15H1793.88V1179.33H1787.05V1186.16H1780.21V1193H1766.54V1186.16H1759.7V1179.33H1752.87V1145.15H1766.54V1179.33H1780.21ZM1800.72 1193V1145.15H1834.9V1151.98H1814.39V1165.66H1834.9V1172.49H1814.39V1186.16H1834.9V1193H1800.72ZM1875.91 1184.46V1193H1841.73V1145.15H1855.41V1184.46H1875.91ZM1910.09 1151.98H1896.42V1186.16H1910.09V1151.98ZM1889.59 1186.16H1882.75V1151.98H1889.59V1145.15H1916.93V1151.98H1923.77V1186.16H1916.93V1193H1889.59V1186.16ZM1957.95 1151.98H1944.27V1165.66H1957.95V1151.98ZM1964.78 1165.66V1172.49H1944.27V1193H1930.6V1145.15H1964.78V1151.98H1971.62V1165.66H1964.78ZM1985.29 1172.49V1193H1978.45V1145.15H1992.12V1158.82H2012.63V1145.15H2026.3V1193H2012.63V1172.49H2005.8V1186.16H1992.12V1172.49H1985.29ZM2033.14 1193V1145.15H2067.32V1151.98H2046.81V1165.66H2067.32V1172.49H2046.81V1186.16H2067.32V1193H2033.14ZM2080.99 1172.49V1193H2074.16V1145.15H2087.83V1158.82H2094.66V1172.49H2101.5V1145.15H2115.17V1193H2101.5V1186.16H2087.83V1172.49H2080.99ZM2163.02 1145.15V1151.98H2149.35V1193H2135.68V1151.98H2122.01V1145.15H2163.02ZM2169.86 1199.84V1186.16H2176.7V1199.84H2169.86ZM2238.22 1151.98H2224.55V1186.16H2238.22V1151.98ZM2210.88 1193V1145.15H2245.05V1151.98H2251.89V1186.16H2245.05V1193H2210.88ZM2258.73 1193V1145.15H2292.91V1151.98H2272.4V1165.66H2292.91V1172.49H2272.4V1186.16H2292.91V1193H2258.73ZM2327.09 1151.98H2313.41V1165.66H2333.92V1172.49H2340.76V1186.16H2333.92V1193H2306.58V1186.16H2299.74V1179.33H2313.41V1186.16H2327.09V1172.49H2306.58V1165.66H2299.74V1151.98H2306.58V1145.15H2333.92V1151.98H2340.76V1158.82H2327.09V1151.98ZM2347.59 1193V1145.15H2361.27V1193H2347.59ZM2395.45 1187.02V1193H2374.94V1186.16H2368.1V1151.98H2374.94V1145.15H2409.12V1158.82H2402.28V1151.98H2381.77V1186.16H2394.59L2395.45 1185.31V1172.49H2388.61V1165.66H2409.12V1193H2402.28V1186.16H2396.3L2395.45 1187.02ZM2422.79 1172.49V1193H2415.95V1145.15H2429.62V1158.82H2436.46V1172.49H2443.3V1145.15H2456.97V1193H2443.3V1186.16H2429.62V1172.49H2422.79ZM2463.8 1193V1145.15H2477.48V1193H2463.8ZM2491.15 1172.49V1193H2484.31V1145.15H2497.98V1158.82H2504.82V1172.49H2511.66V1145.15H2525.33V1193H2511.66V1186.16H2497.98V1172.49H2491.15ZM2559.51 1187.02V1193H2539V1186.16H2532.16V1151.98H2539V1145.15H2573.18V1158.82H2566.34V1151.98H2545.84V1186.16H2558.65L2559.51 1185.31V1172.49H2552.67V1165.66H2573.18V1193H2566.34V1186.16H2560.36L2559.51 1187.02ZM1691.34 1284.49V1263.98H1677.67V1284.49H1691.34ZM1677.67 1291.33V1305H1664V1263.98H1670.84V1257.15H1698.18V1263.98H1705.02V1305H1691.34V1291.33H1677.67ZM1718.69 1284.49V1305H1711.85V1257.15H1725.52V1270.82H1732.36V1284.49H1739.2V1257.15H1752.87V1305H1739.2V1298.16H1725.52V1284.49H1718.69ZM1787.05 1263.98H1773.38V1298.16H1787.05V1263.98ZM1759.7 1305V1257.15H1793.88V1263.98H1800.72V1298.16H1793.88V1305H1759.7ZM1841.73 1284.49V1305H1834.9V1257.15H1848.57V1270.82H1869.08V1257.15H1882.75V1305H1869.08V1284.49H1862.24V1298.16H1848.57V1284.49H1841.73ZM1916.93 1263.98H1903.26V1298.16H1916.93V1263.98ZM1896.42 1298.16H1889.59V1263.98H1896.42V1257.15H1923.77V1263.98H1930.6V1298.16H1923.77V1305H1896.42V1298.16ZM1964.78 1263.98H1951.11V1277.66H1964.78V1263.98ZM1971.62 1284.49H1978.45V1305H1964.78V1284.49H1951.11V1305H1937.44V1257.15H1971.62V1263.98H1978.45V1277.66H1971.62V1284.49ZM1985.29 1305V1257.15H2019.47V1263.98H1998.96V1277.66H2019.47V1284.49H1998.96V1298.16H2019.47V1305H1985.29ZM2026.3 1305V1298.16H2033.14V1305H2026.3ZM2094.66 1291.33H2108.34V1298.16H2101.5V1305H2074.16V1298.16H2067.32V1263.98H2074.16V1257.15H2101.5V1263.98H2108.34V1270.82H2094.66V1263.98H2080.99V1298.16H2094.66V1291.33ZM2142.52 1257.15H2156.19V1305H2122.01V1298.16H2115.17V1257.15H2128.84V1298.16H2142.52V1257.15ZM2190.37 1263.98H2176.7V1277.66H2190.37V1263.98ZM2197.2 1284.49H2204.04V1305H2190.37V1284.49H2176.7V1305H2163.02V1257.15H2197.2V1263.98H2204.04V1277.66H2197.2V1284.49ZM2238.22 1263.98H2224.55V1277.66H2238.22V1263.98ZM2245.05 1284.49H2251.89V1305H2238.22V1284.49H2224.55V1305H2210.88V1257.15H2245.05V1263.98H2251.89V1277.66H2245.05V1284.49ZM2258.73 1305V1257.15H2292.91V1263.98H2272.4V1277.66H2292.91V1284.49H2272.4V1298.16H2292.91V1305H2258.73ZM2306.58 1284.49V1305H2299.74V1257.15H2313.41V1270.82H2320.25V1284.49H2327.09V1257.15H2340.76V1305H2327.09V1298.16H2313.41V1284.49H2306.58ZM2388.61 1257.15V1263.98H2374.94V1305H2361.27V1263.98H2347.59V1257.15H2388.61ZM2429.62 1296.46V1305H2395.45V1257.15H2409.12V1296.46H2429.62ZM2463.8 1277.66V1257.15H2477.48V1277.66H2470.64V1284.49H2463.8V1305H2450.13V1284.49H2443.3V1277.66H2436.46V1257.15H2450.13V1277.66H2463.8ZM2484.31 1311.84V1298.16H2491.15V1311.84H2484.31ZM2525.33 1305V1257.15H2539V1305H2525.33ZM2600.52 1284.49V1263.98H2586.85V1284.49H2600.52ZM2586.85 1291.33V1305H2573.18V1263.98H2580.02V1257.15H2607.36V1263.98H2614.2V1305H2600.52V1291.33H2586.85ZM2627.87 1284.49V1305H2621.03V1257.15H2634.7V1270.82H2655.21V1257.15H2668.88V1305H2655.21V1284.49H2648.38V1298.16H2634.7V1284.49H2627.87ZM1691.34 1396.49V1375.98H1677.67V1396.49H1691.34ZM1677.67 1403.33V1417H1664V1375.98H1670.84V1369.15H1698.18V1375.98H1705.02V1417H1691.34V1403.33H1677.67ZM1766.54 1375.98H1752.87V1389.66H1773.38V1396.49H1780.21V1410.16H1773.38V1417H1746.03V1410.16H1739.2V1403.33H1752.87V1410.16H1766.54V1396.49H1746.03V1389.66H1739.2V1375.98H1746.03V1369.15H1773.38V1375.98H1780.21V1382.82H1766.54V1375.98ZM1828.06 1369.15V1375.98H1814.39V1417H1800.72V1375.98H1787.05V1369.15H1828.06ZM1862.24 1369.15H1875.91V1417H1841.73V1410.16H1834.9V1369.15H1848.57V1410.16H1862.24V1369.15ZM1910.09 1375.98H1896.42V1410.16H1910.09V1375.98ZM1882.75 1417V1369.15H1916.93V1375.98H1923.77V1410.16H1916.93V1417H1882.75ZM1930.6 1417V1369.15H1964.78V1375.98H1944.27V1389.66H1964.78V1396.49H1944.27V1410.16H1964.78V1417H1930.6ZM1978.45 1396.49V1417H1971.62V1369.15H1985.29V1382.82H1992.12V1396.49H1998.96V1369.15H2012.63V1417H1998.96V1410.16H1985.29V1396.49H1978.45ZM2060.48 1369.15V1375.98H2046.81V1417H2033.14V1375.98H2019.47V1369.15H2060.48ZM2067.32 1389.66H2101.5V1396.49H2067.32V1389.66ZM2108.34 1417V1369.15H2122.01V1417H2108.34ZM2135.68 1396.49V1417H2128.84V1369.15H2142.52V1382.82H2149.35V1396.49H2156.19V1369.15H2169.86V1417H2156.19V1410.16H2142.52V1396.49H2135.68ZM2217.71 1369.15V1375.98H2204.04V1417H2190.37V1375.98H2176.7V1369.15H2217.71ZM2224.55 1417V1369.15H2258.73V1375.98H2238.22V1389.66H2258.73V1396.49H2238.22V1410.16H2258.73V1417H2224.55ZM2292.91 1375.98H2279.23V1389.66H2292.91V1375.98ZM2299.74 1396.49H2306.58V1417H2292.91V1396.49H2279.23V1417H2265.56V1369.15H2299.74V1375.98H2306.58V1389.66H2299.74V1396.49ZM2320.25 1396.49V1417H2313.41V1369.15H2327.09V1382.82H2333.92V1396.49H2340.76V1369.15H2354.43V1417H2340.76V1410.16H2327.09V1396.49H2320.25ZM2415.95 1396.49V1375.98H2402.28V1396.49H2415.95ZM2402.28 1403.33V1417H2388.61V1375.98H2395.45V1369.15H2422.79V1375.98H2429.62V1417H2415.95V1403.33H2402.28ZM2443.3 1396.49V1417H2436.46V1369.15H2450.13V1382.82H2456.97V1396.49H2463.8V1369.15H2477.48V1417H2463.8V1410.16H2450.13V1396.49H2443.3ZM2511.66 1375.98H2497.98V1410.16H2511.66V1375.98ZM2484.31 1417V1369.15H2518.49V1375.98H2525.33V1410.16H2518.49V1417H2484.31ZM2566.34 1396.49V1417H2559.51V1369.15H2573.18V1382.82H2593.69V1369.15H2607.36V1417H2593.69V1396.49H2586.85V1410.16H2573.18V1396.49H2566.34ZM2641.54 1389.66V1369.15H2655.21V1389.66H2648.38V1396.49H2641.54V1417H2627.87V1396.49H2621.03V1389.66H2614.2V1369.15H2627.87V1389.66H2641.54ZM1684.51 1481.15H1698.18V1522.16H1691.34V1529H1664V1515.33H1670.84V1522.16H1684.51V1481.15ZM1732.36 1487.98H1718.69V1522.16H1732.36V1487.98ZM1711.85 1522.16H1705.02V1487.98H1711.85V1481.15H1739.2V1487.98H1746.03V1522.16H1739.2V1529H1711.85V1522.16ZM1780.21 1487.98H1766.54V1501.66H1780.21V1487.98ZM1752.87 1529V1481.15H1787.05V1487.98H1793.88V1501.66H1787.05V1508.49H1793.88V1522.16H1787.05V1529H1752.87ZM1780.21 1522.16V1508.49H1766.54V1522.16H1780.21ZM1828.06 1529V1481.15H1841.73V1529H1828.06ZM1875.91 1487.98H1862.24V1501.66H1882.75V1508.49H1889.59V1522.16H1882.75V1529H1855.41V1522.16H1848.57V1515.33H1862.24V1522.16H1875.91V1508.49H1855.41V1501.66H1848.57V1487.98H1855.41V1481.15H1882.75V1487.98H1889.59V1494.82H1875.91V1487.98ZM1964.78 1481.15V1487.98H1951.11V1529H1937.44V1487.98H1923.77V1481.15H1964.78ZM1998.96 1487.98H1985.29V1522.16H1998.96V1487.98ZM1978.45 1522.16H1971.62V1487.98H1978.45V1481.15H2005.8V1487.98H2012.63V1522.16H2005.8V1529H1978.45V1522.16ZM2087.83 1481.15V1487.98H2074.16V1529H2060.48V1487.98H2046.81V1481.15H2087.83ZM2122.01 1487.98H2108.34V1501.66H2122.01V1487.98ZM2128.84 1508.49H2135.68V1529H2122.01V1508.49H2108.34V1529H2094.66V1481.15H2128.84V1487.98H2135.68V1501.66H2128.84V1508.49ZM2169.86 1508.49V1487.98H2156.19V1508.49H2169.86ZM2156.19 1515.33V1529H2142.52V1487.98H2149.35V1481.15H2176.7V1487.98H2183.53V1529H2169.86V1515.33H2156.19ZM2190.37 1529V1481.15H2204.04V1529H2190.37ZM2217.71 1508.49V1529H2210.88V1481.15H2224.55V1494.82H2231.38V1508.49H2238.22V1481.15H2251.89V1529H2238.22V1522.16H2224.55V1508.49H2217.71ZM2313.41 1487.98H2299.74V1501.66H2320.25V1508.49H2327.09V1522.16H2320.25V1529H2292.91V1522.16H2286.07V1515.33H2299.74V1522.16H2313.41V1508.49H2292.91V1501.66H2286.07V1487.98H2292.91V1481.15H2320.25V1487.98H2327.09V1494.82H2313.41V1487.98ZM2374.94 1481.15V1487.98H2361.27V1529H2347.59V1487.98H2333.92V1481.15H2374.94ZM2409.12 1481.15H2422.79V1529H2388.61V1522.16H2381.77V1481.15H2395.45V1522.16H2409.12V1481.15ZM2456.97 1487.98H2443.3V1522.16H2456.97V1487.98ZM2429.62 1529V1481.15H2463.8V1487.98H2470.64V1522.16H2463.8V1529H2429.62ZM2477.48 1529V1481.15H2511.66V1487.98H2491.15V1501.66H2511.66V1508.49H2491.15V1522.16H2511.66V1529H2477.48ZM2525.33 1508.49V1529H2518.49V1481.15H2532.16V1494.82H2539V1508.49H2545.84V1481.15H2559.51V1529H2545.84V1522.16H2532.16V1508.49H2525.33ZM2607.36 1481.15V1487.98H2593.69V1529H2580.02V1487.98H2566.34V1481.15H2607.36ZM2641.54 1487.98H2627.87V1501.66H2648.38V1508.49H2655.21V1522.16H2648.38V1529H2621.03V1522.16H2614.2V1515.33H2627.87V1522.16H2641.54V1508.49H2621.03V1501.66H2614.2V1487.98H2621.03V1481.15H2648.38V1487.98H2655.21V1494.82H2641.54V1487.98ZM1705.02 1613.66V1593.15H1711.85V1641H1698.18V1627.33H1677.67V1641H1664V1593.15H1677.67V1613.66H1684.51V1599.98H1698.18V1613.66H1705.02ZM1746.03 1593.15H1759.7V1641H1746.03V1620.49H1732.36V1641H1718.69V1593.15H1732.36V1613.66H1746.03V1593.15ZM1766.54 1641V1593.15H1800.72V1599.98H1780.21V1613.66H1800.72V1620.49H1780.21V1634.16H1800.72V1641H1766.54ZM1814.39 1620.49V1641H1807.55V1593.15H1821.23V1606.82H1828.06V1620.49H1834.9V1593.15H1848.57V1641H1834.9V1634.16H1821.23V1620.49H1814.39ZM1923.77 1593.15V1599.98H1910.09V1641H1896.42V1599.98H1882.75V1593.15H1923.77ZM1957.95 1593.15H1971.62V1641H1957.95V1620.49H1944.27V1641H1930.6V1593.15H1944.27V1613.66H1957.95V1593.15ZM1978.45 1641V1593.15H2012.63V1599.98H1992.12V1613.66H2012.63V1620.49H1992.12V1634.16H2012.63V1641H1978.45ZM2046.81 1613.66V1593.15H2060.48V1613.66H2053.65V1620.49H2046.81V1641H2033.14V1620.49H2026.3V1613.66H2019.47V1593.15H2033.14V1613.66H2046.81ZM2122.01 1627.33H2135.68V1634.16H2128.84V1641H2101.5V1634.16H2094.66V1599.98H2101.5V1593.15H2128.84V1599.98H2135.68V1606.82H2122.01V1599.98H2108.34V1634.16H2122.01V1627.33ZM2169.86 1599.98H2156.19V1634.16H2169.86V1599.98ZM2149.35 1634.16H2142.52V1599.98H2149.35V1593.15H2176.7V1599.98H2183.53V1634.16H2176.7V1641H2149.35V1634.16ZM2197.2 1620.49V1641H2190.37V1593.15H2204.04V1606.82H2224.55V1593.15H2238.22V1641H2224.55V1620.49H2217.71V1634.16H2204.04V1620.49H2197.2ZM2245.05 1641V1593.15H2279.23V1599.98H2258.73V1613.66H2279.23V1620.49H2258.73V1634.16H2279.23V1641H2245.05ZM2354.43 1593.15V1599.98H2340.76V1641H2327.09V1599.98H2313.41V1593.15H2354.43ZM2388.61 1599.98H2374.94V1634.16H2388.61V1599.98ZM2368.1 1634.16H2361.27V1599.98H2368.1V1593.15H2395.45V1599.98H2402.28V1634.16H2395.45V1641H2368.1V1634.16ZM1677.67 1753H1664V1705.15H1677.67V1725.66H1684.51V1718.82H1691.34V1705.15H1705.02V1718.82H1698.18V1725.66H1691.34V1732.49H1698.18V1739.33H1705.02V1753H1691.34V1739.33H1684.51V1732.49H1677.67V1753ZM1711.85 1753V1705.15H1725.52V1753H1711.85ZM1759.7 1711.98H1746.03V1746.16H1759.7V1711.98ZM1732.36 1753V1705.15H1766.54V1711.98H1773.38V1746.16H1766.54V1753H1732.36ZM1807.55 1739.33H1821.23V1746.16H1814.39V1753H1787.05V1746.16H1780.21V1711.98H1787.05V1705.15H1814.39V1711.98H1821.23V1718.82H1807.55V1711.98H1793.88V1746.16H1807.55V1739.33ZM1855.41 1711.98H1841.73V1746.16H1855.41V1711.98ZM1834.9 1746.16H1828.06V1711.98H1834.9V1705.15H1862.24V1711.98H1869.08V1746.16H1862.24V1753H1834.9V1746.16ZM1903.26 1711.98H1889.59V1746.16H1903.26V1711.98ZM1875.91 1753V1705.15H1910.09V1711.98H1916.93V1746.16H1910.09V1753H1875.91ZM1923.77 1753V1705.15H1957.95V1711.98H1937.44V1725.66H1957.95V1732.49H1937.44V1746.16H1957.95V1753H1923.77ZM1964.78 1753V1746.16H1971.62V1753H1964.78Z" fill="#3E3E3E"/>
<path d="M694.062 50.6406H713.594V119H694.062V89.7031H674.531V119H655V50.6406H674.531V79.9375H694.062V50.6406ZM723.359 119V50.6406H742.891V119H723.359ZM762.422 89.7031V119H752.656V50.6406H772.188V70.1719H781.953V89.7031H791.719V50.6406H811.25V119H791.719V109.234H772.188V89.7031H762.422ZM879.609 50.6406V60.4062H860.078V119H840.547V60.4062H821.016V50.6406H879.609ZM967.5 99.4688H987.031V109.234H977.266V119H938.203V109.234H928.438V60.4062H938.203V50.6406H977.266V60.4062H987.031V70.1719H967.5V60.4062H947.969V109.234H967.5V99.4688ZM1045.62 106.793V119H996.797V50.6406H1016.33V106.793H1045.62ZM1055.39 119V50.6406H1074.92V119H1055.39ZM1123.75 99.4688H1143.28V109.234H1133.52V119H1094.45V109.234H1084.69V60.4062H1094.45V50.6406H1133.52V60.4062H1143.28V70.1719H1123.75V60.4062H1104.22V109.234H1123.75V99.4688ZM1172.58 119H1153.05V50.6406H1172.58V79.9375H1182.34V70.1719H1192.11V50.6406H1211.64V70.1719H1201.88V79.9375H1192.11V89.7031H1201.88V99.4688H1211.64V119H1192.11V99.4688H1182.34V89.7031H1172.58V119ZM1319.06 50.6406V60.4062H1299.53V119H1280V60.4062H1260.47V50.6406H1319.06ZM1367.89 50.6406H1387.42V119H1367.89V89.7031H1348.36V119H1328.83V50.6406H1348.36V79.9375H1367.89V50.6406ZM1397.19 119V50.6406H1446.02V60.4062H1416.72V79.9375H1446.02V89.7031H1416.72V109.234H1446.02V119H1397.19ZM1533.91 60.4062H1514.38V79.9375H1533.91V60.4062ZM1494.84 119V50.6406H1543.67V60.4062H1553.44V79.9375H1543.67V89.7031H1553.44V109.234H1543.67V119H1494.84ZM1533.91 109.234V89.7031H1514.38V109.234H1533.91ZM1602.27 60.4062H1582.73V109.234H1602.27V60.4062ZM1572.97 109.234H1563.2V60.4062H1572.97V50.6406H1612.03V60.4062H1621.8V109.234H1612.03V119H1572.97V109.234ZM1670.62 60.4062H1651.09V109.234H1670.62V60.4062ZM1641.33 109.234H1631.56V60.4062H1641.33V50.6406H1680.39V60.4062H1690.16V109.234H1680.39V119H1641.33V109.234ZM1719.45 119H1699.92V50.6406H1719.45V79.9375H1729.22V70.1719H1738.98V50.6406H1758.52V70.1719H1748.75V79.9375H1738.98V89.7031H1748.75V99.4688H1758.52V119H1738.98V99.4688H1729.22V89.7031H1719.45V119ZM1865.94 50.6406V60.4062H1846.41V119H1826.88V60.4062H1807.34V50.6406H1865.94ZM1914.77 60.4062H1895.23V109.234H1914.77V60.4062ZM1885.47 109.234H1875.7V60.4062H1885.47V50.6406H1924.53V60.4062H1934.3V109.234H1924.53V119H1885.47V109.234ZM2022.19 99.4688H2041.72V109.234H2031.95V119H1992.89V109.234H1983.12V60.4062H1992.89V50.6406H2031.95V60.4062H2041.72V70.1719H2022.19V60.4062H2002.66V109.234H2022.19V99.4688ZM2100.31 106.793V119H2051.48V50.6406H2071.02V106.793H2100.31ZM2149.14 60.4062H2129.61V109.234H2149.14V60.4062ZM2119.84 109.234H2110.08V60.4062H2119.84V50.6406H2158.91V60.4062H2168.67V109.234H2158.91V119H2119.84V109.234ZM2217.5 60.4062H2197.97V79.9375H2227.27V89.7031H2237.03V109.234H2227.27V119H2188.2V109.234H2178.44V99.4688H2197.97V109.234H2217.5V89.7031H2188.2V79.9375H2178.44V60.4062H2188.2V50.6406H2227.27V60.4062H2237.03V70.1719H2217.5V60.4062ZM2246.8 119V50.6406H2295.62V60.4062H2266.33V79.9375H2295.62V89.7031H2266.33V109.234H2295.62V119H2246.8ZM2305.39 119V106.793H2315.16V119H2305.39ZM2305.39 50.6406H2324.92V87.2617H2315.16V97.0273H2305.39V50.6406Z" fill="white"/>
</svg>
