<svg width="1375" height="1976" viewBox="0 0 1375 1976" fill="none" xmlns="http://www.w3.org/2000/svg">
<path fill-rule="evenodd" clip-rule="evenodd" d="M1374.28 0H170.183V87.6766H1374.28V0ZM1374.28 1811.98V87.6768H88.3516V1811.98H1374.28Z" fill="#F3F3F3"/>
<path fill-rule="evenodd" clip-rule="evenodd" d="M0.675781 175.353H88.3524V1975.65H0.675781V175.353ZM88.3525 1811.98H1280.75H1374.28V1905.51H1280.75L1280.75 1975.65H88.3525V1811.98Z" fill="#DBDBDB"/>
<path d="M214.297 190.469V175.82H219.18V210H209.414V200.234H194.766V210H185V175.82H194.766V190.469H199.648V180.703H209.414V190.469H214.297ZM224.062 210V175.82H248.477V180.703H233.828V190.469H248.477V195.352H233.828V205.117H248.477V210H224.062ZM277.773 203.896V210H253.359V175.82H263.125V203.896H277.773ZM302.188 200.234H311.953V205.117H307.07V210H287.539V205.117H282.656V180.703H287.539V175.82H307.07V180.703H311.953V185.586H302.188V180.703H292.422V205.117H302.188V200.234ZM336.367 180.703H326.602V205.117H336.367V180.703ZM321.719 205.117H316.836V180.703H321.719V175.82H341.25V180.703H346.133V205.117H341.25V210H321.719V205.117ZM355.898 195.352V210H351.016V175.82H360.781V185.586H375.43V175.82H385.195V210H375.43V195.352H370.547V205.117H360.781V195.352H355.898ZM390.078 210V175.82H414.492V180.703H399.844V190.469H414.492V195.352H399.844V205.117H414.492V210H390.078ZM468.203 175.82V180.703H458.438V210H448.672V180.703H438.906V175.82H468.203ZM492.617 180.703H482.852V205.117H492.617V180.703ZM477.969 205.117H473.086V180.703H477.969V175.82H497.5V180.703H502.383V205.117H497.5V210H477.969V205.117ZM531.68 195.352V210H526.797V175.82H536.562V185.586H551.211V175.82H560.977V210H551.211V195.352H546.328V205.117H536.562V195.352H531.68ZM585.391 190.469V175.82H595.156V190.469H590.273V195.352H585.391V210H575.625V195.352H570.742V190.469H565.859V175.82H575.625V190.469H585.391ZM648.867 190.469V175.82H653.75V210H643.984V200.234H629.336V210H619.57V175.82H629.336V190.469H634.219V180.703H643.984V190.469H648.867ZM658.633 210V175.82H683.047V180.703H668.398V190.469H683.047V195.352H668.398V205.117H683.047V210H658.633ZM707.461 180.703H697.695V190.469H707.461V180.703ZM687.93 210V175.82H712.344V180.703H717.227V190.469H712.344V195.352H717.227V205.117H712.344V210H687.93ZM707.461 205.117V195.352H697.695V205.117H707.461ZM741.641 180.703H731.875V190.469H746.523V195.352H751.406V205.117H746.523V210H726.992V205.117H722.109V200.234H731.875V205.117H741.641V195.352H726.992V190.469H722.109V180.703H726.992V175.82H746.523V180.703H751.406V185.586H741.641V180.703ZM756.289 210V175.82H766.055V210H756.289ZM800.234 175.82V180.703H790.469V210H780.703V180.703H770.938V175.82H800.234ZM805.117 210V175.82H829.531V180.703H814.883V190.469H829.531V195.352H814.883V205.117H829.531V210H805.117ZM834.414 214.883V205.117H839.297V214.883H834.414ZM868.594 195.352V210H863.711V175.82H873.477V185.586H888.125V175.82H897.891V210H888.125V195.352H883.242V205.117H873.477V195.352H868.594ZM922.305 190.469V175.82H932.07V190.469H927.188V195.352H922.305V210H912.539V195.352H907.656V190.469H902.773V175.82H912.539V190.469H922.305ZM961.367 195.352V210H956.484V175.82H966.25V185.586H971.133V195.352H976.016V175.82H985.781V210H976.016V205.117H966.25V195.352H961.367ZM1010.2 195.352V180.703H1000.43V195.352H1010.2ZM1000.43 200.234V210H990.664V180.703H995.547V175.82H1015.08V180.703H1019.96V210H1010.2V200.234H1000.43ZM1029.73 195.352V210H1024.84V175.82H1034.61V185.586H1049.26V175.82H1059.02V210H1049.26V195.352H1044.38V205.117H1034.61V195.352H1029.73ZM1063.91 210V175.82H1088.32V180.703H1073.67V190.469H1088.32V195.352H1073.67V205.117H1088.32V210H1063.91ZM1112.73 210V175.82H1122.5V210H1112.73ZM1146.91 180.703H1137.15V190.469H1151.8V195.352H1156.68V205.117H1151.8V210H1132.27V205.117H1127.38V200.234H1137.15V205.117H1146.91V195.352H1132.27V190.469H1127.38V180.703H1132.27V175.82H1151.8V180.703H1156.68V185.586H1146.91V180.703ZM204.531 275.352V260.703H194.766V275.352H204.531ZM194.766 280.234V290H185V260.703H189.883V255.82H209.414V260.703H214.297V290H204.531V280.234H194.766ZM238.711 260.703H228.945V270.469H238.711V260.703ZM243.594 275.352H248.477V290H238.711V275.352H228.945V290H219.18V255.82H243.594V260.703H248.477V270.469H243.594V275.352ZM272.891 260.703H263.125V270.469H277.773V275.352H282.656V285.117H277.773V290H258.242V285.117H253.359V280.234H263.125V285.117H272.891V275.352H258.242V270.469H253.359V260.703H258.242V255.82H277.773V260.703H282.656V265.586H272.891V260.703ZM307.07 255.82H316.836V290H307.07V275.352H297.305V290H287.539V255.82H297.305V270.469H307.07V255.82ZM341.25 275.352V260.703H331.484V275.352H341.25ZM331.484 280.234V290H321.719V260.703H326.602V255.82H346.133V260.703H351.016V290H341.25V280.234H331.484ZM360.781 275.352V290H355.898V255.82H365.664V265.586H380.312V255.82H390.078V290H380.312V275.352H375.43V285.117H365.664V275.352H360.781ZM434.023 260.703H424.258V270.469H438.906V275.352H443.789V285.117H438.906V290H419.375V285.117H414.492V280.234H424.258V285.117H434.023V275.352H419.375V270.469H414.492V260.703H419.375V255.82H438.906V260.703H443.789V265.586H434.023V260.703ZM468.203 255.82H477.969V290H468.203V275.352H458.438V290H448.672V255.82H458.438V270.469H468.203V255.82ZM482.852 290V255.82H492.617V290H482.852ZM517.031 260.703H507.266V270.469H517.031V260.703ZM521.914 275.352H526.797V290H517.031V275.352H507.266V290H497.5V255.82H521.914V260.703H526.797V270.469H521.914V275.352ZM541.445 290H531.68V255.82H541.445V270.469H546.328V265.586H551.211V255.82H560.977V265.586H556.094V270.469H551.211V275.352H556.094V280.234H560.977V290H551.211V280.234H546.328V275.352H541.445V290ZM585.391 260.703H575.625V285.117H585.391V260.703ZM570.742 285.117H565.859V260.703H570.742V255.82H590.273V260.703H595.156V285.117H590.273V290H570.742V285.117ZM619.57 255.82H629.336V290H604.922V285.117H600.039V255.82H609.805V285.117H619.57V255.82ZM653.75 255.82H663.516V290H653.75V275.352H643.984V290H634.219V255.82H643.984V270.469H653.75V255.82ZM668.398 290V255.82H678.164V290H668.398ZM683.047 290V285.117H687.93V290H683.047ZM185 370V335.82H194.766V370H185ZM238.711 340.703H228.945V350.469H243.594V355.352H248.477V365.117H243.594V370H224.062V365.117H219.18V360.234H228.945V365.117H238.711V355.352H224.062V350.469H219.18V340.703H224.062V335.82H243.594V340.703H248.477V345.586H238.711V340.703ZM272.891 340.703H263.125V350.469H272.891V340.703ZM277.773 350.469V355.352H263.125V370H253.359V335.82H277.773V340.703H282.656V350.469H277.773ZM287.539 370V335.82H311.953V340.703H297.305V350.469H311.953V355.352H297.305V365.117H311.953V370H287.539ZM336.367 360.234H346.133V365.117H341.25V370H321.719V365.117H316.836V340.703H321.719V335.82H341.25V340.703H346.133V345.586H336.367V340.703H326.602V365.117H336.367V360.234ZM351.016 370V335.82H360.781V370H351.016ZM385.195 355.352V340.703H375.43V355.352H385.195ZM375.43 360.234V370H365.664V340.703H370.547V335.82H390.078V340.703H394.961V370H385.195V360.234H375.43ZM424.258 363.896V370H399.844V335.82H409.609V363.896H424.258ZM429.141 370V335.82H438.906V370H429.141ZM463.32 340.703H453.555V350.469H468.203V355.352H473.086V365.117H468.203V370H448.672V365.117H443.789V360.234H453.555V365.117H463.32V355.352H448.672V350.469H443.789V340.703H448.672V335.82H468.203V340.703H473.086V345.586H463.32V340.703ZM477.969 370V335.82H502.383V340.703H487.734V350.469H502.383V355.352H487.734V365.117H502.383V370H477.969ZM526.797 370V335.82H536.562V370H526.797ZM546.328 355.352V370H541.445V335.82H551.211V345.586H556.094V355.352H560.977V335.82H570.742V370H560.977V365.117H551.211V355.352H546.328ZM595.156 370V335.82H604.922V370H595.156ZM614.688 355.352V370H609.805V335.82H619.57V345.586H624.453V355.352H629.336V335.82H639.102V370H629.336V365.117H619.57V355.352H614.688ZM648.867 355.352V370H643.984V335.82H653.75V345.586H658.633V355.352H663.516V335.82H673.281V370H663.516V365.117H653.75V355.352H648.867ZM697.695 340.703H687.93V365.117H697.695V340.703ZM683.047 365.117H678.164V340.703H683.047V335.82H702.578V340.703H707.461V365.117H702.578V370H683.047V365.117ZM731.875 360.234V335.82H741.641V360.234H736.758V365.117H731.875V370H722.109V365.117H717.227V360.234H712.344V335.82H722.109V360.234H731.875ZM766.055 355.352V340.703H756.289V355.352H766.055ZM756.289 360.234V370H746.523V340.703H751.406V335.82H770.938V340.703H775.82V370H766.055V360.234H756.289ZM810 335.82V340.703H800.234V370H790.469V340.703H780.703V335.82H810ZM814.883 370V335.82H824.648V370H814.883ZM849.062 360.234V335.82H858.828V360.234H853.945V365.117H849.062V370H839.297V365.117H834.414V360.234H829.531V335.82H839.297V360.234H849.062ZM863.711 370V335.82H888.125V340.703H873.477V350.469H888.125V355.352H873.477V365.117H888.125V370H863.711ZM941.836 350.469V335.82H946.719V370H936.953V360.234H922.305V370H912.539V335.82H922.305V350.469H927.188V340.703H936.953V350.469H941.836ZM951.602 370V335.82H976.016V340.703H961.367V350.469H976.016V355.352H961.367V365.117H976.016V370H951.602ZM1000.43 340.703H990.664V350.469H1000.43V340.703ZM980.898 370V335.82H1005.31V340.703H1010.2V350.469H1005.31V355.352H1010.2V365.117H1005.31V370H980.898ZM1000.43 365.117V355.352H990.664V365.117H1000.43ZM1054.14 355.352V340.703H1044.38V355.352H1054.14ZM1044.38 360.234V370H1034.61V340.703H1039.49V335.82H1059.02V340.703H1063.91V370H1054.14V360.234H1044.38ZM1073.67 355.352V370H1068.79V335.82H1078.55V345.586H1083.44V355.352H1088.32V335.82H1098.09V370H1088.32V365.117H1078.55V355.352H1073.67ZM1122.5 340.703H1112.73V365.117H1122.5V340.703ZM1102.97 370V335.82H1127.38V340.703H1132.27V365.117H1127.38V370H1102.97ZM1176.21 365.728V370H1161.56V365.117H1156.68V340.703H1161.56V335.82H1185.98V345.586H1181.09V340.703H1166.45V365.117H1175.6L1176.21 364.507V355.352H1171.33V350.469H1185.98V370H1181.09V365.117H1176.82L1176.21 365.728ZM1210.39 355.352V340.703H1200.62V355.352H1210.39ZM1200.62 360.234V370H1190.86V340.703H1195.74V335.82H1215.27V340.703H1220.16V370H1210.39V360.234H1200.62ZM1229.92 355.352V370H1225.04V335.82H1234.8V345.586H1249.45V335.82H1259.22V370H1249.45V355.352H1244.57V365.117H1234.8V355.352H1229.92ZM1264.1 370V335.82H1288.52V340.703H1273.87V350.469H1288.52V355.352H1273.87V365.117H1288.52V370H1264.1ZM204.531 420.703H194.766V445.117H204.531V420.703ZM185 450V415.82H209.414V420.703H214.297V445.117H209.414V450H185ZM219.18 450V415.82H243.594V420.703H228.945V430.469H243.594V435.352H228.945V445.117H243.594V450H219.18ZM268.008 440.234V415.82H277.773V440.234H272.891V445.117H268.008V450H258.242V445.117H253.359V440.234H248.477V415.82H258.242V440.234H268.008ZM282.656 450V415.82H307.07V420.703H292.422V430.469H307.07V435.352H292.422V445.117H307.07V450H282.656ZM336.367 443.896V450H311.953V415.82H321.719V443.896H336.367ZM360.781 420.703H351.016V445.117H360.781V420.703ZM346.133 445.117H341.25V420.703H346.133V415.82H365.664V420.703H370.547V445.117H365.664V450H346.133V445.117ZM394.961 420.703H385.195V430.469H394.961V420.703ZM399.844 430.469V435.352H385.195V450H375.43V415.82H399.844V420.703H404.727V430.469H399.844ZM414.492 435.352V450H409.609V415.82H419.375V425.586H434.023V415.82H443.789V450H434.023V435.352H429.141V445.117H419.375V435.352H414.492ZM448.672 450V415.82H473.086V420.703H458.438V430.469H473.086V435.352H458.438V445.117H473.086V450H448.672ZM482.852 435.352V450H477.969V415.82H487.734V425.586H492.617V435.352H497.5V415.82H507.266V450H497.5V445.117H487.734V435.352H482.852ZM541.445 415.82V420.703H531.68V450H521.914V420.703H512.148V415.82H541.445ZM546.328 450V445.117H551.211V450H546.328ZM600.039 415.82V420.703H585.391V430.469H600.039V435.352H585.391V450H575.625V415.82H600.039ZM624.453 420.703H614.688V445.117H624.453V420.703ZM609.805 445.117H604.922V420.703H609.805V415.82H629.336V420.703H634.219V445.117H629.336V450H609.805V445.117ZM658.633 420.703H648.867V430.469H658.633V420.703ZM663.516 435.352H668.398V450H658.633V435.352H648.867V450H639.102V415.82H663.516V420.703H668.398V430.469H663.516V435.352ZM697.695 435.352V450H692.812V415.82H702.578V425.586H717.227V415.82H726.992V450H717.227V435.352H712.344V445.117H702.578V435.352H697.695ZM751.406 420.703H741.641V445.117H751.406V420.703ZM736.758 445.117H731.875V420.703H736.758V415.82H756.289V420.703H761.172V445.117H756.289V450H736.758V445.117ZM785.586 420.703H775.82V430.469H785.586V420.703ZM790.469 435.352H795.352V450H785.586V435.352H775.82V450H766.055V415.82H790.469V420.703H795.352V430.469H790.469V435.352ZM800.234 450V415.82H824.648V420.703H810V430.469H824.648V435.352H810V445.117H824.648V450H800.234ZM878.359 415.82V420.703H868.594V450H858.828V420.703H849.062V415.82H878.359ZM902.773 415.82H912.539V450H902.773V435.352H893.008V450H883.242V415.82H893.008V430.469H902.773V415.82ZM936.953 435.352V420.703H927.188V435.352H936.953ZM927.188 440.234V450H917.422V420.703H922.305V415.82H941.836V420.703H946.719V450H936.953V440.234H927.188ZM956.484 435.352V450H951.602V415.82H961.367V425.586H966.25V435.352H971.133V415.82H980.898V450H971.133V445.117H961.367V435.352H956.484ZM1029.73 420.703H1015.08V425.586H1029.73V430.469H1034.61V445.117H1029.73V450H1010.2V445.117H1005.31V435.352H1015.08V445.117H1024.84V430.469H1005.31V415.82H1029.73V420.703ZM1078.55 430.469V415.82H1088.32V430.469H1083.44V435.352H1078.55V450H1068.79V435.352H1063.91V430.469H1059.02V415.82H1068.79V430.469H1078.55ZM1093.2 450V415.82H1117.62V420.703H1102.97V430.469H1117.62V435.352H1102.97V445.117H1117.62V450H1093.2ZM1142.03 435.352V420.703H1132.27V435.352H1142.03ZM1132.27 440.234V450H1122.5V420.703H1127.38V415.82H1146.91V420.703H1151.8V450H1142.03V440.234H1132.27ZM1176.21 420.703H1166.45V430.469H1176.21V420.703ZM1181.09 435.352H1185.98V450H1176.21V435.352H1166.45V450H1156.68V415.82H1181.09V420.703H1185.98V430.469H1181.09V435.352ZM1210.39 420.703H1200.62V430.469H1215.27V435.352H1220.16V445.117H1215.27V450H1195.74V445.117H1190.86V440.234H1200.62V445.117H1210.39V435.352H1195.74V430.469H1190.86V420.703H1195.74V415.82H1215.27V420.703H1220.16V425.586H1210.39V420.703ZM1244.57 450V415.82H1254.34V450H1244.57ZM204.531 495.82H214.297V530H204.531V515.352H194.766V530H185V495.82H194.766V510.469H204.531V495.82ZM238.711 515.352V500.703H228.945V515.352H238.711ZM228.945 520.234V530H219.18V500.703H224.062V495.82H243.594V500.703H248.477V530H238.711V520.234H228.945ZM272.891 520.234V495.82H282.656V520.234H277.773V525.117H272.891V530H263.125V525.117H258.242V520.234H253.359V495.82H263.125V520.234H272.891ZM287.539 530V495.82H311.953V500.703H297.305V510.469H311.953V515.352H297.305V525.117H311.953V530H287.539ZM360.781 495.82V500.703H346.133V510.469H360.781V515.352H346.133V530H336.367V495.82H360.781ZM385.195 500.703H375.43V525.117H385.195V500.703ZM370.547 525.117H365.664V500.703H370.547V495.82H390.078V500.703H394.961V525.117H390.078V530H370.547V525.117ZM419.375 520.234H429.141V525.117H424.258V530H404.727V525.117H399.844V500.703H404.727V495.82H424.258V500.703H429.141V505.586H419.375V500.703H409.609V525.117H419.375V520.234ZM453.555 495.82H463.32V530H438.906V525.117H434.023V495.82H443.789V525.117H453.555V495.82ZM487.734 500.703H477.969V510.469H492.617V515.352H497.5V525.117H492.617V530H473.086V525.117H468.203V520.234H477.969V525.117H487.734V515.352H473.086V510.469H468.203V500.703H473.086V495.82H492.617V500.703H497.5V505.586H487.734V500.703ZM502.383 530V495.82H526.797V500.703H512.148V510.469H526.797V515.352H512.148V525.117H526.797V530H502.383ZM551.211 500.703H541.445V525.117H551.211V500.703ZM531.68 530V495.82H556.094V500.703H560.977V525.117H556.094V530H531.68ZM604.922 500.703H595.156V525.117H604.922V500.703ZM590.273 525.117H585.391V500.703H590.273V495.82H609.805V500.703H614.688V525.117H609.805V530H590.273V525.117ZM624.453 515.352V530H619.57V495.82H629.336V505.586H634.219V515.352H639.102V495.82H648.867V530H639.102V525.117H629.336V515.352H624.453ZM692.812 495.82H702.578V530H692.812V515.352H683.047V530H673.281V495.82H683.047V510.469H692.812V495.82ZM726.992 500.703H717.227V525.117H726.992V500.703ZM712.344 525.117H707.461V500.703H712.344V495.82H731.875V500.703H736.758V525.117H731.875V530H712.344V525.117ZM746.523 515.352V530H741.641V495.82H751.406V505.586H756.289V515.352H761.172V495.82H770.938V530H761.172V525.117H751.406V515.352H746.523ZM775.82 530V495.82H785.586V530H775.82ZM795.352 515.352V530H790.469V495.82H800.234V505.586H805.117V515.352H810V495.82H819.766V530H810V525.117H800.234V515.352H795.352ZM844.18 525.728V530H829.531V525.117H824.648V500.703H829.531V495.82H853.945V505.586H849.062V500.703H834.414V525.117H843.569L844.18 524.507V515.352H839.297V510.469H853.945V530H849.062V525.117H844.79L844.18 525.728ZM883.242 515.352V530H878.359V495.82H888.125V505.586H902.773V495.82H912.539V530H902.773V515.352H897.891V525.117H888.125V515.352H883.242ZM936.953 510.469V495.82H946.719V510.469H941.836V515.352H936.953V530H927.188V515.352H922.305V510.469H917.422V495.82H927.188V510.469H936.953ZM990.664 500.703H980.898V510.469H995.547V515.352H1000.43V525.117H995.547V530H976.016V525.117H971.133V520.234H980.898V525.117H990.664V515.352H976.016V510.469H971.133V500.703H976.016V495.82H995.547V500.703H1000.43V505.586H990.664V500.703ZM1015.08 530H1005.31V495.82H1015.08V510.469H1019.96V505.586H1024.84V495.82H1034.61V505.586H1029.73V510.469H1024.84V515.352H1029.73V520.234H1034.61V530H1024.84V520.234H1019.96V515.352H1015.08V530ZM1039.49 530V495.82H1049.26V530H1039.49ZM1078.55 523.896V530H1054.14V495.82H1063.91V523.896H1078.55ZM1107.85 523.896V530H1083.44V495.82H1093.2V523.896H1107.85ZM1132.27 500.703H1122.5V510.469H1137.15V515.352H1142.03V525.117H1137.15V530H1117.62V525.117H1112.73V520.234H1122.5V525.117H1132.27V515.352H1117.62V510.469H1112.73V500.703H1117.62V495.82H1137.15V500.703H1142.03V505.586H1132.27V500.703ZM1166.45 530V495.82H1176.21V530H1166.45ZM1185.98 515.352V530H1181.09V495.82H1190.86V505.586H1195.74V515.352H1200.62V495.82H1210.39V530H1200.62V525.117H1190.86V515.352H1185.98ZM204.531 580.703H194.766V590.469H204.531V580.703ZM209.414 590.469V595.352H194.766V610H185V575.82H209.414V580.703H214.297V590.469H209.414ZM238.711 580.703H228.945V590.469H238.711V580.703ZM243.594 595.352H248.477V610H238.711V595.352H228.945V610H219.18V575.82H243.594V580.703H248.477V590.469H243.594V595.352ZM272.891 580.703H263.125V605.117H272.891V580.703ZM258.242 605.117H253.359V580.703H258.242V575.82H277.773V580.703H282.656V605.117H277.773V610H258.242V605.117ZM307.07 605.728V610H292.422V605.117H287.539V580.703H292.422V575.82H316.836V585.586H311.953V580.703H297.305V605.117H306.46L307.07 604.507V595.352H302.188V590.469H316.836V610H311.953V605.117H307.681L307.07 605.728ZM341.25 580.703H331.484V590.469H341.25V580.703ZM346.133 595.352H351.016V610H341.25V595.352H331.484V610H321.719V575.82H346.133V580.703H351.016V590.469H346.133V595.352ZM375.43 595.352V580.703H365.664V595.352H375.43ZM365.664 600.234V610H355.898V580.703H360.781V575.82H380.312V580.703H385.195V610H375.43V600.234H365.664ZM394.961 595.352V610H390.078V575.82H399.844V585.586H414.492V575.82H424.258V610H414.492V595.352H409.609V605.117H399.844V595.352H394.961ZM434.023 595.352V610H429.141V575.82H438.906V585.586H453.555V575.82H463.32V610H453.555V595.352H448.672V605.117H438.906V595.352H434.023ZM468.203 610V575.82H477.969V610H468.203ZM487.734 595.352V610H482.852V575.82H492.617V585.586H497.5V595.352H502.383V575.82H512.148V610H502.383V605.117H492.617V595.352H487.734ZM536.562 605.728V610H521.914V605.117H517.031V580.703H521.914V575.82H546.328V585.586H541.445V580.703H526.797V605.117H535.952L536.562 604.507V595.352H531.68V590.469H546.328V610H541.445V605.117H537.173L536.562 605.728ZM570.742 610V575.82H580.508V610H570.742ZM590.273 595.352V610H585.391V575.82H595.156V585.586H600.039V595.352H604.922V575.82H614.688V610H604.922V605.117H595.156V595.352H590.273ZM658.633 580.703H648.867V590.469H658.633V580.703ZM663.516 590.469V595.352H648.867V610H639.102V575.82H663.516V580.703H668.398V590.469H663.516ZM692.812 590.469V575.82H702.578V590.469H697.695V595.352H692.812V610H683.047V595.352H678.164V590.469H673.281V575.82H683.047V590.469H692.812ZM736.758 575.82V580.703H726.992V610H717.227V580.703H707.461V575.82H736.758ZM761.172 575.82H770.938V610H761.172V595.352H751.406V610H741.641V575.82H751.406V590.469H761.172V575.82ZM795.352 580.703H785.586V605.117H795.352V580.703ZM780.703 605.117H775.82V580.703H780.703V575.82H800.234V580.703H805.117V605.117H800.234V610H780.703V605.117ZM814.883 595.352V610H810V575.82H819.766V585.586H824.648V595.352H829.531V575.82H839.297V610H829.531V605.117H819.766V595.352H814.883ZM844.18 614.883V605.117H849.062V614.883H844.18ZM888.125 575.82H897.891V605.117H893.008V610H873.477V600.234H878.359V605.117H888.125V575.82ZM922.305 595.352V580.703H912.539V595.352H922.305ZM912.539 600.234V610H902.773V580.703H907.656V575.82H927.188V580.703H932.07V610H922.305V600.234H912.539ZM956.484 600.234V575.82H966.25V600.234H961.367V605.117H956.484V610H946.719V605.117H941.836V600.234H936.953V575.82H946.719V600.234H956.484ZM990.664 595.352V580.703H980.898V595.352H990.664ZM980.898 600.234V610H971.133V580.703H976.016V575.82H995.547V580.703H1000.43V610H990.664V600.234H980.898ZM1024.84 580.703H1015.08V590.469H1029.73V595.352H1034.61V605.117H1029.73V610H1010.2V605.117H1005.31V600.234H1015.08V605.117H1024.84V595.352H1010.2V590.469H1005.31V580.703H1010.2V575.82H1029.73V580.703H1034.61V585.586H1024.84V580.703ZM1059.02 600.234H1068.79V605.117H1063.91V610H1044.38V605.117H1039.49V580.703H1044.38V575.82H1063.91V580.703H1068.79V585.586H1059.02V580.703H1049.26V605.117H1059.02V600.234ZM1093.2 580.703H1083.44V590.469H1093.2V580.703ZM1098.09 595.352H1102.97V610H1093.2V595.352H1083.44V610H1073.67V575.82H1098.09V580.703H1102.97V590.469H1098.09V595.352ZM1107.85 610V575.82H1117.62V610H1107.85ZM1142.03 580.703H1132.27V590.469H1142.03V580.703ZM1146.91 590.469V595.352H1132.27V610H1122.5V575.82H1146.91V580.703H1151.8V590.469H1146.91ZM1185.98 575.82V580.703H1176.21V610H1166.45V580.703H1156.68V575.82H1185.98ZM1190.86 614.883V605.117H1195.74V614.883H1190.86ZM1239.69 600.234H1249.45V605.117H1244.57V610H1225.04V605.117H1220.16V580.703H1225.04V575.82H1244.57V580.703H1249.45V585.586H1239.69V580.703H1229.92V605.117H1239.69V600.234ZM1268.98 600.234H1264.1V605.117H1259.22V600.234H1254.34V595.352H1259.22V590.469H1254.34V585.586H1259.22V580.703H1264.1V585.586H1268.98V580.703H1273.87V585.586H1278.75V590.469H1273.87V595.352H1278.75V600.234H1273.87V605.117H1268.98V600.234ZM1264.1 595.352H1268.98V590.469H1264.1V595.352ZM204.531 675.352V660.703H194.766V675.352H204.531ZM194.766 680.234V690H185V660.703H189.883V655.82H209.414V660.703H214.297V690H204.531V680.234H194.766ZM224.062 675.352V690H219.18V655.82H228.945V665.586H233.828V675.352H238.711V655.82H248.477V690H238.711V685.117H228.945V675.352H224.062ZM272.891 660.703H263.125V685.117H272.891V660.703ZM253.359 690V655.82H277.773V660.703H282.656V685.117H277.773V690H253.359ZM326.602 655.82H336.367V690H326.602V675.352H316.836V690H307.07V655.82H316.836V670.469H326.602V655.82ZM370.547 655.82V660.703H360.781V690H351.016V660.703H341.25V655.82H370.547ZM380.312 675.352V690H375.43V655.82H385.195V665.586H399.844V655.82H409.609V690H399.844V675.352H394.961V685.117H385.195V675.352H380.312ZM438.906 683.896V690H414.492V655.82H424.258V683.896H438.906ZM443.789 690V685.117H448.672V690H443.789ZM214.297 815.82V820.703H204.531V850H194.766V820.703H185V815.82H214.297ZM238.711 815.82H248.477V850H238.711V835.352H228.945V850H219.18V815.82H228.945V830.469H238.711V815.82ZM272.891 820.703H263.125V830.469H272.891V820.703ZM277.773 835.352H282.656V850H272.891V835.352H263.125V850H253.359V815.82H277.773V820.703H282.656V830.469H277.773V835.352ZM307.07 820.703H297.305V845.117H307.07V820.703ZM292.422 845.117H287.539V820.703H292.422V815.82H311.953V820.703H316.836V845.117H311.953V850H292.422V845.117ZM341.25 815.82H351.016V850H326.602V845.117H321.719V815.82H331.484V845.117H341.25V815.82ZM375.43 845.728V850H360.781V845.117H355.898V820.703H360.781V815.82H385.195V825.586H380.312V820.703H365.664V845.117H374.819L375.43 844.507V835.352H370.547V830.469H385.195V850H380.312V845.117H376.04L375.43 845.728ZM409.609 815.82H419.375V850H409.609V835.352H399.844V850H390.078V815.82H399.844V830.469H409.609V815.82ZM463.32 820.703H453.555V830.469H463.32V820.703ZM443.789 850V815.82H468.203V820.703H473.086V830.469H468.203V835.352H473.086V845.117H468.203V850H443.789ZM463.32 845.117V835.352H453.555V845.117H463.32ZM497.5 820.703H487.734V830.469H497.5V820.703ZM502.383 835.352H507.266V850H497.5V835.352H487.734V850H477.969V815.82H502.383V820.703H507.266V830.469H502.383V835.352ZM531.68 835.352V820.703H521.914V835.352H531.68ZM521.914 840.234V850H512.148V820.703H517.031V815.82H536.562V820.703H541.445V850H531.68V840.234H521.914ZM546.328 850V815.82H556.094V850H546.328ZM565.859 835.352V850H560.977V815.82H570.742V825.586H575.625V835.352H580.508V815.82H590.273V850H580.508V845.117H570.742V835.352H565.859ZM614.688 820.703H604.922V830.469H619.57V835.352H624.453V845.117H619.57V850H600.039V845.117H595.156V840.234H604.922V845.117H614.688V835.352H600.039V830.469H595.156V820.703H600.039V815.82H619.57V820.703H624.453V825.586H614.688V820.703ZM658.633 815.82V820.703H648.867V850H639.102V820.703H629.336V815.82H658.633ZM683.047 820.703H673.281V845.117H683.047V820.703ZM668.398 845.117H663.516V820.703H668.398V815.82H687.93V820.703H692.812V845.117H687.93V850H668.398V845.117ZM717.227 820.703H707.461V830.469H717.227V820.703ZM722.109 835.352H726.992V850H717.227V835.352H707.461V850H697.695V815.82H722.109V820.703H726.992V830.469H722.109V835.352ZM736.758 835.352V850H731.875V815.82H741.641V825.586H756.289V815.82H766.055V850H756.289V835.352H751.406V845.117H741.641V835.352H736.758ZM770.938 850V815.82H780.703V850H770.938ZM790.469 835.352V850H785.586V815.82H795.352V825.586H800.234V835.352H805.117V815.82H814.883V850H805.117V845.117H795.352V835.352H790.469ZM839.297 845.728V850H824.648V845.117H819.766V820.703H824.648V815.82H849.062V825.586H844.18V820.703H829.531V845.117H838.687L839.297 844.507V835.352H834.414V830.469H849.062V850H844.18V845.117H839.907L839.297 845.728ZM853.945 854.883V845.117H858.828V854.883H853.945ZM902.773 840.234H912.539V845.117H907.656V850H888.125V845.117H883.242V820.703H888.125V815.82H907.656V820.703H912.539V825.586H902.773V820.703H893.008V845.117H902.773V840.234ZM936.953 820.703H927.188V830.469H936.953V820.703ZM941.836 835.352H946.719V850H936.953V835.352H927.188V850H917.422V815.82H941.836V820.703H946.719V830.469H941.836V835.352ZM951.602 850V815.82H976.016V820.703H961.367V830.469H976.016V835.352H961.367V845.117H976.016V850H951.602ZM1000.43 835.352V820.703H990.664V835.352H1000.43ZM990.664 840.234V850H980.898V820.703H985.781V815.82H1005.31V820.703H1010.2V850H1000.43V840.234H990.664ZM1044.38 815.82V820.703H1034.61V850H1024.84V820.703H1015.08V815.82H1044.38ZM1049.26 850V815.82H1059.02V850H1049.26ZM1083.44 840.234V815.82H1093.2V840.234H1088.32V845.117H1083.44V850H1073.67V845.117H1068.79V840.234H1063.91V815.82H1073.67V840.234H1083.44ZM1098.09 850V815.82H1122.5V820.703H1107.85V830.469H1122.5V835.352H1107.85V845.117H1122.5V850H1098.09ZM204.531 900.703H194.766V910.469H204.531V900.703ZM209.414 910.469V915.352H194.766V930H185V895.82H209.414V900.703H214.297V910.469H209.414ZM238.711 900.703H228.945V910.469H238.711V900.703ZM243.594 915.352H248.477V930H238.711V915.352H228.945V930H219.18V895.82H243.594V900.703H248.477V910.469H243.594V915.352ZM272.891 900.703H263.125V925.117H272.891V900.703ZM258.242 925.117H253.359V900.703H258.242V895.82H277.773V900.703H282.656V925.117H277.773V930H258.242V925.117ZM307.07 900.703H297.305V925.117H307.07V900.703ZM287.539 930V895.82H311.953V900.703H316.836V925.117H311.953V930H287.539ZM341.25 895.82H351.016V930H326.602V925.117H321.719V895.82H331.484V925.117H341.25V895.82ZM375.43 920.234H385.195V925.117H380.312V930H360.781V925.117H355.898V900.703H360.781V895.82H380.312V900.703H385.195V905.586H375.43V900.703H365.664V925.117H375.43V920.234ZM419.375 895.82V900.703H409.609V930H399.844V900.703H390.078V895.82H419.375ZM424.258 930V895.82H434.023V930H424.258ZM458.438 900.703H448.672V925.117H458.438V900.703ZM443.789 925.117H438.906V900.703H443.789V895.82H463.32V900.703H468.203V925.117H463.32V930H443.789V925.117ZM477.969 915.352V930H473.086V895.82H482.852V905.586H487.734V915.352H492.617V895.82H502.383V930H492.617V925.117H482.852V915.352H477.969ZM546.328 915.352V900.703H536.562V915.352H546.328ZM536.562 920.234V930H526.797V900.703H531.68V895.82H551.211V900.703H556.094V930H546.328V920.234H536.562ZM565.859 915.352V930H560.977V895.82H570.742V905.586H575.625V915.352H580.508V895.82H590.273V930H580.508V925.117H570.742V915.352H565.859ZM614.688 900.703H604.922V925.117H614.688V900.703ZM595.156 930V895.82H619.57V900.703H624.453V925.117H619.57V930H595.156ZM668.398 915.352V900.703H658.633V915.352H668.398ZM658.633 920.234V930H648.867V900.703H653.75V895.82H673.281V900.703H678.164V930H668.398V920.234H658.633ZM722.109 900.703H712.344V910.469H726.992V915.352H731.875V925.117H726.992V930H707.461V925.117H702.578V920.234H712.344V925.117H722.109V915.352H707.461V910.469H702.578V900.703H707.461V895.82H726.992V900.703H731.875V905.586H722.109V900.703ZM736.758 930V895.82H761.172V900.703H746.523V910.469H761.172V915.352H746.523V925.117H761.172V930H736.758ZM770.938 915.352V930H766.055V895.82H775.82V905.586H780.703V915.352H785.586V895.82H795.352V930H785.586V925.117H775.82V915.352H770.938ZM819.766 900.703H810V910.469H824.648V915.352H829.531V925.117H824.648V930H805.117V925.117H800.234V920.234H810V925.117H819.766V915.352H805.117V910.469H800.234V900.703H805.117V895.82H824.648V900.703H829.531V905.586H819.766V900.703ZM834.414 930V895.82H858.828V900.703H844.18V910.469H858.828V915.352H844.18V925.117H858.828V930H834.414ZM902.773 900.703H893.008V925.117H902.773V900.703ZM888.125 925.117H883.242V900.703H888.125V895.82H907.656V900.703H912.539V925.117H907.656V930H888.125V925.117ZM941.836 895.82V900.703H927.188V910.469H941.836V915.352H927.188V930H917.422V895.82H941.836ZM990.664 895.82V900.703H976.016V910.469H990.664V915.352H976.016V930H966.25V895.82H990.664ZM1015.08 895.82H1024.84V930H1000.43V925.117H995.547V895.82H1005.31V925.117H1015.08V895.82ZM1034.61 915.352V930H1029.73V895.82H1039.49V905.586H1044.38V915.352H1049.26V895.82H1059.02V930H1049.26V925.117H1039.49V915.352H1034.61ZM1063.91 934.883V925.117H1068.79V934.883H1063.91ZM1093.2 930V895.82H1102.97V930H1093.2ZM1137.15 895.82V900.703H1127.38V930H1117.62V900.703H1107.85V895.82H1137.15ZM1161.56 930V895.82H1171.33V930H1161.56ZM1195.74 900.703H1185.98V910.469H1200.62V915.352H1205.51V925.117H1200.62V930H1181.09V925.117H1176.21V920.234H1185.98V925.117H1195.74V915.352H1181.09V910.469H1176.21V900.703H1181.09V895.82H1200.62V900.703H1205.51V905.586H1195.74V900.703ZM204.531 980.703H194.766V990.469H204.531V980.703ZM209.414 990.469V995.352H194.766V1010H185V975.82H209.414V980.703H214.297V990.469H209.414ZM238.711 980.703H228.945V1005.12H238.711V980.703ZM224.062 1005.12H219.18V980.703H224.062V975.82H243.594V980.703H248.477V1005.12H243.594V1010H224.062V1005.12ZM272.891 980.703H263.125V990.469H277.773V995.352H282.656V1005.12H277.773V1010H258.242V1005.12H253.359V1000.23H263.125V1005.12H272.891V995.352H258.242V990.469H253.359V980.703H258.242V975.82H277.773V980.703H282.656V985.586H272.891V980.703ZM307.07 980.703H297.305V990.469H311.953V995.352H316.836V1005.12H311.953V1010H292.422V1005.12H287.539V1000.23H297.305V1005.12H307.07V995.352H292.422V990.469H287.539V980.703H292.422V975.82H311.953V980.703H316.836V985.586H307.07V980.703ZM321.719 1010V975.82H331.484V1010H321.719ZM355.898 980.703H346.133V990.469H355.898V980.703ZM336.367 1010V975.82H360.781V980.703H365.664V990.469H360.781V995.352H365.664V1005.12H360.781V1010H336.367ZM355.898 1005.12V995.352H346.133V1005.12H355.898ZM394.961 1003.9V1010H370.547V975.82H380.312V1003.9H394.961ZM399.844 1010V975.82H424.258V980.703H409.609V990.469H424.258V995.352H409.609V1005.12H424.258V1010H399.844ZM477.969 975.82V980.703H468.203V1010H458.438V980.703H448.672V975.82H477.969ZM502.383 980.703H492.617V1005.12H502.383V980.703ZM487.734 1005.12H482.852V980.703H487.734V975.82H507.266V980.703H512.148V1005.12H507.266V1010H487.734V1005.12ZM541.445 995.352V1010H536.562V975.82H546.328V985.586H560.977V975.82H570.742V1010H560.977V995.352H556.094V1005.12H546.328V995.352H541.445ZM595.156 995.352V980.703H585.391V995.352H595.156ZM585.391 1000.23V1010H575.625V980.703H580.508V975.82H600.039V980.703H604.922V1010H595.156V1000.23H585.391ZM614.688 995.352V1010H609.805V975.82H619.57V985.586H624.453V995.352H629.336V975.82H639.102V1010H629.336V1005.12H619.57V995.352H614.688ZM663.516 995.352V980.703H653.75V995.352H663.516ZM653.75 1000.23V1010H643.984V980.703H648.867V975.82H668.398V980.703H673.281V1010H663.516V1000.23H653.75ZM697.695 1005.73V1010H683.047V1005.12H678.164V980.703H683.047V975.82H707.461V985.586H702.578V980.703H687.93V1005.12H697.085L697.695 1004.51V995.352H692.812V990.469H707.461V1010H702.578V1005.12H698.306L697.695 1005.73ZM712.344 1010V975.82H736.758V980.703H722.109V990.469H736.758V995.352H722.109V1005.12H736.758V1010H712.344ZM780.703 995.352V980.703H770.938V995.352H780.703ZM770.938 1000.23V1010H761.172V980.703H766.055V975.82H785.586V980.703H790.469V1010H780.703V1000.23H770.938ZM800.234 995.352V1010H795.352V975.82H805.117V985.586H810V995.352H814.883V975.82H824.648V1010H814.883V1005.12H805.117V995.352H800.234ZM849.062 990.469V975.82H858.828V990.469H853.945V995.352H849.062V1010H839.297V995.352H834.414V990.469H829.531V975.82H839.297V990.469H849.062ZM902.773 1000.23H912.539V1005.12H907.656V1010H888.125V1005.12H883.242V980.703H888.125V975.82H907.656V980.703H912.539V985.586H902.773V980.703H893.008V1005.12H902.773V1000.23ZM941.836 1003.9V1010H917.422V975.82H927.188V1003.9H941.836ZM946.719 1010V975.82H956.484V1010H946.719ZM961.367 1010V975.82H985.781V980.703H971.133V990.469H985.781V995.352H971.133V1005.12H985.781V1010H961.367ZM995.547 995.352V1010H990.664V975.82H1000.43V985.586H1005.31V995.352H1010.2V975.82H1019.96V1010H1010.2V1005.12H1000.43V995.352H995.547ZM1054.14 975.82V980.703H1044.38V1010H1034.61V980.703H1024.84V975.82H1054.14ZM1097.48 1005.12L1098.09 1004.51V980.703H1088.32V1005.12H1097.48ZM1103.58 1005.12H1107.85V1010H1102.97V1005.73L1102.36 1005.12H1098.7L1098.09 1005.73V1010H1083.44V1005.12H1078.55V980.703H1083.44V975.82H1102.97V980.703H1107.85V1000.23H1102.97V1004.51L1103.58 1005.12ZM1132.27 975.82H1142.03V1010H1117.62V1005.12H1112.73V975.82H1122.5V1005.12H1132.27V975.82ZM1146.91 1010V975.82H1171.33V980.703H1156.68V990.469H1171.33V995.352H1156.68V1005.12H1171.33V1010H1146.91ZM1195.74 980.703H1185.98V990.469H1195.74V980.703ZM1200.62 995.352H1205.51V1010H1195.74V995.352H1185.98V1010H1176.21V975.82H1200.62V980.703H1205.51V990.469H1200.62V995.352ZM1229.92 990.469V975.82H1239.69V990.469H1234.8V995.352H1229.92V1010H1220.16V995.352H1215.27V990.469H1210.39V975.82H1220.16V990.469H1229.92ZM1244.57 1010V1005.12H1249.45V1010H1244.57ZM185 1090V1055.82H194.766V1090H185ZM243.594 1083.9V1090H219.18V1055.82H228.945V1083.9H243.594ZM268.008 1060.7H258.242V1085.12H268.008V1060.7ZM253.359 1085.12H248.477V1060.7H253.359V1055.82H272.891V1060.7H277.773V1085.12H272.891V1090H253.359V1085.12ZM302.188 1060.7H292.422V1085.12H302.188V1060.7ZM287.539 1085.12H282.656V1060.7H287.539V1055.82H307.07V1060.7H311.953V1085.12H307.07V1090H287.539V1085.12ZM326.602 1090H316.836V1055.82H326.602V1070.47H331.484V1065.59H336.367V1055.82H346.133V1065.59H341.25V1070.47H336.367V1075.35H341.25V1080.23H346.133V1090H336.367V1080.23H331.484V1075.35H326.602V1090ZM394.961 1055.82V1060.7H380.312V1070.47H394.961V1075.35H380.312V1090H370.547V1055.82H394.961ZM419.375 1060.7H409.609V1085.12H419.375V1060.7ZM404.727 1085.12H399.844V1060.7H404.727V1055.82H424.258V1060.7H429.141V1085.12H424.258V1090H404.727V1085.12ZM453.555 1060.7H443.789V1070.47H453.555V1060.7ZM458.438 1075.35H463.32V1090H453.555V1075.35H443.789V1090H434.023V1055.82H458.438V1060.7H463.32V1070.47H458.438V1075.35ZM497.5 1070.47V1055.82H502.383V1090H492.617V1080.23H477.969V1090H468.203V1055.82H477.969V1070.47H482.852V1060.7H492.617V1070.47H497.5ZM526.797 1075.35V1060.7H517.031V1075.35H526.797ZM517.031 1080.23V1090H507.266V1060.7H512.148V1055.82H531.68V1060.7H536.562V1090H526.797V1080.23H517.031ZM560.977 1060.7H551.211V1070.47H560.977V1060.7ZM565.859 1075.35H570.742V1090H560.977V1075.35H551.211V1090H541.445V1055.82H565.859V1060.7H570.742V1070.47H565.859V1075.35ZM595.156 1060.7H585.391V1085.12H595.156V1060.7ZM575.625 1090V1055.82H600.039V1060.7H604.922V1085.12H600.039V1090H575.625ZM658.633 1055.82V1060.7H648.867V1090H639.102V1060.7H629.336V1055.82H658.633ZM683.047 1060.7H673.281V1085.12H683.047V1060.7ZM668.398 1085.12H663.516V1060.7H668.398V1055.82H687.93V1060.7H692.812V1085.12H687.93V1090H668.398V1085.12ZM736.758 1060.7H726.992V1085.12H736.758V1060.7ZM717.227 1090V1055.82H741.641V1060.7H746.523V1085.12H741.641V1090H717.227ZM751.406 1090V1055.82H761.172V1090H751.406ZM785.586 1060.7H775.82V1070.47H790.469V1075.35H795.352V1085.12H790.469V1090H770.938V1085.12H766.055V1080.23H775.82V1085.12H785.586V1075.35H770.938V1070.47H766.055V1060.7H770.938V1055.82H790.469V1060.7H795.352V1065.59H785.586V1060.7ZM819.766 1080.23H829.531V1085.12H824.648V1090H805.117V1085.12H800.234V1060.7H805.117V1055.82H824.648V1060.7H829.531V1065.59H819.766V1060.7H810V1085.12H819.766V1080.23ZM853.945 1055.82H863.711V1090H839.297V1085.12H834.414V1055.82H844.18V1085.12H853.945V1055.82ZM888.125 1060.7H878.359V1070.47H893.008V1075.35H897.891V1085.12H893.008V1090H873.477V1085.12H868.594V1080.23H878.359V1085.12H888.125V1075.35H873.477V1070.47H868.594V1060.7H873.477V1055.82H893.008V1060.7H897.891V1065.59H888.125V1060.7ZM922.305 1060.7H912.539V1070.47H927.188V1075.35H932.07V1085.12H927.188V1090H907.656V1085.12H902.773V1080.23H912.539V1085.12H922.305V1075.35H907.656V1070.47H902.773V1060.7H907.656V1055.82H927.188V1060.7H932.07V1065.59H922.305V1060.7ZM936.953 1090V1055.82H946.719V1090H936.953ZM956.484 1075.35V1090H951.602V1055.82H961.367V1065.59H966.25V1075.35H971.133V1055.82H980.898V1090H971.133V1085.12H961.367V1075.35H956.484ZM1005.31 1085.73V1090H990.664V1085.12H985.781V1060.7H990.664V1055.82H1015.08V1065.59H1010.2V1060.7H995.547V1085.12H1004.7L1005.31 1084.51V1075.35H1000.43V1070.47H1015.08V1090H1010.2V1085.12H1005.92L1005.31 1085.73ZM1068.79 1070.47V1055.82H1073.67V1090H1063.91V1080.23H1049.26V1090H1039.49V1055.82H1049.26V1070.47H1054.14V1060.7H1063.91V1070.47H1068.79ZM1078.55 1090V1055.82H1088.32V1090H1078.55ZM1122.5 1055.82V1060.7H1112.73V1090H1102.97V1060.7H1093.2V1055.82H1122.5ZM1146.91 1055.82H1156.68V1090H1146.91V1075.35H1137.15V1090H1127.38V1055.82H1137.15V1070.47H1146.91V1055.82ZM1200.62 1070.47V1055.82H1210.39V1070.47H1205.51V1075.35H1200.62V1090H1190.86V1075.35H1185.98V1070.47H1181.09V1055.82H1190.86V1070.47H1200.62ZM1234.8 1060.7H1225.04V1085.12H1234.8V1060.7ZM1220.16 1085.12H1215.27V1060.7H1220.16V1055.82H1239.69V1060.7H1244.57V1085.12H1239.69V1090H1220.16V1085.12ZM1268.98 1055.82H1278.75V1090H1254.34V1085.12H1249.45V1055.82H1259.22V1085.12H1268.98V1055.82ZM204.531 1150.47V1135.82H214.297V1150.47H209.414V1155.35H204.531V1170H194.766V1155.35H189.883V1150.47H185V1135.82H194.766V1150.47H204.531ZM238.711 1140.7H228.945V1165.12H238.711V1140.7ZM224.062 1165.12H219.18V1140.7H224.062V1135.82H243.594V1140.7H248.477V1165.12H243.594V1170H224.062V1165.12ZM272.891 1135.82H282.656V1170H258.242V1165.12H253.359V1135.82H263.125V1165.12H272.891V1135.82ZM307.07 1140.7H297.305V1150.47H307.07V1140.7ZM311.953 1155.35H316.836V1170H307.07V1155.35H297.305V1170H287.539V1135.82H311.953V1140.7H316.836V1150.47H311.953V1155.35ZM360.781 1140.7H351.016V1150.47H360.781V1140.7ZM365.664 1150.47V1155.35H351.016V1170H341.25V1135.82H365.664V1140.7H370.547V1150.47H365.664ZM394.961 1140.7H385.195V1150.47H394.961V1140.7ZM399.844 1155.35H404.727V1170H394.961V1155.35H385.195V1170H375.43V1135.82H399.844V1140.7H404.727V1150.47H399.844V1155.35ZM429.141 1140.7H419.375V1165.12H429.141V1140.7ZM414.492 1165.12H409.609V1140.7H414.492V1135.82H434.023V1140.7H438.906V1165.12H434.023V1170H414.492V1165.12ZM458.438 1135.82H468.203V1165.12H463.32V1170H443.789V1160.23H448.672V1165.12H458.438V1135.82ZM473.086 1170V1135.82H497.5V1140.7H482.852V1150.47H497.5V1155.35H482.852V1165.12H497.5V1170H473.086ZM521.914 1160.23H531.68V1165.12H526.797V1170H507.266V1165.12H502.383V1140.7H507.266V1135.82H526.797V1140.7H531.68V1145.59H521.914V1140.7H512.148V1165.12H521.914V1160.23ZM565.859 1135.82V1140.7H556.094V1170H546.328V1140.7H536.562V1135.82H565.859ZM619.57 1150.47V1135.82H624.453V1170H614.688V1160.23H600.039V1170H590.273V1135.82H600.039V1150.47H604.922V1140.7H614.688V1150.47H619.57ZM629.336 1170V1135.82H639.102V1170H629.336ZM673.281 1135.82V1140.7H663.516V1170H653.75V1140.7H643.984V1135.82H673.281ZM697.695 1135.82H707.461V1170H697.695V1155.35H687.93V1170H678.164V1135.82H687.93V1150.47H697.695V1135.82ZM751.406 1155.35V1140.7H741.641V1155.35H751.406ZM741.641 1160.23V1170H731.875V1140.7H736.758V1135.82H756.289V1140.7H761.172V1170H751.406V1160.23H741.641ZM805.117 1160.23V1135.82H814.883V1160.23H810V1165.12H805.117V1170H795.352V1165.12H790.469V1160.23H785.586V1135.82H795.352V1160.23H805.117ZM819.766 1170V1135.82H829.531V1170H819.766ZM834.414 1170V1135.82H858.828V1140.7H844.18V1150.47H858.828V1155.35H844.18V1165.12H858.828V1170H834.414ZM893.008 1150.47V1135.82H897.891V1170H888.125V1160.23H873.477V1170H863.711V1135.82H873.477V1150.47H878.359V1140.7H888.125V1150.47H893.008ZM951.602 1135.82V1140.7H941.836V1170H932.07V1140.7H922.305V1135.82H951.602ZM976.016 1140.7H966.25V1165.12H976.016V1140.7ZM961.367 1165.12H956.484V1140.7H961.367V1135.82H980.898V1140.7H985.781V1165.12H980.898V1170H961.367V1165.12ZM1029.73 1140.7H1019.96V1150.47H1029.73V1140.7ZM1034.61 1150.47V1155.35H1019.96V1170H1010.2V1135.82H1034.61V1140.7H1039.49V1150.47H1034.61ZM1063.91 1140.7H1054.14V1150.47H1063.91V1140.7ZM1068.79 1155.35H1073.67V1170H1063.91V1155.35H1054.14V1170H1044.38V1135.82H1068.79V1140.7H1073.67V1150.47H1068.79V1155.35ZM1098.09 1140.7H1088.32V1165.12H1098.09V1140.7ZM1083.44 1165.12H1078.55V1140.7H1083.44V1135.82H1102.97V1140.7H1107.85V1165.12H1102.97V1170H1083.44V1165.12ZM1132.27 1160.23V1135.82H1142.03V1160.23H1137.15V1165.12H1132.27V1170H1122.5V1165.12H1117.62V1160.23H1112.73V1135.82H1122.5V1160.23H1132.27ZM1146.91 1170V1135.82H1156.68V1170H1146.91ZM1181.09 1140.7H1171.33V1165.12H1181.09V1140.7ZM1161.56 1170V1135.82H1185.98V1140.7H1190.86V1165.12H1185.98V1170H1161.56ZM1195.74 1170V1135.82H1205.51V1170H1195.74ZM1215.27 1155.35V1170H1210.39V1135.82H1220.16V1145.59H1225.04V1155.35H1229.92V1135.82H1239.69V1170H1229.92V1165.12H1220.16V1155.35H1215.27ZM1264.1 1165.73V1170H1249.45V1165.12H1244.57V1140.7H1249.45V1135.82H1273.87V1145.59H1268.98V1140.7H1254.34V1165.12H1263.49L1264.1 1164.51V1155.35H1259.22V1150.47H1273.87V1170H1268.98V1165.12H1264.71L1264.1 1165.73ZM204.531 1235.35V1220.7H194.766V1235.35H204.531ZM194.766 1240.23V1250H185V1220.7H189.883V1215.82H209.414V1220.7H214.297V1250H204.531V1240.23H194.766ZM263.125 1215.82V1220.7H248.477V1230.47H263.125V1235.35H248.477V1250H238.711V1215.82H263.125ZM287.539 1235.35V1220.7H277.773V1235.35H287.539ZM277.773 1240.23V1250H268.008V1220.7H272.891V1215.82H292.422V1220.7H297.305V1250H287.539V1240.23H277.773ZM321.719 1220.7H311.953V1230.47H326.602V1235.35H331.484V1245.12H326.602V1250H307.07V1245.12H302.188V1240.23H311.953V1245.12H321.719V1235.35H307.07V1230.47H302.188V1220.7H307.07V1215.82H326.602V1220.7H331.484V1225.59H321.719V1220.7ZM365.664 1215.82V1220.7H355.898V1250H346.133V1220.7H336.367V1215.82H365.664ZM409.609 1235.35V1220.7H399.844V1235.35H409.609ZM399.844 1240.23V1250H390.078V1220.7H394.961V1215.82H414.492V1220.7H419.375V1250H409.609V1240.23H399.844ZM429.141 1235.35V1250H424.258V1215.82H434.023V1225.59H438.906V1235.35H443.789V1215.82H453.555V1250H443.789V1245.12H434.023V1235.35H429.141ZM477.969 1220.7H468.203V1245.12H477.969V1220.7ZM458.438 1250V1215.82H482.852V1220.7H487.734V1245.12H482.852V1250H458.438ZM531.68 1240.23H541.445V1245.12H536.562V1250H517.031V1245.12H512.148V1220.7H517.031V1215.82H536.562V1220.7H541.445V1225.59H531.68V1220.7H521.914V1245.12H531.68V1240.23ZM565.859 1220.7H556.094V1245.12H565.859V1220.7ZM551.211 1245.12H546.328V1220.7H551.211V1215.82H570.742V1220.7H575.625V1245.12H570.742V1250H551.211V1245.12ZM600.039 1220.7H590.273V1230.47H604.922V1235.35H609.805V1245.12H604.922V1250H585.391V1245.12H580.508V1240.23H590.273V1245.12H600.039V1235.35H585.391V1230.47H580.508V1220.7H585.391V1215.82H604.922V1220.7H609.805V1225.59H600.039V1220.7ZM643.984 1215.82V1220.7H634.219V1250H624.453V1220.7H614.688V1215.82H643.984ZM668.398 1250V1215.82H692.812V1220.7H678.164V1230.47H692.812V1235.35H678.164V1245.12H692.812V1250H668.398ZM722.109 1215.82V1220.7H707.461V1230.47H722.109V1235.35H707.461V1250H697.695V1215.82H722.109ZM751.406 1215.82V1220.7H736.758V1230.47H751.406V1235.35H736.758V1250H726.992V1215.82H751.406ZM756.289 1250V1215.82H780.703V1220.7H766.055V1230.47H780.703V1235.35H766.055V1245.12H780.703V1250H756.289ZM805.117 1240.23H814.883V1245.12H810V1250H790.469V1245.12H785.586V1220.7H790.469V1215.82H810V1220.7H814.883V1225.59H805.117V1220.7H795.352V1245.12H805.117V1240.23ZM849.062 1215.82V1220.7H839.297V1250H829.531V1220.7H819.766V1215.82H849.062ZM853.945 1250V1215.82H863.711V1250H853.945ZM888.125 1240.23V1215.82H897.891V1240.23H893.008V1245.12H888.125V1250H878.359V1245.12H873.477V1240.23H868.594V1215.82H878.359V1240.23H888.125ZM902.773 1250V1215.82H927.188V1220.7H912.539V1230.47H927.188V1235.35H912.539V1245.12H927.188V1250H902.773ZM971.133 1220.7H961.367V1230.47H976.016V1235.35H980.898V1245.12H976.016V1250H956.484V1245.12H951.602V1240.23H961.367V1245.12H971.133V1235.35H956.484V1230.47H951.602V1220.7H956.484V1215.82H976.016V1220.7H980.898V1225.59H971.133V1220.7ZM1005.31 1220.7H995.547V1245.12H1005.31V1220.7ZM990.664 1245.12H985.781V1220.7H990.664V1215.82H1010.2V1220.7H1015.08V1245.12H1010.2V1250H990.664V1245.12ZM1044.38 1243.9V1250H1019.96V1215.82H1029.73V1243.9H1044.38ZM1068.79 1215.82H1078.55V1250H1054.14V1245.12H1049.26V1215.82H1059.02V1245.12H1068.79V1215.82ZM1112.73 1215.82V1220.7H1102.97V1250H1093.2V1220.7H1083.44V1215.82H1112.73ZM1117.62 1250V1215.82H1127.38V1250H1117.62ZM1151.8 1220.7H1142.03V1245.12H1151.8V1220.7ZM1137.15 1245.12H1132.27V1220.7H1137.15V1215.82H1156.68V1220.7H1161.56V1245.12H1156.68V1250H1137.15V1245.12ZM1171.33 1235.35V1250H1166.45V1215.82H1176.21V1225.59H1181.09V1235.35H1185.98V1215.82H1195.74V1250H1185.98V1245.12H1176.21V1235.35H1171.33ZM1200.62 1250V1245.12H1205.51V1250H1200.62Z" fill="black"/>
</svg>
