<svg width="265" height="175" viewBox="0 0 265 175" fill="none" xmlns="http://www.w3.org/2000/svg">
<path fill-rule="evenodd" clip-rule="evenodd" d="M187.1 39.325V78.65H184.075H181.05V81.675V84.7H184.075H187.1V87.725V90.75H190.125H193.15V93.775V96.8H196.175H199.2V99.825V102.85H202.225H205.25V105.875V108.9H208.275H211.3V111.925V114.95H208.275H205.25V117.975V121H129.625H53.9998V114.95V108.9H57.0248H60.0498V105.875V102.85H63.0748H66.0998V99.825V96.8H69.1248H72.1498V93.775V90.75H75.1748H78.1998V84.7V78.65H75.1748H72.1498V42.35V6.05H75.1748H78.1998V3.025V0H132.65H187.1V39.325ZM78.1998 39.325V72.6H129.625H181.05V39.325V6.05H129.625H78.1998V39.325ZM84.2498 87.725V90.75H81.2248H78.1998V93.775V96.8H129.625H181.05V93.775V90.75H178.025H175V87.725V84.7H129.625H84.2498V87.725ZM114.5 105.875V108.9H132.65H150.8V105.875V102.85H132.65H114.5V105.875Z" fill="#F9CC14"/>
<path fill-rule="evenodd" clip-rule="evenodd" d="M73.2 39.325V78.65H76.225H79.25V81.675V84.7H76.225H73.2V87.725V90.75H70.175H67.15V93.775V96.8H64.125H61.1V99.825V102.85H58.075H55.05V105.875V108.9H52.025H49V111.925V114.95H52.025H55.05V117.975V121H130.675H206.3V114.95V108.9H203.275H200.25V105.875V102.85H197.225H194.2V99.825V96.8H191.175H188.15V93.775V90.75H185.125H182.1V84.7V78.65H185.125H188.15V42.35V6.05H185.125H182.1V3.025V0H127.65H73.2V39.325ZM182.1 39.325V72.6H130.675H79.25V39.325V6.05H130.675H182.1V39.325ZM176.05 87.725V90.75H179.075H182.1V93.775V96.8H130.675H79.25V93.775V90.75H82.275H85.3V87.725V84.7H130.675H176.05V87.725ZM145.8 105.875V108.9H127.65H109.5V105.875V102.85H127.65H145.8V105.875Z" fill="#F9CC14"/>
<path d="M24.6875 146.875H15.3125V156.25H24.6875V146.875ZM29.375 156.25V160.938H15.3125V175H5.9375V142.188H29.375V146.875H34.0625V156.25H29.375ZM57.5 146.875H48.125V156.25H57.5V146.875ZM62.1875 160.938H66.875V175H57.5V160.938H48.125V175H38.75V142.188H62.1875V146.875H66.875V156.25H62.1875V160.938ZM90.3125 146.875H80.9375V170.312H90.3125V146.875ZM76.25 170.312H71.5625V146.875H76.25V142.188H95V146.875H99.6875V170.312H95V175H76.25V170.312ZM118.438 142.188H127.812V170.312H123.125V175H104.375V165.625H109.062V170.312H118.438V142.188ZM132.5 175V142.188H155.938V146.875H141.875V156.25H155.938V160.938H141.875V170.312H155.938V175H132.5ZM179.375 165.625H188.75V170.312H184.062V175H165.312V170.312H160.625V146.875H165.312V142.188H184.062V146.875H188.75V151.562H179.375V146.875H170V170.312H179.375V165.625ZM221.562 142.188V146.875H212.188V175H202.812V146.875H193.438V142.188H221.562ZM245 146.875H235.625V156.25H249.688V160.938H254.375V170.312H249.688V175H230.938V170.312H226.25V165.625H235.625V170.312H245V160.938H230.938V156.25H226.25V146.875H230.938V142.188H249.688V146.875H254.375V151.562H245V146.875Z" fill="white"/>
</svg>
