<svg width="224" height="224" viewBox="0 0 224 224" fill="none" xmlns="http://www.w3.org/2000/svg">
<path d="M23.0584 89.1741L0.870098 110.918L0.578145 111.204L22.8939 133.976L30.4847 126.537L37.6372 133.836L45.5199 126.112L53.2446 133.994L60.5434 126.842L67.982 134.432L75.5727 126.994L83.0113 134.585L90.894 126.86L97.7604 133.867L104.767 127L112.206 134.591L119.797 127.153L127.521 135.035L135.112 127.597L142.264 134.895L149.855 127.457L150.141 127.749L157.294 135.048L164.885 127.609L172.323 135.2L179.622 128.047L186.488 135.054L194.371 127.329L195.515 128.497L201.524 134.628L215.829 120.609L208.677 113.31L216.267 105.872L201.676 90.9823L194.086 98.4209L187.219 91.4141L180.504 97.9944L172.78 90.1117L164.897 97.8364L157.172 89.9537L149.581 97.3923L142.715 90.3854L135.416 97.5379L127.692 89.6553L119.809 97.3799L112.656 90.0812L105.066 97.5198L97.6271 89.929L90.0363 97.3676L82.8838 90.0688L75.2931 97.5074L68.1406 90.2086L60.5498 97.6472L53.1113 90.0565L45.8125 97.209L38.3739 89.6182L30.7831 97.0568L23.0584 89.1741Z" fill="#393939"/>
<path d="M201.676 90.9823L194.086 98.4209L187.079 105.287L194.231 112.586L186.932 119.739L194.371 127.329L195.515 128.497L201.524 134.628L215.829 120.609L208.677 113.31L216.267 105.872L201.676 90.9823Z" fill="#F9CC14"/>
<path d="M186.488 135.054L194.371 127.329L186.933 119.738L194.231 112.586L187.079 105.287L187.371 105.001L194.086 98.4208L187.219 91.4139L180.504 97.9942L172.914 105.433L180.066 112.732L172.183 120.456L179.622 128.047L186.488 135.054Z" fill="white"/>
<path d="M22.3164 105.354L31.0749 96.7709L23.0641 88.5962L0.291903 110.912L22.8938 133.976L30.4845 126.538L21.9015 117.779L28.3245 111.485L22.3164 105.354Z" fill="white"/>
<path d="M7.5907 103.759L15.0293 111.35L7.43855 118.789L-4.22709e-05 111.198L7.5907 103.759Z" fill="#F9CC14"/>
</svg>
