<svg width="265" height="180" viewBox="0 0 265 180" fill="none" xmlns="http://www.w3.org/2000/svg">
<g filter="url(#filter0_d)">
<path fill-rule="evenodd" clip-rule="evenodd" d="M72.2 39.325V78.65H75.225H78.25V81.675V84.7H75.225H72.2V87.725V90.75H69.175H66.15V93.775V96.8H63.125H60.1V99.825V102.85H57.075H54.05V105.875V108.9H51.025H48V111.925V114.95H51.025H54.05V117.975V121H129.675H205.3V114.95V108.9H202.275H199.25V105.875V102.85H196.225H193.2V99.825V96.8H190.175H187.15V93.775V90.75H184.125H181.1V84.7V78.65H184.125H187.15V42.35V6.05H184.125H181.1V3.025V0H126.65H72.2V39.325ZM181.1 39.325V72.6H129.675H78.25V39.325V6.05H129.675H181.1V39.325ZM175.05 87.725V90.75H178.075H181.1V93.775V96.8H129.675H78.25V93.775V90.75H81.275H84.3V87.725V84.7H129.675H175.05V87.725ZM144.8 105.875V108.9H126.65H108.5V105.875V102.85H126.65H144.8V105.875Z" fill="#F9CC14"/>
<rect x="181" width="6" height="6" fill="#F9CC14"/>
</g>
<g filter="url(#filter1_d)">
<path fill-rule="evenodd" clip-rule="evenodd" d="M188.1 39.325V78.65H185.075H182.05V81.675V84.7H185.075H188.1V87.725V90.75H191.125H194.15V93.775V96.8H197.175H200.2V99.825V102.85H203.225H206.25V105.875V108.9H209.275H212.3V111.925V114.95H209.275H206.25V117.975V121H130.625H54.9998V114.95V108.9H58.0248H61.0498V105.875V102.85H64.0748H67.0998V99.825V96.8H70.1248H73.1498V93.775V90.75H76.1748H79.1998V84.7V78.65H76.1748H73.1498V42.35V6.05H76.1748H79.1998V3.025V0H133.65H188.1V39.325ZM79.1998 39.325V72.6H130.625H182.05V39.325V6.05H130.625H79.1998V39.325ZM85.2498 87.725V90.75H82.2248H79.1998V93.775V96.8H130.625H182.05L181.177 93.775L182.05 90.75H179.025H176V87.725V84.7H130.625H85.2498V87.725ZM115.5 105.875V108.9H133.65H151.8V105.875V102.85H133.65H115.5V105.875Z" fill="#F9CC14"/>
<rect width="6" height="6" transform="matrix(-1 0 0 1 79.2998 0)" fill="#F9CC14"/>
</g>
<g filter="url(#filter2_d)">
<path d="M24.6875 147.875H15.3125V157.25H24.6875V147.875ZM29.375 157.25V161.938H15.3125V176H5.9375V143.188H29.375V147.875H34.0625V157.25H29.375ZM57.5 147.875H48.125V157.25H57.5V147.875ZM62.1875 161.938H66.875V176H57.5V161.938H48.125V176H38.75V143.188H62.1875V147.875H66.875V157.25H62.1875V161.938ZM90.3125 147.875H80.9375V171.312H90.3125V147.875ZM76.25 171.312H71.5625V147.875H76.25V143.188H95V147.875H99.6875V171.312H95V176H76.25V171.312ZM118.438 143.188H127.812V171.312H123.125V176H104.375V166.625H109.062V171.312H118.438V143.188ZM132.5 176V143.188H155.938V147.875H141.875V157.25H155.938V161.938H141.875V171.312H155.938V176H132.5ZM179.375 166.625H188.75V171.312H184.062V176H165.312V171.312H160.625V147.875H165.312V143.188H184.062V147.875H188.75V152.562H179.375V147.875H170V171.312H179.375V166.625ZM221.562 143.188V147.875H212.188V176H202.812V147.875H193.438V143.188H221.562ZM245 147.875H235.625V157.25H249.688V161.938H254.375V171.312H249.688V176H230.938V171.312H226.25V166.625H235.625V171.312H245V161.938H230.938V157.25H226.25V147.875H230.938V143.188H249.688V147.875H254.375V152.562H245V147.875Z" fill="#F9CC14"/>
</g>
<defs>
<filter id="filter0_d" x="48" y="0" width="163.3" height="127" filterUnits="userSpaceOnUse" color-interpolation-filters="sRGB">
<feFlood flood-opacity="0" result="BackgroundImageFix"/>
<feColorMatrix in="SourceAlpha" type="matrix" values="0 0 0 0 0 0 0 0 0 0 0 0 0 0 0 0 0 0 127 0"/>
<feOffset dx="6" dy="6"/>
<feColorMatrix type="matrix" values="0 0 0 0 0 0 0 0 0 0.478431 0 0 0 0 0.878431 0 0 0 1 0"/>
<feBlend mode="normal" in2="BackgroundImageFix" result="effect1_dropShadow"/>
<feBlend mode="normal" in="SourceGraphic" in2="effect1_dropShadow" result="shape"/>
</filter>
<filter id="filter1_d" x="55" y="0" width="163.3" height="127" filterUnits="userSpaceOnUse" color-interpolation-filters="sRGB">
<feFlood flood-opacity="0" result="BackgroundImageFix"/>
<feColorMatrix in="SourceAlpha" type="matrix" values="0 0 0 0 0 0 0 0 0 0 0 0 0 0 0 0 0 0 127 0"/>
<feOffset dx="6" dy="6"/>
<feColorMatrix type="matrix" values="0 0 0 0 0 0 0 0 0 0.478431 0 0 0 0 0.878431 0 0 0 1 0"/>
<feBlend mode="normal" in2="BackgroundImageFix" result="effect1_dropShadow"/>
<feBlend mode="normal" in="SourceGraphic" in2="effect1_dropShadow" result="shape"/>
</filter>
<filter id="filter2_d" x="5.9375" y="143.188" width="252.438" height="36.8125" filterUnits="userSpaceOnUse" color-interpolation-filters="sRGB">
<feFlood flood-opacity="0" result="BackgroundImageFix"/>
<feColorMatrix in="SourceAlpha" type="matrix" values="0 0 0 0 0 0 0 0 0 0 0 0 0 0 0 0 0 0 127 0"/>
<feOffset dx="4" dy="4"/>
<feColorMatrix type="matrix" values="0 0 0 0 0 0 0 0 0 0.478431 0 0 0 0 0.878431 0 0 0 1 0"/>
<feBlend mode="normal" in2="BackgroundImageFix" result="effect1_dropShadow"/>
<feBlend mode="normal" in="SourceGraphic" in2="effect1_dropShadow" result="shape"/>
</filter>
</defs>
</svg>
