<svg width="336" height="480" viewBox="0 0 336 480" fill="none" xmlns="http://www.w3.org/2000/svg">
<path d="M161.353 404.534L223.647 404.654L192.12 440.358L155.59 404.523L161.353 404.534Z" fill="#F9CC14"/>
<path d="M39.7825 404.3L102.077 404.42L70.5495 440.124L34.0196 404.289L39.7825 404.3Z" fill="#F9CC14"/>
<path d="M110.344 404.147L146.514 404.217L128.208 424.948L106.997 404.141L110.344 404.147Z" fill="#F9CC14"/>
<path d="M137.567 432.465L173.738 432.535L152.527 411.727L134.22 432.459L137.567 432.465Z" fill="#F9CC14"/>
<path d="M130.139 442.258L185.4 442.364L157.432 474.038L125.027 442.248L130.139 442.258Z" fill="#F9CC14"/>
<path d="M69.7439 452.827L105.947 411.826L109.085 456.702L66.3947 456.62L69.7439 452.827Z" fill="#F9CC14"/>
<rect y="70" width="336" height="336" fill="#F9CC14"/>
<path d="M84.6826 213.431H87.8855V215.032H86.2841V216.634H79.8784V215.032H78.277V207.025H79.8784V205.424H86.2841V207.025H87.8855V208.627H84.6826V207.025H81.4798V215.032H84.6826V213.431ZM95.8925 207.025H92.6897V210.228H97.4939V211.83H99.0953V215.032H97.4939V216.634H91.0883V215.032H89.4869V213.431H92.6897V215.032H95.8925V211.83H91.0883V210.228H89.4869V207.025H91.0883V205.424H97.4939V207.025H99.0953V208.627H95.8925V207.025ZM107.102 207.025H103.9V210.228H108.704V211.83H110.305V215.032H108.704V216.634H102.298V215.032H100.697V213.431H103.9V215.032H107.102V211.83H102.298V210.228H100.697V207.025H102.298V205.424H108.704V207.025H110.305V208.627H107.102V207.025Z" fill="black"/>
<path fill-rule="evenodd" clip-rule="evenodd" d="M59 126.286V140.571H60.5H62V156.286V172H63.5H65V177.714V183.429H66.5H68V184.857V186.286H72.5H77V187.714V189.143H83H89V190.571V192H95H101V190.571V189.143H107H113V187.714V186.286H117.5H122V184.857V183.429H123.5H125V177.714V172H126.5H128V156.286V140.571H129.5H131V126.286V112H95H59V126.286ZM119 130.571V134.857H117.5H116V136.286V137.714H111.5H107V139.143V140.571H104H101V142V143.429H108.5H116V154.857V166.286H114.5H113V169.143V172H110H107V173.429V174.857H102.5H98V176.286V177.714H95H92V176.286V174.857H87.5H83V173.429V172H80H77V170.571V169.143H75.5H74V163.429V157.714H78.5H83V160.571V163.429H84.5H86V164.857V166.286H95H104V164.857V163.429H105.5H107V157.714V152H90.5H74V147.714V143.429H77H80V142V140.571H83H86V139.143V137.714H90.5H95V136.286V134.857H83H71V130.571V126.286H95H119V130.571Z" fill="#007AE0"/>
<path fill-rule="evenodd" clip-rule="evenodd" d="M209 125.857V138.714H210.44H211.88V155.857V173H213.32H214.76V180.143V187.286H219.08H223.4V188.714V190.143H229.16H234.92V191.571V193H243.56H252.2V191.571V190.143H257.96H263.72V188.714V187.286H268.04H272.36V185.857V184.429H273.8H275.24V168.714V153H276.68H278.12V137.286V121.571H279.56H281V117.286V113H245H209V125.857ZM266.6 131.571V135.857H249.32H232.04V141.571V147.286H247.88H263.72V160.143V173H262.28H260.84V174.429V175.857H255.08H249.32V177.286V178.714H243.56H237.8V177.286V175.857H233.48H229.16V174.429V173H227.72H226.28V168.714V164.429H224.84H223.4V161.571V158.714H227.72H232.04V160.143V161.571H233.48H234.92V164.429V167.286H237.8H240.68V168.714V170.143H243.56H246.44V168.714V167.286H250.76H255.08V161.571V155.857H239.24H223.4V144.429V133H221.96H220.52V130.143V127.286H243.56H266.6V131.571Z" fill="#007AE0"/>
<path d="M228.078 204.424H231.281V215.634H228.078V210.83H224.875V215.634H221.672V204.424H224.875V209.228H228.078V204.424ZM242.49 204.424V206.025H239.288V215.634H236.085V206.025H232.882V204.424H242.49ZM245.693 210.83V215.634H244.092V204.424H247.295V207.627H252.099V204.424H255.302V215.634H252.099V210.83H250.497V214.032H247.295V210.83H245.693ZM264.91 213.632V215.634H256.903V204.424H260.106V213.632H264.91Z" fill="black"/>
<path d="M73.4728 356.481H70.27V359.684H73.4728V356.481ZM67.0671 366.089V354.879H75.0742V356.481H76.6756V359.684H75.0742V361.285H76.6756V364.488H75.0742V366.089H67.0671ZM73.4728 364.488V361.285H70.27V364.488H73.4728ZM84.6826 354.879H87.8855V366.089H79.8784V364.488H78.277V354.879H81.4798V364.488H84.6826V354.879ZM97.4939 364.088V366.089H89.4869V354.879H92.6897V364.088H97.4939ZM100.697 361.285V366.089H99.0953V354.879H102.298V358.082H107.102V354.879H110.305V366.089H107.102V361.285H105.501V364.488H102.298V361.285H100.697ZM118.312 361.285V356.481H115.109V361.285H118.312ZM115.109 362.887V366.089H111.907V356.481H113.508V354.879H119.914V356.481H121.515V366.089H118.312V362.887H115.109Z" fill="black"/>
<path fill-rule="evenodd" clip-rule="evenodd" d="M93.3333 246.846V248.692H91.5H89.6667V250.538V252.385H87.8333H86V254.231V256.077H84.1667H82.3333V257.923V259.769H80.5H78.6667V261.615V263.462H76.8333H75V265.308V267.154H73.1667H71.3333V269V270.846H69.5H67.6667V281.923V293H65.8333H64V304.077V315.154H65.8333H67.6667V317V318.846H69.5H71.3333V320.692V322.538H73.1667H75V324.385V326.231H76.8333H78.6667V328.077V329.923H80.5H82.3333V331.769V333.615H84.1667H86V335.462V337.308H87.8333H89.6667V339.154V341H95.1667H100.667V339.154V337.308H102.5H104.333V335.462V333.615H108H111.667V331.769V329.923H113.5H115.333V328.077V326.231H119H122.667V324.385V322.538H124.5H126.333V320.692V318.846H128.167H130V317V315.154H128.167H126.333V313.308V311.462H124.5H122.667V309.615V307.769H120.833H119V305.923V304.077H117.167H115.333V302.231V300.385H113.5H111.667V298.538V296.692H109.833H108V293V289.308H109.833H111.667V287.462V285.615H113.5H115.333V283.769V281.923H117.167H119V280.077V278.231H120.833H122.667V274.538V270.846H120.833H119V269V267.154H117.167H115.333V265.308V263.462H113.5H111.667V261.615V259.769H109.833H108V257.923V256.077H106.167H104.333V254.231V252.385H102.5H100.667V250.538V248.692H98.8333H97V246.846V245H95.1667H93.3333V246.846Z" fill="#007AE0"/>
<path d="M200.053 349.481H196.85V352.684H200.053V349.481ZM193.647 359.089V347.879H201.654V349.481H203.256V352.684H201.654V354.285H203.256V357.488H201.654V359.089H193.647ZM200.053 357.488V354.285H196.85V357.488H200.053ZM211.263 349.481H208.06V357.488H211.263V349.481ZM206.459 357.488H204.857V349.481H206.459V347.879H212.864V349.481H214.466V357.488H212.864V359.089H206.459V357.488ZM222.473 349.481H219.27V357.488H222.473V349.481ZM217.669 357.488H216.067V349.481H217.669V347.879H224.074V349.481H225.676V357.488H224.074V359.089H217.669V357.488ZM236.885 347.879V349.481H233.683V359.089H230.48V349.481H227.277V347.879H236.885ZM244.893 349.481H241.69V352.684H246.494V354.285H248.095V357.488H246.494V359.089H240.088V357.488H238.487V355.887H241.69V357.488H244.893V354.285H240.088V352.684H238.487V349.481H240.088V347.879H246.494V349.481H248.095V351.082H244.893V349.481ZM259.305 347.879V349.481H256.102V359.089H252.9V349.481H249.697V347.879H259.305ZM267.312 349.481H264.109V352.684H267.312V349.481ZM268.914 354.285H270.515V359.089H267.312V354.285H264.109V359.089H260.907V347.879H268.914V349.481H270.515V352.684H268.914V354.285ZM278.522 354.285V349.481H275.319V354.285H278.522ZM275.319 355.887V359.089H272.116V349.481H273.718V347.879H280.124V349.481H281.725V359.089H278.522V355.887H275.319ZM289.732 349.481H286.529V352.684H289.732V349.481ZM291.333 352.684V354.285H286.529V359.089H283.326V347.879H291.333V349.481H292.935V352.684H291.333Z" fill="black"/>
<path fill-rule="evenodd" clip-rule="evenodd" d="M208.43 254.107V256.215H206.322H204.215V258.322V260.43H202.107H200V294.148V327.867H202.107H204.215V329.975V332.082H206.322H208.43V333.541V335H240.041H271.652V333.541V332.082H275.867H280.082V327.867V323.652H281.541H283V292.041V260.43H281.541H280.082V258.322V256.215H277.975H275.867V254.107V252H242.148H208.43V254.107ZM254.793 270.967V273.074H256.9H259.008V281.504V289.934H256.9H254.793V292.041V294.148H256.9H259.008V296.256V298.363H261.115H263.223V304.686V311.008H261.115H259.008V313.115V315.223H256.9H254.793V317.33V319.438H237.934H221.074V294.148V268.859H237.934H254.793V270.967ZM229.504 283.611V289.934H240.041H250.578V283.611V277.289H240.041H229.504V283.611ZM229.504 304.686V311.008H240.041H250.578V308.9V306.793H252.686H254.793V302.578V298.363H242.148H229.504V304.686Z" fill="#007AE0"/>
</svg>
