<svg width="26" height="32" viewBox="0 0 26 32" fill="none" xmlns="http://www.w3.org/2000/svg">
<g filter="url(#filter0_d)">
<path d="M22.9477 12.4644V22.136L21.8334 25.9244C21.467 26.375 20.734 27.3061 20.734 27.4249C20.734 27.5438 20.5161 28.8115 20.4072 29.4305L8.87858 29.5197L8.16547 26.6078L7.51179 26.073L6.66497 24.0822L5.26846 21.4229L3.96109 18.3625L2.52002 16.7283L1.55434 16.3123C1.46025 15.8121 1.27504 14.788 1.28692 14.6929C1.29881 14.5978 1.42063 13.8312 1.48006 13.4598L4.6742 13.1478L5.20903 14.2769L5.87757 14.5295H7.06609L7.61578 1.61922L7.86834 1.15867L8.50717 0.950684L10.4237 1.18839L10.7505 1.87178V7.44296L12.0579 7.71038L14.5389 8.05207L14.7915 8.55719C14.7667 8.74042 14.7142 9.11283 14.7023 9.1366C14.6904 9.16037 15.7967 9.27526 16.3514 9.32973L18.5799 9.58229L20.1398 10.236L20.7786 10.5331L21.5214 10.9342L21.7294 11.4393L22.5614 12.1227L22.9477 12.4644Z" fill="white"/>
<path fill-rule="evenodd" clip-rule="evenodd" d="M7.76442 0.677024C7.76442 1.24398 7.76098 1.35751 7.74319 1.37528C7.72542 1.39306 7.61189 1.39651 7.04494 1.39651H6.36791V7.60651V13.8165H5.68452H5.00112V13.1331V12.4497H2.92121H0.841309V14.5296V16.6095H1.53956H2.23782V17.2929V17.9763H2.92121H3.60461V19.358V20.7396H4.28164C4.84859 20.7396 4.96212 20.7431 4.97989 20.7609C4.99798 20.7789 5.00112 20.9833 5.00112 22.1425V23.5029H5.68452H6.36791V24.8846V26.2662H7.04494C7.61189 26.2662 7.72542 26.2697 7.74319 26.2875C7.76139 26.3056 7.76442 26.603 7.76442 28.3674V30.426H14.6727H21.5809V28.3461V26.2662H22.2643H22.9477V24.2012V22.1361H23.646H24.3442V17.2929V12.4497H23.6672C23.1003 12.4497 22.9867 12.4463 22.969 12.4285C22.9512 12.4107 22.9477 12.2972 22.9477 11.7302V11.0532H22.2643H21.5809V10.3698V9.68642H20.1993H18.8176V8.98816V8.28991H16.7377H14.6578V7.60651V6.92311H13.2762H11.8945V4.15981V1.39651H11.2111H10.5277V0.698254V0H9.14607H7.76442V0.677024ZM10.5277 7.60651V13.8165H11.2111H11.8945V11.0532V8.28991H13.2762H14.6578V11.0532V13.8165H15.3561H16.0543V11.7515V9.68642H17.436H18.8176V12.4497V15.213H19.501H20.1844V13.1543C20.1844 11.39 20.1875 11.0926 20.2057 11.0744C20.2234 11.0567 20.337 11.0532 20.9039 11.0532H21.5809V11.7515V12.4497H22.2643H22.9477V17.2929V22.1361H22.2643H21.5809V24.2012V26.2662H20.9039C20.337 26.2662 20.2234 26.2697 20.2057 26.2875C20.1876 26.3055 20.1844 26.5099 20.1844 27.6691V29.0295H14.6578H9.13122V27.6479V26.2662H8.44782H7.76442V24.9058C7.76442 23.7466 7.76129 23.5422 7.74319 23.5242C7.72542 23.5064 7.61189 23.5029 7.04494 23.5029H6.36791V22.1213V20.7396H5.68452H5.00112V19.358V17.9763H4.30287H3.60461V17.2929V16.6095H2.92121H2.23782V15.213V13.8165H3.59824C4.75747 13.8165 4.96181 13.8196 4.97989 13.8377C4.99767 13.8555 5.00112 13.969 5.00112 14.536V15.213H5.68452H6.36791V17.2929V19.3728H7.04494C7.61189 19.3728 7.72542 19.3694 7.74319 19.3516C7.76154 19.3333 7.76442 18.115 7.76442 10.3634V1.39651H9.14607H10.5277V7.60651Z" fill="#DCDCDC"/>
</g>
<defs>
<filter id="filter0_d" x="0.841309" y="0" width="24.9719" height="31.895" filterUnits="userSpaceOnUse" color-interpolation-filters="sRGB">
<feFlood flood-opacity="0" result="BackgroundImageFix"/>
<feColorMatrix in="SourceAlpha" type="matrix" values="0 0 0 0 0 0 0 0 0 0 0 0 0 0 0 0 0 0 127 0"/>
<feOffset dx="1.46893" dy="1.46893"/>
<feColorMatrix type="matrix" values="0 0 0 0 0.490196 0 0 0 0 0.490196 0 0 0 0 0.490196 0 0 0 1 0"/>
<feBlend mode="normal" in2="BackgroundImageFix" result="effect1_dropShadow"/>
<feBlend mode="normal" in="SourceGraphic" in2="effect1_dropShadow" result="shape"/>
</filter>
</defs>
</svg>
