<svg width="923" height="542" viewBox="0 0 923 542" fill="none" xmlns="http://www.w3.org/2000/svg">
<g filter="url(#filter0_d)">
<path d="M26.6641 420.44L74.1582 400.109L118.1 428.622L125.499 485.26L90.3918 526.753L39.8324 522.228L11.176 475.03L26.6641 420.44Z" stroke="#0A0C10" stroke-width="8.66036"/>
<path d="M26.6641 420.44L74.1582 400.109L118.1 428.622L125.499 485.26L90.3918 526.753L39.8324 522.228L11.176 475.03L26.6641 420.44Z" stroke="#66FCF1" stroke-width="8.66036"/>
</g>
<g filter="url(#filter1_d)">
<path d="M807.121 48.1037L839.071 20.3558L879.352 25.7952L904.599 61.5649L899.65 106.661L867.7 134.409L827.42 128.969L802.172 93.1997L807.121 48.1037Z" stroke="#0A0C10" stroke-width="6.34"/>
<path d="M807.121 48.1037L839.071 20.3558L879.352 25.7952L904.599 61.5649L899.65 106.661L867.7 134.409L827.42 128.969L802.172 93.1997L807.121 48.1037Z" stroke="#66FCF1" stroke-width="6.34"/>
</g>
<defs>
<filter id="filter0_d" x="6.49805" y="395.215" width="127.865" height="140.385" filterUnits="userSpaceOnUse" color-interpolation-filters="sRGB">
<feFlood flood-opacity="0" result="BackgroundImageFix"/>
<feColorMatrix in="SourceAlpha" type="matrix" values="0 0 0 0 0 0 0 0 0 0 0 0 0 0 0 0 0 0 127 0"/>
<feOffset dx="4.33018" dy="4.33018"/>
<feColorMatrix type="matrix" values="0 0 0 0 0 0 0 0 0 0 0 0 0 0 0 0 0 0 0.25 0"/>
<feBlend mode="normal" in2="BackgroundImageFix" result="effect1_dropShadow"/>
<feBlend mode="normal" in="SourceGraphic" in2="effect1_dropShadow" result="shape"/>
</filter>
<filter id="filter1_d" x="798.933" y="16.9809" width="112.575" height="124.472" filterUnits="userSpaceOnUse" color-interpolation-filters="sRGB">
<feFlood flood-opacity="0" result="BackgroundImageFix"/>
<feColorMatrix in="SourceAlpha" type="matrix" values="0 0 0 0 0 0 0 0 0 0 0 0 0 0 0 0 0 0 127 0"/>
<feOffset dx="3.66893" dy="3.66893"/>
<feColorMatrix type="matrix" values="0 0 0 0 0 0 0 0 0 0 0 0 0 0 0 0 0 0 0.25 0"/>
<feBlend mode="normal" in2="BackgroundImageFix" result="effect1_dropShadow"/>
<feBlend mode="normal" in="SourceGraphic" in2="effect1_dropShadow" result="shape"/>
</filter>
</defs>
</svg>
