<svg width="1241" height="661" viewBox="0 0 1241 661" fill="none" xmlns="http://www.w3.org/2000/svg">
<g filter="url(#filter0_d)">
<path d="M815.927 170.449L766.666 176.304L740.53 218.468L757.199 265.191L804.123 281.289L845.965 254.641L851.218 205.312L815.927 170.449Z" fill="#0A0C10" fill-opacity="0.25"/>
<path d="M847.037 206.804L814.486 174.648L769.051 180.048L744.944 218.938L760.32 262.033L803.599 276.881L842.191 252.302L847.037 206.804Z" stroke="#0A0C10" stroke-width="8"/>
<path d="M847.037 206.804L814.486 174.648L769.051 180.048L744.944 218.938L760.32 262.033L803.599 276.881L842.191 252.302L847.037 206.804Z" stroke="#66FCF1" stroke-opacity="0.25" stroke-width="8"/>
</g>
<g filter="url(#filter1_d)">
<path d="M1135.03 29.0974L1138 124.752L1219.35 74.3534L1135.03 29.0974Z" fill="#0A0C10" fill-opacity="0.25"/>
<path d="M1211.36 74.6016L1139.24 35.8982L1141.78 117.703L1211.36 74.6016Z" stroke="#0A0C10" stroke-width="8"/>
<path d="M1211.36 74.6016L1139.24 35.8982L1141.78 117.703L1211.36 74.6016Z" stroke="#66FCF1" stroke-opacity="0.25" stroke-width="8"/>
</g>
<g filter="url(#filter2_d)">
<path d="M89.989 167.906L23.8961 192.54L26.9002 263.01L94.8497 281.929L133.841 223.152L89.989 167.906Z" fill="#0A0C10" fill-opacity="0.25"/>
<path d="M128.901 223.363L88.6627 172.669L28.0162 195.273L30.7728 259.936L93.1229 277.296L128.901 223.363Z" stroke="#0A0C10" stroke-width="8"/>
<path d="M128.901 223.363L88.6627 172.669L28.0162 195.273L30.7728 259.936L93.1229 277.296L128.901 223.363Z" stroke="#66FCF1" stroke-opacity="0.25" stroke-width="8"/>
</g>
<g filter="url(#filter3_d)">
<path d="M451.799 26.6301L381.227 66.4615L421.059 137.033L491.63 97.2014L451.799 26.6301Z" fill="#0A0C10" fill-opacity="0.25"/>
<path d="M486.181 95.6841L450.281 32.0796L386.677 67.9789L422.576 131.583L486.181 95.6841Z" stroke="#0A0C10" stroke-width="8"/>
<path d="M486.181 95.6841L450.281 32.0796L386.677 67.9789L422.576 131.583L486.181 95.6841Z" stroke="#66FCF1" stroke-opacity="0.25" stroke-width="8"/>
</g>
<g filter="url(#filter4_d)">
<path d="M424.268 490.154L473.529 484.299L499.665 442.135L482.995 395.411L436.072 379.313L394.23 405.962L388.977 455.291L424.268 490.154Z" fill="#0A0C10" fill-opacity="0.25"/>
<path d="M393.158 453.799L425.709 485.955L471.144 480.554L495.25 441.664L479.875 398.57L436.596 383.722L398.003 408.301L393.158 453.799Z" stroke="#0A0C10" stroke-width="8"/>
<path d="M393.158 453.799L425.709 485.955L471.144 480.554L495.25 441.664L479.875 398.57L436.596 383.722L398.003 408.301L393.158 453.799Z" stroke="#66FCF1" stroke-opacity="0.25" stroke-width="8"/>
</g>
<g filter="url(#filter5_d)">
<path d="M105.165 631.505L102.196 535.851L20.8415 586.249L105.165 631.505Z" fill="#0A0C10" fill-opacity="0.25"/>
<path d="M28.8376 586.001L100.952 624.704L98.4129 542.9L28.8376 586.001Z" stroke="#0A0C10" stroke-width="8"/>
<path d="M28.8376 586.001L100.952 624.704L98.4129 542.9L28.8376 586.001Z" stroke="#66FCF1" stroke-opacity="0.25" stroke-width="8"/>
</g>
<g filter="url(#filter6_d)">
<path d="M1150.21 492.696L1216.3 468.063L1213.29 397.593L1145.35 378.673L1106.35 437.451L1150.21 492.696Z" fill="#0A0C10" fill-opacity="0.25"/>
<path d="M1111.29 437.24L1151.53 487.933L1212.18 465.33L1209.42 400.666L1147.07 383.306L1111.29 437.24Z" stroke="#0A0C10" stroke-width="8"/>
<path d="M1111.29 437.24L1151.53 487.933L1212.18 465.33L1209.42 400.666L1147.07 383.306L1111.29 437.24Z" stroke="#66FCF1" stroke-opacity="0.25" stroke-width="8"/>
</g>
<g filter="url(#filter7_d)">
<path d="M788.396 633.972L858.968 594.141L819.136 523.57L748.565 563.401L788.396 633.972Z" fill="#0A0C10" fill-opacity="0.25"/>
<path d="M754.014 564.918L789.914 628.523L853.518 592.624L817.619 529.019L754.014 564.918Z" stroke="#0A0C10" stroke-width="8"/>
<path d="M754.014 564.918L789.914 628.523L853.518 592.624L817.619 529.019L754.014 564.918Z" stroke="#66FCF1" stroke-opacity="0.25" stroke-width="8"/>
</g>
<defs>
<filter id="filter0_d" x="727.943" y="152.362" width="144.701" height="142.964" filterUnits="userSpaceOnUse" color-interpolation-filters="sRGB">
<feFlood flood-opacity="0" result="BackgroundImageFix"/>
<feColorMatrix in="SourceAlpha" type="matrix" values="0 0 0 0 0 0 0 0 0 0 0 0 0 0 0 0 0 0 127 0"/>
<feOffset dx="4" dy="4"/>
<feColorMatrix type="matrix" values="0 0 0 0 0 0 0 0 0 0 0 0 0 0 0 0 0 0 0.25 0"/>
<feBlend mode="normal" in2="BackgroundImageFix" result="effect1_dropShadow"/>
<feBlend mode="normal" in="SourceGraphic" in2="effect1_dropShadow" result="shape"/>
</filter>
<filter id="filter1_d" x="1094.35" y="3.89819" width="129.001" height="124.853" filterUnits="userSpaceOnUse" color-interpolation-filters="sRGB">
<feFlood flood-opacity="0" result="BackgroundImageFix"/>
<feColorMatrix in="SourceAlpha" type="matrix" values="0 0 0 0 0 0 0 0 0 0 0 0 0 0 0 0 0 0 127 0"/>
<feOffset dx="4" dy="4"/>
<feColorMatrix type="matrix" values="0 0 0 0 0 0 0 0 0 0 0 0 0 0 0 0 0 0 0.25 0"/>
<feBlend mode="normal" in2="BackgroundImageFix" result="effect1_dropShadow"/>
<feBlend mode="normal" in="SourceGraphic" in2="effect1_dropShadow" result="shape"/>
</filter>
<filter id="filter2_d" x="5.90264" y="152.6" width="143.059" height="139.176" filterUnits="userSpaceOnUse" color-interpolation-filters="sRGB">
<feFlood flood-opacity="0" result="BackgroundImageFix"/>
<feColorMatrix in="SourceAlpha" type="matrix" values="0 0 0 0 0 0 0 0 0 0 0 0 0 0 0 0 0 0 127 0"/>
<feOffset dx="4" dy="4"/>
<feColorMatrix type="matrix" values="0 0 0 0 0 0 0 0 0 0 0 0 0 0 0 0 0 0 0.25 0"/>
<feBlend mode="normal" in2="BackgroundImageFix" result="effect1_dropShadow"/>
<feBlend mode="normal" in="SourceGraphic" in2="effect1_dropShadow" result="shape"/>
</filter>
<filter id="filter3_d" x="365.857" y="11.26" width="145.143" height="145.143" filterUnits="userSpaceOnUse" color-interpolation-filters="sRGB">
<feFlood flood-opacity="0" result="BackgroundImageFix"/>
<feColorMatrix in="SourceAlpha" type="matrix" values="0 0 0 0 0 0 0 0 0 0 0 0 0 0 0 0 0 0 127 0"/>
<feOffset dx="4" dy="4"/>
<feColorMatrix type="matrix" values="0 0 0 0 0 0 0 0 0 0 0 0 0 0 0 0 0 0 0.25 0"/>
<feBlend mode="normal" in2="BackgroundImageFix" result="effect1_dropShadow"/>
<feBlend mode="normal" in="SourceGraphic" in2="effect1_dropShadow" result="shape"/>
</filter>
<filter id="filter4_d" x="371.55" y="369.276" width="144.701" height="142.964" filterUnits="userSpaceOnUse" color-interpolation-filters="sRGB">
<feFlood flood-opacity="0" result="BackgroundImageFix"/>
<feColorMatrix in="SourceAlpha" type="matrix" values="0 0 0 0 0 0 0 0 0 0 0 0 0 0 0 0 0 0 127 0"/>
<feOffset dx="4" dy="4"/>
<feColorMatrix type="matrix" values="0 0 0 0 0 0 0 0 0 0 0 0 0 0 0 0 0 0 0.25 0"/>
<feBlend mode="normal" in2="BackgroundImageFix" result="effect1_dropShadow"/>
<feBlend mode="normal" in="SourceGraphic" in2="effect1_dropShadow" result="shape"/>
</filter>
<filter id="filter5_d" x="20.8415" y="535.851" width="129.001" height="124.853" filterUnits="userSpaceOnUse" color-interpolation-filters="sRGB">
<feFlood flood-opacity="0" result="BackgroundImageFix"/>
<feColorMatrix in="SourceAlpha" type="matrix" values="0 0 0 0 0 0 0 0 0 0 0 0 0 0 0 0 0 0 127 0"/>
<feOffset dx="4" dy="4"/>
<feColorMatrix type="matrix" values="0 0 0 0 0 0 0 0 0 0 0 0 0 0 0 0 0 0 0.25 0"/>
<feBlend mode="normal" in2="BackgroundImageFix" result="effect1_dropShadow"/>
<feBlend mode="normal" in="SourceGraphic" in2="effect1_dropShadow" result="shape"/>
</filter>
<filter id="filter6_d" x="1095.23" y="372.827" width="143.059" height="139.176" filterUnits="userSpaceOnUse" color-interpolation-filters="sRGB">
<feFlood flood-opacity="0" result="BackgroundImageFix"/>
<feColorMatrix in="SourceAlpha" type="matrix" values="0 0 0 0 0 0 0 0 0 0 0 0 0 0 0 0 0 0 127 0"/>
<feOffset dx="4" dy="4"/>
<feColorMatrix type="matrix" values="0 0 0 0 0 0 0 0 0 0 0 0 0 0 0 0 0 0 0.25 0"/>
<feBlend mode="normal" in2="BackgroundImageFix" result="effect1_dropShadow"/>
<feBlend mode="normal" in="SourceGraphic" in2="effect1_dropShadow" result="shape"/>
</filter>
<filter id="filter7_d" x="733.195" y="508.2" width="145.143" height="145.143" filterUnits="userSpaceOnUse" color-interpolation-filters="sRGB">
<feFlood flood-opacity="0" result="BackgroundImageFix"/>
<feColorMatrix in="SourceAlpha" type="matrix" values="0 0 0 0 0 0 0 0 0 0 0 0 0 0 0 0 0 0 127 0"/>
<feOffset dx="4" dy="4"/>
<feColorMatrix type="matrix" values="0 0 0 0 0 0 0 0 0 0 0 0 0 0 0 0 0 0 0.25 0"/>
<feBlend mode="normal" in2="BackgroundImageFix" result="effect1_dropShadow"/>
<feBlend mode="normal" in="SourceGraphic" in2="effect1_dropShadow" result="shape"/>
</filter>
</defs>
</svg>
