<svg width="1865" height="736" viewBox="0 0 1865 736" fill="none" xmlns="http://www.w3.org/2000/svg">
<path d="M0 539.234L1865 99V592.28L0 733V539.234Z" fill="#F9CC14"/>
<path d="M0 12L1437.5 200.5L0 539.263L0 12Z" fill="#007AE0"/>
<path d="M983.151 152.751L1095.72 167.283L1041.83 100.434L972.738 151.407L983.151 152.751Z" fill="#007AE0"/>
<path d="M763.474 124.392L876.039 138.924L822.155 72.0748L753.06 123.048L763.474 124.392Z" fill="#007AE0"/>
<path d="M890.952 141.332L956.313 149.769L925.025 110.954L884.905 140.551L890.952 141.332Z" fill="#007AE0"/>
<path d="M942.582 100.663L1007.94 109.1L967.824 138.698L936.536 99.882L942.582 100.663Z" fill="#007AE0"/>
<path d="M930.008 82.6168L1029.86 95.5077L982.064 36.2063L920.77 81.4243L930.008 82.6168Z" fill="#007AE0"/>
<path d="M821.796 50.7545L883.672 127.518L893.213 53.6115L816.072 43.653L821.796 50.7545Z" fill="#007AE0"/>
<path d="M356.203 708.147L243.031 716.775L300.336 652.834L366.673 707.348L356.203 708.147Z" fill="black"/>
<path d="M577.062 691.308L463.891 699.936L521.196 635.995L587.532 690.51L577.062 691.308Z" fill="black"/>
<path d="M448.874 701.562L383.161 706.572L416.435 669.445L454.953 701.098L448.874 701.562Z" fill="black"/>
<path d="M399.438 658.25L333.726 663.26L372.243 694.914L405.517 657.786L399.438 658.25Z" fill="black"/>
<path d="M412.939 640.886L312.545 648.54L363.38 591.818L422.227 640.178L412.939 640.886Z" fill="black"/>
<path d="M522.669 614.722L456.865 688.147L451.2 613.843L528.756 607.93L522.669 614.722Z" fill="black"/>
</svg>
