<svg width="545" height="346" viewBox="0 0 545 346" fill="none" xmlns="http://www.w3.org/2000/svg">
<path d="M477 316.5H446.5V346H477H519V324.5H545V285V224V166.5H519V142.5V103H496.5V59H465V28H446.5H413.5V0H28.5V28H0V198H28.5V224H413.5H446.5V252H477V269.5V296V316.5Z" fill="#007AE0"/>
<path d="M86.4229 85.2012H94.2217V89.1006H90.3223V93H74.7246V89.1006H70.8252V69.6035H74.7246V65.7041H90.3223V69.6035H94.2217V73.5029H86.4229V69.6035H78.624V89.1006H86.4229V85.2012ZM117.618 88.1257V93H98.1211V65.7041H105.92V88.1257H117.618ZM121.518 93V65.7041H129.316V93H121.518ZM148.813 85.2012H156.612V89.1006H152.713V93H137.115V89.1006H133.216V69.6035H137.115V65.7041H152.713V69.6035H156.612V73.5029H148.813V69.6035H141.015V89.1006H148.813V85.2012ZM168.311 93H160.512V65.7041H168.311V77.4023H172.21V73.5029H176.109V65.7041H183.908V73.5029H180.009V77.4023H176.109V81.3018H180.009V85.2012H183.908V93H176.109V85.2012H172.21V81.3018H168.311V93ZM226.802 65.7041V69.6035H219.003V93H211.204V69.6035H203.405V65.7041H226.802ZM246.299 65.7041H254.098V93H246.299V81.3018H238.5V93H230.701V65.7041H238.5V77.4023H246.299V65.7041ZM257.997 93V65.7041H277.494V69.6035H265.796V77.4023H277.494V81.3018H265.796V89.1006H277.494V93H257.997ZM312.589 69.6035H304.79V77.4023H312.589V69.6035ZM296.991 93V65.7041H316.488V69.6035H320.388V77.4023H316.488V81.3018H320.388V89.1006H316.488V93H296.991ZM312.589 89.1006V81.3018H304.79V89.1006H312.589ZM339.885 69.6035H332.086V89.1006H339.885V69.6035ZM328.187 89.1006H324.287V69.6035H328.187V65.7041H343.784V69.6035H347.684V89.1006H343.784V93H328.187V89.1006ZM367.181 69.6035H359.382V89.1006H367.181V69.6035ZM355.482 89.1006H351.583V69.6035H355.482V65.7041H371.08V69.6035H374.979V89.1006H371.08V93H355.482V89.1006ZM386.678 93H378.879V65.7041H386.678V77.4023H390.577V73.5029H394.477V65.7041H402.275V73.5029H398.376V77.4023H394.477V81.3018H398.376V85.2012H402.275V93H394.477V85.2012H390.577V81.3018H386.678V93ZM98.1211 112.704V116.604H90.3223V140H82.5234V116.604H74.7246V112.704H98.1211ZM117.618 116.604H109.819V136.101H117.618V116.604ZM105.92 136.101H102.021V116.604H105.92V112.704H121.518V116.604H125.417V136.101H121.518V140H105.92V136.101ZM160.512 116.604H152.713V124.402H160.512V116.604ZM164.411 128.302H168.311V140H160.512V128.302H152.713V140H144.914V112.704H164.411V116.604H168.311V124.402H164.411V128.302ZM172.21 140V112.704H191.707V116.604H180.009V124.402H191.707V128.302H180.009V136.101H191.707V140H172.21ZM211.204 128.302V116.604H203.405V128.302H211.204ZM203.405 132.201V140H195.606V116.604H199.506V112.704H215.104V116.604H219.003V140H211.204V132.201H203.405ZM238.5 116.604H230.701V136.101H238.5V116.604ZM222.902 140V112.704H242.399V116.604H246.299V136.101H242.399V140H222.902ZM281.394 128.302V116.604H273.595V128.302H281.394ZM273.595 132.201V140H265.796V116.604H269.695V112.704H285.293V116.604H289.192V140H281.394V132.201H273.595ZM308.689 116.604H300.891V124.402H308.689V116.604ZM293.092 140V112.704H312.589V116.604H316.488V124.402H312.589V128.302H316.488V136.101H312.589V140H293.092ZM308.689 136.101V128.302H300.891V136.101H308.689ZM335.985 116.604H328.187V136.101H335.985V116.604ZM324.287 136.101H320.388V116.604H324.287V112.704H339.885V116.604H343.784V136.101H339.885V140H324.287V136.101ZM363.281 112.704H371.08V140H351.583V136.101H347.684V112.704H355.482V136.101H363.281V112.704ZM398.376 112.704V116.604H390.577V140H382.778V116.604H374.979V112.704H398.376ZM215.104 175.302V187H211.204V159.704H219.003V167.503H230.701V159.704H238.5V187H230.701V175.302H226.802V183.101H219.003V175.302H215.104ZM242.399 187V159.704H261.896V163.604H250.198V171.402H261.896V175.302H250.198V183.101H261.896V187H242.399Z" fill="white"/>
</svg>
