<svg width="623" height="592" viewBox="0 0 623 592" fill="none" xmlns="http://www.w3.org/2000/svg">
<rect x="0.230103" y="0.661621" width="622.77" height="589.437" fill="#2F2F2F"/>
<path d="M406.035 42.4926V0.661621H623V215.521H580.812V173.69H540.634V135.662H506.482V103.338H472.33V71.0138H436.169V42.4926H406.035Z" fill="#F2C94C"/>
<path d="M217.195 42.4926V0.661621H0.230103V215.521H42.4177V173.69H82.5964V135.662H116.748V103.338H150.9V71.0138H187.061V42.4926H217.195Z" fill="#00FFEC"/>
<path d="M406.035 550.169V592H623V377.141H580.813V418.972H540.634V457H506.482V489.324H472.33V521.648H436.169V550.169H406.035Z" fill="#771FE8"/>
<path d="M217.195 550.169V592H0.230072V377.141H42.4177V418.972H82.5964V457H116.748V489.324H150.9V521.648H187.061V550.169H217.195Z" fill="#FF0099"/>
<path d="M317.386 437.127L289.379 410.618L265.302 387.83L288.396 365.972L266.285 345.045L277.586 334.348L292.327 348.3L308.05 333.418L326.231 350.625L345.885 332.023L359.152 344.58L374.875 329.698L390.107 344.115L410.253 325.047L423.029 337.139L402.883 356.206L424.011 376.204L361.608 435.266L340.48 415.269L317.386 437.127Z" fill="#F2C94C"/>
<path d="M315.226 422.938L287.218 396.43L263.142 373.642L286.236 351.784L264.124 330.856L275.426 320.16L290.166 334.112L305.89 319.23L324.07 336.437L343.725 317.834L356.991 330.391L372.715 315.509L387.947 329.926L408.093 310.859L420.868 322.95L400.722 342.018L421.851 362.015L359.448 421.078L338.32 401.08L315.226 422.938Z" fill="#F2C94C"/>
<path fill-rule="evenodd" clip-rule="evenodd" d="M216.62 167.006L164.768 216.083L179.508 230.035L154.449 253.753L190.856 288.211L204.123 275.655L215.424 286.351L227.217 275.19L250.264 297.003L225.205 320.721L244.859 339.324L222.257 360.717L313.205 446.797L335.808 425.404L356.936 445.402L458.416 349.354L437.287 329.356L457.433 310.289L366.485 224.208L346.339 243.276L326.685 224.673L302.117 247.926L279.069 226.113L289.388 216.346L278.086 205.65L292.336 192.163L255.929 157.705L231.361 180.958L216.62 167.006ZM265.988 216.083L255.669 225.849L302.395 270.074L326.963 246.821L346.617 265.423L366.763 246.356L434.033 310.025L413.887 329.093L435.016 349.09L356.658 423.254L335.529 403.257L312.927 424.649L245.657 360.98L268.259 339.587L248.605 320.985L273.664 297.267L226.939 253.042L215.146 264.204L203.845 253.507L190.578 266.064L177.849 254.016L202.908 230.298L188.168 216.346L216.898 189.153L231.639 203.105L256.207 179.852L268.936 191.9L254.687 205.386L265.988 216.083Z" fill="#00FFEC" fill-opacity="0.75"/>
<path d="M313.065 408.749L285.058 382.241L260.981 359.453L284.075 337.595L261.964 316.667L273.265 305.971L288.006 319.923L303.73 305.041L321.91 322.248L341.564 303.646L354.831 316.202L370.555 301.32L385.787 315.737L405.932 296.67L418.708 308.761L398.562 327.829L419.691 347.826L357.288 406.889L336.159 386.892L313.065 408.749Z" fill="#F9CC14"/>
<path fill-rule="evenodd" clip-rule="evenodd" d="M215.49 149.18L163.637 198.257L178.378 212.209L153.319 235.927L189.726 270.386L202.993 257.829L214.294 268.526L226.087 257.364L249.134 279.178L224.075 302.896L243.729 321.498L221.127 342.891L312.075 428.972L334.677 407.579L355.806 427.576L457.286 331.528L436.157 311.531L456.303 292.463L365.355 206.383L345.209 225.45L325.554 206.848L300.986 230.101L277.939 208.287L288.258 198.521L276.956 187.825L291.206 174.338L254.799 139.879L230.231 163.132L215.49 149.18ZM264.858 198.257L254.539 208.024L301.265 252.248L325.833 228.995L345.487 247.598L365.633 228.53L432.903 292.2L412.757 311.267L433.886 331.265L355.527 405.429L334.399 385.431L311.796 406.824L244.527 343.155L267.129 321.762L247.475 303.16L272.534 279.441L225.808 235.217L214.016 246.378L202.714 235.682L189.448 248.238L176.719 236.191L201.778 212.473L187.037 198.521L215.768 171.328L230.509 185.28L255.077 162.027L267.806 174.074L253.556 187.561L264.858 198.257Z" fill="#00FFEC"/>
<path d="M311.936 390.924L283.928 364.415L259.852 341.627L282.946 319.769L260.835 298.842L272.136 288.145L286.877 302.097L302.6 287.215L320.78 304.422L340.435 285.82L353.702 298.376L369.425 283.495L384.657 297.911L404.803 278.844L417.578 290.935L397.433 310.003L418.561 330.001L356.158 389.063L335.03 369.066L311.936 390.924Z" fill="#F2C94C"/>
</svg>
