<svg width="342" height="117" viewBox="0 0 342 117" fill="none" xmlns="http://www.w3.org/2000/svg">
<path d="M219.683 115.135L327.082 115.549L275.177 60.246L209.747 115.097L219.683 115.135Z" fill="#F9CC14"/>
<path d="M10.5473 115.078L117.946 115.491L66.0416 60.1882L0.611658 115.039L10.5473 115.078Z" fill="#F9CC14"/>
<path d="M132.177 115.99L194.538 116.23L164.4 84.1187L126.408 115.968L132.177 115.99Z" fill="#F9CC14"/>
<path d="M181.049 72.6287L243.41 72.8685L205.418 104.718L175.28 72.6065L181.049 72.6287Z" fill="#F9CC14"/>
<path d="M168.916 57.4727L264.189 57.8392L218.145 8.78052L160.102 57.4388L168.916 57.4727Z" fill="#F9CC14"/>
<path d="M65.5236 40.6135L125.127 104.118L133.611 35.0217L97.2089 34.7386L60.0097 34.7386L65.5236 40.6135Z" fill="#F9CC14"/>
</svg>
