<svg width="221" height="186" viewBox="0 0 221 186" fill="none" xmlns="http://www.w3.org/2000/svg">
<g filter="url(#filter0_d)">
<path fill-rule="evenodd" clip-rule="evenodd" d="M62.0588 3.76471V7.52941H65.8235H69.5882V11.2941V15.0588H73.3529H77.1176V18.8235V22.5882H73.3529H69.5882V26.3529V30.1176H65.8235H62.0588V26.3529V22.5882H58.2941H54.5294V18.8235V15.0588H50.7647H47V22.5882V30.1176H50.7647H54.5294V37.6471V45.1765H69.5882H84.6471V48.9412V52.7059H88.4118H92.1765V56.4706V60.2353H95.9412H99.7059V64V67.7647H95.9412H92.1765V71.5294V75.2941H88.4118H84.6471V79.0588V82.8235H80.8824H77.1176V86.5882V90.3529H73.3529H69.5882V94.1177V97.8824H65.8235H62.0588V101.647V105.412H58.2941H54.5294V112.941V120.471H50.7647H47V124.235V128H54.5294H62.0588V124.235V120.471H69.5882H77.1176V116.706V112.941H80.8824H84.6471V109.176V105.412H88.4118H92.1765V101.647V97.8824H95.9412H99.7059V94.1177V90.3529H103.471H107.235V86.5882V82.8235H114.765H122.294V86.5882V90.3529H126.059H129.824V101.647V112.941H133.588H137.353V120.471V128H148.647H159.941V124.235V120.471H156.176H152.412V112.941V105.412H159.941H167.471V109.176V112.941H171.235H175V101.647V90.3529H171.235H167.471V86.5882V82.8235H152.412H137.353V79.0588V75.2941H133.588H129.824V67.7647V60.2353H133.588H137.353V56.4706V52.7059H141.118H144.882V48.9412V45.1765H148.647H152.412V41.4118V37.6471H156.176H159.941V30.1176V22.5882H167.471H175V15.0588V7.52941H171.235H167.471V3.76471V0H163.706H159.941V3.76471V7.52941H156.176H152.412V11.2941V15.0588H148.647H144.882V18.8235V22.5882H141.118H137.353V26.3529V30.1176H133.588H129.824V33.8824V37.6471H126.059H122.294V41.4118V45.1765H118.529H114.765V48.9412V52.7059H111H107.235V48.9412V45.1765H103.471H99.7059V41.4118V37.6471H95.9412H92.1765V22.5882V7.52941H88.4118H84.6471V3.76471V0H73.3529H62.0588V3.76471ZM159.941 18.8235V22.5882H156.176H152.412V18.8235V15.0588H156.176H159.941V18.8235Z" fill="#F9CC14"/>
</g>
<g filter="url(#filter1_d)">
<path d="M44.875 153.875H35.5V163.25H49.5625V167.938H54.25V177.312H49.5625V182H30.8125V177.312H26.125V172.625H35.5V177.312H44.875V167.938H30.8125V163.25H26.125V153.875H30.8125V149.188H49.5625V153.875H54.25V158.562H44.875V153.875ZM68.3125 182H58.9375V149.188H68.3125V163.25H73V158.562H77.6875V149.188H87.0625V158.562H82.375V163.25H77.6875V167.938H82.375V172.625H87.0625V182H77.6875V172.625H73V167.938H68.3125V182ZM91.75 182V149.188H101.125V182H91.75ZM129.25 176.141V182H105.812V149.188H115.188V176.141H129.25ZM157.375 176.141V182H133.938V149.188H143.312V176.141H157.375ZM180.812 153.875H171.438V163.25H185.5V167.938H190.188V177.312H185.5V182H166.75V177.312H162.062V172.625H171.438V177.312H180.812V167.938H166.75V163.25H162.062V153.875H166.75V149.188H185.5V153.875H190.188V158.562H180.812V153.875Z" fill="#F9CC14"/>
</g>
<defs>
<filter id="filter0_d" x="47" y="0" width="136" height="136" filterUnits="userSpaceOnUse" color-interpolation-filters="sRGB">
<feFlood flood-opacity="0" result="BackgroundImageFix"/>
<feColorMatrix in="SourceAlpha" type="matrix" values="0 0 0 0 0 0 0 0 0 0 0 0 0 0 0 0 0 0 127 0"/>
<feOffset dx="8" dy="8"/>
<feColorMatrix type="matrix" values="0 0 0 0 0 0 0 0 0 0.478431 0 0 0 0 0.878431 0 0 0 1 0"/>
<feBlend mode="normal" in2="BackgroundImageFix" result="effect1_dropShadow"/>
<feBlend mode="normal" in="SourceGraphic" in2="effect1_dropShadow" result="shape"/>
</filter>
<filter id="filter1_d" x="26.125" y="149.188" width="168.062" height="36.8125" filterUnits="userSpaceOnUse" color-interpolation-filters="sRGB">
<feFlood flood-opacity="0" result="BackgroundImageFix"/>
<feColorMatrix in="SourceAlpha" type="matrix" values="0 0 0 0 0 0 0 0 0 0 0 0 0 0 0 0 0 0 127 0"/>
<feOffset dx="4" dy="4"/>
<feColorMatrix type="matrix" values="0 0 0 0 0 0 0 0 0 0.478431 0 0 0 0 0.878431 0 0 0 1 0"/>
<feBlend mode="normal" in2="BackgroundImageFix" result="effect1_dropShadow"/>
<feBlend mode="normal" in="SourceGraphic" in2="effect1_dropShadow" result="shape"/>
</filter>
</defs>
</svg>
