<svg width="136" height="136" viewBox="0 0 136 136" fill="none" xmlns="http://www.w3.org/2000/svg">
<g filter="url(#filter0_d)">
<path fill-rule="evenodd" clip-rule="evenodd" d="M15.0588 3.76471V7.52941H18.8235H22.5882V11.2941V15.0588H26.3529H30.1176V18.8235V22.5882H26.3529H22.5882V26.3529V30.1176H18.8235H15.0588V26.3529V22.5882H11.2941H7.52941V18.8235V15.0588H3.76471H0V22.5882V30.1176H3.76471H7.52941V37.6471V45.1765H22.5882H37.6471V48.9412V52.7059H41.4118H45.1765V56.4706V60.2353H48.9412H52.7059V64V67.7647H48.9412H45.1765V71.5294V75.2941H41.4118H37.6471V79.0588V82.8235H33.8824H30.1176V86.5882V90.3529H26.3529H22.5882V94.1177V97.8824H18.8235H15.0588V101.647V105.412H11.2941H7.52941V112.941V120.471H3.76471H0V124.235V128H7.52941H15.0588V124.235V120.471H22.5882H30.1176V116.706V112.941H33.8824H37.6471V109.176V105.412H41.4118H45.1765V101.647V97.8824H48.9412H52.7059V94.1177V90.3529H56.4706H60.2353V86.5882V82.8235H67.7647H75.2941V86.5882V90.3529H79.0588H82.8235V101.647V112.941H86.5882H90.3529V120.471V128H101.647H112.941V124.235V120.471H109.176H105.412V112.941V105.412H112.941H120.471V109.176V112.941H124.235H128V101.647V90.3529H124.235H120.471V86.5882V82.8235H105.412H90.3529V79.0588V75.2941H86.5882H82.8235V67.7647V60.2353H86.5882H90.3529V56.4706V52.7059H94.1177H97.8824V48.9412V45.1765H101.647H105.412V41.4118V37.6471H109.176H112.941V30.1176V22.5882H120.471H128V15.0588V7.52941H124.235H120.471V3.76471V0H116.706H112.941V3.76471V7.52941H109.176H105.412V11.2941V15.0588H101.647H97.8824V18.8235V22.5882H94.1177H90.3529V26.3529V30.1176H86.5882H82.8235V33.8824V37.6471H79.0588H75.2941V41.4118V45.1765H71.5294H67.7647V48.9412V52.7059H64H60.2353V48.9412V45.1765H56.4706H52.7059V41.4118V37.6471H48.9412H45.1765V22.5882V7.52941H41.4118H37.6471V3.76471V0H26.3529H15.0588V3.76471ZM112.941 18.8235V22.5882H109.176H105.412V18.8235V15.0588H109.176H112.941V18.8235Z" fill="#F9CC14"/>
</g>
<defs>
<filter id="filter0_d" x="0" y="0" width="136" height="136" filterUnits="userSpaceOnUse" color-interpolation-filters="sRGB">
<feFlood flood-opacity="0" result="BackgroundImageFix"/>
<feColorMatrix in="SourceAlpha" type="matrix" values="0 0 0 0 0 0 0 0 0 0 0 0 0 0 0 0 0 0 127 0"/>
<feOffset dx="8" dy="8"/>
<feColorMatrix type="matrix" values="0 0 0 0 0 0 0 0 0 0.478431 0 0 0 0 0.878431 0 0 0 1 0"/>
<feBlend mode="normal" in2="BackgroundImageFix" result="effect1_dropShadow"/>
<feBlend mode="normal" in="SourceGraphic" in2="effect1_dropShadow" result="shape"/>
</filter>
</defs>
</svg>
