<svg width="1699" height="806" viewBox="0 0 1699 806" fill="none" xmlns="http://www.w3.org/2000/svg">
<g filter="url(#filter0_d)">
<path d="M1670 4H4V126.073V792H1670V126.073V4Z" fill="#0A0C10"/>
<path d="M1670 4H4V126.073V792H1670V126.073V4Z" stroke="#007AE0" stroke-width="6.18573" stroke-linecap="round" stroke-linejoin="round"/>
</g>
<path d="M85.7412 93.9238V97H75.1943V93.4844H71.6787V75.9062H75.1943V72.3906H92.7725V79.4219H89.2568V75.9062H78.71V93.4844H85.3018L85.7412 93.0449V86.4531H82.2256V82.9375H92.7725V97H89.2568V93.4844H86.1807L85.7412 93.9238ZM110.351 86.4531V75.9062H103.319V86.4531H110.351ZM103.319 89.9688V97H96.2881V75.9062H99.8037V72.3906H113.866V75.9062H117.382V97H110.351V89.9688H103.319ZM124.413 86.4531V97H120.897V72.3906H127.929V79.4219H138.476V72.3906H145.507V97H138.476V86.4531H134.96V93.4844H127.929V86.4531H124.413ZM149.022 97V72.3906H166.601V75.9062H156.054V82.9375H166.601V86.4531H156.054V93.4844H166.601V97H149.022ZM198.241 75.9062H191.21V93.4844H198.241V75.9062ZM184.179 97V72.3906H201.757V75.9062H205.272V93.4844H201.757V97H184.179ZM208.788 97V72.3906H226.366V75.9062H215.819V82.9375H226.366V86.4531H215.819V93.4844H226.366V97H208.788ZM243.944 89.9688V72.3906H250.976V89.9688H247.46V93.4844H243.944V97H236.913V93.4844H233.397V89.9688H229.882V72.3906H236.913V89.9688H243.944ZM254.491 97V72.3906H272.069V75.9062H261.522V82.9375H272.069V86.4531H261.522V93.4844H272.069V97H254.491ZM293.163 92.6055V97H275.585V72.3906H282.616V92.6055H293.163ZM310.741 75.9062H303.71V93.4844H310.741V75.9062ZM300.194 93.4844H296.679V75.9062H300.194V72.3906H314.257V75.9062H317.772V93.4844H314.257V97H300.194V93.4844ZM335.351 75.9062H328.319V82.9375H335.351V75.9062ZM338.866 82.9375V86.4531H328.319V97H321.288V72.3906H338.866V75.9062H342.382V82.9375H338.866ZM349.413 86.4531V97H345.897V72.3906H352.929V79.4219H363.476V72.3906H370.507V97H363.476V86.4531H359.96V93.4844H352.929V86.4531H349.413ZM374.022 97V72.3906H391.601V75.9062H381.054V82.9375H391.601V86.4531H381.054V93.4844H391.601V97H374.022ZM398.632 86.4531V97H395.116V72.3906H402.147V79.4219H405.663V86.4531H409.179V72.3906H416.21V97H409.179V93.4844H402.147V86.4531H398.632ZM440.819 72.3906V75.9062H433.788V97H426.757V75.9062H419.726V72.3906H440.819Z" fill="#F9CC14"/>
<path d="M1548.18 118.727H1531V114.432H1556.77V123.021H1552.47V127.316H1548.18V131.611H1543.88V144.496H1535.29V131.611H1539.59V127.316H1543.88V123.021H1548.18V118.727ZM1582.54 118.727H1569.65V123.021H1582.54V127.316H1586.83V140.201H1582.54V144.496H1565.36V140.201H1561.06V131.611H1569.65V140.201H1578.24V127.316H1561.06V114.432H1582.54V118.727ZM1608.31 114.432H1616.9V123.021H1612.6V127.316H1608.31V131.611H1604.01V135.906H1599.72V144.496H1591.13V135.906H1595.42V131.611H1599.72V127.316H1604.01V123.021H1608.31V114.432ZM1591.13 114.432H1599.72V123.021H1591.13V114.432ZM1608.31 135.906H1616.9V144.496H1608.31V135.906Z" fill="#F9CC14"/>
<path fill-rule="evenodd" clip-rule="evenodd" d="M73.5742 115.196H132.764V152.992H73.5742V115.196ZM144.601 115.196H203.79V152.992H144.601V115.196ZM274.816 115.196H215.627V152.992H274.816V115.196ZM286.655 115.196H345.845V152.992H286.655V115.196ZM416.871 115.196H357.682V152.992H416.871V115.196ZM428.71 115.196H487.899V152.992H428.71V115.196ZM558.926 115.196H499.736V152.992H558.926V115.196ZM570.764 115.196H629.953V152.992H570.764V115.196ZM700.98 115.196H641.791V152.992H700.98V115.196ZM712.818 115.196H772.008V152.992H712.818V115.196ZM843.035 115.196H783.846V152.992H843.035V115.196ZM854.872 115.196H914.061V152.992H854.872V115.196ZM985.09 115.196H925.9V152.992H985.09V115.196ZM996.927 115.196H1056.12V152.992H996.927V115.196ZM1127.14 115.196H1067.96V152.992H1127.14V115.196Z" fill="url(#paint0_linear)"/>
<rect x="1138.98" y="115.196" width="59.1894" height="37.7967" fill="#444444"/>
<rect x="1210.01" y="115.196" width="59.1894" height="37.7967" fill="#444444"/>
<rect x="1281.04" y="115.196" width="59.1894" height="37.7967" fill="#444444"/>
<rect x="1352.06" y="115.196" width="59.1894" height="37.7967" fill="#444444"/>
<rect x="1423.09" y="115.196" width="59.1894" height="37.7967" fill="#444444"/>
<path d="M85.7412 184.381H92.7725V208.99H75.1943V205.474H71.6787V184.381H78.71V205.474H85.7412V184.381ZM96.2881 208.99V184.381H103.319V208.99H96.2881ZM120.897 184.381H127.929V191.412H124.413V194.927H120.897V198.443H117.382V201.959H113.866V208.99H106.835V201.959H110.351V198.443H113.866V194.927H117.382V191.412H120.897V184.381ZM145.507 184.381H152.538V208.99H134.96V205.474H131.444V184.381H138.476V205.474H145.507V184.381ZM166.601 191.412H170.116V184.381H177.147V191.412H173.632V194.927H170.116V198.443H173.632V201.959H177.147V208.99H170.116V201.959H166.601V198.443H163.085V208.99H156.054V198.443H159.569V194.927H163.085V191.412H159.569V187.896H156.054V184.381H163.085V187.896H166.601V191.412Z" fill="#66FCF1"/>
<path d="M1548.18 230.717H1531V226.422H1556.77V235.011H1552.47V239.306H1548.18V243.601H1543.88V256.486H1535.29V243.601H1539.59V239.306H1543.88V235.011H1548.18V230.717ZM1582.54 230.717H1569.65V235.011H1582.54V239.306H1586.83V252.191H1582.54V256.486H1565.36V252.191H1561.06V243.601H1569.65V252.191H1578.24V239.306H1561.06V226.422H1582.54V230.717ZM1608.31 226.422H1616.9V235.011H1612.6V239.306H1608.31V243.601H1604.01V247.896H1599.72V256.486H1591.13V247.896H1595.42V243.601H1599.72V239.306H1604.01V235.011H1608.31V226.422ZM1591.13 226.422H1599.72V235.011H1591.13V226.422ZM1608.31 247.896H1616.9V256.486H1608.31V247.896Z" fill="#00FFEC"/>
<rect x="73.5742" y="227.186" width="59.1894" height="37.7967" fill="#018A7D"/>
<path fill-rule="evenodd" clip-rule="evenodd" d="M203.79 227.186H144.601V264.983H203.79V227.186ZM274.816 227.186H215.627V264.983H274.816V227.186ZM286.655 227.186H345.845V264.983H286.655V227.186ZM416.871 227.186H357.682V264.983H416.871V227.186ZM428.71 227.186H487.899V264.983H428.71V227.186ZM558.926 227.186H499.736V264.983H558.926V227.186ZM570.764 227.186H629.953V264.983H570.764V227.186ZM700.98 227.186H641.791V264.983H700.98V227.186ZM712.818 227.186H772.008V264.983H712.818V227.186ZM843.035 227.186H783.846V264.983H843.035V227.186ZM854.872 227.186H914.061V264.983H854.872V227.186ZM985.09 227.186H925.9V264.983H985.09V227.186ZM996.927 227.186H1056.12V264.983H996.927V227.186ZM1127.14 227.186H1067.96V264.983H1127.14V227.186Z" fill="url(#paint1_linear)"/>
<rect x="1138.98" y="227.186" width="59.1894" height="37.7967" fill="#444444"/>
<rect x="1210.01" y="227.186" width="59.1894" height="37.7967" fill="#444444"/>
<rect x="1281.04" y="227.186" width="59.1894" height="37.7967" fill="#444444"/>
<rect x="1352.06" y="227.186" width="59.1894" height="37.7967" fill="#444444"/>
<rect x="1423.09" y="227.186" width="59.1894" height="37.7967" fill="#444444"/>
<path d="M85.7412 296.371H92.7725V320.98H85.7412V310.433H78.71V320.98H71.6787V296.371H78.71V306.918H85.7412V296.371ZM117.382 296.371V299.886H110.351V320.98H103.319V299.886H96.2881V296.371H117.382ZM124.413 310.433V320.98H120.897V296.371H127.929V303.402H138.476V296.371H145.507V320.98H138.476V310.433H134.96V317.465H127.929V310.433H124.413ZM166.601 316.586V320.98H149.022V296.371H156.054V316.586H166.601Z" fill="#F520A0"/>
<path d="M1548.18 342.707H1531V338.412H1556.77V347.001H1552.47V351.296H1548.18V355.591H1543.88V368.476H1535.29V355.591H1539.59V351.296H1543.88V347.001H1548.18V342.707ZM1582.54 342.707H1569.65V347.001H1582.54V351.296H1586.83V364.181H1582.54V368.476H1565.36V364.181H1561.06V355.591H1569.65V364.181H1578.24V351.296H1561.06V338.412H1582.54V342.707ZM1608.31 338.412H1616.9V347.001H1612.6V351.296H1608.31V355.591H1604.01V359.886H1599.72V368.476H1591.13V359.886H1595.42V355.591H1599.72V351.296H1604.01V347.001H1608.31V338.412ZM1591.13 338.412H1599.72V347.001H1591.13V338.412ZM1608.31 359.886H1616.9V368.476H1608.31V359.886Z" fill="#F520A0"/>
<path fill-rule="evenodd" clip-rule="evenodd" d="M73.5742 339.176H132.764V376.973H73.5742V339.176ZM144.601 339.176H203.79V376.973H144.601V339.176ZM274.816 339.176H215.627V376.973H274.816V339.176ZM286.655 339.176H345.845V376.973H286.655V339.176ZM416.871 339.176H357.682V376.973H416.871V339.176ZM428.71 339.176H487.899V376.973H428.71V339.176ZM558.926 339.176H499.736V376.973H558.926V339.176ZM570.764 339.176H629.953V376.973H570.764V339.176ZM700.98 339.176H641.791V376.973H700.98V339.176ZM712.818 339.176H772.008V376.973H712.818V339.176ZM843.035 339.176H783.846V376.973H843.035V339.176ZM854.872 339.176H914.061V376.973H854.872V339.176ZM985.09 339.176H925.9V376.973H985.09V339.176ZM996.927 339.176H1056.12V376.973H996.927V339.176ZM1127.14 339.176H1067.96V376.973H1127.14V339.176Z" fill="url(#paint2_linear)"/>
<rect x="1138.98" y="339.176" width="59.1894" height="37.7967" fill="#444444"/>
<rect x="1210.01" y="339.176" width="59.1894" height="37.7967" fill="#444444"/>
<rect x="1281.04" y="339.176" width="59.1894" height="37.7967" fill="#444444"/>
<rect x="1352.06" y="339.176" width="59.1894" height="37.7967" fill="#444444"/>
<rect x="1423.09" y="339.176" width="59.1894" height="37.7967" fill="#444444"/>
<path d="M85.7412 427.339H92.7725V430.854H89.2568V434.37H75.1943V430.854H71.6787V413.276H75.1943V409.761H89.2568V413.276H92.7725V416.792H85.7412V413.276H78.71V430.854H85.7412V427.339ZM110.351 413.276H103.319V420.308H113.866V423.823H117.382V430.854H113.866V434.37H99.8037V430.854H96.2881V427.339H103.319V430.854H110.351V423.823H99.8037V420.308H96.2881V413.276H99.8037V409.761H113.866V413.276H117.382V416.792H110.351V413.276ZM134.96 413.276H127.929V420.308H138.476V423.823H141.991V430.854H138.476V434.37H124.413V430.854H120.897V427.339H127.929V430.854H134.96V423.823H124.413V420.308H120.897V413.276H124.413V409.761H138.476V413.276H141.991V416.792H134.96V413.276Z" fill="#A560FF"/>
<path d="M1548.18 456.097H1531V451.802H1556.77V460.392H1552.47V464.687H1548.18V468.981H1543.88V481.866H1535.29V468.981H1539.59V464.687H1543.88V460.392H1548.18V456.097ZM1582.54 456.097H1569.65V460.392H1582.54V464.687H1586.83V477.571H1582.54V481.866H1565.36V477.571H1561.06V468.981H1569.65V477.571H1578.24V464.687H1561.06V451.802H1582.54V456.097ZM1608.31 451.802H1616.9V460.392H1612.6V464.687H1608.31V468.981H1604.01V473.276H1599.72V481.866H1591.13V473.276H1595.42V468.981H1599.72V464.687H1604.01V460.392H1608.31V451.802ZM1591.13 451.802H1599.72V460.392H1591.13V451.802ZM1608.31 473.276H1616.9V481.866H1608.31V473.276Z" fill="#A560FF"/>
<path fill-rule="evenodd" clip-rule="evenodd" d="M73.5742 452.566H132.764V490.363H73.5742V452.566ZM144.601 452.566H203.79V490.363H144.601V452.566ZM274.816 452.566H215.627V490.363H274.816V452.566ZM286.655 452.566H345.845V490.363H286.655V452.566ZM416.871 452.566H357.682V490.363H416.871V452.566ZM428.71 452.566H487.899V490.363H428.71V452.566ZM558.926 452.566H499.736V490.363H558.926V452.566ZM570.764 452.566H629.953V490.363H570.764V452.566ZM700.98 452.566H641.791V490.363H700.98V452.566ZM712.818 452.566H772.008V490.363H712.818V452.566ZM843.035 452.566H783.846V490.363H843.035V452.566ZM854.872 452.566H914.061V490.363H854.872V452.566ZM985.09 452.566H925.9V490.363H985.09V452.566ZM996.927 452.566H1056.12V490.363H996.927V452.566ZM1127.14 452.566H1067.96V490.363H1127.14V452.566Z" fill="url(#paint3_linear)"/>
<rect x="1138.98" y="452.566" width="59.1894" height="37.7967" fill="#444444"/>
<rect x="1210.01" y="452.566" width="59.1894" height="37.7967" fill="#444444"/>
<rect x="1281.04" y="452.566" width="59.1894" height="37.7967" fill="#444444"/>
<rect x="1352.06" y="452.566" width="59.1894" height="37.7967" fill="#444444"/>
<rect x="1423.09" y="452.566" width="59.1894" height="37.7967" fill="#444444"/>
<path d="M82.2256 535.75H89.2568V556.843H85.7412V560.359H71.6787V553.328H75.1943V556.843H82.2256V535.75ZM106.835 539.265H99.8037V546.296H110.351V549.812H113.866V556.843H110.351V560.359H96.2881V556.843H92.7725V553.328H99.8037V556.843H106.835V549.812H96.2881V546.296H92.7725V539.265H96.2881V535.75H110.351V539.265H113.866V542.781H106.835V539.265Z" fill="#771FE8"/>
<path d="M1548.18 582.085H1531V577.791H1556.77V586.38H1552.47V590.675H1548.18V594.97H1543.88V607.855H1535.29V594.97H1539.59V590.675H1543.88V586.38H1548.18V582.085ZM1582.54 582.085H1569.65V586.38H1582.54V590.675H1586.83V603.56H1582.54V607.855H1565.36V603.56H1561.06V594.97H1569.65V603.56H1578.24V590.675H1561.06V577.791H1582.54V582.085ZM1608.31 577.791H1616.9V586.38H1612.6V590.675H1608.31V594.97H1604.01V599.265H1599.72V607.855H1591.13V599.265H1595.42V594.97H1599.72V590.675H1604.01V586.38H1608.31V577.791ZM1591.13 577.791H1599.72V586.38H1591.13V577.791ZM1608.31 599.265H1616.9V607.855H1608.31V599.265Z" fill="#771FE8"/>
<path fill-rule="evenodd" clip-rule="evenodd" d="M73.5742 578.555H132.764V616.352H73.5742V578.555ZM144.601 578.555H203.79V616.352H144.601V578.555ZM274.816 578.555H215.627V616.352H274.816V578.555ZM286.655 578.555H345.845V616.352H286.655V578.555ZM416.871 578.555H357.682V616.352H416.871V578.555ZM428.71 578.555H487.899V616.352H428.71V578.555ZM558.926 578.555H499.736V616.352H558.926V578.555ZM570.764 578.555H629.953V616.352H570.764V578.555ZM700.98 578.555H641.791V616.352H700.98V578.555ZM712.818 578.555H772.008V616.352H712.818V578.555ZM843.035 578.555H783.846V616.352H843.035V578.555ZM854.872 578.555H914.061V616.352H854.872V578.555ZM985.09 578.555H925.9V616.352H985.09V578.555ZM996.927 578.555H1056.12V616.352H996.927V578.555ZM1127.14 578.555H1067.96V616.352H1127.14V578.555Z" fill="url(#paint4_linear)"/>
<rect x="1138.98" y="578.555" width="59.1894" height="37.7967" fill="#444444"/>
<rect x="1210.01" y="578.555" width="59.1894" height="37.7967" fill="#444444"/>
<rect x="1281.04" y="578.555" width="59.1894" height="37.7967" fill="#444444"/>
<rect x="1352.06" y="578.555" width="59.1894" height="37.7967" fill="#444444"/>
<rect x="1423.09" y="578.555" width="59.1894" height="37.7967" fill="#444444"/>
<path d="M92.7725 679.285V668.738H96.2881V693.347H89.2568V686.316H78.71V693.347H71.6787V668.738H78.71V679.285H82.2256V672.253H89.2568V679.285H92.7725ZM99.8037 693.347V668.738H117.382V672.253H106.835V679.285H117.382V682.8H106.835V689.832H117.382V693.347H99.8037ZM134.96 672.253H127.929V679.285H134.96V672.253ZM120.897 693.347V668.738H138.476V672.253H141.991V679.285H138.476V682.8H141.991V689.832H138.476V693.347H120.897ZM134.96 689.832V682.8H127.929V689.832H134.96ZM173.632 672.253H166.601V689.832H173.632V672.253ZM159.569 693.347V668.738H177.147V672.253H180.663V689.832H177.147V693.347H159.569ZM184.179 693.347V668.738H201.757V672.253H191.21V679.285H201.757V682.8H191.21V689.832H201.757V693.347H184.179ZM219.335 686.316V668.738H226.366V686.316H222.851V689.832H219.335V693.347H212.304V689.832H208.788V686.316H205.272V668.738H212.304V686.316H219.335Z" fill="#0003FF"/>
<path d="M1548.18 715.074H1531V710.779H1556.77V719.369H1552.47V723.664H1548.18V727.958H1543.88V740.843H1535.29V727.958H1539.59V723.664H1543.88V719.369H1548.18V715.074ZM1582.54 715.074H1569.65V719.369H1582.54V723.664H1586.83V736.548H1582.54V740.843H1565.36V736.548H1561.06V727.958H1569.65V736.548H1578.24V723.664H1561.06V710.779H1582.54V715.074ZM1608.31 710.779H1616.9V719.369H1612.6V723.664H1608.31V727.958H1604.01V732.253H1599.72V740.843H1591.13V732.253H1595.42V727.958H1599.72V723.664H1604.01V719.369H1608.31V710.779ZM1591.13 710.779H1599.72V719.369H1591.13V710.779ZM1608.31 732.253H1616.9V740.843H1608.31V732.253Z" fill="#0003FF"/>
<path fill-rule="evenodd" clip-rule="evenodd" d="M73.5742 711.543H132.764V749.34H73.5742V711.543ZM144.601 711.543H203.79V749.34H144.601V711.543ZM274.816 711.543H215.627V749.34H274.816V711.543ZM286.655 711.543H345.845V749.34H286.655V711.543ZM416.871 711.543H357.682V749.34H416.871V711.543ZM428.71 711.543H487.899V749.34H428.71V711.543ZM558.926 711.543H499.736V749.34H558.926V711.543ZM570.764 711.543H629.953V749.34H570.764V711.543ZM700.98 711.543H641.791V749.34H700.98V711.543ZM712.818 711.543H772.008V749.34H712.818V711.543ZM843.035 711.543H783.846V749.34H843.035V711.543ZM854.872 711.543H914.061V749.34H854.872V711.543ZM985.09 711.543H925.9V749.34H985.09V711.543ZM996.927 711.543H1056.12V749.34H996.927V711.543ZM1127.14 711.543H1067.96V749.34H1127.14V711.543Z" fill="url(#paint5_linear)"/>
<rect x="1138.98" y="711.543" width="59.1894" height="37.7967" fill="#444444"/>
<rect x="1210.01" y="711.543" width="59.1894" height="37.7967" fill="#444444"/>
<rect x="1281.04" y="711.543" width="59.1894" height="37.7967" fill="#444444"/>
<rect x="1352.06" y="711.543" width="59.1894" height="37.7967" fill="#444444"/>
<rect x="1423.09" y="711.543" width="59.1894" height="37.7967" fill="#444444"/>
<defs>
<filter id="filter0_d" x="0.907227" y="0.907227" width="1682.5" height="804.495" filterUnits="userSpaceOnUse" color-interpolation-filters="sRGB">
<feFlood flood-opacity="0" result="BackgroundImageFix"/>
<feColorMatrix in="SourceAlpha" type="matrix" values="0 0 0 0 0 0 0 0 0 0 0 0 0 0 0 0 0 0 127 0"/>
<feOffset dx="10.3096" dy="10.3096"/>
<feColorMatrix type="matrix" values="0 0 0 0 0.976471 0 0 0 0 0.8 0 0 0 0 0.0784314 0 0 0 1 0"/>
<feBlend mode="normal" in2="BackgroundImageFix" result="effect1_dropShadow"/>
<feBlend mode="normal" in="SourceGraphic" in2="effect1_dropShadow" result="shape"/>
</filter>
<linearGradient id="paint0_linear" x1="1127" y1="134" x2="88.5" y2="134" gradientUnits="userSpaceOnUse">
<stop stop-color="#F9CC14"/>
<stop offset="1" stop-color="#826800"/>
</linearGradient>
<linearGradient id="paint1_linear" x1="77" y1="246" x2="1127" y2="246" gradientUnits="userSpaceOnUse">
<stop stop-color="#008278"/>
<stop offset="1" stop-color="#00FFC5"/>
</linearGradient>
<linearGradient id="paint2_linear" x1="1052" y1="358" x2="82.5" y2="366" gradientUnits="userSpaceOnUse">
<stop stop-color="#F520A0"/>
<stop offset="1" stop-color="#720044"/>
</linearGradient>
<linearGradient id="paint3_linear" x1="1127" y1="471" x2="74" y2="471.001" gradientUnits="userSpaceOnUse">
<stop stop-color="#A560FF"/>
<stop offset="1" stop-color="#482674"/>
</linearGradient>
<linearGradient id="paint4_linear" x1="1127" y1="597" x2="74" y2="597" gradientUnits="userSpaceOnUse">
<stop stop-color="#771FE8"/>
<stop offset="1" stop-color="#3D0F77"/>
</linearGradient>
<linearGradient id="paint5_linear" x1="1127" y1="730" x2="74" y2="730" gradientUnits="userSpaceOnUse">
<stop stop-color="#0003FF"/>
<stop offset="1" stop-color="#000282"/>
</linearGradient>
</defs>
</svg>
