<svg width="699" height="1067" viewBox="0 0 699 1067" fill="none" xmlns="http://www.w3.org/2000/svg">
<path d="M0 1067H699V140.219H551.983V0H0V1067Z" fill="#007AE0"/>
<path d="M106.354 294.996H116.026L106.85 341H97.178L106.354 294.996ZM133.248 341.496C129.9 341.496 126.945 340.876 124.382 339.636C121.861 338.396 119.898 336.66 118.492 334.428C117.128 332.155 116.446 329.53 116.446 326.554C116.446 322.875 117.314 319.569 119.05 316.634C120.786 313.699 123.184 311.385 126.242 309.69C129.301 307.995 132.752 307.148 136.596 307.148C139.986 307.148 142.941 307.768 145.462 309.008C147.984 310.248 149.926 312.005 151.29 314.278C152.696 316.51 153.398 319.114 153.398 322.09C153.398 325.769 152.53 329.075 150.794 332.01C149.1 334.945 146.702 337.259 143.602 338.954C140.544 340.649 137.092 341.496 133.248 341.496ZM133.868 333.498C135.728 333.498 137.402 333.043 138.89 332.134C140.378 331.183 141.536 329.881 142.362 328.228C143.189 326.575 143.602 324.673 143.602 322.524C143.602 320.251 142.941 318.453 141.618 317.13C140.296 315.807 138.436 315.146 136.038 315.146C134.137 315.146 132.442 315.621 130.954 316.572C129.466 317.481 128.309 318.763 127.482 320.416C126.656 322.069 126.242 323.971 126.242 326.12C126.242 328.393 126.904 330.191 128.226 331.514C129.59 332.837 131.471 333.498 133.868 333.498ZM171.397 311.612C172.844 310.041 174.58 308.905 176.605 308.202C178.672 307.499 181.09 307.148 183.859 307.148L182.123 316.076C180.966 315.993 180.222 315.952 179.891 315.952C176.956 315.952 174.6 316.675 172.823 318.122C171.087 319.569 169.909 321.821 169.289 324.88L166.065 341H156.393L163.027 307.644H172.203L171.397 311.612ZM218.757 321.842C218.757 323.371 218.571 325.066 218.199 326.926H192.655C192.986 331.473 195.858 333.746 201.273 333.746C202.968 333.746 204.58 333.477 206.109 332.94C207.68 332.403 209.044 331.638 210.201 330.646L214.231 337.032C212.371 338.52 210.242 339.636 207.845 340.38C205.448 341.124 202.926 341.496 200.281 341.496C196.85 341.496 193.833 340.897 191.229 339.698C188.666 338.458 186.682 336.701 185.277 334.428C183.913 332.155 183.231 329.53 183.231 326.554C183.231 322.875 184.058 319.569 185.711 316.634C187.406 313.658 189.741 311.343 192.717 309.69C195.693 307.995 199.082 307.148 202.885 307.148C206.109 307.148 208.899 307.747 211.255 308.946C213.652 310.145 215.492 311.86 216.773 314.092C218.096 316.324 218.757 318.907 218.757 321.842ZM202.451 314.402C200.178 314.402 198.256 315.022 196.685 316.262C195.114 317.461 193.998 319.135 193.337 321.284H209.891C209.891 319.135 209.209 317.461 207.845 316.262C206.522 315.022 204.724 314.402 202.451 314.402ZM269.965 307.148C273.602 307.148 276.495 308.14 278.645 310.124C280.794 312.067 281.869 314.836 281.869 318.432C281.869 319.755 281.724 321.119 281.435 322.524L277.777 341H268.105L271.639 323.206C271.804 322.379 271.887 321.532 271.887 320.664C271.887 318.969 271.432 317.688 270.523 316.82C269.655 315.952 268.353 315.518 266.617 315.518C261.946 315.518 259.032 318.308 257.875 323.888L254.465 341H244.793L248.327 323.206C248.492 322.379 248.575 321.553 248.575 320.726C248.575 319.031 248.12 317.75 247.211 316.882C246.343 315.973 245.041 315.518 243.305 315.518C238.634 315.518 235.699 318.349 234.501 324.012L231.153 341H221.481L228.115 307.644H237.291L236.547 311.116C239.44 308.471 242.933 307.148 247.025 307.148C249.339 307.148 251.385 307.623 253.163 308.574C254.981 309.483 256.345 310.827 257.255 312.604C258.867 310.827 260.747 309.483 262.897 308.574C265.046 307.623 267.402 307.148 269.965 307.148ZM310.701 307.644H320.311L313.677 341H304.067L310.701 307.644ZM317.149 302.994C315.495 302.994 314.131 302.519 313.057 301.568C312.023 300.576 311.507 299.377 311.507 297.972C311.507 296.319 312.085 294.955 313.243 293.88C314.441 292.764 315.991 292.206 317.893 292.206C319.587 292.206 320.951 292.681 321.985 293.632C323.059 294.541 323.597 295.678 323.597 297.042C323.597 298.819 322.997 300.266 321.799 301.382C320.6 302.457 319.05 302.994 317.149 302.994ZM334.807 341.496C331.913 341.496 329.165 341.186 326.561 340.566C323.998 339.905 321.993 339.057 320.547 338.024L324.267 331.018C325.713 331.969 327.47 332.733 329.537 333.312C331.645 333.891 333.753 334.18 335.861 334.18C338.051 334.18 339.684 333.911 340.759 333.374C341.833 332.795 342.371 331.989 342.371 330.956C342.371 330.129 341.895 329.53 340.945 329.158C339.994 328.786 338.465 328.393 336.357 327.98C333.959 327.525 331.975 327.029 330.405 326.492C328.875 325.955 327.532 325.087 326.375 323.888C325.259 322.648 324.701 320.974 324.701 318.866C324.701 315.187 326.23 312.315 329.289 310.248C332.389 308.181 336.439 307.148 341.441 307.148C343.755 307.148 346.008 307.396 348.199 307.892C350.389 308.388 352.249 309.07 353.779 309.938L350.307 317.006C347.579 315.311 344.293 314.464 340.449 314.464C338.341 314.464 336.729 314.774 335.613 315.394C334.538 316.014 334.001 316.799 334.001 317.75C334.001 318.618 334.476 319.259 335.427 319.672C336.377 320.044 337.969 320.457 340.201 320.912C342.557 321.367 344.479 321.863 345.967 322.4C347.496 322.896 348.819 323.743 349.935 324.942C351.051 326.141 351.609 327.773 351.609 329.84C351.609 333.56 350.038 336.433 346.897 338.458C343.797 340.483 339.767 341.496 334.807 341.496ZM380.95 307.148C383.554 307.148 385.951 307.747 388.142 308.946C390.374 310.145 392.131 311.881 393.412 314.154C394.735 316.386 395.396 319.031 395.396 322.09C395.396 325.769 394.569 329.096 392.916 332.072C391.304 335.007 389.093 337.321 386.282 339.016C383.471 340.669 380.351 341.496 376.92 341.496C371.836 341.496 368.24 339.843 366.132 336.536L362.846 353.028H353.174L362.226 307.644H371.402L370.72 310.93C373.489 308.409 376.899 307.148 380.95 307.148ZM375.804 333.498C377.705 333.498 379.4 333.043 380.888 332.134C382.376 331.183 383.533 329.881 384.36 328.228C385.187 326.575 385.6 324.673 385.6 322.524C385.6 320.251 384.918 318.453 383.554 317.13C382.231 315.807 380.371 315.146 377.974 315.146C376.114 315.146 374.44 315.621 372.952 316.572C371.464 317.481 370.307 318.763 369.48 320.416C368.653 322.069 368.24 323.971 368.24 326.12C368.24 328.393 368.901 330.191 370.224 331.514C371.547 332.837 373.407 333.498 375.804 333.498ZM438.637 307.644L432.003 341H422.827L423.509 337.404C422.062 338.768 420.409 339.801 418.549 340.504C416.689 341.165 414.725 341.496 412.659 341.496C409.021 341.496 406.107 340.504 403.917 338.52C401.767 336.536 400.693 333.746 400.693 330.15C400.693 328.786 400.837 327.443 401.127 326.12L404.785 307.644H414.457L410.923 325.5C410.757 326.285 410.675 327.091 410.675 327.918C410.675 331.39 412.535 333.126 416.255 333.126C418.693 333.126 420.698 332.423 422.269 331.018C423.881 329.571 424.976 327.422 425.555 324.57L428.965 307.644H438.637ZM489.447 307.148C493.084 307.148 495.978 308.14 498.127 310.124C500.276 312.067 501.351 314.836 501.351 318.432C501.351 319.755 501.206 321.119 500.917 322.524L497.259 341H487.587L491.121 323.206C491.286 322.379 491.369 321.532 491.369 320.664C491.369 318.969 490.914 317.688 490.005 316.82C489.137 315.952 487.835 315.518 486.099 315.518C481.428 315.518 478.514 318.308 477.357 323.888L473.947 341H464.275L467.809 323.206C467.974 322.379 468.057 321.553 468.057 320.726C468.057 319.031 467.602 317.75 466.693 316.882C465.825 315.973 464.523 315.518 462.787 315.518C458.116 315.518 455.182 318.349 453.983 324.012L450.635 341H440.963L447.597 307.644H456.773L456.029 311.116C458.922 308.471 462.415 307.148 466.507 307.148C468.822 307.148 470.868 307.623 472.645 308.574C474.464 309.483 475.828 310.827 476.737 312.604C478.349 310.827 480.23 309.483 482.379 308.574C484.528 307.623 486.884 307.148 489.447 307.148ZM137.664 383.644L131.03 417H121.854L122.474 413.714C119.705 416.235 116.295 417.496 112.244 417.496C109.64 417.496 107.243 416.897 105.052 415.698C102.861 414.499 101.105 412.784 99.782 410.552C98.5007 408.279 97.86 405.613 97.86 402.554C97.86 398.875 98.666 395.569 100.278 392.634C101.931 389.658 104.163 387.343 106.974 385.69C109.785 383.995 112.885 383.148 116.274 383.148C121.399 383.148 125.016 384.822 127.124 388.17L127.992 383.644H137.664ZM115.22 409.498C117.121 409.498 118.816 409.043 120.304 408.134C121.792 407.183 122.949 405.881 123.776 404.228C124.603 402.575 125.016 400.673 125.016 398.524C125.016 396.251 124.334 394.453 122.97 393.13C121.647 391.807 119.787 391.146 117.39 391.146C115.489 391.146 113.794 391.621 112.306 392.572C110.818 393.481 109.661 394.763 108.834 396.416C108.007 398.069 107.594 399.971 107.594 402.12C107.594 404.393 108.255 406.191 109.578 407.514C110.942 408.837 112.823 409.498 115.22 409.498ZM152.137 417.496C149.243 417.496 146.495 417.186 143.891 416.566C141.328 415.905 139.323 415.057 137.877 414.024L141.597 407.018C143.043 407.969 144.8 408.733 146.867 409.312C148.975 409.891 151.083 410.18 153.191 410.18C155.381 410.18 157.014 409.911 158.089 409.374C159.163 408.795 159.701 407.989 159.701 406.956C159.701 406.129 159.225 405.53 158.275 405.158C157.324 404.786 155.795 404.393 153.687 403.98C151.289 403.525 149.305 403.029 147.735 402.492C146.205 401.955 144.862 401.087 143.705 399.888C142.589 398.648 142.031 396.974 142.031 394.866C142.031 391.187 143.56 388.315 146.619 386.248C149.719 384.181 153.769 383.148 158.771 383.148C161.085 383.148 163.338 383.396 165.529 383.892C167.719 384.388 169.579 385.07 171.109 385.938L167.637 393.006C164.909 391.311 161.623 390.464 157.779 390.464C155.671 390.464 154.059 390.774 152.943 391.394C151.868 392.014 151.331 392.799 151.331 393.75C151.331 394.618 151.806 395.259 152.757 395.672C153.707 396.044 155.299 396.457 157.531 396.912C159.887 397.367 161.809 397.863 163.297 398.4C164.826 398.896 166.149 399.743 167.265 400.942C168.381 402.141 168.939 403.773 168.939 405.84C168.939 409.56 167.368 412.433 164.227 414.458C161.127 416.483 157.097 417.496 152.137 417.496ZM221.406 383.148C225.043 383.148 227.937 384.14 230.086 386.124C232.235 388.067 233.31 390.836 233.31 394.432C233.31 395.755 233.165 397.119 232.876 398.524L229.218 417H219.546L223.08 399.206C223.245 398.379 223.328 397.532 223.328 396.664C223.328 394.969 222.873 393.688 221.964 392.82C221.096 391.952 219.794 391.518 218.058 391.518C213.387 391.518 210.473 394.308 209.316 399.888L205.906 417H196.234L199.768 399.206C199.933 398.379 200.016 397.553 200.016 396.726C200.016 395.031 199.561 393.75 198.652 392.882C197.784 391.973 196.482 391.518 194.746 391.518C190.075 391.518 187.141 394.349 185.942 400.012L182.594 417H172.922L179.556 383.644H188.732L187.988 387.116C190.881 384.471 194.374 383.148 198.466 383.148C200.781 383.148 202.827 383.623 204.604 384.574C206.423 385.483 207.787 386.827 208.696 388.604C210.308 386.827 212.189 385.483 214.338 384.574C216.487 383.623 218.843 383.148 221.406 383.148ZM263.307 383.148C265.911 383.148 268.309 383.747 270.499 384.946C272.731 386.145 274.488 387.881 275.769 390.154C277.092 392.386 277.753 395.031 277.753 398.09C277.753 401.769 276.927 405.096 275.273 408.072C273.661 411.007 271.45 413.321 268.639 415.016C265.829 416.669 262.708 417.496 259.277 417.496C256.673 417.496 254.421 417.041 252.519 416.132C250.618 415.223 249.151 413.859 248.117 412.04L247.125 417H237.949L247.125 370.996H256.797L253.697 386.496C256.384 384.264 259.587 383.148 263.307 383.148ZM258.161 409.498C260.063 409.498 261.757 409.043 263.245 408.134C264.733 407.183 265.891 405.881 266.717 404.228C267.544 402.575 267.957 400.673 267.957 398.524C267.957 396.251 267.275 394.453 265.911 393.13C264.589 391.807 262.729 391.146 260.331 391.146C258.471 391.146 256.797 391.621 255.309 392.572C253.821 393.481 252.664 394.763 251.837 396.416C251.011 398.069 250.597 399.971 250.597 402.12C250.597 404.393 251.259 406.191 252.581 407.514C253.904 408.837 255.764 409.498 258.161 409.498ZM323.846 370.996L314.67 417H305.494L306.176 413.652C303.365 416.215 299.955 417.496 295.946 417.496C293.342 417.496 290.945 416.897 288.754 415.698C286.563 414.499 284.807 412.784 283.484 410.552C282.203 408.279 281.562 405.613 281.562 402.554C281.562 398.875 282.368 395.569 283.98 392.634C285.633 389.658 287.865 387.343 290.676 385.69C293.487 383.995 296.587 383.148 299.976 383.148C302.415 383.148 304.543 383.561 306.362 384.388C308.222 385.215 309.689 386.434 310.764 388.046L314.174 370.996H323.846ZM298.922 409.498C300.823 409.498 302.518 409.043 304.006 408.134C305.494 407.183 306.651 405.881 307.478 404.228C308.305 402.575 308.718 400.673 308.718 398.524C308.718 396.251 308.036 394.453 306.672 393.13C305.349 391.807 303.489 391.146 301.092 391.146C299.191 391.146 297.496 391.621 296.008 392.572C294.52 393.481 293.363 394.763 292.536 396.416C291.709 398.069 291.296 399.971 291.296 402.12C291.296 404.393 291.957 406.191 293.28 407.514C294.644 408.837 296.525 409.498 298.922 409.498ZM349.724 383.148C353.444 383.148 356.399 384.14 358.59 386.124C360.781 388.067 361.876 390.857 361.876 394.494C361.876 395.858 361.731 397.201 361.442 398.524L357.722 417H348.05L351.646 399.144C351.811 398.441 351.894 397.677 351.894 396.85C351.894 395.114 351.419 393.791 350.468 392.882C349.517 391.973 348.091 391.518 346.19 391.518C343.71 391.518 341.643 392.241 339.99 393.688C338.378 395.093 337.283 397.222 336.704 400.074L333.356 417H323.684L330.318 383.644H339.494L338.75 387.24C341.726 384.512 345.384 383.148 349.724 383.148ZM391.909 383.148C394.513 383.148 396.91 383.747 399.101 384.946C401.333 386.145 403.09 387.881 404.371 390.154C405.694 392.386 406.355 395.031 406.355 398.09C406.355 401.769 405.528 405.096 403.875 408.072C402.263 411.007 400.052 413.321 397.241 415.016C394.43 416.669 391.31 417.496 387.879 417.496C385.275 417.496 383.022 417.041 381.121 416.132C379.22 415.223 377.752 413.859 376.719 412.04L375.727 417H366.551L375.727 370.996H385.399L382.299 386.496C384.986 384.264 388.189 383.148 391.909 383.148ZM386.763 409.498C388.664 409.498 390.359 409.043 391.847 408.134C393.335 407.183 394.492 405.881 395.319 404.228C396.146 402.575 396.559 400.673 396.559 398.524C396.559 396.251 395.877 394.453 394.513 393.13C393.19 391.807 391.33 391.146 388.933 391.146C387.073 391.146 385.399 391.621 383.911 392.572C382.423 393.481 381.266 394.763 380.439 396.416C379.612 398.069 379.199 399.971 379.199 402.12C379.199 404.393 379.86 406.191 381.183 407.514C382.506 408.837 384.366 409.498 386.763 409.498ZM450.402 383.644L444.884 411.42C443.644 417.703 441.246 422.291 437.692 425.184C434.178 428.077 429.466 429.524 423.556 429.524C420.332 429.524 417.356 429.152 414.628 428.408C411.941 427.664 409.626 426.569 407.684 425.122L412.272 418.116C413.594 419.232 415.289 420.1 417.356 420.72C419.464 421.381 421.675 421.712 423.99 421.712C427.255 421.712 429.735 420.989 431.43 419.542C433.124 418.137 434.282 415.987 434.902 413.094L435.15 411.668C432.463 414.148 429.074 415.388 424.982 415.388C422.212 415.388 419.712 414.83 417.48 413.714C415.248 412.557 413.47 410.924 412.148 408.816C410.866 406.708 410.226 404.228 410.226 401.376C410.226 397.987 411.032 394.907 412.644 392.138C414.256 389.369 416.467 387.178 419.278 385.566C422.13 383.954 425.312 383.148 428.826 383.148C431.43 383.148 433.703 383.644 435.646 384.636C437.63 385.587 439.118 387.075 440.11 389.1L441.164 383.644H450.402ZM427.586 407.452C430.396 407.452 432.711 406.543 434.53 404.724C436.348 402.905 437.258 400.57 437.258 397.718C437.258 395.693 436.596 394.101 435.274 392.944C433.951 391.745 432.112 391.146 429.756 391.146C426.904 391.146 424.548 392.055 422.688 393.874C420.869 395.693 419.96 398.028 419.96 400.88C419.96 402.905 420.642 404.517 422.006 405.716C423.37 406.873 425.23 407.452 427.586 407.452ZM493.256 383.644L486.622 417H477.446L478.066 413.714C475.296 416.235 471.886 417.496 467.836 417.496C465.232 417.496 462.834 416.897 460.644 415.698C458.453 414.499 456.696 412.784 455.374 410.552C454.092 408.279 453.452 405.613 453.452 402.554C453.452 398.875 454.258 395.569 455.87 392.634C457.523 389.658 459.755 387.343 462.566 385.69C465.376 383.995 468.476 383.148 471.866 383.148C476.991 383.148 480.608 384.822 482.716 388.17L483.584 383.644H493.256ZM470.812 409.498C472.713 409.498 474.408 409.043 475.896 408.134C477.384 407.183 478.541 405.881 479.368 404.228C480.194 402.575 480.608 400.673 480.608 398.524C480.608 396.251 479.926 394.453 478.562 393.13C477.239 391.807 475.379 391.146 472.982 391.146C471.08 391.146 469.386 391.621 467.898 392.572C466.41 393.481 465.252 394.763 464.426 396.416C463.599 398.069 463.186 399.971 463.186 402.12C463.186 404.393 463.847 406.191 465.17 407.514C466.534 408.837 468.414 409.498 470.812 409.498ZM531.784 397.842C531.784 399.371 531.598 401.066 531.226 402.926H505.682C506.013 407.473 508.886 409.746 514.3 409.746C515.995 409.746 517.607 409.477 519.136 408.94C520.707 408.403 522.071 407.638 523.228 406.646L527.258 413.032C525.398 414.52 523.27 415.636 520.872 416.38C518.475 417.124 515.954 417.496 513.308 417.496C509.878 417.496 506.86 416.897 504.256 415.698C501.694 414.458 499.71 412.701 498.304 410.428C496.94 408.155 496.258 405.53 496.258 402.554C496.258 398.875 497.085 395.569 498.738 392.634C500.433 389.658 502.768 387.343 505.744 385.69C508.72 383.995 512.11 383.148 515.912 383.148C519.136 383.148 521.926 383.747 524.282 384.946C526.68 386.145 528.519 387.86 529.8 390.092C531.123 392.324 531.784 394.907 531.784 397.842ZM515.478 390.402C513.205 390.402 511.283 391.022 509.712 392.262C508.142 393.461 507.026 395.135 506.364 397.284H522.918C522.918 395.135 522.236 393.461 520.872 392.262C519.55 391.022 517.752 390.402 515.478 390.402ZM557.138 378.126C555.65 378.126 554.472 378.539 553.604 379.366C552.777 380.151 552.199 381.412 551.868 383.148L551.62 384.388H560.114L558.626 391.828H550.38L545.358 417H535.686L540.708 391.828H535.5L536.988 384.388H542.196L542.568 382.466C543.353 378.746 544.965 375.832 547.404 373.724C549.884 371.575 553.108 370.5 557.076 370.5C558.564 370.5 559.969 370.665 561.292 370.996C562.656 371.327 563.813 371.781 564.764 372.36L560.982 379.304C559.949 378.519 558.667 378.126 557.138 378.126ZM145.662 459.148C149.299 459.148 152.193 460.14 154.342 462.124C156.491 464.067 157.566 466.836 157.566 470.432C157.566 471.755 157.421 473.119 157.132 474.524L153.474 493H143.802L147.336 475.206C147.501 474.379 147.584 473.532 147.584 472.664C147.584 470.969 147.129 469.688 146.22 468.82C145.352 467.952 144.05 467.518 142.314 467.518C137.643 467.518 134.729 470.308 133.572 475.888L130.162 493H120.49L124.024 475.206C124.189 474.379 124.272 473.553 124.272 472.726C124.272 471.031 123.817 469.75 122.908 468.882C122.04 467.973 120.738 467.518 119.002 467.518C114.331 467.518 111.397 470.349 110.198 476.012L106.85 493H97.178L103.812 459.644H112.988L112.244 463.116C115.137 460.471 118.63 459.148 122.722 459.148C125.037 459.148 127.083 459.623 128.86 460.574C130.679 461.483 132.043 462.827 132.952 464.604C134.564 462.827 136.445 461.483 138.594 460.574C140.743 459.623 143.099 459.148 145.662 459.148ZM188.245 459.148C191.965 459.148 194.921 460.14 197.111 462.124C199.302 464.067 200.397 466.857 200.397 470.494C200.397 471.858 200.253 473.201 199.963 474.524L196.243 493H186.571L190.167 475.144C190.333 474.441 190.415 473.677 190.415 472.85C190.415 471.114 189.94 469.791 188.989 468.882C188.039 467.973 186.613 467.518 184.711 467.518C182.231 467.518 180.165 468.241 178.511 469.688C176.899 471.093 175.804 473.222 175.225 476.074L171.877 493H162.205L168.839 459.644H178.015L177.271 463.24C180.247 460.512 183.905 459.148 188.245 459.148ZM210.219 481.468C211.872 481.468 213.215 481.985 214.249 483.018C215.323 484.051 215.861 485.395 215.861 487.048C215.861 487.916 215.695 488.743 215.365 489.528C215.075 490.272 214.517 491.285 213.691 492.566L207.491 502.548H201.415L206.189 492.566C205.445 492.07 204.845 491.429 204.391 490.644C203.977 489.817 203.771 488.908 203.771 487.916C203.771 486.015 204.391 484.465 205.631 483.266C206.871 482.067 208.4 481.468 210.219 481.468ZM246.657 459.148C249.261 459.148 251.658 459.747 253.849 460.946C256.081 462.145 257.838 463.881 259.119 466.154C260.442 468.386 261.103 471.031 261.103 474.09C261.103 477.769 260.276 481.096 258.623 484.072C257.011 487.007 254.8 489.321 251.989 491.016C249.178 492.669 246.058 493.496 242.627 493.496C240.023 493.496 237.77 493.041 235.869 492.132C233.968 491.223 232.5 489.859 231.467 488.04L230.475 493H221.299L230.475 446.996H240.147L237.047 462.496C239.734 460.264 242.937 459.148 246.657 459.148ZM241.511 485.498C243.412 485.498 245.107 485.043 246.595 484.134C248.083 483.183 249.24 481.881 250.067 480.228C250.894 478.575 251.307 476.673 251.307 474.524C251.307 472.251 250.625 470.453 249.261 469.13C247.938 467.807 246.078 467.146 243.681 467.146C241.821 467.146 240.147 467.621 238.659 468.572C237.171 469.481 236.014 470.763 235.187 472.416C234.36 474.069 233.947 475.971 233.947 478.12C233.947 480.393 234.608 482.191 235.931 483.514C237.254 484.837 239.114 485.498 241.511 485.498ZM317.872 473.842C317.872 475.371 317.686 477.066 317.314 478.926H291.77C292.101 483.473 294.974 485.746 300.388 485.746C302.083 485.746 303.695 485.477 305.224 484.94C306.795 484.403 308.159 483.638 309.316 482.646L313.346 489.032C311.486 490.52 309.358 491.636 306.96 492.38C304.563 493.124 302.042 493.496 299.396 493.496C295.966 493.496 292.948 492.897 290.344 491.698C287.782 490.458 285.798 488.701 284.392 486.428C283.028 484.155 282.346 481.53 282.346 478.554C282.346 474.875 283.173 471.569 284.826 468.634C286.521 465.658 288.856 463.343 291.832 461.69C294.808 459.995 298.198 459.148 302 459.148C305.224 459.148 308.014 459.747 310.37 460.946C312.768 462.145 314.607 463.86 315.888 466.092C317.211 468.324 317.872 470.907 317.872 473.842ZM301.566 466.402C299.293 466.402 297.371 467.022 295.8 468.262C294.23 469.461 293.114 471.135 292.452 473.284H309.006C309.006 471.135 308.324 469.461 306.96 468.262C305.638 467.022 303.84 466.402 301.566 466.402ZM123.218 535.148C126.938 535.148 129.893 536.14 132.084 538.124C134.275 540.108 135.37 542.919 135.37 546.556C135.37 547.879 135.225 549.201 134.936 550.524L131.216 569H121.544L125.14 551.144C125.305 550.441 125.388 549.677 125.388 548.85C125.388 547.114 124.913 545.791 123.962 544.882C123.011 543.973 121.585 543.518 119.684 543.518C117.204 543.518 115.137 544.241 113.484 545.688C111.872 547.093 110.777 549.222 110.198 552.074L106.85 569H97.178L106.354 522.996H116.026L112.926 538.682C115.778 536.326 119.209 535.148 123.218 535.148ZM135.705 581.524C132.481 581.524 129.815 580.904 127.707 579.664L131.551 572.658C132.667 573.443 134.011 573.836 135.581 573.836C136.904 573.836 137.958 573.443 138.743 572.658C139.487 571.873 140.025 570.633 140.355 568.938L147.051 535.644H156.723L150.089 568.69C148.395 577.246 143.6 581.524 135.705 581.524ZM153.499 530.994C151.846 530.994 150.482 530.519 149.407 529.568C148.374 528.576 147.857 527.377 147.857 525.972C147.857 524.319 148.436 522.955 149.593 521.88C150.792 520.764 152.342 520.206 154.243 520.206C155.938 520.206 157.302 520.681 158.335 521.632C159.41 522.541 159.947 523.678 159.947 525.042C159.947 526.819 159.348 528.266 158.149 529.382C156.951 530.457 155.401 530.994 153.499 530.994ZM184.354 535.148C186.958 535.148 189.356 535.747 191.546 536.946C193.778 538.145 195.535 539.881 196.816 542.154C198.139 544.386 198.8 547.031 198.8 550.09C198.8 553.769 197.974 557.096 196.32 560.072C194.708 563.007 192.497 565.321 189.686 567.016C186.876 568.669 183.755 569.496 180.324 569.496C177.72 569.496 175.468 569.041 173.566 568.132C171.665 567.223 170.198 565.859 169.164 564.04L168.172 569H158.996L168.172 522.996H177.844L174.744 538.496C177.431 536.264 180.634 535.148 184.354 535.148ZM179.208 561.498C181.11 561.498 182.804 561.043 184.292 560.134C185.78 559.183 186.938 557.881 187.764 556.228C188.591 554.575 189.004 552.673 189.004 550.524C189.004 548.251 188.322 546.453 186.958 545.13C185.636 543.807 183.776 543.146 181.378 543.146C179.518 543.146 177.844 543.621 176.356 544.572C174.868 545.481 173.711 546.763 172.884 548.416C172.058 550.069 171.644 551.971 171.644 554.12C171.644 556.393 172.306 558.191 173.628 559.514C174.951 560.837 176.811 561.498 179.208 561.498ZM244.893 522.996L235.717 569H226.541L227.223 565.652C224.412 568.215 221.002 569.496 216.993 569.496C214.389 569.496 211.992 568.897 209.801 567.698C207.61 566.499 205.854 564.784 204.531 562.552C203.25 560.279 202.609 557.613 202.609 554.554C202.609 550.875 203.415 547.569 205.027 544.634C206.68 541.658 208.912 539.343 211.723 537.69C214.534 535.995 217.634 535.148 221.023 535.148C223.462 535.148 225.59 535.561 227.409 536.388C229.269 537.215 230.736 538.434 231.811 540.046L235.221 522.996H244.893ZM219.969 561.498C221.87 561.498 223.565 561.043 225.053 560.134C226.541 559.183 227.698 557.881 228.525 556.228C229.352 554.575 229.765 552.673 229.765 550.524C229.765 548.251 229.083 546.453 227.719 545.13C226.396 543.807 224.536 543.146 222.139 543.146C220.238 543.146 218.543 543.621 217.055 544.572C215.567 545.481 214.41 546.763 213.583 548.416C212.756 550.069 212.343 551.971 212.343 554.12C212.343 556.393 213.004 558.191 214.327 559.514C215.691 560.837 217.572 561.498 219.969 561.498ZM269.783 530.126C268.295 530.126 267.117 530.539 266.249 531.366C265.422 532.151 264.843 533.412 264.513 535.148L264.265 536.388H272.759L271.271 543.828H263.025L258.003 569H248.331L253.353 543.828H248.145L249.633 536.388H254.841L255.213 534.466C255.998 530.746 257.61 527.832 260.049 525.724C262.529 523.575 265.753 522.5 269.721 522.5C271.209 522.5 272.614 522.665 273.937 522.996C275.301 523.327 276.458 523.781 277.409 524.36L273.627 531.304C272.593 530.519 271.312 530.126 269.783 530.126ZM291.098 539.612C292.545 538.041 294.281 536.905 296.306 536.202C298.373 535.499 300.791 535.148 303.56 535.148L301.824 544.076C300.667 543.993 299.923 543.952 299.592 543.952C296.657 543.952 294.301 544.675 292.524 546.122C290.788 547.569 289.61 549.821 288.99 552.88L285.766 569H276.094L282.728 535.644H291.904L291.098 539.612ZM327.415 550.152L338.885 569H327.663L319.727 556.042L313.837 560.94L312.225 569H302.553L311.729 522.996H321.401L316.255 548.726L332.251 535.644H344.837L327.415 550.152ZM368.312 535.148C372.032 535.148 374.987 536.14 377.178 538.124C379.368 540.067 380.464 542.857 380.464 546.494C380.464 547.858 380.319 549.201 380.03 550.524L376.31 569H366.638L370.234 551.144C370.399 550.441 370.482 549.677 370.482 548.85C370.482 547.114 370.006 545.791 369.056 544.882C368.105 543.973 366.679 543.518 364.778 543.518C362.298 543.518 360.231 544.241 358.578 545.688C356.966 547.093 355.87 549.222 355.292 552.074L351.944 569H342.272L348.906 535.644H358.082L357.338 539.24C360.314 536.512 363.972 535.148 368.312 535.148ZM425.988 535.644L416.936 581.028H407.264L410.178 566.272C407.533 568.421 404.33 569.496 400.568 569.496C397.964 569.496 395.567 568.897 393.376 567.698C391.186 566.499 389.429 564.784 388.106 562.552C386.825 560.279 386.184 557.613 386.184 554.554C386.184 550.875 386.99 547.569 388.602 544.634C390.256 541.658 392.488 539.343 395.298 537.69C398.109 535.995 401.209 535.148 404.598 535.148C407.202 535.148 409.455 535.623 411.356 536.574C413.299 537.483 414.766 538.868 415.758 540.728L416.75 535.644H425.988ZM395.918 554.12C395.918 556.393 396.58 558.191 397.902 559.514C399.266 560.837 401.147 561.498 403.544 561.498C405.446 561.498 407.14 561.043 408.628 560.134C410.116 559.183 411.274 557.881 412.1 556.228C412.927 554.575 413.34 552.673 413.34 550.524C413.34 548.251 412.658 546.453 411.294 545.13C409.972 543.807 408.112 543.146 405.714 543.146C403.813 543.146 402.118 543.621 400.63 544.572C399.142 545.481 397.985 546.763 397.158 548.416C396.332 550.069 395.918 551.971 395.918 554.12ZM114.786 645.496C111.355 645.496 108.359 644.876 105.796 643.636C103.233 642.396 101.249 640.66 99.844 638.428C98.48 636.155 97.798 633.53 97.798 630.554C97.798 626.875 98.666 623.569 100.402 620.634C102.138 617.699 104.556 615.385 107.656 613.69C110.756 611.995 114.249 611.148 118.134 611.148C121.689 611.148 124.747 611.892 127.31 613.38C129.914 614.827 131.857 616.893 133.138 619.58L124.954 623.672C123.507 620.655 121.027 619.146 117.514 619.146C115.613 619.146 113.897 619.621 112.368 620.572C110.88 621.481 109.702 622.763 108.834 624.416C108.007 626.069 107.594 627.95 107.594 630.058C107.594 632.331 108.276 634.15 109.64 635.514C111.004 636.837 112.905 637.498 115.344 637.498C118.899 637.498 121.627 636.01 123.528 633.034L130.658 637.498C129.046 640.019 126.835 641.983 124.024 643.388C121.255 644.793 118.175 645.496 114.786 645.496ZM150.807 645.496C147.459 645.496 144.504 644.876 141.941 643.636C139.42 642.396 137.456 640.66 136.051 638.428C134.687 636.155 134.005 633.53 134.005 630.554C134.005 626.875 134.873 623.569 136.609 620.634C138.345 617.699 140.742 615.385 143.801 613.69C146.86 611.995 150.311 611.148 154.155 611.148C157.544 611.148 160.5 611.768 163.021 613.008C165.542 614.248 167.485 616.005 168.849 618.278C170.254 620.51 170.957 623.114 170.957 626.09C170.957 629.769 170.089 633.075 168.353 636.01C166.658 638.945 164.261 641.259 161.161 642.954C158.102 644.649 154.651 645.496 150.807 645.496ZM151.427 637.498C153.287 637.498 154.961 637.043 156.449 636.134C157.937 635.183 159.094 633.881 159.921 632.228C160.748 630.575 161.161 628.673 161.161 626.524C161.161 624.251 160.5 622.453 159.177 621.13C157.854 619.807 155.994 619.146 153.597 619.146C151.696 619.146 150.001 619.621 148.513 620.572C147.025 621.481 145.868 622.763 145.041 624.416C144.214 626.069 143.801 627.971 143.801 630.12C143.801 632.393 144.462 634.191 145.785 635.514C147.149 636.837 149.03 637.498 151.427 637.498ZM214.437 611.644L207.803 645H198.627L199.247 641.714C196.478 644.235 193.068 645.496 189.017 645.496C186.413 645.496 184.016 644.897 181.825 643.698C179.635 642.499 177.878 640.784 176.555 638.552C175.274 636.279 174.633 633.613 174.633 630.554C174.633 626.875 175.439 623.569 177.051 620.634C178.705 617.658 180.937 615.343 183.747 613.69C186.558 611.995 189.658 611.148 193.047 611.148C198.173 611.148 201.789 612.822 203.897 616.17L204.765 611.644H214.437ZM191.993 637.498C193.895 637.498 195.589 637.043 197.077 636.134C198.565 635.183 199.723 633.881 200.549 632.228C201.376 630.575 201.789 628.673 201.789 626.524C201.789 624.251 201.107 622.453 199.743 621.13C198.421 619.807 196.561 619.146 194.163 619.146C192.262 619.146 190.567 619.621 189.079 620.572C187.591 621.481 186.434 622.763 185.607 624.416C184.781 626.069 184.367 627.971 184.367 630.12C184.367 632.393 185.029 634.191 186.351 635.514C187.715 636.837 189.596 637.498 191.993 637.498ZM212.418 657.524C209.194 657.524 206.528 656.904 204.42 655.664L208.264 648.658C209.38 649.443 210.723 649.836 212.294 649.836C213.617 649.836 214.671 649.443 215.456 648.658C216.2 647.873 216.737 646.633 217.068 644.938L223.764 611.644H233.436L226.802 644.69C225.107 653.246 220.313 657.524 212.418 657.524ZM230.212 606.994C228.559 606.994 227.195 606.519 226.12 605.568C225.087 604.576 224.57 603.377 224.57 601.972C224.57 600.319 225.149 598.955 226.306 597.88C227.505 596.764 229.055 596.206 230.956 596.206C232.651 596.206 234.015 596.681 235.048 597.632C236.123 598.541 236.66 599.678 236.66 601.042C236.66 602.819 236.061 604.266 234.862 605.382C233.663 606.457 232.113 606.994 230.212 606.994ZM260.571 626.152L272.041 645H260.819L252.883 632.042L246.993 636.94L245.381 645H235.709L244.885 598.996H254.557L249.411 624.726L265.407 611.644H277.993L260.571 626.152ZM301.028 611.148C303.632 611.148 306.03 611.747 308.22 612.946C310.452 614.145 312.209 615.881 313.49 618.154C314.813 620.386 315.474 623.031 315.474 626.09C315.474 629.769 314.648 633.096 312.994 636.072C311.382 639.007 309.171 641.321 306.36 643.016C303.55 644.669 300.429 645.496 296.998 645.496C294.394 645.496 292.142 645.041 290.24 644.132C288.339 643.223 286.872 641.859 285.838 640.04L284.846 645H275.67L284.846 598.996H294.518L291.418 614.496C294.105 612.264 297.308 611.148 301.028 611.148ZM295.882 637.498C297.784 637.498 299.478 637.043 300.966 636.134C302.454 635.183 303.612 633.881 304.438 632.228C305.265 630.575 305.678 628.673 305.678 626.524C305.678 624.251 304.996 622.453 303.632 621.13C302.31 619.807 300.45 619.146 298.052 619.146C296.192 619.146 294.518 619.621 293.03 620.572C291.542 621.481 290.385 622.763 289.558 624.416C288.732 626.069 288.318 627.971 288.318 630.12C288.318 632.393 288.98 634.191 290.302 635.514C291.625 636.837 293.485 637.498 295.882 637.498ZM344.517 611.148C348.237 611.148 351.192 612.14 353.383 614.124C355.573 616.067 356.669 618.857 356.669 622.494C356.669 623.858 356.524 625.201 356.235 626.524L352.515 645H342.843L346.439 627.144C346.604 626.441 346.687 625.677 346.687 624.85C346.687 623.114 346.211 621.791 345.261 620.882C344.31 619.973 342.884 619.518 340.983 619.518C338.503 619.518 336.436 620.241 334.783 621.688C333.171 623.093 332.075 625.222 331.497 628.074L328.149 645H318.477L325.111 611.644H334.287L333.543 615.24C336.519 612.512 340.177 611.148 344.517 611.148ZM387.384 611.148C391.104 611.148 394.059 612.14 396.25 614.124C398.441 616.067 399.536 618.857 399.536 622.494C399.536 623.858 399.391 625.201 399.102 626.524L395.382 645H385.71L389.306 627.144C389.471 626.441 389.554 625.677 389.554 624.85C389.554 623.114 389.079 621.791 388.128 620.882C387.177 619.973 385.751 619.518 383.85 619.518C381.37 619.518 379.303 620.241 377.65 621.688C376.038 623.093 374.943 625.222 374.364 628.074L371.016 645H361.344L367.978 611.644H377.154L376.41 615.24C379.386 612.512 383.044 611.148 387.384 611.148ZM426.841 606.126C425.353 606.126 424.175 606.539 423.307 607.366C422.481 608.151 421.902 609.412 421.571 611.148L421.323 612.388H429.817L428.329 619.828H420.083L415.061 645H405.389L410.411 619.828H405.203L406.691 612.388H411.899L412.271 610.466C413.057 606.746 414.669 603.832 417.107 601.724C419.587 599.575 422.811 598.5 426.779 598.5C428.267 598.5 429.673 598.665 430.995 598.996C432.359 599.327 433.517 599.781 434.467 600.36L430.685 607.304C429.652 606.519 428.371 606.126 426.841 606.126ZM468.808 611.644L463.29 639.42C462.05 645.703 459.653 650.291 456.098 653.184C452.585 656.077 447.873 657.524 441.962 657.524C438.738 657.524 435.762 657.152 433.034 656.408C430.347 655.664 428.033 654.569 426.09 653.122L430.678 646.116C432.001 647.232 433.695 648.1 435.762 648.72C437.87 649.381 440.081 649.712 442.396 649.712C445.661 649.712 448.141 648.989 449.836 647.542C451.531 646.137 452.688 643.987 453.308 641.094L453.556 639.668C450.869 642.148 447.48 643.388 443.388 643.388C440.619 643.388 438.118 642.83 435.886 641.714C433.654 640.557 431.877 638.924 430.554 636.816C429.273 634.708 428.632 632.228 428.632 629.376C428.632 625.987 429.438 622.907 431.05 620.138C432.662 617.369 434.873 615.178 437.684 613.566C440.536 611.954 443.719 611.148 447.232 611.148C449.836 611.148 452.109 611.644 454.052 612.636C456.036 613.587 457.524 615.075 458.516 617.1L459.57 611.644H468.808ZM445.992 635.452C448.803 635.452 451.117 634.543 452.936 632.724C454.755 630.905 455.664 628.57 455.664 625.718C455.664 623.693 455.003 622.101 453.68 620.944C452.357 619.745 450.518 619.146 448.162 619.146C445.31 619.146 442.954 620.055 441.094 621.874C439.275 623.693 438.366 626.028 438.366 628.88C438.366 630.905 439.048 632.517 440.412 633.716C441.776 634.873 443.636 635.452 445.992 635.452ZM493.806 606.126C492.318 606.126 491.14 606.539 490.272 607.366C489.445 608.151 488.867 609.412 488.536 611.148L488.288 612.388H496.782L495.294 619.828H487.048L482.026 645H472.354L477.376 619.828H472.168L473.656 612.388H478.864L479.236 610.466C480.021 606.746 481.633 603.832 484.072 601.724C486.552 599.575 489.776 598.5 493.744 598.5C495.232 598.5 496.637 598.665 497.96 598.996C499.324 599.327 500.481 599.781 501.432 600.36L497.65 607.304C496.617 606.519 495.335 606.126 493.806 606.126ZM520.015 626.152L531.485 645H520.263L512.327 632.042L506.437 636.94L504.825 645H495.153L504.329 598.996H514.001L508.855 624.726L524.851 611.644H537.437L520.015 626.152ZM137.664 687.644L131.03 721H121.854L122.474 717.714C119.705 720.235 116.295 721.496 112.244 721.496C109.64 721.496 107.243 720.897 105.052 719.698C102.861 718.499 101.105 716.784 99.782 714.552C98.5007 712.279 97.86 709.613 97.86 706.554C97.86 702.875 98.666 699.569 100.278 696.634C101.931 693.658 104.163 691.343 106.974 689.69C109.785 687.995 112.885 687.148 116.274 687.148C121.399 687.148 125.016 688.822 127.124 692.17L127.992 687.644H137.664ZM115.22 713.498C117.121 713.498 118.816 713.043 120.304 712.134C121.792 711.183 122.949 709.881 123.776 708.228C124.603 706.575 125.016 704.673 125.016 702.524C125.016 700.251 124.334 698.453 122.97 697.13C121.647 695.807 119.787 695.146 117.39 695.146C115.489 695.146 113.794 695.621 112.306 696.572C110.818 697.481 109.661 698.763 108.834 700.416C108.007 702.069 107.594 703.971 107.594 706.12C107.594 708.393 108.255 710.191 109.578 711.514C110.942 712.837 112.823 713.498 115.22 713.498ZM165.343 687.148C167.947 687.148 170.344 687.747 172.535 688.946C174.767 690.145 176.523 691.881 177.805 694.154C179.127 696.386 179.789 699.031 179.789 702.09C179.789 705.769 178.962 709.096 177.309 712.072C175.697 715.007 173.485 717.321 170.675 719.016C167.864 720.669 164.743 721.496 161.313 721.496C158.709 721.496 156.456 721.041 154.555 720.132C152.653 719.223 151.186 717.859 150.153 716.04L149.161 721H139.985L149.161 674.996H158.833L155.733 690.496C158.419 688.264 161.623 687.148 165.343 687.148ZM160.197 713.498C162.098 713.498 163.793 713.043 165.281 712.134C166.769 711.183 167.926 709.881 168.753 708.228C169.579 706.575 169.993 704.673 169.993 702.524C169.993 700.251 169.311 698.453 167.947 697.13C166.624 695.807 164.764 695.146 162.367 695.146C160.507 695.146 158.833 695.621 157.345 696.572C155.857 697.481 154.699 698.763 153.873 700.416C153.046 702.069 152.633 703.971 152.633 706.12C152.633 708.393 153.294 710.191 154.617 711.514C155.939 712.837 157.799 713.498 160.197 713.498ZM204.33 704.322L213.63 721H203.4L197.944 710.77L188.334 721H177.298L193.976 703.888L185.11 687.644H195.154L200.424 697.44L209.724 687.644H220.388L204.33 704.322ZM235.214 721.496C231.783 721.496 228.786 720.876 226.224 719.636C223.661 718.396 221.677 716.66 220.272 714.428C218.908 712.155 218.226 709.53 218.226 706.554C218.226 702.875 219.094 699.569 220.83 696.634C222.566 693.699 224.984 691.385 228.084 689.69C231.184 687.995 234.676 687.148 238.562 687.148C242.116 687.148 245.175 687.892 247.738 689.38C250.342 690.827 252.284 692.893 253.566 695.58L245.382 699.672C243.935 696.655 241.455 695.146 237.942 695.146C236.04 695.146 234.325 695.621 232.796 696.572C231.308 697.481 230.13 698.763 229.262 700.416C228.435 702.069 228.022 703.95 228.022 706.058C228.022 708.331 228.704 710.15 230.068 711.514C231.432 712.837 233.333 713.498 235.772 713.498C239.326 713.498 242.054 712.01 243.956 709.034L251.086 713.498C249.474 716.019 247.262 717.983 244.452 719.388C241.682 720.793 238.603 721.496 235.214 721.496ZM302.721 687.148C306.358 687.148 309.251 688.14 311.401 690.124C313.55 692.067 314.625 694.836 314.625 698.432C314.625 699.755 314.48 701.119 314.191 702.524L310.533 721H300.861L304.395 703.206C304.56 702.379 304.643 701.532 304.643 700.664C304.643 698.969 304.188 697.688 303.279 696.82C302.411 695.952 301.109 695.518 299.373 695.518C294.702 695.518 291.788 698.308 290.631 703.888L287.221 721H277.549L281.083 703.206C281.248 702.379 281.331 701.553 281.331 700.726C281.331 699.031 280.876 697.75 279.967 696.882C279.099 695.973 277.797 695.518 276.061 695.518C271.39 695.518 268.455 698.349 267.257 704.012L263.909 721H254.237L260.871 687.644H270.047L269.303 691.116C272.196 688.471 275.689 687.148 279.781 687.148C282.095 687.148 284.141 687.623 285.919 688.574C287.737 689.483 289.101 690.827 290.011 692.604C291.623 690.827 293.503 689.483 295.653 688.574C297.802 687.623 300.158 687.148 302.721 687.148ZM122.04 778.152L133.51 797H122.288L114.352 784.042L108.462 788.94L106.85 797H97.178L106.354 750.996H116.026L110.88 776.726L126.876 763.644H139.462L122.04 778.152ZM132.799 809.524C129.575 809.524 126.909 808.904 124.801 807.664L128.645 800.658C129.761 801.443 131.104 801.836 132.675 801.836C133.998 801.836 135.052 801.443 135.837 800.658C136.581 799.873 137.118 798.633 137.449 796.938L144.145 763.644H153.817L147.183 796.69C145.488 805.246 140.694 809.524 132.799 809.524ZM150.593 758.994C148.94 758.994 147.576 758.519 146.501 757.568C145.468 756.576 144.951 755.377 144.951 753.972C144.951 752.319 145.53 750.955 146.687 749.88C147.886 748.764 149.436 748.206 151.337 748.206C153.032 748.206 154.396 748.681 155.429 749.632C156.504 750.541 157.041 751.678 157.041 753.042C157.041 754.819 156.442 756.266 155.243 757.382C154.044 758.457 152.494 758.994 150.593 758.994ZM182.13 763.148C185.85 763.148 188.805 764.14 190.996 766.124C193.187 768.067 194.282 770.857 194.282 774.494C194.282 775.858 194.137 777.201 193.848 778.524L190.128 797H180.456L184.052 779.144C184.217 778.441 184.3 777.677 184.3 776.85C184.3 775.114 183.825 773.791 182.874 772.882C181.923 771.973 180.497 771.518 178.596 771.518C176.116 771.518 174.049 772.241 172.396 773.688C170.784 775.093 169.689 777.222 169.11 780.074L165.762 797H156.09L162.724 763.644H171.9L171.156 767.24C174.132 764.512 177.79 763.148 182.13 763.148ZM224.315 763.148C226.919 763.148 229.317 763.747 231.507 764.946C233.739 766.145 235.496 767.881 236.777 770.154C238.1 772.386 238.761 775.031 238.761 778.09C238.761 781.769 237.935 785.096 236.281 788.072C234.669 791.007 232.458 793.321 229.647 795.016C226.837 796.669 223.716 797.496 220.285 797.496C217.681 797.496 215.429 797.041 213.527 796.132C211.626 795.223 210.159 793.859 209.125 792.04L208.133 797H198.957L208.133 750.996H217.805L214.705 766.496C217.392 764.264 220.595 763.148 224.315 763.148ZM219.169 789.498C221.071 789.498 222.765 789.043 224.253 788.134C225.741 787.183 226.899 785.881 227.725 784.228C228.552 782.575 228.965 780.673 228.965 778.524C228.965 776.251 228.283 774.453 226.919 773.13C225.597 771.807 223.737 771.146 221.339 771.146C219.479 771.146 217.805 771.621 216.317 772.572C214.829 773.481 213.672 774.763 212.845 776.416C212.019 778.069 211.605 779.971 211.605 782.12C211.605 784.393 212.267 786.191 213.589 787.514C214.912 788.837 216.772 789.498 219.169 789.498ZM264.394 758.126C262.906 758.126 261.728 758.539 260.86 759.366C260.033 760.151 259.455 761.412 259.124 763.148L258.876 764.388H267.37L265.882 771.828H257.636L252.614 797H242.942L247.964 771.828H242.756L244.244 764.388H249.452L249.824 762.466C250.609 758.746 252.221 755.832 254.66 753.724C257.14 751.575 260.364 750.5 264.332 750.5C265.82 750.5 267.225 750.665 268.548 750.996C269.912 751.327 271.069 751.781 272.02 752.36L268.238 759.304C267.205 758.519 265.923 758.126 264.394 758.126ZM306.361 763.644L300.843 791.42C299.603 797.703 297.205 802.291 293.651 805.184C290.137 808.077 285.425 809.524 279.515 809.524C276.291 809.524 273.315 809.152 270.587 808.408C267.9 807.664 265.585 806.569 263.643 805.122L268.231 798.116C269.553 799.232 271.248 800.1 273.315 800.72C275.423 801.381 277.634 801.712 279.949 801.712C283.214 801.712 285.694 800.989 287.389 799.542C289.083 798.137 290.241 795.987 290.861 793.094L291.109 791.668C288.422 794.148 285.033 795.388 280.941 795.388C278.171 795.388 275.671 794.83 273.439 793.714C271.207 792.557 269.429 790.924 268.107 788.816C266.825 786.708 266.185 784.228 266.185 781.376C266.185 777.987 266.991 774.907 268.603 772.138C270.215 769.369 272.426 767.178 275.237 765.566C278.089 763.954 281.271 763.148 284.785 763.148C287.389 763.148 289.662 763.644 291.605 764.636C293.589 765.587 295.077 767.075 296.069 769.1L297.123 763.644H306.361ZM283.545 787.452C286.355 787.452 288.67 786.543 290.489 784.724C292.307 782.905 293.217 780.57 293.217 777.718C293.217 775.693 292.555 774.101 291.233 772.944C289.91 771.745 288.071 771.146 285.715 771.146C282.863 771.146 280.507 772.055 278.647 773.874C276.828 775.693 275.919 778.028 275.919 780.88C275.919 782.905 276.601 784.517 277.965 785.716C279.329 786.873 281.189 787.452 283.545 787.452ZM304.389 809.524C301.165 809.524 298.499 808.904 296.391 807.664L300.235 800.658C301.351 801.443 302.694 801.836 304.265 801.836C305.587 801.836 306.641 801.443 307.427 800.658C308.171 799.873 308.708 798.633 309.039 796.938L315.735 763.644H325.407L318.773 796.69C317.078 805.246 312.283 809.524 304.389 809.524ZM322.183 758.994C320.529 758.994 319.165 758.519 318.091 757.568C317.057 756.576 316.541 755.377 316.541 753.972C316.541 752.319 317.119 750.955 318.277 749.88C319.475 748.764 321.025 748.206 322.927 748.206C324.621 748.206 325.985 748.681 327.019 749.632C328.093 750.541 328.631 751.678 328.631 753.042C328.631 754.819 328.031 756.266 326.833 757.382C325.634 758.457 324.084 758.994 322.183 758.994ZM368.166 763.644L361.532 797H352.356L352.976 793.714C350.207 796.235 346.797 797.496 342.746 797.496C340.142 797.496 337.745 796.897 335.554 795.698C333.363 794.499 331.607 792.784 330.284 790.552C329.003 788.279 328.362 785.613 328.362 782.554C328.362 778.875 329.168 775.569 330.78 772.634C332.433 769.658 334.665 767.343 337.476 765.69C340.287 763.995 343.387 763.148 346.776 763.148C351.901 763.148 355.518 764.822 357.626 768.17L358.494 763.644H368.166ZM345.722 789.498C347.623 789.498 349.318 789.043 350.806 788.134C352.294 787.183 353.451 785.881 354.278 784.228C355.105 782.575 355.518 780.673 355.518 778.524C355.518 776.251 354.836 774.453 353.472 773.13C352.149 771.807 350.289 771.146 347.892 771.146C345.991 771.146 344.296 771.621 342.808 772.572C341.32 773.481 340.163 774.763 339.336 776.416C338.509 778.069 338.096 779.971 338.096 782.12C338.096 784.393 338.757 786.191 340.08 787.514C341.444 788.837 343.325 789.498 345.722 789.498ZM382.639 797.496C379.745 797.496 376.997 797.186 374.393 796.566C371.83 795.905 369.825 795.057 368.379 794.024L372.099 787.018C373.545 787.969 375.302 788.733 377.369 789.312C379.477 789.891 381.585 790.18 383.693 790.18C385.883 790.18 387.516 789.911 388.591 789.374C389.665 788.795 390.203 787.989 390.203 786.956C390.203 786.129 389.727 785.53 388.777 785.158C387.826 784.786 386.297 784.393 384.189 783.98C381.791 783.525 379.807 783.029 378.237 782.492C376.707 781.955 375.364 781.087 374.207 779.888C373.091 778.648 372.533 776.974 372.533 774.866C372.533 771.187 374.062 768.315 377.121 766.248C380.221 764.181 384.271 763.148 389.273 763.148C391.587 763.148 393.84 763.396 396.031 763.892C398.221 764.388 400.081 765.07 401.611 765.938L398.139 773.006C395.411 771.311 392.125 770.464 388.281 770.464C386.173 770.464 384.561 770.774 383.445 771.394C382.37 772.014 381.833 772.799 381.833 773.75C381.833 774.618 382.308 775.259 383.259 775.672C384.209 776.044 385.801 776.457 388.033 776.912C390.389 777.367 392.311 777.863 393.799 778.4C395.328 778.896 396.651 779.743 397.767 780.942C398.883 782.141 399.441 783.773 399.441 785.84C399.441 789.56 397.87 792.433 394.729 794.458C391.629 796.483 387.599 797.496 382.639 797.496ZM428.286 778.152L439.756 797H428.534L420.598 784.042L414.708 788.94L413.096 797H403.424L412.6 750.996H422.272L417.126 776.726L433.122 763.644H445.708L428.286 778.152ZM469.183 763.148C472.903 763.148 475.858 764.14 478.049 766.124C480.24 768.067 481.335 770.857 481.335 774.494C481.335 775.858 481.19 777.201 480.901 778.524L477.181 797H467.509L471.105 779.144C471.27 778.441 471.353 777.677 471.353 776.85C471.353 775.114 470.878 773.791 469.927 772.882C468.976 771.973 467.55 771.518 465.649 771.518C463.169 771.518 461.102 772.241 459.449 773.688C457.837 775.093 456.742 777.222 456.163 780.074L452.815 797H443.143L449.777 763.644H458.953L458.209 767.24C461.185 764.512 464.843 763.148 469.183 763.148ZM133.386 853.842C133.386 855.371 133.2 857.066 132.828 858.926H107.284C107.615 863.473 110.487 865.746 115.902 865.746C117.597 865.746 119.209 865.477 120.738 864.94C122.309 864.403 123.673 863.638 124.83 862.646L128.86 869.032C127 870.52 124.871 871.636 122.474 872.38C120.077 873.124 117.555 873.496 114.91 873.496C111.479 873.496 108.462 872.897 105.858 871.698C103.295 870.458 101.311 868.701 99.906 866.428C98.542 864.155 97.86 861.53 97.86 858.554C97.86 854.875 98.6867 851.569 100.34 848.634C102.035 845.658 104.37 843.343 107.346 841.69C110.322 839.995 113.711 839.148 117.514 839.148C120.738 839.148 123.528 839.747 125.884 840.946C128.281 842.145 130.121 843.86 131.402 846.092C132.725 848.324 133.386 850.907 133.386 853.842ZM117.08 846.402C114.807 846.402 112.885 847.022 111.314 848.262C109.743 849.461 108.627 851.135 107.966 853.284H124.52C124.52 851.135 123.838 849.461 122.474 848.262C121.151 847.022 119.353 846.402 117.08 846.402ZM153.532 873.496C150.184 873.496 147.228 872.876 144.666 871.636C142.144 870.396 140.181 868.66 138.776 866.428C137.412 864.155 136.73 861.53 136.73 858.554C136.73 854.875 137.598 851.569 139.334 848.634C141.07 845.699 143.467 843.385 146.526 841.69C149.584 839.995 153.036 839.148 156.88 839.148C160.269 839.148 163.224 839.768 165.746 841.008C168.267 842.248 170.21 844.005 171.574 846.278C172.979 848.51 173.682 851.114 173.682 854.09C173.682 857.769 172.814 861.075 171.078 864.01C169.383 866.945 166.986 869.259 163.886 870.954C160.827 872.649 157.376 873.496 153.532 873.496ZM154.152 865.498C156.012 865.498 157.686 865.043 159.174 864.134C160.662 863.183 161.819 861.881 162.646 860.228C163.472 858.575 163.886 856.673 163.886 854.524C163.886 852.251 163.224 850.453 161.902 849.13C160.579 847.807 158.719 847.146 156.322 847.146C154.42 847.146 152.726 847.621 151.238 848.572C149.75 849.481 148.592 850.763 147.766 852.416C146.939 854.069 146.526 855.971 146.526 858.12C146.526 860.393 147.187 862.191 148.51 863.514C149.874 864.837 151.754 865.498 154.152 865.498ZM202.716 839.148C206.436 839.148 209.391 840.14 211.582 842.124C213.773 844.108 214.868 846.919 214.868 850.556C214.868 851.879 214.723 853.201 214.434 854.524L210.714 873H201.042L204.638 855.144C204.803 854.441 204.886 853.677 204.886 852.85C204.886 851.114 204.411 849.791 203.46 848.882C202.509 847.973 201.083 847.518 199.182 847.518C196.702 847.518 194.635 848.241 192.982 849.688C191.37 851.093 190.275 853.222 189.696 856.074L186.348 873H176.676L185.852 826.996H195.524L192.424 842.682C195.276 840.326 198.707 839.148 202.716 839.148ZM215.203 885.524C211.979 885.524 209.313 884.904 207.205 883.664L211.049 876.658C212.165 877.443 213.509 877.836 215.079 877.836C216.402 877.836 217.456 877.443 218.241 876.658C218.985 875.873 219.523 874.633 219.853 872.938L226.549 839.644H236.221L229.587 872.69C227.893 881.246 223.098 885.524 215.203 885.524ZM232.997 834.994C231.344 834.994 229.98 834.519 228.905 833.568C227.872 832.576 227.355 831.377 227.355 829.972C227.355 828.319 227.934 826.955 229.091 825.88C230.29 824.764 231.84 824.206 233.741 824.206C235.436 824.206 236.8 824.681 237.833 825.632C238.908 826.541 239.445 827.678 239.445 829.042C239.445 830.819 238.846 832.266 237.647 833.382C236.449 834.457 234.899 834.994 232.997 834.994ZM261.124 834.126C259.636 834.126 258.458 834.539 257.59 835.366C256.764 836.151 256.185 837.412 255.854 839.148L255.606 840.388H264.1L262.612 847.828H254.366L249.344 873H239.672L244.694 847.828H239.486L240.974 840.388H246.182L246.554 838.466C247.34 834.746 248.952 831.832 251.39 829.724C253.87 827.575 257.094 826.5 261.062 826.5C262.55 826.5 263.956 826.665 265.278 826.996C266.642 827.327 267.8 827.781 268.75 828.36L264.968 835.304C263.935 834.519 262.654 834.126 261.124 834.126ZM287.829 839.148C290.433 839.148 292.83 839.747 295.021 840.946C297.253 842.145 299.01 843.881 300.291 846.154C301.614 848.386 302.275 851.031 302.275 854.09C302.275 857.769 301.448 861.096 299.795 864.072C298.183 867.007 295.972 869.321 293.161 871.016C290.35 872.669 287.23 873.496 283.799 873.496C281.195 873.496 278.942 873.041 277.041 872.132C275.14 871.223 273.672 869.859 272.639 868.04L271.647 873H262.471L271.647 826.996H281.319L278.219 842.496C280.906 840.264 284.109 839.148 287.829 839.148ZM282.683 865.498C284.584 865.498 286.279 865.043 287.767 864.134C289.255 863.183 290.412 861.881 291.239 860.228C292.066 858.575 292.479 856.673 292.479 854.524C292.479 852.251 291.797 850.453 290.433 849.13C289.11 847.807 287.25 847.146 284.853 847.146C282.993 847.146 281.319 847.621 279.831 848.572C278.343 849.481 277.186 850.763 276.359 852.416C275.532 854.069 275.119 855.971 275.119 858.12C275.119 860.393 275.78 862.191 277.103 863.514C278.426 864.837 280.286 865.498 282.683 865.498ZM345.764 839.644L339.13 873H329.954L330.574 869.714C327.804 872.235 324.394 873.496 320.344 873.496C317.74 873.496 315.342 872.897 313.152 871.698C310.961 870.499 309.204 868.784 307.882 866.552C306.6 864.279 305.96 861.613 305.96 858.554C305.96 854.875 306.766 851.569 308.378 848.634C310.031 845.658 312.263 843.343 315.074 841.69C317.884 839.995 320.984 839.148 324.374 839.148C329.499 839.148 333.116 840.822 335.224 844.17L336.092 839.644H345.764ZM323.32 865.498C325.221 865.498 326.916 865.043 328.404 864.134C329.892 863.183 331.049 861.881 331.876 860.228C332.702 858.575 333.116 856.673 333.116 854.524C333.116 852.251 332.434 850.453 331.07 849.13C329.747 847.807 327.887 847.146 325.49 847.146C323.588 847.146 321.894 847.621 320.406 848.572C318.918 849.481 317.76 850.763 316.934 852.416C316.107 854.069 315.694 855.971 315.694 858.12C315.694 860.393 316.355 862.191 317.678 863.514C319.042 864.837 320.922 865.498 323.32 865.498ZM343.744 885.524C340.52 885.524 337.854 884.904 335.746 883.664L339.59 876.658C340.706 877.443 342.05 877.836 343.62 877.836C344.943 877.836 345.997 877.443 346.782 876.658C347.526 875.873 348.064 874.633 348.394 872.938L355.09 839.644H364.762L358.128 872.69C356.434 881.246 351.639 885.524 343.744 885.524ZM361.538 834.994C359.885 834.994 358.521 834.519 357.446 833.568C356.413 832.576 355.896 831.377 355.896 829.972C355.896 828.319 356.475 826.955 357.632 825.88C358.831 824.764 360.381 824.206 362.282 824.206C363.977 824.206 365.341 824.681 366.374 825.632C367.449 826.541 367.986 827.678 367.986 829.042C367.986 830.819 367.387 832.266 366.188 833.382C364.99 834.457 363.44 834.994 361.538 834.994ZM415.519 839.148C419.157 839.148 422.05 840.14 424.199 842.124C426.349 844.067 427.423 846.836 427.423 850.432C427.423 851.755 427.279 853.119 426.989 854.524L423.331 873H413.659L417.193 855.206C417.359 854.379 417.441 853.532 417.441 852.664C417.441 850.969 416.987 849.688 416.077 848.82C415.209 847.952 413.907 847.518 412.171 847.518C407.501 847.518 404.587 850.308 403.429 855.888L400.019 873H390.347L393.881 855.206C394.047 854.379 394.129 853.553 394.129 852.726C394.129 851.031 393.675 849.75 392.765 848.882C391.897 847.973 390.595 847.518 388.859 847.518C384.189 847.518 381.254 850.349 380.055 856.012L376.707 873H367.035L373.669 839.644H382.845L382.101 843.116C384.995 840.471 388.487 839.148 392.579 839.148C394.894 839.148 396.94 839.623 398.717 840.574C400.536 841.483 401.9 842.827 402.809 844.604C404.421 842.827 406.302 841.483 408.451 840.574C410.601 839.623 412.957 839.148 415.519 839.148ZM474.979 839.148C477.583 839.148 479.981 839.747 482.171 840.946C484.403 842.145 486.16 843.881 487.441 846.154C488.764 848.386 489.425 851.031 489.425 854.09C489.425 857.769 488.599 861.096 486.945 864.072C485.333 867.007 483.122 869.321 480.311 871.016C477.501 872.669 474.38 873.496 470.949 873.496C468.345 873.496 466.093 873.041 464.191 872.132C462.29 871.223 460.823 869.859 459.789 868.04L458.797 873H449.621L458.797 826.996H468.469L465.369 842.496C468.056 840.264 471.259 839.148 474.979 839.148ZM469.833 865.498C471.735 865.498 473.429 865.043 474.917 864.134C476.405 863.183 477.563 861.881 478.389 860.228C479.216 858.575 479.629 856.673 479.629 854.524C479.629 852.251 478.947 850.453 477.583 849.13C476.261 847.807 474.401 847.146 472.003 847.146C470.143 847.146 468.469 847.621 466.981 848.572C465.493 849.481 464.336 850.763 463.509 852.416C462.683 854.069 462.269 855.971 462.269 858.12C462.269 860.393 462.931 862.191 464.253 863.514C465.576 864.837 467.436 865.498 469.833 865.498ZM488.088 885.524C484.864 885.524 482.198 884.904 480.09 883.664L483.934 876.658C485.05 877.443 486.393 877.836 487.964 877.836C489.287 877.836 490.341 877.443 491.126 876.658C491.87 875.873 492.407 874.633 492.738 872.938L499.434 839.644H509.106L502.472 872.69C500.777 881.246 495.983 885.524 488.088 885.524ZM505.882 834.994C504.229 834.994 502.865 834.519 501.79 833.568C500.757 832.576 500.24 831.377 500.24 829.972C500.24 828.319 500.819 826.955 501.976 825.88C503.175 824.764 504.725 824.206 506.626 824.206C508.321 824.206 509.685 824.681 510.718 825.632C511.793 826.541 512.33 827.678 512.33 829.042C512.33 830.819 511.731 832.266 510.532 833.382C509.333 834.457 507.783 834.994 505.882 834.994ZM537.419 839.148C541.139 839.148 544.095 840.14 546.285 842.124C548.476 844.067 549.571 846.857 549.571 850.494C549.571 851.858 549.427 853.201 549.137 854.524L545.417 873H535.745L539.341 855.144C539.507 854.441 539.589 853.677 539.589 852.85C539.589 851.114 539.114 849.791 538.163 848.882C537.213 847.973 535.787 847.518 533.885 847.518C531.405 847.518 529.339 848.241 527.685 849.688C526.073 851.093 524.978 853.222 524.399 856.074L521.051 873H511.379L518.013 839.644H527.189L526.445 843.24C529.421 840.512 533.079 839.148 537.419 839.148Z" fill="white"/>
</svg>
