<svg width="2063" height="2021" viewBox="0 0 2063 2021" fill="none" xmlns="http://www.w3.org/2000/svg">
<path d="M262.177 337.639V67.5781L136.736 215.1L262.177 362.622V337.639Z" fill="#007AE0"/>
<path d="M262.177 864.673V594.612L136.736 742.134L262.177 889.657V864.673Z" fill="#007AE0"/>
<path d="M263.189 558.691V401.882L190.353 487.54L263.189 573.198V558.691Z" fill="#007AE0"/>
<path d="M164.05 449.24V292.43L236.887 378.088L164.05 463.746V449.24Z" fill="#007AE0"/>
<path d="M129.654 484.412V244.842L18.376 375.709L129.654 506.575V484.412Z" fill="#007AE0"/>
<path d="M92.1793 749.478L236.225 580.077H78.8535V765.15L92.1793 749.478Z" fill="#007AE0"/>
<path d="M259.921 2021H1780.42V265.588V5.87702e-05H1460.62H259.921V2021Z" fill="#007AE0"/>
<path fill-rule="evenodd" clip-rule="evenodd" d="M499.857 1633.28L499.186 1635.98L493.568 1634.59L487.95 1633.2L487.278 1635.91L486.607 1638.62L483.798 1637.92L480.989 1637.22L480.317 1639.93L479.646 1642.64L476.837 1641.94L474.028 1641.25L473.356 1643.96L472.685 1646.66L469.876 1645.97L467.067 1645.27L466.395 1647.98L465.724 1650.69L462.915 1649.99L460.106 1649.3L459.434 1652L458.762 1654.71L455.954 1654.02L453.145 1653.32L451.801 1658.74L450.458 1664.15L447.649 1663.46L444.84 1662.76L443.497 1668.18L442.154 1673.59L439.345 1672.9L436.536 1672.2L430.491 1696.58L424.447 1720.96L427.255 1721.65L430.064 1722.35L428.721 1727.77L427.378 1733.18L430.187 1733.88L432.996 1734.58L432.324 1737.28L431.652 1739.99L434.461 1740.69L437.27 1741.39L436.598 1744.1L435.927 1746.8L438.736 1747.5L441.545 1748.2L440.873 1750.91L440.201 1753.61L443.01 1754.31L445.819 1755.01L445.147 1757.72L444.476 1760.42L447.285 1761.12L450.094 1761.82L449.422 1764.53L448.75 1767.23L451.559 1767.93L454.368 1768.63L453.696 1771.34L453.025 1774.04L458.643 1775.44L464.26 1776.83L463.589 1779.54L462.917 1782.25L468.535 1783.64L474.153 1785.03L476.839 1774.2L479.526 1763.37L468.29 1760.58L457.055 1757.79L457.726 1755.08L458.398 1752.38L455.589 1751.68L452.78 1750.98L453.452 1748.27L454.123 1745.57L451.315 1744.87L448.506 1744.17L449.177 1741.46L449.849 1738.76L447.04 1738.06L444.231 1737.36L444.903 1734.65L445.574 1731.95L451.192 1733.34L456.81 1734.73L456.138 1737.44L455.467 1740.15L458.276 1740.85L461.084 1741.54L460.413 1744.25L459.741 1746.96L462.55 1747.66L465.359 1748.35L464.687 1751.06L464.016 1753.77L469.633 1755.16L475.251 1756.55L475.923 1753.85L476.595 1751.14L479.403 1751.83L482.212 1752.53L482.884 1749.82L483.556 1747.11L486.364 1747.81L489.173 1748.51L489.845 1745.8L490.517 1743.09L479.281 1740.3L468.046 1737.52L468.717 1734.81L469.389 1732.1L466.58 1731.4L463.771 1730.71L464.443 1728L465.114 1725.29L462.305 1724.59L459.497 1723.9L460.168 1721.19L460.84 1718.48L458.031 1717.78L455.222 1717.09L459.252 1700.84L463.282 1684.58L466.091 1685.28L468.899 1685.98L469.571 1683.27L470.243 1680.56L473.052 1681.26L475.86 1681.95L476.532 1679.24L477.204 1676.54L474.395 1675.84L471.586 1675.14L473.601 1667.02L475.616 1658.89L484.042 1660.98L492.469 1663.07L491.798 1665.78L491.126 1668.49L493.935 1669.18L496.744 1669.88L496.072 1672.59L495.4 1675.3L498.209 1675.99L501.018 1676.69L501.69 1673.98L502.361 1671.27L516.406 1674.76L530.45 1678.24L529.779 1680.95L529.107 1683.66L531.916 1684.35L534.725 1685.05L535.396 1682.34L536.068 1679.63L538.877 1680.33L541.686 1681.02L542.358 1678.32L543.029 1675.61L551.456 1677.7L559.883 1679.79L557.868 1687.91L555.853 1696.04L553.044 1695.34L550.235 1694.65L549.563 1697.35L548.892 1700.06L551.701 1700.76L554.509 1701.46L553.838 1704.16L553.166 1706.87L555.975 1707.57L558.784 1708.27L554.754 1724.52L550.724 1740.77L547.915 1740.07L545.107 1739.38L544.435 1742.08L543.763 1744.79L540.954 1744.1L538.145 1743.4L537.474 1746.11L536.802 1748.82L533.993 1748.12L531.184 1747.42L530.513 1750.13L529.841 1752.84L518.606 1750.05L507.37 1747.27L506.698 1749.98L506.027 1752.69L508.836 1753.38L511.645 1754.08L510.973 1756.79L510.301 1759.5L513.11 1760.19L515.919 1760.89L511.889 1777.14L507.859 1793.39L513.477 1794.78L519.095 1796.18L519.767 1793.47L520.438 1790.76L523.247 1791.46L526.056 1792.15L526.728 1789.45L527.399 1786.74L530.208 1787.43L533.017 1788.13L533.689 1785.42L534.36 1782.71L537.169 1783.41L539.978 1784.11L540.65 1781.4L541.321 1778.69L544.13 1779.38L546.939 1780.08L547.611 1777.37L548.282 1774.66L551.091 1775.36L553.9 1776.06L554.572 1773.35L555.243 1770.64L558.052 1771.34L560.861 1772.03L561.533 1769.32L562.205 1766.62L565.013 1767.31L567.822 1768.01L569.166 1762.59L570.509 1757.17L573.318 1757.87L576.127 1758.57L582.171 1734.19L588.216 1709.81L585.407 1709.12L582.598 1708.42L583.942 1703L585.285 1697.59L582.476 1696.89L579.667 1696.19L581.01 1690.78L582.354 1685.36L579.545 1684.66L576.736 1683.97L577.408 1681.26L578.079 1678.55L575.27 1677.85L572.461 1677.16L573.133 1674.45L573.805 1671.74L570.996 1671.04L568.187 1670.35L568.858 1667.64L569.53 1664.93L566.721 1664.23L563.912 1663.54L564.584 1660.83L565.256 1658.12L562.447 1657.42L559.638 1656.73L560.309 1654.02L560.981 1651.31L555.363 1649.91L549.746 1648.52L550.417 1645.81L551.089 1643.1L525.809 1636.84L500.529 1630.57L499.857 1633.28Z" fill="#F8CC14"/>
<path fill-rule="evenodd" clip-rule="evenodd" d="M468.361 909.462L467.235 915.477L461.22 914.351L455.205 913.225L442.888 979.036L430.57 1044.85L436.585 1045.97L442.6 1047.1L441.474 1053.11L440.348 1059.13L476.084 1065.82L511.82 1072.51L516.257 1048.8L520.694 1025.09L509.17 1022.94C499.654 1021.16 497.574 1020.68 497.235 1020.18C496.728 1019.44 496.86 1018.56 497.497 1018.43C497.856 1018.36 497.861 1018.21 497.518 1017.83C497.175 1017.44 497.18 1017.3 497.54 1017.22C498.103 1017.11 498.427 1015.8 497.915 1015.7C497.688 1015.66 498.192 1012.27 499.321 1006.24C500.758 998.559 501.191 996.759 501.681 996.424C502.177 996.084 504.289 996.388 513.806 998.17L525.33 1000.33L529.767 976.62L534.204 952.914L540.219 954.04L546.234 955.166L547.36 949.151L548.486 943.136L566.531 946.513L584.576 949.891L582.324 961.921L580.073 973.951L568.548 971.794C558.256 969.867 556.949 969.688 556.322 970.117C555.812 970.466 555.733 970.659 556.033 970.826C556.569 971.124 556.211 973.023 555.588 973.183C555.203 973.282 555.188 973.364 555.511 973.596C556.028 973.966 550.707 1002.88 550.141 1002.77C549.616 1002.67 549.519 1003.73 549.99 1004.42C550.329 1004.91 552.409 1005.39 561.926 1007.18L573.45 1009.33L571.227 1021.21C569.239 1031.83 568.93 1033.14 568.302 1033.57C567.792 1033.92 567.583 1033.92 567.537 1033.58C567.461 1033.03 566.146 1032.71 566.05 1033.22C566.008 1033.44 562.682 1032.95 556.784 1031.85C550.887 1030.75 547.609 1030 547.651 1029.77C547.688 1029.58 547.399 1029.36 547.01 1029.29C546.621 1029.21 546.272 1029.31 546.236 1029.51C546.2 1029.7 545.851 1029.8 545.462 1029.73C545.073 1029.66 544.725 1029.76 544.688 1029.95C544.652 1030.15 544.781 1030.33 544.976 1030.37C545.208 1030.41 543.851 1038.34 541.025 1053.44C538.199 1068.53 536.599 1076.41 536.367 1076.37C536.172 1076.33 535.983 1076.46 535.947 1076.66C535.903 1076.89 542.131 1078.18 553.925 1080.39L571.97 1083.76L573.096 1077.75L574.222 1071.73L580.237 1072.86L586.252 1073.99L598.57 1008.18L610.887 942.364L604.872 941.238L598.858 940.113L599.983 934.098L601.109 928.083L535.298 915.765L469.487 903.447L468.361 909.462Z" fill="#F8CC14"/>
<path fill-rule="evenodd" clip-rule="evenodd" d="M427.225 1306.28L428.708 1312.05L422.94 1313.53L417.172 1315.01L433.391 1378.12L449.611 1441.23L455.379 1439.75L461.147 1438.27L462.629 1444.04L464.111 1449.8L498.38 1441L532.649 1432.19L526.806 1409.46L520.964 1386.72L509.913 1389.56C500.787 1391.91 498.755 1392.34 498.252 1392.04C497.5 1391.6 497.255 1390.77 497.763 1390.39C498.05 1390.18 497.994 1390.05 497.534 1389.85C497.073 1389.65 497.017 1389.52 497.304 1389.31C497.754 1388.98 497.501 1387.69 497.01 1387.82C496.793 1387.87 495.841 1384.67 494.354 1378.89C492.462 1371.53 492.103 1369.76 492.397 1369.26C492.694 1368.76 494.683 1368.16 503.809 1365.81L514.86 1362.97L509.017 1340.24L503.175 1317.51L508.943 1316.02L514.711 1314.54L513.229 1308.77L511.746 1303.01L529.05 1298.56L546.354 1294.11L549.319 1305.65L552.284 1317.18L541.233 1320.02C531.363 1322.56 530.136 1322.94 529.76 1323.58C529.454 1324.09 529.464 1324.3 529.797 1324.32C530.393 1324.36 530.858 1326.18 530.375 1326.58C530.076 1326.83 530.096 1326.91 530.476 1326.98C531.085 1327.09 538.29 1354.78 537.748 1354.92C537.244 1355.05 537.593 1356.02 538.292 1356.43C538.795 1356.73 540.827 1356.3 549.953 1353.95L561.004 1351.11L563.931 1362.5C566.549 1372.69 566.814 1373.97 566.438 1374.61C566.132 1375.12 565.949 1375.21 565.768 1374.93C565.473 1374.48 564.18 1374.73 564.306 1375.22C564.362 1375.44 561.227 1376.38 555.572 1377.83C549.917 1379.28 546.719 1379.97 546.663 1379.76C546.615 1379.57 546.27 1379.5 545.897 1379.59C545.524 1379.69 545.258 1379.92 545.306 1380.11C545.354 1380.29 545.088 1380.52 544.714 1380.62C544.341 1380.72 544.075 1380.95 544.123 1381.13C544.171 1381.32 544.363 1381.43 544.55 1381.38C544.772 1381.33 546.836 1388.88 550.557 1403.35C627.165 1390.06 545.094 1422.13 544.871 1422.19C526.034 1406.45 532.601 1432 532.649 1432.19C532.706 1432.41 561.715 1424.72 573.025 1421.81L590.329 1417.36L588.846 1411.6L587.364 1405.83L593.132 1404.35L598.9 1402.86L582.681 1339.75L566.461 1276.65L560.693 1278.13L554.925 1279.61L553.443 1273.84L551.96 1268.08L488.852 1284.29L425.743 1300.51L427.225 1306.28Z" fill="#F8CC14"/>
<rect x="460.683" y="1313.49" width="98.3314" height="132.88" transform="rotate(-14.4134 460.683 1313.49)" fill="#F8CC14"/>
<path fill-rule="evenodd" clip-rule="evenodd" d="M518.559 1315.07L478.208 1325.44L479.936 1332.17L471.866 1334.24L473.249 1339.62L465.182 1341.7L467.256 1349.77L461.874 1351.15L472.591 1392.85L486.041 1389.39L475.325 1347.69L475.326 1347.69L475.326 1347.69L483.393 1345.62L481.665 1338.9L522.016 1328.52L518.559 1315.07ZM528.362 1319.72L520.291 1321.8L523.748 1335.25L531.816 1333.17L542.532 1374.87L555.982 1371.41L545.266 1329.72L539.887 1331.1L537.813 1323.03L529.745 1325.11L528.362 1319.72ZM499.299 1407.49L539.65 1397.12L537.922 1390.4L545.992 1388.32L544.609 1382.94L552.676 1380.87L550.602 1372.8L542.532 1374.87L542.532 1374.87L534.465 1376.95L536.193 1383.67L495.842 1394.04L499.299 1407.49ZM497.567 1400.77L489.497 1402.84L488.113 1397.46L480.045 1399.53L477.971 1391.46L486.041 1389.39L486.042 1389.39L494.11 1387.32L497.567 1400.77Z" fill="#007AE0"/>
<rect x="534.996" y="1289.88" width="21.1181" height="19.0063" transform="rotate(-14.4134 534.996 1289.88)" fill="#007AE0"/>
<rect x="538.253" y="1302.42" width="6.94374" height="20.8312" transform="rotate(-104.413 538.253 1302.42)" fill="#007AE0"/>
<path d="M667.384 342.472C660.803 342.472 655.601 340.503 651.776 336.566C647.951 332.573 646.039 327.089 646.039 320.115C646.039 313.028 647.333 306.532 649.92 300.626C652.563 294.721 656.219 290.052 660.887 286.622C665.556 283.134 670.871 281.391 676.833 281.391C683.413 281.391 688.616 283.388 692.44 287.381C696.265 291.318 698.177 296.774 698.177 303.748C698.177 310.835 696.855 317.331 694.212 323.236C691.625 329.142 687.997 333.838 683.329 337.326C678.661 340.756 673.345 342.472 667.384 342.472ZM668.649 330.914C671.911 330.914 674.723 329.508 677.086 326.695C679.504 323.883 681.332 320.396 682.569 316.234C683.807 312.016 684.426 307.966 684.426 304.085C684.426 300.317 683.638 297.533 682.063 295.733C680.545 293.877 678.379 292.949 675.567 292.949C672.305 292.949 669.465 294.355 667.046 297.167C664.684 299.98 662.884 303.495 661.647 307.713C660.409 311.875 659.791 315.897 659.791 319.777C659.791 323.546 660.55 326.358 662.069 328.214C663.643 330.014 665.837 330.914 668.649 330.914ZM732.166 282.403L720.355 341.459H706.688L716.305 293.371H704.494L706.688 282.403H732.166ZM765.204 282.403L753.393 341.459H739.725L749.343 293.371H737.532L739.725 282.403H765.204ZM770.57 312.438H794.445L792.336 322.983H768.461L770.57 312.438ZM845.589 291.262L829.053 306.701C833.159 307.657 836.337 309.429 838.586 312.016C840.836 314.603 841.961 317.809 841.961 321.633C841.961 325.627 840.78 329.198 838.418 332.348C836.112 335.498 832.878 337.972 828.716 339.772C824.554 341.572 819.829 342.472 814.542 342.472C810.211 342.472 806.162 341.881 802.393 340.7C798.625 339.519 795.475 337.832 792.945 335.638L799.525 325.599C801.494 327.286 803.856 328.608 806.612 329.564C809.424 330.52 812.377 330.998 815.47 330.998C819.52 330.998 822.641 330.267 824.835 328.805C827.028 327.286 828.125 325.177 828.125 322.477C828.125 320.34 827.31 318.765 825.678 317.753C824.104 316.684 821.685 316.15 818.423 316.15H812.18L813.952 307.123L828.631 293.371H803.659L805.937 282.403H847.276L845.589 291.262ZM895.104 291.262L878.569 306.701C882.674 307.657 885.852 309.429 888.102 312.016C890.352 314.603 891.477 317.809 891.477 321.633C891.477 325.627 890.296 329.198 887.933 332.348C885.627 335.498 882.393 337.972 878.231 339.772C874.069 341.572 869.345 342.472 864.058 342.472C859.727 342.472 855.677 341.881 851.909 340.7C848.141 339.519 844.991 337.832 842.46 335.638L849.041 325.599C851.009 327.286 853.371 328.608 856.127 329.564C858.94 330.52 861.892 330.998 864.986 330.998C869.035 330.998 872.157 330.267 874.35 328.805C876.544 327.286 877.641 325.177 877.641 322.477C877.641 320.34 876.825 318.765 875.194 317.753C873.619 316.684 871.201 316.15 867.939 316.15H861.695L863.467 307.123L878.147 293.371H853.175L855.452 282.403H896.792L895.104 291.262ZM950.6 329.058H940.898L938.451 341.459H925.122L927.652 329.058H895.847L897.618 319.862L932.377 282.403H947.31L914.913 317.921H930.437L932.63 306.869H945.369L943.176 317.921H952.878L950.6 329.058ZM1008.77 329.058H999.064L996.618 341.459H983.288L985.819 329.058H954.013L955.785 319.862L990.543 282.403H1005.48L973.08 317.921H988.603L990.796 306.869H1003.54L1001.34 317.921H1011.04L1008.77 329.058ZM1018.07 312.438H1041.94L1039.83 322.983H1015.96L1018.07 312.438ZM1093.08 291.262L1076.55 306.701C1080.65 307.657 1083.83 309.429 1086.08 312.016C1088.33 314.603 1089.46 317.809 1089.46 321.633C1089.46 325.627 1088.28 329.198 1085.91 332.348C1083.61 335.498 1080.37 337.972 1076.21 339.772C1072.05 341.572 1067.32 342.472 1062.04 342.472C1057.71 342.472 1053.66 341.881 1049.89 340.7C1046.12 339.519 1042.97 337.832 1040.44 335.638L1047.02 325.599C1048.99 327.286 1051.35 328.608 1054.11 329.564C1056.92 330.52 1059.87 330.998 1062.97 330.998C1067.02 330.998 1070.14 330.267 1072.33 328.805C1074.52 327.286 1075.62 325.177 1075.62 322.477C1075.62 320.34 1074.8 318.765 1073.17 317.753C1071.6 316.684 1069.18 316.15 1065.92 316.15H1059.68L1061.45 307.123L1076.13 293.371H1051.15L1053.43 282.403H1094.77L1093.08 291.262ZM1148.58 329.058H1138.88L1136.43 341.459H1123.1L1125.63 329.058H1093.83L1095.6 319.862L1130.36 282.403H1145.29L1112.89 317.921H1128.42L1130.61 306.869H1143.35L1141.16 317.921H1150.86L1148.58 329.058ZM1179.93 281.391C1184.65 281.391 1188.78 282.319 1192.33 284.175C1195.93 286.031 1198.71 288.787 1200.68 292.443C1202.7 296.042 1203.72 300.43 1203.72 305.604C1203.72 311.566 1202.45 317.387 1199.92 323.068C1197.39 328.692 1193.45 333.332 1188.11 336.988C1182.77 340.644 1176.16 342.472 1168.28 342.472C1165.02 342.472 1161.9 342.134 1158.92 341.459C1155.99 340.728 1153.6 339.744 1151.75 338.507L1157.99 328.467C1160.8 330.379 1164.49 331.336 1169.04 331.336C1174.55 331.336 1178.94 329.789 1182.2 326.695C1185.52 323.602 1187.72 319.609 1188.78 314.715C1185.41 317.865 1180.99 319.44 1175.54 319.44C1172 319.44 1168.76 318.765 1165.84 317.415C1162.91 316.065 1160.58 314.125 1158.83 311.594C1157.09 309.007 1156.22 305.941 1156.22 302.398C1156.22 298.18 1157.23 294.496 1159.26 291.346C1161.34 288.14 1164.18 285.694 1167.78 284.006C1171.38 282.263 1175.43 281.391 1179.93 281.391ZM1179.08 309.232C1182.29 309.232 1184.88 308.36 1186.84 306.616C1188.81 304.873 1189.8 302.651 1189.8 299.951C1189.8 297.589 1188.92 295.621 1187.18 294.046C1185.44 292.415 1183.08 291.599 1180.09 291.599C1177.06 291.599 1174.58 292.471 1172.67 294.215C1170.76 295.958 1169.8 298.292 1169.8 301.217C1169.8 303.692 1170.65 305.66 1172.33 307.123C1174.02 308.529 1176.27 309.232 1179.08 309.232ZM1253.74 291.262L1237.21 306.701C1241.31 307.657 1244.49 309.429 1246.74 312.016C1248.99 314.603 1250.11 317.809 1250.11 321.633C1250.11 325.627 1248.93 329.198 1246.57 332.348C1244.26 335.498 1241.03 337.972 1236.87 339.772C1232.71 341.572 1227.98 342.472 1222.7 342.472C1218.36 342.472 1214.31 341.881 1210.55 340.7C1206.78 339.519 1203.63 337.832 1201.1 335.638L1207.68 325.599C1209.65 327.286 1212.01 328.608 1214.76 329.564C1217.58 330.52 1220.53 330.998 1223.62 330.998C1227.67 330.998 1230.79 330.267 1232.99 328.805C1235.18 327.286 1236.28 325.177 1236.28 322.477C1236.28 320.34 1235.46 318.765 1233.83 317.753C1232.26 316.684 1229.84 316.15 1226.58 316.15H1220.33L1222.1 307.123L1236.78 293.371H1211.81L1214.09 282.403H1255.43L1253.74 291.262Z" fill="white"/>
<path d="M693.816 168.659C701.184 168.659 706.865 170.29 710.858 173.552C714.908 176.758 716.932 181.257 716.932 187.05C716.932 192 715.751 196.331 713.389 200.043C711.083 203.699 707.765 206.511 703.434 208.479C699.159 210.448 694.097 211.432 688.248 211.432H675.087L671.881 227.715H658.129L669.94 168.659H693.816ZM688.838 200.296C693.394 200.296 696.909 199.255 699.384 197.174C701.859 195.093 703.096 192.112 703.096 188.232C703.096 185.419 702.14 183.31 700.228 181.904C698.372 180.498 695.672 179.795 692.129 179.795H681.414L677.28 200.296H688.838ZM754.511 181.651C759.573 181.651 763.594 183.001 766.575 185.701C769.556 188.4 771.046 192.225 771.046 197.174C771.046 198.974 770.85 200.774 770.456 202.574L765.394 227.715H752.233L757.126 203.417C757.351 202.461 757.464 201.421 757.464 200.296C757.464 197.934 756.817 196.134 755.523 194.896C754.229 193.659 752.289 193.04 749.702 193.04C746.327 193.04 743.515 194.025 741.265 195.993C739.072 197.906 737.581 200.802 736.794 204.683L732.238 227.715H719.077L731.563 165.115H744.724L740.506 186.46C744.387 183.254 749.055 181.651 754.511 181.651ZM801.609 228.39C797.054 228.39 793.032 227.546 789.545 225.859C786.114 224.171 783.443 221.809 781.53 218.772C779.674 215.679 778.746 212.107 778.746 208.058C778.746 203.052 779.927 198.552 782.29 194.559C784.652 190.566 787.914 187.416 792.076 185.11C796.238 182.804 800.934 181.651 806.165 181.651C810.777 181.651 814.799 182.495 818.229 184.182C821.66 185.869 824.304 188.26 826.16 191.353C828.072 194.39 829.028 197.934 829.028 201.983C829.028 206.989 827.847 211.488 825.485 215.482C823.179 219.475 819.917 222.625 815.698 224.931C811.536 227.237 806.84 228.39 801.609 228.39ZM802.453 217.507C804.984 217.507 807.262 216.888 809.287 215.651C811.311 214.357 812.886 212.585 814.011 210.335C815.136 208.086 815.698 205.498 815.698 202.574C815.698 199.48 814.799 197.034 812.999 195.234C811.199 193.434 808.668 192.534 805.406 192.534C802.819 192.534 800.513 193.181 798.488 194.475C796.463 195.712 794.888 197.456 793.763 199.705C792.638 201.955 792.076 204.542 792.076 207.467C792.076 210.56 792.976 213.007 794.776 214.807C796.632 216.607 799.191 217.507 802.453 217.507ZM868.537 181.651C873.598 181.651 877.62 183.001 880.601 185.701C883.582 188.344 885.072 192.141 885.072 197.09C885.072 198.946 884.875 200.774 884.482 202.574L879.42 227.715H866.259L871.152 203.417C871.377 202.461 871.489 201.421 871.489 200.296C871.489 197.934 870.843 196.134 869.549 194.896C868.255 193.659 866.315 193.04 863.728 193.04C860.353 193.04 857.541 194.025 855.291 195.993C853.098 197.906 851.607 200.802 850.82 204.683L846.264 227.715H833.103L842.13 182.326H854.616L853.604 187.219C857.653 183.507 862.631 181.651 868.537 181.651ZM941.198 201.646C941.198 203.727 940.945 206.033 940.439 208.564H905.68C906.13 214.751 910.039 217.844 917.407 217.844C919.713 217.844 921.906 217.478 923.987 216.747C926.125 216.016 927.981 214.976 929.556 213.626L935.039 222.315C932.508 224.34 929.612 225.859 926.35 226.871C923.087 227.884 919.657 228.39 916.057 228.39C911.389 228.39 907.283 227.574 903.74 225.943C900.252 224.256 897.553 221.865 895.64 218.772C893.784 215.679 892.856 212.107 892.856 208.058C892.856 203.052 893.981 198.552 896.231 194.559C898.537 190.509 901.715 187.36 905.764 185.11C909.814 182.804 914.426 181.651 919.6 181.651C923.987 181.651 927.784 182.467 930.99 184.098C934.252 185.729 936.755 188.063 938.498 191.1C940.298 194.137 941.198 197.652 941.198 201.646ZM919.01 191.522C915.916 191.522 913.301 192.366 911.164 194.053C909.026 195.684 907.508 197.962 906.608 200.886H929.134C929.134 197.962 928.206 195.684 926.35 194.053C924.55 192.366 922.103 191.522 919.01 191.522ZM1035.61 168.659L1023.8 227.715H1012.58L990.563 190.763L983.139 227.715H969.641L981.452 168.659H992.757L1014.78 205.695L1022.12 168.659H1035.61ZM1091.69 182.326L1082.66 227.715H1070.17L1071.1 222.822C1069.13 224.678 1066.88 226.084 1064.35 227.04C1061.82 227.94 1059.15 228.39 1056.34 228.39C1051.39 228.39 1047.42 227.04 1044.44 224.34C1041.52 221.64 1040.05 217.844 1040.05 212.951C1040.05 211.095 1040.25 209.267 1040.64 207.467L1045.62 182.326H1058.78L1053.97 206.623C1053.75 207.692 1053.64 208.789 1053.64 209.914C1053.64 214.638 1056.17 217 1061.23 217C1064.55 217 1067.28 216.044 1069.41 214.132C1071.61 212.163 1073.1 209.239 1073.88 205.358L1078.52 182.326H1091.69ZM1160.83 181.651C1165.78 181.651 1169.71 183.001 1172.64 185.701C1175.56 188.344 1177.02 192.112 1177.02 197.006C1177.02 198.805 1176.83 200.662 1176.43 202.574L1171.46 227.715H1158.29L1163.1 203.502C1163.33 202.377 1163.44 201.224 1163.44 200.043C1163.44 197.737 1162.82 195.993 1161.58 194.812C1160.4 193.631 1158.63 193.04 1156.27 193.04C1149.91 193.04 1145.95 196.837 1144.37 204.43L1139.73 227.715H1126.57L1131.38 203.502C1131.61 202.377 1131.72 201.252 1131.72 200.127C1131.72 197.821 1131.1 196.078 1129.86 194.896C1128.68 193.659 1126.91 193.04 1124.55 193.04C1118.19 193.04 1114.2 196.893 1112.57 204.599L1108.01 227.715H1094.85L1103.88 182.326H1116.36L1115.35 187.05C1119.29 183.451 1124.04 181.651 1129.61 181.651C1132.76 181.651 1135.54 182.298 1137.96 183.591C1140.44 184.829 1142.29 186.657 1143.53 189.075C1145.72 186.657 1148.28 184.829 1151.21 183.591C1154.13 182.298 1157.34 181.651 1160.83 181.651ZM1217.84 181.651C1221.39 181.651 1224.65 182.467 1227.63 184.098C1230.67 185.729 1233.06 188.091 1234.8 191.184C1236.6 194.222 1237.5 197.821 1237.5 201.983C1237.5 206.989 1236.37 211.517 1234.13 215.566C1231.93 219.559 1228.92 222.709 1225.1 225.015C1221.27 227.265 1217.03 228.39 1212.36 228.39C1208.82 228.39 1205.75 227.771 1203.16 226.534C1200.58 225.296 1198.58 223.44 1197.17 220.966L1195.82 227.715H1183.34L1195.82 165.115H1208.98L1204.77 186.207C1208.42 183.17 1212.78 181.651 1217.84 181.651ZM1210.84 217.507C1213.43 217.507 1215.73 216.888 1217.76 215.651C1219.78 214.357 1221.36 212.585 1222.48 210.335C1223.61 208.086 1224.17 205.498 1224.17 202.574C1224.17 199.48 1223.24 197.034 1221.39 195.234C1219.59 193.434 1217.06 192.534 1213.79 192.534C1211.26 192.534 1208.98 193.181 1206.96 194.475C1204.93 195.712 1203.36 197.456 1202.23 199.705C1201.11 201.955 1200.55 204.542 1200.55 207.467C1200.55 210.56 1201.45 213.007 1203.25 214.807C1205.05 216.607 1207.58 217.507 1210.84 217.507ZM1290.86 201.646C1290.86 203.727 1290.6 206.033 1290.1 208.564H1255.34C1255.79 214.751 1259.7 217.844 1267.06 217.844C1269.37 217.844 1271.56 217.478 1273.64 216.747C1275.78 216.016 1277.64 214.976 1279.21 213.626L1284.7 222.315C1282.17 224.34 1279.27 225.859 1276.01 226.871C1272.74 227.884 1269.31 228.39 1265.71 228.39C1261.05 228.39 1256.94 227.574 1253.4 225.943C1249.91 224.256 1247.21 221.865 1245.3 218.772C1243.44 215.679 1242.51 212.107 1242.51 208.058C1242.51 203.052 1243.64 198.552 1245.89 194.559C1248.19 190.509 1251.37 187.36 1255.42 185.11C1259.47 182.804 1264.08 181.651 1269.26 181.651C1273.64 181.651 1277.44 182.467 1280.65 184.098C1283.91 185.729 1286.41 188.063 1288.16 191.1C1289.96 194.137 1290.86 197.652 1290.86 201.646ZM1268.67 191.522C1265.57 191.522 1262.96 192.366 1260.82 194.053C1258.68 195.684 1257.17 197.962 1256.27 200.886H1278.79C1278.79 197.962 1277.86 195.684 1276.01 194.053C1274.21 192.366 1271.76 191.522 1268.67 191.522ZM1314.98 187.725C1316.95 185.588 1319.31 184.041 1322.06 183.085C1324.88 182.129 1328.17 181.651 1331.94 181.651L1329.57 193.8C1328 193.687 1326.99 193.631 1326.54 193.631C1322.54 193.631 1319.34 194.615 1316.92 196.584C1314.56 198.552 1312.95 201.618 1312.11 205.78L1307.72 227.715H1294.56L1303.59 182.326H1316.07L1314.98 187.725ZM1343.45 198.102C1341.2 198.102 1339.35 197.399 1337.89 195.993C1336.42 194.531 1335.69 192.703 1335.69 190.509C1335.69 187.922 1336.54 185.813 1338.22 184.182C1339.91 182.551 1341.99 181.735 1344.47 181.735C1346.72 181.735 1348.54 182.438 1349.95 183.845C1351.41 185.251 1352.14 187.079 1352.14 189.328C1352.14 191.859 1351.27 193.968 1349.53 195.656C1347.84 197.287 1345.82 198.102 1343.45 198.102ZM1337.38 228.39C1335.13 228.39 1333.27 227.687 1331.81 226.281C1330.35 224.818 1329.62 222.99 1329.62 220.797C1329.62 218.21 1330.46 216.1 1332.15 214.469C1333.84 212.838 1335.92 212.023 1338.39 212.023C1340.64 212.023 1342.47 212.726 1343.88 214.132C1345.34 215.538 1346.07 217.366 1346.07 219.616C1346.07 222.147 1345.2 224.256 1343.45 225.943C1341.77 227.574 1339.74 228.39 1337.38 228.39Z" fill="white"/>
<path d="M712.916 672.265L703.888 717.654H691.402L692.246 713.183C688.478 716.614 683.837 718.329 678.326 718.329C674.782 718.329 671.52 717.514 668.539 715.883C665.558 714.252 663.168 711.917 661.368 708.88C659.624 705.787 658.753 702.159 658.753 697.997C658.753 692.991 659.849 688.492 662.043 684.498C664.293 680.449 667.33 677.299 671.154 675.05C674.979 672.744 679.197 671.59 683.809 671.59C690.784 671.59 695.705 673.868 698.573 678.424L699.755 672.265H712.916ZM682.375 707.446C684.962 707.446 687.268 706.827 689.293 705.59C691.318 704.296 692.893 702.525 694.018 700.275C695.142 698.025 695.705 695.438 695.705 692.513C695.705 689.42 694.777 686.973 692.921 685.173C691.121 683.374 688.59 682.474 685.328 682.474C682.741 682.474 680.435 683.121 678.41 684.414C676.385 685.651 674.81 687.395 673.685 689.645C672.561 691.895 671.998 694.482 671.998 697.406C671.998 700.5 672.898 702.947 674.698 704.746C676.554 706.546 679.113 707.446 682.375 707.446ZM736.49 677.665C738.458 675.528 740.821 673.981 743.577 673.025C746.389 672.069 749.679 671.59 753.447 671.59L751.085 683.739C749.51 683.627 748.498 683.57 748.048 683.57C744.055 683.57 740.849 684.555 738.43 686.523C736.068 688.492 734.465 691.557 733.621 695.719L729.234 717.654H716.073L725.101 672.265H737.587L736.49 677.665ZM768.778 718.329C764.841 718.329 761.1 717.907 757.557 717.064C754.07 716.164 751.342 715.011 749.374 713.605L754.435 704.071C756.404 705.365 758.794 706.406 761.607 707.193C764.475 707.98 767.343 708.374 770.212 708.374C773.193 708.374 775.414 708.008 776.877 707.277C778.339 706.49 779.07 705.393 779.07 703.987C779.07 702.862 778.424 702.047 777.13 701.54C775.836 701.034 773.755 700.5 770.887 699.937C767.625 699.319 764.925 698.644 762.788 697.913C760.707 697.181 758.879 696 757.304 694.369C755.785 692.682 755.026 690.404 755.026 687.536C755.026 682.53 757.107 678.621 761.269 675.809C765.487 672.997 770.999 671.59 777.805 671.59C780.955 671.59 784.02 671.928 787.001 672.603C789.982 673.278 792.513 674.206 794.594 675.387L789.869 685.005C786.157 682.699 781.686 681.546 776.455 681.546C773.587 681.546 771.393 681.968 769.874 682.811C768.412 683.655 767.681 684.723 767.681 686.017C767.681 687.198 768.328 688.07 769.621 688.632C770.915 689.139 773.08 689.701 776.118 690.32C779.323 690.938 781.939 691.613 783.964 692.345C786.045 693.019 787.844 694.172 789.363 695.804C790.882 697.435 791.641 699.656 791.641 702.468C791.641 707.53 789.504 711.439 785.229 714.195C781.011 716.951 775.527 718.329 768.778 718.329ZM832.495 671.59C837.557 671.59 841.578 672.94 844.559 675.64C847.54 678.34 849.031 682.164 849.031 687.114C849.031 688.914 848.834 690.713 848.44 692.513L843.378 717.654H830.217L835.11 693.357C835.335 692.401 835.448 691.36 835.448 690.235C835.448 687.873 834.801 686.073 833.507 684.836C832.214 683.599 830.273 682.98 827.686 682.98C824.312 682.98 821.499 683.964 819.25 685.933C817.056 687.845 815.566 690.742 814.778 694.622L810.222 717.654H797.061L809.548 655.055H822.709L818.49 676.399C822.371 673.193 827.039 671.59 832.495 671.59ZM910.978 672.265L901.951 717.654H889.464L890.308 713.183C886.54 716.614 881.9 718.329 876.388 718.329C872.844 718.329 869.582 717.514 866.601 715.883C863.62 714.252 861.23 711.917 859.43 708.88C857.687 705.787 856.815 702.159 856.815 697.997C856.815 692.991 857.912 688.492 860.105 684.498C862.355 680.449 865.392 677.299 869.217 675.05C873.041 672.744 877.26 671.59 881.872 671.59C888.846 671.59 893.767 673.868 896.636 678.424L897.817 672.265H910.978ZM880.437 707.446C883.025 707.446 885.331 706.827 887.355 705.59C889.38 704.296 890.955 702.525 892.08 700.275C893.205 698.025 893.767 695.438 893.767 692.513C893.767 689.42 892.839 686.973 890.983 685.173C889.183 683.374 886.652 682.474 883.39 682.474C880.803 682.474 878.497 683.121 876.472 684.414C874.447 685.651 872.873 687.395 871.748 689.645C870.623 691.895 870.06 694.482 870.06 697.406C870.06 700.5 870.96 702.947 872.76 704.746C874.616 706.546 877.175 707.446 880.437 707.446ZM980.11 671.59C985.059 671.59 988.996 672.94 991.921 675.64C994.846 678.284 996.308 682.052 996.308 686.945C996.308 688.745 996.111 690.601 995.717 692.513L990.74 717.654H977.579L982.388 693.441C982.613 692.316 982.725 691.163 982.725 689.982C982.725 687.676 982.106 685.933 980.869 684.752C979.688 683.57 977.916 682.98 975.554 682.98C969.198 682.98 965.233 686.776 963.658 694.369L959.018 717.654H945.857L950.666 693.441C950.891 692.316 951.003 691.192 951.003 690.067C951.003 687.761 950.385 686.017 949.147 684.836C947.966 683.599 946.195 682.98 943.832 682.98C937.477 682.98 933.483 686.833 931.852 694.538L927.297 717.654H914.136L923.163 672.265H935.649L934.636 676.99C938.574 673.39 943.326 671.59 948.894 671.59C952.044 671.59 954.828 672.237 957.247 673.531C959.721 674.768 961.577 676.596 962.815 679.015C965.008 676.596 967.567 674.768 970.492 673.531C973.417 672.237 976.623 671.59 980.11 671.59ZM1019.16 718.329C1015.22 718.329 1011.48 717.907 1007.94 717.064C1004.45 716.164 1001.72 715.011 999.752 713.605L1004.81 704.071C1006.78 705.365 1009.17 706.406 1011.99 707.193C1014.85 707.98 1017.72 708.374 1020.59 708.374C1023.57 708.374 1025.79 708.008 1027.26 707.277C1028.72 706.49 1029.45 705.393 1029.45 703.987C1029.45 702.862 1028.8 702.047 1027.51 701.54C1026.22 701.034 1024.13 700.5 1021.27 699.937C1018 699.319 1015.3 698.644 1013.17 697.913C1011.09 697.181 1009.26 696 1007.68 694.369C1006.16 692.682 1005.41 690.404 1005.41 687.536C1005.41 682.53 1007.49 678.621 1011.65 675.809C1015.87 672.997 1021.38 671.59 1028.18 671.59C1031.33 671.59 1034.4 671.928 1037.38 672.603C1040.36 673.278 1042.89 674.206 1044.97 675.387L1040.25 685.005C1036.54 682.699 1032.06 681.546 1026.83 681.546C1023.97 681.546 1021.77 681.968 1020.25 682.811C1018.79 683.655 1018.06 684.723 1018.06 686.017C1018.06 687.198 1018.71 688.07 1020 688.632C1021.29 689.139 1023.46 689.701 1026.5 690.32C1029.7 690.938 1032.32 691.613 1034.34 692.345C1036.42 693.019 1038.22 694.172 1039.74 695.804C1041.26 697.435 1042.02 699.656 1042.02 702.468C1042.02 707.53 1039.88 711.439 1035.61 714.195C1031.39 716.951 1025.91 718.329 1019.16 718.329ZM1082.87 671.59C1087.94 671.59 1091.96 672.94 1094.94 675.64C1097.92 678.34 1099.41 682.164 1099.41 687.114C1099.41 688.914 1099.21 690.713 1098.82 692.513L1093.76 717.654H1080.6L1085.49 693.357C1085.71 692.401 1085.83 691.36 1085.83 690.235C1085.83 687.873 1085.18 686.073 1083.89 684.836C1082.59 683.599 1080.65 682.98 1078.07 682.98C1074.69 682.98 1071.88 683.964 1069.63 685.933C1067.44 687.845 1065.94 690.742 1065.16 694.622L1060.6 717.654H1047.44L1059.93 655.055H1073.09L1068.87 676.399C1072.75 673.193 1077.42 671.59 1082.87 671.59ZM1114.8 672.265H1127.88L1118.85 717.654H1105.77L1114.8 672.265ZM1123.57 665.938C1121.32 665.938 1119.47 665.291 1118 663.998C1116.6 662.648 1115.9 661.017 1115.9 659.104C1115.9 656.855 1116.68 654.999 1118.26 653.536C1119.89 652.018 1122 651.258 1124.59 651.258C1126.89 651.258 1128.75 651.905 1130.15 653.199C1131.62 654.436 1132.35 655.983 1132.35 657.839C1132.35 660.257 1131.53 662.226 1129.9 663.744C1128.27 665.207 1126.16 665.938 1123.57 665.938ZM1151.48 677.665C1153.45 675.528 1155.81 673.981 1158.57 673.025C1161.38 672.069 1164.67 671.59 1168.44 671.59L1166.08 683.739C1164.5 683.627 1163.49 683.57 1163.04 683.57C1159.05 683.57 1155.84 684.555 1153.42 686.523C1151.06 688.492 1149.46 691.557 1148.61 695.719L1144.23 717.654H1131.06L1140.09 672.265H1152.58L1151.48 677.665ZM1200.9 692.007L1216.51 717.654H1201.24L1190.44 700.022L1182.42 706.687L1180.23 717.654H1167.07L1179.55 655.055H1192.72L1185.71 690.067L1207.48 672.265H1224.61L1200.9 692.007ZM1243.17 718.329C1238.62 718.329 1234.6 717.486 1231.11 715.798C1227.68 714.111 1225.01 711.749 1223.1 708.712C1221.24 705.618 1220.31 702.047 1220.31 697.997C1220.31 692.991 1221.49 688.492 1223.85 684.498C1226.22 680.505 1229.48 677.356 1233.64 675.05C1237.8 672.744 1242.5 671.59 1247.73 671.59C1252.34 671.59 1256.36 672.434 1259.79 674.121C1263.23 675.809 1265.87 678.199 1267.73 681.293C1269.64 684.33 1270.59 687.873 1270.59 691.923C1270.59 696.928 1269.41 701.428 1267.05 705.421C1264.74 709.415 1261.48 712.564 1257.26 714.87C1253.1 717.176 1248.41 718.329 1243.17 718.329ZM1244.02 707.446C1246.55 707.446 1248.83 706.827 1250.85 705.59C1252.88 704.296 1254.45 702.525 1255.58 700.275C1256.7 698.025 1257.26 695.438 1257.26 692.513C1257.26 689.42 1256.36 686.973 1254.56 685.173C1252.76 683.374 1250.23 682.474 1246.97 682.474C1244.38 682.474 1242.08 683.121 1240.05 684.414C1238.03 685.651 1236.45 687.395 1235.33 689.645C1234.2 691.895 1233.64 694.482 1233.64 697.406C1233.64 700.5 1234.54 702.947 1236.34 704.746C1238.2 706.546 1240.76 707.446 1244.02 707.446ZM1329.42 672.265L1320.39 717.654H1307.91L1308.84 712.761C1306.87 714.617 1304.62 716.023 1302.09 716.979C1299.56 717.879 1296.88 718.329 1294.07 718.329C1289.12 718.329 1285.16 716.979 1282.18 714.28C1279.25 711.58 1277.79 707.783 1277.79 702.89C1277.79 701.034 1277.99 699.206 1278.38 697.406L1283.36 672.265H1296.52L1291.71 696.563C1291.49 697.631 1291.37 698.728 1291.37 699.853C1291.37 704.578 1293.9 706.94 1298.97 706.94C1302.28 706.94 1305.01 705.984 1307.15 704.071C1309.34 702.103 1310.83 699.178 1311.62 695.297L1316.26 672.265H1329.42ZM1368.02 671.59C1373.08 671.59 1377.1 672.94 1380.09 675.64C1383.07 678.34 1384.56 682.164 1384.56 687.114C1384.56 688.914 1384.36 690.713 1383.97 692.513L1378.9 717.654H1365.74L1370.64 693.357C1370.86 692.401 1370.97 691.36 1370.97 690.235C1370.97 687.873 1370.33 686.073 1369.03 684.836C1367.74 683.599 1365.8 682.98 1363.21 682.98C1359.84 682.98 1357.03 683.964 1354.78 685.933C1352.58 687.845 1351.09 690.742 1350.3 694.622L1345.75 717.654H1332.59L1345.07 655.055H1358.23L1354.02 676.399C1357.9 673.193 1362.57 671.59 1368.02 671.59ZM1399.95 672.265H1413.02L1404 717.654H1390.92L1399.95 672.265ZM1408.72 665.938C1406.47 665.938 1404.61 665.291 1403.15 663.998C1401.75 662.648 1401.04 661.017 1401.04 659.104C1401.04 656.855 1401.83 654.999 1403.4 653.536C1405.04 652.018 1407.14 651.258 1409.73 651.258C1412.04 651.258 1413.89 651.905 1415.3 653.199C1416.76 654.436 1417.49 655.983 1417.49 657.839C1417.49 660.257 1416.68 662.226 1415.05 663.744C1413.42 665.207 1411.31 665.938 1408.72 665.938ZM1434.94 706.518H1459.74L1457.55 717.654H1412.84L1414.61 708.796L1441.52 687.704C1444.78 685.061 1447.03 682.839 1448.27 681.039C1449.56 679.24 1450.21 677.356 1450.21 675.387C1450.21 673.418 1449.45 671.844 1447.93 670.662C1446.47 669.481 1444.33 668.891 1441.52 668.891C1439.16 668.891 1436.88 669.425 1434.69 670.494C1432.49 671.562 1430.58 673.081 1428.95 675.05L1419.76 668.385C1422.17 665.066 1425.49 662.451 1429.71 660.539C1433.93 658.57 1438.54 657.586 1443.55 657.586C1447.65 657.586 1451.25 658.261 1454.35 659.611C1457.49 660.96 1459.91 662.845 1461.6 665.263C1463.34 667.682 1464.22 670.409 1464.22 673.447C1464.22 677.102 1463.2 680.533 1461.18 683.739C1459.15 686.945 1455.64 690.488 1450.63 694.369L1434.94 706.518ZM1489.43 718.667C1482.85 718.667 1477.65 716.698 1473.82 712.761C1470 708.768 1468.09 703.284 1468.09 696.31C1468.09 689.223 1469.38 682.727 1471.97 676.821C1474.61 670.916 1478.27 666.247 1482.94 662.816C1487.6 659.329 1492.92 657.586 1498.88 657.586C1505.46 657.586 1510.66 659.582 1514.49 663.576C1518.31 667.513 1520.23 672.968 1520.23 679.943C1520.23 687.029 1518.9 693.526 1516.26 699.431C1513.67 705.337 1510.05 710.033 1505.38 713.52C1500.71 716.951 1495.39 718.667 1489.43 718.667ZM1490.7 707.109C1493.96 707.109 1496.77 705.702 1499.13 702.89C1501.55 700.078 1503.38 696.591 1504.62 692.429C1505.86 688.211 1506.47 684.161 1506.47 680.28C1506.47 676.512 1505.69 673.728 1504.11 671.928C1502.59 670.072 1500.43 669.144 1497.62 669.144C1494.35 669.144 1491.51 670.55 1489.09 673.362C1486.73 676.174 1484.93 679.69 1483.7 683.908C1482.46 688.07 1481.84 692.091 1481.84 695.972C1481.84 699.741 1482.6 702.553 1484.12 704.409C1485.69 706.209 1487.89 707.109 1490.7 707.109ZM1546.61 718.667C1540.03 718.667 1534.83 716.698 1531 712.761C1527.18 708.768 1525.27 703.284 1525.27 696.31C1525.27 689.223 1526.56 682.727 1529.15 676.821C1531.79 670.916 1535.45 666.247 1540.11 662.816C1544.78 659.329 1550.1 657.586 1556.06 657.586C1562.64 657.586 1567.84 659.582 1571.67 663.576C1575.49 667.513 1577.4 672.968 1577.4 679.943C1577.4 687.029 1576.08 693.526 1573.44 699.431C1570.85 705.337 1567.22 710.033 1562.55 713.52C1557.89 716.951 1552.57 718.667 1546.61 718.667ZM1547.88 707.109C1551.14 707.109 1553.95 705.702 1556.31 702.89C1558.73 700.078 1560.56 696.591 1561.8 692.429C1563.03 688.211 1563.65 684.161 1563.65 680.28C1563.65 676.512 1562.86 673.728 1561.29 671.928C1559.77 670.072 1557.61 669.144 1554.79 669.144C1551.53 669.144 1548.69 670.55 1546.27 673.362C1543.91 676.174 1542.11 679.69 1540.87 683.908C1539.64 688.07 1539.02 692.091 1539.02 695.972C1539.02 699.741 1539.78 702.553 1541.29 704.409C1542.87 706.209 1545.06 707.109 1547.88 707.109ZM1603.37 669.566L1600.16 680.786H1603.7C1610.96 680.786 1616.44 682.192 1620.15 685.005C1623.92 687.817 1625.81 691.81 1625.81 696.985C1625.81 701.315 1624.65 705.14 1622.35 708.458C1620.04 711.721 1616.81 714.252 1612.65 716.051C1608.54 717.795 1603.82 718.667 1598.47 718.667C1594.09 718.667 1590.01 718.076 1586.24 716.895C1582.53 715.714 1579.38 714.027 1576.79 711.833L1583.37 701.794C1585.34 703.481 1587.7 704.803 1590.46 705.759C1593.27 706.715 1596.22 707.193 1599.32 707.193C1603.37 707.193 1606.49 706.462 1608.68 704.999C1610.87 703.481 1611.97 701.344 1611.97 698.588C1611.97 694.088 1608.15 691.838 1600.5 691.838H1584.47L1594.09 658.598H1630.19L1627.92 669.566H1603.37Z" fill="white"/>
<path d="M685.554 563.975L683.023 576.799H710.442L708.333 587.429H680.83L678.13 601.096H710.358L708.08 612.064H662.354L674.165 553.008H718.795L716.517 563.975H685.554ZM784.085 566C789.035 566 792.972 567.35 795.897 570.05C798.821 572.693 800.284 576.462 800.284 581.355C800.284 583.155 800.087 585.011 799.693 586.923L794.715 612.064H781.554L786.363 587.851C786.588 586.726 786.701 585.573 786.701 584.392C786.701 582.086 786.082 580.342 784.845 579.161C783.663 577.98 781.892 577.39 779.53 577.39C773.174 577.39 769.209 581.186 767.634 588.779L762.994 612.064H749.833L754.642 587.851C754.867 586.726 754.979 585.601 754.979 584.476C754.979 582.17 754.36 580.427 753.123 579.246C751.942 578.008 750.17 577.39 747.808 577.39C741.452 577.39 737.459 581.242 735.828 588.948L731.272 612.064H718.111L727.138 566.675H739.624L738.612 571.4C742.549 567.8 747.302 566 752.87 566C756.02 566 758.804 566.647 761.222 567.941C763.697 569.178 765.553 571.006 766.79 573.424C768.984 571.006 771.543 569.178 774.468 567.941C777.392 566.647 780.598 566 784.085 566ZM862.182 566.675L853.155 612.064H840.668L841.512 607.593C837.744 611.023 833.104 612.739 827.592 612.739C824.048 612.739 820.786 611.923 817.805 610.292C814.824 608.661 812.434 606.327 810.634 603.29C808.891 600.196 808.019 596.569 808.019 592.407C808.019 587.401 809.116 582.901 811.309 578.908C813.559 574.859 816.596 571.709 820.421 569.459C824.245 567.153 828.464 566 833.076 566C840.05 566 844.971 568.278 847.84 572.834L849.021 566.675H862.182ZM831.641 601.856C834.229 601.856 836.535 601.237 838.559 600C840.584 598.706 842.159 596.934 843.284 594.685C844.409 592.435 844.971 589.848 844.971 586.923C844.971 583.829 844.043 581.383 842.187 579.583C840.387 577.783 837.856 576.883 834.594 576.883C832.007 576.883 829.701 577.53 827.676 578.824C825.651 580.061 824.077 581.805 822.952 584.054C821.827 586.304 821.264 588.891 821.264 591.816C821.264 594.91 822.164 597.356 823.964 599.156C825.82 600.956 828.379 601.856 831.641 601.856ZM874.367 566.675H887.443L878.416 612.064H865.34L874.367 566.675ZM883.141 560.348C880.891 560.348 879.035 559.701 877.573 558.407C876.167 557.057 875.463 555.426 875.463 553.514C875.463 551.264 876.251 549.408 877.826 547.946C879.457 546.427 881.566 545.668 884.153 545.668C886.459 545.668 888.315 546.315 889.721 547.608C891.184 548.846 891.915 550.392 891.915 552.249C891.915 554.667 891.099 556.636 889.468 558.154C887.837 559.616 885.728 560.348 883.141 560.348ZM903.119 549.464H916.28L903.794 612.064H890.633L903.119 549.464ZM928.073 582.452C925.823 582.452 923.967 581.748 922.505 580.342C921.042 578.88 920.311 577.052 920.311 574.859C920.311 572.271 921.155 570.162 922.842 568.531C924.53 566.9 926.611 566.085 929.085 566.085C931.335 566.085 933.163 566.788 934.569 568.194C936.031 569.6 936.763 571.428 936.763 573.677C936.763 576.208 935.891 578.318 934.147 580.005C932.46 581.636 930.435 582.452 928.073 582.452ZM921.999 612.739C919.749 612.739 917.893 612.036 916.43 610.63C914.968 609.167 914.237 607.339 914.237 605.146C914.237 602.559 915.081 600.45 916.768 598.819C918.455 597.187 920.536 596.372 923.011 596.372C925.261 596.372 927.089 597.075 928.495 598.481C929.957 599.887 930.688 601.715 930.688 603.965C930.688 606.496 929.816 608.605 928.073 610.292C926.386 611.923 924.361 612.739 921.999 612.739Z" fill="white"/>
<path d="M694.628 1031.27L685.601 1076.66H673.115L673.959 1072.19C670.19 1075.62 665.55 1077.34 660.038 1077.34C656.495 1077.34 653.233 1076.52 650.252 1074.89C647.271 1073.26 644.881 1070.92 643.081 1067.89C641.337 1064.79 640.466 1061.17 640.466 1057C640.466 1052 641.562 1047.5 643.756 1043.51C646.006 1039.46 649.043 1036.31 652.867 1034.06C656.692 1031.75 660.91 1030.6 665.522 1030.6C672.496 1030.6 677.418 1032.88 680.286 1037.43L681.467 1031.27H694.628ZM664.088 1066.45C666.675 1066.45 668.981 1065.83 671.006 1064.6C673.031 1063.3 674.606 1061.53 675.731 1059.28C676.855 1057.03 677.418 1054.44 677.418 1051.52C677.418 1048.43 676.49 1045.98 674.634 1044.18C672.834 1042.38 670.303 1041.48 667.041 1041.48C664.454 1041.48 662.148 1042.13 660.123 1043.42C658.098 1044.66 656.523 1046.4 655.398 1048.65C654.273 1050.9 653.711 1053.49 653.711 1056.41C653.711 1059.51 654.611 1061.95 656.411 1063.75C658.267 1065.55 660.826 1066.45 664.088 1066.45ZM718.203 1036.67C720.171 1034.53 722.534 1032.99 725.29 1032.03C728.102 1031.08 731.392 1030.6 735.16 1030.6L732.798 1042.75C731.223 1042.63 730.211 1042.58 729.761 1042.58C725.768 1042.58 722.562 1043.56 720.143 1045.53C717.781 1047.5 716.178 1050.56 715.334 1054.73L710.947 1076.66H697.786L706.813 1031.27H719.3L718.203 1036.67ZM750.491 1077.34C746.554 1077.34 742.813 1076.91 739.27 1076.07C735.783 1075.17 733.055 1074.02 731.086 1072.61L736.148 1063.08C738.117 1064.37 740.507 1065.41 743.319 1066.2C746.188 1066.99 749.056 1067.38 751.925 1067.38C754.906 1067.38 757.127 1067.02 758.59 1066.28C760.052 1065.5 760.783 1064.4 760.783 1062.99C760.783 1061.87 760.136 1061.05 758.843 1060.55C757.549 1060.04 755.468 1059.51 752.6 1058.94C749.338 1058.33 746.638 1057.65 744.501 1056.92C742.42 1056.19 740.592 1055.01 739.017 1053.38C737.498 1051.69 736.739 1049.41 736.739 1046.54C736.739 1041.54 738.82 1037.63 742.982 1034.82C747.2 1032 752.712 1030.6 759.518 1030.6C762.667 1030.6 765.733 1030.93 768.714 1031.61C771.695 1032.28 774.226 1033.21 776.307 1034.39L771.582 1044.01C767.87 1041.71 763.399 1040.55 758.168 1040.55C755.299 1040.55 753.106 1040.97 751.587 1041.82C750.125 1042.66 749.394 1043.73 749.394 1045.02C749.394 1046.21 750.041 1047.08 751.334 1047.64C752.628 1048.15 754.793 1048.71 757.83 1049.33C761.036 1049.95 763.652 1050.62 765.676 1051.35C767.757 1052.03 769.557 1053.18 771.076 1054.81C772.594 1056.44 773.354 1058.66 773.354 1061.48C773.354 1066.54 771.216 1070.45 766.942 1073.2C762.724 1075.96 757.24 1077.34 750.491 1077.34ZM814.208 1030.6C819.27 1030.6 823.291 1031.95 826.272 1034.65C829.253 1037.35 830.744 1041.17 830.744 1046.12C830.744 1047.92 830.547 1049.72 830.153 1051.52L825.091 1076.66H811.93L816.823 1052.36C817.048 1051.41 817.161 1050.37 817.161 1049.24C817.161 1046.88 816.514 1045.08 815.22 1043.84C813.927 1042.61 811.986 1041.99 809.399 1041.99C806.024 1041.99 803.212 1042.97 800.963 1044.94C798.769 1046.85 797.279 1049.75 796.491 1053.63L791.935 1076.66H778.774L791.26 1014.06H804.422L800.203 1035.41C804.084 1032.2 808.752 1030.6 814.208 1030.6ZM892.691 1031.27L883.664 1076.66H871.177L872.021 1072.19C868.253 1075.62 863.613 1077.34 858.101 1077.34C854.557 1077.34 851.295 1076.52 848.314 1074.89C845.333 1073.26 842.943 1070.92 841.143 1067.89C839.4 1064.79 838.528 1061.17 838.528 1057C838.528 1052 839.625 1047.5 841.818 1043.51C844.068 1039.46 847.105 1036.31 850.93 1034.06C854.754 1031.75 858.972 1030.6 863.584 1030.6C870.559 1030.6 875.48 1032.88 878.348 1037.43L879.53 1031.27H892.691ZM862.15 1066.45C864.737 1066.45 867.043 1065.83 869.068 1064.6C871.093 1063.3 872.668 1061.53 873.793 1059.28C874.918 1057.03 875.48 1054.44 875.48 1051.52C875.48 1048.43 874.552 1045.98 872.696 1044.18C870.896 1042.38 868.365 1041.48 865.103 1041.48C862.516 1041.48 860.21 1042.13 858.185 1043.42C856.16 1044.66 854.585 1046.4 853.461 1048.65C852.336 1050.9 851.773 1053.49 851.773 1056.41C851.773 1059.51 852.673 1061.95 854.473 1063.75C856.329 1065.55 858.888 1066.45 862.15 1066.45ZM961.823 1030.6C966.772 1030.6 970.709 1031.95 973.634 1034.65C976.559 1037.29 978.021 1041.06 978.021 1045.95C978.021 1047.75 977.824 1049.61 977.43 1051.52L972.453 1076.66H959.292L964.101 1052.45C964.325 1051.32 964.438 1050.17 964.438 1048.99C964.438 1046.68 963.819 1044.94 962.582 1043.76C961.401 1042.58 959.629 1041.99 957.267 1041.99C950.911 1041.99 946.946 1045.78 945.371 1053.38L940.731 1076.66H927.57L932.379 1052.45C932.604 1051.32 932.716 1050.2 932.716 1049.07C932.716 1046.77 932.098 1045.02 930.86 1043.84C929.679 1042.61 927.908 1041.99 925.545 1041.99C919.19 1041.99 915.196 1045.84 913.565 1053.54L909.01 1076.66H895.848L904.876 1031.27H917.362L916.349 1036C920.286 1032.4 925.039 1030.6 930.607 1030.6C933.757 1030.6 936.541 1031.24 938.959 1032.54C941.434 1033.78 943.29 1035.6 944.528 1038.02C946.721 1035.6 949.28 1033.78 952.205 1032.54C955.13 1031.24 958.336 1030.6 961.823 1030.6ZM1024.76 1077.34C1020.83 1077.34 1017.08 1076.91 1013.54 1076.07C1010.05 1075.17 1007.33 1074.02 1005.36 1072.61L1010.42 1063.08C1012.39 1064.37 1014.78 1065.41 1017.59 1066.2C1020.46 1066.99 1023.33 1067.38 1026.2 1067.38C1029.18 1067.38 1031.4 1067.02 1032.86 1066.28C1034.32 1065.5 1035.05 1064.4 1035.05 1062.99C1035.05 1061.87 1034.41 1061.05 1033.11 1060.55C1031.82 1060.04 1029.74 1059.51 1026.87 1058.94C1023.61 1058.33 1020.91 1057.65 1018.77 1056.92C1016.69 1056.19 1014.86 1055.01 1013.29 1053.38C1011.77 1051.69 1011.01 1049.41 1011.01 1046.54C1011.01 1041.54 1013.09 1037.63 1017.25 1034.82C1021.47 1032 1026.98 1030.6 1033.79 1030.6C1036.94 1030.6 1040 1030.93 1042.99 1031.61C1045.97 1032.28 1048.5 1033.21 1050.58 1034.39L1045.85 1044.01C1042.14 1041.71 1037.67 1040.55 1032.44 1040.55C1029.57 1040.55 1027.38 1040.97 1025.86 1041.82C1024.4 1042.66 1023.67 1043.73 1023.67 1045.02C1023.67 1046.21 1024.31 1047.08 1025.61 1047.64C1026.9 1048.15 1029.06 1048.71 1032.1 1049.33C1035.31 1049.95 1037.92 1050.62 1039.95 1051.35C1042.03 1052.03 1043.83 1053.18 1045.35 1054.81C1046.87 1056.44 1047.63 1058.66 1047.63 1061.48C1047.63 1066.54 1045.49 1070.45 1041.21 1073.2C1037 1075.96 1031.51 1077.34 1024.76 1077.34ZM1088.48 1030.6C1093.54 1030.6 1097.56 1031.95 1100.54 1034.65C1103.52 1037.35 1105.02 1041.17 1105.02 1046.12C1105.02 1047.92 1104.82 1049.72 1104.42 1051.52L1099.36 1076.66H1086.2L1091.09 1052.36C1091.32 1051.41 1091.43 1050.37 1091.43 1049.24C1091.43 1046.88 1090.79 1045.08 1089.49 1043.84C1088.2 1042.61 1086.26 1041.99 1083.67 1041.99C1080.3 1041.99 1077.48 1042.97 1075.23 1044.94C1073.04 1046.85 1071.55 1049.75 1070.76 1053.63L1066.21 1076.66H1053.05L1065.53 1014.06H1078.69L1074.47 1035.41C1078.36 1032.2 1083.02 1030.6 1088.48 1030.6ZM1120.4 1031.27H1133.48L1124.45 1076.66H1111.38L1120.4 1031.27ZM1129.18 1024.94C1126.93 1024.94 1125.07 1024.3 1123.61 1023C1122.2 1021.65 1121.5 1020.02 1121.5 1018.11C1121.5 1015.86 1122.29 1014.01 1123.86 1012.54C1125.49 1011.02 1127.6 1010.27 1130.19 1010.27C1132.5 1010.27 1134.35 1010.91 1135.76 1012.21C1137.22 1013.44 1137.95 1014.99 1137.95 1016.85C1137.95 1019.26 1137.14 1021.23 1135.51 1022.75C1133.87 1024.21 1131.77 1024.94 1129.18 1024.94ZM1157.09 1036.67C1159.06 1034.53 1161.42 1032.99 1164.17 1032.03C1166.99 1031.08 1170.28 1030.6 1174.04 1030.6L1171.68 1042.75C1170.11 1042.63 1169.1 1042.58 1168.65 1042.58C1164.65 1042.58 1161.45 1043.56 1159.03 1045.53C1156.67 1047.5 1155.06 1050.56 1154.22 1054.73L1149.83 1076.66H1136.67L1145.7 1031.27H1158.18L1157.09 1036.67ZM1206.5 1051.01L1222.11 1076.66H1206.84L1196.04 1059.03L1188.03 1065.69L1185.84 1076.66H1172.67L1185.16 1014.06H1198.32L1191.32 1049.07L1213.09 1031.27H1230.21L1206.5 1051.01ZM1248.78 1077.34C1244.22 1077.34 1240.2 1076.49 1236.72 1074.81C1233.28 1073.12 1230.61 1070.76 1228.7 1067.72C1226.85 1064.62 1225.92 1061.05 1225.92 1057C1225.92 1052 1227.1 1047.5 1229.46 1043.51C1231.82 1039.51 1235.08 1036.36 1239.25 1034.06C1243.41 1031.75 1248.11 1030.6 1253.34 1030.6C1257.95 1030.6 1261.97 1031.44 1265.4 1033.13C1268.83 1034.82 1271.47 1037.21 1273.33 1040.3C1275.24 1043.34 1276.2 1046.88 1276.2 1050.93C1276.2 1055.94 1275.02 1060.43 1272.66 1064.43C1270.35 1068.42 1267.09 1071.57 1262.87 1073.88C1258.71 1076.18 1254.01 1077.34 1248.78 1077.34ZM1249.62 1066.45C1252.15 1066.45 1254.43 1065.83 1256.46 1064.6C1258.48 1063.3 1260.06 1061.53 1261.18 1059.28C1262.31 1057.03 1262.87 1054.44 1262.87 1051.52C1262.87 1048.43 1261.97 1045.98 1260.17 1044.18C1258.37 1042.38 1255.84 1041.48 1252.58 1041.48C1249.99 1041.48 1247.68 1042.13 1245.66 1043.42C1243.63 1044.66 1242.06 1046.4 1240.93 1048.65C1239.81 1050.9 1239.25 1053.49 1239.25 1056.41C1239.25 1059.51 1240.15 1061.95 1241.95 1063.75C1243.8 1065.55 1246.36 1066.45 1249.62 1066.45ZM1335.03 1031.27L1326 1076.66H1313.51L1314.44 1071.77C1312.47 1073.62 1310.22 1075.03 1307.69 1075.99C1305.16 1076.89 1302.49 1077.34 1299.68 1077.34C1294.73 1077.34 1290.76 1075.99 1287.78 1073.29C1284.86 1070.59 1283.4 1066.79 1283.4 1061.9C1283.4 1060.04 1283.59 1058.21 1283.99 1056.41L1288.96 1031.27H1302.12L1297.32 1055.57C1297.09 1056.64 1296.98 1057.74 1296.98 1058.86C1296.98 1063.58 1299.51 1065.95 1304.57 1065.95C1307.89 1065.95 1310.62 1064.99 1312.75 1063.08C1314.95 1061.11 1316.44 1058.18 1317.23 1054.3L1321.87 1031.27H1335.03ZM1373.63 1030.6C1378.69 1030.6 1382.71 1031.95 1385.69 1034.65C1388.67 1037.35 1390.16 1041.17 1390.16 1046.12C1390.16 1047.92 1389.97 1049.72 1389.57 1051.52L1384.51 1076.66H1371.35L1376.24 1052.36C1376.47 1051.41 1376.58 1050.37 1376.58 1049.24C1376.58 1046.88 1375.93 1045.08 1374.64 1043.84C1373.35 1042.61 1371.4 1041.99 1368.82 1041.99C1365.44 1041.99 1362.63 1042.97 1360.38 1044.94C1358.19 1046.85 1356.7 1049.75 1355.91 1053.63L1351.35 1076.66H1338.19L1350.68 1014.06H1363.84L1359.62 1035.41C1363.5 1032.2 1368.17 1030.6 1373.63 1030.6ZM1405.55 1031.27H1418.63L1409.6 1076.66H1396.52L1405.55 1031.27ZM1414.33 1024.94C1412.08 1024.94 1410.22 1024.3 1408.76 1023C1407.35 1021.65 1406.65 1020.02 1406.65 1018.11C1406.65 1015.86 1407.44 1014.01 1409.01 1012.54C1410.64 1011.02 1412.75 1010.27 1415.34 1010.27C1417.64 1010.27 1419.5 1010.91 1420.91 1012.21C1422.37 1013.44 1423.1 1014.99 1423.1 1016.85C1423.1 1019.26 1422.28 1021.23 1420.65 1022.75C1419.02 1024.21 1416.91 1024.94 1414.33 1024.94Z" fill="white"/>
<path d="M667.352 922.982L664.23 938.59H691.649L689.371 949.557H662.121L657.818 971.071H644.067L655.878 912.015H700.508L698.23 922.982H667.352ZM751.043 925.682L742.016 971.071H729.529L730.373 966.599C726.605 970.03 721.965 971.746 716.453 971.746C712.909 971.746 709.647 970.93 706.666 969.299C703.685 967.668 701.295 965.334 699.495 962.297C697.752 959.203 696.88 955.576 696.88 951.414C696.88 946.408 697.977 941.908 700.17 937.915C702.42 933.865 705.457 930.716 709.282 928.466C713.106 926.16 717.324 925.007 721.936 925.007C728.911 925.007 733.832 927.285 736.701 931.841L737.882 925.682H751.043ZM720.502 960.863C723.089 960.863 725.395 960.244 727.42 959.006C729.445 957.713 731.02 955.941 732.145 953.691C733.27 951.442 733.832 948.854 733.832 945.93C733.832 942.836 732.904 940.39 731.048 938.59C729.248 936.79 726.717 935.89 723.455 935.89C720.868 935.89 718.562 936.537 716.537 937.831C714.512 939.068 712.937 940.812 711.813 943.061C710.688 945.311 710.125 947.898 710.125 950.823C710.125 953.916 711.025 956.363 712.825 958.163C714.681 959.963 717.24 960.863 720.502 960.863ZM778.16 971.746C773.492 971.746 769.415 970.902 765.927 969.215C762.44 967.527 759.741 965.165 757.828 962.128C755.972 959.035 755.044 955.463 755.044 951.414C755.044 946.408 756.225 941.908 758.588 937.915C760.95 933.922 764.24 930.772 768.458 928.466C772.677 926.16 777.429 925.007 782.716 925.007C787.553 925.007 791.715 926.019 795.202 928.044C798.746 930.013 801.389 932.825 803.133 936.481L791.996 942.049C790.028 937.943 786.653 935.89 781.873 935.89C779.285 935.89 776.951 936.537 774.87 937.831C772.845 939.068 771.242 940.812 770.061 943.061C768.936 945.311 768.374 947.87 768.374 950.739C768.374 953.832 769.302 956.307 771.158 958.163C773.014 959.963 775.601 960.863 778.92 960.863C783.757 960.863 787.469 958.838 790.056 954.788L799.758 960.863C797.565 964.293 794.556 966.965 790.731 968.877C786.963 970.79 782.772 971.746 778.16 971.746ZM852.739 945.002C852.739 947.083 852.486 949.389 851.979 951.92H817.221C817.671 958.107 821.579 961.2 828.947 961.2C831.253 961.2 833.447 960.834 835.528 960.103C837.665 959.372 839.521 958.332 841.096 956.982L846.58 965.671C844.049 967.696 841.152 969.215 837.89 970.227C834.628 971.24 831.197 971.746 827.598 971.746C822.929 971.746 818.824 970.93 815.28 969.299C811.793 967.612 809.093 965.221 807.181 962.128C805.325 959.035 804.397 955.463 804.397 951.414C804.397 946.408 805.522 941.908 807.772 937.915C810.078 933.865 813.255 930.716 817.305 928.466C821.354 926.16 825.966 925.007 831.141 925.007C835.528 925.007 839.324 925.823 842.53 927.454C845.792 929.085 848.295 931.419 850.039 934.456C851.839 937.493 852.739 941.008 852.739 945.002ZM830.55 934.878C827.457 934.878 824.842 935.721 822.704 937.409C820.567 939.04 819.048 941.318 818.149 944.242H840.674C840.674 941.318 839.746 939.04 837.89 937.409C836.09 935.721 833.644 934.878 830.55 934.878ZM890.95 925.007C894.494 925.007 897.756 925.823 900.737 927.454C903.774 929.085 906.164 931.447 907.908 934.54C909.708 937.578 910.608 941.177 910.608 945.339C910.608 950.345 909.483 954.873 907.233 958.922C905.04 962.915 902.031 966.065 898.206 968.371C894.381 970.621 890.135 971.746 885.467 971.746C881.923 971.746 878.858 971.127 876.271 969.89C873.684 968.652 871.687 966.796 870.281 964.322L868.931 971.071H856.445L868.931 908.471H882.092L877.874 929.563C881.53 926.526 885.888 925.007 890.95 925.007ZM883.948 960.863C886.535 960.863 888.841 960.244 890.866 959.006C892.891 957.713 894.466 955.941 895.591 953.691C896.715 951.442 897.278 948.854 897.278 945.93C897.278 942.836 896.35 940.39 894.494 938.59C892.694 936.79 890.163 935.89 886.901 935.89C884.37 935.89 882.092 936.537 880.067 937.831C878.042 939.068 876.468 940.812 875.343 943.061C874.218 945.311 873.655 947.898 873.655 950.823C873.655 953.916 874.555 956.363 876.355 958.163C878.155 959.963 880.686 960.863 883.948 960.863ZM938.4 971.746C933.845 971.746 929.823 970.902 926.336 969.215C922.905 967.527 920.234 965.165 918.321 962.128C916.465 959.035 915.537 955.463 915.537 951.414C915.537 946.408 916.718 941.908 919.081 937.915C921.443 933.922 924.705 930.772 928.867 928.466C933.029 926.16 937.725 925.007 942.956 925.007C947.568 925.007 951.59 925.851 955.02 927.538C958.451 929.225 961.095 931.616 962.951 934.709C964.863 937.746 965.819 941.29 965.819 945.339C965.819 950.345 964.638 954.844 962.276 958.838C959.97 962.831 956.708 965.981 952.489 968.287C948.327 970.593 943.631 971.746 938.4 971.746ZM939.244 960.863C941.775 960.863 944.053 960.244 946.078 959.006C948.102 957.713 949.677 955.941 950.802 953.691C951.927 951.442 952.489 948.854 952.489 945.93C952.489 942.836 951.59 940.39 949.79 938.59C947.99 936.79 945.459 935.89 942.197 935.89C939.61 935.89 937.304 936.537 935.279 937.831C933.254 939.068 931.679 940.812 930.554 943.061C929.429 945.311 928.867 947.898 928.867 950.823C928.867 953.916 929.767 956.363 931.567 958.163C933.423 959.963 935.982 960.863 939.244 960.863ZM993.601 971.746C989.045 971.746 985.024 970.902 981.536 969.215C978.105 967.527 975.434 965.165 973.522 962.128C971.666 959.035 970.738 955.463 970.738 951.414C970.738 946.408 971.919 941.908 974.281 937.915C976.643 933.922 979.905 930.772 984.067 928.466C988.229 926.16 992.926 925.007 998.156 925.007C1002.77 925.007 1006.79 925.851 1010.22 927.538C1013.65 929.225 1016.3 931.616 1018.15 934.709C1020.06 937.746 1021.02 941.29 1021.02 945.339C1021.02 950.345 1019.84 954.844 1017.48 958.838C1015.17 962.831 1011.91 965.981 1007.69 968.287C1003.53 970.593 998.831 971.746 993.601 971.746ZM994.444 960.863C996.975 960.863 999.253 960.244 1001.28 959.006C1003.3 957.713 1004.88 955.941 1006 953.691C1007.13 951.442 1007.69 948.854 1007.69 945.93C1007.69 942.836 1006.79 940.39 1004.99 938.59C1003.19 936.79 1000.66 935.89 997.397 935.89C994.81 935.89 992.504 936.537 990.479 937.831C988.454 939.068 986.88 940.812 985.755 943.061C984.63 945.311 984.067 947.898 984.067 950.823C984.067 953.916 984.967 956.363 986.767 958.163C988.623 959.963 991.182 960.863 994.444 960.863ZM1058.92 945.424L1074.53 971.071H1059.26L1048.46 953.438L1040.45 960.103L1038.26 971.071H1025.09L1037.58 908.471H1050.74L1043.74 943.483L1065.51 925.682H1082.63L1058.92 945.424ZM1091.54 941.458C1089.29 941.458 1087.43 940.755 1085.97 939.349C1084.5 937.887 1083.77 936.059 1083.77 933.865C1083.77 931.278 1084.62 929.169 1086.3 927.538C1087.99 925.907 1090.07 925.091 1092.55 925.091C1094.8 925.091 1096.63 925.794 1098.03 927.201C1099.49 928.607 1100.22 930.435 1100.22 932.684C1100.22 935.215 1099.35 937.324 1097.61 939.012C1095.92 940.643 1093.9 941.458 1091.54 941.458ZM1085.46 971.746C1083.21 971.746 1081.35 971.043 1079.89 969.637C1078.43 968.174 1077.7 966.346 1077.7 964.153C1077.7 961.566 1078.54 959.456 1080.23 957.825C1081.92 956.194 1084 955.379 1086.47 955.379C1088.72 955.379 1090.55 956.082 1091.96 957.488C1093.42 958.894 1094.15 960.722 1094.15 962.972C1094.15 965.503 1093.28 967.612 1091.54 969.299C1089.85 970.93 1087.82 971.746 1085.46 971.746Z" fill="white"/>
<path d="M690.405 1390.28L681.378 1435.67H668.892L669.735 1431.2C665.967 1434.63 661.327 1436.34 655.815 1436.34C652.271 1436.34 649.009 1435.53 646.028 1433.9C643.047 1432.27 640.657 1429.93 638.857 1426.89C637.114 1423.8 636.242 1420.17 636.242 1416.01C636.242 1411.01 637.339 1406.51 639.532 1402.51C641.782 1398.46 644.819 1395.31 648.644 1393.06C652.468 1390.76 656.687 1389.6 661.299 1389.6C668.273 1389.6 673.194 1391.88 676.063 1396.44L677.244 1390.28H690.405ZM659.864 1425.46C662.452 1425.46 664.758 1424.84 666.782 1423.6C668.807 1422.31 670.382 1420.54 671.507 1418.29C672.632 1416.04 673.194 1413.45 673.194 1410.53C673.194 1407.43 672.266 1404.99 670.41 1403.19C668.61 1401.39 666.079 1400.49 662.817 1400.49C660.23 1400.49 657.924 1401.13 655.899 1402.43C653.874 1403.67 652.3 1405.41 651.175 1407.66C650.05 1409.91 649.487 1412.5 649.487 1415.42C649.487 1418.51 650.387 1420.96 652.187 1422.76C654.043 1424.56 656.602 1425.46 659.864 1425.46ZM713.979 1395.68C715.948 1393.54 718.31 1392 721.066 1391.04C723.878 1390.08 727.168 1389.6 730.937 1389.6L728.574 1401.75C727 1401.64 725.987 1401.58 725.537 1401.58C721.544 1401.58 718.338 1402.57 715.92 1404.54C713.557 1406.51 711.954 1409.57 711.111 1413.73L706.724 1435.67H693.563L702.59 1390.28H715.076L713.979 1395.68ZM746.267 1436.34C742.33 1436.34 738.59 1435.92 735.046 1435.08C731.559 1434.18 728.831 1433.02 726.863 1431.62L731.925 1422.09C733.893 1423.38 736.284 1424.42 739.096 1425.21C741.964 1425.99 744.833 1426.39 747.701 1426.39C750.682 1426.39 752.904 1426.02 754.366 1425.29C755.828 1424.5 756.56 1423.41 756.56 1422C756.56 1420.88 755.913 1420.06 754.619 1419.55C753.326 1419.05 751.245 1418.51 748.376 1417.95C745.114 1417.33 742.414 1416.66 740.277 1415.93C738.196 1415.2 736.368 1414.01 734.793 1412.38C733.275 1410.7 732.515 1408.42 732.515 1405.55C732.515 1400.54 734.596 1396.64 738.758 1393.82C742.977 1391.01 748.489 1389.6 755.294 1389.6C758.444 1389.6 761.509 1389.94 764.49 1390.62C767.471 1391.29 770.002 1392.22 772.083 1393.4L767.358 1403.02C763.646 1400.71 759.175 1399.56 753.944 1399.56C751.076 1399.56 748.882 1399.98 747.364 1400.83C745.901 1401.67 745.17 1402.74 745.17 1404.03C745.17 1405.21 745.817 1406.08 747.111 1406.65C748.404 1407.15 750.57 1407.72 753.607 1408.33C756.813 1408.95 759.428 1409.63 761.453 1410.36C763.534 1411.03 765.334 1412.19 766.852 1413.82C768.371 1415.45 769.13 1417.67 769.13 1420.48C769.13 1425.54 766.993 1429.45 762.718 1432.21C758.5 1434.97 753.016 1436.34 746.267 1436.34ZM809.984 1389.6C815.046 1389.6 819.068 1390.95 822.049 1393.65C825.03 1396.35 826.52 1400.18 826.52 1405.13C826.52 1406.93 826.323 1408.73 825.929 1410.53L820.868 1435.67H807.706L812.6 1411.37C812.825 1410.41 812.937 1409.37 812.937 1408.25C812.937 1405.89 812.29 1404.09 810.997 1402.85C809.703 1401.61 807.763 1400.99 805.175 1400.99C801.801 1400.99 798.989 1401.98 796.739 1403.95C794.545 1405.86 793.055 1408.76 792.267 1412.64L787.712 1435.67H774.551L787.037 1373.07H800.198L795.98 1394.41C799.86 1391.21 804.529 1389.6 809.984 1389.6ZM888.467 1390.28L879.44 1435.67H866.954L867.797 1431.2C864.029 1434.63 859.389 1436.34 853.877 1436.34C850.334 1436.34 847.071 1435.53 844.091 1433.9C841.11 1432.27 838.719 1429.93 836.919 1426.89C835.176 1423.8 834.304 1420.17 834.304 1416.01C834.304 1411.01 835.401 1406.51 837.594 1402.51C839.844 1398.46 842.881 1395.31 846.706 1393.06C850.53 1390.76 854.749 1389.6 859.361 1389.6C866.335 1389.6 871.256 1391.88 874.125 1396.44L875.306 1390.28H888.467ZM857.927 1425.46C860.514 1425.46 862.82 1424.84 864.845 1423.6C866.869 1422.31 868.444 1420.54 869.569 1418.29C870.694 1416.04 871.256 1413.45 871.256 1410.53C871.256 1407.43 870.328 1404.99 868.472 1403.19C866.673 1401.39 864.142 1400.49 860.879 1400.49C858.292 1400.49 855.986 1401.13 853.961 1402.43C851.937 1403.67 850.362 1405.41 849.237 1407.66C848.112 1409.91 847.55 1412.5 847.55 1415.42C847.55 1418.51 848.449 1420.96 850.249 1422.76C852.105 1424.56 854.664 1425.46 857.927 1425.46ZM957.599 1389.6C962.548 1389.6 966.486 1390.95 969.41 1393.65C972.335 1396.3 973.797 1400.07 973.797 1404.96C973.797 1406.76 973.6 1408.62 973.207 1410.53L968.229 1435.67H955.068L959.877 1411.46C960.102 1410.33 960.214 1409.18 960.214 1408C960.214 1405.69 959.596 1403.95 958.358 1402.77C957.177 1401.58 955.405 1400.99 953.043 1400.99C946.688 1400.99 942.722 1404.79 941.148 1412.38L936.508 1435.67H923.346L928.155 1411.46C928.38 1410.33 928.493 1409.21 928.493 1408.08C928.493 1405.77 927.874 1404.03 926.637 1402.85C925.456 1401.61 923.684 1400.99 921.322 1400.99C914.966 1400.99 910.973 1404.85 909.342 1412.55L904.786 1435.67H891.625L900.652 1390.28H913.138L912.126 1395C916.063 1391.4 920.815 1389.6 926.384 1389.6C929.533 1389.6 932.317 1390.25 934.736 1391.55C937.211 1392.78 939.067 1394.61 940.304 1397.03C942.497 1394.61 945.057 1392.78 947.981 1391.55C950.906 1390.25 954.112 1389.6 957.599 1389.6ZM973.951 1435.67H1016.13L1014.62 1443.26H972.433L973.951 1435.67ZM1039.65 1436.34C1035.72 1436.34 1031.98 1435.92 1028.43 1435.08C1024.94 1434.18 1022.22 1433.02 1020.25 1431.62L1025.31 1422.09C1027.28 1423.38 1029.67 1424.42 1032.48 1425.21C1035.35 1425.99 1038.22 1426.39 1041.09 1426.39C1044.07 1426.39 1046.29 1426.02 1047.75 1425.29C1049.21 1424.5 1049.95 1423.41 1049.95 1422C1049.95 1420.88 1049.3 1420.06 1048.01 1419.55C1046.71 1419.05 1044.63 1418.51 1041.76 1417.95C1038.5 1417.33 1035.8 1416.66 1033.66 1415.93C1031.58 1415.2 1029.75 1414.01 1028.18 1412.38C1026.66 1410.7 1025.9 1408.42 1025.9 1405.55C1025.9 1400.54 1027.98 1396.64 1032.14 1393.82C1036.36 1391.01 1041.87 1389.6 1048.68 1389.6C1051.83 1389.6 1054.89 1389.94 1057.88 1390.62C1060.86 1391.29 1063.39 1392.22 1065.47 1393.4L1060.74 1403.02C1057.03 1400.71 1052.56 1399.56 1047.33 1399.56C1044.46 1399.56 1042.27 1399.98 1040.75 1400.83C1039.29 1401.67 1038.56 1402.74 1038.56 1404.03C1038.56 1405.21 1039.2 1406.08 1040.5 1406.65C1041.79 1407.15 1043.96 1407.72 1046.99 1408.33C1050.2 1408.95 1052.81 1409.63 1054.84 1410.36C1056.92 1411.03 1058.72 1412.19 1060.24 1413.82C1061.76 1415.45 1062.52 1417.67 1062.52 1420.48C1062.52 1425.54 1060.38 1429.45 1056.1 1432.21C1051.89 1434.97 1046.4 1436.34 1039.65 1436.34ZM1103.37 1389.6C1108.43 1389.6 1112.45 1390.95 1115.43 1393.65C1118.42 1396.35 1119.91 1400.18 1119.91 1405.13C1119.91 1406.93 1119.71 1408.73 1119.32 1410.53L1114.25 1435.67H1101.09L1105.99 1411.37C1106.21 1410.41 1106.32 1409.37 1106.32 1408.25C1106.32 1405.89 1105.68 1404.09 1104.38 1402.85C1103.09 1401.61 1101.15 1400.99 1098.56 1400.99C1095.19 1400.99 1092.37 1401.98 1090.12 1403.95C1087.93 1405.86 1086.44 1408.76 1085.65 1412.64L1081.1 1435.67H1067.94L1080.42 1373.07H1093.58L1089.37 1394.41C1093.25 1391.21 1097.91 1389.6 1103.37 1389.6ZM1135.29 1390.28H1148.37L1139.34 1435.67H1126.27L1135.29 1390.28ZM1144.07 1383.95C1141.82 1383.95 1139.96 1383.31 1138.5 1382.01C1137.09 1380.66 1136.39 1379.03 1136.39 1377.12C1136.39 1374.87 1137.18 1373.01 1138.75 1371.55C1140.38 1370.03 1142.49 1369.27 1145.08 1369.27C1147.39 1369.27 1149.24 1369.92 1150.65 1371.21C1152.11 1372.45 1152.84 1374 1152.84 1375.85C1152.84 1378.27 1152.03 1380.24 1150.4 1381.76C1148.77 1383.22 1146.66 1383.95 1144.07 1383.95ZM1171.98 1395.68C1173.95 1393.54 1176.31 1392 1179.06 1391.04C1181.88 1390.08 1185.17 1389.6 1188.94 1389.6L1186.57 1401.75C1185 1401.64 1183.99 1401.58 1183.54 1401.58C1179.54 1401.58 1176.34 1402.57 1173.92 1404.54C1171.56 1406.51 1169.95 1409.57 1169.11 1413.73L1164.72 1435.67H1151.56L1160.59 1390.28H1173.07L1171.98 1395.68ZM1221.4 1410.02L1237 1435.67H1221.73L1210.93 1418.04L1202.92 1424.7L1200.73 1435.67H1187.56L1200.05 1373.07H1213.21L1206.21 1408.08L1227.98 1390.28H1245.1L1221.4 1410.02ZM1263.67 1436.34C1259.11 1436.34 1255.09 1435.5 1251.61 1433.81C1248.18 1432.13 1245.5 1429.76 1243.59 1426.73C1241.74 1423.63 1240.81 1420.06 1240.81 1416.01C1240.81 1411.01 1241.99 1406.51 1244.35 1402.51C1246.71 1398.52 1249.98 1395.37 1254.14 1393.06C1258.3 1390.76 1263 1389.6 1268.23 1389.6C1272.84 1389.6 1276.86 1390.45 1280.29 1392.14C1283.72 1393.82 1286.37 1396.21 1288.22 1399.31C1290.13 1402.34 1291.09 1405.89 1291.09 1409.94C1291.09 1414.94 1289.91 1419.44 1287.55 1423.44C1285.24 1427.43 1281.98 1430.58 1277.76 1432.88C1273.6 1435.19 1268.9 1436.34 1263.67 1436.34ZM1264.51 1425.46C1267.05 1425.46 1269.32 1424.84 1271.35 1423.6C1273.37 1422.31 1274.95 1420.54 1276.07 1418.29C1277.2 1416.04 1277.76 1413.45 1277.76 1410.53C1277.76 1407.43 1276.86 1404.99 1275.06 1403.19C1273.26 1401.39 1270.73 1400.49 1267.47 1400.49C1264.88 1400.49 1262.57 1401.13 1260.55 1402.43C1258.52 1403.67 1256.95 1405.41 1255.82 1407.66C1254.7 1409.91 1254.14 1412.5 1254.14 1415.42C1254.14 1418.51 1255.04 1420.96 1256.84 1422.76C1258.69 1424.56 1261.25 1425.46 1264.51 1425.46ZM1349.92 1390.28L1340.89 1435.67H1328.4L1329.33 1430.78C1327.36 1432.63 1325.11 1434.04 1322.58 1434.99C1320.05 1435.89 1317.38 1436.34 1314.57 1436.34C1309.62 1436.34 1305.65 1434.99 1302.67 1432.29C1299.75 1429.59 1298.29 1425.8 1298.29 1420.9C1298.29 1419.05 1298.48 1417.22 1298.88 1415.42L1303.85 1390.28H1317.02L1312.21 1414.58C1311.98 1415.65 1311.87 1416.74 1311.87 1417.87C1311.87 1422.59 1314.4 1424.95 1319.46 1424.95C1322.78 1424.95 1325.51 1424 1327.65 1422.09C1329.84 1420.12 1331.33 1417.19 1332.12 1413.31L1336.76 1390.28H1349.92ZM1388.52 1389.6C1393.58 1389.6 1397.6 1390.95 1400.58 1393.65C1403.56 1396.35 1405.05 1400.18 1405.05 1405.13C1405.05 1406.93 1404.86 1408.73 1404.46 1410.53L1399.4 1435.67H1386.24L1391.13 1411.37C1391.36 1410.41 1391.47 1409.37 1391.47 1408.25C1391.47 1405.89 1390.82 1404.09 1389.53 1402.85C1388.24 1401.61 1386.3 1400.99 1383.71 1400.99C1380.33 1400.99 1377.52 1401.98 1375.27 1403.95C1373.08 1405.86 1371.59 1408.76 1370.8 1412.64L1366.24 1435.67H1353.08L1365.57 1373.07H1378.73L1374.51 1394.41C1378.39 1391.21 1383.06 1389.6 1388.52 1389.6ZM1420.44 1390.28H1433.52L1424.49 1435.67H1411.41L1420.44 1390.28ZM1429.22 1383.95C1426.97 1383.95 1425.11 1383.31 1423.65 1382.01C1422.24 1380.66 1421.54 1379.03 1421.54 1377.12C1421.54 1374.87 1422.33 1373.01 1423.9 1371.55C1425.53 1370.03 1427.64 1369.27 1430.23 1369.27C1432.53 1369.27 1434.39 1369.92 1435.8 1371.21C1437.26 1372.45 1437.99 1374 1437.99 1375.85C1437.99 1378.27 1437.17 1380.24 1435.54 1381.76C1433.91 1383.22 1431.8 1383.95 1429.22 1383.95Z" fill="white"/>
<path d="M651.654 1271.02H665.406L653.595 1330.08H639.843L651.654 1271.02ZM702.116 1284.01C707.178 1284.01 711.199 1285.36 714.18 1288.06C717.161 1290.71 718.651 1294.5 718.651 1299.45C718.651 1301.31 718.455 1303.14 718.061 1304.94L712.999 1330.08H699.838L704.731 1305.78C704.956 1304.82 705.069 1303.78 705.069 1302.66C705.069 1300.3 704.422 1298.5 703.128 1297.26C701.834 1296.02 699.894 1295.4 697.307 1295.4C693.932 1295.4 691.12 1296.39 688.87 1298.36C686.677 1300.27 685.186 1303.17 684.399 1307.05L679.843 1330.08H666.682L675.709 1284.69H688.195L687.183 1289.58C691.232 1285.87 696.21 1284.01 702.116 1284.01ZM741.549 1330.75C737.612 1330.75 733.872 1330.33 730.328 1329.49C726.841 1328.59 724.113 1327.43 722.145 1326.03L727.207 1316.5C729.175 1317.79 731.566 1318.83 734.378 1319.62C737.246 1320.4 740.115 1320.8 742.983 1320.8C745.964 1320.8 748.186 1320.43 749.648 1319.7C751.11 1318.91 751.842 1317.82 751.842 1316.41C751.842 1315.29 751.195 1314.47 749.901 1313.96C748.607 1313.46 746.526 1312.92 743.658 1312.36C740.396 1311.74 737.696 1311.07 735.559 1310.34C733.478 1309.61 731.65 1308.42 730.075 1306.79C728.557 1305.11 727.797 1302.83 727.797 1299.96C727.797 1294.95 729.878 1291.04 734.04 1288.23C738.259 1285.42 743.77 1284.01 750.576 1284.01C753.726 1284.01 756.791 1284.35 759.772 1285.03C762.753 1285.7 765.284 1286.63 767.365 1287.81L762.64 1297.43C758.928 1295.12 754.457 1293.97 749.226 1293.97C746.358 1293.97 744.164 1294.39 742.646 1295.23C741.183 1296.08 740.452 1297.15 740.452 1298.44C740.452 1299.62 741.099 1300.49 742.393 1301.06C743.686 1301.56 745.852 1302.12 748.889 1302.74C752.095 1303.36 754.71 1304.04 756.735 1304.77C758.816 1305.44 760.616 1306.6 762.134 1308.23C763.653 1309.86 764.412 1312.08 764.412 1314.89C764.412 1319.95 762.275 1323.86 758 1326.62C753.782 1329.38 748.298 1330.75 741.549 1330.75ZM787.718 1314.05C787.606 1314.5 787.549 1315.12 787.549 1315.9C787.549 1318.83 789.152 1320.29 792.358 1320.29C794.102 1320.29 795.873 1319.76 797.673 1318.69L799.614 1328.05C796.689 1329.85 792.921 1330.75 788.309 1330.75C784.034 1330.75 780.603 1329.63 778.016 1327.38C775.429 1325.13 774.135 1322.04 774.135 1318.1C774.135 1316.97 774.276 1315.65 774.557 1314.13L778.185 1295.83H771.182L773.207 1285.7H780.21L782.403 1274.65H795.564L793.371 1285.7H804.676L802.651 1295.83H791.346L787.718 1314.05ZM860.186 1284.69L851.159 1330.08H838.673L839.516 1325.61C835.748 1329.04 831.108 1330.75 825.596 1330.75C822.052 1330.75 818.79 1329.94 815.809 1328.31C812.828 1326.68 810.438 1324.34 808.638 1321.3C806.895 1318.21 806.023 1314.58 806.023 1310.42C806.023 1305.42 807.12 1300.92 809.313 1296.92C811.563 1292.87 814.6 1289.72 818.425 1287.47C822.249 1285.17 826.468 1284.01 831.08 1284.01C838.054 1284.01 842.975 1286.29 845.844 1290.85L847.025 1284.69H860.186ZM829.645 1319.87C832.233 1319.87 834.539 1319.25 836.563 1318.01C838.588 1316.72 840.163 1314.95 841.288 1312.7C842.413 1310.45 842.975 1307.86 842.975 1304.94C842.975 1301.84 842.047 1299.4 840.191 1297.6C838.391 1295.8 835.86 1294.9 832.598 1294.9C830.011 1294.9 827.705 1295.54 825.68 1296.84C823.655 1298.08 822.081 1299.82 820.956 1302.07C819.831 1304.32 819.268 1306.91 819.268 1309.83C819.268 1312.92 820.168 1315.37 821.968 1317.17C823.824 1318.97 826.383 1319.87 829.645 1319.87ZM919.194 1284.69L911.685 1322.49C909.998 1331.03 906.736 1337.28 901.899 1341.21C897.118 1345.15 890.706 1347.12 882.663 1347.12C878.276 1347.12 874.227 1346.61 870.515 1345.6C866.859 1344.59 863.709 1343.1 861.066 1341.13L867.309 1331.6C869.109 1333.12 871.415 1334.3 874.227 1335.14C877.095 1336.04 880.104 1336.49 883.254 1336.49C887.697 1336.49 891.072 1335.51 893.378 1333.54C895.684 1331.62 897.259 1328.7 898.102 1324.76L898.44 1322.82C894.784 1326.2 890.172 1327.88 884.604 1327.88C880.835 1327.88 877.433 1327.13 874.396 1325.61C871.358 1324.03 868.94 1321.81 867.14 1318.94C865.397 1316.07 864.525 1312.7 864.525 1308.82C864.525 1304.21 865.621 1300.02 867.815 1296.25C870.009 1292.48 873.018 1289.5 876.842 1287.3C880.723 1285.11 885.054 1284.01 889.835 1284.01C893.378 1284.01 896.471 1284.69 899.115 1286.04C901.814 1287.33 903.839 1289.36 905.189 1292.11L906.623 1284.69H919.194ZM888.147 1317.09C891.972 1317.09 895.121 1315.85 897.596 1313.37C900.071 1310.9 901.308 1307.72 901.308 1303.84C901.308 1301.08 900.408 1298.92 898.609 1297.34C896.809 1295.71 894.306 1294.9 891.1 1294.9C887.219 1294.9 884.013 1296.13 881.482 1298.61C879.008 1301.08 877.77 1304.26 877.77 1308.14C877.77 1310.9 878.698 1313.09 880.554 1314.72C882.41 1316.3 884.941 1317.09 888.147 1317.09ZM942.833 1290.09C944.801 1287.95 947.164 1286.4 949.92 1285.45C952.732 1284.49 956.022 1284.01 959.79 1284.01L957.428 1296.16C955.853 1296.05 954.841 1295.99 954.391 1295.99C950.398 1295.99 947.192 1296.98 944.773 1298.95C942.411 1300.92 940.808 1303.98 939.964 1308.14L935.577 1330.08H922.416L931.443 1284.69H943.93L942.833 1290.09ZM1013.1 1284.69L1004.07 1330.08H991.586L992.429 1325.61C988.661 1329.04 984.021 1330.75 978.509 1330.75C974.966 1330.75 971.704 1329.94 968.723 1328.31C965.742 1326.68 963.351 1324.34 961.551 1321.3C959.808 1318.21 958.936 1314.58 958.936 1310.42C958.936 1305.42 960.033 1300.92 962.226 1296.92C964.476 1292.87 967.513 1289.72 971.338 1287.47C975.163 1285.17 979.381 1284.01 983.993 1284.01C990.967 1284.01 995.888 1286.29 998.757 1290.85L999.938 1284.69H1013.1ZM982.559 1319.87C985.146 1319.87 987.452 1319.25 989.477 1318.01C991.501 1316.72 993.076 1314.95 994.201 1312.7C995.326 1310.45 995.888 1307.86 995.888 1304.94C995.888 1301.84 994.96 1299.4 993.104 1297.6C991.305 1295.8 988.774 1294.9 985.511 1294.9C982.924 1294.9 980.618 1295.54 978.593 1296.84C976.569 1298.08 974.994 1299.82 973.869 1302.07C972.744 1304.32 972.182 1306.91 972.182 1309.83C972.182 1312.92 973.081 1315.37 974.881 1317.17C976.737 1318.97 979.296 1319.87 982.559 1319.87ZM1082.23 1284.01C1087.18 1284.01 1091.12 1285.36 1094.04 1288.06C1096.97 1290.71 1098.43 1294.48 1098.43 1299.37C1098.43 1301.17 1098.23 1303.02 1097.84 1304.94L1092.86 1330.08H1079.7L1084.51 1305.87C1084.73 1304.74 1084.85 1303.59 1084.85 1302.41C1084.85 1300.1 1084.23 1298.36 1082.99 1297.18C1081.81 1295.99 1080.04 1295.4 1077.68 1295.4C1071.32 1295.4 1067.35 1299.2 1065.78 1306.79L1061.14 1330.08H1047.98L1052.79 1305.87C1053.01 1304.74 1053.12 1303.62 1053.12 1302.49C1053.12 1300.18 1052.51 1298.44 1051.27 1297.26C1050.09 1296.02 1048.32 1295.4 1045.95 1295.4C1039.6 1295.4 1035.6 1299.26 1033.97 1306.96L1029.42 1330.08H1016.26L1025.28 1284.69H1037.77L1036.76 1289.41C1040.69 1285.81 1045.45 1284.01 1051.02 1284.01C1054.17 1284.01 1056.95 1284.66 1059.37 1285.95C1061.84 1287.19 1063.7 1289.02 1064.94 1291.44C1067.13 1289.02 1069.69 1287.19 1072.61 1285.95C1075.54 1284.66 1078.74 1284.01 1082.23 1284.01ZM1116.81 1300.47C1114.56 1300.47 1112.7 1299.76 1111.24 1298.36C1109.78 1296.89 1109.04 1295.07 1109.04 1292.87C1109.04 1290.29 1109.89 1288.18 1111.58 1286.55C1113.26 1284.91 1115.34 1284.1 1117.82 1284.1C1120.07 1284.1 1121.9 1284.8 1123.3 1286.21C1124.77 1287.61 1125.5 1289.44 1125.5 1291.69C1125.5 1294.22 1124.62 1296.33 1122.88 1298.02C1121.19 1299.65 1119.17 1300.47 1116.81 1300.47ZM1110.73 1330.75C1108.48 1330.75 1106.63 1330.05 1105.16 1328.64C1103.7 1327.18 1102.97 1325.35 1102.97 1323.16C1102.97 1320.57 1103.81 1318.46 1105.5 1316.83C1107.19 1315.2 1109.27 1314.39 1111.74 1314.39C1113.99 1314.39 1115.82 1315.09 1117.23 1316.5C1118.69 1317.9 1119.42 1319.73 1119.42 1321.98C1119.42 1324.51 1118.55 1326.62 1116.81 1328.31C1115.12 1329.94 1113.09 1330.75 1110.73 1330.75Z" fill="white"/>
<path d="M662.952 1749.29L653.925 1794.68H641.438L642.282 1790.2C638.514 1793.64 633.874 1795.35 628.362 1795.35C624.818 1795.35 621.556 1794.54 618.575 1792.9C615.594 1791.27 613.204 1788.94 611.404 1785.9C609.661 1782.81 608.789 1779.18 608.789 1775.02C608.789 1770.01 609.886 1765.51 612.079 1761.52C614.329 1757.47 617.366 1754.32 621.191 1752.07C625.015 1749.76 629.233 1748.61 633.845 1748.61C640.82 1748.61 645.741 1750.89 648.61 1755.45L649.791 1749.29H662.952ZM632.411 1784.47C634.998 1784.47 637.304 1783.85 639.329 1782.61C641.354 1781.32 642.929 1779.55 644.054 1777.3C645.179 1775.05 645.741 1772.46 645.741 1769.53C645.741 1766.44 644.813 1763.99 642.957 1762.19C641.157 1760.4 638.626 1759.5 635.364 1759.5C632.777 1759.5 630.471 1760.14 628.446 1761.44C626.421 1762.67 624.846 1764.42 623.722 1766.67C622.597 1768.92 622.034 1771.5 622.034 1774.43C622.034 1777.52 622.934 1779.97 624.734 1781.77C626.59 1783.57 629.149 1784.47 632.411 1784.47ZM686.526 1754.69C688.495 1752.55 690.857 1751 693.613 1750.05C696.425 1749.09 699.715 1748.61 703.484 1748.61L701.121 1760.76C699.547 1760.65 698.534 1760.59 698.084 1760.59C694.091 1760.59 690.885 1761.58 688.466 1763.54C686.104 1765.51 684.501 1768.58 683.658 1772.74L679.271 1794.68H666.11L675.137 1749.29H687.623L686.526 1754.69ZM718.814 1795.35C714.877 1795.35 711.137 1794.93 707.593 1794.09C704.106 1793.19 701.378 1792.03 699.41 1790.63L704.472 1781.09C706.44 1782.39 708.831 1783.43 711.643 1784.21C714.511 1785 717.38 1785.4 720.248 1785.4C723.229 1785.4 725.451 1785.03 726.913 1784.3C728.375 1783.51 729.106 1782.41 729.106 1781.01C729.106 1779.88 728.46 1779.07 727.166 1778.56C725.872 1778.06 723.791 1777.52 720.923 1776.96C717.661 1776.34 714.961 1775.67 712.824 1774.93C710.743 1774.2 708.915 1773.02 707.34 1771.39C705.821 1769.7 705.062 1767.43 705.062 1764.56C705.062 1759.55 707.143 1755.64 711.305 1752.83C715.524 1750.02 721.035 1748.61 727.841 1748.61C730.991 1748.61 734.056 1748.95 737.037 1749.62C740.018 1750.3 742.549 1751.23 744.63 1752.41L739.905 1762.03C736.193 1759.72 731.722 1758.57 726.491 1758.57C723.623 1758.57 721.429 1758.99 719.911 1759.83C718.448 1760.68 717.717 1761.74 717.717 1763.04C717.717 1764.22 718.364 1765.09 719.657 1765.65C720.951 1766.16 723.116 1766.72 726.154 1767.34C729.36 1767.96 731.975 1768.63 734 1769.37C736.081 1770.04 737.881 1771.19 739.399 1772.83C740.918 1774.46 741.677 1776.68 741.677 1779.49C741.677 1784.55 739.54 1788.46 735.265 1791.22C731.047 1793.97 725.563 1795.35 718.814 1795.35ZM782.531 1748.61C787.593 1748.61 791.615 1749.96 794.596 1752.66C797.576 1755.36 799.067 1759.19 799.067 1764.14C799.067 1765.94 798.87 1767.73 798.476 1769.53L793.414 1794.68H780.253L785.147 1770.38C785.372 1769.42 785.484 1768.38 785.484 1767.26C785.484 1764.89 784.837 1763.09 783.544 1761.86C782.25 1760.62 780.31 1760 777.722 1760C774.348 1760 771.536 1760.99 769.286 1762.95C767.092 1764.87 765.602 1767.76 764.814 1771.64L760.259 1794.68H747.098L759.584 1732.08H772.745L768.526 1753.42C772.407 1750.21 777.076 1748.61 782.531 1748.61ZM861.014 1749.29L851.987 1794.68H839.501L840.344 1790.2C836.576 1793.64 831.936 1795.35 826.424 1795.35C822.881 1795.35 819.618 1794.54 816.637 1792.9C813.657 1791.27 811.266 1788.94 809.466 1785.9C807.723 1782.81 806.851 1779.18 806.851 1775.02C806.851 1770.01 807.948 1765.51 810.141 1761.52C812.391 1757.47 815.428 1754.32 819.253 1752.07C823.077 1749.76 827.296 1748.61 831.908 1748.61C838.882 1748.61 843.803 1750.89 846.672 1755.45L847.853 1749.29H861.014ZM830.473 1784.47C833.061 1784.47 835.367 1783.85 837.391 1782.61C839.416 1781.32 840.991 1779.55 842.116 1777.3C843.241 1775.05 843.803 1772.46 843.803 1769.53C843.803 1766.44 842.875 1763.99 841.019 1762.19C839.219 1760.4 836.688 1759.5 833.426 1759.5C830.839 1759.5 828.533 1760.14 826.508 1761.44C824.483 1762.67 822.909 1764.42 821.784 1766.67C820.659 1768.92 820.096 1771.5 820.096 1774.43C820.096 1777.52 820.996 1779.97 822.796 1781.77C824.652 1783.57 827.211 1784.47 830.473 1784.47ZM930.146 1748.61C935.095 1748.61 939.032 1749.96 941.957 1752.66C944.882 1755.31 946.344 1759.07 946.344 1763.97C946.344 1765.77 946.147 1767.62 945.754 1769.53L940.776 1794.68H927.615L932.424 1770.46C932.649 1769.34 932.761 1768.18 932.761 1767C932.761 1764.7 932.143 1762.95 930.905 1761.77C929.724 1760.59 927.952 1760 925.59 1760C919.235 1760 915.269 1763.8 913.695 1771.39L909.054 1794.68H895.893L900.702 1770.46C900.927 1769.34 901.04 1768.21 901.04 1767.09C901.04 1764.78 900.421 1763.04 899.184 1761.86C898.002 1760.62 896.231 1760 893.869 1760C887.513 1760 883.52 1763.85 881.889 1771.56L877.333 1794.68H864.172L873.199 1749.29H885.685L884.673 1754.01C888.61 1750.41 893.362 1748.61 898.93 1748.61C902.08 1748.61 904.864 1749.26 907.283 1750.55C909.757 1751.79 911.613 1753.62 912.851 1756.04C915.044 1753.62 917.603 1751.79 920.528 1750.55C923.453 1749.26 926.659 1748.61 930.146 1748.61ZM982.813 1735.62L971.002 1794.68H957.335L966.952 1746.59H955.141L957.335 1735.62H982.813ZM1007.75 1795.69C1001.17 1795.69 995.969 1793.72 992.144 1789.78C988.32 1785.79 986.407 1780.31 986.407 1773.33C986.407 1766.24 987.701 1759.75 990.288 1753.84C992.932 1747.94 996.588 1743.27 1001.26 1739.84C1005.92 1736.35 1011.24 1734.61 1017.2 1734.61C1023.78 1734.61 1028.98 1736.6 1032.81 1740.6C1036.63 1744.53 1038.55 1749.99 1038.55 1756.96C1038.55 1764.05 1037.22 1770.55 1034.58 1776.45C1031.99 1782.36 1028.37 1787.05 1023.7 1790.54C1019.03 1793.97 1013.71 1795.69 1007.75 1795.69ZM1009.02 1784.13C1012.28 1784.13 1015.09 1782.72 1017.45 1779.91C1019.87 1777.1 1021.7 1773.61 1022.94 1769.45C1024.18 1765.23 1024.79 1761.18 1024.79 1757.3C1024.79 1753.53 1024.01 1750.75 1022.43 1748.95C1020.91 1747.09 1018.75 1746.17 1015.94 1746.17C1012.67 1746.17 1009.83 1747.57 1007.41 1750.38C1005.05 1753.2 1003.25 1756.71 1002.02 1760.93C1000.78 1765.09 1000.16 1769.11 1000.16 1772.99C1000.16 1776.76 1000.92 1779.57 1002.44 1781.43C1004.01 1783.23 1006.21 1784.13 1009.02 1784.13Z" fill="white"/>
<path d="M658.454 1658.63H670.94L666.047 1682.93C663.066 1685.23 659.607 1687 655.67 1688.24C651.733 1689.48 647.655 1690.1 643.437 1690.1C637.531 1690.1 632.385 1689.03 627.998 1686.89C623.611 1684.75 620.208 1681.75 617.789 1677.86C615.427 1673.98 614.246 1669.51 614.246 1664.45C614.246 1657.76 615.793 1651.71 618.886 1646.31C621.98 1640.91 626.338 1636.69 631.963 1633.66C637.587 1630.56 644.055 1629.02 651.367 1629.02C656.991 1629.02 661.857 1629.89 665.962 1631.63C670.124 1633.38 673.471 1635.93 676.002 1639.31L666.215 1647.24C664.247 1644.93 662.025 1643.27 659.551 1642.26C657.076 1641.19 654.151 1640.66 650.776 1640.66C646.277 1640.66 642.312 1641.67 638.881 1643.7C635.45 1645.67 632.778 1648.39 630.866 1651.88C629.01 1655.37 628.082 1659.28 628.082 1663.61C628.082 1668.16 629.544 1671.79 632.469 1674.49C635.45 1677.13 639.696 1678.46 645.208 1678.46C648.695 1678.46 651.958 1677.75 654.995 1676.35L658.454 1658.63ZM685.66 1643.7H698.737L689.71 1689.09H676.633L685.66 1643.7ZM694.435 1637.37C692.185 1637.37 690.329 1636.72 688.866 1635.43C687.46 1634.08 686.757 1632.45 686.757 1630.54C686.757 1628.29 687.545 1626.43 689.119 1624.97C690.751 1623.45 692.86 1622.69 695.447 1622.69C697.753 1622.69 699.609 1623.34 701.015 1624.63C702.477 1625.87 703.209 1627.41 703.209 1629.27C703.209 1631.69 702.393 1633.66 700.762 1635.18C699.131 1636.64 697.022 1637.37 694.435 1637.37ZM719.812 1673.06C719.7 1673.51 719.643 1674.12 719.643 1674.91C719.643 1677.84 721.246 1679.3 724.452 1679.3C726.196 1679.3 727.968 1678.76 729.767 1677.7L731.708 1687.06C728.783 1688.86 725.015 1689.76 720.403 1689.76C716.128 1689.76 712.697 1688.64 710.11 1686.39C707.523 1684.14 706.229 1681.04 706.229 1677.11C706.229 1675.98 706.37 1674.66 706.651 1673.14L710.279 1654.83H703.276L705.301 1644.71H712.304L714.497 1633.66H727.658L725.465 1644.71H736.77L734.745 1654.83H723.44L719.812 1673.06ZM774.023 1643.02C779.085 1643.02 783.107 1644.37 786.088 1647.07C789.068 1649.77 790.559 1653.6 790.559 1658.54C790.559 1660.34 790.362 1662.14 789.968 1663.94L784.906 1689.09H771.745L776.639 1664.79C776.864 1663.83 776.976 1662.79 776.976 1661.67C776.976 1659.3 776.329 1657.5 775.036 1656.27C773.742 1655.03 771.802 1654.41 769.214 1654.41C765.84 1654.41 763.028 1655.4 760.778 1657.36C758.584 1659.28 757.094 1662.17 756.306 1666.05L751.751 1689.09H738.59L751.076 1626.49H764.237L760.018 1647.83C763.899 1644.62 768.568 1643.02 774.023 1643.02ZM851.674 1643.7L842.647 1689.09H830.161L831.089 1684.19C829.12 1686.05 826.871 1687.45 824.34 1688.41C821.809 1689.31 819.137 1689.76 816.325 1689.76C811.375 1689.76 807.41 1688.41 804.429 1685.71C801.505 1683.01 800.042 1679.21 800.042 1674.32C800.042 1672.47 800.239 1670.64 800.633 1668.84L805.61 1643.7H818.771L813.963 1667.99C813.738 1669.06 813.625 1670.16 813.625 1671.28C813.625 1676.01 816.156 1678.37 821.218 1678.37C824.536 1678.37 827.264 1677.41 829.402 1675.5C831.595 1673.53 833.086 1670.61 833.873 1666.73L838.513 1643.7H851.674ZM889.346 1643.02C892.889 1643.02 896.151 1643.84 899.132 1645.47C902.169 1647.1 904.56 1649.46 906.303 1652.55C908.103 1655.59 909.003 1659.19 909.003 1663.35C909.003 1668.36 907.878 1672.89 905.628 1676.94C903.435 1680.93 900.426 1684.08 896.601 1686.39C892.776 1688.64 888.53 1689.76 883.862 1689.76C880.318 1689.76 877.253 1689.14 874.666 1687.9C872.079 1686.67 870.082 1684.81 868.676 1682.34L867.326 1689.09H854.84L867.326 1626.49H880.487L876.269 1647.58C879.925 1644.54 884.284 1643.02 889.346 1643.02ZM882.343 1678.88C884.93 1678.88 887.236 1678.26 889.261 1677.02C891.286 1675.73 892.861 1673.96 893.986 1671.71C895.111 1669.46 895.673 1666.87 895.673 1663.94C895.673 1660.85 894.745 1658.4 892.889 1656.6C891.089 1654.8 888.558 1653.9 885.296 1653.9C882.765 1653.9 880.487 1654.55 878.462 1655.85C876.438 1657.08 874.863 1658.83 873.738 1661.08C872.613 1663.33 872.051 1665.91 872.051 1668.84C872.051 1671.93 872.95 1674.38 874.75 1676.18C876.55 1677.98 879.081 1678.88 882.343 1678.88ZM925.153 1659.47C922.903 1659.47 921.047 1658.77 919.585 1657.36C918.122 1655.9 917.391 1654.07 917.391 1651.88C917.391 1649.29 918.235 1647.18 919.922 1645.55C921.61 1643.92 923.691 1643.11 926.165 1643.11C928.415 1643.11 930.243 1643.81 931.649 1645.22C933.111 1646.62 933.843 1648.45 933.843 1650.7C933.843 1653.23 932.971 1655.34 931.227 1657.03C929.54 1658.66 927.515 1659.47 925.153 1659.47ZM919.079 1689.76C916.829 1689.76 914.973 1689.06 913.51 1687.65C912.048 1686.19 911.317 1684.36 911.317 1682.17C911.317 1679.58 912.161 1677.47 913.848 1675.84C915.535 1674.21 917.616 1673.39 920.091 1673.39C922.341 1673.39 924.169 1674.1 925.575 1675.5C927.037 1676.91 927.768 1678.74 927.768 1680.99C927.768 1683.52 926.896 1685.63 925.153 1687.31C923.466 1688.94 921.441 1689.76 919.079 1689.76Z" fill="white"/>
<path d="M449.227 206.341C449.674 206.181 449.173 203.711 448.057 200.577L446.104 195.091L486.852 180.584L527.599 166.077L529.25 170.713C530.298 173.656 530.602 175.643 530.084 176.155C529.43 176.799 529.496 176.983 530.409 177.069C531.038 177.129 531.918 178.206 532.365 179.463L533.179 181.749L541.015 178.959L548.851 176.169L575.076 249.828L601.301 323.486L592.681 326.555C587.457 328.415 584.171 329.933 584.34 330.408C584.494 330.839 584.972 331.066 585.403 330.912C585.868 330.747 587.21 333.507 588.697 337.686L591.208 344.738L549.677 359.524L508.146 374.311L505.357 366.475L502.567 358.639L494.731 361.429L486.895 364.218L460.67 290.56L434.445 216.901L442.281 214.111L450.117 211.321L449.28 208.971C448.82 207.678 448.796 206.494 449.227 206.341Z" fill="#F8CC14"/>
<rect x="449.559" y="209.753" width="88.1693" height="124.768" transform="rotate(-19.5973 449.559 209.753)" fill="#007AE0"/>
<rect x="530.35" y="327.556" width="16.6357" height="16.6357" transform="rotate(-19.5973 530.35 327.556)" fill="#007AE0"/>
<path d="M417.137 621.896L415.61 616.976L414.083 612.057L491.733 587.955L569.383 563.852L570.91 568.771L572.437 573.691L566.274 575.604C561.022 577.234 560.219 577.864 560.843 579.874C561.245 581.17 560.969 582.727 560.228 583.333C559.194 584.179 559.373 584.591 560.997 585.106C564.218 586.129 561.361 590.611 556.533 592.11C551.161 593.778 549.913 596.903 551.974 603.542L553.719 609.163L547.556 611.076L541.394 612.989L543.302 619.138L545.211 625.287L539.048 627.2L532.885 629.113L534.794 635.262L536.703 641.411L530.54 643.324L524.377 645.237L526.668 652.615L528.958 659.994L536.353 657.699L543.749 655.403L541.84 649.254L539.931 643.105L546.094 641.192L552.257 639.279L550.348 633.13L548.439 626.981L554.602 625.069L560.765 623.156L558.474 615.777L556.184 608.398L561.818 606.649C565.438 605.526 567.961 603.937 568.874 602.207C569.907 600.25 569.834 599.507 568.606 599.482C567.677 599.463 566.418 597.834 565.806 595.861C564.724 592.376 564.868 592.219 570.855 590.361L577.017 588.448L588.851 626.572L600.685 664.696L524.796 688.252C460.668 708.157 448.549 711.621 446.601 710.597C444.711 709.606 442.353 703.133 433.551 674.777C421.639 636.399 421.665 636.67 429.642 634.194L434.043 632.827L435.952 638.976L437.86 645.126L442.262 643.759C447.69 642.074 450.907 643.624 452.476 648.679C454.045 653.733 457.262 655.283 462.69 653.598C466.916 652.286 467.146 652.407 468.455 656.623C470.136 662.039 473.239 663.807 478.304 662.234C483.37 660.662 486.473 662.429 488.154 667.845L489.517 672.237L495.68 670.324L501.842 668.411L503.751 674.56L505.66 680.709L519.218 676.501L532.775 672.292L531.031 666.671C528.511 658.554 526.623 658.022 514.108 661.907L503.544 665.186L502.181 660.795C500.354 654.909 497.387 653.614 490.57 655.73L484.936 657.479L483.027 651.33L481.119 645.181L474.956 647.094L468.793 649.007L466.885 642.858L464.976 636.709L458.813 638.622L452.651 640.535L450.906 634.913C448.795 628.111 446.045 626.405 440.146 628.236L435.745 629.603L433.836 623.454L431.927 617.305L424.532 619.6L417.137 621.896Z" fill="#F8CC14"/>
</svg>
