<svg width="978" height="957" viewBox="0 0 978 957" fill="none" xmlns="http://www.w3.org/2000/svg">
<path d="M124.069 159.881V32L64.6689 101.856L124.069 171.712V159.881Z" fill="#007AE0"/>
<path d="M124.069 409.447V281.565L64.6689 351.421L124.069 421.277V409.447Z" fill="#007AE0"/>
<path d="M124.548 264.556V190.302L90.0576 230.864L124.548 271.425V264.556Z" fill="#007AE0"/>
<path d="M77.6026 212.727V138.474L112.093 179.035L77.6026 219.597V212.727Z" fill="#007AE0"/>
<path d="M61.3154 229.383V115.939L8.62207 177.908L61.3154 239.877V229.383Z" fill="#007AE0"/>
<path d="M43.5698 354.899L111.779 274.682H37.2597V362.32L43.5698 354.899Z" fill="#007AE0"/>
<path d="M124 957H844V125.763V6.55651e-06H692.566H124V957Z" fill="#007AE0"/>
<path fill-rule="evenodd" clip-rule="evenodd" d="M237.617 773.402L237.299 774.685L234.639 774.025L231.978 773.365L231.66 774.648L231.342 775.93L230.012 775.601L228.682 775.271L228.364 776.553L228.046 777.836L226.716 777.506L225.386 777.176L225.068 778.459L224.75 779.741L223.42 779.412L222.09 779.082L221.772 780.364L221.453 781.647L220.123 781.317L218.793 780.987L218.475 782.27L218.157 783.553L216.827 783.223L215.497 782.893L214.861 785.458L214.225 788.023L212.895 787.693L211.565 787.364L210.929 789.929L210.293 792.494L208.962 792.164L207.632 791.834L204.77 803.378L201.908 814.921L203.238 815.251L204.568 815.58L203.932 818.146L203.296 820.711L204.626 821.041L205.956 821.37L205.638 822.653L205.32 823.936L206.65 824.265L207.98 824.595L207.662 825.878L207.344 827.16L208.674 827.49L210.004 827.82L209.686 829.103L209.368 830.385L210.698 830.715L212.028 831.045L211.71 832.327L211.392 833.61L212.722 833.94L214.052 834.27L213.734 835.552L213.416 836.835L214.746 837.165L216.076 837.495L215.758 838.777L215.44 840.06L218.1 840.719L220.761 841.379L220.443 842.662L220.125 843.944L222.785 844.604L225.445 845.263L226.717 840.133L227.989 835.003L222.669 833.683L217.349 832.364L217.667 831.082L217.985 829.799L216.655 829.469L215.324 829.139L215.642 827.857L215.961 826.574L214.63 826.244L213.3 825.915L213.618 824.632L213.936 823.349L212.606 823.02L211.276 822.69L211.594 821.407L211.912 820.125L214.572 820.784L217.233 821.444L216.915 822.726L216.597 824.009L217.927 824.339L219.257 824.669L218.939 825.951L218.621 827.234L219.951 827.564L221.281 827.893L220.963 829.176L220.645 830.459L223.305 831.118L225.965 831.778L226.283 830.495L226.601 829.213L227.931 829.543L229.261 829.872L229.579 828.59L229.897 827.307L231.228 827.637L232.558 827.967L232.876 826.684L233.194 825.402L227.873 824.082L222.553 822.763L222.871 821.481L223.189 820.198L221.859 819.868L220.529 819.538L220.847 818.256L221.165 816.973L219.835 816.643L218.505 816.314L218.823 815.031L219.141 813.748L217.811 813.419L216.481 813.089L218.389 805.393L220.297 797.698L221.627 798.027L222.957 798.357L223.275 797.075L223.593 795.792L224.924 796.122L226.254 796.452L226.572 795.169L226.89 793.887L225.56 793.557L224.23 793.227L225.184 789.379L226.138 785.531L230.128 786.521L234.118 787.51L233.8 788.793L233.482 790.076L234.812 790.405L236.142 790.735L235.824 792.018L235.506 793.3L236.836 793.63L238.166 793.96L238.485 792.677L238.803 791.395L245.453 793.044L252.103 794.693L251.785 795.976L251.467 797.258L252.797 797.588L254.128 797.918L254.446 796.635L254.764 795.353L256.094 795.682L257.424 796.012L257.742 794.73L258.06 793.447L262.05 794.437L266.04 795.426L265.086 799.274L264.132 803.122L262.802 802.792L261.472 802.462L261.154 803.744L260.836 805.027L262.166 805.357L263.496 805.687L263.178 806.969L262.86 808.252L264.19 808.582L265.52 808.911L263.612 816.607L261.704 824.303L260.374 823.973L259.044 823.643L258.726 824.925L258.407 826.208L257.077 825.878L255.747 825.548L255.429 826.831L255.111 828.114L253.781 827.784L252.451 827.454L252.133 828.737L251.815 830.019L246.495 828.7L241.174 827.381L240.856 828.663L240.538 829.946L241.868 830.276L243.198 830.605L242.88 831.888L242.562 833.171L243.892 833.5L245.222 833.83L243.314 841.526L241.406 849.221L244.066 849.881L246.726 850.54L247.044 849.258L247.362 847.975L248.693 848.305L250.023 848.635L250.341 847.352L250.659 846.07L251.989 846.4L253.319 846.729L253.637 845.447L253.955 844.164L255.285 844.494L256.615 844.824L256.933 843.541L257.251 842.259L258.581 842.589L259.911 842.918L260.229 841.636L260.547 840.353L261.878 840.683L263.208 841.013L263.526 839.73L263.844 838.448L265.174 838.777L266.504 839.107L266.822 837.825L267.14 836.542L268.47 836.872L269.8 837.202L270.436 834.637L271.072 832.071L272.402 832.401L273.732 832.731L276.595 821.188L279.457 809.645L278.127 809.315L276.797 808.985L277.433 806.42L278.069 803.855L276.739 803.525L275.409 803.195L276.045 800.63L276.681 798.065L275.351 797.735L274.021 797.405L274.339 796.122L274.657 794.84L273.327 794.51L271.997 794.18L272.315 792.898L272.633 791.615L271.303 791.285L269.973 790.955L270.291 789.673L270.609 788.39L269.279 788.06L267.949 787.73L268.267 786.448L268.585 785.165L267.255 784.836L265.925 784.506L266.243 783.223L266.561 781.941L263.9 781.281L261.24 780.621L261.558 779.339L261.876 778.056L249.906 775.088L237.935 772.119L237.617 773.402Z" fill="#F8CC14"/>
<path fill-rule="evenodd" clip-rule="evenodd" d="M222.702 430.656L222.169 433.504L219.321 432.971L216.473 432.438L210.64 463.601L204.807 494.765L207.655 495.298L210.504 495.831L209.971 498.679L209.438 501.527L226.36 504.695L243.282 507.862L245.383 496.636L247.484 485.411L242.027 484.389C237.52 483.546 236.535 483.318 236.375 483.084C236.135 482.733 236.197 482.316 236.499 482.255C236.669 482.221 236.672 482.151 236.509 481.969C236.347 481.788 236.349 481.718 236.519 481.684C236.786 481.629 236.94 481.009 236.697 480.964C236.59 480.944 236.828 479.337 237.363 476.481C238.043 472.846 238.248 471.993 238.48 471.834C238.715 471.674 239.716 471.818 244.222 472.661L249.679 473.683L251.78 462.457L253.881 451.232L256.729 451.765L259.578 452.298L260.111 449.45L260.644 446.601L269.189 448.201L277.733 449.8L276.667 455.496L275.601 461.193L270.144 460.172C265.27 459.259 264.651 459.174 264.355 459.378C264.113 459.543 264.076 459.634 264.217 459.713C264.472 459.854 264.302 460.754 264.007 460.829C263.825 460.876 263.817 460.915 263.97 461.025C264.215 461.2 261.696 474.891 261.428 474.841C261.179 474.795 261.133 475.295 261.356 475.62C261.517 475.855 262.502 476.083 267.008 476.926L272.465 477.947L271.412 483.572C270.471 488.603 270.324 489.221 270.027 489.424C269.786 489.59 269.687 489.592 269.665 489.431C269.629 489.169 269.006 489.015 268.961 489.257C268.941 489.365 267.366 489.132 264.573 488.609C261.781 488.087 260.228 487.734 260.249 487.627C260.266 487.534 260.129 487.431 259.945 487.396C259.761 487.362 259.596 487.409 259.578 487.501C259.561 487.593 259.396 487.64 259.212 487.606C259.028 487.571 258.863 487.619 258.845 487.711C258.828 487.803 258.89 487.892 258.982 487.91C259.092 487.93 258.449 491.683 257.111 498.831C255.773 505.98 255.015 509.711 254.905 509.691C254.813 509.673 254.723 509.735 254.706 509.827C254.686 509.936 257.635 510.548 263.219 511.594L271.764 513.193L272.297 510.345L272.831 507.496L275.679 508.029L278.527 508.563L284.36 477.399L290.193 446.236L287.344 445.703L284.496 445.17L285.029 442.321L285.562 439.473L254.399 433.64L223.236 427.807L222.702 430.656Z" fill="#F8CC14"/>
<path fill-rule="evenodd" clip-rule="evenodd" d="M203.223 618.561L203.925 621.292L201.194 621.994L198.463 622.696L206.143 652.58L213.823 682.464L216.554 681.762L219.286 681.06L219.988 683.791L220.69 686.522L236.917 682.352L253.144 678.181L250.378 667.417L247.611 656.652L242.378 657.997C238.057 659.108 237.094 659.312 236.856 659.171C236.5 658.961 236.384 658.568 236.625 658.39C236.761 658.289 236.734 658.226 236.516 658.133C236.298 658.04 236.271 657.977 236.407 657.877C236.62 657.719 236.501 657.11 236.268 657.169C236.165 657.196 235.714 655.68 235.01 652.942C234.115 649.456 233.945 648.619 234.084 648.384C234.225 648.146 235.166 647.861 239.487 646.75L244.721 645.406L241.954 634.641L239.187 623.876L241.919 623.174L244.65 622.472L243.948 619.741L243.246 617.01L251.44 614.904L259.634 612.798L261.038 618.261L262.442 623.723L257.209 625.068C252.535 626.269 251.954 626.449 251.776 626.75C251.631 626.996 251.636 627.092 251.793 627.103C252.076 627.123 252.296 627.985 252.067 628.174C251.926 628.29 251.935 628.328 252.115 628.361C252.403 628.415 255.816 641.526 255.559 641.592C255.32 641.654 255.485 642.114 255.816 642.309C256.054 642.45 257.017 642.245 261.338 641.135L266.571 639.79L267.957 645.183C269.197 650.007 269.322 650.613 269.144 650.914C268.999 651.16 268.913 651.202 268.827 651.069C268.687 650.853 268.075 650.974 268.135 651.206C268.161 651.309 266.677 651.752 263.999 652.44C261.321 653.129 259.807 653.456 259.78 653.353C259.758 653.265 259.594 653.23 259.418 653.275C259.241 653.321 259.115 653.43 259.138 653.518C259.16 653.607 259.034 653.716 258.858 653.762C258.681 653.807 258.555 653.917 258.577 654.005C258.6 654.093 258.691 654.147 258.779 654.124C258.885 654.097 259.862 657.671 261.624 664.526C297.9 658.233 259.037 673.418 258.932 673.445C250.012 665.993 253.121 678.093 253.144 678.181C253.171 678.286 266.908 674.644 272.263 673.267L280.457 671.162L279.755 668.43L279.053 665.699L281.785 664.997L284.516 664.295L276.836 634.411L269.155 604.528L266.424 605.23L263.693 605.931L262.991 603.2L262.289 600.469L232.405 608.149L202.521 615.829L203.223 618.561Z" fill="#F8CC14"/>
<rect x="219.066" y="621.972" width="46.5626" height="62.9225" transform="rotate(-14.4134 219.066 621.972)" fill="#F8CC14"/>
<path fill-rule="evenodd" clip-rule="evenodd" d="M246.473 622.724L227.366 627.635L228.184 630.819L224.363 631.801L225.017 634.35L221.197 635.331L222.179 639.152L219.631 639.807L224.705 659.551L231.075 657.914L226 638.171L226 638.171L226 638.17L229.821 637.188L229.003 634.004L248.11 629.093L246.473 622.724ZM251.114 624.926L247.293 625.908L248.93 632.277L252.75 631.295L252.751 631.296L257.825 651.039L264.194 649.403L259.119 629.658L256.572 630.313L255.59 626.492L251.769 627.474L251.114 624.926ZM237.352 666.486L256.459 661.576L255.641 658.392L259.463 657.41L258.808 654.861L262.628 653.879L261.646 650.058L257.825 651.04L257.825 651.041L254.004 652.023L254.823 655.207L235.715 660.117L237.352 666.486ZM236.533 663.303L232.711 664.285L232.056 661.737L228.235 662.718L227.253 658.897L231.075 657.915L231.075 657.916L234.896 656.934L236.533 663.303Z" fill="#007AE0"/>
<rect x="254.256" y="610.793" width="10" height="9" transform="rotate(-14.4134 254.256 610.793)" fill="#007AE0"/>
<rect x="255.798" y="616.734" width="3.28806" height="9.86417" transform="rotate(-104.413 255.798 616.734)" fill="#007AE0"/>
<path d="M316.945 162.341C313.829 162.341 311.365 161.409 309.554 159.544C307.743 157.653 306.838 155.057 306.838 151.754C306.838 148.398 307.45 145.322 308.675 142.526C309.927 139.729 311.658 137.519 313.869 135.894C316.079 134.243 318.596 133.417 321.419 133.417C324.535 133.417 326.999 134.363 328.81 136.254C330.621 138.118 331.527 140.701 331.527 144.004C331.527 147.36 330.901 150.436 329.649 153.232C328.424 156.029 326.706 158.253 324.495 159.904C322.285 161.528 319.768 162.341 316.945 162.341ZM317.544 156.868C319.089 156.868 320.421 156.202 321.539 154.87C322.684 153.538 323.55 151.887 324.136 149.916C324.722 147.919 325.015 146.001 325.015 144.164C325.015 142.379 324.642 141.061 323.896 140.209C323.177 139.33 322.152 138.89 320.82 138.89C319.275 138.89 317.93 139.556 316.785 140.888C315.667 142.219 314.814 143.884 314.228 145.881C313.642 147.852 313.349 149.757 313.349 151.594C313.349 153.379 313.709 154.71 314.428 155.589C315.174 156.441 316.213 156.868 317.544 156.868ZM347.621 133.897L342.028 161.861H335.556L340.111 139.09H334.518L335.556 133.897H347.621ZM363.266 133.897L357.673 161.861H351.201L355.755 139.09H350.162L351.201 133.897H363.266ZM365.806 148.119H377.112L376.113 153.112H364.808L365.806 148.119ZM401.33 138.091L393.5 145.402C395.444 145.855 396.949 146.694 398.014 147.919C399.08 149.144 399.612 150.662 399.612 152.473C399.612 154.364 399.053 156.055 397.934 157.547C396.842 159.038 395.311 160.21 393.34 161.062C391.369 161.915 389.132 162.341 386.629 162.341C384.578 162.341 382.66 162.061 380.876 161.502C379.091 160.942 377.6 160.143 376.402 159.105L379.518 154.351C380.45 155.15 381.568 155.776 382.873 156.228C384.205 156.681 385.603 156.908 387.068 156.908C388.986 156.908 390.464 156.561 391.502 155.869C392.541 155.15 393.061 154.151 393.061 152.873C393.061 151.861 392.674 151.115 391.902 150.635C391.156 150.129 390.011 149.876 388.466 149.876H385.51L386.349 145.602L393.3 139.09H381.475L382.554 133.897H402.129L401.33 138.091ZM424.777 138.091L416.947 145.402C418.891 145.855 420.396 146.694 421.461 147.919C422.527 149.144 423.059 150.662 423.059 152.473C423.059 154.364 422.5 156.055 421.381 157.547C420.289 159.038 418.758 160.21 416.787 161.062C414.816 161.915 412.579 162.341 410.076 162.341C408.025 162.341 406.107 162.061 404.323 161.502C402.538 160.942 401.047 160.143 399.849 159.105L402.965 154.351C403.897 155.15 405.015 155.776 406.32 156.228C407.652 156.681 409.05 156.908 410.515 156.908C412.433 156.908 413.911 156.561 414.949 155.869C415.988 155.15 416.508 154.151 416.508 152.873C416.508 151.861 416.121 151.115 415.349 150.635C414.603 150.129 413.458 149.876 411.913 149.876H408.957L409.796 145.602L416.747 139.09H404.922L406.001 133.897H425.576L424.777 138.091ZM451.056 155.989H446.462L445.303 161.861H438.991L440.19 155.989H425.129L425.967 151.634L442.427 133.897H449.498L434.157 150.715H441.508L442.547 145.482H448.579L447.54 150.715H452.134L451.056 155.989ZM478.599 155.989H474.005L472.846 161.861H466.534L467.733 155.989H452.672L453.511 151.634L469.97 133.897H477.041L461.701 150.715H469.051L470.09 145.482H476.122L475.084 150.715H479.678L478.599 155.989ZM483.002 148.119H494.308L493.309 153.112H482.004L483.002 148.119ZM518.526 138.091L510.696 145.402C512.64 145.855 514.145 146.694 515.21 147.919C516.276 149.144 516.808 150.662 516.808 152.473C516.808 154.364 516.249 156.055 515.13 157.547C514.038 159.038 512.507 160.21 510.536 161.062C508.565 161.915 506.328 162.341 503.825 162.341C501.774 162.341 499.856 162.061 498.072 161.502C496.287 160.942 494.796 160.143 493.597 159.105L496.714 154.351C497.646 155.15 498.764 155.776 500.069 156.228C501.401 156.681 502.799 156.908 504.264 156.908C506.182 156.908 507.66 156.561 508.698 155.869C509.737 155.15 510.256 154.151 510.256 152.873C510.256 151.861 509.87 151.115 509.098 150.635C508.352 150.129 507.207 149.876 505.662 149.876H502.706L503.545 145.602L510.496 139.09H498.671L499.75 133.897H519.325L518.526 138.091ZM544.805 155.989H540.211L539.052 161.861H532.74L533.938 155.989H518.877L519.716 151.634L536.176 133.897H543.247L527.906 150.715H535.257L536.296 145.482H542.328L541.289 150.715H545.883L544.805 155.989ZM559.648 133.417C561.885 133.417 563.843 133.857 565.521 134.736C567.225 135.614 568.543 136.919 569.476 138.651C570.434 140.355 570.914 142.432 570.914 144.883C570.914 147.706 570.314 150.462 569.116 153.152C567.918 155.816 566.053 158.013 563.523 159.744C560.993 161.475 557.864 162.341 554.135 162.341C552.59 162.341 551.112 162.181 549.7 161.861C548.316 161.515 547.184 161.049 546.305 160.463L549.261 155.709C550.593 156.615 552.337 157.067 554.494 157.067C557.104 157.067 559.182 156.335 560.727 154.87C562.298 153.405 563.337 151.514 563.843 149.197C562.245 150.689 560.154 151.434 557.571 151.434C555.893 151.434 554.361 151.115 552.976 150.476C551.591 149.836 550.486 148.918 549.661 147.719C548.835 146.494 548.422 145.043 548.422 143.365C548.422 141.367 548.901 139.623 549.86 138.131C550.846 136.613 552.191 135.455 553.895 134.656C555.6 133.83 557.517 133.417 559.648 133.417ZM559.248 146.601C560.767 146.601 561.992 146.188 562.924 145.362C563.856 144.537 564.322 143.485 564.322 142.206C564.322 141.088 563.909 140.155 563.084 139.41C562.258 138.637 561.139 138.251 559.728 138.251C558.29 138.251 557.118 138.664 556.212 139.49C555.307 140.315 554.854 141.42 554.854 142.805C554.854 143.977 555.253 144.909 556.052 145.602C556.851 146.268 557.917 146.601 559.248 146.601ZM594.602 138.091L586.772 145.402C588.716 145.855 590.221 146.694 591.286 147.919C592.351 149.144 592.884 150.662 592.884 152.473C592.884 154.364 592.325 156.055 591.206 157.547C590.114 159.038 588.583 160.21 586.612 161.062C584.641 161.915 582.404 162.341 579.901 162.341C577.85 162.341 575.932 162.061 574.148 161.502C572.363 160.942 570.872 160.143 569.673 159.105L572.789 154.351C573.722 155.15 574.84 155.776 576.145 156.228C577.477 156.681 578.875 156.908 580.34 156.908C582.258 156.908 583.736 156.561 584.774 155.869C585.813 155.15 586.332 154.151 586.332 152.873C586.332 151.861 585.946 151.115 585.174 150.635C584.428 150.129 583.283 149.876 581.738 149.876H578.782L579.621 145.602L586.572 139.09H574.747L575.826 133.897H595.401L594.602 138.091Z" fill="white"/>
<path d="M329.462 80.0353C332.95 80.0353 335.64 80.8076 337.531 82.3523C339.449 83.8704 340.408 86.0011 340.408 88.7443C340.408 91.088 339.848 93.1387 338.73 94.8965C337.638 96.6277 336.067 97.9593 334.016 98.8915C331.992 99.8236 329.595 100.29 326.825 100.29H320.593L319.075 108H312.563L318.156 80.0353H329.462ZM327.104 95.0164C329.262 95.0164 330.926 94.5237 332.098 93.5382C333.27 92.5528 333.856 91.1413 333.856 89.3036C333.856 87.9719 333.403 86.9732 332.498 86.3074C331.619 85.6415 330.34 85.3086 328.663 85.3086H323.589L321.631 95.0164H327.104ZM358.202 86.1875C360.599 86.1875 362.503 86.8267 363.915 88.1051C365.327 89.3835 366.032 91.1945 366.032 93.5382C366.032 94.3905 365.939 95.2428 365.753 96.095L363.356 108H357.124L359.441 96.4945C359.547 96.0417 359.6 95.549 359.6 95.0164C359.6 93.8978 359.294 93.0455 358.682 92.4596C358.069 91.8737 357.15 91.5807 355.925 91.5807C354.327 91.5807 352.995 92.0468 351.93 92.9789C350.891 93.8845 350.186 95.2561 349.813 97.0938L347.655 108H341.423L347.336 78.3574H353.568L351.571 88.4646C353.408 86.9465 355.619 86.1875 358.202 86.1875ZM380.505 108.32C378.347 108.32 376.443 107.92 374.792 107.121C373.167 106.322 371.902 105.204 370.997 103.765C370.118 102.301 369.678 100.609 369.678 98.6917C369.678 96.3214 370.238 94.1907 371.356 92.2998C372.475 90.4088 374.02 88.9174 375.99 87.8254C377.961 86.7335 380.185 86.1875 382.662 86.1875C384.846 86.1875 386.75 86.587 388.375 87.386C389.999 88.185 391.251 89.3169 392.13 90.7817C393.036 92.2199 393.488 93.8978 393.488 95.8154C393.488 98.1857 392.929 100.316 391.81 102.207C390.718 104.098 389.174 105.59 387.176 106.682C385.205 107.774 382.982 108.32 380.505 108.32ZM380.904 103.166C382.103 103.166 383.181 102.873 384.14 102.287C385.099 101.675 385.845 100.836 386.377 99.7704C386.91 98.7051 387.176 97.4799 387.176 96.095C387.176 94.6302 386.75 93.4717 385.898 92.6194C385.046 91.7671 383.847 91.341 382.302 91.341C381.077 91.341 379.985 91.6473 379.027 92.2598C378.068 92.8458 377.322 93.6714 376.789 94.7367C376.257 95.802 375.99 97.0272 375.99 98.4121C375.99 99.8769 376.416 101.035 377.269 101.888C378.148 102.74 379.359 103.166 380.904 103.166ZM412.197 86.1875C414.594 86.1875 416.498 86.8267 417.909 88.1051C419.321 89.3568 420.027 91.1546 420.027 93.4983C420.027 94.3772 419.933 95.2428 419.747 96.095L417.35 108H411.118L413.435 96.4945C413.542 96.0417 413.595 95.549 413.595 95.0164C413.595 93.8978 413.289 93.0455 412.676 92.4596C412.063 91.8737 411.145 91.5807 409.919 91.5807C408.321 91.5807 406.99 92.0468 405.924 92.9789C404.886 93.8845 404.18 95.2561 403.807 97.0938L401.65 108H395.418L399.692 86.5071H405.605L405.125 88.8242C407.043 87.0664 409.4 86.1875 412.197 86.1875ZM446.604 95.6556C446.604 96.641 446.484 97.7329 446.244 98.9314H429.785C429.998 101.861 431.849 103.326 435.338 103.326C436.43 103.326 437.469 103.153 438.454 102.807C439.466 102.46 440.345 101.968 441.091 101.328L443.687 105.443C442.489 106.402 441.117 107.121 439.573 107.601C438.028 108.08 436.403 108.32 434.699 108.32C432.488 108.32 430.544 107.933 428.866 107.161C427.215 106.362 425.937 105.23 425.031 103.765C424.152 102.301 423.713 100.609 423.713 98.6917C423.713 96.3214 424.245 94.1907 425.311 92.2998C426.403 90.3822 427.907 88.8908 429.825 87.8254C431.743 86.7335 433.926 86.1875 436.377 86.1875C438.454 86.1875 440.252 86.5737 441.77 87.346C443.315 88.1184 444.5 89.2237 445.325 90.6619C446.178 92.1 446.604 93.7646 446.604 95.6556ZM436.097 90.8616C434.632 90.8616 433.394 91.2611 432.382 92.0601C431.37 92.8325 430.651 93.9111 430.224 95.296H440.891C440.891 93.9111 440.452 92.8325 439.573 92.0601C438.72 91.2611 437.562 90.8616 436.097 90.8616ZM491.313 80.0353L485.72 108H480.407L469.98 90.5021L466.464 108H460.072L465.665 80.0353H471.018L481.445 97.5731L484.921 80.0353H491.313ZM517.864 86.5071L513.589 108H507.677L508.116 105.683C507.184 106.562 506.119 107.228 504.92 107.68C503.722 108.107 502.457 108.32 501.125 108.32C498.781 108.32 496.904 107.68 495.492 106.402C494.107 105.124 493.415 103.326 493.415 101.009C493.415 100.13 493.508 99.2643 493.694 98.4121L496.051 86.5071H502.284L500.006 98.0126C499.9 98.5186 499.847 99.038 499.847 99.5706C499.847 101.808 501.045 102.926 503.442 102.926C505.013 102.926 506.305 102.474 507.317 101.568C508.356 100.636 509.062 99.251 509.435 97.4133L511.632 86.5071H517.864ZM550.604 86.1875C552.947 86.1875 554.812 86.8267 556.197 88.1051C557.581 89.3568 558.274 91.1413 558.274 93.4583C558.274 94.3106 558.181 95.1895 557.994 96.095L555.637 108H549.405L551.682 96.5345C551.789 96.0018 551.842 95.4558 551.842 94.8965C551.842 93.8046 551.549 92.9789 550.963 92.4196C550.404 91.8604 549.565 91.5807 548.446 91.5807C545.437 91.5807 543.559 93.3784 542.813 96.9739L540.616 108H534.384L536.661 96.5345C536.768 96.0018 536.821 95.4691 536.821 94.9365C536.821 93.8445 536.528 93.0189 535.942 92.4596C535.383 91.8737 534.544 91.5807 533.425 91.5807C530.416 91.5807 528.525 93.4051 527.752 97.0538L525.595 108H519.363L523.638 86.5071H529.55L529.071 88.7443C530.935 87.0398 533.186 86.1875 535.822 86.1875C537.314 86.1875 538.632 86.4938 539.777 87.1063C540.949 87.6923 541.828 88.5578 542.414 89.7031C543.453 88.5578 544.664 87.6923 546.049 87.1063C547.434 86.4938 548.952 86.1875 550.604 86.1875ZM577.603 86.1875C579.281 86.1875 580.825 86.5737 582.237 87.346C583.675 88.1184 584.807 89.237 585.633 90.7018C586.485 92.14 586.911 93.8445 586.911 95.8154C586.911 98.1857 586.378 100.33 585.313 102.247C584.274 104.138 582.849 105.63 581.038 106.722C579.227 107.787 577.217 108.32 575.006 108.32C573.328 108.32 571.877 108.027 570.651 107.441C569.426 106.855 568.481 105.976 567.815 104.804L567.176 108H561.263L567.176 78.3574H573.408L571.41 88.3448C573.142 86.9066 575.206 86.1875 577.603 86.1875ZM574.287 103.166C575.512 103.166 576.604 102.873 577.563 102.287C578.522 101.675 579.267 100.836 579.8 99.7704C580.333 98.7051 580.599 97.4799 580.599 96.095C580.599 94.6302 580.159 93.4717 579.281 92.6194C578.428 91.7671 577.23 91.341 575.685 91.341C574.487 91.341 573.408 91.6473 572.449 92.2598C571.49 92.8458 570.745 93.6714 570.212 94.7367C569.679 95.802 569.413 97.0272 569.413 98.4121C569.413 99.8769 569.839 101.035 570.691 101.888C571.544 102.74 572.742 103.166 574.287 103.166ZM612.176 95.6556C612.176 96.641 612.056 97.7329 611.817 98.9314H595.357C595.571 101.861 597.422 103.326 600.91 103.326C602.002 103.326 603.041 103.153 604.027 102.807C605.039 102.46 605.917 101.968 606.663 101.328L609.26 105.443C608.061 106.402 606.69 107.121 605.145 107.601C603.6 108.08 601.976 108.32 600.271 108.32C598.061 108.32 596.117 107.933 594.439 107.161C592.787 106.362 591.509 105.23 590.603 103.765C589.725 102.301 589.285 100.609 589.285 98.6917C589.285 96.3214 589.818 94.1907 590.883 92.2998C591.975 90.3822 593.48 88.8908 595.397 87.8254C597.315 86.7335 599.499 86.1875 601.949 86.1875C604.027 86.1875 605.824 86.5737 607.342 87.346C608.887 88.1184 610.072 89.2237 610.898 90.6619C611.75 92.1 612.176 93.7646 612.176 95.6556ZM601.67 90.8616C600.205 90.8616 598.966 91.2611 597.954 92.0601C596.942 92.8325 596.223 93.9111 595.797 95.296H606.463C606.463 93.9111 606.024 92.8325 605.145 92.0601C604.293 91.2611 603.134 90.8616 601.67 90.8616ZM623.599 89.0639C624.531 88.0518 625.65 87.3194 626.955 86.8666C628.286 86.4139 629.845 86.1875 631.629 86.1875L630.51 91.9403C629.765 91.887 629.285 91.8604 629.072 91.8604C627.181 91.8604 625.663 92.3264 624.518 93.2586C623.399 94.1907 622.64 95.6422 622.241 97.6131L620.163 108H613.931L618.206 86.5071H624.118L623.599 89.0639ZM637.083 93.9777C636.018 93.9777 635.139 93.6448 634.446 92.9789C633.754 92.2865 633.408 91.4209 633.408 90.3822C633.408 89.1571 633.807 88.1584 634.606 87.386C635.405 86.6136 636.391 86.2275 637.562 86.2275C638.628 86.2275 639.493 86.5604 640.159 87.2262C640.852 87.892 641.198 88.7576 641.198 89.8229C641.198 91.0214 640.785 92.0201 639.959 92.8191C639.16 93.5915 638.202 93.9777 637.083 93.9777ZM634.207 108.32C633.141 108.32 632.262 107.987 631.57 107.321C630.877 106.628 630.531 105.763 630.531 104.724C630.531 103.499 630.931 102.5 631.73 101.728C632.529 100.956 633.514 100.569 634.686 100.569C635.751 100.569 636.617 100.902 637.283 101.568C637.975 102.234 638.321 103.1 638.321 104.165C638.321 105.363 637.909 106.362 637.083 107.161C636.284 107.933 635.325 108.32 634.207 108.32Z" fill="white"/>
<path d="M338.505 318.507L334.231 340H328.318L328.718 337.883C326.933 339.507 324.736 340.32 322.126 340.32C320.448 340.32 318.903 339.933 317.492 339.161C316.08 338.389 314.948 337.283 314.096 335.845C313.27 334.38 312.858 332.663 312.858 330.692C312.858 328.321 313.377 326.191 314.416 324.3C315.481 322.382 316.919 320.891 318.73 319.825C320.541 318.733 322.539 318.188 324.723 318.188C328.025 318.188 330.356 319.266 331.714 321.423L332.273 318.507H338.505ZM324.044 335.166C325.269 335.166 326.361 334.873 327.319 334.287C328.278 333.675 329.024 332.836 329.557 331.77C330.089 330.705 330.356 329.48 330.356 328.095C330.356 326.63 329.916 325.472 329.037 324.619C328.185 323.767 326.987 323.341 325.442 323.341C324.217 323.341 323.125 323.647 322.166 324.26C321.207 324.846 320.461 325.671 319.929 326.737C319.396 327.802 319.13 329.027 319.13 330.412C319.13 331.877 319.556 333.035 320.408 333.888C321.287 334.74 322.499 335.166 324.044 335.166ZM349.668 321.064C350.601 320.052 351.719 319.319 353.024 318.867C354.356 318.414 355.914 318.188 357.698 318.188L356.58 323.94C355.834 323.887 355.355 323.86 355.142 323.86C353.251 323.86 351.733 324.326 350.587 325.259C349.469 326.191 348.71 327.642 348.31 329.613L346.233 340H340.001L344.275 318.507H350.188L349.668 321.064ZM364.958 340.32C363.093 340.32 361.322 340.12 359.644 339.72C357.993 339.294 356.701 338.748 355.769 338.082L358.166 333.568C359.098 334.181 360.23 334.673 361.562 335.046C362.92 335.419 364.278 335.606 365.637 335.606C367.048 335.606 368.1 335.432 368.793 335.086C369.485 334.713 369.831 334.194 369.831 333.528C369.831 332.995 369.525 332.609 368.913 332.37C368.3 332.13 367.315 331.877 365.956 331.611C364.412 331.318 363.133 330.998 362.121 330.652C361.136 330.306 360.27 329.746 359.524 328.974C358.805 328.175 358.446 327.096 358.446 325.738C358.446 323.368 359.431 321.517 361.402 320.185C363.4 318.853 366.01 318.188 369.232 318.188C370.724 318.188 372.175 318.347 373.587 318.667C374.998 318.986 376.197 319.426 377.182 319.985L374.945 324.539C373.187 323.448 371.07 322.902 368.593 322.902C367.235 322.902 366.196 323.101 365.477 323.501C364.784 323.9 364.438 324.406 364.438 325.019C364.438 325.578 364.745 325.991 365.357 326.257C365.97 326.497 366.995 326.763 368.433 327.056C369.951 327.349 371.19 327.669 372.149 328.015C373.134 328.335 373.986 328.881 374.705 329.653C375.424 330.425 375.784 331.477 375.784 332.809C375.784 335.206 374.772 337.057 372.748 338.362C370.75 339.667 368.154 340.32 364.958 340.32ZM395.13 318.188C397.527 318.188 399.431 318.827 400.842 320.105C402.254 321.383 402.96 323.195 402.96 325.538C402.96 326.39 402.866 327.243 402.68 328.095L400.283 340H394.051L396.368 328.495C396.475 328.042 396.528 327.549 396.528 327.016C396.528 325.898 396.222 325.046 395.609 324.46C394.996 323.874 394.078 323.581 392.852 323.581C391.254 323.581 389.923 324.047 388.857 324.979C387.819 325.884 387.113 327.256 386.74 329.094L384.583 340H378.351L384.263 310.357H390.495L388.498 320.465C390.336 318.947 392.546 318.188 395.13 318.188ZM432.293 318.507L428.019 340H422.106L422.506 337.883C420.721 339.507 418.524 340.32 415.914 340.32C414.236 340.32 412.691 339.933 411.28 339.161C409.868 338.389 408.736 337.283 407.884 335.845C407.058 334.38 406.646 332.663 406.646 330.692C406.646 328.321 407.165 326.191 408.204 324.3C409.269 322.382 410.707 320.891 412.518 319.825C414.329 318.733 416.327 318.188 418.511 318.188C421.813 318.188 424.144 319.266 425.502 321.423L426.061 318.507H432.293ZM417.832 335.166C419.057 335.166 420.149 334.873 421.107 334.287C422.066 333.675 422.812 332.836 423.345 331.77C423.877 330.705 424.144 329.48 424.144 328.095C424.144 326.63 423.704 325.472 422.825 324.619C421.973 323.767 420.774 323.341 419.23 323.341C418.005 323.341 416.913 323.647 415.954 324.26C414.995 324.846 414.249 325.671 413.717 326.737C413.184 327.802 412.918 329.027 412.918 330.412C412.918 331.877 413.344 333.035 414.196 333.888C415.075 334.74 416.287 335.166 417.832 335.166ZM465.029 318.188C467.373 318.188 469.237 318.827 470.622 320.105C472.007 321.357 472.7 323.141 472.7 325.458C472.7 326.311 472.606 327.189 472.42 328.095L470.063 340H463.831L466.108 328.534C466.214 328.002 466.268 327.456 466.268 326.897C466.268 325.805 465.975 324.979 465.389 324.42C464.829 323.86 463.991 323.581 462.872 323.581C459.862 323.581 457.985 325.378 457.239 328.974L455.042 340H448.81L451.087 328.534C451.193 328.002 451.247 327.469 451.247 326.936C451.247 325.845 450.954 325.019 450.368 324.46C449.808 323.874 448.969 323.581 447.851 323.581C444.841 323.581 442.95 325.405 442.178 329.054L440.021 340H433.789L438.063 318.507H443.976L443.496 320.744C445.361 319.04 447.611 318.188 450.248 318.188C451.739 318.188 453.058 318.494 454.203 319.106C455.375 319.692 456.254 320.558 456.84 321.703C457.878 320.558 459.09 319.692 460.475 319.106C461.86 318.494 463.378 318.188 465.029 318.188ZM483.519 340.32C481.655 340.32 479.884 340.12 478.206 339.72C476.554 339.294 475.263 338.748 474.331 338.082L476.728 333.568C477.66 334.181 478.792 334.673 480.123 335.046C481.482 335.419 482.84 335.606 484.198 335.606C485.61 335.606 486.662 335.432 487.354 335.086C488.047 334.713 488.393 334.194 488.393 333.528C488.393 332.995 488.087 332.609 487.474 332.37C486.861 332.13 485.876 331.877 484.518 331.611C482.973 331.318 481.695 330.998 480.683 330.652C479.697 330.306 478.832 329.746 478.086 328.974C477.367 328.175 477.007 327.096 477.007 325.738C477.007 323.368 477.993 321.517 479.964 320.185C481.961 318.853 484.571 318.188 487.794 318.188C489.285 318.188 490.737 318.347 492.148 318.667C493.56 318.986 494.758 319.426 495.744 319.985L493.506 324.539C491.749 323.448 489.631 322.902 487.154 322.902C485.796 322.902 484.757 323.101 484.038 323.501C483.346 323.9 483 324.406 483 325.019C483 325.578 483.306 325.991 483.919 326.257C484.531 326.497 485.556 326.763 486.995 327.056C488.513 327.349 489.751 327.669 490.71 328.015C491.695 328.335 492.548 328.881 493.267 329.653C493.986 330.425 494.345 331.477 494.345 332.809C494.345 335.206 493.333 337.057 491.309 338.362C489.312 339.667 486.715 340.32 483.519 340.32ZM513.691 318.188C516.088 318.188 517.992 318.827 519.404 320.105C520.815 321.383 521.521 323.195 521.521 325.538C521.521 326.39 521.428 327.243 521.241 328.095L518.844 340H512.612L514.929 328.495C515.036 328.042 515.089 327.549 515.089 327.016C515.089 325.898 514.783 325.046 514.17 324.46C513.558 323.874 512.639 323.581 511.414 323.581C509.816 323.581 508.484 324.047 507.419 324.979C506.38 325.884 505.674 327.256 505.302 329.094L503.144 340H496.912L502.825 310.357H509.057L507.059 320.465C508.897 318.947 511.108 318.188 513.691 318.188ZM528.808 318.507H535L530.726 340H524.534L528.808 318.507ZM532.963 315.511C531.898 315.511 531.019 315.205 530.326 314.592C529.66 313.953 529.328 313.18 529.328 312.275C529.328 311.21 529.7 310.331 530.446 309.638C531.218 308.919 532.217 308.56 533.442 308.56C534.534 308.56 535.413 308.866 536.079 309.478C536.771 310.064 537.118 310.797 537.118 311.676C537.118 312.821 536.732 313.753 535.959 314.472C535.187 315.165 534.188 315.511 532.963 315.511ZM546.178 321.064C547.111 320.052 548.229 319.319 549.534 318.867C550.866 318.414 552.424 318.188 554.208 318.188L553.09 323.94C552.344 323.887 551.865 323.86 551.652 323.86C549.761 323.86 548.243 324.326 547.097 325.259C545.979 326.191 545.22 327.642 544.82 329.613L542.743 340H536.511L540.785 318.507H546.698L546.178 321.064ZM569.579 327.855L576.97 340H569.739L564.626 331.651L560.83 334.807L559.792 340H553.559L559.472 310.357H565.704L562.388 326.936L572.695 318.507H580.805L569.579 327.855ZM589.598 340.32C587.44 340.32 585.536 339.92 583.885 339.121C582.26 338.322 580.995 337.204 580.09 335.765C579.211 334.301 578.771 332.609 578.771 330.692C578.771 328.321 579.331 326.191 580.449 324.3C581.568 322.409 583.113 320.917 585.083 319.825C587.054 318.733 589.278 318.188 591.755 318.188C593.939 318.188 595.843 318.587 597.468 319.386C599.092 320.185 600.344 321.317 601.223 322.782C602.129 324.22 602.581 325.898 602.581 327.815C602.581 330.186 602.022 332.316 600.904 334.207C599.812 336.098 598.267 337.59 596.269 338.682C594.299 339.774 592.075 340.32 589.598 340.32ZM589.997 335.166C591.196 335.166 592.274 334.873 593.233 334.287C594.192 333.675 594.938 332.836 595.47 331.77C596.003 330.705 596.269 329.48 596.269 328.095C596.269 326.63 595.843 325.472 594.991 324.619C594.139 323.767 592.94 323.341 591.396 323.341C590.17 323.341 589.078 323.647 588.12 324.26C587.161 324.846 586.415 325.671 585.882 326.737C585.35 327.802 585.083 329.027 585.083 330.412C585.083 331.877 585.51 333.035 586.362 333.888C587.241 334.74 588.453 335.166 589.997 335.166ZM630.438 318.507L626.164 340H620.251L620.69 337.683C619.758 338.562 618.693 339.228 617.494 339.68C616.296 340.107 615.031 340.32 613.699 340.32C611.356 340.32 609.478 339.68 608.066 338.402C606.681 337.124 605.989 335.326 605.989 333.009C605.989 332.13 606.082 331.264 606.269 330.412L608.626 318.507H614.858L612.581 330.013C612.474 330.519 612.421 331.038 612.421 331.571C612.421 333.808 613.619 334.926 616.016 334.926C617.588 334.926 618.879 334.474 619.891 333.568C620.93 332.636 621.636 331.251 622.009 329.413L624.206 318.507H630.438ZM648.716 318.188C651.113 318.188 653.017 318.827 654.429 320.105C655.84 321.383 656.546 323.195 656.546 325.538C656.546 326.39 656.453 327.243 656.266 328.095L653.87 340H647.637L649.954 328.495C650.061 328.042 650.114 327.549 650.114 327.016C650.114 325.898 649.808 325.046 649.195 324.46C648.583 323.874 647.664 323.581 646.439 323.581C644.841 323.581 643.509 324.047 642.444 324.979C641.405 325.884 640.699 327.256 640.327 329.094L638.169 340H631.937L637.85 310.357H644.082L642.084 320.465C643.922 318.947 646.133 318.188 648.716 318.188ZM663.833 318.507H670.025L665.751 340H659.559L663.833 318.507ZM667.988 315.511C666.923 315.511 666.044 315.205 665.351 314.592C664.685 313.953 664.353 313.18 664.353 312.275C664.353 311.21 664.725 310.331 665.471 309.638C666.244 308.919 667.242 308.56 668.467 308.56C669.559 308.56 670.438 308.866 671.104 309.478C671.797 310.064 672.143 310.797 672.143 311.676C672.143 312.821 671.757 313.753 670.984 314.472C670.212 315.165 669.213 315.511 667.988 315.511ZM680.405 334.727H692.15L691.111 340H669.938L670.777 335.805L683.521 325.818C685.065 324.566 686.131 323.514 686.717 322.662C687.329 321.81 687.635 320.917 687.635 319.985C687.635 319.053 687.276 318.307 686.557 317.748C685.864 317.189 684.852 316.909 683.521 316.909C682.402 316.909 681.323 317.162 680.285 317.668C679.246 318.174 678.34 318.893 677.568 319.825L673.214 316.669C674.359 315.098 675.93 313.86 677.928 312.954C679.925 312.022 682.109 311.556 684.479 311.556C686.424 311.556 688.128 311.875 689.593 312.515C691.084 313.154 692.23 314.046 693.029 315.191C693.854 316.337 694.267 317.628 694.267 319.066C694.267 320.798 693.788 322.422 692.829 323.94C691.87 325.458 690.205 327.136 687.835 328.974L680.405 334.727ZM706.208 340.479C703.092 340.479 700.628 339.547 698.817 337.683C697.006 335.792 696.1 333.195 696.1 329.893C696.1 326.537 696.713 323.461 697.938 320.664C699.19 317.868 700.921 315.657 703.131 314.033C705.342 312.381 707.859 311.556 710.682 311.556C713.798 311.556 716.262 312.501 718.073 314.392C719.884 316.257 720.789 318.84 720.789 322.143C720.789 325.498 720.163 328.574 718.912 331.371C717.686 334.167 715.969 336.391 713.758 338.042C711.548 339.667 709.031 340.479 706.208 340.479ZM706.807 335.006C708.352 335.006 709.683 334.34 710.802 333.009C711.947 331.677 712.813 330.026 713.399 328.055C713.984 326.058 714.277 324.14 714.277 322.302C714.277 320.518 713.905 319.2 713.159 318.347C712.44 317.468 711.414 317.029 710.083 317.029C708.538 317.029 707.193 317.695 706.048 319.026C704.929 320.358 704.077 322.023 703.491 324.02C702.905 325.991 702.612 327.895 702.612 329.733C702.612 331.517 702.972 332.849 703.691 333.728C704.437 334.58 705.475 335.006 706.807 335.006ZM733.283 340.479C730.167 340.479 727.703 339.547 725.892 337.683C724.081 335.792 723.176 333.195 723.176 329.893C723.176 326.537 723.788 323.461 725.013 320.664C726.265 317.868 727.996 315.657 730.207 314.033C732.417 312.381 734.934 311.556 737.757 311.556C740.873 311.556 743.337 312.501 745.148 314.392C746.959 316.257 747.864 318.84 747.864 322.143C747.864 325.498 747.239 328.574 745.987 331.371C744.762 334.167 743.044 336.391 740.833 338.042C738.623 339.667 736.106 340.479 733.283 340.479ZM733.882 335.006C735.427 335.006 736.758 334.34 737.877 333.009C739.022 331.677 739.888 330.026 740.474 328.055C741.06 326.058 741.353 324.14 741.353 322.302C741.353 320.518 740.98 319.2 740.234 318.347C739.515 317.468 738.49 317.029 737.158 317.029C735.613 317.029 734.268 317.695 733.123 319.026C732.004 320.358 731.152 322.023 730.566 324.02C729.98 325.991 729.687 327.895 729.687 329.733C729.687 331.517 730.047 332.849 730.766 333.728C731.512 334.58 732.55 335.006 733.882 335.006ZM760.158 317.229L758.64 322.542H760.318C763.754 322.542 766.35 323.208 768.108 324.539C769.893 325.871 770.785 327.762 770.785 330.212C770.785 332.263 770.239 334.074 769.147 335.645C768.055 337.19 766.524 338.389 764.553 339.241C762.609 340.067 760.371 340.479 757.841 340.479C755.764 340.479 753.833 340.2 752.049 339.64C750.291 339.081 748.799 338.282 747.574 337.243L750.69 332.489C751.622 333.288 752.741 333.914 754.046 334.367C755.378 334.82 756.776 335.046 758.241 335.046C760.158 335.046 761.636 334.7 762.675 334.008C763.714 333.288 764.233 332.276 764.233 330.971C764.233 328.841 762.422 327.775 758.8 327.775H751.21L755.764 312.035H772.862L771.784 317.229H760.158Z" fill="white"/>
<path d="M325.549 267.229L324.35 273.301H337.334L336.335 278.335H323.312L322.033 284.807H337.294L336.216 290H314.563L320.156 262.035H341.289L340.21 267.229H325.549ZM372.206 268.188C374.55 268.188 376.414 268.827 377.799 270.105C379.184 271.357 379.876 273.141 379.876 275.458C379.876 276.311 379.783 277.189 379.597 278.095L377.24 290H371.008L373.285 278.534C373.391 278.002 373.445 277.456 373.445 276.897C373.445 275.805 373.152 274.979 372.566 274.42C372.006 273.86 371.167 273.581 370.049 273.581C367.039 273.581 365.162 275.378 364.416 278.974L362.219 290H355.987L358.264 278.534C358.37 278.002 358.423 277.469 358.423 276.936C358.423 275.845 358.131 275.019 357.545 274.46C356.985 273.874 356.146 273.581 355.028 273.581C352.018 273.581 350.127 275.405 349.355 279.054L347.198 290H340.965L345.24 268.507H351.153L350.673 270.744C352.538 269.04 354.788 268.188 357.425 268.188C358.916 268.188 360.235 268.494 361.38 269.106C362.552 269.692 363.43 270.558 364.016 271.703C365.055 270.558 366.267 269.692 367.652 269.106C369.037 268.494 370.555 268.188 372.206 268.188ZM409.187 268.507L404.912 290H399L399.399 287.883C397.615 289.507 395.418 290.32 392.808 290.32C391.13 290.32 389.585 289.933 388.173 289.161C386.762 288.389 385.63 287.283 384.778 285.845C383.952 284.38 383.539 282.663 383.539 280.692C383.539 278.321 384.059 276.191 385.097 274.3C386.163 272.382 387.601 270.891 389.412 269.825C391.223 268.733 393.22 268.188 395.404 268.188C398.707 268.188 401.037 269.266 402.396 271.423L402.955 268.507H409.187ZM394.725 285.166C395.95 285.166 397.042 284.873 398.001 284.287C398.96 283.675 399.706 282.836 400.238 281.77C400.771 280.705 401.037 279.48 401.037 278.095C401.037 276.63 400.598 275.472 399.719 274.619C398.867 273.767 397.668 273.341 396.123 273.341C394.898 273.341 393.806 273.647 392.848 274.26C391.889 274.846 391.143 275.671 390.61 276.737C390.078 277.802 389.811 279.027 389.811 280.412C389.811 281.877 390.238 283.035 391.09 283.888C391.969 284.74 393.18 285.166 394.725 285.166ZM414.957 268.507H421.149L416.874 290H410.682L414.957 268.507ZM419.112 265.511C418.046 265.511 417.167 265.205 416.475 264.592C415.809 263.953 415.476 263.18 415.476 262.275C415.476 261.21 415.849 260.331 416.595 259.638C417.367 258.919 418.366 258.56 419.591 258.56C420.683 258.56 421.562 258.866 422.228 259.478C422.92 260.064 423.266 260.797 423.266 261.676C423.266 262.821 422.88 263.753 422.108 264.472C421.335 265.165 420.337 265.511 419.112 265.511ZM428.572 260.357H434.804L428.891 290H422.659L428.572 260.357ZM440.388 275.978C439.323 275.978 438.444 275.645 437.752 274.979C437.059 274.286 436.713 273.421 436.713 272.382C436.713 271.157 437.112 270.158 437.911 269.386C438.71 268.614 439.696 268.227 440.868 268.227C441.933 268.227 442.799 268.56 443.464 269.226C444.157 269.892 444.503 270.758 444.503 271.823C444.503 273.021 444.09 274.02 443.265 274.819C442.466 275.592 441.507 275.978 440.388 275.978ZM437.512 290.32C436.447 290.32 435.568 289.987 434.875 289.321C434.183 288.628 433.836 287.763 433.836 286.724C433.836 285.499 434.236 284.5 435.035 283.728C435.834 282.956 436.819 282.569 437.991 282.569C439.057 282.569 439.922 282.902 440.588 283.568C441.28 284.234 441.627 285.1 441.627 286.165C441.627 287.363 441.214 288.362 440.388 289.161C439.589 289.933 438.63 290.32 437.512 290.32Z" fill="white"/>
<path d="M329.846 488.507L325.572 510H319.659L320.058 507.883C318.274 509.507 316.077 510.32 313.467 510.32C311.789 510.32 310.244 509.933 308.833 509.161C307.421 508.389 306.289 507.283 305.437 505.845C304.611 504.38 304.198 502.663 304.198 500.692C304.198 498.321 304.718 496.191 305.757 494.3C306.822 492.382 308.26 490.891 310.071 489.825C311.882 488.733 313.88 488.188 316.064 488.188C319.366 488.188 321.696 489.266 323.055 491.423L323.614 488.507H329.846ZM315.384 505.166C316.61 505.166 317.701 504.873 318.66 504.287C319.619 503.675 320.365 502.836 320.897 501.77C321.43 500.705 321.696 499.48 321.696 498.095C321.696 496.63 321.257 495.472 320.378 494.619C319.526 493.767 318.327 493.341 316.783 493.341C315.557 493.341 314.466 493.647 313.507 494.26C312.548 494.846 311.802 495.671 311.27 496.737C310.737 497.802 310.471 499.027 310.471 500.412C310.471 501.877 310.897 503.035 311.749 503.888C312.628 504.74 313.84 505.166 315.384 505.166ZM341.009 491.064C341.941 490.052 343.06 489.319 344.365 488.867C345.697 488.414 347.255 488.188 349.039 488.188L347.921 493.94C347.175 493.887 346.695 493.86 346.482 493.86C344.591 493.86 343.073 494.326 341.928 495.259C340.81 496.191 340.05 497.642 339.651 499.613L337.574 510H331.341L335.616 488.507H341.529L341.009 491.064ZM356.298 510.32C354.434 510.32 352.663 510.12 350.985 509.72C349.334 509.294 348.042 508.748 347.11 508.082L349.507 503.568C350.439 504.181 351.571 504.673 352.903 505.046C354.261 505.419 355.619 505.606 356.978 505.606C358.389 505.606 359.441 505.432 360.134 505.086C360.826 504.713 361.172 504.194 361.172 503.528C361.172 502.995 360.866 502.609 360.253 502.37C359.641 502.13 358.655 501.877 357.297 501.611C355.752 501.318 354.474 500.998 353.462 500.652C352.477 500.306 351.611 499.746 350.865 498.974C350.146 498.175 349.787 497.096 349.787 495.738C349.787 493.368 350.772 491.517 352.743 490.185C354.74 488.853 357.35 488.188 360.573 488.188C362.064 488.188 363.516 488.347 364.928 488.667C366.339 488.986 367.538 489.426 368.523 489.985L366.286 494.539C364.528 493.448 362.411 492.902 359.934 492.902C358.576 492.902 357.537 493.101 356.818 493.501C356.125 493.9 355.779 494.406 355.779 495.019C355.779 495.578 356.085 495.991 356.698 496.257C357.31 496.497 358.336 496.763 359.774 497.056C361.292 497.349 362.531 497.669 363.489 498.015C364.475 498.335 365.327 498.881 366.046 499.653C366.765 500.425 367.125 501.477 367.125 502.809C367.125 505.206 366.113 507.057 364.089 508.362C362.091 509.667 359.494 510.32 356.298 510.32ZM386.47 488.188C388.867 488.188 390.772 488.827 392.183 490.105C393.595 491.383 394.3 493.195 394.3 495.538C394.3 496.39 394.207 497.243 394.021 498.095L391.624 510H385.392L387.709 498.495C387.815 498.042 387.869 497.549 387.869 497.016C387.869 495.898 387.562 495.046 386.95 494.46C386.337 493.874 385.418 493.581 384.193 493.581C382.595 493.581 381.264 494.047 380.198 494.979C379.16 495.884 378.454 497.256 378.081 499.094L375.924 510H369.692L375.604 480.357H381.836L379.839 490.465C381.676 488.947 383.887 488.188 386.47 488.188ZM423.634 488.507L419.36 510H413.447L413.846 507.883C412.062 509.507 409.865 510.32 407.255 510.32C405.577 510.32 404.032 509.933 402.621 509.161C401.209 508.389 400.077 507.283 399.225 505.845C398.399 504.38 397.986 502.663 397.986 500.692C397.986 498.321 398.506 496.191 399.545 494.3C400.61 492.382 402.048 490.891 403.859 489.825C405.67 488.733 407.668 488.188 409.852 488.188C413.154 488.188 415.484 489.266 416.843 491.423L417.402 488.507H423.634ZM409.172 505.166C410.397 505.166 411.489 504.873 412.448 504.287C413.407 503.675 414.153 502.836 414.685 501.77C415.218 500.705 415.484 499.48 415.484 498.095C415.484 496.63 415.045 495.472 414.166 494.619C413.314 493.767 412.115 493.341 410.571 493.341C409.345 493.341 408.254 493.647 407.295 494.26C406.336 494.846 405.59 495.671 405.058 496.737C404.525 497.802 404.259 499.027 404.259 500.412C404.259 501.877 404.685 503.035 405.537 503.888C406.416 504.74 407.628 505.166 409.172 505.166ZM456.37 488.188C458.714 488.188 460.578 488.827 461.963 490.105C463.348 491.357 464.04 493.141 464.04 495.458C464.04 496.311 463.947 497.189 463.761 498.095L461.404 510H455.172L457.449 498.534C457.555 498.002 457.608 497.456 457.608 496.897C457.608 495.805 457.316 494.979 456.73 494.42C456.17 493.86 455.331 493.581 454.213 493.581C451.203 493.581 449.326 495.378 448.58 498.974L446.383 510H440.15L442.428 498.534C442.534 498.002 442.587 497.469 442.587 496.936C442.587 495.845 442.294 495.019 441.709 494.46C441.149 493.874 440.31 493.581 439.192 493.581C436.182 493.581 434.291 495.405 433.519 499.054L431.362 510H425.129L429.404 488.507H435.317L434.837 490.744C436.702 489.04 438.952 488.188 441.589 488.188C443.08 488.188 444.398 488.494 445.544 489.106C446.716 489.692 447.594 490.558 448.18 491.703C449.219 490.558 450.431 489.692 451.816 489.106C453.201 488.494 454.719 488.188 456.37 488.188ZM486.174 510.32C484.309 510.32 482.538 510.12 480.86 509.72C479.209 509.294 477.917 508.748 476.985 508.082L479.382 503.568C480.314 504.181 481.446 504.673 482.778 505.046C484.136 505.419 485.495 505.606 486.853 505.606C488.264 505.606 489.316 505.432 490.009 505.086C490.701 504.713 491.048 504.194 491.048 503.528C491.048 502.995 490.741 502.609 490.129 502.37C489.516 502.13 488.531 501.877 487.172 501.611C485.628 501.318 484.349 500.998 483.337 500.652C482.352 500.306 481.486 499.746 480.741 498.974C480.021 498.175 479.662 497.096 479.662 495.738C479.662 493.368 480.647 491.517 482.618 490.185C484.616 488.853 487.226 488.188 490.448 488.188C491.94 488.188 493.391 488.347 494.803 488.667C496.214 488.986 497.413 489.426 498.398 489.985L496.161 494.539C494.403 493.448 492.286 492.902 489.809 492.902C488.451 492.902 487.412 493.101 486.693 493.501C486.001 493.9 485.654 494.406 485.654 495.019C485.654 495.578 485.961 495.991 486.573 496.257C487.186 496.497 488.211 496.763 489.649 497.056C491.167 497.349 492.406 497.669 493.365 498.015C494.35 498.335 495.202 498.881 495.921 499.653C496.641 500.425 497 501.477 497 502.809C497 505.206 495.988 507.057 493.964 508.362C491.966 509.667 489.37 510.32 486.174 510.32ZM516.346 488.188C518.743 488.188 520.647 488.827 522.058 490.105C523.47 491.383 524.176 493.195 524.176 495.538C524.176 496.39 524.083 497.243 523.896 498.095L521.499 510H515.267L517.584 498.495C517.691 498.042 517.744 497.549 517.744 497.016C517.744 495.898 517.438 495.046 516.825 494.46C516.212 493.874 515.294 493.581 514.069 493.581C512.471 493.581 511.139 494.047 510.074 494.979C509.035 495.884 508.329 497.256 507.956 499.094L505.799 510H499.567L505.479 480.357H511.711L509.714 490.465C511.552 488.947 513.762 488.188 516.346 488.188ZM531.463 488.507H537.655L533.38 510H527.188L531.463 488.507ZM535.618 485.511C534.552 485.511 533.673 485.205 532.981 484.592C532.315 483.953 531.982 483.18 531.982 482.275C531.982 481.21 532.355 480.331 533.101 479.638C533.873 478.919 534.872 478.56 536.097 478.56C537.189 478.56 538.068 478.866 538.734 479.478C539.426 480.064 539.772 480.797 539.772 481.676C539.772 482.821 539.386 483.753 538.614 484.472C537.841 485.165 536.843 485.511 535.618 485.511ZM548.833 491.064C549.765 490.052 550.884 489.319 552.189 488.867C553.521 488.414 555.079 488.188 556.863 488.188L555.744 493.94C554.999 493.887 554.519 493.86 554.306 493.86C552.415 493.86 550.897 494.326 549.752 495.259C548.633 496.191 547.874 497.642 547.475 499.613L545.397 510H539.165L543.44 488.507H549.352L548.833 491.064ZM572.234 497.855L579.625 510H572.394L567.28 501.651L563.485 504.807L562.446 510H556.214L562.127 480.357H568.359L565.043 496.936L575.35 488.507H583.46L572.234 497.855ZM592.252 510.32C590.095 510.32 588.191 509.92 586.54 509.121C584.915 508.322 583.65 507.204 582.744 505.765C581.866 504.301 581.426 502.609 581.426 500.692C581.426 498.321 581.985 496.191 583.104 494.3C584.223 492.409 585.767 490.917 587.738 489.825C589.709 488.733 591.933 488.188 594.41 488.188C596.594 488.188 598.498 488.587 600.123 489.386C601.747 490.185 602.999 491.317 603.878 492.782C604.783 494.22 605.236 495.898 605.236 497.815C605.236 500.186 604.677 502.316 603.558 504.207C602.466 506.098 600.922 507.59 598.924 508.682C596.953 509.774 594.729 510.32 592.252 510.32ZM592.652 505.166C593.85 505.166 594.929 504.873 595.888 504.287C596.847 503.675 597.592 502.836 598.125 501.77C598.658 500.705 598.924 499.48 598.924 498.095C598.924 496.63 598.498 495.472 597.646 494.619C596.793 493.767 595.595 493.341 594.05 493.341C592.825 493.341 591.733 493.647 590.774 494.26C589.816 494.846 589.07 495.671 588.537 496.737C588.004 497.802 587.738 499.027 587.738 500.412C587.738 501.877 588.164 503.035 589.017 503.888C589.895 504.74 591.107 505.166 592.652 505.166ZM633.093 488.507L628.818 510H622.906L623.345 507.683C622.413 508.562 621.348 509.228 620.149 509.68C618.951 510.107 617.686 510.32 616.354 510.32C614.01 510.32 612.133 509.68 610.721 508.402C609.336 507.124 608.644 505.326 608.644 503.009C608.644 502.13 608.737 501.264 608.923 500.412L611.28 488.507H617.512L615.235 500.013C615.129 500.519 615.076 501.038 615.076 501.571C615.076 503.808 616.274 504.926 618.671 504.926C620.242 504.926 621.534 504.474 622.546 503.568C623.585 502.636 624.291 501.251 624.663 499.413L626.861 488.507H633.093ZM651.371 488.188C653.768 488.188 655.672 488.827 657.084 490.105C658.495 491.383 659.201 493.195 659.201 495.538C659.201 496.39 659.108 497.243 658.921 498.095L656.524 510H650.292L652.609 498.495C652.716 498.042 652.769 497.549 652.769 497.016C652.769 495.898 652.463 495.046 651.85 494.46C651.238 493.874 650.319 493.581 649.094 493.581C647.496 493.581 646.164 494.047 645.099 494.979C644.06 495.884 643.354 497.256 642.981 499.094L640.824 510H634.592L640.504 480.357H646.737L644.739 490.465C646.577 488.947 648.787 488.188 651.371 488.188ZM666.488 488.507H672.68L668.405 510H662.213L666.488 488.507ZM670.643 485.511C669.577 485.511 668.698 485.205 668.006 484.592C667.34 483.953 667.007 483.18 667.007 482.275C667.007 481.21 667.38 480.331 668.126 479.638C668.898 478.919 669.897 478.56 671.122 478.56C672.214 478.56 673.093 478.866 673.759 479.478C674.451 480.064 674.797 480.797 674.797 481.676C674.797 482.821 674.411 483.753 673.639 484.472C672.867 485.165 671.868 485.511 670.643 485.511Z" fill="white"/>
<path d="M316.93 437.229L315.452 444.619H328.435L327.357 449.813H314.453L312.415 460H305.904L311.497 432.035H332.63L331.551 437.229H316.93ZM356.56 438.507L352.285 460H346.373L346.772 457.883C344.988 459.507 342.79 460.32 340.18 460.32C338.503 460.32 336.958 459.933 335.546 459.161C334.135 458.389 333.003 457.283 332.151 455.845C331.325 454.38 330.912 452.663 330.912 450.692C330.912 448.321 331.431 446.191 332.47 444.3C333.535 442.382 334.974 440.891 336.785 439.825C338.596 438.733 340.593 438.188 342.777 438.188C346.08 438.188 348.41 439.266 349.768 441.423L350.328 438.507H356.56ZM342.098 455.166C343.323 455.166 344.415 454.873 345.374 454.287C346.333 453.675 347.078 452.836 347.611 451.77C348.144 450.705 348.41 449.48 348.41 448.095C348.41 446.63 347.971 445.472 347.092 444.619C346.239 443.767 345.041 443.341 343.496 443.341C342.271 443.341 341.179 443.647 340.22 444.26C339.262 444.846 338.516 445.671 337.983 446.737C337.451 447.802 337.184 449.027 337.184 450.412C337.184 451.877 337.61 453.035 338.463 453.888C339.341 454.74 340.553 455.166 342.098 455.166ZM369.401 460.32C367.19 460.32 365.259 459.92 363.608 459.121C361.957 458.322 360.678 457.204 359.773 455.765C358.894 454.301 358.455 452.609 358.455 450.692C358.455 448.321 359.014 446.191 360.132 444.3C361.251 442.409 362.809 440.917 364.807 439.825C366.804 438.733 369.055 438.188 371.558 438.188C373.848 438.188 375.819 438.667 377.471 439.626C379.148 440.558 380.4 441.89 381.226 443.621L375.953 446.257C375.02 444.313 373.422 443.341 371.159 443.341C369.933 443.341 368.828 443.647 367.843 444.26C366.884 444.846 366.125 445.671 365.566 446.737C365.033 447.802 364.767 449.014 364.767 450.372C364.767 451.837 365.206 453.009 366.085 453.888C366.964 454.74 368.189 455.166 369.76 455.166C372.051 455.166 373.809 454.207 375.034 452.29L379.628 455.166C378.589 456.791 377.164 458.056 375.353 458.961C373.569 459.867 371.585 460.32 369.401 460.32ZM404.716 447.656C404.716 448.641 404.596 449.733 404.356 450.931H387.897C388.11 453.861 389.961 455.326 393.45 455.326C394.542 455.326 395.58 455.153 396.566 454.807C397.578 454.46 398.457 453.968 399.203 453.328L401.799 457.443C400.601 458.402 399.229 459.121 397.684 459.601C396.14 460.08 394.515 460.32 392.811 460.32C390.6 460.32 388.656 459.933 386.978 459.161C385.327 458.362 384.048 457.23 383.143 455.765C382.264 454.301 381.824 452.609 381.824 450.692C381.824 448.321 382.357 446.191 383.422 444.3C384.514 442.382 386.019 440.891 387.937 439.825C389.854 438.733 392.038 438.188 394.489 438.188C396.566 438.188 398.364 438.574 399.882 439.346C401.426 440.118 402.612 441.224 403.437 442.662C404.289 444.1 404.716 445.765 404.716 447.656ZM394.209 442.862C392.744 442.862 391.506 443.261 390.494 444.06C389.481 444.832 388.762 445.911 388.336 447.296H399.003C399.003 445.911 398.563 444.832 397.684 444.06C396.832 443.261 395.674 442.862 394.209 442.862ZM422.81 438.188C424.488 438.188 426.033 438.574 427.444 439.346C428.882 440.118 430.014 441.237 430.84 442.702C431.692 444.14 432.118 445.845 432.118 447.815C432.118 450.186 431.586 452.33 430.52 454.247C429.482 456.138 428.057 457.63 426.246 458.722C424.435 459.787 422.424 460.32 420.213 460.32C418.535 460.32 417.084 460.027 415.859 459.441C414.634 458.855 413.688 457.976 413.022 456.804L412.383 460H406.471L412.383 430.357H418.615L416.618 440.345C418.349 438.907 420.413 438.188 422.81 438.188ZM419.494 455.166C420.719 455.166 421.811 454.873 422.77 454.287C423.729 453.675 424.475 452.836 425.007 451.77C425.54 450.705 425.806 449.48 425.806 448.095C425.806 446.63 425.367 445.472 424.488 444.619C423.636 443.767 422.437 443.341 420.892 443.341C419.694 443.341 418.615 443.647 417.656 444.26C416.698 444.846 415.952 445.671 415.419 446.737C414.887 447.802 414.62 449.027 414.62 450.412C414.62 451.877 415.046 453.035 415.899 453.888C416.751 454.74 417.949 455.166 419.494 455.166ZM445.279 460.32C443.122 460.32 441.217 459.92 439.566 459.121C437.941 458.322 436.676 457.204 435.771 455.765C434.892 454.301 434.452 452.609 434.452 450.692C434.452 448.321 435.012 446.191 436.13 444.3C437.249 442.409 438.794 440.917 440.765 439.825C442.735 438.733 444.959 438.188 447.436 438.188C449.62 438.188 451.524 438.587 453.149 439.386C454.774 440.185 456.025 441.317 456.904 442.782C457.81 444.22 458.262 445.898 458.262 447.815C458.262 450.186 457.703 452.316 456.585 454.207C455.493 456.098 453.948 457.59 451.95 458.682C449.98 459.774 447.756 460.32 445.279 460.32ZM445.678 455.166C446.877 455.166 447.955 454.873 448.914 454.287C449.873 453.675 450.619 452.836 451.151 451.77C451.684 450.705 451.95 449.48 451.95 448.095C451.95 446.63 451.524 445.472 450.672 444.619C449.82 443.767 448.621 443.341 447.077 443.341C445.851 443.341 444.759 443.647 443.801 444.26C442.842 444.846 442.096 445.671 441.564 446.737C441.031 447.802 440.765 449.027 440.765 450.412C440.765 451.877 441.191 453.035 442.043 453.888C442.922 454.74 444.134 455.166 445.678 455.166ZM471.418 460.32C469.26 460.32 467.356 459.92 465.705 459.121C464.08 458.322 462.815 457.204 461.91 455.765C461.031 454.301 460.591 452.609 460.591 450.692C460.591 448.321 461.151 446.191 462.269 444.3C463.388 442.409 464.933 440.917 466.903 439.825C468.874 438.733 471.098 438.188 473.575 438.188C475.759 438.188 477.663 438.587 479.288 439.386C480.912 440.185 482.164 441.317 483.043 442.782C483.949 444.22 484.401 445.898 484.401 447.815C484.401 450.186 483.842 452.316 482.723 454.207C481.632 456.098 480.087 457.59 478.089 458.682C476.118 459.774 473.895 460.32 471.418 460.32ZM471.817 455.166C473.016 455.166 474.094 454.873 475.053 454.287C476.012 453.675 476.758 452.836 477.29 451.77C477.823 450.705 478.089 449.48 478.089 448.095C478.089 446.63 477.663 445.472 476.811 444.619C475.959 443.767 474.76 443.341 473.215 443.341C471.99 443.341 470.898 443.647 469.94 444.26C468.981 444.846 468.235 445.671 467.702 446.737C467.17 447.802 466.903 449.027 466.903 450.412C466.903 451.877 467.33 453.035 468.182 453.888C469.061 454.74 470.273 455.166 471.817 455.166ZM502.351 447.855L509.741 460H502.51L497.397 451.651L493.602 454.807L492.563 460H486.331L492.243 430.357H498.476L495.16 446.936L505.467 438.507H513.576L502.351 447.855ZM517.792 445.978C516.727 445.978 515.848 445.645 515.156 444.979C514.463 444.286 514.117 443.421 514.117 442.382C514.117 441.157 514.517 440.158 515.316 439.386C516.115 438.614 517.1 438.227 518.272 438.227C519.337 438.227 520.203 438.56 520.869 439.226C521.561 439.892 521.907 440.758 521.907 441.823C521.907 443.021 521.494 444.02 520.669 444.819C519.87 445.592 518.911 445.978 517.792 445.978ZM514.916 460.32C513.851 460.32 512.972 459.987 512.279 459.321C511.587 458.628 511.241 457.763 511.241 456.724C511.241 455.499 511.64 454.5 512.439 453.728C513.238 452.956 514.224 452.569 515.395 452.569C516.461 452.569 517.326 452.902 517.992 453.568C518.685 454.234 519.031 455.1 519.031 456.165C519.031 457.363 518.618 458.362 517.792 459.161C516.993 459.933 516.035 460.32 514.916 460.32Z" fill="white"/>
<path d="M327.846 658.507L323.572 680H317.659L318.058 677.883C316.274 679.507 314.077 680.32 311.467 680.32C309.789 680.32 308.244 679.933 306.833 679.161C305.421 678.389 304.289 677.283 303.437 675.845C302.611 674.38 302.198 672.663 302.198 670.692C302.198 668.321 302.718 666.191 303.757 664.3C304.822 662.382 306.26 660.891 308.071 659.825C309.882 658.733 311.88 658.188 314.064 658.188C317.366 658.188 319.696 659.266 321.055 661.423L321.614 658.507H327.846ZM313.384 675.166C314.61 675.166 315.701 674.873 316.66 674.287C317.619 673.675 318.365 672.836 318.897 671.77C319.43 670.705 319.696 669.48 319.696 668.095C319.696 666.63 319.257 665.472 318.378 664.619C317.526 663.767 316.327 663.341 314.783 663.341C313.557 663.341 312.466 663.647 311.507 664.26C310.548 664.846 309.802 665.671 309.27 666.737C308.737 667.802 308.471 669.027 308.471 670.412C308.471 671.877 308.897 673.035 309.749 673.888C310.628 674.74 311.84 675.166 313.384 675.166ZM339.009 661.064C339.941 660.052 341.06 659.319 342.365 658.867C343.697 658.414 345.255 658.188 347.039 658.188L345.921 663.94C345.175 663.887 344.695 663.86 344.482 663.86C342.591 663.86 341.073 664.326 339.928 665.259C338.81 666.191 338.05 667.642 337.651 669.613L335.574 680H329.341L333.616 658.507H339.529L339.009 661.064ZM354.298 680.32C352.434 680.32 350.663 680.12 348.985 679.72C347.334 679.294 346.042 678.748 345.11 678.082L347.507 673.568C348.439 674.181 349.571 674.673 350.903 675.046C352.261 675.419 353.619 675.606 354.978 675.606C356.389 675.606 357.441 675.432 358.134 675.086C358.826 674.713 359.172 674.194 359.172 673.528C359.172 672.995 358.866 672.609 358.253 672.37C357.641 672.13 356.655 671.877 355.297 671.611C353.752 671.318 352.474 670.998 351.462 670.652C350.477 670.306 349.611 669.746 348.865 668.974C348.146 668.175 347.787 667.096 347.787 665.738C347.787 663.368 348.772 661.517 350.743 660.185C352.74 658.853 355.35 658.188 358.573 658.188C360.064 658.188 361.516 658.347 362.928 658.667C364.339 658.986 365.538 659.426 366.523 659.985L364.286 664.539C362.528 663.448 360.411 662.902 357.934 662.902C356.576 662.902 355.537 663.101 354.818 663.501C354.125 663.9 353.779 664.406 353.779 665.019C353.779 665.578 354.085 665.991 354.698 666.257C355.31 666.497 356.336 666.763 357.774 667.056C359.292 667.349 360.531 667.669 361.489 668.015C362.475 668.335 363.327 668.881 364.046 669.653C364.765 670.425 365.125 671.477 365.125 672.809C365.125 675.206 364.113 677.057 362.089 678.362C360.091 679.667 357.494 680.32 354.298 680.32ZM384.47 658.188C386.867 658.188 388.772 658.827 390.183 660.105C391.595 661.383 392.3 663.195 392.3 665.538C392.3 666.39 392.207 667.243 392.021 668.095L389.624 680H383.392L385.709 668.495C385.815 668.042 385.869 667.549 385.869 667.016C385.869 665.898 385.562 665.046 384.95 664.46C384.337 663.874 383.418 663.581 382.193 663.581C380.595 663.581 379.264 664.047 378.198 664.979C377.16 665.884 376.454 667.256 376.081 669.094L373.924 680H367.692L373.604 650.357H379.836L377.839 660.465C379.676 658.947 381.887 658.188 384.47 658.188ZM421.634 658.507L417.36 680H411.447L411.846 677.883C410.062 679.507 407.865 680.32 405.255 680.32C403.577 680.32 402.032 679.933 400.621 679.161C399.209 678.389 398.077 677.283 397.225 675.845C396.399 674.38 395.986 672.663 395.986 670.692C395.986 668.321 396.506 666.191 397.545 664.3C398.61 662.382 400.048 660.891 401.859 659.825C403.67 658.733 405.668 658.188 407.852 658.188C411.154 658.188 413.484 659.266 414.843 661.423L415.402 658.507H421.634ZM407.172 675.166C408.397 675.166 409.489 674.873 410.448 674.287C411.407 673.675 412.153 672.836 412.685 671.77C413.218 670.705 413.484 669.48 413.484 668.095C413.484 666.63 413.045 665.472 412.166 664.619C411.314 663.767 410.115 663.341 408.571 663.341C407.345 663.341 406.254 663.647 405.295 664.26C404.336 664.846 403.59 665.671 403.058 666.737C402.525 667.802 402.259 669.027 402.259 670.412C402.259 671.877 402.685 673.035 403.537 673.888C404.416 674.74 405.628 675.166 407.172 675.166ZM454.37 658.188C456.714 658.188 458.578 658.827 459.963 660.105C461.348 661.357 462.04 663.141 462.04 665.458C462.04 666.311 461.947 667.189 461.761 668.095L459.404 680H453.172L455.449 668.534C455.555 668.002 455.608 667.456 455.608 666.897C455.608 665.805 455.316 664.979 454.73 664.42C454.17 663.86 453.331 663.581 452.213 663.581C449.203 663.581 447.326 665.378 446.58 668.974L444.383 680H438.15L440.428 668.534C440.534 668.002 440.587 667.469 440.587 666.936C440.587 665.845 440.294 665.019 439.709 664.46C439.149 663.874 438.31 663.581 437.192 663.581C434.182 663.581 432.291 665.405 431.519 669.054L429.362 680H423.129L427.404 658.507H433.317L432.837 660.744C434.702 659.04 436.952 658.188 439.589 658.188C441.08 658.188 442.398 658.494 443.544 659.106C444.716 659.692 445.594 660.558 446.18 661.703C447.219 660.558 448.431 659.692 449.816 659.106C451.201 658.494 452.719 658.188 454.37 658.188ZM462.113 680H482.088L481.369 683.595H461.394L462.113 680ZM493.225 680.32C491.36 680.32 489.589 680.12 487.911 679.72C486.26 679.294 484.969 678.748 484.036 678.082L486.433 673.568C487.366 674.181 488.497 674.673 489.829 675.046C491.187 675.419 492.546 675.606 493.904 675.606C495.315 675.606 496.367 675.432 497.06 675.086C497.752 674.713 498.099 674.194 498.099 673.528C498.099 672.995 497.792 672.609 497.18 672.37C496.567 672.13 495.582 671.877 494.224 671.611C492.679 671.318 491.4 670.998 490.388 670.652C489.403 670.306 488.537 669.746 487.792 668.974C487.073 668.175 486.713 667.096 486.713 665.738C486.713 663.368 487.698 661.517 489.669 660.185C491.667 658.853 494.277 658.188 497.499 658.188C498.991 658.188 500.442 658.347 501.854 658.667C503.265 658.986 504.464 659.426 505.449 659.985L503.212 664.539C501.454 663.448 499.337 662.902 496.86 662.902C495.502 662.902 494.463 663.101 493.744 663.501C493.052 663.9 492.705 664.406 492.705 665.019C492.705 665.578 493.012 665.991 493.624 666.257C494.237 666.497 495.262 666.763 496.7 667.056C498.218 667.349 499.457 667.669 500.416 668.015C501.401 668.335 502.253 668.881 502.972 669.653C503.692 670.425 504.051 671.477 504.051 672.809C504.051 675.206 503.039 677.057 501.015 678.362C499.017 679.667 496.421 680.32 493.225 680.32ZM523.397 658.188C525.794 658.188 527.698 658.827 529.11 660.105C530.521 661.383 531.227 663.195 531.227 665.538C531.227 666.39 531.134 667.243 530.947 668.095L528.55 680H522.318L524.635 668.495C524.742 668.042 524.795 667.549 524.795 667.016C524.795 665.898 524.489 665.046 523.876 664.46C523.264 663.874 522.345 663.581 521.12 663.581C519.522 663.581 518.19 664.047 517.125 664.979C516.086 665.884 515.38 667.256 515.007 669.094L512.85 680H506.618L512.53 650.357H518.763L516.765 660.465C518.603 658.947 520.813 658.188 523.397 658.188ZM538.514 658.507H544.706L540.432 680H534.239L538.514 658.507ZM542.669 655.511C541.603 655.511 540.724 655.205 540.032 654.592C539.366 653.953 539.033 653.18 539.033 652.275C539.033 651.21 539.406 650.331 540.152 649.638C540.924 648.919 541.923 648.56 543.148 648.56C544.24 648.56 545.119 648.866 545.785 649.478C546.477 650.064 546.823 650.797 546.823 651.676C546.823 652.821 546.437 653.753 545.665 654.472C544.893 655.165 543.894 655.511 542.669 655.511ZM555.884 661.064C556.816 660.052 557.935 659.319 559.24 658.867C560.572 658.414 562.13 658.188 563.914 658.188L562.796 663.94C562.05 663.887 561.57 663.86 561.357 663.86C559.466 663.86 557.948 664.326 556.803 665.259C555.684 666.191 554.925 667.642 554.526 669.613L552.449 680H546.216L550.491 658.507H556.404L555.884 661.064ZM579.285 667.855L586.676 680H579.445L574.331 671.651L570.536 674.807L569.497 680H563.265L569.178 650.357H575.41L572.094 666.936L582.401 658.507H590.511L579.285 667.855ZM599.304 680.32C597.146 680.32 595.242 679.92 593.591 679.121C591.966 678.322 590.701 677.204 589.796 675.765C588.917 674.301 588.477 672.609 588.477 670.692C588.477 668.321 589.036 666.191 590.155 664.3C591.274 662.409 592.818 660.917 594.789 659.825C596.76 658.733 598.984 658.188 601.461 658.188C603.645 658.188 605.549 658.587 607.174 659.386C608.798 660.185 610.05 661.317 610.929 662.782C611.834 664.22 612.287 665.898 612.287 667.815C612.287 670.186 611.728 672.316 610.609 674.207C609.517 676.098 607.973 677.59 605.975 678.682C604.004 679.774 601.78 680.32 599.304 680.32ZM599.703 675.166C600.902 675.166 601.98 674.873 602.939 674.287C603.898 673.675 604.643 672.836 605.176 671.77C605.709 670.705 605.975 669.48 605.975 668.095C605.975 666.63 605.549 665.472 604.697 664.619C603.844 663.767 602.646 663.341 601.101 663.341C599.876 663.341 598.784 663.647 597.825 664.26C596.867 664.846 596.121 665.671 595.588 666.737C595.056 667.802 594.789 669.027 594.789 670.412C594.789 671.877 595.215 673.035 596.068 673.888C596.946 674.74 598.158 675.166 599.703 675.166ZM640.144 658.507L635.869 680H629.957L630.396 677.683C629.464 678.562 628.399 679.228 627.2 679.68C626.002 680.107 624.737 680.32 623.405 680.32C621.061 680.32 619.184 679.68 617.772 678.402C616.387 677.124 615.695 675.326 615.695 673.009C615.695 672.13 615.788 671.264 615.974 670.412L618.331 658.507H624.564L622.286 670.013C622.18 670.519 622.127 671.038 622.127 671.571C622.127 673.808 623.325 674.926 625.722 674.926C627.293 674.926 628.585 674.474 629.597 673.568C630.636 672.636 631.342 671.251 631.715 669.413L633.912 658.507H640.144ZM658.422 658.188C660.819 658.188 662.723 658.827 664.135 660.105C665.546 661.383 666.252 663.195 666.252 665.538C666.252 666.39 666.159 667.243 665.972 668.095L663.575 680H657.343L659.66 668.495C659.767 668.042 659.82 667.549 659.82 667.016C659.82 665.898 659.514 665.046 658.901 664.46C658.289 663.874 657.37 663.581 656.145 663.581C654.547 663.581 653.215 664.047 652.15 664.979C651.111 665.884 650.405 667.256 650.032 669.094L647.875 680H641.643L647.555 650.357H653.788L651.79 660.465C653.628 658.947 655.838 658.188 658.422 658.188ZM673.539 658.507H679.731L675.457 680H669.264L673.539 658.507ZM677.694 655.511C676.628 655.511 675.75 655.205 675.057 654.592C674.391 653.953 674.058 653.18 674.058 652.275C674.058 651.21 674.431 650.331 675.177 649.638C675.949 648.919 676.948 648.56 678.173 648.56C679.265 648.56 680.144 648.866 680.81 649.478C681.502 650.064 681.848 650.797 681.848 651.676C681.848 652.821 681.462 653.753 680.69 654.472C679.918 655.165 678.919 655.511 677.694 655.511Z" fill="white"/>
<path d="M309.497 602.035H316.008L310.415 630H303.904L309.497 602.035ZM333.391 608.188C335.788 608.188 337.693 608.827 339.104 610.105C340.516 611.357 341.222 613.155 341.222 615.498C341.222 616.377 341.128 617.243 340.942 618.095L338.545 630H332.313L334.63 618.495C334.736 618.042 334.79 617.549 334.79 617.016C334.79 615.898 334.483 615.046 333.871 614.46C333.258 613.874 332.339 613.581 331.114 613.581C329.516 613.581 328.185 614.047 327.119 614.979C326.081 615.884 325.375 617.256 325.002 619.094L322.845 630H316.613L320.887 608.507H326.8L326.32 610.824C328.238 609.066 330.595 608.188 333.391 608.188ZM352.064 630.32C350.2 630.32 348.429 630.12 346.751 629.72C345.1 629.294 343.808 628.748 342.876 628.082L345.273 623.568C346.205 624.181 347.337 624.673 348.668 625.046C350.027 625.419 351.385 625.606 352.743 625.606C354.155 625.606 355.207 625.432 355.899 625.086C356.592 624.713 356.938 624.194 356.938 623.528C356.938 622.995 356.632 622.609 356.019 622.37C355.407 622.13 354.421 621.877 353.063 621.611C351.518 621.318 350.24 620.998 349.228 620.652C348.242 620.306 347.377 619.746 346.631 618.974C345.912 618.175 345.552 617.096 345.552 615.738C345.552 613.368 346.538 611.517 348.509 610.185C350.506 608.853 353.116 608.188 356.339 608.188C357.83 608.188 359.282 608.347 360.693 608.667C362.105 608.986 363.303 609.426 364.289 609.985L362.052 614.539C360.294 613.448 358.176 612.902 355.7 612.902C354.341 612.902 353.303 613.101 352.584 613.501C351.891 613.9 351.545 614.406 351.545 615.019C351.545 615.578 351.851 615.991 352.464 616.257C353.076 616.497 354.102 616.763 355.54 617.056C357.058 617.349 358.296 617.669 359.255 618.015C360.241 618.335 361.093 618.881 361.812 619.653C362.531 620.425 362.891 621.477 362.891 622.809C362.891 625.206 361.878 627.057 359.854 628.362C357.857 629.667 355.26 630.32 352.064 630.32ZM373.927 622.41C373.873 622.623 373.847 622.916 373.847 623.288C373.847 624.673 374.606 625.366 376.124 625.366C376.949 625.366 377.788 625.113 378.641 624.607L379.56 629.041C378.175 629.893 376.39 630.32 374.206 630.32C372.182 630.32 370.558 629.787 369.332 628.722C368.107 627.656 367.495 626.191 367.495 624.327C367.495 623.794 367.561 623.169 367.694 622.45L369.412 613.78H366.096L367.055 608.986H370.371L371.41 603.753H377.642L376.603 608.986H381.956L380.998 613.78H375.644L373.927 622.41ZM408.242 608.507L403.967 630H398.055L398.454 627.883C396.67 629.507 394.473 630.32 391.863 630.32C390.185 630.32 388.64 629.933 387.229 629.161C385.817 628.389 384.685 627.283 383.833 625.845C383.007 624.38 382.594 622.663 382.594 620.692C382.594 618.321 383.114 616.191 384.152 614.3C385.218 612.382 386.656 610.891 388.467 609.825C390.278 608.733 392.276 608.188 394.459 608.188C397.762 608.188 400.092 609.266 401.451 611.423L402.01 608.507H408.242ZM393.78 625.166C395.005 625.166 396.097 624.873 397.056 624.287C398.015 623.675 398.761 622.836 399.293 621.77C399.826 620.705 400.092 619.48 400.092 618.095C400.092 616.63 399.653 615.472 398.774 614.619C397.922 613.767 396.723 613.341 395.179 613.341C393.953 613.341 392.861 613.647 391.903 614.26C390.944 614.846 390.198 615.671 389.666 616.737C389.133 617.802 388.867 619.027 388.867 620.412C388.867 621.877 389.293 623.035 390.145 623.888C391.024 624.74 392.236 625.166 393.78 625.166ZM436.184 608.507L432.629 626.405C431.83 630.453 430.285 633.409 427.994 635.273C425.731 637.138 422.694 638.07 418.886 638.07C416.808 638.07 414.891 637.83 413.133 637.351C411.402 636.871 409.911 636.166 408.659 635.233L411.615 630.719C412.467 631.438 413.559 631.997 414.891 632.397C416.249 632.823 417.674 633.036 419.166 633.036C421.27 633.036 422.868 632.57 423.959 631.638C425.051 630.732 425.797 629.347 426.197 627.483L426.356 626.564C424.625 628.162 422.441 628.961 419.805 628.961C418.02 628.961 416.409 628.602 414.971 627.883C413.533 627.137 412.387 626.085 411.535 624.727C410.709 623.368 410.297 621.77 410.297 619.933C410.297 617.749 410.816 615.765 411.855 613.98C412.893 612.196 414.318 610.784 416.129 609.746C417.967 608.707 420.018 608.188 422.282 608.188C423.959 608.188 425.424 608.507 426.676 609.146C427.954 609.759 428.913 610.718 429.552 612.023L430.232 608.507H436.184ZM421.483 623.848C423.294 623.848 424.785 623.262 425.957 622.09C427.129 620.918 427.715 619.413 427.715 617.576C427.715 616.271 427.289 615.245 426.436 614.5C425.584 613.727 424.399 613.341 422.881 613.341C421.043 613.341 419.525 613.927 418.327 615.099C417.155 616.271 416.569 617.775 416.569 619.613C416.569 620.918 417.008 621.957 417.887 622.729C418.766 623.475 419.964 623.848 421.483 623.848ZM447.378 611.064C448.31 610.052 449.428 609.319 450.734 608.867C452.065 608.414 453.623 608.188 455.408 608.188L454.289 613.94C453.543 613.887 453.064 613.86 452.851 613.86C450.96 613.86 449.442 614.326 448.297 615.259C447.178 616.191 446.419 617.642 446.019 619.613L443.942 630H437.71L441.985 608.507H447.897L447.378 611.064ZM480.651 608.507L476.376 630H470.464L470.863 627.883C469.079 629.507 466.881 630.32 464.271 630.32C462.594 630.32 461.049 629.933 459.637 629.161C458.226 628.389 457.094 627.283 456.242 625.845C455.416 624.38 455.003 622.663 455.003 620.692C455.003 618.321 455.522 616.191 456.561 614.3C457.626 612.382 459.065 610.891 460.876 609.825C462.687 608.733 464.684 608.188 466.868 608.188C470.171 608.188 472.501 609.266 473.859 611.423L474.419 608.507H480.651ZM466.189 625.166C467.414 625.166 468.506 624.873 469.465 624.287C470.424 623.675 471.169 622.836 471.702 621.77C472.235 620.705 472.501 619.48 472.501 618.095C472.501 616.63 472.062 615.472 471.183 614.619C470.33 613.767 469.132 613.341 467.587 613.341C466.362 613.341 465.27 613.647 464.311 614.26C463.353 614.846 462.607 615.671 462.074 616.737C461.542 617.802 461.275 619.027 461.275 620.412C461.275 621.877 461.701 623.035 462.554 623.888C463.432 624.74 464.644 625.166 466.189 625.166ZM513.387 608.188C515.73 608.188 517.595 608.827 518.98 610.105C520.365 611.357 521.057 613.141 521.057 615.458C521.057 616.311 520.964 617.189 520.777 618.095L518.42 630H512.188L514.465 618.534C514.572 618.002 514.625 617.456 514.625 616.897C514.625 615.805 514.332 614.979 513.746 614.42C513.187 613.86 512.348 613.581 511.229 613.581C508.22 613.581 506.342 615.378 505.597 618.974L503.399 630H497.167L499.444 618.534C499.551 618.002 499.604 617.469 499.604 616.936C499.604 615.845 499.311 615.019 498.725 614.46C498.166 613.874 497.327 613.581 496.208 613.581C493.199 613.581 491.308 615.405 490.536 619.054L488.378 630H482.146L486.421 608.507H492.333L491.854 610.744C493.718 609.04 495.969 608.188 498.605 608.188C500.097 608.188 501.415 608.494 502.56 609.106C503.732 609.692 504.611 610.558 505.197 611.703C506.236 610.558 507.448 609.692 508.832 609.106C510.217 608.494 511.735 608.188 513.387 608.188ZM529.759 615.978C528.694 615.978 527.815 615.645 527.122 614.979C526.43 614.286 526.084 613.421 526.084 612.382C526.084 611.157 526.483 610.158 527.282 609.386C528.081 608.614 529.067 608.227 530.239 608.227C531.304 608.227 532.169 608.56 532.835 609.226C533.528 609.892 533.874 610.758 533.874 611.823C533.874 613.021 533.461 614.02 532.636 614.819C531.837 615.592 530.878 615.978 529.759 615.978ZM526.883 630.32C525.817 630.32 524.939 629.987 524.246 629.321C523.554 628.628 523.207 627.763 523.207 626.724C523.207 625.499 523.607 624.5 524.406 623.728C525.205 622.956 526.19 622.569 527.362 622.569C528.428 622.569 529.293 622.902 529.959 623.568C530.651 624.234 530.998 625.1 530.998 626.165C530.998 627.363 530.585 628.362 529.759 629.161C528.96 629.933 528.001 630.32 526.883 630.32Z" fill="white"/>
<path d="M314.846 828.507L310.572 850H304.659L305.058 847.883C303.274 849.507 301.077 850.32 298.467 850.32C296.789 850.32 295.244 849.933 293.833 849.161C292.421 848.389 291.289 847.283 290.437 845.845C289.611 844.38 289.198 842.663 289.198 840.692C289.198 838.321 289.718 836.191 290.757 834.3C291.822 832.382 293.26 830.891 295.071 829.825C296.882 828.733 298.88 828.188 301.064 828.188C304.366 828.188 306.696 829.266 308.055 831.423L308.614 828.507H314.846ZM300.384 845.166C301.61 845.166 302.701 844.873 303.66 844.287C304.619 843.675 305.365 842.836 305.897 841.77C306.43 840.705 306.696 839.48 306.696 838.095C306.696 836.63 306.257 835.472 305.378 834.619C304.526 833.767 303.327 833.341 301.783 833.341C300.557 833.341 299.466 833.647 298.507 834.26C297.548 834.846 296.802 835.671 296.27 836.737C295.737 837.802 295.471 839.027 295.471 840.412C295.471 841.877 295.897 843.035 296.749 843.888C297.628 844.74 298.84 845.166 300.384 845.166ZM326.009 831.064C326.941 830.052 328.06 829.319 329.365 828.867C330.697 828.414 332.255 828.188 334.039 828.188L332.921 833.94C332.175 833.887 331.695 833.86 331.482 833.86C329.591 833.86 328.073 834.326 326.928 835.259C325.81 836.191 325.05 837.642 324.651 839.613L322.574 850H316.341L320.616 828.507H326.529L326.009 831.064ZM341.298 850.32C339.434 850.32 337.663 850.12 335.985 849.72C334.334 849.294 333.042 848.748 332.11 848.082L334.507 843.568C335.439 844.181 336.571 844.673 337.903 845.046C339.261 845.419 340.619 845.606 341.978 845.606C343.389 845.606 344.441 845.432 345.134 845.086C345.826 844.713 346.172 844.194 346.172 843.528C346.172 842.995 345.866 842.609 345.253 842.37C344.641 842.13 343.655 841.877 342.297 841.611C340.752 841.318 339.474 840.998 338.462 840.652C337.477 840.306 336.611 839.746 335.865 838.974C335.146 838.175 334.787 837.096 334.787 835.738C334.787 833.368 335.772 831.517 337.743 830.185C339.74 828.853 342.35 828.188 345.573 828.188C347.064 828.188 348.516 828.347 349.928 828.667C351.339 828.986 352.538 829.426 353.523 829.985L351.286 834.539C349.528 833.448 347.411 832.902 344.934 832.902C343.576 832.902 342.537 833.101 341.818 833.501C341.125 833.9 340.779 834.406 340.779 835.019C340.779 835.578 341.085 835.991 341.698 836.257C342.31 836.497 343.336 836.763 344.774 837.056C346.292 837.349 347.531 837.669 348.489 838.015C349.475 838.335 350.327 838.881 351.046 839.653C351.765 840.425 352.125 841.477 352.125 842.809C352.125 845.206 351.113 847.057 349.089 848.362C347.091 849.667 344.494 850.32 341.298 850.32ZM371.47 828.188C373.867 828.188 375.772 828.827 377.183 830.105C378.595 831.383 379.3 833.195 379.3 835.538C379.3 836.39 379.207 837.243 379.021 838.095L376.624 850H370.392L372.709 838.495C372.815 838.042 372.869 837.549 372.869 837.016C372.869 835.898 372.562 835.046 371.95 834.46C371.337 833.874 370.418 833.581 369.193 833.581C367.595 833.581 366.264 834.047 365.198 834.979C364.16 835.884 363.454 837.256 363.081 839.094L360.924 850H354.692L360.604 820.357H366.836L364.839 830.465C366.676 828.947 368.887 828.188 371.47 828.188ZM408.634 828.507L404.36 850H398.447L398.846 847.883C397.062 849.507 394.865 850.32 392.255 850.32C390.577 850.32 389.032 849.933 387.621 849.161C386.209 848.389 385.077 847.283 384.225 845.845C383.399 844.38 382.986 842.663 382.986 840.692C382.986 838.321 383.506 836.191 384.545 834.3C385.61 832.382 387.048 830.891 388.859 829.825C390.67 828.733 392.668 828.188 394.852 828.188C398.154 828.188 400.484 829.266 401.843 831.423L402.402 828.507H408.634ZM394.172 845.166C395.397 845.166 396.489 844.873 397.448 844.287C398.407 843.675 399.153 842.836 399.685 841.77C400.218 840.705 400.484 839.48 400.484 838.095C400.484 836.63 400.045 835.472 399.166 834.619C398.314 833.767 397.115 833.341 395.571 833.341C394.345 833.341 393.254 833.647 392.295 834.26C391.336 834.846 390.59 835.671 390.058 836.737C389.525 837.802 389.259 839.027 389.259 840.412C389.259 841.877 389.685 843.035 390.537 843.888C391.416 844.74 392.628 845.166 394.172 845.166ZM441.37 828.188C443.714 828.188 445.578 828.827 446.963 830.105C448.348 831.357 449.04 833.141 449.04 835.458C449.04 836.311 448.947 837.189 448.761 838.095L446.404 850H440.172L442.449 838.534C442.555 838.002 442.608 837.456 442.608 836.897C442.608 835.805 442.316 834.979 441.73 834.42C441.17 833.86 440.331 833.581 439.213 833.581C436.203 833.581 434.326 835.378 433.58 838.974L431.383 850H425.15L427.428 838.534C427.534 838.002 427.587 837.469 427.587 836.936C427.587 835.845 427.294 835.019 426.709 834.46C426.149 833.874 425.31 833.581 424.192 833.581C421.182 833.581 419.291 835.405 418.519 839.054L416.362 850H410.129L414.404 828.507H420.317L419.837 830.744C421.702 829.04 423.952 828.188 426.589 828.188C428.08 828.188 429.398 828.494 430.544 829.106C431.716 829.692 432.594 830.558 433.18 831.703C434.219 830.558 435.431 829.692 436.816 829.106C438.201 828.494 439.719 828.188 441.37 828.188ZM459.86 850.32C457.996 850.32 456.224 850.12 454.547 849.72C452.895 849.294 451.604 848.748 450.671 848.082L453.068 843.568C454.001 844.181 455.132 844.673 456.464 845.046C457.822 845.419 459.181 845.606 460.539 845.606C461.951 845.606 463.003 845.432 463.695 845.086C464.387 844.713 464.734 844.194 464.734 843.528C464.734 842.995 464.427 842.609 463.815 842.37C463.202 842.13 462.217 841.877 460.859 841.611C459.314 841.318 458.035 840.998 457.023 840.652C456.038 840.306 455.172 839.746 454.427 838.974C453.708 838.175 453.348 837.096 453.348 835.738C453.348 833.368 454.333 831.517 456.304 830.185C458.302 828.853 460.912 828.188 464.134 828.188C465.626 828.188 467.077 828.347 468.489 828.667C469.901 828.986 471.099 829.426 472.084 829.985L469.847 834.539C468.089 833.448 465.972 832.902 463.495 832.902C462.137 832.902 461.098 833.101 460.379 833.501C459.687 833.9 459.34 834.406 459.34 835.019C459.34 835.578 459.647 835.991 460.259 836.257C460.872 836.497 461.897 836.763 463.335 837.056C464.854 837.349 466.092 837.669 467.051 838.015C468.036 838.335 468.888 838.881 469.608 839.653C470.327 840.425 470.686 841.477 470.686 842.809C470.686 845.206 469.674 847.057 467.65 848.362C465.653 849.667 463.056 850.32 459.86 850.32ZM490.032 828.188C492.429 828.188 494.333 828.827 495.745 830.105C497.156 831.383 497.862 833.195 497.862 835.538C497.862 836.39 497.769 837.243 497.582 838.095L495.185 850H488.953L491.27 838.495C491.377 838.042 491.43 837.549 491.43 837.016C491.43 835.898 491.124 835.046 490.511 834.46C489.899 833.874 488.98 833.581 487.755 833.581C486.157 833.581 484.825 834.047 483.76 834.979C482.721 835.884 482.015 837.256 481.642 839.094L479.485 850H473.253L479.165 820.357H485.398L483.4 830.465C485.238 828.947 487.448 828.188 490.032 828.188ZM505.149 828.507H511.341L507.067 850H500.874L505.149 828.507ZM509.304 825.511C508.238 825.511 507.36 825.205 506.667 824.592C506.001 823.953 505.668 823.18 505.668 822.275C505.668 821.21 506.041 820.331 506.787 819.638C507.559 818.919 508.558 818.56 509.783 818.56C510.875 818.56 511.754 818.866 512.42 819.478C513.112 820.064 513.459 820.797 513.459 821.676C513.459 822.821 513.072 823.753 512.3 824.472C511.528 825.165 510.529 825.511 509.304 825.511ZM522.519 831.064C523.451 830.052 524.57 829.319 525.875 828.867C527.207 828.414 528.765 828.188 530.549 828.188L529.431 833.94C528.685 833.887 528.205 833.86 527.992 833.86C526.101 833.86 524.583 834.326 523.438 835.259C522.32 836.191 521.56 837.642 521.161 839.613L519.084 850H512.851L517.126 828.507H523.039L522.519 831.064ZM545.92 837.855L553.311 850H546.08L540.966 841.651L537.171 844.807L536.132 850H529.9L535.813 820.357H542.045L538.729 836.936L549.036 828.507H557.146L545.92 837.855ZM565.939 850.32C563.781 850.32 561.877 849.92 560.226 849.121C558.601 848.322 557.336 847.204 556.431 845.765C555.552 844.301 555.112 842.609 555.112 840.692C555.112 838.321 555.672 836.191 556.79 834.3C557.909 832.409 559.453 830.917 561.424 829.825C563.395 828.733 565.619 828.188 568.096 828.188C570.28 828.188 572.184 828.587 573.809 829.386C575.433 830.185 576.685 831.317 577.564 832.782C578.469 834.22 578.922 835.898 578.922 837.815C578.922 840.186 578.363 842.316 577.244 844.207C576.152 846.098 574.608 847.59 572.61 848.682C570.639 849.774 568.415 850.32 565.939 850.32ZM566.338 845.166C567.537 845.166 568.615 844.873 569.574 844.287C570.533 843.675 571.279 842.836 571.811 841.77C572.344 840.705 572.61 839.48 572.61 838.095C572.61 836.63 572.184 835.472 571.332 834.619C570.48 833.767 569.281 833.341 567.736 833.341C566.511 833.341 565.419 833.647 564.46 834.26C563.502 834.846 562.756 835.671 562.223 836.737C561.691 837.802 561.424 839.027 561.424 840.412C561.424 841.877 561.85 843.035 562.703 843.888C563.582 844.74 564.793 845.166 566.338 845.166ZM606.779 828.507L602.504 850H596.592L597.031 847.683C596.099 848.562 595.034 849.228 593.835 849.68C592.637 850.107 591.372 850.32 590.04 850.32C587.696 850.32 585.819 849.68 584.407 848.402C583.022 847.124 582.33 845.326 582.33 843.009C582.33 842.13 582.423 841.264 582.609 840.412L584.966 828.507H591.199L588.921 840.013C588.815 840.519 588.762 841.038 588.762 841.571C588.762 843.808 589.96 844.926 592.357 844.926C593.929 844.926 595.22 844.474 596.232 843.568C597.271 842.636 597.977 841.251 598.35 839.413L600.547 828.507H606.779ZM625.057 828.188C627.454 828.188 629.358 828.827 630.77 830.105C632.181 831.383 632.887 833.195 632.887 835.538C632.887 836.39 632.794 837.243 632.607 838.095L630.21 850H623.978L626.295 838.495C626.402 838.042 626.455 837.549 626.455 837.016C626.455 835.898 626.149 835.046 625.536 834.46C624.924 833.874 624.005 833.581 622.78 833.581C621.182 833.581 619.85 834.047 618.785 834.979C617.746 835.884 617.04 837.256 616.667 839.094L614.51 850H608.278L614.191 820.357H620.423L618.425 830.465C620.263 828.947 622.473 828.188 625.057 828.188ZM640.174 828.507H646.366L642.092 850H635.899L640.174 828.507ZM644.329 825.511C643.263 825.511 642.385 825.205 641.692 824.592C641.026 823.953 640.693 823.18 640.693 822.275C640.693 821.21 641.066 820.331 641.812 819.638C642.584 818.919 643.583 818.56 644.808 818.56C645.9 818.56 646.779 818.866 647.445 819.478C648.137 820.064 648.484 820.797 648.484 821.676C648.484 822.821 648.097 823.753 647.325 824.472C646.553 825.165 645.554 825.511 644.329 825.511ZM656.745 844.727H668.491L667.452 850H646.279L647.117 845.805L659.861 835.818C661.406 834.566 662.471 833.514 663.057 832.662C663.67 831.81 663.976 830.917 663.976 829.985C663.976 829.053 663.617 828.307 662.898 827.748C662.205 827.189 661.193 826.909 659.861 826.909C658.743 826.909 657.664 827.162 656.625 827.668C655.587 828.174 654.681 828.893 653.909 829.825L649.554 826.669C650.7 825.098 652.271 823.86 654.268 822.954C656.266 822.022 658.45 821.556 660.82 821.556C662.764 821.556 664.469 821.875 665.934 822.515C667.425 823.154 668.57 824.046 669.369 825.191C670.195 826.337 670.608 827.628 670.608 829.066C670.608 830.798 670.128 832.422 669.17 833.94C668.211 835.458 666.546 837.136 664.176 838.974L656.745 844.727ZM682.548 850.479C679.432 850.479 676.969 849.547 675.158 847.683C673.347 845.792 672.441 843.195 672.441 839.893C672.441 836.537 673.054 833.461 674.279 830.664C675.531 827.868 677.262 825.657 679.472 824.033C681.683 822.381 684.2 821.556 687.023 821.556C690.139 821.556 692.602 822.501 694.413 824.392C696.225 826.257 697.13 828.84 697.13 832.143C697.13 835.498 696.504 838.574 695.252 841.371C694.027 844.167 692.309 846.391 690.099 848.042C687.888 849.667 685.372 850.479 682.548 850.479ZM683.148 845.006C684.692 845.006 686.024 844.34 687.143 843.009C688.288 841.677 689.153 840.026 689.739 838.055C690.325 836.058 690.618 834.14 690.618 832.302C690.618 830.518 690.245 829.2 689.5 828.347C688.781 827.468 687.755 827.029 686.424 827.029C684.879 827.029 683.534 827.695 682.389 829.026C681.27 830.358 680.418 832.023 679.832 834.02C679.246 835.991 678.953 837.895 678.953 839.733C678.953 841.517 679.313 842.849 680.032 843.728C680.777 844.58 681.816 845.006 683.148 845.006ZM709.624 850.479C706.508 850.479 704.044 849.547 702.233 847.683C700.422 845.792 699.516 843.195 699.516 839.893C699.516 836.537 700.129 833.461 701.354 830.664C702.606 827.868 704.337 825.657 706.548 824.033C708.758 822.381 711.275 821.556 714.098 821.556C717.214 821.556 719.678 822.501 721.489 824.392C723.3 826.257 724.205 828.84 724.205 832.143C724.205 835.498 723.579 838.574 722.328 841.371C721.103 844.167 719.385 846.391 717.174 848.042C714.964 849.667 712.447 850.479 709.624 850.479ZM710.223 845.006C711.768 845.006 713.099 844.34 714.218 843.009C715.363 841.677 716.229 840.026 716.815 838.055C717.401 836.058 717.693 834.14 717.693 832.302C717.693 830.518 717.321 829.2 716.575 828.347C715.856 827.468 714.83 827.029 713.499 827.029C711.954 827.029 710.609 827.695 709.464 829.026C708.345 830.358 707.493 832.023 706.907 834.02C706.321 835.991 706.028 837.895 706.028 839.733C706.028 841.517 706.388 842.849 707.107 843.728C707.853 844.58 708.891 845.006 710.223 845.006ZM736.499 827.229L734.981 832.542H736.659C740.095 832.542 742.691 833.208 744.449 834.539C746.234 835.871 747.126 837.762 747.126 840.212C747.126 842.263 746.58 844.074 745.488 845.645C744.396 847.19 742.864 848.389 740.894 849.241C738.949 850.067 736.712 850.479 734.182 850.479C732.105 850.479 730.174 850.2 728.389 849.64C726.632 849.081 725.14 848.282 723.915 847.243L727.031 842.489C727.963 843.288 729.082 843.914 730.387 844.367C731.718 844.82 733.117 845.046 734.582 845.046C736.499 845.046 737.977 844.7 739.016 844.008C740.055 843.288 740.574 842.276 740.574 840.971C740.574 838.841 738.763 837.775 735.141 837.775H727.55L732.105 822.035H749.203L748.124 827.229H736.499Z" fill="white"/>
<path d="M312.716 785.578H318.629L316.312 797.084C314.9 798.176 313.262 799.015 311.398 799.601C309.533 800.186 307.603 800.479 305.605 800.479C302.809 800.479 300.372 799.973 298.294 798.961C296.217 797.949 294.606 796.524 293.46 794.687C292.342 792.849 291.783 790.732 291.783 788.335C291.783 785.165 292.515 782.302 293.98 779.746C295.445 777.189 297.509 775.191 300.172 773.753C302.835 772.288 305.898 771.556 309.36 771.556C312.024 771.556 314.327 771.969 316.272 772.794C318.243 773.62 319.827 774.832 321.026 776.43L316.392 780.185C315.459 779.093 314.407 778.307 313.235 777.828C312.064 777.322 310.679 777.069 309.081 777.069C306.95 777.069 305.072 777.548 303.448 778.507C301.823 779.439 300.558 780.731 299.653 782.382C298.774 784.033 298.334 785.884 298.334 787.935C298.334 790.092 299.027 791.81 300.412 793.089C301.823 794.34 303.834 794.966 306.444 794.966C308.095 794.966 309.64 794.633 311.078 793.968L312.716 785.578ZM325.599 778.507H331.791L327.517 800H321.325L325.599 778.507ZM329.754 775.511C328.689 775.511 327.81 775.205 327.117 774.592C326.452 773.953 326.119 773.18 326.119 772.275C326.119 771.21 326.491 770.331 327.237 769.638C328.01 768.919 329.008 768.56 330.233 768.56C331.325 768.56 332.204 768.866 332.87 769.478C333.563 770.064 333.909 770.797 333.909 771.676C333.909 772.821 333.523 773.753 332.75 774.472C331.978 775.165 330.979 775.511 329.754 775.511ZM341.771 792.41C341.718 792.623 341.691 792.916 341.691 793.288C341.691 794.673 342.45 795.366 343.968 795.366C344.794 795.366 345.633 795.113 346.485 794.607L347.404 799.041C346.019 799.893 344.235 800.32 342.051 800.32C340.027 800.32 338.402 799.787 337.177 798.722C335.952 797.656 335.339 796.191 335.339 794.327C335.339 793.794 335.406 793.169 335.539 792.45L337.257 783.78H333.941L334.9 778.986H338.216L339.254 773.753H345.486L344.448 778.986H349.801L348.842 783.78H343.489L341.771 792.41ZM367.442 778.188C369.838 778.188 371.743 778.827 373.154 780.105C374.566 781.383 375.272 783.195 375.272 785.538C375.272 786.39 375.178 787.243 374.992 788.095L372.595 800H366.363L368.68 788.495C368.786 788.042 368.84 787.549 368.84 787.016C368.84 785.898 368.533 785.046 367.921 784.46C367.308 783.874 366.39 783.581 365.164 783.581C363.566 783.581 362.235 784.047 361.169 784.979C360.131 785.884 359.425 787.256 359.052 789.094L356.895 800H350.663L356.575 770.357H362.807L360.81 780.465C362.648 778.947 364.858 778.188 367.442 778.188ZM404.211 778.507L399.937 800H394.024L394.464 797.683C393.532 798.562 392.466 799.228 391.268 799.68C390.069 800.107 388.804 800.32 387.473 800.32C385.129 800.32 383.251 799.68 381.84 798.402C380.455 797.124 379.762 795.326 379.762 793.009C379.762 792.13 379.855 791.264 380.042 790.412L382.399 778.507H388.631L386.354 790.013C386.247 790.519 386.194 791.038 386.194 791.571C386.194 793.808 387.393 794.926 389.79 794.926C391.361 794.926 392.653 794.474 393.665 793.568C394.703 792.636 395.409 791.251 395.782 789.413L397.979 778.507H404.211ZM422.05 778.188C423.728 778.188 425.272 778.574 426.684 779.346C428.122 780.118 429.254 781.237 430.08 782.702C430.932 784.14 431.358 785.845 431.358 787.815C431.358 790.186 430.825 792.33 429.76 794.247C428.721 796.138 427.297 797.63 425.486 798.722C423.674 799.787 421.664 800.32 419.453 800.32C417.775 800.32 416.324 800.027 415.099 799.441C413.873 798.855 412.928 797.976 412.262 796.804L411.623 800H405.71L411.623 770.357H417.855L415.858 780.345C417.589 778.907 419.653 778.188 422.05 778.188ZM418.734 795.166C419.959 795.166 421.051 794.873 422.01 794.287C422.969 793.675 423.714 792.836 424.247 791.77C424.78 790.705 425.046 789.48 425.046 788.095C425.046 786.63 424.607 785.472 423.728 784.619C422.875 783.767 421.677 783.341 420.132 783.341C418.934 783.341 417.855 783.647 416.896 784.26C415.938 784.846 415.192 785.671 414.659 786.737C414.127 787.802 413.86 789.027 413.86 790.412C413.86 791.877 414.286 793.035 415.139 793.888C415.991 794.74 417.189 795.166 418.734 795.166ZM439.006 785.978C437.94 785.978 437.061 785.645 436.369 784.979C435.677 784.286 435.33 783.421 435.33 782.382C435.33 781.157 435.73 780.158 436.529 779.386C437.328 778.614 438.313 778.227 439.485 778.227C440.55 778.227 441.416 778.56 442.082 779.226C442.774 779.892 443.12 780.758 443.12 781.823C443.12 783.021 442.708 784.02 441.882 784.819C441.083 785.592 440.124 785.978 439.006 785.978ZM436.129 800.32C435.064 800.32 434.185 799.987 433.493 799.321C432.8 798.628 432.454 797.763 432.454 796.724C432.454 795.499 432.853 794.5 433.652 793.728C434.451 792.956 435.437 792.569 436.609 792.569C437.674 792.569 438.54 792.902 439.205 793.568C439.898 794.234 440.244 795.1 440.244 796.165C440.244 797.363 439.831 798.362 439.006 799.161C438.207 799.933 437.248 800.32 436.129 800.32Z" fill="white"/>
<path d="M213.642 97.7081C213.854 97.6327 213.616 96.4629 213.088 94.9786L212.163 92.3812L231.458 85.5116L250.753 78.6419L251.535 80.8375C252.031 82.2308 252.175 83.1721 251.93 83.4145C251.62 83.7195 251.651 83.8064 252.084 83.8472C252.382 83.8754 252.798 84.3856 253.01 84.9807L253.395 86.0631L257.106 84.742L260.817 83.4209L273.235 118.3L285.653 153.18L281.571 154.633C279.098 155.514 277.542 156.232 277.622 156.457C277.694 156.661 277.921 156.769 278.125 156.696C278.345 156.618 278.98 157.925 279.685 159.904L280.874 163.243L261.208 170.245L241.542 177.247L240.221 173.536L238.9 169.825L235.189 171.147L231.479 172.468L219.06 137.588L206.642 102.709L210.353 101.388L214.063 100.067L213.667 98.9534C213.449 98.3412 213.438 97.7808 213.642 97.7081Z" fill="#F8CC14"/>
<rect x="213.799" y="99.3242" width="41.7506" height="59.0811" transform="rotate(-19.5973 213.799 99.3242)" fill="#007AE0"/>
<rect x="252.056" y="155.107" width="7.87748" height="7.87748" transform="rotate(-19.5973 252.056 155.107)" fill="#007AE0"/>
<path d="M198.446 294.485L197.723 292.156L197 289.826L233.769 278.413L270.539 267L271.262 269.329L271.985 271.659L269.067 272.564C266.58 273.336 266.2 273.635 266.495 274.587C266.686 275.2 266.555 275.938 266.204 276.225C265.714 276.625 265.799 276.82 266.568 277.064C268.093 277.548 266.74 279.671 264.454 280.381C261.91 281.17 261.32 282.65 262.295 285.794L263.121 288.456L260.203 289.362L257.285 290.267L258.189 293.179L259.093 296.091L256.174 296.997L253.256 297.902L254.16 300.814L255.064 303.726L252.146 304.632L249.227 305.538L250.312 309.032L251.397 312.526L254.898 311.439L258.4 310.352L257.496 307.44L256.593 304.528L259.511 303.623L262.429 302.717L261.525 299.805L260.621 296.893L263.54 295.987L266.458 295.082L265.373 291.588L264.289 288.093L266.957 287.265C268.671 286.733 269.866 285.981 270.298 285.162C270.787 284.235 270.753 283.883 270.171 283.871C269.731 283.862 269.135 283.091 268.845 282.157C268.333 280.507 268.401 280.432 271.236 279.553L274.154 278.647L279.758 296.7L285.361 314.752L249.426 325.907C219.059 335.332 213.321 336.972 212.398 336.488C211.503 336.018 210.387 332.953 206.219 319.526C200.578 301.353 200.59 301.481 204.367 300.308L206.452 299.661L207.355 302.573L208.259 305.485L210.343 304.838C212.914 304.04 214.437 304.774 215.18 307.167C215.923 309.561 217.447 310.295 220.017 309.497C222.018 308.876 222.127 308.933 222.747 310.929C223.543 313.494 225.012 314.331 227.411 313.586C229.809 312.842 231.278 313.679 232.075 316.243L232.72 318.323L235.638 317.417L238.556 316.511L239.46 319.423L240.364 322.335L246.784 320.342L253.204 318.349L252.378 315.687C251.185 311.844 250.291 311.592 244.365 313.432L239.362 314.984L238.717 312.905C237.852 310.118 236.447 309.505 233.219 310.507L230.551 311.335L229.647 308.423L228.743 305.511L225.825 306.417L222.907 307.323L222.003 304.411L221.099 301.499L218.181 302.405L215.263 303.311L214.437 300.649C213.437 297.428 212.135 296.621 209.342 297.488L207.257 298.134L206.354 295.223L205.45 292.311L201.948 293.398L198.446 294.485Z" fill="#F8CC14"/>
</svg>
