<svg width="210" height="255" viewBox="0 0 210 255" fill="none" xmlns="http://www.w3.org/2000/svg">
<g filter="url(#filter0_d)">
<path d="M56.4543 199.479C54.2449 199.479 52.1286 199.186 50.1055 198.601C48.0823 198.015 46.4585 197.27 45.234 196.365L47.8694 191.373C49.1471 192.305 50.5846 193.024 52.1818 193.53C53.779 194.035 55.4161 194.288 57.0932 194.288C58.8767 194.288 60.2876 193.995 61.3258 193.41C62.364 192.824 62.8831 192.026 62.8831 191.014C62.8831 190.189 62.4704 189.563 61.6452 189.137C60.82 188.685 59.5023 188.206 57.6922 187.7C55.882 187.167 54.4046 186.662 53.2599 186.182C52.1153 185.677 51.117 184.931 50.2652 183.946C49.44 182.961 49.0273 181.657 49.0273 180.033C49.0273 178.143 49.5464 176.479 50.5846 175.042C51.6494 173.605 53.1401 172.5 55.0568 171.728C57 170.956 59.2494 170.57 61.8049 170.57C63.695 170.57 65.4785 170.783 67.1556 171.209C68.8326 171.608 70.2701 172.194 71.468 172.966L69.0323 177.917C67.9941 177.198 66.8228 176.666 65.5184 176.32C64.2141 175.947 62.8564 175.761 61.4456 175.761C59.6088 175.761 58.158 176.08 57.0932 176.719C56.0284 177.358 55.496 178.183 55.496 179.195C55.496 179.807 55.7223 180.326 56.1748 180.752C56.6274 181.151 57.1997 181.484 57.8918 181.75C58.5839 181.99 59.5556 182.283 60.8067 182.629C62.5902 183.108 64.0543 183.6 65.199 184.106C66.3437 184.585 67.3153 185.304 68.1139 186.262C68.9391 187.194 69.3517 188.432 69.3517 189.976C69.3517 191.892 68.8193 193.57 67.7545 195.007C66.6897 196.418 65.1857 197.523 63.2424 198.321C61.2992 199.093 59.0365 199.479 56.4543 199.479ZM80.2404 191.413C80.1872 191.626 80.1606 191.919 80.1606 192.292C80.1606 193.676 80.9192 194.368 82.4366 194.368C83.2618 194.368 84.1003 194.115 84.9522 193.609L85.8706 198.042C84.4863 198.894 82.7028 199.319 80.5199 199.319C78.4968 199.319 76.873 198.787 75.6485 197.722C74.424 196.657 73.8117 195.193 73.8117 193.33C73.8117 192.798 73.8783 192.172 74.0114 191.453L75.7283 182.788H72.4142L73.3725 177.997H76.6867L77.7248 172.766H83.9539L82.9157 177.997H88.2664L87.3081 182.788H81.9574L80.2404 191.413ZM114.539 177.518L110.267 199H104.357L104.756 196.884C102.973 198.508 100.777 199.319 98.1678 199.319C96.4907 199.319 94.9467 198.933 93.5359 198.161C92.125 197.389 90.9937 196.285 90.1418 194.847C89.3166 193.383 88.904 191.666 88.904 189.696C88.904 187.327 89.4231 185.198 90.4613 183.308C91.5261 181.391 92.9636 179.9 94.7737 178.835C96.5839 177.744 98.5804 177.198 100.763 177.198C104.064 177.198 106.393 178.276 107.751 180.433L108.31 177.518H114.539ZM100.084 194.168C101.309 194.168 102.4 193.876 103.359 193.29C104.317 192.678 105.062 191.839 105.595 190.774C106.127 189.71 106.393 188.485 106.393 187.101C106.393 185.637 105.954 184.479 105.076 183.627C104.224 182.775 103.026 182.349 101.482 182.349C100.257 182.349 99.166 182.655 98.2077 183.268C97.2494 183.853 96.504 184.678 95.9716 185.743C95.4392 186.808 95.173 188.033 95.173 189.417C95.173 190.881 95.5989 192.039 96.4508 192.891C97.3292 193.743 98.5404 194.168 100.084 194.168ZM127.374 199.319C125.164 199.319 123.234 198.92 121.584 198.122C119.933 197.323 118.656 196.205 117.751 194.767C116.872 193.303 116.433 191.613 116.433 189.696C116.433 187.327 116.992 185.198 118.11 183.308C119.228 181.417 120.785 179.927 122.782 178.835C124.778 177.744 127.028 177.198 129.53 177.198C131.819 177.198 133.789 177.677 135.44 178.636C137.117 179.567 138.368 180.898 139.193 182.629L133.922 185.264C132.991 183.321 131.393 182.349 129.131 182.349C127.906 182.349 126.801 182.655 125.816 183.268C124.858 183.853 124.099 184.678 123.54 185.743C123.008 186.808 122.742 188.019 122.742 189.377C122.742 190.841 123.181 192.012 124.06 192.891C124.938 193.743 126.163 194.168 127.733 194.168C130.022 194.168 131.779 193.21 133.004 191.294L137.596 194.168C136.558 195.792 135.133 197.057 133.323 197.962C131.54 198.867 129.557 199.319 127.374 199.319ZM155.481 186.861L162.868 199H155.641L150.53 190.655L146.736 193.809L145.698 199H139.469L145.379 169.372H151.608L148.294 185.943L158.596 177.518H166.701L155.481 186.861ZM25.8302 248.319C23.674 248.319 21.7706 247.92 20.1202 247.122C18.4964 246.323 17.2319 245.205 16.3269 243.767C15.4484 242.303 15.0092 240.613 15.0092 238.696C15.0092 236.327 15.5682 234.198 16.6862 232.308C17.8043 230.417 19.3482 228.927 21.3181 227.835C23.288 226.744 25.5108 226.198 27.9864 226.198C30.1693 226.198 32.0726 226.598 33.6964 227.396C35.3202 228.195 36.5714 229.326 37.4498 230.79C38.3549 232.228 38.8074 233.905 38.8074 235.821C38.8074 238.191 38.2484 240.32 37.1304 242.21C36.039 244.1 34.495 245.591 32.4985 246.682C30.5286 247.774 28.3059 248.319 25.8302 248.319ZM26.2295 243.168C27.4274 243.168 28.5055 242.876 29.4638 242.29C30.4221 241.678 31.1675 240.839 31.6999 239.774C32.2323 238.71 32.4985 237.485 32.4985 236.101C32.4985 234.637 32.0726 233.479 31.2207 232.627C30.3689 231.775 29.171 231.349 27.627 231.349C26.4025 231.349 25.3111 231.655 24.3528 232.268C23.3945 232.853 22.6491 233.678 22.1167 234.743C21.5843 235.808 21.3181 237.033 21.3181 238.417C21.3181 239.881 21.744 241.039 22.5959 241.891C23.4743 242.743 24.6855 243.168 26.2295 243.168ZM65.7462 226.518L52.4095 248H45.9808L41.2291 226.518H47.3784L50.4929 241.172L59.5171 226.518H65.7462ZM86.7497 235.662C86.7497 236.647 86.6299 237.738 86.3903 238.936H69.9391C70.1521 241.864 72.0022 243.328 75.4894 243.328C76.5808 243.328 77.619 243.155 78.6039 242.809C79.6155 242.463 80.494 241.971 81.2393 241.332L83.8348 245.444C82.6369 246.403 81.2659 247.122 79.722 247.601C78.178 248.08 76.5542 248.319 74.8505 248.319C72.6411 248.319 70.6978 247.933 69.0207 247.161C67.3703 246.363 66.0925 245.232 65.1874 243.767C64.309 242.303 63.8698 240.613 63.8698 238.696C63.8698 236.327 64.4022 234.198 65.467 232.308C66.5584 230.391 68.0624 228.9 69.9791 227.835C71.8957 226.744 74.0785 226.198 76.5276 226.198C78.6039 226.198 80.4008 226.584 81.9181 227.356C83.4621 228.128 84.6467 229.233 85.4719 230.67C86.3237 232.108 86.7497 233.772 86.7497 235.662ZM76.2481 230.87C74.784 230.87 73.5461 231.269 72.5346 232.068C71.523 232.84 70.8043 233.918 70.3783 235.302H81.0397C81.0397 233.918 80.6004 232.84 79.722 232.068C78.8701 231.269 77.7122 230.87 76.2481 230.87ZM98.1668 229.073C99.0985 228.062 100.217 227.33 101.521 226.877C102.852 226.424 104.409 226.198 106.193 226.198L105.075 231.948C104.329 231.895 103.85 231.868 103.637 231.868C101.747 231.868 100.23 232.334 99.0852 233.266C97.9672 234.198 97.2085 235.648 96.8092 237.618L94.7328 248H88.5038L92.7763 226.518H98.6859L98.1668 229.073ZM120.86 222.964C119.901 222.964 119.143 223.23 118.584 223.762C118.051 224.268 117.678 225.08 117.465 226.198L117.306 226.997H122.776L121.818 231.788H116.507L113.273 248H107.044L110.278 231.788H106.924L107.882 226.997H111.236L111.476 225.759C111.982 223.363 113.02 221.486 114.591 220.129C116.188 218.745 118.264 218.052 120.82 218.052C121.778 218.052 122.683 218.159 123.535 218.372C124.413 218.585 125.159 218.878 125.771 219.25L123.335 223.723C122.67 223.217 121.844 222.964 120.86 222.964ZM127.648 218.372H133.877L127.967 248H121.738L127.648 218.372ZM144.996 248.319C142.84 248.319 140.937 247.92 139.286 247.122C137.662 246.323 136.398 245.205 135.493 243.767C134.614 242.303 134.175 240.613 134.175 238.696C134.175 236.327 134.734 234.198 135.852 232.308C136.97 230.417 138.514 228.927 140.484 227.835C142.454 226.744 144.677 226.198 147.153 226.198C149.335 226.198 151.239 226.598 152.862 227.396C154.486 228.195 155.737 229.326 156.616 230.79C157.521 232.228 157.974 233.905 157.974 235.821C157.974 238.191 157.415 240.32 156.296 242.21C155.205 244.1 153.661 245.591 151.665 246.682C149.695 247.774 147.472 248.319 144.996 248.319ZM145.396 243.168C146.593 243.168 147.672 242.876 148.63 242.29C149.588 241.678 150.334 240.839 150.866 239.774C151.398 238.71 151.665 237.485 151.665 236.101C151.665 234.637 151.239 233.479 150.387 232.627C149.535 231.775 148.337 231.349 146.793 231.349C145.569 231.349 144.477 231.655 143.519 232.268C142.561 232.853 141.815 233.678 141.283 234.743C140.75 235.808 140.484 237.033 140.484 238.417C140.484 239.881 140.91 241.039 141.762 241.891C142.64 242.743 143.852 243.168 145.396 243.168ZM198.369 226.518L186.509 248H180.36L177.885 234.623L170.498 248H164.428L160.635 226.518H166.305L168.661 240.972L176.727 226.518H182.077L184.513 240.972L192.499 226.518H198.369Z" fill="#F8CC14"/>
</g>
<g filter="url(#filter1_d)">
<path fill-rule="evenodd" clip-rule="evenodd" d="M121.178 5.00429V10.0086H123.717H126.256V12.5107V15.0129H128.795H131.335V17.515V20.0172H133.874H136.413V25.0215V30.0257H138.952H141.492V32.5279V35.03H144.031H146.57V37.5322V40.0343H149.109H151.649V45.0386V50.0429H154.188H156.727V52.5451V55.0472H159.266H161.806V57.5493V60.0515H166.884H171.963V55.0472V50.0429H169.423H166.884V47.5408V45.0386H164.345H161.806V42.5365V40.0343H159.266H156.727V35.03V30.0257H154.188H151.649V27.5236V25.0215H149.109H146.57V22.5193V20.0172H144.031H141.492V15.0129V10.0086H138.952H136.413V7.50644V5.00429H133.874H131.335V2.50215V0H126.256H121.178V5.00429ZM95.7851 30.0257V35.03H100.864H105.942V37.5322V40.0343H108.481H111.021V42.5365V45.0386H113.56H116.099V47.5408V50.0429H121.178H126.256V52.5451V55.0472H128.795H131.335V57.5493V60.0515H133.874H136.413V62.5536V65.0558H138.952H141.492V67.5579V70.0601H149.109H156.727V67.5579V65.0558H154.188H151.649V62.5536V60.0515H149.109H146.57V57.5493V55.0472H144.031H141.492V52.5451V50.0429H138.952H136.413V47.5408V45.0386H131.335H126.256V42.5365V40.0343H123.717H121.178V37.5322V35.03H118.638H116.099V32.5279V30.0257H111.021H105.942V27.5236V25.0215H100.864H95.7851V30.0257ZM80.5495 55.0472V60.0515H85.6281H90.7066V62.5536V65.0558H95.7851H100.864V67.5579V70.0601H105.942H111.021V72.5622V75.0644H116.099H121.178V77.5665V80.0687H126.256H131.335V82.5708V85.0729H136.413H141.492V87.5751V90.0772H144.031H146.57V85.0729V80.0687H144.031H141.492V77.5665V75.0644H136.413H131.335V72.5622V70.0601H126.256H121.178V67.5579V65.0558H116.099H111.021V62.5536V60.0515H105.942H100.864V57.5493V55.0472H95.7851H90.7066V52.5451V50.0429H85.6281H80.5495V55.0472ZM70.3925 90.0772V95.0815H83.0888H95.7851V97.5837V100.086H108.481H121.178V102.588V105.09H133.874H146.57V102.588V100.086H144.031H141.492V97.5837V95.0815H131.335H121.178V92.5794V90.0772H108.481H95.7851V87.5751V85.0729H83.0888H70.3925V90.0772ZM45 119.947V149.816H111.021H177.041V119.947V90.0772H171.963H166.884V115.099V140.12H111.021H55.157V115.099V90.0772H50.0785H45V119.947ZM70.3925 120.103V125.107H108.481H146.57V120.103V115.099H108.481H70.3925V120.103Z" fill="#F8CC14"/>
</g>
<defs>
<filter id="filter0_d" x="15.0098" y="169.372" width="189.359" height="84.9475" filterUnits="userSpaceOnUse" color-interpolation-filters="sRGB">
<feFlood flood-opacity="0" result="BackgroundImageFix"/>
<feColorMatrix in="SourceAlpha" type="matrix" values="0 0 0 0 0 0 0 0 0 0 0 0 0 0 0 0 0 0 127 0"/>
<feOffset dx="6" dy="6"/>
<feColorMatrix type="matrix" values="0 0 0 0 0 0 0 0 0 0.478431 0 0 0 0 0.878431 0 0 0 1 0"/>
<feBlend mode="normal" in2="BackgroundImageFix" result="effect1_dropShadow"/>
<feBlend mode="normal" in="SourceGraphic" in2="effect1_dropShadow" result="shape"/>
</filter>
<filter id="filter1_d" x="45" y="0" width="138.041" height="155.816" filterUnits="userSpaceOnUse" color-interpolation-filters="sRGB">
<feFlood flood-opacity="0" result="BackgroundImageFix"/>
<feColorMatrix in="SourceAlpha" type="matrix" values="0 0 0 0 0 0 0 0 0 0 0 0 0 0 0 0 0 0 127 0"/>
<feOffset dx="6" dy="6"/>
<feColorMatrix type="matrix" values="0 0 0 0 0 0 0 0 0 0.478431 0 0 0 0 0.878431 0 0 0 1 0"/>
<feBlend mode="normal" in2="BackgroundImageFix" result="effect1_dropShadow"/>
<feBlend mode="normal" in="SourceGraphic" in2="effect1_dropShadow" result="shape"/>
</filter>
</defs>
</svg>
