<svg width="601" height="249" viewBox="0 0 601 249" fill="none" xmlns="http://www.w3.org/2000/svg">
<g filter="url(#filter0_d)">
<rect x="492" y="177" width="37" height="38" fill="#01A3DE"/>
</g>
<g filter="url(#filter1_d)">
<rect x="565" y="213" width="30" height="30" fill="#01A3DE"/>
</g>
<g filter="url(#filter2_d)">
<rect x="553" y="165" width="24" height="25" fill="#01A3DE"/>
</g>
<g filter="url(#filter3_d)">
<rect x="505" y="115" width="32" height="34" fill="#01A3DE"/>
</g>
<g filter="url(#filter4_d)">
<path d="M447.663 0V37.5633H480V144.556H447.663V178H36.0672V144.556H0V37.5633H36.0672V0H447.663Z" fill="#01A3DE"/>
</g>
<path d="M77.043 50.5547H86.0273V82H77.043V68.5234H68.0586V82H59.0742V50.5547H68.0586V64.0312H77.043V50.5547ZM90.5195 82V50.5547H112.98V55.0469H99.5039V64.0312H112.98V68.5234H99.5039V77.5078H112.98V82H90.5195ZM135.441 64.0312V50.5547H144.426V64.0312H139.934V68.5234H135.441V82H126.457V68.5234H121.965V64.0312H117.473V50.5547H126.457V64.0312H135.441ZM184.855 73.0156H193.84V77.5078H189.348V82H171.379V77.5078H166.887V55.0469H171.379V50.5547H189.348V55.0469H193.84V59.5391H184.855V55.0469H175.871V77.5078H184.855V73.0156ZM216.301 50.5547H225.285V82H216.301V68.5234H207.316V82H198.332V50.5547H207.316V64.0312H216.301V50.5547ZM229.777 82V50.5547H252.238V55.0469H238.762V64.0312H252.238V68.5234H238.762V77.5078H252.238V82H229.777ZM274.699 73.0156H283.684V77.5078H279.191V82H261.223V77.5078H256.73V55.0469H261.223V50.5547H279.191V55.0469H283.684V59.5391H274.699V55.0469H265.715V77.5078H274.699V73.0156ZM297.16 82H288.176V50.5547H297.16V64.0312H301.652V59.5391H306.145V50.5547H315.129V59.5391H310.637V64.0312H306.145V68.5234H310.637V73.0156H315.129V82H306.145V73.0156H301.652V68.5234H297.16V82ZM355.559 55.0469H346.574V77.5078H355.559V55.0469ZM342.082 77.5078H337.59V55.0469H342.082V50.5547H360.051V55.0469H364.543V77.5078H360.051V82H342.082V77.5078ZM387.004 50.5547H395.988V82H373.527V77.5078H369.035V50.5547H378.02V77.5078H387.004V50.5547ZM427.434 50.5547V55.0469H418.449V82H409.465V55.0469H400.48V50.5547H427.434ZM119.719 122.523V136H115.227V104.555H124.211V113.539H137.688V104.555H146.672V136H137.688V122.523H133.195V131.508H124.211V122.523H119.719ZM169.133 118.031V104.555H178.117V118.031H173.625V122.523H169.133V136H160.148V122.523H155.656V118.031H151.164V104.555H160.148V118.031H169.133ZM218.547 109.047H209.562V118.031H223.039V122.523H227.531V131.508H223.039V136H205.07V131.508H200.578V127.016H209.562V131.508H218.547V122.523H205.07V118.031H200.578V109.047H205.07V104.555H223.039V109.047H227.531V113.539H218.547V109.047ZM241.008 136H232.023V104.555H241.008V118.031H245.5V113.539H249.992V104.555H258.977V113.539H254.484V118.031H249.992V122.523H254.484V127.016H258.977V136H249.992V127.016H245.5V122.523H241.008V136ZM263.469 136V104.555H272.453V136H263.469ZM299.406 130.385V136H276.945V104.555H285.93V130.385H299.406ZM326.359 130.385V136H303.898V104.555H312.883V130.385H326.359ZM348.82 109.047H339.836V118.031H353.312V122.523H357.805V131.508H353.312V136H335.344V131.508H330.852V127.016H339.836V131.508H348.82V122.523H335.344V118.031H330.852V109.047H335.344V104.555H353.312V109.047H357.805V113.539H348.82V109.047ZM362.297 136V130.385H366.789V136H362.297ZM362.297 104.555H371.281V121.4H366.789V125.893H362.297V104.555Z" fill="white"/>
<defs>
<filter id="filter0_d" x="492" y="177" width="43" height="44" filterUnits="userSpaceOnUse" color-interpolation-filters="sRGB">
<feFlood flood-opacity="0" result="BackgroundImageFix"/>
<feColorMatrix in="SourceAlpha" type="matrix" values="0 0 0 0 0 0 0 0 0 0 0 0 0 0 0 0 0 0 127 0"/>
<feOffset dx="6" dy="6"/>
<feColorMatrix type="matrix" values="0 0 0 0 0.976471 0 0 0 0 0.8 0 0 0 0 0.0784314 0 0 0 1 0"/>
<feBlend mode="normal" in2="BackgroundImageFix" result="effect1_dropShadow"/>
<feBlend mode="normal" in="SourceGraphic" in2="effect1_dropShadow" result="shape"/>
</filter>
<filter id="filter1_d" x="565" y="213" width="36" height="36" filterUnits="userSpaceOnUse" color-interpolation-filters="sRGB">
<feFlood flood-opacity="0" result="BackgroundImageFix"/>
<feColorMatrix in="SourceAlpha" type="matrix" values="0 0 0 0 0 0 0 0 0 0 0 0 0 0 0 0 0 0 127 0"/>
<feOffset dx="6" dy="6"/>
<feColorMatrix type="matrix" values="0 0 0 0 0.976471 0 0 0 0 0.8 0 0 0 0 0.0784314 0 0 0 1 0"/>
<feBlend mode="normal" in2="BackgroundImageFix" result="effect1_dropShadow"/>
<feBlend mode="normal" in="SourceGraphic" in2="effect1_dropShadow" result="shape"/>
</filter>
<filter id="filter2_d" x="553" y="165" width="30" height="31" filterUnits="userSpaceOnUse" color-interpolation-filters="sRGB">
<feFlood flood-opacity="0" result="BackgroundImageFix"/>
<feColorMatrix in="SourceAlpha" type="matrix" values="0 0 0 0 0 0 0 0 0 0 0 0 0 0 0 0 0 0 127 0"/>
<feOffset dx="6" dy="6"/>
<feColorMatrix type="matrix" values="0 0 0 0 0.976471 0 0 0 0 0.8 0 0 0 0 0.0784314 0 0 0 1 0"/>
<feBlend mode="normal" in2="BackgroundImageFix" result="effect1_dropShadow"/>
<feBlend mode="normal" in="SourceGraphic" in2="effect1_dropShadow" result="shape"/>
</filter>
<filter id="filter3_d" x="505" y="115" width="38" height="40" filterUnits="userSpaceOnUse" color-interpolation-filters="sRGB">
<feFlood flood-opacity="0" result="BackgroundImageFix"/>
<feColorMatrix in="SourceAlpha" type="matrix" values="0 0 0 0 0 0 0 0 0 0 0 0 0 0 0 0 0 0 127 0"/>
<feOffset dx="6" dy="6"/>
<feColorMatrix type="matrix" values="0 0 0 0 0.976471 0 0 0 0 0.8 0 0 0 0 0.0784314 0 0 0 1 0"/>
<feBlend mode="normal" in2="BackgroundImageFix" result="effect1_dropShadow"/>
<feBlend mode="normal" in="SourceGraphic" in2="effect1_dropShadow" result="shape"/>
</filter>
<filter id="filter4_d" x="0" y="0" width="486" height="184" filterUnits="userSpaceOnUse" color-interpolation-filters="sRGB">
<feFlood flood-opacity="0" result="BackgroundImageFix"/>
<feColorMatrix in="SourceAlpha" type="matrix" values="0 0 0 0 0 0 0 0 0 0 0 0 0 0 0 0 0 0 127 0"/>
<feOffset dx="6" dy="6"/>
<feColorMatrix type="matrix" values="0 0 0 0 0.976471 0 0 0 0 0.8 0 0 0 0 0.0784314 0 0 0 1 0"/>
<feBlend mode="normal" in2="BackgroundImageFix" result="effect1_dropShadow"/>
<feBlend mode="normal" in="SourceGraphic" in2="effect1_dropShadow" result="shape"/>
</filter>
</defs>
</svg>
