<svg width="142" height="154" viewBox="0 0 142 154" fill="none" xmlns="http://www.w3.org/2000/svg">
<path d="M98.9368 29.9984L124.833 62.7934L127.174 29.5084L96.5412 26.9645L98.9368 29.9984Z" fill="#007AE0"/>
<path d="M17.4078 60.6357L28.6138 28.4952L6.3347 39.4007L16.3711 63.609L17.4078 60.6357Z" fill="#007AE0"/>
<path d="M79.174 129.244L48.9191 135.329L68.5054 149.963L81.9729 128.681L79.174 129.244Z" fill="#007AE0"/>
<path d="M86.921 18.5459L122.508 65.606L102.731 122.634L47.3685 132.603L11.7819 85.5425L31.5581 28.5142L86.921 18.5459Z" fill="#007AE0"/>
<path fill-rule="evenodd" clip-rule="evenodd" d="M70 45.9708V47.9415H71H72V48.9269V49.9123H73H74V50.8977V51.8831H75H76V53.8539V55.8246H77H78V56.81V57.7954H79H80V58.7808V59.7662H81H82V61.737V63.7077H83H84V64.6931V65.6785H85H86V66.6639V67.6493H88H90V65.6785V63.7077H89H88V62.7223V61.737H87H86V60.7516V59.7662H85H84V57.7954V55.8246H83H82V54.8392V53.8539H81H80V52.8685V51.8831H79H78V49.9123V47.9415H77H76V46.9562V45.9708H75H74V44.9854V44H72H70V45.9708ZM60 55.8246V57.7954H62H64V58.7808V59.7662H65H66V60.7516V61.737H67H68V62.7223V63.7077H70H72V64.6931V65.6785H73H74V66.6639V67.6493H75H76V68.6347V69.62H77H78V70.6054V71.5908H81H84V70.6054V69.62H83H82V68.6347V67.6493H81H80V66.6639V65.6785H79H78V64.6931V63.7077H77H76V62.7223V61.737H74H72V60.7516V59.7662H71H70V58.7808V57.7954H69H68V56.81V55.8246H66H64V54.8392V53.8539H62H60V55.8246ZM54 65.6785V67.6493H56H58V68.6347V69.62H60H62V70.6054V71.5908H64H66V72.5762V73.5616H68H70V74.547V75.5324H72H74V76.5177V77.5031H76H78V78.4885V79.4739H79H80V77.5031V75.5324H79H78V74.547V73.5616H76H74V72.5762V71.5908H72H70V70.6054V69.62H68H66V68.6347V67.6493H64H62V66.6639V65.6785H60H58V64.6931V63.7077H56H54V65.6785ZM50 79.4739V81.4447H55H60V82.4301V83.4154H65H70V84.4008V85.3862H75H80V84.4008V83.4154H79H78V82.4301V81.4447H74H70V80.4593V79.4739H65H60V78.4885V77.5031H55H50V79.4739ZM40 91.237V103H66H92V91.237V79.4739H90H88V89.3278V99.1816H66H44V89.3278V79.4739H42H40V91.237ZM50 91.2985V93.2693H65H80V91.2985V89.3278H65H50V91.2985Z" fill="white"/>
</svg>
