<svg width="1000" height="583" viewBox="0 0 1000 583" fill="none" xmlns="http://www.w3.org/2000/svg">
<path d="M832.367 5.9707H529.09V464.137H832.367V5.9707Z"/>
<path d="M627.904 108.617H627.369V109.152H627.904V108.617Z" fill="#372D24"/>
<path d="M411.463 100.626L371.835 49.0386L417.532 53.7406L415.129 105.399L411.463 100.626Z" fill="#007AE0"/>
<path d="M488.799 201.301L449.171 149.714L494.868 154.416L492.465 206.074L488.799 201.301Z" fill="#007AE0"/>
<path d="M443.706 143.041L420.695 113.087L447.229 115.818L445.834 145.812L443.706 143.041Z" fill="#007AE0"/>
<path d="M446.652 103.579L423.643 73.6243L422.247 103.619L448.781 106.349L446.652 103.579Z" fill="#007AE0"/>
<path d="M458.408 103.86L423.254 58.0964L463.792 62.2674L461.66 108.093L458.408 103.86Z" fill="#007AE0"/>
<path d="M504.489 147.479L452.014 142.079L482.186 112.625L509.343 147.979L504.489 147.479Z" fill="#007AE0"/>
<path d="M1000 459.058V216.336L774.122 293.567L0 520.512V573.734L1000 459.058Z" fill="#F9CC14"/>
<path d="M999.502 74.1794V5.81226L967.747 43.1583L999.502 80.5042V74.1794Z" fill="#F9CC14"/>
<path d="M999.502 207.601V139.234L967.747 176.58L999.502 213.926V207.601Z" fill="#F9CC14"/>
<path d="M999.759 130.141V90.4436L981.32 112.128L999.759 133.813V130.141Z" fill="#F9CC14"/>
<path d="M974.659 102.432V62.7351L993.098 84.4195L974.659 106.104V102.432Z" fill="#F9CC14"/>
<path d="M965.952 111.336V50.688L937.781 83.8177L965.952 116.947V111.336Z" fill="#F9CC14"/>
<path d="M956.466 178.439L992.933 135.555H953.093V182.407L956.466 178.439Z" fill="#F9CC14"/>
<path d="M727.112 305.782L653.459 329.49L704.265 359.807L733.928 303.588L727.112 305.782Z" fill="black"/>
<path d="M870.863 259.514L797.204 283.222L848.016 313.539L877.679 257.321L870.863 259.514Z" fill="black"/>
<path d="M787.324 286.027L744.551 299.792L774.053 317.396L791.28 284.753L787.324 286.027Z" fill="black"/>
<path d="M765.826 329.831L723.053 343.597L740.28 310.954L769.782 328.557L765.826 329.831Z" fill="black"/>
<path d="M778.32 338.607L712.974 359.639L758.045 386.533L784.363 336.662L778.32 338.607Z" fill="black"/>
<path d="M0 0V519.917L1000 582.619V405.48L712.081 484.022L336.974 0H0Z" fill="#007AE0"/>
<path d="M853.773 328.264L795.426 293.45L808.691 347.732L859.171 331.484L853.773 328.264Z" fill="black"/>
<path d="M282.981 78.5753L347.04 159.702L352.832 77.3631L277.055 71.0698L282.981 78.5753Z" fill="#0A0C10"/>
<path d="M81.2955 154.364L109.017 74.856L53.9033 101.834L78.7312 161.719L81.2955 154.364Z" fill="#0A0C10"/>
<path d="M343.363 184.62L325.188 237.259L361.506 219.036L345.045 179.75L343.363 184.62Z" fill="#0A0C10"/>
<path d="M234.09 324.085L159.247 339.14L207.699 375.34L241.014 322.692L234.09 324.085Z" fill="#0A0C10"/>
<path d="M253.255 50.2451L341.289 166.661L292.366 307.736L155.411 332.394L67.3789 215.979L116.301 74.9044L253.255 50.2451Z" fill="#0A0C10"/>
<path d="M282.981 78.5753L347.04 159.702L352.832 77.3631L277.055 71.0698L282.981 78.5753Z" fill="#0A0C10"/>
<path d="M81.2955 154.364L109.017 74.856L53.9033 101.834L78.7312 161.719L81.2955 154.364Z" fill="#0A0C10"/>
<path d="M234.09 324.085L159.247 339.14L207.699 375.34L241.014 322.692L234.09 324.085Z" fill="#0A0C10"/>
<path d="M253.255 50.2451L341.289 166.661L292.366 307.736L155.411 332.394L67.3789 215.979L116.301 74.9044L253.255 50.2451Z" fill="#0A0C10"/>
<path d="M128.724 120.161V139.419H126.716V130.533H114.666V139.419H112.63V120.161H114.666V128.745H126.716V120.161H128.724ZM147.198 132.789H135.092C135.202 134.293 135.78 135.513 136.825 136.448C137.871 137.365 139.191 137.824 140.787 137.824C141.686 137.824 142.512 137.668 143.263 137.356C144.015 137.026 144.666 136.549 145.216 135.925L146.317 137.191C145.675 137.961 144.868 138.548 143.896 138.951C142.942 139.355 141.888 139.557 140.732 139.557C139.247 139.557 137.926 139.245 136.771 138.621C135.633 137.979 134.744 137.099 134.102 135.98C133.46 134.862 133.139 133.596 133.139 132.184C133.139 130.771 133.442 129.506 134.047 128.387C134.67 127.269 135.514 126.397 136.578 125.773C137.66 125.15 138.871 124.838 140.21 124.838C141.548 124.838 142.75 125.15 143.813 125.773C144.877 126.397 145.712 127.269 146.317 128.387C146.922 129.488 147.225 130.753 147.225 132.184L147.198 132.789ZM140.21 126.516C138.816 126.516 137.642 126.966 136.688 127.864C135.753 128.745 135.22 129.9 135.092 131.331H145.354C145.226 129.9 144.685 128.745 143.731 127.864C142.796 126.966 141.622 126.516 140.21 126.516ZM151.2 119.006H153.154V139.419H151.2V119.006ZM158.589 119.006H160.542V139.419H158.589V119.006ZM171.892 139.557C170.498 139.557 169.242 139.245 168.123 138.621C167.004 137.979 166.124 137.099 165.482 135.98C164.84 134.862 164.519 133.596 164.519 132.184C164.519 130.771 164.84 129.506 165.482 128.387C166.124 127.269 167.004 126.397 168.123 125.773C169.242 125.15 170.498 124.838 171.892 124.838C173.286 124.838 174.542 125.15 175.661 125.773C176.78 126.397 177.651 127.269 178.275 128.387C178.917 129.506 179.238 130.771 179.238 132.184C179.238 133.596 178.917 134.862 178.275 135.98C177.651 137.099 176.78 137.979 175.661 138.621C174.542 139.245 173.286 139.557 171.892 139.557ZM171.892 137.824C172.919 137.824 173.836 137.595 174.644 137.136C175.469 136.659 176.111 135.99 176.569 135.127C177.028 134.265 177.257 133.284 177.257 132.184C177.257 131.083 177.028 130.102 176.569 129.24C176.111 128.378 175.469 127.717 174.644 127.259C173.836 126.782 172.919 126.544 171.892 126.544C170.865 126.544 169.939 126.782 169.114 127.259C168.307 127.717 167.665 128.378 167.188 129.24C166.729 130.102 166.5 131.083 166.5 132.184C166.5 133.284 166.729 134.265 167.188 135.127C167.665 135.99 168.307 136.659 169.114 137.136C169.939 137.595 170.865 137.824 171.892 137.824ZM190.839 120.161H192.874V139.419H190.839V120.161ZM198.948 118.868C199.37 118.868 199.718 119.015 199.993 119.309C200.268 119.584 200.406 119.932 200.406 120.354C200.406 120.574 200.369 120.812 200.296 121.069C200.241 121.308 200.158 121.592 200.048 121.922L198.865 125.719H197.545L198.508 121.757C198.196 121.665 197.948 121.5 197.765 121.262C197.581 121.005 197.49 120.703 197.49 120.354C197.49 119.914 197.627 119.556 197.902 119.281C198.177 119.006 198.526 118.868 198.948 118.868ZM222.605 124.838C224.421 124.838 225.842 125.361 226.869 126.406C227.915 127.452 228.437 128.992 228.437 131.029V139.419H226.484V131.221C226.484 129.717 226.117 128.571 225.383 127.782C224.668 126.993 223.65 126.599 222.33 126.599C220.826 126.599 219.643 127.067 218.781 128.002C217.919 128.919 217.488 130.194 217.488 131.826V139.419H215.534V131.221C215.534 129.717 215.168 128.571 214.434 127.782C213.719 126.993 212.692 126.599 211.353 126.599C209.867 126.599 208.684 127.067 207.804 128.002C206.942 128.919 206.511 130.194 206.511 131.826V139.419H204.558V124.948H206.429V127.589C206.942 126.709 207.657 126.03 208.574 125.553C209.492 125.077 210.546 124.838 211.738 124.838C212.948 124.838 213.994 125.095 214.875 125.608C215.773 126.122 216.442 126.883 216.883 127.892C217.414 126.938 218.176 126.195 219.166 125.664C220.175 125.113 221.321 124.838 222.605 124.838Z" fill="white"/>
<g filter="url(#filter0_d)">
<path d="M142.812 192.086H123.226L119.49 201.125H109.486L128.288 158.941H137.931L156.793 201.125H146.548L142.812 192.086ZM139.738 184.673L133.049 168.523L126.36 184.673H139.738ZM169.486 172.982C170.61 171.416 172.117 170.23 174.005 169.426C175.933 168.623 178.143 168.221 180.634 168.221V176.899C179.59 176.819 178.887 176.779 178.525 176.779C175.833 176.779 173.724 177.542 172.197 179.069C170.67 180.555 169.907 182.805 169.907 185.818V201.125H160.506V168.704H169.486V172.982ZM197.249 201.607C194.557 201.607 191.926 201.286 189.355 200.643C186.784 199.96 184.734 199.116 183.208 198.112L186.342 191.362C187.788 192.286 189.535 193.05 191.585 193.652C193.633 194.215 195.642 194.496 197.611 194.496C201.588 194.496 203.577 193.512 203.577 191.543C203.577 190.619 203.035 189.957 201.95 189.555C200.865 189.153 199.198 188.811 196.948 188.53C194.297 188.128 192.107 187.666 190.379 187.144C188.652 186.621 187.145 185.698 185.86 184.372C184.614 183.046 183.991 181.158 183.991 178.707C183.991 176.658 184.574 174.85 185.739 173.284C186.944 171.676 188.672 170.431 190.921 169.547C193.212 168.663 195.903 168.221 198.997 168.221C201.287 168.221 203.557 168.483 205.807 169.005C208.096 169.487 209.985 170.17 211.471 171.054L208.338 177.743C205.485 176.136 202.371 175.333 198.997 175.333C196.988 175.333 195.482 175.613 194.477 176.176C193.473 176.739 192.971 177.462 192.971 178.346C192.971 179.35 193.513 180.053 194.598 180.455C195.682 180.856 197.41 181.238 199.78 181.6C202.432 182.042 204.601 182.524 206.289 183.046C207.976 183.528 209.442 184.432 210.688 185.758C211.933 187.083 212.556 188.932 212.556 191.302C212.556 193.311 211.953 195.099 210.748 196.665C209.543 198.232 207.775 199.458 205.445 200.341C203.155 201.185 200.423 201.607 197.249 201.607ZM238.062 168.221C242.08 168.221 245.314 169.426 247.765 171.837C250.255 174.248 251.501 177.823 251.501 182.564V201.125H242.1V184.01C242.1 181.439 241.537 179.531 240.413 178.285C239.287 177 237.661 176.357 235.531 176.357C233.161 176.357 231.272 177.1 229.867 178.587C228.461 180.033 227.757 182.202 227.757 185.095V201.125H218.357V156.41H227.757V172.078C229.003 170.833 230.509 169.888 232.277 169.246C234.045 168.563 235.973 168.221 238.062 168.221ZM273.099 168.221C278.122 168.221 281.978 169.426 284.67 171.837C287.362 174.208 288.708 177.803 288.708 182.624V201.125H279.909V197.087C278.142 200.101 274.847 201.607 270.026 201.607C267.535 201.607 265.366 201.185 263.518 200.341C261.71 199.498 260.324 198.333 259.359 196.846C258.395 195.36 257.913 193.672 257.913 191.784C257.913 188.771 259.038 186.401 261.288 184.673C263.578 182.946 267.094 182.082 271.834 182.082H279.307C279.307 180.033 278.684 178.466 277.438 177.381C276.193 176.257 274.325 175.694 271.834 175.694C270.107 175.694 268.399 175.975 266.712 176.538C265.064 177.06 263.658 177.783 262.493 178.707L259.119 172.138C260.886 170.893 262.995 169.929 265.446 169.246C267.937 168.563 270.488 168.221 273.099 168.221ZM272.377 195.28C273.983 195.28 275.41 194.918 276.655 194.195C277.9 193.432 278.784 192.326 279.307 190.88V187.566H272.859C269.001 187.566 267.073 188.831 267.073 191.362C267.073 192.568 267.536 193.532 268.459 194.255C269.423 194.938 270.729 195.28 272.377 195.28ZM338.737 168.221C342.795 168.221 346.009 169.426 348.379 171.837C350.79 174.208 351.995 177.783 351.995 182.564V201.125H342.594V184.01C342.594 181.439 342.052 179.531 340.967 178.285C339.922 177 338.415 176.357 336.447 176.357C334.238 176.357 332.49 177.08 331.204 178.527C329.919 179.933 329.276 182.042 329.276 184.854V201.125H319.875V184.01C319.875 178.908 317.826 176.357 313.728 176.357C311.558 176.357 309.831 177.08 308.545 178.527C307.26 179.933 306.617 182.042 306.617 184.854V201.125H297.216V168.704H306.195V172.44C307.401 171.074 308.867 170.029 310.594 169.306C312.362 168.583 314.29 168.221 316.379 168.221C318.669 168.221 320.738 168.683 322.586 169.608C324.435 170.491 325.921 171.797 327.046 173.525C328.372 171.837 330.039 170.532 332.048 169.608C334.097 168.683 336.327 168.221 338.737 168.221Z" fill="#F9CC14"/>
</g>
<path d="M115.552 230.914C117.299 230.914 118.64 231.333 119.577 232.171C120.513 232.996 120.981 234.247 120.981 235.924V242.359H117.921V240.954C117.306 242.002 116.16 242.526 114.483 242.526C113.617 242.526 112.862 242.379 112.219 242.086C111.59 241.793 111.108 241.387 110.773 240.87C110.438 240.353 110.27 239.766 110.27 239.109C110.27 238.061 110.661 237.237 111.443 236.636C112.24 236.035 113.463 235.735 115.112 235.735H117.711C117.711 235.022 117.494 234.477 117.061 234.1C116.628 233.709 115.978 233.513 115.112 233.513C114.511 233.513 113.917 233.611 113.33 233.806C112.757 233.988 112.268 234.24 111.863 234.561L110.689 232.276C111.304 231.843 112.037 231.507 112.89 231.27C113.756 231.032 114.643 230.914 115.552 230.914ZM115.3 240.325C115.86 240.325 116.355 240.199 116.789 239.948C117.222 239.682 117.529 239.298 117.711 238.795V237.642H115.468C114.127 237.642 113.456 238.082 113.456 238.962C113.456 239.382 113.617 239.717 113.938 239.969C114.274 240.207 114.728 240.325 115.3 240.325ZM141.51 231.081V240.472C141.51 242.54 140.972 244.077 139.896 245.083C138.82 246.089 137.248 246.592 135.18 246.592C134.089 246.592 133.056 246.46 132.077 246.194C131.099 245.929 130.288 245.544 129.646 245.041L130.945 242.694C131.42 243.085 132.021 243.392 132.748 243.616C133.475 243.854 134.201 243.972 134.928 243.972C136.06 243.972 136.892 243.714 137.422 243.197C137.968 242.694 138.24 241.925 138.24 240.891V240.409C137.387 241.345 136.2 241.813 134.677 241.813C133.642 241.813 132.692 241.59 131.826 241.143C130.973 240.682 130.296 240.038 129.793 239.214C129.29 238.39 129.038 237.439 129.038 236.364C129.038 235.288 129.29 234.337 129.793 233.513C130.296 232.689 130.973 232.053 131.826 231.606C132.692 231.144 133.642 230.914 134.677 230.914C136.311 230.914 137.555 231.452 138.407 232.528V231.081H141.51ZM135.326 239.131C136.193 239.131 136.898 238.879 137.443 238.376C138.003 237.859 138.282 237.188 138.282 236.364C138.282 235.539 138.003 234.875 137.443 234.372C136.898 233.855 136.193 233.596 135.326 233.596C134.46 233.596 133.748 233.855 133.188 234.372C132.629 234.875 132.35 235.539 132.35 236.364C132.35 237.188 132.629 237.859 133.188 238.376C133.748 238.879 134.46 239.131 135.326 239.131ZM149.102 230.914C150.849 230.914 152.19 231.333 153.126 232.171C154.063 232.996 154.531 234.247 154.531 235.924V242.359H151.47V240.954C150.856 242.002 149.71 242.526 148.033 242.526C147.167 242.526 146.412 242.379 145.769 242.086C145.14 241.793 144.658 241.387 144.323 240.87C143.987 240.353 143.82 239.766 143.82 239.109C143.82 238.061 144.211 237.237 144.993 236.636C145.79 236.035 147.013 235.735 148.662 235.735H151.261C151.261 235.022 151.044 234.477 150.611 234.1C150.178 233.709 149.528 233.513 148.662 233.513C148.061 233.513 147.467 233.611 146.88 233.806C146.307 233.988 145.818 234.24 145.412 234.561L144.239 232.276C144.854 231.843 145.587 231.507 146.44 231.27C147.306 231.032 148.193 230.914 149.102 230.914ZM148.85 240.325C149.409 240.325 149.905 240.199 150.339 239.948C150.772 239.682 151.079 239.298 151.261 238.795V237.642H149.018C147.677 237.642 147.006 238.082 147.006 238.962C147.006 239.382 147.167 239.717 147.488 239.969C147.823 240.207 148.278 240.325 148.85 240.325ZM171.932 230.914C173.344 230.914 174.462 231.333 175.286 232.171C176.124 232.996 176.543 234.24 176.543 235.902V242.359H173.274V236.406C173.274 235.511 173.085 234.847 172.708 234.414C172.344 233.967 171.821 233.743 171.136 233.743C170.367 233.743 169.76 233.995 169.312 234.498C168.865 234.987 168.641 235.721 168.641 236.699V242.359H165.371V236.406C165.371 234.631 164.659 233.743 163.234 233.743C162.479 233.743 161.878 233.995 161.431 234.498C160.984 234.987 160.76 235.721 160.76 236.699V242.359H157.49V231.081H160.613V232.381C161.032 231.906 161.543 231.543 162.144 231.291C162.758 231.04 163.429 230.914 164.156 230.914C164.952 230.914 165.672 231.074 166.315 231.396C166.957 231.703 167.475 232.157 167.866 232.758C168.327 232.171 168.907 231.717 169.606 231.396C170.318 231.074 171.094 230.914 171.932 230.914ZM190.644 236.762C190.644 236.803 190.623 237.097 190.581 237.642H182.05C182.204 238.341 182.567 238.893 183.14 239.298C183.713 239.703 184.426 239.906 185.278 239.906C185.865 239.906 186.382 239.822 186.829 239.654C187.29 239.473 187.716 239.193 188.108 238.816L189.848 240.702C188.785 241.918 187.234 242.526 185.194 242.526C183.922 242.526 182.797 242.281 181.82 241.793C180.841 241.289 180.087 240.598 179.555 239.717C179.024 238.837 178.759 237.838 178.759 236.72C178.759 235.616 179.017 234.624 179.535 233.743C180.065 232.849 180.785 232.157 181.694 231.669C182.616 231.165 183.643 230.914 184.775 230.914C185.879 230.914 186.878 231.151 187.772 231.626C188.666 232.101 189.365 232.786 189.868 233.681C190.386 234.561 190.644 235.588 190.644 236.762ZM184.796 233.387C184.055 233.387 183.433 233.596 182.93 234.016C182.427 234.435 182.12 235.008 182.008 235.735H187.563C187.451 235.022 187.143 234.456 186.641 234.037C186.137 233.604 185.522 233.387 184.796 233.387ZM210.244 226.805V242.359H207.12V241.059C206.31 242.037 205.136 242.526 203.599 242.526C202.537 242.526 201.573 242.288 200.706 241.813C199.854 241.338 199.183 240.661 198.694 239.78C198.205 238.9 197.961 237.88 197.961 236.72C197.961 235.56 198.205 234.54 198.694 233.659C199.183 232.779 199.854 232.101 200.706 231.626C201.573 231.151 202.537 230.914 203.599 230.914C205.039 230.914 206.163 231.368 206.974 232.276V226.805H210.244ZM204.165 239.843C204.989 239.843 205.674 239.563 206.219 239.005C206.764 238.432 207.037 237.67 207.037 236.72C207.037 235.77 206.764 235.015 206.219 234.456C205.674 233.883 204.989 233.596 204.165 233.596C203.327 233.596 202.635 233.883 202.09 234.456C201.545 235.015 201.272 235.77 201.272 236.72C201.272 237.67 201.545 238.432 202.09 239.005C202.635 239.563 203.327 239.843 204.165 239.843ZM224.316 236.762C224.316 236.803 224.296 237.097 224.254 237.642H215.722C215.876 238.341 216.24 238.893 216.813 239.298C217.386 239.703 218.098 239.906 218.95 239.906C219.538 239.906 220.055 239.822 220.502 239.654C220.963 239.473 221.389 239.193 221.78 238.816L223.52 240.702C222.458 241.918 220.907 242.526 218.866 242.526C217.595 242.526 216.47 242.281 215.492 241.793C214.514 241.289 213.759 240.598 213.228 239.717C212.697 238.837 212.432 237.838 212.432 236.72C212.432 235.616 212.69 234.624 213.207 233.743C213.738 232.849 214.458 232.157 215.366 231.669C216.288 231.165 217.316 230.914 218.447 230.914C219.551 230.914 220.551 231.151 221.445 231.626C222.339 232.101 223.038 232.786 223.541 233.681C224.058 234.561 224.316 235.588 224.316 236.762ZM218.469 233.387C217.728 233.387 217.106 233.596 216.603 234.016C216.1 234.435 215.793 235.008 215.681 235.735H221.235C221.124 235.022 220.816 234.456 220.313 234.037C219.81 233.604 219.195 233.387 218.469 233.387ZM237.482 231.081L232.724 242.359H229.349L224.612 231.081H227.987L231.11 238.753L234.338 231.081H237.482ZM249.556 236.762C249.556 236.803 249.535 237.097 249.493 237.642H240.962C241.116 238.341 241.479 238.893 242.052 239.298C242.625 239.703 243.338 239.906 244.189 239.906C244.777 239.906 245.294 239.822 245.741 239.654C246.202 239.473 246.628 239.193 247.02 238.816L248.76 240.702C247.697 241.918 246.146 242.526 244.106 242.526C242.834 242.526 241.709 242.281 240.731 241.793C239.753 241.289 238.999 240.598 238.467 239.717C237.936 238.837 237.671 237.838 237.671 236.72C237.671 235.616 237.929 234.624 238.446 233.743C238.977 232.849 239.697 232.157 240.605 231.669C241.528 231.165 242.555 230.914 243.687 230.914C244.79 230.914 245.79 231.151 246.684 231.626C247.578 232.101 248.277 232.786 248.78 233.681C249.297 234.561 249.556 235.588 249.556 236.762ZM243.707 233.387C242.967 233.387 242.345 233.596 241.842 234.016C241.339 234.435 241.032 235.008 240.92 235.735H246.474C246.363 235.022 246.055 234.456 245.552 234.037C245.049 233.604 244.434 233.387 243.707 233.387ZM251.733 226.805H255.003V242.359H251.733V226.805ZM263.403 242.526C262.216 242.526 261.147 242.281 260.196 241.793C259.26 241.289 258.526 240.598 257.996 239.717C257.465 238.837 257.199 237.838 257.199 236.72C257.199 235.602 257.465 234.603 257.996 233.722C258.526 232.842 259.26 232.157 260.196 231.669C261.147 231.165 262.216 230.914 263.403 230.914C264.591 230.914 265.653 231.165 266.59 231.669C267.526 232.157 268.259 232.842 268.79 233.722C269.322 234.603 269.587 235.602 269.587 236.72C269.587 237.838 269.322 238.837 268.79 239.717C268.259 240.598 267.526 241.289 266.59 241.793C265.653 242.281 264.591 242.526 263.403 242.526ZM263.403 239.843C264.242 239.843 264.926 239.563 265.458 239.005C266.003 238.432 266.275 237.67 266.275 236.72C266.275 235.77 266.003 235.015 265.458 234.456C264.926 233.883 264.242 233.596 263.403 233.596C262.565 233.596 261.873 233.883 261.328 234.456C260.784 235.015 260.511 235.77 260.511 236.72C260.511 237.67 260.784 238.432 261.328 239.005C261.873 239.563 262.565 239.843 263.403 239.843ZM278.438 230.914C279.486 230.914 280.436 231.158 281.289 231.647C282.155 232.122 282.833 232.8 283.322 233.681C283.811 234.547 284.056 235.56 284.056 236.72C284.056 237.88 283.811 238.9 283.322 239.78C282.833 240.647 282.155 241.324 281.289 241.813C280.436 242.288 279.486 242.526 278.438 242.526C276.999 242.526 275.867 242.072 275.043 241.164V246.425H271.773V231.081H274.896V232.381C275.706 231.403 276.887 230.914 278.438 230.914ZM277.872 239.843C278.711 239.843 279.395 239.563 279.926 239.005C280.471 238.432 280.744 237.67 280.744 236.72C280.744 235.77 280.471 235.015 279.926 234.456C279.395 233.883 278.711 233.596 277.872 233.596C277.034 233.596 276.342 233.883 275.797 234.456C275.266 235.015 275.001 235.77 275.001 236.72C275.001 237.67 275.266 238.432 275.797 239.005C276.342 239.563 277.034 239.843 277.872 239.843ZM297.291 236.762C297.291 236.803 297.27 237.097 297.228 237.642H288.697C288.851 238.341 289.214 238.893 289.787 239.298C290.36 239.703 291.073 239.906 291.925 239.906C292.512 239.906 293.029 239.822 293.476 239.654C293.937 239.473 294.364 239.193 294.755 238.816L296.495 240.702C295.432 241.918 293.881 242.526 291.841 242.526C290.57 242.526 289.445 242.281 288.467 241.793C287.489 241.289 286.734 240.598 286.203 239.717C285.672 238.837 285.406 237.838 285.406 236.72C285.406 235.616 285.665 234.624 286.182 233.743C286.713 232.849 287.432 232.157 288.341 231.669C289.263 231.165 290.29 230.914 291.422 230.914C292.526 230.914 293.525 231.151 294.419 231.626C295.314 232.101 296.013 232.786 296.515 233.681C297.033 234.561 297.291 235.588 297.291 236.762ZM291.443 233.387C290.702 233.387 290.081 233.596 289.578 234.016C289.075 234.435 288.767 235.008 288.655 235.735H294.21C294.098 235.022 293.791 234.456 293.288 234.037C292.785 233.604 292.169 233.387 291.443 233.387ZM302.591 232.57C302.983 232.025 303.507 231.612 304.163 231.333C304.834 231.053 305.603 230.914 306.469 230.914V233.932C306.106 233.904 305.861 233.89 305.736 233.89C304.799 233.89 304.065 234.156 303.535 234.687C303.004 235.204 302.738 235.986 302.738 237.034V242.359H299.468V231.081H302.591V232.57ZM325.939 242.61L324.179 240.975C322.781 242.065 321.146 242.61 319.274 242.61C318.212 242.61 317.254 242.442 316.402 242.107C315.55 241.758 314.878 241.275 314.39 240.661C313.914 240.046 313.677 239.354 313.677 238.586C313.677 237.677 313.928 236.881 314.431 236.196C314.949 235.497 315.773 234.833 316.905 234.204C316.374 233.659 315.989 233.143 315.752 232.654C315.515 232.151 315.396 231.633 315.396 231.102C315.396 230.39 315.585 229.761 315.962 229.216C316.339 228.671 316.87 228.252 317.555 227.958C318.254 227.651 319.057 227.497 319.965 227.497C321.237 227.497 322.257 227.805 323.025 228.419C323.794 229.02 324.179 229.838 324.179 230.871C324.179 231.626 323.948 232.297 323.487 232.884C323.04 233.471 322.313 234.037 321.307 234.582L323.99 237.076C324.311 236.406 324.556 235.644 324.723 234.791L327.343 235.609C327.064 236.909 326.617 238.02 326.002 238.942L327.721 240.535L325.939 242.61ZM319.965 229.719C319.476 229.719 319.085 229.845 318.792 230.096C318.512 230.348 318.372 230.669 318.372 231.06C318.372 231.354 318.449 231.633 318.603 231.899C318.757 232.151 319.057 232.493 319.504 232.926C320.217 232.548 320.713 232.213 320.992 231.92C321.272 231.612 321.411 231.284 321.411 230.934C321.411 230.571 321.286 230.278 321.035 230.054C320.783 229.831 320.426 229.719 319.965 229.719ZM319.504 240.053C320.524 240.053 321.439 239.766 322.25 239.193L318.708 235.881C318.051 236.259 317.583 236.629 317.303 236.992C317.024 237.356 316.884 237.768 316.884 238.229C316.884 238.774 317.121 239.214 317.597 239.55C318.072 239.885 318.708 240.053 319.504 240.053ZM341.107 242.61L339.347 240.975C337.949 242.065 336.314 242.61 334.442 242.61C333.379 242.61 332.422 242.442 331.57 242.107C330.718 241.758 330.047 241.275 329.558 240.661C329.083 240.046 328.845 239.354 328.845 238.586C328.845 237.677 329.096 236.881 329.599 236.196C330.117 235.497 330.941 234.833 332.073 234.204C331.542 233.659 331.157 233.143 330.92 232.654C330.682 232.151 330.564 231.633 330.564 231.102C330.564 230.39 330.753 229.761 331.13 229.216C331.507 228.671 332.038 228.252 332.723 227.958C333.422 227.651 334.225 227.497 335.133 227.497C336.405 227.497 337.425 227.805 338.193 228.419C338.962 229.02 339.347 229.838 339.347 230.871C339.347 231.626 339.116 232.297 338.655 232.884C338.208 233.471 337.481 234.037 336.475 234.582L339.158 237.076C339.479 236.406 339.723 235.644 339.892 234.791L342.511 235.609C342.232 236.909 341.785 238.02 341.17 238.942L342.889 240.535L341.107 242.61ZM335.133 229.719C334.644 229.719 334.253 229.845 333.96 230.096C333.68 230.348 333.541 230.669 333.541 231.06C333.541 231.354 333.617 231.633 333.771 231.899C333.925 232.151 334.225 232.493 334.672 232.926C335.385 232.548 335.881 232.213 336.16 231.92C336.44 231.612 336.579 231.284 336.579 230.934C336.579 230.571 336.454 230.278 336.202 230.054C335.951 229.831 335.594 229.719 335.133 229.719ZM334.672 240.053C335.692 240.053 336.607 239.766 337.418 239.193L333.876 235.881C333.219 236.259 332.751 236.629 332.471 236.992C332.192 237.356 332.052 237.768 332.052 238.229C332.052 238.774 332.29 239.214 332.765 239.55C333.24 239.885 333.876 240.053 334.672 240.053ZM362.419 231.081V240.472C362.419 242.54 361.881 244.077 360.805 245.083C359.729 246.089 358.157 246.592 356.089 246.592C354.999 246.592 353.965 246.46 352.987 246.194C352.008 245.929 351.198 245.544 350.555 245.041L351.855 242.694C352.33 243.085 352.931 243.392 353.657 243.616C354.384 243.854 355.111 243.972 355.837 243.972C356.969 243.972 357.801 243.714 358.332 243.197C358.877 242.694 359.149 241.925 359.149 240.891V240.409C358.297 241.345 357.109 241.813 355.586 241.813C354.552 241.813 353.602 241.59 352.735 241.143C351.882 240.682 351.205 240.038 350.702 239.214C350.199 238.39 349.947 237.439 349.947 236.364C349.947 235.288 350.199 234.337 350.702 233.513C351.205 232.689 351.882 232.053 352.735 231.606C353.602 231.144 354.552 230.914 355.586 230.914C357.221 230.914 358.465 231.452 359.317 232.528V231.081H362.419ZM356.236 239.131C357.102 239.131 357.808 238.879 358.352 238.376C358.912 237.859 359.191 237.188 359.191 236.364C359.191 235.539 358.912 234.875 358.352 234.372C357.808 233.855 357.102 233.596 356.236 233.596C355.369 233.596 354.657 233.855 354.097 234.372C353.539 234.875 353.259 235.539 353.259 236.364C353.259 237.188 353.539 237.859 354.097 238.376C354.657 238.879 355.369 239.131 356.236 239.131ZM370.011 230.914C371.758 230.914 373.099 231.333 374.036 232.171C374.972 232.996 375.44 234.247 375.44 235.924V242.359H372.38V240.954C371.765 242.002 370.619 242.526 368.942 242.526C368.076 242.526 367.321 242.379 366.678 242.086C366.049 241.793 365.567 241.387 365.232 240.87C364.897 240.353 364.729 239.766 364.729 239.109C364.729 238.061 365.12 237.237 365.903 236.636C366.699 236.035 367.922 235.735 369.571 235.735H372.17C372.17 235.022 371.953 234.477 371.521 234.1C371.087 233.709 370.437 233.513 369.571 233.513C368.97 233.513 368.376 233.611 367.789 233.806C367.216 233.988 366.728 234.24 366.322 234.561L365.148 232.276C365.763 231.843 366.497 231.507 367.349 231.27C368.215 231.032 369.103 230.914 370.011 230.914ZM369.76 240.325C370.319 240.325 370.814 240.199 371.248 239.948C371.681 239.682 371.988 239.298 372.17 238.795V237.642H369.927C368.586 237.642 367.915 238.082 367.915 238.962C367.915 239.382 368.076 239.717 368.397 239.969C368.733 240.207 369.187 240.325 369.76 240.325ZM392.842 230.914C394.253 230.914 395.371 231.333 396.195 232.171C397.034 232.996 397.453 234.24 397.453 235.902V242.359H394.183V236.406C394.183 235.511 393.995 234.847 393.617 234.414C393.254 233.967 392.73 233.743 392.045 233.743C391.276 233.743 390.669 233.995 390.222 234.498C389.774 234.987 389.551 235.721 389.551 236.699V242.359H386.281V236.406C386.281 234.631 385.568 233.743 384.143 233.743C383.388 233.743 382.788 233.995 382.34 234.498C381.893 234.987 381.669 235.721 381.669 236.699V242.359H378.399V231.081H381.523V232.381C381.942 231.906 382.452 231.543 383.053 231.291C383.667 231.04 384.338 230.914 385.065 230.914C385.861 230.914 386.581 231.074 387.224 231.396C387.867 231.703 388.384 232.157 388.775 232.758C389.236 232.171 389.816 231.717 390.515 231.396C391.228 231.074 392.003 230.914 392.842 230.914ZM411.553 236.762C411.553 236.803 411.533 237.097 411.49 237.642H402.959C403.113 238.341 403.477 238.893 404.049 239.298C404.622 239.703 405.335 239.906 406.187 239.906C406.774 239.906 407.291 239.822 407.738 239.654C408.199 239.473 408.626 239.193 409.017 238.816L410.757 240.702C409.695 241.918 408.144 242.526 406.103 242.526C404.832 242.526 403.707 242.281 402.729 241.793C401.75 241.289 400.996 240.598 400.465 239.717C399.934 238.837 399.668 237.838 399.668 236.72C399.668 235.616 399.927 234.624 400.444 233.743C400.975 232.849 401.694 232.157 402.603 231.669C403.525 231.165 404.552 230.914 405.684 230.914C406.788 230.914 407.787 231.151 408.682 231.626C409.576 232.101 410.275 232.786 410.778 233.681C411.295 234.561 411.553 235.588 411.553 236.762ZM405.705 233.387C404.964 233.387 404.343 233.596 403.84 234.016C403.336 234.435 403.029 235.008 402.917 235.735H408.472C408.36 235.022 408.053 234.456 407.55 234.037C407.047 233.604 406.432 233.387 405.705 233.387ZM416.853 232.57C417.244 232.025 417.769 231.612 418.426 231.333C419.096 231.053 419.865 230.914 420.731 230.914V233.932C420.368 233.904 420.123 233.89 419.997 233.89C419.061 233.89 418.328 234.156 417.797 234.687C417.266 235.204 417 235.986 417 237.034V242.359H413.73V231.081H416.853V232.57Z" fill="white"/>
<g filter="url(#filter1_d)">
<path d="M472.689 352.637L498.08 341.768L521.573 357.012L525.528 387.291L506.759 409.474L479.729 407.055L464.409 381.822L472.689 352.637Z" stroke="#0A0C10" stroke-width="8.09782"/>
<path d="M472.689 352.637L498.08 341.768L521.573 357.012L525.528 387.291L506.759 409.474L479.729 407.055L464.409 381.822L472.689 352.637Z" stroke="#66FCF1" stroke-width="8.09782"/>
</g>
<g filter="url(#filter2_d)">
<path d="M889.937 153.58L907.016 138.746L928.548 141.654L942.047 160.777L939.4 184.886L922.321 199.72L900.789 196.813L887.29 177.69L889.937 153.58Z" stroke="#0A0C10" stroke-width="5.92818"/>
<path d="M889.937 153.58L907.016 138.746L928.548 141.654L942.047 160.777L939.4 184.886L922.321 199.72L900.789 196.813L887.29 177.69L889.937 153.58Z" stroke="#66FCF1" stroke-width="5.92818"/>
</g>
<g filter="url(#filter3_d)">
<path d="M811.39 461.652L848.565 409.701L904.597 432.865L902.036 499.5L844.632 517.23L811.39 461.652Z" stroke="#0A0C10" stroke-width="10.5005"/>
<path d="M811.39 461.652L848.565 409.701L904.597 432.865L902.036 499.5L844.632 517.23L811.39 461.652Z" stroke="#66FCF1" stroke-width="10.5005"/>
</g>
<g filter="url(#filter4_d)">
<path d="M481.875 122.77L530.237 73.5093L572.938 122.77L524.053 172.03L481.875 122.77Z" stroke="#0A0C10" stroke-width="9.66836"/>
<path d="M481.875 122.77L530.237 73.5093L572.938 122.77L524.053 172.03L481.875 122.77Z" stroke="#66FCF1" stroke-width="9.66836"/>
</g>
<g filter="url(#filter5_d)">
<path d="M140.701 453.128L214.02 409.479L211.439 501.736L140.701 453.128Z" stroke="#0A0C10" stroke-width="9.35979"/>
<path d="M140.701 453.128L214.02 409.479L211.439 501.736L140.701 453.128Z" stroke="#66FCF1" stroke-width="9.35979"/>
</g>
<defs>
<filter id="filter0_d" x="109.486" y="156.41" width="256.257" height="58.9451" filterUnits="userSpaceOnUse" color-interpolation-filters="sRGB">
<feFlood flood-opacity="0" result="BackgroundImageFix"/>
<feColorMatrix in="SourceAlpha" type="matrix" values="0 0 0 0 0 0 0 0 0 0 0 0 0 0 0 0 0 0 127 0"/>
<feOffset dx="9.1652" dy="9.1652"/>
<feGaussianBlur stdDeviation="2.2913"/>
<feColorMatrix type="matrix" values="0 0 0 0 0 0 0 0 0 0 0 0 0 0 0 0 0 0 0.25 0"/>
<feBlend mode="normal" in2="BackgroundImageFix" result="effect1_dropShadow"/>
<feBlend mode="normal" in="SourceGraphic" in2="effect1_dropShadow" result="shape"/>
</filter>
<filter id="filter1_d" x="460.032" y="337.196" width="77.7913" height="84.5468" filterUnits="userSpaceOnUse" color-interpolation-filters="sRGB">
<feFlood flood-opacity="0" result="BackgroundImageFix"/>
<feColorMatrix in="SourceAlpha" type="matrix" values="0 0 0 0 0 0 0 0 0 0 0 0 0 0 0 0 0 0 127 0"/>
<feOffset dx="4.04891" dy="4.04891"/>
<feGaussianBlur stdDeviation="2"/>
<feColorMatrix type="matrix" values="0 0 0 0 0 0 0 0 0 0 0 0 0 0 0 0 0 0 0.25 0"/>
<feBlend mode="normal" in2="BackgroundImageFix" result="effect1_dropShadow"/>
<feBlend mode="normal" in="SourceGraphic" in2="effect1_dropShadow" result="shape"/>
</filter>
<filter id="filter2_d" x="883.651" y="135.059" width="68.8948" height="75.2085" filterUnits="userSpaceOnUse" color-interpolation-filters="sRGB">
<feFlood flood-opacity="0" result="BackgroundImageFix"/>
<feColorMatrix in="SourceAlpha" type="matrix" values="0 0 0 0 0 0 0 0 0 0 0 0 0 0 0 0 0 0 127 0"/>
<feOffset dx="3.43061" dy="3.43061"/>
<feGaussianBlur stdDeviation="2"/>
<feColorMatrix type="matrix" values="0 0 0 0 0 0 0 0 0 0 0 0 0 0 0 0 0 0 0.25 0"/>
<feBlend mode="normal" in2="BackgroundImageFix" result="effect1_dropShadow"/>
<feBlend mode="normal" in="SourceGraphic" in2="effect1_dropShadow" result="shape"/>
</filter>
<filter id="filter3_d" x="805.118" y="403.258" width="115.05" height="130.389" filterUnits="userSpaceOnUse" color-interpolation-filters="sRGB">
<feFlood flood-opacity="0" result="BackgroundImageFix"/>
<feColorMatrix in="SourceAlpha" type="matrix" values="0 0 0 0 0 0 0 0 0 0 0 0 0 0 0 0 0 0 127 0"/>
<feOffset dx="6.18354" dy="6.18354"/>
<feGaussianBlur stdDeviation="2"/>
<feColorMatrix type="matrix" values="0 0 0 0 0 0 0 0 0 0 0 0 0 0 0 0 0 0 0.25 0"/>
<feBlend mode="normal" in2="BackgroundImageFix" result="effect1_dropShadow"/>
<feBlend mode="normal" in="SourceGraphic" in2="effect1_dropShadow" result="shape"/>
</filter>
<filter id="filter4_d" x="475.319" y="66.3838" width="113.979" height="122.543" filterUnits="userSpaceOnUse" color-interpolation-filters="sRGB">
<feFlood flood-opacity="0" result="BackgroundImageFix"/>
<feColorMatrix in="SourceAlpha" type="matrix" values="0 0 0 0 0 0 0 0 0 0 0 0 0 0 0 0 0 0 127 0"/>
<feOffset dx="5.77012" dy="5.77012"/>
<feGaussianBlur stdDeviation="2"/>
<feColorMatrix type="matrix" values="0 0 0 0 0 0 0 0 0 0 0 0 0 0 0 0 0 0 0.25 0"/>
<feBlend mode="normal" in2="BackgroundImageFix" result="effect1_dropShadow"/>
<feBlend mode="normal" in="SourceGraphic" in2="effect1_dropShadow" result="shape"/>
</filter>
<filter id="filter5_d" x="132.027" y="401.106" width="97.4573" height="119.906" filterUnits="userSpaceOnUse" color-interpolation-filters="sRGB">
<feFlood flood-opacity="0" result="BackgroundImageFix"/>
<feColorMatrix in="SourceAlpha" type="matrix" values="0 0 0 0 0 0 0 0 0 0 0 0 0 0 0 0 0 0 127 0"/>
<feOffset dx="6.54794" dy="6.54794"/>
<feGaussianBlur stdDeviation="2"/>
<feColorMatrix type="matrix" values="0 0 0 0 0 0 0 0 0 0 0 0 0 0 0 0 0 0 0.25 0"/>
<feBlend mode="normal" in2="BackgroundImageFix" result="effect1_dropShadow"/>
<feBlend mode="normal" in="SourceGraphic" in2="effect1_dropShadow" result="shape"/>
</filter>
</defs>
</svg>
