<svg width="2063" height="2021" viewBox="0 0 2063 2021" fill="none" xmlns="http://www.w3.org/2000/svg">
<path d="M262.177 337.639V67.5781L136.736 215.1L262.177 362.622V337.639Z" fill="#007AE0"/>
<path d="M262.177 864.673V594.612L136.736 742.134L262.177 889.657V864.673Z" fill="#007AE0"/>
<path d="M263.189 558.691V401.882L190.353 487.54L263.189 573.198V558.691Z" fill="#007AE0"/>
<path d="M164.05 449.24V292.43L236.887 378.088L164.05 463.746V449.24Z" fill="#007AE0"/>
<path d="M129.654 484.412V244.842L18.376 375.709L129.654 506.575V484.412Z" fill="#007AE0"/>
<path d="M92.1793 749.478L236.225 580.077H78.8535V765.15L92.1793 749.478Z" fill="#007AE0"/>
<path d="M259.921 2021H1780.42V265.588V0H1460.62H259.921V2021Z" fill="#007AE0"/>
<path fill-rule="evenodd" clip-rule="evenodd" d="M499.857 1633.28L499.186 1635.98L493.568 1634.59L487.95 1633.2L487.278 1635.91L486.607 1638.62L483.798 1637.92L480.989 1637.22L480.317 1639.93L479.646 1642.64L476.837 1641.94L474.028 1641.25L473.356 1643.96L472.685 1646.66L469.876 1645.97L467.067 1645.27L466.395 1647.98L465.724 1650.69L462.915 1649.99L460.106 1649.3L459.434 1652L458.762 1654.71L455.954 1654.02L453.145 1653.32L451.801 1658.74L450.458 1664.15L447.649 1663.46L444.84 1662.76L443.497 1668.18L442.154 1673.59L439.345 1672.9L436.536 1672.2L430.491 1696.58L424.447 1720.96L427.255 1721.65L430.064 1722.35L428.721 1727.77L427.378 1733.18L430.187 1733.88L432.996 1734.58L432.324 1737.28L431.652 1739.99L434.461 1740.69L437.27 1741.39L436.598 1744.1L435.927 1746.8L438.736 1747.5L441.545 1748.2L440.873 1750.91L440.201 1753.61L443.01 1754.31L445.819 1755.01L445.147 1757.72L444.476 1760.42L447.285 1761.12L450.094 1761.82L449.422 1764.53L448.75 1767.23L451.559 1767.93L454.368 1768.63L453.696 1771.34L453.025 1774.04L458.643 1775.44L464.26 1776.83L463.589 1779.54L462.917 1782.25L468.535 1783.64L474.153 1785.03L476.839 1774.2L479.526 1763.37L468.29 1760.58L457.055 1757.79L457.726 1755.08L458.398 1752.38L455.589 1751.68L452.78 1750.98L453.452 1748.27L454.123 1745.57L451.315 1744.87L448.506 1744.17L449.177 1741.46L449.849 1738.76L447.04 1738.06L444.231 1737.36L444.903 1734.65L445.574 1731.95L451.192 1733.34L456.81 1734.73L456.138 1737.44L455.467 1740.15L458.276 1740.85L461.084 1741.54L460.413 1744.25L459.741 1746.96L462.55 1747.66L465.359 1748.35L464.687 1751.06L464.016 1753.77L469.633 1755.16L475.251 1756.55L475.923 1753.85L476.595 1751.14L479.403 1751.83L482.212 1752.53L482.884 1749.82L483.556 1747.11L486.364 1747.81L489.173 1748.51L489.845 1745.8L490.517 1743.09L479.281 1740.3L468.046 1737.52L468.717 1734.81L469.389 1732.1L466.58 1731.4L463.771 1730.71L464.443 1728L465.114 1725.29L462.305 1724.59L459.497 1723.9L460.168 1721.19L460.84 1718.48L458.031 1717.78L455.222 1717.09L459.252 1700.84L463.282 1684.58L466.091 1685.28L468.899 1685.98L469.571 1683.27L470.243 1680.56L473.052 1681.26L475.86 1681.95L476.532 1679.24L477.204 1676.54L474.395 1675.84L471.586 1675.14L473.601 1667.02L475.616 1658.89L484.042 1660.98L492.469 1663.07L491.798 1665.78L491.126 1668.49L493.935 1669.18L496.744 1669.88L496.072 1672.59L495.4 1675.3L498.209 1675.99L501.018 1676.69L501.69 1673.98L502.361 1671.27L516.406 1674.76L530.45 1678.24L529.779 1680.95L529.107 1683.66L531.916 1684.35L534.725 1685.05L535.396 1682.34L536.068 1679.63L538.877 1680.33L541.686 1681.02L542.358 1678.32L543.029 1675.61L551.456 1677.7L559.883 1679.79L557.868 1687.91L555.853 1696.04L553.044 1695.34L550.235 1694.65L549.563 1697.35L548.892 1700.06L551.701 1700.76L554.509 1701.46L553.838 1704.16L553.166 1706.87L555.975 1707.57L558.784 1708.27L554.754 1724.52L550.724 1740.77L547.915 1740.07L545.107 1739.38L544.435 1742.08L543.763 1744.79L540.954 1744.1L538.145 1743.4L537.474 1746.11L536.802 1748.82L533.993 1748.12L531.184 1747.42L530.513 1750.13L529.841 1752.84L518.606 1750.05L507.37 1747.27L506.698 1749.98L506.027 1752.69L508.836 1753.38L511.644 1754.08L510.973 1756.79L510.301 1759.5L513.11 1760.19L515.919 1760.89L511.889 1777.14L507.859 1793.39L513.477 1794.78L519.095 1796.18L519.767 1793.47L520.438 1790.76L523.247 1791.46L526.056 1792.15L526.728 1789.45L527.399 1786.74L530.208 1787.43L533.017 1788.13L533.689 1785.42L534.36 1782.71L537.169 1783.41L539.978 1784.11L540.65 1781.4L541.321 1778.69L544.13 1779.38L546.939 1780.08L547.611 1777.37L548.282 1774.66L551.091 1775.36L553.9 1776.06L554.572 1773.35L555.243 1770.64L558.052 1771.34L560.861 1772.03L561.533 1769.32L562.205 1766.62L565.013 1767.31L567.822 1768.01L569.166 1762.59L570.509 1757.17L573.318 1757.87L576.127 1758.57L582.171 1734.19L588.216 1709.81L585.407 1709.12L582.598 1708.42L583.942 1703L585.285 1697.59L582.476 1696.89L579.667 1696.19L581.01 1690.78L582.354 1685.36L579.545 1684.66L576.736 1683.97L577.408 1681.26L578.079 1678.55L575.27 1677.85L572.461 1677.16L573.133 1674.45L573.805 1671.74L570.996 1671.04L568.187 1670.35L568.858 1667.64L569.53 1664.93L566.721 1664.23L563.912 1663.54L564.584 1660.83L565.256 1658.12L562.447 1657.42L559.638 1656.73L560.309 1654.02L560.981 1651.31L555.363 1649.91L549.746 1648.52L550.417 1645.81L551.089 1643.1L525.809 1636.84L500.529 1630.57L499.857 1633.28Z" fill="#F8CC14"/>
<path fill-rule="evenodd" clip-rule="evenodd" d="M468.361 909.462L467.235 915.477L461.22 914.351L455.205 913.225L442.888 979.036L430.57 1044.85L436.585 1045.97L442.6 1047.1L441.474 1053.11L440.348 1059.13L476.084 1065.82L511.82 1072.51L516.257 1048.8L520.694 1025.09L509.17 1022.94C499.654 1021.16 497.574 1020.68 497.235 1020.18C496.728 1019.44 496.86 1018.56 497.497 1018.43C497.856 1018.36 497.861 1018.21 497.518 1017.83C497.175 1017.44 497.18 1017.3 497.54 1017.22C498.103 1017.11 498.427 1015.8 497.915 1015.7C497.688 1015.66 498.192 1012.27 499.321 1006.24C500.758 998.559 501.191 996.759 501.681 996.424C502.177 996.084 504.289 996.388 513.806 998.17L525.33 1000.33L529.767 976.62L534.204 952.914L540.219 954.04L546.234 955.166L547.36 949.151L548.486 943.136L566.531 946.513L584.576 949.891L582.324 961.921L580.073 973.951L568.548 971.794C558.256 969.867 556.949 969.688 556.322 970.117C555.812 970.466 555.733 970.659 556.033 970.826C556.569 971.124 556.211 973.023 555.588 973.183C555.203 973.282 555.188 973.364 555.511 973.596C556.028 973.966 550.707 1002.88 550.141 1002.77C549.616 1002.67 549.519 1003.73 549.99 1004.42C550.329 1004.91 552.409 1005.39 561.926 1007.18L573.45 1009.33L571.227 1021.21C569.239 1031.83 568.93 1033.14 568.302 1033.57C567.792 1033.92 567.583 1033.92 567.537 1033.58C567.461 1033.03 566.146 1032.71 566.05 1033.22C566.008 1033.44 562.682 1032.95 556.784 1031.85C550.887 1030.75 547.609 1030 547.651 1029.77C547.688 1029.58 547.399 1029.36 547.01 1029.29C546.621 1029.21 546.272 1029.31 546.236 1029.51C546.2 1029.7 545.851 1029.8 545.462 1029.73C545.073 1029.66 544.725 1029.76 544.688 1029.95C544.652 1030.15 544.781 1030.33 544.976 1030.37C545.208 1030.41 543.851 1038.34 541.025 1053.44C538.199 1068.53 536.599 1076.41 536.367 1076.37C536.172 1076.33 535.983 1076.46 535.947 1076.66C535.903 1076.89 542.131 1078.18 553.925 1080.39L571.97 1083.76L573.096 1077.75L574.222 1071.73L580.237 1072.86L586.252 1073.99L598.57 1008.18L610.887 942.364L604.873 941.238L598.858 940.113L599.983 934.098L601.109 928.083L535.298 915.765L469.487 903.447L468.361 909.462Z" fill="#F8CC14"/>
<path fill-rule="evenodd" clip-rule="evenodd" d="M427.225 1306.28L428.708 1312.05L422.94 1313.53L417.172 1315.01L433.391 1378.12L449.611 1441.23L455.379 1439.75L461.147 1438.27L462.629 1444.04L464.111 1449.8L498.38 1441L532.649 1432.19L526.806 1409.46L520.964 1386.72L509.913 1389.56C500.787 1391.91 498.755 1392.34 498.252 1392.04C497.5 1391.6 497.255 1390.77 497.763 1390.39C498.05 1390.18 497.994 1390.05 497.534 1389.85C497.073 1389.65 497.017 1389.52 497.304 1389.31C497.754 1388.98 497.501 1387.69 497.01 1387.82C496.793 1387.87 495.841 1384.67 494.354 1378.89C492.462 1371.53 492.103 1369.76 492.397 1369.26C492.694 1368.76 494.683 1368.16 503.809 1365.81L514.86 1362.97L509.017 1340.24L503.175 1317.51L508.943 1316.02L514.711 1314.54L513.229 1308.77L511.746 1303.01L529.05 1298.56L546.354 1294.11L549.319 1305.65L552.284 1317.18L541.233 1320.02C531.363 1322.56 530.136 1322.94 529.76 1323.58C529.454 1324.09 529.464 1324.3 529.797 1324.32C530.393 1324.36 530.858 1326.18 530.375 1326.58C530.076 1326.83 530.096 1326.91 530.476 1326.98C531.085 1327.09 538.29 1354.78 537.748 1354.92C537.244 1355.05 537.593 1356.02 538.292 1356.43C538.795 1356.73 540.827 1356.3 549.953 1353.95L561.004 1351.11L563.931 1362.5C566.549 1372.69 566.814 1373.97 566.438 1374.61C566.132 1375.12 565.949 1375.21 565.768 1374.93C565.473 1374.48 564.18 1374.73 564.306 1375.22C564.362 1375.44 561.227 1376.38 555.572 1377.83C549.917 1379.28 546.719 1379.97 546.663 1379.76C546.615 1379.57 546.27 1379.5 545.897 1379.59C545.524 1379.69 545.258 1379.92 545.306 1380.11C545.354 1380.29 545.088 1380.52 544.714 1380.62C544.341 1380.72 544.075 1380.95 544.123 1381.13C544.171 1381.32 544.363 1381.43 544.55 1381.38C544.772 1381.33 546.836 1388.88 550.557 1403.35C627.165 1390.06 545.094 1422.13 544.871 1422.19C526.034 1406.45 532.601 1432 532.649 1432.19C532.706 1432.41 561.715 1424.72 573.025 1421.81L590.329 1417.36L588.846 1411.6L587.364 1405.83L593.132 1404.35L598.9 1402.86L582.681 1339.75L566.461 1276.65L560.693 1278.13L554.925 1279.61L553.443 1273.84L551.96 1268.08L488.852 1284.29L425.743 1300.51L427.225 1306.28Z" fill="#F8CC14"/>
<rect x="460.683" y="1313.49" width="98.3314" height="132.88" transform="rotate(-14.4134 460.683 1313.49)" fill="#F8CC14"/>
<path fill-rule="evenodd" clip-rule="evenodd" d="M518.559 1315.07L478.208 1325.44L479.936 1332.17L471.866 1334.24L473.249 1339.62L465.182 1341.7L467.256 1349.77L461.874 1351.15L472.591 1392.85L486.041 1389.39L475.325 1347.69L475.326 1347.69L475.326 1347.69L483.393 1345.62L481.665 1338.9L522.016 1328.52L518.559 1315.07ZM528.362 1319.72L520.291 1321.8L523.748 1335.25L531.816 1333.17L542.532 1374.87L555.982 1371.41L545.266 1329.72L539.887 1331.1L537.813 1323.03L529.745 1325.11L528.362 1319.72ZM499.299 1407.49L539.65 1397.12L537.922 1390.4L545.992 1388.32L544.609 1382.94L552.676 1380.87L550.602 1372.8L542.532 1374.87L542.532 1374.87L534.465 1376.95L536.193 1383.67L495.842 1394.04L499.299 1407.49ZM497.567 1400.77L489.497 1402.84L488.113 1397.46L480.045 1399.53L477.971 1391.46L486.041 1389.39L486.042 1389.39L494.11 1387.32L497.567 1400.77Z" fill="#007AE0"/>
<rect x="534.996" y="1289.88" width="21.1181" height="19.0063" transform="rotate(-14.4134 534.996 1289.88)" fill="#007AE0"/>
<rect x="538.253" y="1302.42" width="6.94374" height="20.8312" transform="rotate(-104.413 538.253 1302.42)" fill="#007AE0"/>
<path d="M652.788 296.071H665.865L656.838 341.459H643.761L652.788 296.071ZM661.562 289.743C659.313 289.743 657.457 289.096 655.994 287.803C654.588 286.453 653.885 284.822 653.885 282.91C653.885 280.66 654.672 278.804 656.247 277.341C657.878 275.823 659.988 275.063 662.575 275.063C664.881 275.063 666.737 275.71 668.143 277.004C669.605 278.241 670.336 279.788 670.336 281.644C670.336 284.063 669.521 286.031 667.89 287.55C666.259 289.012 664.15 289.743 661.562 289.743ZM704.488 295.396C709.55 295.396 713.572 296.746 716.552 299.445C719.533 302.089 721.024 305.885 721.024 310.835C721.024 312.691 720.827 314.519 720.433 316.318L715.371 341.459H702.21L707.103 317.162C707.328 316.206 707.441 315.165 707.441 314.041C707.441 311.678 706.794 309.878 705.501 308.641C704.207 307.404 702.267 306.785 699.679 306.785C696.305 306.785 693.492 307.769 691.243 309.738C689.049 311.65 687.559 314.547 686.771 318.428L682.216 341.459H669.054L678.082 296.071H690.568L689.555 300.964C693.605 297.252 698.583 295.396 704.488 295.396ZM758.179 288.562C756.154 288.562 754.551 289.124 753.37 290.249C752.245 291.318 751.458 293.033 751.008 295.396L750.671 297.083H762.229L760.204 307.207H748.983L742.15 341.459H728.989L735.822 307.207H728.735L730.76 297.083H737.847L738.353 294.468C739.422 289.406 741.615 285.44 744.934 282.572C748.308 279.647 752.695 278.185 758.095 278.185C760.12 278.185 762.032 278.41 763.832 278.86C765.688 279.31 767.263 279.929 768.556 280.716L763.41 290.165C762.004 289.096 760.26 288.562 758.179 288.562ZM783.142 342.134C778.586 342.134 774.564 341.291 771.077 339.603C767.646 337.916 764.975 335.554 763.062 332.517C761.206 329.423 760.278 325.852 760.278 321.802C760.278 316.796 761.46 312.297 763.822 308.304C766.184 304.31 769.446 301.161 773.608 298.855C777.77 296.549 782.467 295.396 787.697 295.396C792.309 295.396 796.331 296.239 799.762 297.927C803.193 299.614 805.836 302.004 807.692 305.098C809.604 308.135 810.561 311.678 810.561 315.728C810.561 320.734 809.379 325.233 807.017 329.226C804.711 333.22 801.449 336.369 797.231 338.675C793.069 340.981 788.372 342.134 783.142 342.134ZM783.985 331.251C786.516 331.251 788.794 330.633 790.819 329.395C792.844 328.102 794.418 326.33 795.543 324.08C796.668 321.83 797.231 319.243 797.231 316.318C797.231 313.225 796.331 310.778 794.531 308.979C792.731 307.179 790.2 306.279 786.938 306.279C784.351 306.279 782.045 306.926 780.02 308.219C777.995 309.457 776.42 311.2 775.296 313.45C774.171 315.7 773.608 318.287 773.608 321.212C773.608 324.305 774.508 326.752 776.308 328.551C778.164 330.351 780.723 331.251 783.985 331.251ZM862.639 281.56C869.839 281.56 876.054 282.853 881.284 285.44C886.571 288.028 890.593 291.655 893.349 296.324C896.104 300.936 897.482 306.335 897.482 312.522C897.482 317.696 896.583 322.562 894.783 327.117C893.039 331.617 890.564 335.245 887.359 338C884.209 340.7 880.609 342.05 876.56 342.05C873.635 342.05 871.217 341.544 869.304 340.531C867.448 339.519 866.155 338.057 865.423 336.144C861.824 340.081 857.015 342.05 850.997 342.05C847.735 342.05 844.782 341.319 842.138 339.857C839.551 338.394 837.498 336.313 835.98 333.613C834.461 330.857 833.702 327.68 833.702 324.08C833.702 319.637 834.658 315.531 836.57 311.763C838.539 307.994 841.21 305.013 844.585 302.82C848.016 300.57 851.84 299.445 856.059 299.445C862.302 299.445 866.717 301.667 869.304 306.11L870.57 300.036H882.043L876.56 327.455C876.391 328.186 876.307 328.833 876.307 329.395C876.307 331.645 877.46 332.77 879.766 332.77C881.622 332.77 883.253 331.757 884.659 329.733C886.065 327.652 887.134 325.092 887.865 322.055C888.596 318.962 888.962 315.953 888.962 313.028C888.962 305.66 886.627 299.923 881.959 295.818C877.291 291.655 870.457 289.574 861.458 289.574C854.315 289.574 847.988 291.149 842.476 294.299C837.02 297.449 832.774 301.779 829.737 307.291C826.699 312.747 825.181 318.849 825.181 325.599C825.181 330.604 826.221 335.02 828.302 338.844C830.383 342.612 833.421 345.537 837.414 347.618C841.407 349.699 846.188 350.74 851.756 350.74C857.437 350.74 862.752 349.671 867.701 347.534L869.557 355.295C866.97 356.364 864.017 357.208 860.699 357.826C857.437 358.501 854.231 358.839 851.081 358.839C843.882 358.839 837.611 357.461 832.268 354.705C826.924 351.949 822.819 348.096 819.95 343.147C817.138 338.254 815.732 332.629 815.732 326.274C815.732 317.781 817.729 310.132 821.722 303.326C825.715 296.521 831.255 291.205 838.342 287.381C845.485 283.5 853.584 281.56 862.639 281.56ZM854.54 332.348C856.959 332.348 859.096 331.729 860.952 330.492C862.808 329.255 864.242 327.567 865.255 325.43C866.323 323.293 866.858 320.959 866.858 318.428C866.858 315.503 866.014 313.253 864.327 311.678C862.696 310.047 860.418 309.232 857.493 309.232C853.95 309.232 851.053 310.497 848.803 313.028C846.554 315.503 845.429 318.849 845.429 323.068C845.429 326.049 846.244 328.355 847.875 329.986C849.506 331.561 851.728 332.348 854.54 332.348ZM920.265 325.43C920.152 325.88 920.096 326.499 920.096 327.286C920.096 330.211 921.699 331.673 924.905 331.673C926.648 331.673 928.42 331.139 930.22 330.07L932.16 339.435C929.235 341.234 925.467 342.134 920.855 342.134C916.581 342.134 913.15 341.01 910.562 338.76C907.975 336.51 906.682 333.417 906.682 329.48C906.682 328.355 906.822 327.033 907.103 325.514L910.731 307.207H903.729L905.754 297.083H912.756L914.95 286.031H928.111L925.917 297.083H937.222L935.197 307.207H923.892L920.265 325.43ZM974.476 295.396C979.538 295.396 983.559 296.746 986.54 299.445C989.521 302.145 991.011 305.97 991.011 310.919C991.011 312.719 990.814 314.519 990.421 316.318L985.359 341.459H972.198L977.091 317.162C977.316 316.206 977.428 315.165 977.428 314.041C977.428 311.678 976.782 309.878 975.488 308.641C974.194 307.404 972.254 306.785 969.667 306.785C966.292 306.785 963.48 307.769 961.23 309.738C959.037 311.65 957.546 314.547 956.759 318.428L952.203 341.459H939.042L951.528 278.86H964.689L960.471 300.205C964.352 296.999 969.02 295.396 974.476 295.396ZM1047.14 315.39C1047.14 317.471 1046.88 319.777 1046.38 322.308H1011.62C1012.07 328.495 1015.98 331.589 1023.35 331.589C1025.65 331.589 1027.85 331.223 1029.93 330.492C1032.06 329.761 1033.92 328.72 1035.49 327.37L1040.98 336.06C1038.45 338.085 1035.55 339.603 1032.29 340.616C1029.03 341.628 1025.6 342.134 1022 342.134C1017.33 342.134 1013.22 341.319 1009.68 339.688C1006.19 338 1003.49 335.61 1001.58 332.517C999.723 329.423 998.795 325.852 998.795 321.802C998.795 316.796 999.92 312.297 1002.17 308.304C1004.48 304.254 1007.65 301.104 1011.7 298.855C1015.75 296.549 1020.36 295.396 1025.54 295.396C1029.93 295.396 1033.72 296.211 1036.93 297.842C1040.19 299.473 1042.69 301.807 1044.44 304.845C1046.24 307.882 1047.14 311.397 1047.14 315.39ZM1024.95 305.266C1021.86 305.266 1019.24 306.11 1017.1 307.797C1014.97 309.429 1013.45 311.706 1012.55 314.631H1035.07C1035.07 311.706 1034.14 309.429 1032.29 307.797C1030.49 306.11 1028.04 305.266 1024.95 305.266ZM1105.93 296.071L1096.91 341.459H1084.42L1085.26 336.988C1081.5 340.419 1076.86 342.134 1071.34 342.134C1067.8 342.134 1064.54 341.319 1061.56 339.688C1058.58 338.057 1056.19 335.723 1054.39 332.685C1052.64 329.592 1051.77 325.964 1051.77 321.802C1051.77 316.796 1052.87 312.297 1055.06 308.304C1057.31 304.254 1060.35 301.104 1064.17 298.855C1068 296.549 1072.22 295.396 1076.83 295.396C1083.8 295.396 1088.72 297.674 1091.59 302.229L1092.77 296.071H1105.93ZM1075.39 331.251C1077.98 331.251 1080.29 330.633 1082.31 329.395C1084.34 328.102 1085.91 326.33 1087.04 324.08C1088.16 321.83 1088.72 319.243 1088.72 316.318C1088.72 313.225 1087.8 310.778 1085.94 308.979C1084.14 307.179 1081.61 306.279 1078.35 306.279C1075.76 306.279 1073.45 306.926 1071.43 308.219C1069.4 309.457 1067.83 311.2 1066.7 313.45C1065.58 315.7 1065.02 318.287 1065.02 321.212C1065.02 324.305 1065.92 326.752 1067.72 328.551C1069.57 330.351 1072.13 331.251 1075.39 331.251ZM1129.51 301.47C1131.48 299.333 1133.84 297.786 1136.6 296.83C1139.41 295.874 1142.7 295.396 1146.47 295.396L1144.1 307.544C1142.53 307.432 1141.52 307.376 1141.07 307.376C1137.07 307.376 1133.87 308.36 1131.45 310.328C1129.09 312.297 1127.48 315.362 1126.64 319.524L1122.25 341.459H1109.09L1118.12 296.071H1130.61L1129.51 301.47ZM1161.8 342.134C1157.86 342.134 1154.12 341.713 1150.58 340.869C1147.09 339.969 1144.36 338.816 1142.39 337.41L1147.45 327.877C1149.42 329.17 1151.81 330.211 1154.63 330.998C1157.49 331.786 1160.36 332.179 1163.23 332.179C1166.21 332.179 1168.43 331.814 1169.9 331.082C1171.36 330.295 1172.09 329.198 1172.09 327.792C1172.09 326.667 1171.44 325.852 1170.15 325.346C1168.85 324.839 1166.77 324.305 1163.91 323.743C1160.64 323.124 1157.94 322.449 1155.81 321.718C1153.73 320.987 1151.9 319.806 1150.32 318.174C1148.8 316.487 1148.04 314.209 1148.04 311.341C1148.04 306.335 1150.13 302.426 1154.29 299.614C1158.51 296.802 1164.02 295.396 1170.82 295.396C1173.97 295.396 1177.04 295.733 1180.02 296.408C1183 297.083 1185.53 298.011 1187.61 299.192L1182.89 308.81C1179.18 306.504 1174.7 305.351 1169.47 305.351C1166.61 305.351 1164.41 305.773 1162.89 306.616C1161.43 307.46 1160.7 308.529 1160.7 309.822C1160.7 311.003 1161.35 311.875 1162.64 312.438C1163.93 312.944 1166.1 313.506 1169.14 314.125C1172.34 314.744 1174.96 315.419 1176.98 316.15C1179.06 316.825 1180.86 317.978 1182.38 319.609C1183.9 321.24 1184.66 323.461 1184.66 326.274C1184.66 331.336 1182.52 335.245 1178.25 338C1174.03 340.756 1168.55 342.134 1161.8 342.134ZM1225.51 295.396C1230.58 295.396 1234.6 296.746 1237.58 299.445C1240.56 302.145 1242.05 305.97 1242.05 310.919C1242.05 312.719 1241.85 314.519 1241.46 316.318L1236.4 341.459H1223.24L1228.13 317.162C1228.35 316.206 1228.47 315.165 1228.47 314.041C1228.47 311.678 1227.82 309.878 1226.53 308.641C1225.23 307.404 1223.29 306.785 1220.7 306.785C1217.33 306.785 1214.52 307.769 1212.27 309.738C1210.07 311.65 1208.58 314.547 1207.8 318.428L1203.24 341.459H1190.08L1202.57 278.86H1215.73L1211.51 300.205C1215.39 296.999 1220.06 295.396 1225.51 295.396ZM1304 296.071L1294.97 341.459H1282.48L1283.33 336.988C1279.56 340.419 1274.92 342.134 1269.41 342.134C1265.86 342.134 1262.6 341.319 1259.62 339.688C1256.64 338.057 1254.25 335.723 1252.45 332.685C1250.71 329.592 1249.83 325.964 1249.83 321.802C1249.83 316.796 1250.93 312.297 1253.12 308.304C1255.37 304.254 1258.41 301.104 1262.24 298.855C1266.06 296.549 1270.28 295.396 1274.89 295.396C1281.86 295.396 1286.79 297.674 1289.65 302.229L1290.84 296.071H1304ZM1273.46 331.251C1276.04 331.251 1278.35 330.633 1280.37 329.395C1282.4 328.102 1283.97 326.33 1285.1 324.08C1286.22 321.83 1286.79 319.243 1286.79 316.318C1286.79 313.225 1285.86 310.778 1284 308.979C1282.2 307.179 1279.67 306.279 1276.41 306.279C1273.82 306.279 1271.52 306.926 1269.49 308.219C1267.47 309.457 1265.89 311.2 1264.77 313.45C1263.64 315.7 1263.08 318.287 1263.08 321.212C1263.08 324.305 1263.98 326.752 1265.78 328.551C1267.63 330.351 1270.19 331.251 1273.46 331.251ZM1373.13 295.396C1378.08 295.396 1382.01 296.746 1384.94 299.445C1387.86 302.089 1389.33 305.857 1389.33 310.75C1389.33 312.55 1389.13 314.406 1388.74 316.318L1383.76 341.459H1370.6L1375.41 317.246C1375.63 316.122 1375.74 314.969 1375.74 313.787C1375.74 311.481 1375.12 309.738 1373.89 308.557C1372.71 307.376 1370.93 306.785 1368.57 306.785C1362.22 306.785 1358.25 310.582 1356.68 318.174L1352.04 341.459H1338.88L1343.68 317.246C1343.91 316.122 1344.02 314.997 1344.02 313.872C1344.02 311.566 1343.4 309.822 1342.17 308.641C1340.98 307.404 1339.21 306.785 1336.85 306.785C1330.5 306.785 1326.5 310.638 1324.87 318.343L1320.32 341.459H1307.15L1316.18 296.071H1328.67L1327.66 300.795C1331.59 297.195 1336.34 295.396 1341.91 295.396C1345.06 295.396 1347.85 296.042 1350.27 297.336C1352.74 298.573 1354.6 300.401 1355.83 302.82C1358.03 300.401 1360.59 298.573 1363.51 297.336C1366.44 296.042 1369.64 295.396 1373.13 295.396ZM1401.63 342.134C1399.38 342.134 1397.52 341.431 1396.06 340.025C1394.6 338.563 1393.87 336.735 1393.87 334.541C1393.87 331.954 1394.71 329.845 1396.4 328.214C1398.09 326.583 1400.17 325.767 1402.64 325.767C1404.89 325.767 1406.72 326.47 1408.13 327.877C1409.59 329.283 1410.32 331.111 1410.32 333.36C1410.32 335.891 1409.45 338 1407.7 339.688C1406.02 341.319 1403.99 342.134 1401.63 342.134ZM1441.1 342.134C1436.43 342.134 1432.36 341.291 1428.87 339.603C1425.38 337.916 1422.68 335.554 1420.77 332.517C1418.91 329.423 1417.99 325.852 1417.99 321.802C1417.99 316.796 1419.17 312.297 1421.53 308.304C1423.89 304.31 1427.18 301.161 1431.4 298.855C1435.62 296.549 1440.37 295.396 1445.66 295.396C1450.5 295.396 1454.66 296.408 1458.14 298.433C1461.69 300.401 1464.33 303.214 1466.08 306.869L1454.94 312.438C1452.97 308.332 1449.6 306.279 1444.82 306.279C1442.23 306.279 1439.89 306.926 1437.81 308.219C1435.79 309.457 1434.18 311.2 1433 313.45C1431.88 315.7 1431.32 318.259 1431.32 321.127C1431.32 324.221 1432.24 326.695 1434.1 328.551C1435.96 330.351 1438.54 331.251 1441.86 331.251C1446.7 331.251 1450.41 329.226 1453 325.177L1462.7 331.251C1460.51 334.682 1457.5 337.354 1453.67 339.266C1449.91 341.178 1445.71 342.134 1441.1 342.134ZM1490.12 342.134C1485.56 342.134 1481.54 341.291 1478.05 339.603C1474.62 337.916 1471.95 335.554 1470.04 332.517C1468.18 329.423 1467.26 325.852 1467.26 321.802C1467.26 316.796 1468.44 312.297 1470.8 308.304C1473.16 304.31 1476.42 301.161 1480.58 298.855C1484.75 296.549 1489.44 295.396 1494.67 295.396C1499.29 295.396 1503.31 296.239 1506.74 297.927C1510.17 299.614 1512.81 302.004 1514.67 305.098C1516.58 308.135 1517.54 311.678 1517.54 315.728C1517.54 320.734 1516.36 325.233 1513.99 329.226C1511.69 333.22 1508.43 336.369 1504.21 338.675C1500.05 340.981 1495.35 342.134 1490.12 342.134ZM1490.96 331.251C1493.49 331.251 1495.77 330.633 1497.8 329.395C1499.82 328.102 1501.4 326.33 1502.52 324.08C1503.64 321.83 1504.21 319.243 1504.21 316.318C1504.21 313.225 1503.31 310.778 1501.51 308.979C1499.71 307.179 1497.18 306.279 1493.91 306.279C1491.33 306.279 1489.02 306.926 1487 308.219C1484.97 309.457 1483.4 311.2 1482.27 313.45C1481.15 315.7 1480.58 318.287 1480.58 321.212C1480.58 324.305 1481.48 326.752 1483.28 328.551C1485.14 330.351 1487.7 331.251 1490.96 331.251ZM1587.59 295.396C1592.54 295.396 1596.47 296.746 1599.4 299.445C1602.32 302.089 1603.78 305.857 1603.78 310.75C1603.78 312.55 1603.59 314.406 1603.19 316.318L1598.22 341.459H1585.05L1589.86 317.246C1590.09 316.122 1590.2 314.969 1590.2 313.787C1590.2 311.481 1589.58 309.738 1588.35 308.557C1587.16 307.376 1585.39 306.785 1583.03 306.785C1576.67 306.785 1572.71 310.582 1571.13 318.174L1566.49 341.459H1553.33L1558.14 317.246C1558.37 316.122 1558.48 314.997 1558.48 313.872C1558.48 311.566 1557.86 309.822 1556.62 308.641C1555.44 307.404 1553.67 306.785 1551.31 306.785C1544.95 306.785 1540.96 310.638 1539.33 318.343L1534.77 341.459H1521.61L1530.64 296.071H1543.13L1542.11 300.795C1546.05 297.195 1550.8 295.396 1556.37 295.396C1559.52 295.396 1562.3 296.042 1564.72 297.336C1567.2 298.573 1569.05 300.401 1570.29 302.82C1572.48 300.401 1575.04 298.573 1577.97 297.336C1580.89 296.042 1584.1 295.396 1587.59 295.396Z" fill="white"/>
<path d="M681.33 179.626L678.799 192.45H706.218L704.109 203.08H676.605L673.906 216.747H706.133L703.856 227.715H658.129L669.94 168.659H714.57L712.292 179.626H681.33ZM779.861 181.651C784.81 181.651 788.747 183.001 791.672 185.701C794.597 188.344 796.059 192.112 796.059 197.006C796.059 198.805 795.862 200.662 795.468 202.574L790.491 227.715H777.33L782.139 203.502C782.364 202.377 782.476 201.224 782.476 200.043C782.476 197.737 781.857 195.993 780.62 194.812C779.439 193.631 777.667 193.04 775.305 193.04C768.949 193.04 764.984 196.837 763.409 204.43L758.769 227.715H745.608L750.417 203.502C750.642 202.377 750.754 201.252 750.754 200.127C750.754 197.821 750.136 196.078 748.898 194.896C747.717 193.659 745.946 193.04 743.583 193.04C737.228 193.04 733.234 196.893 731.603 204.599L727.048 227.715H713.887L722.914 182.326H735.4L734.387 187.05C738.325 183.451 743.077 181.651 748.645 181.651C751.795 181.651 754.579 182.298 756.998 183.591C759.472 184.829 761.328 186.657 762.566 189.075C764.759 186.657 767.318 184.829 770.243 183.591C773.168 182.298 776.374 181.651 779.861 181.651ZM857.957 182.326L848.93 227.715H836.444L837.288 223.243C833.519 226.674 828.879 228.39 823.367 228.39C819.824 228.39 816.562 227.574 813.581 225.943C810.6 224.312 808.209 221.978 806.41 218.941C804.666 215.847 803.794 212.22 803.794 208.058C803.794 203.052 804.891 198.552 807.085 194.559C809.334 190.509 812.371 187.36 816.196 185.11C820.021 182.804 824.239 181.651 828.851 181.651C835.825 181.651 840.747 183.929 843.615 188.485L844.796 182.326H857.957ZM827.417 217.507C830.004 217.507 832.31 216.888 834.335 215.651C836.36 214.357 837.934 212.585 839.059 210.335C840.184 208.086 840.747 205.498 840.747 202.574C840.747 199.48 839.819 197.034 837.962 195.234C836.163 193.434 833.632 192.534 830.37 192.534C827.782 192.534 825.476 193.181 823.452 194.475C821.427 195.712 819.852 197.456 818.727 199.705C817.602 201.955 817.04 204.542 817.04 207.467C817.04 210.56 817.94 213.007 819.739 214.807C821.595 216.607 824.155 217.507 827.417 217.507ZM870.142 182.326H883.219L874.192 227.715H861.115L870.142 182.326ZM878.916 175.999C876.666 175.999 874.81 175.352 873.348 174.058C871.942 172.708 871.239 171.077 871.239 169.165C871.239 166.915 872.026 165.059 873.601 163.597C875.232 162.078 877.341 161.319 879.929 161.319C882.235 161.319 884.091 161.966 885.497 163.259C886.959 164.497 887.69 166.043 887.69 167.899C887.69 170.318 886.875 172.286 885.244 173.805C883.613 175.267 881.503 175.999 878.916 175.999ZM898.894 165.115H912.056L899.569 227.715H886.408L898.894 165.115ZM923.848 198.102C921.599 198.102 919.742 197.399 918.28 195.993C916.818 194.531 916.087 192.703 916.087 190.509C916.087 187.922 916.93 185.813 918.618 184.182C920.305 182.551 922.386 181.735 924.861 181.735C927.11 181.735 928.938 182.438 930.344 183.845C931.807 185.251 932.538 187.079 932.538 189.328C932.538 191.859 931.666 193.968 929.923 195.656C928.235 197.287 926.211 198.102 923.848 198.102ZM917.774 228.39C915.524 228.39 913.668 227.687 912.206 226.281C910.743 224.818 910.012 222.99 910.012 220.797C910.012 218.21 910.856 216.1 912.543 214.469C914.231 212.838 916.312 212.023 918.786 212.023C921.036 212.023 922.864 212.726 924.27 214.132C925.732 215.538 926.464 217.366 926.464 219.616C926.464 222.147 925.592 224.256 923.848 225.943C922.161 227.574 920.136 228.39 917.774 228.39Z" fill="white"/>
<path d="M700.683 704.999H673.179L665.502 717.654H650.907L689.124 658.598H702.623L717.134 717.654H703.467L700.683 704.999ZM698.405 694.622L693.427 671.844L679.507 694.622H698.405ZM742.834 677.665C744.802 675.528 747.165 673.981 749.921 673.025C752.733 672.069 756.023 671.59 759.791 671.59L757.429 683.739C755.854 683.627 754.842 683.57 754.392 683.57C750.399 683.57 747.193 684.555 744.774 686.523C742.412 688.492 740.809 691.557 739.965 695.719L735.578 717.654H722.417L731.444 672.265H743.931L742.834 677.665ZM775.122 718.329C771.185 718.329 767.444 717.907 763.901 717.064C760.414 716.164 757.686 715.011 755.717 713.605L760.779 704.071C762.748 705.365 765.138 706.406 767.951 707.193C770.819 707.98 773.687 708.374 776.556 708.374C779.537 708.374 781.758 708.008 783.221 707.277C784.683 706.49 785.414 705.393 785.414 703.987C785.414 702.862 784.767 702.047 783.474 701.54C782.18 701.034 780.099 700.5 777.231 699.937C773.969 699.319 771.269 698.644 769.132 697.913C767.051 697.181 765.223 696 763.648 694.369C762.129 692.682 761.37 690.404 761.37 687.536C761.37 682.53 763.451 678.621 767.613 675.809C771.831 672.997 777.343 671.59 784.149 671.59C787.298 671.59 790.364 671.928 793.345 672.603C796.326 673.278 798.857 674.206 800.938 675.387L796.213 685.005C792.501 682.699 788.03 681.546 782.799 681.546C779.93 681.546 777.737 681.968 776.218 682.811C774.756 683.655 774.025 684.723 774.025 686.017C774.025 687.198 774.672 688.07 775.965 688.632C777.259 689.139 779.424 689.701 782.461 690.32C785.667 690.938 788.283 691.613 790.307 692.345C792.389 693.019 794.188 694.172 795.707 695.804C797.225 697.435 797.985 699.656 797.985 702.468C797.985 707.53 795.848 711.439 791.573 714.195C787.355 716.951 781.871 718.329 775.122 718.329ZM838.839 671.59C843.901 671.59 847.922 672.94 850.903 675.64C853.884 678.34 855.375 682.164 855.375 687.114C855.375 688.914 855.178 690.713 854.784 692.513L849.722 717.654H836.561L841.454 693.357C841.679 692.401 841.792 691.36 841.792 690.235C841.792 687.873 841.145 686.073 839.851 684.836C838.558 683.599 836.617 682.98 834.03 682.98C830.655 682.98 827.843 683.964 825.594 685.933C823.4 687.845 821.91 690.742 821.122 694.622L816.566 717.654H803.405L815.891 655.055H829.053L824.834 676.399C828.715 673.193 833.383 671.59 838.839 671.59ZM917.322 672.265L908.295 717.654H895.808L896.652 713.183C892.884 716.614 888.244 718.329 882.732 718.329C879.188 718.329 875.926 717.514 872.945 715.883C869.964 714.252 867.574 711.917 865.774 708.88C864.031 705.787 863.159 702.159 863.159 697.997C863.159 692.991 864.256 688.492 866.449 684.498C868.699 680.449 871.736 677.299 875.561 675.05C879.385 672.744 883.603 671.59 888.215 671.59C895.19 671.59 900.111 673.868 902.98 678.424L904.161 672.265H917.322ZM886.781 707.446C889.368 707.446 891.674 706.827 893.699 705.59C895.724 704.296 897.299 702.525 898.424 700.275C899.549 698.025 900.111 695.438 900.111 692.513C900.111 689.42 899.183 686.973 897.327 685.173C895.527 683.374 892.996 682.474 889.734 682.474C887.147 682.474 884.841 683.121 882.816 684.414C880.791 685.651 879.216 687.395 878.092 689.645C876.967 691.895 876.404 694.482 876.404 697.406C876.404 700.5 877.304 702.947 879.104 704.746C880.96 706.546 883.519 707.446 886.781 707.446ZM986.454 671.59C991.403 671.59 995.34 672.94 998.265 675.64C1001.19 678.284 1002.65 682.052 1002.65 686.945C1002.65 688.745 1002.46 690.601 1002.06 692.513L997.084 717.654H983.923L988.732 693.441C988.957 692.316 989.069 691.163 989.069 689.982C989.069 687.676 988.45 685.933 987.213 684.752C986.032 683.57 984.26 682.98 981.898 682.98C975.542 682.98 971.577 686.776 970.002 694.369L965.362 717.654H952.201L957.01 693.441C957.235 692.316 957.347 691.192 957.347 690.067C957.347 687.761 956.729 686.017 955.491 684.836C954.31 683.599 952.539 682.98 950.176 682.98C943.821 682.98 939.827 686.833 938.196 694.538L933.641 717.654H920.48L929.507 672.265H941.993L940.98 676.99C944.918 673.39 949.67 671.59 955.238 671.59C958.388 671.59 961.172 672.237 963.591 673.531C966.065 674.768 967.921 676.596 969.159 679.015C971.352 676.596 973.911 674.768 976.836 673.531C979.761 672.237 982.967 671.59 986.454 671.59ZM1054.29 718.667C1049.62 718.667 1045.15 718.048 1040.87 716.811C1036.6 715.573 1033.17 713.998 1030.58 712.086L1036.15 701.54C1038.85 703.509 1041.88 705.028 1045.26 706.096C1048.63 707.165 1052.09 707.699 1055.64 707.699C1059.4 707.699 1062.39 707.08 1064.58 705.843C1066.77 704.606 1067.87 702.918 1067.87 700.781C1067.87 699.038 1067 697.716 1065.25 696.816C1063.51 695.86 1060.73 694.847 1056.9 693.779C1053.08 692.654 1049.96 691.585 1047.54 690.573C1045.12 689.504 1043.01 687.929 1041.21 685.848C1039.47 683.767 1038.59 681.011 1038.59 677.58C1038.59 673.587 1039.69 670.072 1041.88 667.035C1044.13 663.998 1047.28 661.663 1051.33 660.032C1055.44 658.401 1060.19 657.586 1065.59 657.586C1069.58 657.586 1073.35 658.036 1076.9 658.936C1080.44 659.779 1083.48 661.017 1086.01 662.648L1080.86 673.109C1078.67 671.59 1076.19 670.466 1073.44 669.734C1070.68 668.947 1067.81 668.553 1064.83 668.553C1060.95 668.553 1057.89 669.228 1055.64 670.578C1053.39 671.928 1052.26 673.672 1052.26 675.809C1052.26 677.102 1052.74 678.199 1053.7 679.099C1054.65 679.943 1055.86 680.646 1057.32 681.208C1058.79 681.714 1060.84 682.333 1063.48 683.064C1067.25 684.077 1070.34 685.117 1072.76 686.186C1075.18 687.198 1077.23 688.717 1078.92 690.742C1080.66 692.71 1081.54 695.325 1081.54 698.588C1081.54 702.637 1080.41 706.181 1078.16 709.218C1075.91 712.199 1072.73 714.533 1068.63 716.22C1064.52 717.851 1059.74 718.667 1054.29 718.667ZM1122.09 671.59C1127.15 671.59 1131.17 672.94 1134.16 675.64C1137.14 678.34 1138.63 682.164 1138.63 687.114C1138.63 688.914 1138.43 690.713 1138.04 692.513L1132.97 717.654H1119.81L1124.71 693.357C1124.93 692.401 1125.04 691.36 1125.04 690.235C1125.04 687.873 1124.4 686.073 1123.1 684.836C1121.81 683.599 1119.87 682.98 1117.28 682.98C1113.91 682.98 1111.1 683.964 1108.85 685.933C1106.65 687.845 1105.16 690.742 1104.37 694.622L1099.82 717.654H1086.66L1099.14 655.055H1112.3L1108.09 676.399C1111.97 673.193 1116.64 671.59 1122.09 671.59ZM1154.02 672.265H1167.09L1158.07 717.654H1144.99L1154.02 672.265ZM1162.79 665.938C1160.54 665.938 1158.68 665.291 1157.22 663.998C1155.82 662.648 1155.11 661.017 1155.11 659.104C1155.11 656.855 1155.9 654.999 1157.47 653.536C1159.11 652.018 1161.21 651.258 1163.8 651.258C1166.11 651.258 1167.96 651.905 1169.37 653.199C1170.83 654.436 1171.56 655.983 1171.56 657.839C1171.56 660.257 1170.75 662.226 1169.12 663.744C1167.49 665.207 1165.38 665.938 1162.79 665.938ZM1190.7 677.665C1192.67 675.528 1195.03 673.981 1197.79 673.025C1200.6 672.069 1203.89 671.59 1207.66 671.59L1205.29 683.739C1203.72 683.627 1202.71 683.57 1202.26 683.57C1198.26 683.57 1195.06 684.555 1192.64 686.523C1190.28 688.492 1188.67 691.557 1187.83 695.719L1183.44 717.654H1170.28L1179.31 672.265H1191.8L1190.7 677.665ZM1240.12 692.007L1255.72 717.654H1240.45L1229.65 700.022L1221.64 706.687L1219.45 717.654H1206.29L1218.77 655.055H1231.93L1224.93 690.067L1246.7 672.265H1263.82L1240.12 692.007ZM1282.39 718.329C1277.84 718.329 1273.81 717.486 1270.33 715.798C1266.9 714.111 1264.22 711.749 1262.31 708.712C1260.46 705.618 1259.53 702.047 1259.53 697.997C1259.53 692.991 1260.71 688.492 1263.07 684.498C1265.43 680.505 1268.7 677.356 1272.86 675.05C1277.02 672.744 1281.72 671.59 1286.95 671.59C1291.56 671.59 1295.58 672.434 1299.01 674.121C1302.44 675.809 1305.09 678.199 1306.94 681.293C1308.85 684.33 1309.81 687.873 1309.81 691.923C1309.81 696.928 1308.63 701.428 1306.27 705.421C1303.96 709.415 1300.7 712.564 1296.48 714.87C1292.32 717.176 1287.62 718.329 1282.39 718.329ZM1283.24 707.446C1285.77 707.446 1288.04 706.827 1290.07 705.59C1292.09 704.296 1293.67 702.525 1294.79 700.275C1295.92 698.025 1296.48 695.438 1296.48 692.513C1296.48 689.42 1295.58 686.973 1293.78 685.173C1291.98 683.374 1289.45 682.474 1286.19 682.474C1283.6 682.474 1281.29 683.121 1279.27 684.414C1277.25 685.651 1275.67 687.395 1274.55 689.645C1273.42 691.895 1272.86 694.482 1272.86 697.406C1272.86 700.5 1273.76 702.947 1275.56 704.746C1277.41 706.546 1279.97 707.446 1283.24 707.446ZM1368.64 672.265L1359.61 717.654H1347.13L1348.05 712.761C1346.08 714.617 1343.83 716.023 1341.3 716.979C1338.77 717.879 1336.1 718.329 1333.29 718.329C1328.34 718.329 1324.37 716.979 1321.39 714.28C1318.47 711.58 1317.01 707.783 1317.01 702.89C1317.01 701.034 1317.2 699.206 1317.6 697.406L1322.57 672.265H1335.74L1330.93 696.563C1330.7 697.631 1330.59 698.728 1330.59 699.853C1330.59 704.578 1333.12 706.94 1338.18 706.94C1341.5 706.94 1344.23 705.984 1346.37 704.071C1348.56 702.103 1350.05 699.178 1350.84 695.297L1355.48 672.265H1368.64ZM1407.24 671.59C1412.3 671.59 1416.32 672.94 1419.3 675.64C1422.28 678.34 1423.77 682.164 1423.77 687.114C1423.77 688.914 1423.58 690.713 1423.18 692.513L1418.12 717.654H1404.96L1409.85 693.357C1410.08 692.401 1410.19 691.36 1410.19 690.235C1410.19 687.873 1409.54 686.073 1408.25 684.836C1406.96 683.599 1405.02 682.98 1402.43 682.98C1399.05 682.98 1396.24 683.964 1393.99 685.933C1391.8 687.845 1390.31 690.742 1389.52 694.622L1384.97 717.654H1371.8L1384.29 655.055H1397.45L1393.23 676.399C1397.11 673.193 1401.78 671.59 1407.24 671.59ZM1439.16 672.265H1452.24L1443.21 717.654H1430.14L1439.16 672.265ZM1447.94 665.938C1445.69 665.938 1443.83 665.291 1442.37 663.998C1440.96 662.648 1440.26 661.017 1440.26 659.104C1440.26 656.855 1441.05 654.999 1442.62 653.536C1444.25 652.018 1446.36 651.258 1448.95 651.258C1451.26 651.258 1453.11 651.905 1454.52 653.199C1455.98 654.436 1456.71 655.983 1456.71 657.839C1456.71 660.257 1455.9 662.226 1454.26 663.744C1452.63 665.207 1450.52 665.938 1447.94 665.938Z" fill="white"/>
<path d="M674.165 553.008H687.917L678.299 600.928H707.911L705.634 612.064H662.354L674.165 553.008ZM721.453 566.675H734.53L725.503 612.064H712.426L721.453 566.675ZM730.228 560.348C727.978 560.348 726.122 559.701 724.659 558.407C723.253 557.057 722.55 555.426 722.55 553.514C722.55 551.264 723.338 549.408 724.912 547.946C726.544 546.427 728.653 545.668 731.24 545.668C733.546 545.668 735.402 546.315 736.808 547.608C738.27 548.846 739.002 550.392 739.002 552.249C739.002 554.667 738.186 556.636 736.555 558.154C734.924 559.616 732.815 560.348 730.228 560.348ZM773.153 566C778.215 566 782.237 567.35 785.218 570.05C788.199 572.693 789.689 576.49 789.689 581.439C789.689 583.295 789.492 585.123 789.098 586.923L784.037 612.064H770.875L775.769 587.767C775.994 586.81 776.106 585.77 776.106 584.645C776.106 582.283 775.459 580.483 774.166 579.246C772.872 578.008 770.932 577.39 768.344 577.39C764.97 577.39 762.158 578.374 759.908 580.342C757.714 582.255 756.224 585.151 755.436 589.032L750.881 612.064H737.72L746.747 566.675H759.233L758.221 571.568C762.27 567.856 767.248 566 773.153 566ZM829.882 586.417L845.489 612.064H830.219L819.42 594.431L811.405 601.096L809.212 612.064H796.051L808.537 549.464H821.698L814.696 584.476L836.462 566.675H853.588L829.882 586.417ZM897.72 585.995C897.72 588.076 897.467 590.382 896.96 592.913H862.202C862.652 599.1 866.56 602.193 873.928 602.193C876.234 602.193 878.428 601.828 880.509 601.096C882.646 600.365 884.502 599.325 886.077 597.975L891.561 606.665C889.03 608.689 886.133 610.208 882.871 611.22C879.609 612.233 876.178 612.739 872.579 612.739C867.91 612.739 863.805 611.923 860.261 610.292C856.774 608.605 854.074 606.215 852.162 603.121C850.306 600.028 849.378 596.456 849.378 592.407C849.378 587.401 850.503 582.901 852.753 578.908C855.059 574.859 858.236 571.709 862.286 569.459C866.336 567.153 870.948 566 876.122 566C880.509 566 884.305 566.816 887.511 568.447C890.773 570.078 893.276 572.412 895.02 575.449C896.82 578.486 897.72 582.002 897.72 585.995ZM875.531 575.871C872.438 575.871 869.823 576.715 867.685 578.402C865.548 580.033 864.029 582.311 863.13 585.236H885.655C885.655 582.311 884.727 580.033 882.871 578.402C881.071 576.715 878.625 575.871 875.531 575.871ZM960.06 549.464L947.574 612.064H935.088L936.016 607.508C932.191 610.995 927.551 612.739 922.095 612.739C918.552 612.739 915.29 611.923 912.309 610.292C909.328 608.661 906.938 606.327 905.138 603.29C903.394 600.196 902.523 596.569 902.523 592.407C902.523 587.401 903.619 582.901 905.813 578.908C908.063 574.859 911.1 571.709 914.924 569.459C918.749 567.153 922.967 566 927.579 566C930.898 566 933.794 566.563 936.269 567.687C938.8 568.812 940.797 570.472 942.259 572.665L946.899 549.464H960.06ZM926.145 601.856C928.732 601.856 931.038 601.237 933.063 600C935.088 598.706 936.663 596.934 937.788 594.685C938.912 592.435 939.475 589.848 939.475 586.923C939.475 583.829 938.547 581.383 936.691 579.583C934.891 577.783 932.36 576.883 929.098 576.883C926.511 576.883 924.205 577.53 922.18 578.824C920.155 580.061 918.58 581.805 917.455 584.054C916.33 586.304 915.768 588.891 915.768 591.816C915.768 594.91 916.668 597.356 918.468 599.156C920.324 600.956 922.883 601.856 926.145 601.856ZM968.866 566.675H981.943L972.916 612.064H959.839L968.866 566.675ZM977.641 560.348C975.391 560.348 973.535 559.701 972.072 558.407C970.666 557.057 969.963 555.426 969.963 553.514C969.963 551.264 970.751 549.408 972.325 547.946C973.957 546.427 976.066 545.668 978.653 545.668C980.959 545.668 982.815 546.315 984.221 547.608C985.683 548.846 986.415 550.392 986.415 552.249C986.415 554.667 985.599 556.636 983.968 558.154C982.337 559.616 980.228 560.348 977.641 560.348ZM1020.57 566C1025.63 566 1029.65 567.35 1032.63 570.05C1035.61 572.693 1037.1 576.49 1037.1 581.439C1037.1 583.295 1036.91 585.123 1036.51 586.923L1031.45 612.064H1018.29L1023.18 587.767C1023.41 586.81 1023.52 585.77 1023.52 584.645C1023.52 582.283 1022.87 580.483 1021.58 579.246C1020.29 578.008 1018.34 577.39 1015.76 577.39C1012.38 577.39 1009.57 578.374 1007.32 580.342C1005.13 582.255 1003.64 585.151 1002.85 589.032L998.294 612.064H985.133L994.16 566.675H1006.65L1005.63 571.568C1009.68 567.856 1014.66 566 1020.57 566ZM1055.53 582.452C1053.28 582.452 1051.42 581.748 1049.96 580.342C1048.5 578.88 1047.77 577.052 1047.77 574.859C1047.77 572.271 1048.61 570.162 1050.3 568.531C1051.98 566.9 1054.07 566.085 1056.54 566.085C1058.79 566.085 1060.62 566.788 1062.02 568.194C1063.49 569.6 1064.22 571.428 1064.22 573.677C1064.22 576.208 1063.35 578.318 1061.6 580.005C1059.92 581.636 1057.89 582.452 1055.53 582.452ZM1049.45 612.739C1047.2 612.739 1045.35 612.036 1043.89 610.63C1042.42 609.167 1041.69 607.339 1041.69 605.146C1041.69 602.559 1042.54 600.45 1044.22 598.819C1045.91 597.187 1047.99 596.372 1050.47 596.372C1052.72 596.372 1054.54 597.075 1055.95 598.481C1057.41 599.887 1058.14 601.715 1058.14 603.965C1058.14 606.496 1057.27 608.605 1055.53 610.292C1053.84 611.923 1051.82 612.739 1049.45 612.739Z" fill="white"/>
<path d="M682.395 1064.01H654.892L647.215 1076.66H632.62L670.837 1017.6H684.336L698.847 1076.66H685.179L682.395 1064.01ZM680.118 1053.63L675.14 1030.85L661.22 1053.63H680.118ZM724.547 1036.67C726.515 1034.53 728.878 1032.99 731.633 1032.03C734.446 1031.08 737.736 1030.6 741.504 1030.6L739.142 1042.75C737.567 1042.63 736.555 1042.58 736.105 1042.58C732.112 1042.58 728.906 1043.56 726.487 1045.53C724.125 1047.5 722.522 1050.56 721.678 1054.73L717.291 1076.66H704.13L713.157 1031.27H725.644L724.547 1036.67ZM756.835 1077.34C752.897 1077.34 749.157 1076.91 745.614 1076.07C742.127 1075.17 739.399 1074.02 737.43 1072.61L742.492 1063.08C744.461 1064.37 746.851 1065.41 749.663 1066.2C752.532 1066.99 755.4 1067.38 758.269 1067.38C761.25 1067.38 763.471 1067.02 764.934 1066.28C766.396 1065.5 767.127 1064.4 767.127 1062.99C767.127 1061.87 766.48 1061.05 765.187 1060.55C763.893 1060.04 761.812 1059.51 758.944 1058.94C755.682 1058.33 752.982 1057.65 750.845 1056.92C748.763 1056.19 746.936 1055.01 745.361 1053.38C743.842 1051.69 743.083 1049.41 743.083 1046.54C743.083 1041.54 745.164 1037.63 749.326 1034.82C753.544 1032 759.056 1030.6 765.862 1030.6C769.011 1030.6 772.077 1030.93 775.058 1031.61C778.038 1032.28 780.569 1033.21 782.65 1034.39L777.926 1044.01C774.214 1041.71 769.742 1040.55 764.512 1040.55C761.643 1040.55 759.45 1040.97 757.931 1041.82C756.469 1042.66 755.738 1043.73 755.738 1045.02C755.738 1046.21 756.385 1047.08 757.678 1047.64C758.972 1048.15 761.137 1048.71 764.174 1049.33C767.38 1049.95 769.996 1050.62 772.02 1051.35C774.101 1052.03 775.901 1053.18 777.42 1054.81C778.938 1056.44 779.698 1058.66 779.698 1061.48C779.698 1066.54 777.56 1070.45 773.286 1073.2C769.068 1075.96 763.584 1077.34 756.835 1077.34ZM820.552 1030.6C825.614 1030.6 829.635 1031.95 832.616 1034.65C835.597 1037.35 837.088 1041.17 837.088 1046.12C837.088 1047.92 836.891 1049.72 836.497 1051.52L831.435 1076.66H818.274L823.167 1052.36C823.392 1051.41 823.505 1050.37 823.505 1049.24C823.505 1046.88 822.858 1045.08 821.564 1043.84C820.271 1042.61 818.33 1041.99 815.743 1041.99C812.368 1041.99 809.556 1042.97 807.306 1044.94C805.113 1046.85 803.622 1049.75 802.835 1053.63L798.279 1076.66H785.118L797.604 1014.06H810.765L806.547 1035.41C810.428 1032.2 815.096 1030.6 820.552 1030.6ZM899.035 1031.27L890.007 1076.66H877.521L878.365 1072.19C874.597 1075.62 869.956 1077.34 864.445 1077.34C860.901 1077.34 857.639 1076.52 854.658 1074.89C851.677 1073.26 849.287 1070.92 847.487 1067.89C845.743 1064.79 844.872 1061.17 844.872 1057C844.872 1052 845.968 1047.5 848.162 1043.51C850.412 1039.46 853.449 1036.31 857.273 1034.06C861.098 1031.75 865.316 1030.6 869.928 1030.6C876.903 1030.6 881.824 1032.88 884.692 1037.43L885.874 1031.27H899.035ZM868.494 1066.45C871.081 1066.45 873.387 1065.83 875.412 1064.6C877.437 1063.3 879.012 1061.53 880.137 1059.28C881.262 1057.03 881.824 1054.44 881.824 1051.52C881.824 1048.43 880.896 1045.98 879.04 1044.18C877.24 1042.38 874.709 1041.48 871.447 1041.48C868.86 1041.48 866.554 1042.13 864.529 1043.42C862.504 1044.66 860.929 1046.4 859.804 1048.65C858.68 1050.9 858.117 1053.49 858.117 1056.41C858.117 1059.51 859.017 1061.95 860.817 1063.75C862.673 1065.55 865.232 1066.45 868.494 1066.45ZM968.167 1030.6C973.116 1030.6 977.053 1031.95 979.978 1034.65C982.902 1037.29 984.365 1041.06 984.365 1045.95C984.365 1047.75 984.168 1049.61 983.774 1051.52L978.797 1076.66H965.636L970.444 1052.45C970.669 1051.32 970.782 1050.17 970.782 1048.99C970.782 1046.68 970.163 1044.94 968.926 1043.76C967.745 1042.58 965.973 1041.99 963.611 1041.99C957.255 1041.99 953.29 1045.78 951.715 1053.38L947.075 1076.66H933.914L938.723 1052.45C938.948 1051.32 939.06 1050.2 939.06 1049.07C939.06 1046.77 938.442 1045.02 937.204 1043.84C936.023 1042.61 934.251 1041.99 931.889 1041.99C925.534 1041.99 921.54 1045.84 919.909 1053.54L915.353 1076.66H902.192L911.22 1031.27H923.706L922.693 1036C926.63 1032.4 931.383 1030.6 936.951 1030.6C940.101 1030.6 942.885 1031.24 945.303 1032.54C947.778 1033.78 949.634 1035.6 950.872 1038.02C953.065 1035.6 955.624 1033.78 958.549 1032.54C961.474 1031.24 964.679 1030.6 968.167 1030.6ZM1031.11 1077.34C1027.17 1077.34 1023.43 1076.91 1019.89 1076.07C1016.4 1075.17 1013.67 1074.02 1011.7 1072.61L1016.76 1063.08C1018.73 1064.37 1021.12 1065.41 1023.94 1066.2C1026.8 1066.99 1029.67 1067.38 1032.54 1067.38C1035.52 1067.38 1037.74 1067.02 1039.21 1066.28C1040.67 1065.5 1041.4 1064.4 1041.4 1062.99C1041.4 1061.87 1040.75 1061.05 1039.46 1060.55C1038.16 1060.04 1036.08 1059.51 1033.22 1058.94C1029.95 1058.33 1027.25 1057.65 1025.12 1056.92C1023.04 1056.19 1021.21 1055.01 1019.63 1053.38C1018.11 1051.69 1017.35 1049.41 1017.35 1046.54C1017.35 1041.54 1019.44 1037.63 1023.6 1034.82C1027.82 1032 1033.33 1030.6 1040.13 1030.6C1043.28 1030.6 1046.35 1030.93 1049.33 1031.61C1052.31 1032.28 1054.84 1033.21 1056.92 1034.39L1052.2 1044.01C1048.49 1041.71 1044.01 1040.55 1038.78 1040.55C1035.92 1040.55 1033.72 1040.97 1032.2 1041.82C1030.74 1042.66 1030.01 1043.73 1030.01 1045.02C1030.01 1046.21 1030.66 1047.08 1031.95 1047.64C1033.24 1048.15 1035.41 1048.71 1038.45 1049.33C1041.65 1049.95 1044.27 1050.62 1046.29 1051.35C1048.37 1052.03 1050.17 1053.18 1051.69 1054.81C1053.21 1056.44 1053.97 1058.66 1053.97 1061.48C1053.97 1066.54 1051.83 1070.45 1047.56 1073.2C1043.34 1075.96 1037.86 1077.34 1031.11 1077.34ZM1094.82 1030.6C1099.89 1030.6 1103.91 1031.95 1106.89 1034.65C1109.87 1037.35 1111.36 1041.17 1111.36 1046.12C1111.36 1047.92 1111.16 1049.72 1110.77 1051.52L1105.71 1076.66H1092.55L1097.44 1052.36C1097.66 1051.41 1097.78 1050.37 1097.78 1049.24C1097.78 1046.88 1097.13 1045.08 1095.84 1043.84C1094.54 1042.61 1092.6 1041.99 1090.01 1041.99C1086.64 1041.99 1083.83 1042.97 1081.58 1044.94C1079.38 1046.85 1077.89 1049.75 1077.11 1053.63L1072.55 1076.66H1059.39L1071.88 1014.06H1085.04L1080.82 1035.41C1084.7 1032.2 1089.37 1030.6 1094.82 1030.6ZM1126.75 1031.27H1139.82L1130.8 1076.66H1117.72L1126.75 1031.27ZM1135.52 1024.94C1133.27 1024.94 1131.42 1024.3 1129.95 1023C1128.55 1021.65 1127.84 1020.02 1127.84 1018.11C1127.84 1015.86 1128.63 1014.01 1130.21 1012.54C1131.84 1011.02 1133.95 1010.27 1136.53 1010.27C1138.84 1010.27 1140.7 1010.91 1142.1 1012.21C1143.57 1013.44 1144.3 1014.99 1144.3 1016.85C1144.3 1019.26 1143.48 1021.23 1141.85 1022.75C1140.22 1024.21 1138.11 1024.94 1135.52 1024.94ZM1163.43 1036.67C1165.4 1034.53 1167.76 1032.99 1170.52 1032.03C1173.33 1031.08 1176.62 1030.6 1180.39 1030.6L1178.03 1042.75C1176.45 1042.63 1175.44 1042.58 1174.99 1042.58C1171 1042.58 1167.79 1043.56 1165.37 1045.53C1163.01 1047.5 1161.41 1050.56 1160.56 1054.73L1156.18 1076.66H1143.01L1152.04 1031.27H1164.53L1163.43 1036.67ZM1212.85 1051.01L1228.46 1076.66H1213.19L1202.39 1059.03L1194.37 1065.69L1192.18 1076.66H1179.02L1191.5 1014.06H1204.67L1197.66 1049.07L1219.43 1031.27H1236.56L1212.85 1051.01ZM1255.12 1077.34C1250.57 1077.34 1246.55 1076.49 1243.06 1074.81C1239.63 1073.12 1236.96 1070.76 1235.04 1067.72C1233.19 1064.62 1232.26 1061.05 1232.26 1057C1232.26 1052 1233.44 1047.5 1235.8 1043.51C1238.17 1039.51 1241.43 1036.36 1245.59 1034.06C1249.75 1031.75 1254.45 1030.6 1259.68 1030.6C1264.29 1030.6 1268.31 1031.44 1271.74 1033.13C1275.18 1034.82 1277.82 1037.21 1279.67 1040.3C1281.59 1043.34 1282.54 1046.88 1282.54 1050.93C1282.54 1055.94 1281.36 1060.43 1279 1064.43C1276.69 1068.42 1273.43 1071.57 1269.21 1073.88C1265.05 1076.18 1260.35 1077.34 1255.12 1077.34ZM1255.97 1066.45C1258.5 1066.45 1260.78 1065.83 1262.8 1064.6C1264.83 1063.3 1266.4 1061.53 1267.53 1059.28C1268.65 1057.03 1269.21 1054.44 1269.21 1051.52C1269.21 1048.43 1268.31 1045.98 1266.51 1044.18C1264.71 1042.38 1262.18 1041.48 1258.92 1041.48C1256.33 1041.48 1254.03 1042.13 1252 1043.42C1249.98 1044.66 1248.4 1046.4 1247.28 1048.65C1246.15 1050.9 1245.59 1053.49 1245.59 1056.41C1245.59 1059.51 1246.49 1061.95 1248.29 1063.75C1250.15 1065.55 1252.71 1066.45 1255.97 1066.45ZM1341.37 1031.27L1332.34 1076.66H1319.86L1320.79 1071.77C1318.82 1073.62 1316.57 1075.03 1314.04 1075.99C1311.51 1076.89 1308.83 1077.34 1306.02 1077.34C1301.07 1077.34 1297.11 1075.99 1294.13 1073.29C1291.2 1070.59 1289.74 1066.79 1289.74 1061.9C1289.74 1060.04 1289.94 1058.21 1290.33 1056.41L1295.31 1031.27H1308.47L1303.66 1055.57C1303.43 1056.64 1303.32 1057.74 1303.32 1058.86C1303.32 1063.58 1305.85 1065.95 1310.91 1065.95C1314.23 1065.95 1316.96 1064.99 1319.1 1063.08C1321.29 1061.11 1322.78 1058.18 1323.57 1054.3L1328.21 1031.27H1341.37ZM1379.97 1030.6C1385.03 1030.6 1389.05 1031.95 1392.03 1034.65C1395.02 1037.35 1396.51 1041.17 1396.51 1046.12C1396.51 1047.92 1396.31 1049.72 1395.92 1051.52L1390.85 1076.66H1377.69L1382.59 1052.36C1382.81 1051.41 1382.92 1050.37 1382.92 1049.24C1382.92 1046.88 1382.28 1045.08 1380.98 1043.84C1379.69 1042.61 1377.75 1041.99 1375.16 1041.99C1371.79 1041.99 1368.97 1042.97 1366.73 1044.94C1364.53 1046.85 1363.04 1049.75 1362.25 1053.63L1357.7 1076.66H1344.54L1357.02 1014.06H1370.18L1365.97 1035.41C1369.85 1032.2 1374.51 1030.6 1379.97 1030.6ZM1411.9 1031.27H1424.97L1415.94 1076.66H1402.87L1411.9 1031.27ZM1420.67 1024.94C1418.42 1024.94 1416.56 1024.3 1415.1 1023C1413.69 1021.65 1412.99 1020.02 1412.99 1018.11C1412.99 1015.86 1413.78 1014.01 1415.35 1012.54C1416.99 1011.02 1419.09 1010.27 1421.68 1010.27C1423.99 1010.27 1425.84 1010.91 1427.25 1012.21C1428.71 1013.44 1429.44 1014.99 1429.44 1016.85C1429.44 1019.26 1428.63 1021.23 1427 1022.75C1425.37 1024.21 1423.26 1024.94 1420.67 1024.94Z" fill="white"/>
<path d="M667.352 922.982L664.23 938.59H691.649L689.371 949.557H662.121L657.818 971.071H644.067L655.878 912.015H700.508L698.23 922.982H667.352ZM751.043 925.682L742.016 971.071H729.529L730.373 966.599C726.605 970.03 721.965 971.746 716.453 971.746C712.909 971.746 709.647 970.93 706.666 969.299C703.685 967.668 701.295 965.334 699.495 962.297C697.752 959.203 696.88 955.576 696.88 951.414C696.88 946.408 697.977 941.908 700.17 937.915C702.42 933.865 705.457 930.716 709.282 928.466C713.106 926.16 717.324 925.007 721.936 925.007C728.911 925.007 733.832 927.285 736.701 931.841L737.882 925.682H751.043ZM720.502 960.863C723.089 960.863 725.395 960.244 727.42 959.006C729.445 957.713 731.02 955.941 732.145 953.691C733.27 951.442 733.832 948.854 733.832 945.93C733.832 942.836 732.904 940.39 731.048 938.59C729.248 936.79 726.717 935.89 723.455 935.89C720.868 935.89 718.562 936.537 716.537 937.831C714.512 939.068 712.937 940.812 711.813 943.061C710.688 945.311 710.125 947.898 710.125 950.823C710.125 953.916 711.025 956.363 712.825 958.163C714.681 959.963 717.24 960.863 720.502 960.863ZM778.16 971.746C773.492 971.746 769.415 970.902 765.927 969.215C762.44 967.527 759.741 965.165 757.828 962.128C755.972 959.035 755.044 955.463 755.044 951.414C755.044 946.408 756.225 941.908 758.588 937.915C760.95 933.922 764.24 930.772 768.458 928.466C772.677 926.16 777.429 925.007 782.716 925.007C787.553 925.007 791.715 926.019 795.202 928.044C798.746 930.013 801.389 932.825 803.133 936.481L791.996 942.049C790.028 937.943 786.653 935.89 781.873 935.89C779.285 935.89 776.951 936.537 774.87 937.831C772.845 939.068 771.242 940.812 770.061 943.061C768.936 945.311 768.374 947.87 768.374 950.739C768.374 953.832 769.302 956.307 771.158 958.163C773.014 959.963 775.601 960.863 778.92 960.863C783.757 960.863 787.469 958.838 790.056 954.788L799.758 960.863C797.565 964.293 794.556 966.965 790.731 968.877C786.963 970.79 782.772 971.746 778.16 971.746ZM852.739 945.002C852.739 947.083 852.486 949.389 851.979 951.92H817.221C817.671 958.107 821.579 961.2 828.947 961.2C831.253 961.2 833.447 960.834 835.528 960.103C837.665 959.372 839.521 958.332 841.096 956.982L846.58 965.671C844.049 967.696 841.152 969.215 837.89 970.227C834.628 971.24 831.197 971.746 827.598 971.746C822.929 971.746 818.824 970.93 815.28 969.299C811.793 967.612 809.093 965.221 807.181 962.128C805.325 959.035 804.397 955.463 804.397 951.414C804.397 946.408 805.522 941.908 807.772 937.915C810.078 933.865 813.255 930.716 817.305 928.466C821.354 926.16 825.966 925.007 831.141 925.007C835.528 925.007 839.324 925.823 842.53 927.454C845.792 929.085 848.295 931.419 850.039 934.456C851.839 937.493 852.739 941.008 852.739 945.002ZM830.55 934.878C827.457 934.878 824.842 935.721 822.704 937.409C820.567 939.04 819.048 941.318 818.149 944.242H840.674C840.674 941.318 839.746 939.04 837.89 937.409C836.09 935.721 833.644 934.878 830.55 934.878ZM890.95 925.007C894.494 925.007 897.756 925.823 900.737 927.454C903.774 929.085 906.164 931.447 907.908 934.54C909.708 937.578 910.608 941.177 910.608 945.339C910.608 950.345 909.483 954.873 907.233 958.922C905.04 962.915 902.031 966.065 898.206 968.371C894.381 970.621 890.135 971.746 885.467 971.746C881.923 971.746 878.858 971.127 876.271 969.89C873.684 968.652 871.687 966.796 870.281 964.322L868.931 971.071H856.445L868.931 908.471H882.092L877.874 929.563C881.53 926.526 885.888 925.007 890.95 925.007ZM883.948 960.863C886.535 960.863 888.841 960.244 890.866 959.006C892.891 957.713 894.466 955.941 895.591 953.691C896.715 951.442 897.278 948.854 897.278 945.93C897.278 942.836 896.35 940.39 894.494 938.59C892.694 936.79 890.163 935.89 886.901 935.89C884.37 935.89 882.092 936.537 880.067 937.831C878.042 939.068 876.468 940.812 875.343 943.061C874.218 945.311 873.655 947.898 873.655 950.823C873.655 953.916 874.555 956.363 876.355 958.163C878.155 959.963 880.686 960.863 883.948 960.863ZM938.4 971.746C933.845 971.746 929.823 970.902 926.336 969.215C922.905 967.527 920.234 965.165 918.321 962.128C916.465 959.035 915.537 955.463 915.537 951.414C915.537 946.408 916.718 941.908 919.081 937.915C921.443 933.922 924.705 930.772 928.867 928.466C933.029 926.16 937.725 925.007 942.956 925.007C947.568 925.007 951.59 925.851 955.02 927.538C958.451 929.225 961.095 931.616 962.951 934.709C964.863 937.746 965.819 941.29 965.819 945.339C965.819 950.345 964.638 954.844 962.276 958.838C959.97 962.831 956.708 965.981 952.489 968.287C948.327 970.593 943.631 971.746 938.4 971.746ZM939.244 960.863C941.775 960.863 944.053 960.244 946.078 959.006C948.102 957.713 949.677 955.941 950.802 953.691C951.927 951.442 952.489 948.854 952.489 945.93C952.489 942.836 951.59 940.39 949.79 938.59C947.99 936.79 945.459 935.89 942.197 935.89C939.61 935.89 937.304 936.537 935.279 937.831C933.254 939.068 931.679 940.812 930.554 943.061C929.429 945.311 928.867 947.898 928.867 950.823C928.867 953.916 929.767 956.363 931.567 958.163C933.423 959.963 935.982 960.863 939.244 960.863ZM993.601 971.746C989.045 971.746 985.024 970.902 981.536 969.215C978.105 967.527 975.434 965.165 973.522 962.128C971.666 959.035 970.738 955.463 970.738 951.414C970.738 946.408 971.919 941.908 974.281 937.915C976.643 933.922 979.905 930.772 984.067 928.466C988.229 926.16 992.926 925.007 998.156 925.007C1002.77 925.007 1006.79 925.851 1010.22 927.538C1013.65 929.225 1016.3 931.616 1018.15 934.709C1020.06 937.746 1021.02 941.29 1021.02 945.339C1021.02 950.345 1019.84 954.844 1017.48 958.838C1015.17 962.831 1011.91 965.981 1007.69 968.287C1003.53 970.593 998.831 971.746 993.601 971.746ZM994.444 960.863C996.975 960.863 999.253 960.244 1001.28 959.006C1003.3 957.713 1004.88 955.941 1006 953.691C1007.13 951.442 1007.69 948.854 1007.69 945.93C1007.69 942.836 1006.79 940.39 1004.99 938.59C1003.19 936.79 1000.66 935.89 997.397 935.89C994.81 935.89 992.504 936.537 990.479 937.831C988.454 939.068 986.88 940.812 985.755 943.061C984.63 945.311 984.067 947.898 984.067 950.823C984.067 953.916 984.967 956.363 986.767 958.163C988.623 959.963 991.182 960.863 994.444 960.863ZM1058.92 945.424L1074.53 971.071H1059.26L1048.46 953.438L1040.45 960.103L1038.26 971.071H1025.09L1037.58 908.471H1050.74L1043.74 943.483L1065.51 925.682H1082.63L1058.92 945.424ZM1091.54 941.458C1089.29 941.458 1087.43 940.755 1085.97 939.349C1084.5 937.887 1083.77 936.059 1083.77 933.865C1083.77 931.278 1084.62 929.169 1086.3 927.538C1087.99 925.907 1090.07 925.091 1092.55 925.091C1094.8 925.091 1096.63 925.794 1098.03 927.201C1099.49 928.607 1100.22 930.435 1100.22 932.684C1100.22 935.215 1099.35 937.324 1097.61 939.012C1095.92 940.643 1093.9 941.458 1091.54 941.458ZM1085.46 971.746C1083.21 971.746 1081.35 971.043 1079.89 969.637C1078.43 968.174 1077.7 966.346 1077.7 964.153C1077.7 961.566 1078.54 959.456 1080.23 957.825C1081.92 956.194 1084 955.379 1086.47 955.379C1088.72 955.379 1090.55 956.082 1091.96 957.488C1093.42 958.894 1094.15 960.722 1094.15 962.972C1094.15 965.503 1093.28 967.612 1091.54 969.299C1089.85 970.93 1087.82 971.746 1085.46 971.746Z" fill="white"/>
<path d="M690.405 1390.28L681.378 1435.67H668.892L669.735 1431.2C665.967 1434.63 661.327 1436.34 655.815 1436.34C652.271 1436.34 649.009 1435.53 646.028 1433.9C643.047 1432.27 640.657 1429.93 638.857 1426.89C637.114 1423.8 636.242 1420.17 636.242 1416.01C636.242 1411.01 637.339 1406.51 639.532 1402.51C641.782 1398.46 644.819 1395.31 648.644 1393.06C652.468 1390.76 656.687 1389.6 661.299 1389.6C668.273 1389.6 673.194 1391.88 676.063 1396.44L677.244 1390.28H690.405ZM659.864 1425.46C662.452 1425.46 664.758 1424.84 666.782 1423.6C668.807 1422.31 670.382 1420.54 671.507 1418.29C672.632 1416.04 673.194 1413.45 673.194 1410.53C673.194 1407.43 672.266 1404.99 670.41 1403.19C668.61 1401.39 666.079 1400.49 662.817 1400.49C660.23 1400.49 657.924 1401.13 655.899 1402.43C653.874 1403.67 652.3 1405.41 651.175 1407.66C650.05 1409.91 649.487 1412.5 649.487 1415.42C649.487 1418.51 650.387 1420.96 652.187 1422.76C654.043 1424.56 656.602 1425.46 659.864 1425.46ZM713.979 1395.68C715.948 1393.54 718.31 1392 721.066 1391.04C723.878 1390.08 727.168 1389.6 730.937 1389.6L728.574 1401.75C727 1401.64 725.987 1401.58 725.537 1401.58C721.544 1401.58 718.338 1402.57 715.92 1404.54C713.557 1406.51 711.954 1409.57 711.111 1413.73L706.724 1435.67H693.563L702.59 1390.28H715.076L713.979 1395.68ZM746.267 1436.34C742.33 1436.34 738.59 1435.92 735.046 1435.08C731.559 1434.18 728.831 1433.02 726.863 1431.62L731.925 1422.09C733.893 1423.38 736.284 1424.42 739.096 1425.21C741.964 1425.99 744.833 1426.39 747.701 1426.39C750.682 1426.39 752.904 1426.02 754.366 1425.29C755.828 1424.5 756.56 1423.41 756.56 1422C756.56 1420.88 755.913 1420.06 754.619 1419.55C753.326 1419.05 751.245 1418.51 748.376 1417.95C745.114 1417.33 742.414 1416.66 740.277 1415.93C738.196 1415.2 736.368 1414.01 734.793 1412.38C733.275 1410.7 732.515 1408.42 732.515 1405.55C732.515 1400.54 734.596 1396.64 738.758 1393.82C742.977 1391.01 748.489 1389.6 755.294 1389.6C758.444 1389.6 761.509 1389.94 764.49 1390.62C767.471 1391.29 770.002 1392.22 772.083 1393.4L767.358 1403.02C763.646 1400.71 759.175 1399.56 753.944 1399.56C751.076 1399.56 748.882 1399.98 747.364 1400.83C745.901 1401.67 745.17 1402.74 745.17 1404.03C745.17 1405.21 745.817 1406.08 747.111 1406.65C748.404 1407.15 750.57 1407.72 753.607 1408.33C756.813 1408.95 759.428 1409.63 761.453 1410.36C763.534 1411.03 765.334 1412.19 766.852 1413.82C768.371 1415.45 769.13 1417.67 769.13 1420.48C769.13 1425.54 766.993 1429.45 762.718 1432.21C758.5 1434.97 753.016 1436.34 746.267 1436.34ZM809.984 1389.6C815.046 1389.6 819.068 1390.95 822.049 1393.65C825.03 1396.35 826.52 1400.18 826.52 1405.13C826.52 1406.93 826.323 1408.73 825.929 1410.53L820.868 1435.67H807.706L812.6 1411.37C812.825 1410.41 812.937 1409.37 812.937 1408.25C812.937 1405.89 812.29 1404.09 810.997 1402.85C809.703 1401.61 807.763 1400.99 805.175 1400.99C801.801 1400.99 798.989 1401.98 796.739 1403.95C794.545 1405.86 793.055 1408.76 792.267 1412.64L787.712 1435.67H774.551L787.037 1373.07H800.198L795.98 1394.41C799.86 1391.21 804.529 1389.6 809.984 1389.6ZM888.467 1390.28L879.44 1435.67H866.954L867.797 1431.2C864.029 1434.63 859.389 1436.34 853.877 1436.34C850.334 1436.34 847.071 1435.53 844.091 1433.9C841.11 1432.27 838.719 1429.93 836.919 1426.89C835.176 1423.8 834.304 1420.17 834.304 1416.01C834.304 1411.01 835.401 1406.51 837.594 1402.51C839.844 1398.46 842.881 1395.31 846.706 1393.06C850.53 1390.76 854.749 1389.6 859.361 1389.6C866.335 1389.6 871.256 1391.88 874.125 1396.44L875.306 1390.28H888.467ZM857.927 1425.46C860.514 1425.46 862.82 1424.84 864.845 1423.6C866.869 1422.31 868.444 1420.54 869.569 1418.29C870.694 1416.04 871.256 1413.45 871.256 1410.53C871.256 1407.43 870.328 1404.99 868.472 1403.19C866.673 1401.39 864.142 1400.49 860.879 1400.49C858.292 1400.49 855.986 1401.13 853.961 1402.43C851.937 1403.67 850.362 1405.41 849.237 1407.66C848.112 1409.91 847.55 1412.5 847.55 1415.42C847.55 1418.51 848.449 1420.96 850.249 1422.76C852.105 1424.56 854.664 1425.46 857.927 1425.46ZM957.599 1389.6C962.548 1389.6 966.486 1390.95 969.41 1393.65C972.335 1396.3 973.797 1400.07 973.797 1404.96C973.797 1406.76 973.6 1408.62 973.207 1410.53L968.229 1435.67H955.068L959.877 1411.46C960.102 1410.33 960.214 1409.18 960.214 1408C960.214 1405.69 959.596 1403.95 958.358 1402.77C957.177 1401.58 955.405 1400.99 953.043 1400.99C946.688 1400.99 942.722 1404.79 941.148 1412.38L936.508 1435.67H923.346L928.155 1411.46C928.38 1410.33 928.493 1409.21 928.493 1408.08C928.493 1405.77 927.874 1404.03 926.637 1402.85C925.456 1401.61 923.684 1400.99 921.322 1400.99C914.966 1400.99 910.973 1404.85 909.342 1412.55L904.786 1435.67H891.625L900.652 1390.28H913.138L912.126 1395C916.063 1391.4 920.815 1389.6 926.384 1389.6C929.533 1389.6 932.317 1390.25 934.736 1391.55C937.211 1392.78 939.067 1394.61 940.304 1397.03C942.497 1394.61 945.057 1392.78 947.981 1391.55C950.906 1390.25 954.112 1389.6 957.599 1389.6ZM973.951 1435.67H1016.13L1014.62 1443.26H972.433L973.951 1435.67ZM1039.65 1436.34C1035.72 1436.34 1031.98 1435.92 1028.43 1435.08C1024.94 1434.18 1022.22 1433.02 1020.25 1431.62L1025.31 1422.09C1027.28 1423.38 1029.67 1424.42 1032.48 1425.21C1035.35 1425.99 1038.22 1426.39 1041.09 1426.39C1044.07 1426.39 1046.29 1426.02 1047.75 1425.29C1049.21 1424.5 1049.95 1423.41 1049.95 1422C1049.95 1420.88 1049.3 1420.06 1048.01 1419.55C1046.71 1419.05 1044.63 1418.51 1041.76 1417.95C1038.5 1417.33 1035.8 1416.66 1033.66 1415.93C1031.58 1415.2 1029.75 1414.01 1028.18 1412.38C1026.66 1410.7 1025.9 1408.42 1025.9 1405.55C1025.9 1400.54 1027.98 1396.64 1032.14 1393.82C1036.36 1391.01 1041.87 1389.6 1048.68 1389.6C1051.83 1389.6 1054.89 1389.94 1057.88 1390.62C1060.86 1391.29 1063.39 1392.22 1065.47 1393.4L1060.74 1403.02C1057.03 1400.71 1052.56 1399.56 1047.33 1399.56C1044.46 1399.56 1042.27 1399.98 1040.75 1400.83C1039.29 1401.67 1038.56 1402.74 1038.56 1404.03C1038.56 1405.21 1039.2 1406.08 1040.5 1406.65C1041.79 1407.15 1043.96 1407.72 1046.99 1408.33C1050.2 1408.95 1052.81 1409.63 1054.84 1410.36C1056.92 1411.03 1058.72 1412.19 1060.24 1413.82C1061.76 1415.45 1062.52 1417.67 1062.52 1420.48C1062.52 1425.54 1060.38 1429.45 1056.1 1432.21C1051.89 1434.97 1046.4 1436.34 1039.65 1436.34ZM1103.37 1389.6C1108.43 1389.6 1112.45 1390.95 1115.43 1393.65C1118.42 1396.35 1119.91 1400.18 1119.91 1405.13C1119.91 1406.93 1119.71 1408.73 1119.32 1410.53L1114.25 1435.67H1101.09L1105.99 1411.37C1106.21 1410.41 1106.32 1409.37 1106.32 1408.25C1106.32 1405.89 1105.68 1404.09 1104.38 1402.85C1103.09 1401.61 1101.15 1400.99 1098.56 1400.99C1095.19 1400.99 1092.37 1401.98 1090.12 1403.95C1087.93 1405.86 1086.44 1408.76 1085.65 1412.64L1081.1 1435.67H1067.94L1080.42 1373.07H1093.58L1089.37 1394.41C1093.25 1391.21 1097.91 1389.6 1103.37 1389.6ZM1135.29 1390.28H1148.37L1139.34 1435.67H1126.27L1135.29 1390.28ZM1144.07 1383.95C1141.82 1383.95 1139.96 1383.31 1138.5 1382.01C1137.09 1380.66 1136.39 1379.03 1136.39 1377.12C1136.39 1374.87 1137.18 1373.01 1138.75 1371.55C1140.38 1370.03 1142.49 1369.27 1145.08 1369.27C1147.39 1369.27 1149.24 1369.92 1150.65 1371.21C1152.11 1372.45 1152.84 1374 1152.84 1375.85C1152.84 1378.27 1152.03 1380.24 1150.4 1381.76C1148.77 1383.22 1146.66 1383.95 1144.07 1383.95ZM1171.98 1395.68C1173.95 1393.54 1176.31 1392 1179.06 1391.04C1181.88 1390.08 1185.17 1389.6 1188.94 1389.6L1186.57 1401.75C1185 1401.64 1183.99 1401.58 1183.54 1401.58C1179.54 1401.58 1176.34 1402.57 1173.92 1404.54C1171.56 1406.51 1169.95 1409.57 1169.11 1413.73L1164.72 1435.67H1151.56L1160.59 1390.28H1173.07L1171.98 1395.68ZM1221.4 1410.02L1237 1435.67H1221.73L1210.93 1418.04L1202.92 1424.7L1200.73 1435.67H1187.56L1200.05 1373.07H1213.21L1206.21 1408.08L1227.98 1390.28H1245.1L1221.4 1410.02ZM1263.67 1436.34C1259.11 1436.34 1255.09 1435.5 1251.61 1433.81C1248.18 1432.13 1245.5 1429.76 1243.59 1426.73C1241.74 1423.63 1240.81 1420.06 1240.81 1416.01C1240.81 1411.01 1241.99 1406.51 1244.35 1402.51C1246.71 1398.52 1249.98 1395.37 1254.14 1393.06C1258.3 1390.76 1263 1389.6 1268.23 1389.6C1272.84 1389.6 1276.86 1390.45 1280.29 1392.14C1283.72 1393.82 1286.37 1396.21 1288.22 1399.31C1290.13 1402.34 1291.09 1405.89 1291.09 1409.94C1291.09 1414.94 1289.91 1419.44 1287.55 1423.44C1285.24 1427.43 1281.98 1430.58 1277.76 1432.88C1273.6 1435.19 1268.9 1436.34 1263.67 1436.34ZM1264.51 1425.46C1267.05 1425.46 1269.32 1424.84 1271.35 1423.6C1273.37 1422.31 1274.95 1420.54 1276.07 1418.29C1277.2 1416.04 1277.76 1413.45 1277.76 1410.53C1277.76 1407.43 1276.86 1404.99 1275.06 1403.19C1273.26 1401.39 1270.73 1400.49 1267.47 1400.49C1264.88 1400.49 1262.57 1401.13 1260.55 1402.43C1258.52 1403.67 1256.95 1405.41 1255.82 1407.66C1254.7 1409.91 1254.14 1412.5 1254.14 1415.42C1254.14 1418.51 1255.04 1420.96 1256.84 1422.76C1258.69 1424.56 1261.25 1425.46 1264.51 1425.46ZM1349.92 1390.28L1340.89 1435.67H1328.4L1329.33 1430.78C1327.36 1432.63 1325.11 1434.04 1322.58 1434.99C1320.05 1435.89 1317.38 1436.34 1314.57 1436.34C1309.62 1436.34 1305.65 1434.99 1302.67 1432.29C1299.75 1429.59 1298.29 1425.8 1298.29 1420.9C1298.29 1419.05 1298.48 1417.22 1298.88 1415.42L1303.85 1390.28H1317.02L1312.21 1414.58C1311.98 1415.65 1311.87 1416.74 1311.87 1417.87C1311.87 1422.59 1314.4 1424.95 1319.46 1424.95C1322.78 1424.95 1325.51 1424 1327.65 1422.09C1329.84 1420.12 1331.33 1417.19 1332.12 1413.31L1336.76 1390.28H1349.92ZM1388.52 1389.6C1393.58 1389.6 1397.6 1390.95 1400.58 1393.65C1403.56 1396.35 1405.05 1400.18 1405.05 1405.13C1405.05 1406.93 1404.86 1408.73 1404.46 1410.53L1399.4 1435.67H1386.24L1391.13 1411.37C1391.36 1410.41 1391.47 1409.37 1391.47 1408.25C1391.47 1405.89 1390.82 1404.09 1389.53 1402.85C1388.24 1401.61 1386.3 1400.99 1383.71 1400.99C1380.33 1400.99 1377.52 1401.98 1375.27 1403.95C1373.08 1405.86 1371.59 1408.76 1370.8 1412.64L1366.24 1435.67H1353.08L1365.57 1373.07H1378.73L1374.51 1394.41C1378.39 1391.21 1383.06 1389.6 1388.52 1389.6ZM1420.44 1390.28H1433.52L1424.49 1435.67H1411.41L1420.44 1390.28ZM1429.22 1383.95C1426.97 1383.95 1425.11 1383.31 1423.65 1382.01C1422.24 1380.66 1421.54 1379.03 1421.54 1377.12C1421.54 1374.87 1422.33 1373.01 1423.9 1371.55C1425.53 1370.03 1427.64 1369.27 1430.23 1369.27C1432.53 1369.27 1434.39 1369.92 1435.8 1371.21C1437.26 1372.45 1437.99 1374 1437.99 1375.85C1437.99 1378.27 1437.17 1380.24 1435.54 1381.76C1433.91 1383.22 1431.8 1383.95 1429.22 1383.95Z" fill="white"/>
<path d="M651.654 1271.02H665.406L653.595 1330.08H639.843L651.654 1271.02ZM702.116 1284.01C707.178 1284.01 711.199 1285.36 714.18 1288.06C717.161 1290.71 718.651 1294.5 718.651 1299.45C718.651 1301.31 718.455 1303.14 718.061 1304.94L712.999 1330.08H699.838L704.731 1305.78C704.956 1304.82 705.069 1303.78 705.069 1302.66C705.069 1300.3 704.422 1298.5 703.128 1297.26C701.834 1296.02 699.894 1295.4 697.307 1295.4C693.932 1295.4 691.12 1296.39 688.87 1298.36C686.677 1300.27 685.186 1303.17 684.399 1307.05L679.843 1330.08H666.682L675.709 1284.69H688.195L687.183 1289.58C691.232 1285.87 696.21 1284.01 702.116 1284.01ZM741.549 1330.75C737.612 1330.75 733.872 1330.33 730.328 1329.49C726.841 1328.59 724.113 1327.43 722.145 1326.03L727.207 1316.5C729.175 1317.79 731.566 1318.83 734.378 1319.62C737.246 1320.4 740.115 1320.8 742.983 1320.8C745.964 1320.8 748.186 1320.43 749.648 1319.7C751.11 1318.91 751.842 1317.82 751.842 1316.41C751.842 1315.29 751.195 1314.47 749.901 1313.96C748.607 1313.46 746.526 1312.92 743.658 1312.36C740.396 1311.74 737.696 1311.07 735.559 1310.34C733.478 1309.61 731.65 1308.42 730.075 1306.79C728.557 1305.11 727.797 1302.83 727.797 1299.96C727.797 1294.95 729.878 1291.04 734.04 1288.23C738.259 1285.42 743.77 1284.01 750.576 1284.01C753.726 1284.01 756.791 1284.35 759.772 1285.03C762.753 1285.7 765.284 1286.63 767.365 1287.81L762.64 1297.43C758.928 1295.12 754.457 1293.97 749.226 1293.97C746.358 1293.97 744.164 1294.39 742.646 1295.23C741.183 1296.08 740.452 1297.15 740.452 1298.44C740.452 1299.62 741.099 1300.49 742.393 1301.06C743.686 1301.56 745.852 1302.12 748.889 1302.74C752.095 1303.36 754.71 1304.04 756.735 1304.77C758.816 1305.44 760.616 1306.6 762.134 1308.23C763.653 1309.86 764.412 1312.08 764.412 1314.89C764.412 1319.95 762.275 1323.86 758 1326.62C753.782 1329.38 748.298 1330.75 741.549 1330.75ZM787.718 1314.05C787.606 1314.5 787.549 1315.12 787.549 1315.9C787.549 1318.83 789.152 1320.29 792.358 1320.29C794.102 1320.29 795.873 1319.76 797.673 1318.69L799.614 1328.05C796.689 1329.85 792.921 1330.75 788.309 1330.75C784.034 1330.75 780.603 1329.63 778.016 1327.38C775.429 1325.13 774.135 1322.04 774.135 1318.1C774.135 1316.97 774.276 1315.65 774.557 1314.13L778.185 1295.83H771.182L773.207 1285.7H780.21L782.403 1274.65H795.564L793.371 1285.7H804.676L802.651 1295.83H791.346L787.718 1314.05ZM860.186 1284.69L851.159 1330.08H838.673L839.516 1325.61C835.748 1329.04 831.108 1330.75 825.596 1330.75C822.052 1330.75 818.79 1329.94 815.809 1328.31C812.828 1326.68 810.438 1324.34 808.638 1321.3C806.895 1318.21 806.023 1314.58 806.023 1310.42C806.023 1305.42 807.12 1300.92 809.313 1296.92C811.563 1292.87 814.6 1289.72 818.425 1287.47C822.249 1285.17 826.468 1284.01 831.08 1284.01C838.054 1284.01 842.975 1286.29 845.844 1290.85L847.025 1284.69H860.186ZM829.645 1319.87C832.233 1319.87 834.539 1319.25 836.563 1318.01C838.588 1316.72 840.163 1314.95 841.288 1312.7C842.413 1310.45 842.975 1307.86 842.975 1304.94C842.975 1301.84 842.047 1299.4 840.191 1297.6C838.391 1295.8 835.86 1294.9 832.598 1294.9C830.011 1294.9 827.705 1295.54 825.68 1296.84C823.655 1298.08 822.081 1299.82 820.956 1302.07C819.831 1304.32 819.268 1306.91 819.268 1309.83C819.268 1312.92 820.168 1315.37 821.968 1317.17C823.824 1318.97 826.383 1319.87 829.645 1319.87ZM919.194 1284.69L911.685 1322.49C909.998 1331.03 906.736 1337.28 901.899 1341.21C897.118 1345.15 890.706 1347.12 882.663 1347.12C878.276 1347.12 874.227 1346.61 870.515 1345.6C866.859 1344.59 863.709 1343.1 861.066 1341.13L867.309 1331.6C869.109 1333.12 871.415 1334.3 874.227 1335.14C877.095 1336.04 880.104 1336.49 883.254 1336.49C887.697 1336.49 891.072 1335.51 893.378 1333.54C895.684 1331.62 897.259 1328.7 898.102 1324.76L898.44 1322.82C894.784 1326.2 890.172 1327.88 884.604 1327.88C880.835 1327.88 877.433 1327.13 874.396 1325.61C871.358 1324.03 868.94 1321.81 867.14 1318.94C865.397 1316.07 864.525 1312.7 864.525 1308.82C864.525 1304.21 865.621 1300.02 867.815 1296.25C870.009 1292.48 873.018 1289.5 876.842 1287.3C880.723 1285.11 885.054 1284.01 889.835 1284.01C893.378 1284.01 896.471 1284.69 899.115 1286.04C901.814 1287.33 903.839 1289.36 905.189 1292.11L906.623 1284.69H919.194ZM888.147 1317.09C891.972 1317.09 895.121 1315.85 897.596 1313.37C900.071 1310.9 901.308 1307.72 901.308 1303.84C901.308 1301.08 900.408 1298.92 898.609 1297.34C896.809 1295.71 894.306 1294.9 891.1 1294.9C887.219 1294.9 884.013 1296.13 881.482 1298.61C879.008 1301.08 877.77 1304.26 877.77 1308.14C877.77 1310.9 878.698 1313.09 880.554 1314.72C882.41 1316.3 884.941 1317.09 888.147 1317.09ZM942.833 1290.09C944.801 1287.95 947.164 1286.4 949.92 1285.45C952.732 1284.49 956.022 1284.01 959.79 1284.01L957.428 1296.16C955.853 1296.05 954.841 1295.99 954.391 1295.99C950.398 1295.99 947.192 1296.98 944.773 1298.95C942.411 1300.92 940.808 1303.98 939.964 1308.14L935.577 1330.08H922.416L931.443 1284.69H943.93L942.833 1290.09ZM1013.1 1284.69L1004.07 1330.08H991.586L992.429 1325.61C988.661 1329.04 984.021 1330.75 978.509 1330.75C974.966 1330.75 971.704 1329.94 968.723 1328.31C965.742 1326.68 963.351 1324.34 961.551 1321.3C959.808 1318.21 958.936 1314.58 958.936 1310.42C958.936 1305.42 960.033 1300.92 962.226 1296.92C964.476 1292.87 967.513 1289.72 971.338 1287.47C975.163 1285.17 979.381 1284.01 983.993 1284.01C990.967 1284.01 995.888 1286.29 998.757 1290.85L999.938 1284.69H1013.1ZM982.559 1319.87C985.146 1319.87 987.452 1319.25 989.477 1318.01C991.501 1316.72 993.076 1314.95 994.201 1312.7C995.326 1310.45 995.888 1307.86 995.888 1304.94C995.888 1301.84 994.96 1299.4 993.104 1297.6C991.305 1295.8 988.774 1294.9 985.511 1294.9C982.924 1294.9 980.618 1295.54 978.593 1296.84C976.569 1298.08 974.994 1299.82 973.869 1302.07C972.744 1304.32 972.182 1306.91 972.182 1309.83C972.182 1312.92 973.081 1315.37 974.881 1317.17C976.737 1318.97 979.296 1319.87 982.559 1319.87ZM1082.23 1284.01C1087.18 1284.01 1091.12 1285.36 1094.04 1288.06C1096.97 1290.71 1098.43 1294.48 1098.43 1299.37C1098.43 1301.17 1098.23 1303.02 1097.84 1304.94L1092.86 1330.08H1079.7L1084.51 1305.87C1084.73 1304.74 1084.85 1303.59 1084.85 1302.41C1084.85 1300.1 1084.23 1298.36 1082.99 1297.18C1081.81 1295.99 1080.04 1295.4 1077.68 1295.4C1071.32 1295.4 1067.35 1299.2 1065.78 1306.79L1061.14 1330.08H1047.98L1052.79 1305.87C1053.01 1304.74 1053.12 1303.62 1053.12 1302.49C1053.12 1300.18 1052.51 1298.44 1051.27 1297.26C1050.09 1296.02 1048.32 1295.4 1045.95 1295.4C1039.6 1295.4 1035.6 1299.26 1033.97 1306.96L1029.42 1330.08H1016.26L1025.28 1284.69H1037.77L1036.76 1289.41C1040.69 1285.81 1045.45 1284.01 1051.02 1284.01C1054.17 1284.01 1056.95 1284.66 1059.37 1285.95C1061.84 1287.19 1063.7 1289.02 1064.94 1291.44C1067.13 1289.02 1069.69 1287.19 1072.61 1285.95C1075.54 1284.66 1078.74 1284.01 1082.23 1284.01ZM1116.81 1300.47C1114.56 1300.47 1112.7 1299.76 1111.24 1298.36C1109.78 1296.89 1109.04 1295.07 1109.04 1292.87C1109.04 1290.29 1109.89 1288.18 1111.58 1286.55C1113.26 1284.91 1115.34 1284.1 1117.82 1284.1C1120.07 1284.1 1121.9 1284.8 1123.3 1286.21C1124.77 1287.61 1125.5 1289.44 1125.5 1291.69C1125.5 1294.22 1124.62 1296.33 1122.88 1298.02C1121.19 1299.65 1119.17 1300.47 1116.81 1300.47ZM1110.73 1330.75C1108.48 1330.75 1106.63 1330.05 1105.16 1328.64C1103.7 1327.18 1102.97 1325.35 1102.97 1323.16C1102.97 1320.57 1103.81 1318.46 1105.5 1316.83C1107.19 1315.2 1109.27 1314.39 1111.74 1314.39C1113.99 1314.39 1115.82 1315.09 1117.23 1316.5C1118.69 1317.9 1119.42 1319.73 1119.42 1321.98C1119.42 1324.51 1118.55 1326.62 1116.81 1328.31C1115.12 1329.94 1113.09 1330.75 1110.73 1330.75Z" fill="white"/>
<path d="M662.952 1749.29L653.925 1794.68H641.438L642.282 1790.2C638.514 1793.64 633.874 1795.35 628.362 1795.35C624.818 1795.35 621.556 1794.54 618.575 1792.9C615.594 1791.27 613.204 1788.94 611.404 1785.9C609.661 1782.81 608.789 1779.18 608.789 1775.02C608.789 1770.01 609.886 1765.51 612.079 1761.52C614.329 1757.47 617.366 1754.32 621.191 1752.07C625.015 1749.76 629.233 1748.61 633.845 1748.61C640.82 1748.61 645.741 1750.89 648.61 1755.45L649.791 1749.29H662.952ZM632.411 1784.47C634.998 1784.47 637.304 1783.85 639.329 1782.61C641.354 1781.32 642.929 1779.55 644.054 1777.3C645.179 1775.05 645.741 1772.46 645.741 1769.53C645.741 1766.44 644.813 1763.99 642.957 1762.19C641.157 1760.4 638.626 1759.5 635.364 1759.5C632.777 1759.5 630.471 1760.14 628.446 1761.44C626.421 1762.67 624.846 1764.42 623.722 1766.67C622.597 1768.92 622.034 1771.5 622.034 1774.43C622.034 1777.52 622.934 1779.97 624.734 1781.77C626.59 1783.57 629.149 1784.47 632.411 1784.47ZM686.526 1754.69C688.495 1752.55 690.857 1751 693.613 1750.05C696.425 1749.09 699.715 1748.61 703.484 1748.61L701.121 1760.76C699.547 1760.65 698.534 1760.59 698.084 1760.59C694.091 1760.59 690.885 1761.58 688.466 1763.54C686.104 1765.51 684.501 1768.58 683.658 1772.74L679.271 1794.68H666.11L675.137 1749.29H687.623L686.526 1754.69ZM718.814 1795.35C714.877 1795.35 711.137 1794.93 707.593 1794.09C704.106 1793.19 701.378 1792.03 699.41 1790.63L704.472 1781.09C706.44 1782.39 708.831 1783.43 711.643 1784.21C714.511 1785 717.38 1785.4 720.248 1785.4C723.229 1785.4 725.451 1785.03 726.913 1784.3C728.375 1783.51 729.106 1782.41 729.106 1781.01C729.106 1779.88 728.46 1779.07 727.166 1778.56C725.872 1778.06 723.791 1777.52 720.923 1776.96C717.661 1776.34 714.961 1775.67 712.824 1774.93C710.743 1774.2 708.915 1773.02 707.34 1771.39C705.821 1769.7 705.062 1767.43 705.062 1764.56C705.062 1759.55 707.143 1755.64 711.305 1752.83C715.524 1750.02 721.035 1748.61 727.841 1748.61C730.991 1748.61 734.056 1748.95 737.037 1749.62C740.018 1750.3 742.549 1751.23 744.63 1752.41L739.905 1762.03C736.193 1759.72 731.722 1758.57 726.491 1758.57C723.623 1758.57 721.429 1758.99 719.911 1759.83C718.448 1760.68 717.717 1761.74 717.717 1763.04C717.717 1764.22 718.364 1765.09 719.657 1765.65C720.951 1766.16 723.116 1766.72 726.154 1767.34C729.36 1767.96 731.975 1768.63 734 1769.37C736.081 1770.04 737.881 1771.19 739.399 1772.83C740.918 1774.46 741.677 1776.68 741.677 1779.49C741.677 1784.55 739.54 1788.46 735.265 1791.22C731.047 1793.97 725.563 1795.35 718.814 1795.35ZM782.531 1748.61C787.593 1748.61 791.615 1749.96 794.596 1752.66C797.576 1755.36 799.067 1759.19 799.067 1764.14C799.067 1765.94 798.87 1767.73 798.476 1769.53L793.414 1794.68H780.253L785.147 1770.38C785.372 1769.42 785.484 1768.38 785.484 1767.26C785.484 1764.89 784.837 1763.09 783.544 1761.86C782.25 1760.62 780.31 1760 777.722 1760C774.348 1760 771.536 1760.99 769.286 1762.95C767.092 1764.87 765.602 1767.76 764.814 1771.64L760.259 1794.68H747.098L759.584 1732.08H772.745L768.526 1753.42C772.407 1750.21 777.076 1748.61 782.531 1748.61ZM861.014 1749.29L851.987 1794.68H839.501L840.344 1790.2C836.576 1793.64 831.936 1795.35 826.424 1795.35C822.881 1795.35 819.618 1794.54 816.637 1792.9C813.657 1791.27 811.266 1788.94 809.466 1785.9C807.723 1782.81 806.851 1779.18 806.851 1775.02C806.851 1770.01 807.948 1765.51 810.141 1761.52C812.391 1757.47 815.428 1754.32 819.253 1752.07C823.077 1749.76 827.296 1748.61 831.908 1748.61C838.882 1748.61 843.803 1750.89 846.672 1755.45L847.853 1749.29H861.014ZM830.473 1784.47C833.061 1784.47 835.367 1783.85 837.391 1782.61C839.416 1781.32 840.991 1779.55 842.116 1777.3C843.241 1775.05 843.803 1772.46 843.803 1769.53C843.803 1766.44 842.875 1763.99 841.019 1762.19C839.219 1760.4 836.688 1759.5 833.426 1759.5C830.839 1759.5 828.533 1760.14 826.508 1761.44C824.483 1762.67 822.909 1764.42 821.784 1766.67C820.659 1768.92 820.096 1771.5 820.096 1774.43C820.096 1777.52 820.996 1779.97 822.796 1781.77C824.652 1783.57 827.211 1784.47 830.473 1784.47ZM930.146 1748.61C935.095 1748.61 939.032 1749.96 941.957 1752.66C944.882 1755.31 946.344 1759.07 946.344 1763.97C946.344 1765.77 946.147 1767.62 945.754 1769.53L940.776 1794.68H927.615L932.424 1770.46C932.649 1769.34 932.761 1768.18 932.761 1767C932.761 1764.7 932.143 1762.95 930.905 1761.77C929.724 1760.59 927.952 1760 925.59 1760C919.235 1760 915.269 1763.8 913.695 1771.39L909.054 1794.68H895.893L900.702 1770.46C900.927 1769.34 901.04 1768.21 901.04 1767.09C901.04 1764.78 900.421 1763.04 899.184 1761.86C898.002 1760.62 896.231 1760 893.869 1760C887.513 1760 883.52 1763.85 881.889 1771.56L877.333 1794.68H864.172L873.199 1749.29H885.685L884.673 1754.01C888.61 1750.41 893.362 1748.61 898.93 1748.61C902.08 1748.61 904.864 1749.26 907.283 1750.55C909.757 1751.79 911.613 1753.62 912.851 1756.04C915.044 1753.62 917.603 1751.79 920.528 1750.55C923.453 1749.26 926.659 1748.61 930.146 1748.61ZM982.813 1735.62L971.002 1794.68H957.335L966.952 1746.59H955.141L957.335 1735.62H982.813ZM1007.75 1795.69C1001.17 1795.69 995.969 1793.72 992.144 1789.78C988.32 1785.79 986.407 1780.31 986.407 1773.33C986.407 1766.24 987.701 1759.75 990.288 1753.84C992.932 1747.94 996.588 1743.27 1001.26 1739.84C1005.92 1736.35 1011.24 1734.61 1017.2 1734.61C1023.78 1734.61 1028.98 1736.6 1032.81 1740.6C1036.63 1744.53 1038.55 1749.99 1038.55 1756.96C1038.55 1764.05 1037.22 1770.55 1034.58 1776.45C1031.99 1782.36 1028.37 1787.05 1023.7 1790.54C1019.03 1793.97 1013.71 1795.69 1007.75 1795.69ZM1009.02 1784.13C1012.28 1784.13 1015.09 1782.72 1017.45 1779.91C1019.87 1777.1 1021.7 1773.61 1022.94 1769.45C1024.18 1765.23 1024.79 1761.18 1024.79 1757.3C1024.79 1753.53 1024.01 1750.75 1022.43 1748.95C1020.91 1747.09 1018.75 1746.17 1015.94 1746.17C1012.67 1746.17 1009.83 1747.57 1007.41 1750.38C1005.05 1753.2 1003.25 1756.71 1002.02 1760.93C1000.78 1765.09 1000.16 1769.11 1000.16 1772.99C1000.16 1776.76 1000.92 1779.57 1002.44 1781.43C1004.01 1783.23 1006.21 1784.13 1009.02 1784.13Z" fill="white"/>
<path d="M658.454 1658.63H670.94L666.047 1682.93C663.066 1685.23 659.607 1687 655.67 1688.24C651.733 1689.48 647.655 1690.1 643.437 1690.1C637.531 1690.1 632.385 1689.03 627.998 1686.89C623.611 1684.75 620.208 1681.75 617.789 1677.86C615.427 1673.98 614.246 1669.51 614.246 1664.45C614.246 1657.76 615.793 1651.71 618.886 1646.31C621.98 1640.91 626.338 1636.69 631.963 1633.66C637.587 1630.56 644.055 1629.02 651.367 1629.02C656.991 1629.02 661.857 1629.89 665.962 1631.63C670.124 1633.38 673.471 1635.93 676.002 1639.31L666.215 1647.24C664.247 1644.93 662.025 1643.27 659.551 1642.26C657.076 1641.19 654.151 1640.66 650.776 1640.66C646.277 1640.66 642.312 1641.67 638.881 1643.7C635.45 1645.67 632.778 1648.39 630.866 1651.88C629.01 1655.37 628.082 1659.28 628.082 1663.61C628.082 1668.16 629.544 1671.79 632.469 1674.49C635.45 1677.13 639.696 1678.46 645.208 1678.46C648.695 1678.46 651.958 1677.75 654.995 1676.35L658.454 1658.63ZM685.66 1643.7H698.737L689.71 1689.09H676.633L685.66 1643.7ZM694.435 1637.37C692.185 1637.37 690.329 1636.72 688.866 1635.43C687.46 1634.08 686.757 1632.45 686.757 1630.54C686.757 1628.29 687.545 1626.43 689.119 1624.97C690.751 1623.45 692.86 1622.69 695.447 1622.69C697.753 1622.69 699.609 1623.34 701.015 1624.63C702.477 1625.87 703.209 1627.41 703.209 1629.27C703.209 1631.69 702.393 1633.66 700.762 1635.18C699.131 1636.64 697.022 1637.37 694.435 1637.37ZM719.812 1673.06C719.7 1673.51 719.643 1674.12 719.643 1674.91C719.643 1677.84 721.246 1679.3 724.452 1679.3C726.196 1679.3 727.968 1678.76 729.767 1677.7L731.708 1687.06C728.783 1688.86 725.015 1689.76 720.403 1689.76C716.128 1689.76 712.697 1688.64 710.11 1686.39C707.523 1684.14 706.229 1681.04 706.229 1677.11C706.229 1675.98 706.37 1674.66 706.651 1673.14L710.279 1654.83H703.276L705.301 1644.71H712.304L714.497 1633.66H727.658L725.465 1644.71H736.77L734.745 1654.83H723.44L719.812 1673.06ZM774.023 1643.02C779.085 1643.02 783.107 1644.37 786.088 1647.07C789.068 1649.77 790.559 1653.6 790.559 1658.54C790.559 1660.34 790.362 1662.14 789.968 1663.94L784.906 1689.09H771.745L776.639 1664.79C776.864 1663.83 776.976 1662.79 776.976 1661.67C776.976 1659.3 776.329 1657.5 775.036 1656.27C773.742 1655.03 771.802 1654.41 769.214 1654.41C765.84 1654.41 763.028 1655.4 760.778 1657.36C758.584 1659.28 757.094 1662.17 756.306 1666.05L751.751 1689.09H738.59L751.076 1626.49H764.237L760.018 1647.83C763.899 1644.62 768.568 1643.02 774.023 1643.02ZM851.674 1643.7L842.647 1689.09H830.161L831.089 1684.19C829.12 1686.05 826.871 1687.45 824.34 1688.41C821.809 1689.31 819.137 1689.76 816.325 1689.76C811.375 1689.76 807.41 1688.41 804.429 1685.71C801.505 1683.01 800.042 1679.21 800.042 1674.32C800.042 1672.47 800.239 1670.64 800.633 1668.84L805.61 1643.7H818.771L813.963 1667.99C813.738 1669.06 813.625 1670.16 813.625 1671.28C813.625 1676.01 816.156 1678.37 821.218 1678.37C824.536 1678.37 827.264 1677.41 829.402 1675.5C831.595 1673.53 833.086 1670.61 833.873 1666.73L838.513 1643.7H851.674ZM889.346 1643.02C892.889 1643.02 896.151 1643.84 899.132 1645.47C902.169 1647.1 904.56 1649.46 906.303 1652.55C908.103 1655.59 909.003 1659.19 909.003 1663.35C909.003 1668.36 907.878 1672.89 905.628 1676.94C903.435 1680.93 900.426 1684.08 896.601 1686.39C892.776 1688.64 888.53 1689.76 883.862 1689.76C880.318 1689.76 877.253 1689.14 874.666 1687.9C872.079 1686.67 870.082 1684.81 868.676 1682.34L867.326 1689.09H854.84L867.326 1626.49H880.487L876.269 1647.58C879.925 1644.54 884.284 1643.02 889.346 1643.02ZM882.343 1678.88C884.93 1678.88 887.236 1678.26 889.261 1677.02C891.286 1675.73 892.861 1673.96 893.986 1671.71C895.111 1669.46 895.673 1666.87 895.673 1663.94C895.673 1660.85 894.745 1658.4 892.889 1656.6C891.089 1654.8 888.558 1653.9 885.296 1653.9C882.765 1653.9 880.487 1654.55 878.462 1655.85C876.438 1657.08 874.863 1658.83 873.738 1661.08C872.613 1663.33 872.051 1665.91 872.051 1668.84C872.051 1671.93 872.95 1674.38 874.75 1676.18C876.55 1677.98 879.081 1678.88 882.343 1678.88ZM925.153 1659.47C922.903 1659.47 921.047 1658.77 919.585 1657.36C918.122 1655.9 917.391 1654.07 917.391 1651.88C917.391 1649.29 918.235 1647.18 919.922 1645.55C921.61 1643.92 923.691 1643.11 926.165 1643.11C928.415 1643.11 930.243 1643.81 931.649 1645.22C933.111 1646.62 933.843 1648.45 933.843 1650.7C933.843 1653.23 932.971 1655.34 931.227 1657.03C929.54 1658.66 927.515 1659.47 925.153 1659.47ZM919.079 1689.76C916.829 1689.76 914.973 1689.06 913.51 1687.65C912.048 1686.19 911.317 1684.36 911.317 1682.17C911.317 1679.58 912.161 1677.47 913.848 1675.84C915.535 1674.21 917.616 1673.39 920.091 1673.39C922.341 1673.39 924.169 1674.1 925.575 1675.5C927.037 1676.91 927.768 1678.74 927.768 1680.99C927.768 1683.52 926.896 1685.63 925.153 1687.31C923.466 1688.94 921.441 1689.76 919.079 1689.76Z" fill="white"/>
<path d="M437.044 171.382L439.037 166.632L441.029 161.883L516.003 193.337L590.977 224.792L588.984 229.541L586.991 234.291L581.041 231.795C575.97 229.667 574.95 229.634 574.136 231.575C573.611 232.826 572.398 233.841 571.441 233.829C570.106 233.812 569.978 234.243 570.89 235.681C572.7 238.535 567.63 240.133 562.969 238.177C557.781 236.001 554.817 237.593 552.127 244.003L549.85 249.43L543.9 246.934L537.95 244.437L535.459 250.375L532.968 256.312L527.018 253.815L521.067 251.319L518.577 257.256L516.086 263.193L510.135 260.697L504.185 258.2L501.196 265.325L498.207 272.449L505.347 275.445L512.488 278.441L514.979 272.504L517.469 266.566L523.42 269.063L529.37 271.559L531.861 265.622L534.352 259.685L540.302 262.181L546.252 264.678L549.241 257.553L552.23 250.429L557.67 252.711C561.165 254.177 564.119 254.583 565.93 253.845C567.98 253.009 568.402 252.393 567.477 251.585C566.778 250.973 566.86 248.916 567.66 247.011C569.071 243.646 569.283 243.619 575.063 246.044L581.013 248.54L565.57 285.35L550.127 322.16L476.854 291.419C414.936 265.442 403.426 260.305 402.592 258.268C401.781 256.294 404.136 249.82 415.623 222.441C431.169 185.385 431.015 185.61 438.717 188.841L442.966 190.624L440.476 196.561L437.985 202.498L442.235 204.281C447.476 206.48 448.944 209.735 446.896 214.615C444.849 219.496 446.317 222.751 451.558 224.95C455.638 226.661 455.737 226.903 454.029 230.973C451.835 236.202 453.075 239.551 457.967 241.603C462.858 243.655 464.098 247.003 461.904 252.232L460.125 256.472L466.076 258.969L472.026 261.465L469.535 267.402L467.044 273.339L480.135 278.832L493.225 284.324L495.503 278.896C498.79 271.059 497.686 269.438 485.602 264.368L475.402 260.089L477.181 255.849C479.565 250.166 478.125 247.267 471.543 244.506L466.103 242.223L468.594 236.286L471.085 230.349L465.135 227.853L459.184 225.356L461.675 219.419L464.166 213.482L458.216 210.986L452.265 208.49L454.543 203.062C457.298 196.494 456.288 193.42 450.593 191.031L446.343 189.248L448.834 183.311L451.325 177.374L444.184 174.378L437.044 171.382Z" fill="#F8CC14"/>
<path fill-rule="evenodd" clip-rule="evenodd" d="M401.608 586.787L402.251 589.187L399.851 589.831L397.45 590.474L418.033 667.288L438.615 744.103L441.016 743.46L443.416 742.817L444.059 745.217L444.703 747.618L521.517 727.035L598.332 706.453L597.689 704.052L597.046 701.652L599.446 701.009L601.847 700.366L581.264 623.551L560.682 546.736L558.281 547.379L555.881 548.022L555.238 545.622L554.594 543.222L477.78 563.804L400.965 584.386L401.608 586.787ZM451.892 601.614L453.178 606.415L455.579 605.772L457.979 605.129L458.622 607.529L459.265 609.93L456.865 610.573L454.464 611.216L455.751 616.017L457.037 620.818L452.236 622.104L447.435 623.391L448.079 625.791L448.722 628.192L446.321 628.835L443.921 629.478L443.278 627.078L442.635 624.677L437.834 625.964L433.033 627.25L430.46 617.648L427.887 608.046L430.288 607.403L432.688 606.76L432.045 604.359L431.402 601.959L441.003 599.386L450.605 596.813L451.892 601.614ZM527.466 614.811L528.109 617.211L535.311 615.282L542.512 613.352L543.155 615.752L543.799 618.153L546.199 617.51L548.599 616.866L549.886 621.667L551.172 626.468L553.573 625.825L555.973 625.182L564.335 656.388L572.696 687.594L560.694 690.81L548.692 694.026L541.617 667.621L534.541 641.216L532.141 641.859L529.74 642.502L529.097 640.102L528.454 637.701L518.852 640.274L509.25 642.847L510.537 647.648L511.823 652.449L509.423 653.092L507.022 653.735L513.454 677.74L519.886 701.744L507.884 704.96L495.882 708.176L485.59 669.769L475.299 631.362L487.302 628.146L499.304 624.93L500.59 629.73L501.877 634.531L504.277 633.888L506.678 633.245L506.034 630.845L505.391 628.444L507.792 627.801L510.192 627.158L509.549 624.757L508.906 622.357L513.707 621.07L518.508 619.784L517.864 617.383L517.221 614.983L522.022 613.697L526.823 612.41L527.466 614.811ZM471.188 673.628L481.479 712.035L469.477 715.251L457.474 718.468L447.183 680.06L436.892 641.653L448.894 638.437L460.896 635.221L471.188 673.628Z" fill="#F8CC14"/>
</svg>
