<svg width="2063" height="2021" viewBox="0 0 2063 2021" fill="none" xmlns="http://www.w3.org/2000/svg">
<path d="M262.177 337.639V67.5781L136.736 215.1L262.177 362.622V337.639Z" fill="#007AE0"/>
<path d="M262.177 864.673V594.612L136.736 742.134L262.177 889.657V864.673Z" fill="#007AE0"/>
<path d="M263.19 558.691V401.882L190.354 487.54L263.19 573.198V558.691Z" fill="#007AE0"/>
<path d="M164.051 449.24V292.43L236.888 378.088L164.051 463.746V449.24Z" fill="#007AE0"/>
<path d="M129.655 484.412V244.842L18.377 375.709L129.655 506.575V484.412Z" fill="#007AE0"/>
<path d="M92.1793 749.478L236.225 580.077H78.8535V765.15L92.1793 749.478Z" fill="#007AE0"/>
<path d="M259.922 2021H1780.42V265.588V0H1460.62H259.922V2021Z" fill="#007AE0"/>
<path fill-rule="evenodd" clip-rule="evenodd" d="M409.848 1317.01L410.886 1321.12L406.607 1322.2L402.329 1323.28L403.411 1327.56L404.492 1331.84L400.385 1332.88L396.278 1333.92L405.75 1371.39L415.222 1408.87L419.329 1407.83L423.436 1406.79L424.518 1411.07L425.599 1415.35L429.877 1414.27L434.155 1413.19L435.193 1417.29L436.231 1421.4L507.078 1403.5L577.925 1385.59L576.887 1381.48L575.849 1377.38L580.127 1376.29L584.406 1375.21L583.324 1370.93L582.243 1366.66L586.35 1365.62L590.457 1364.58L580.985 1327.1L571.513 1289.63L567.406 1290.66L563.299 1291.7L562.217 1287.42L561.136 1283.15L556.858 1284.23L552.58 1285.31L551.542 1281.2L550.503 1277.09L479.657 1295L408.81 1312.91L409.848 1317.01ZM474.688 1327.21L475.726 1331.31L483.867 1329.26C490.694 1327.53 492.057 1327.23 492.314 1327.38C492.562 1327.53 492.814 1328.33 493.64 1331.6L494.659 1335.63L498.766 1334.59L502.873 1333.56L503.912 1337.66L504.95 1341.77L509.057 1340.73L513.164 1339.69L514.245 1343.97L515.326 1348.25L511.219 1349.29L507.112 1350.33L508.15 1354.43L509.188 1358.54L505.081 1359.58L500.974 1360.62L501.994 1364.65C502.82 1367.92 502.979 1368.74 502.83 1368.99C502.677 1369.25 501.334 1369.63 494.507 1371.35L486.366 1373.41L487.404 1377.52L488.442 1381.63L484.164 1382.71L479.886 1383.79L472.49 1354.52L465.094 1325.26L469.372 1324.18L473.65 1323.1L474.688 1327.21Z" fill="#F8CC14"/>
<path fill-rule="evenodd" clip-rule="evenodd" d="M499.857 1633.28L499.186 1635.98L493.568 1634.59L487.95 1633.2L487.278 1635.91L486.607 1638.62L483.798 1637.92L480.989 1637.22L480.317 1639.93L479.646 1642.64L476.837 1641.94L474.028 1641.25L473.356 1643.96L472.685 1646.66L469.876 1645.97L467.067 1645.27L466.395 1647.98L465.724 1650.69L462.915 1649.99L460.106 1649.3L459.434 1652L458.762 1654.71L455.954 1654.02L453.145 1653.32L451.801 1658.74L450.458 1664.15L447.649 1663.46L444.84 1662.76L443.497 1668.18L442.154 1673.59L439.345 1672.9L436.536 1672.2L430.491 1696.58L424.447 1720.96L427.255 1721.65L430.064 1722.35L428.721 1727.77L427.378 1733.18L430.187 1733.88L432.996 1734.58L432.324 1737.28L431.652 1739.99L434.461 1740.69L437.27 1741.39L436.598 1744.1L435.927 1746.8L438.736 1747.5L441.545 1748.2L440.873 1750.91L440.201 1753.61L443.01 1754.31L445.819 1755.01L445.147 1757.72L444.476 1760.42L447.285 1761.12L450.094 1761.82L449.422 1764.53L448.75 1767.23L451.559 1767.93L454.368 1768.63L453.696 1771.34L453.025 1774.04L458.643 1775.44L464.26 1776.83L463.589 1779.54L462.917 1782.25L468.535 1783.64L474.153 1785.03L476.839 1774.2L479.526 1763.37L468.29 1760.58L457.055 1757.79L457.726 1755.08L458.398 1752.38L455.589 1751.68L452.78 1750.98L453.452 1748.27L454.123 1745.57L451.315 1744.87L448.506 1744.17L449.177 1741.46L449.849 1738.76L447.04 1738.06L444.231 1737.36L444.903 1734.65L445.574 1731.95L451.192 1733.34L456.81 1734.73L456.138 1737.44L455.467 1740.15L458.276 1740.85L461.084 1741.54L460.413 1744.25L459.741 1746.96L462.55 1747.66L465.359 1748.35L464.687 1751.06L464.016 1753.77L469.633 1755.16L475.251 1756.55L475.923 1753.85L476.595 1751.14L479.403 1751.83L482.212 1752.53L482.884 1749.82L483.556 1747.11L486.364 1747.81L489.173 1748.51L489.845 1745.8L490.517 1743.09L479.281 1740.3L468.046 1737.52L468.717 1734.81L469.389 1732.1L466.58 1731.4L463.771 1730.71L464.443 1728L465.114 1725.29L462.305 1724.59L459.497 1723.9L460.168 1721.19L460.84 1718.48L458.031 1717.78L455.222 1717.09L459.252 1700.84L463.282 1684.58L466.091 1685.28L468.899 1685.98L469.571 1683.27L470.243 1680.56L473.052 1681.26L475.86 1681.95L476.532 1679.24L477.204 1676.54L474.395 1675.84L471.586 1675.14L473.601 1667.02L475.616 1658.89L484.042 1660.98L492.469 1663.07L491.798 1665.78L491.126 1668.49L493.935 1669.18L496.744 1669.88L496.072 1672.59L495.4 1675.3L498.209 1675.99L501.018 1676.69L501.69 1673.98L502.361 1671.27L516.406 1674.76L530.45 1678.24L529.779 1680.95L529.107 1683.66L531.916 1684.35L534.725 1685.05L535.396 1682.34L536.068 1679.63L538.877 1680.33L541.686 1681.02L542.358 1678.32L543.029 1675.61L551.456 1677.7L559.883 1679.79L557.868 1687.91L555.853 1696.04L553.044 1695.34L550.235 1694.65L549.563 1697.35L548.892 1700.06L551.701 1700.76L554.509 1701.46L553.838 1704.16L553.166 1706.87L555.975 1707.57L558.784 1708.27L554.754 1724.52L550.724 1740.77L547.915 1740.07L545.107 1739.38L544.435 1742.08L543.763 1744.79L540.954 1744.1L538.145 1743.4L537.474 1746.11L536.802 1748.82L533.993 1748.12L531.184 1747.42L530.513 1750.13L529.841 1752.84L518.606 1750.05L507.37 1747.27L506.698 1749.98L506.027 1752.69L508.836 1753.38L511.644 1754.08L510.973 1756.79L510.301 1759.5L513.11 1760.19L515.919 1760.89L511.889 1777.14L507.859 1793.39L513.477 1794.78L519.095 1796.18L519.767 1793.47L520.438 1790.76L523.247 1791.46L526.056 1792.15L526.728 1789.45L527.399 1786.74L530.208 1787.43L533.017 1788.13L533.689 1785.42L534.36 1782.71L537.169 1783.41L539.978 1784.11L540.65 1781.4L541.321 1778.69L544.13 1779.38L546.939 1780.08L547.611 1777.37L548.282 1774.66L551.091 1775.36L553.9 1776.06L554.572 1773.35L555.243 1770.64L558.052 1771.34L560.861 1772.03L561.533 1769.32L562.205 1766.62L565.013 1767.31L567.822 1768.01L569.166 1762.59L570.509 1757.17L573.318 1757.87L576.127 1758.57L582.171 1734.19L588.216 1709.81L585.407 1709.12L582.598 1708.42L583.942 1703L585.285 1697.59L582.476 1696.89L579.667 1696.19L581.01 1690.78L582.354 1685.36L579.545 1684.66L576.736 1683.97L577.408 1681.26L578.079 1678.55L575.27 1677.85L572.461 1677.16L573.133 1674.45L573.805 1671.74L570.996 1671.04L568.187 1670.35L568.858 1667.64L569.53 1664.93L566.721 1664.23L563.912 1663.54L564.584 1660.83L565.256 1658.12L562.447 1657.42L559.638 1656.73L560.309 1654.02L560.981 1651.31L555.363 1649.91L549.746 1648.52L550.417 1645.81L551.089 1643.1L525.809 1636.84L500.529 1630.57L499.857 1633.28Z" fill="#F8CC14"/>
<path fill-rule="evenodd" clip-rule="evenodd" d="M468.361 909.462L467.235 915.477L461.22 914.351L455.205 913.225L442.888 979.036L430.57 1044.85L436.585 1045.97L442.6 1047.1L441.474 1053.11L440.348 1059.13L476.084 1065.82L511.82 1072.51L516.257 1048.8L520.694 1025.09L509.17 1022.94C499.654 1021.16 497.574 1020.68 497.235 1020.18C496.728 1019.44 496.86 1018.56 497.497 1018.43C497.856 1018.36 497.861 1018.21 497.518 1017.83C497.175 1017.44 497.18 1017.3 497.54 1017.22C498.103 1017.11 498.427 1015.8 497.915 1015.7C497.688 1015.66 498.192 1012.27 499.321 1006.24C500.758 998.559 501.191 996.759 501.681 996.424C502.177 996.084 504.289 996.388 513.806 998.17L525.33 1000.33L529.767 976.62L534.204 952.914L540.219 954.04L546.234 955.166L547.36 949.151L548.486 943.136L566.531 946.513L584.576 949.891L582.324 961.921L580.073 973.951L568.548 971.794C558.256 969.867 556.949 969.688 556.322 970.117C555.812 970.466 555.733 970.659 556.033 970.826C556.569 971.124 556.211 973.023 555.588 973.183C555.203 973.282 555.188 973.364 555.511 973.596C556.028 973.966 550.707 1002.88 550.141 1002.77C549.616 1002.67 549.519 1003.73 549.99 1004.42C550.329 1004.91 552.409 1005.39 561.926 1007.18L573.45 1009.33L571.227 1021.21C569.239 1031.83 568.93 1033.14 568.302 1033.57C567.792 1033.92 567.583 1033.92 567.537 1033.58C567.461 1033.03 566.146 1032.71 566.05 1033.22C566.008 1033.44 562.682 1032.95 556.784 1031.85C550.887 1030.75 547.609 1030 547.651 1029.77C547.688 1029.58 547.399 1029.36 547.01 1029.29C546.621 1029.21 546.272 1029.31 546.236 1029.51C546.2 1029.7 545.851 1029.8 545.462 1029.73C545.073 1029.66 544.725 1029.76 544.688 1029.95C544.652 1030.15 544.781 1030.33 544.976 1030.37C545.208 1030.41 543.851 1038.34 541.025 1053.44C538.199 1068.53 536.599 1076.41 536.367 1076.37C536.172 1076.33 535.983 1076.46 535.947 1076.66C535.903 1076.89 542.131 1078.18 553.925 1080.39L571.97 1083.76L573.096 1077.75L574.222 1071.73L580.237 1072.86L586.252 1073.99L598.57 1008.18L610.887 942.364L604.873 941.238L598.858 940.113L599.983 934.098L601.109 928.083L535.298 915.765L469.487 903.447L468.361 909.462Z" fill="#F8CC14"/>
<path d="M652.789 296.071H665.866L656.839 341.459H643.762L652.789 296.071ZM661.563 289.743C659.314 289.743 657.458 289.096 655.995 287.803C654.589 286.453 653.886 284.822 653.886 282.91C653.886 280.66 654.673 278.804 656.248 277.341C657.879 275.823 659.989 275.063 662.576 275.063C664.882 275.063 666.738 275.71 668.144 277.004C669.606 278.241 670.337 279.788 670.337 281.644C670.337 284.063 669.522 286.031 667.891 287.55C666.26 289.012 664.151 289.743 661.563 289.743ZM704.489 295.396C709.551 295.396 713.573 296.746 716.553 299.445C719.534 302.089 721.025 305.885 721.025 310.835C721.025 312.691 720.828 314.519 720.434 316.318L715.372 341.459H702.211L707.104 317.162C707.329 316.206 707.442 315.165 707.442 314.041C707.442 311.678 706.795 309.878 705.502 308.641C704.208 307.404 702.268 306.785 699.68 306.785C696.306 306.785 693.493 307.769 691.244 309.738C689.05 311.65 687.56 314.547 686.772 318.428L682.217 341.459H669.055L678.083 296.071H690.569L689.556 300.964C693.606 297.252 698.584 295.396 704.489 295.396ZM758.18 288.562C756.155 288.562 754.552 289.124 753.371 290.249C752.246 291.318 751.459 293.033 751.009 295.396L750.672 297.083H762.23L760.205 307.207H748.984L742.151 341.459H728.99L735.823 307.207H728.736L730.761 297.083H737.848L738.354 294.468C739.423 289.406 741.616 285.44 744.935 282.572C748.309 279.647 752.696 278.185 758.096 278.185C760.121 278.185 762.033 278.41 763.833 278.86C765.689 279.31 767.264 279.929 768.557 280.716L763.411 290.165C762.005 289.096 760.261 288.562 758.18 288.562ZM783.143 342.134C778.587 342.134 774.565 341.291 771.078 339.603C767.647 337.916 764.976 335.554 763.063 332.517C761.207 329.423 760.279 325.852 760.279 321.802C760.279 316.796 761.461 312.297 763.823 308.304C766.185 304.31 769.447 301.161 773.609 298.855C777.771 296.549 782.468 295.396 787.698 295.396C792.31 295.396 796.332 296.239 799.763 297.927C803.194 299.614 805.837 302.004 807.693 305.098C809.605 308.135 810.562 311.678 810.562 315.728C810.562 320.734 809.38 325.233 807.018 329.226C804.712 333.22 801.45 336.369 797.232 338.675C793.07 340.981 788.373 342.134 783.143 342.134ZM783.986 331.251C786.517 331.251 788.795 330.633 790.82 329.395C792.845 328.102 794.419 326.33 795.544 324.08C796.669 321.83 797.232 319.243 797.232 316.318C797.232 313.225 796.332 310.778 794.532 308.979C792.732 307.179 790.201 306.279 786.939 306.279C784.352 306.279 782.046 306.926 780.021 308.219C777.996 309.457 776.421 311.2 775.297 313.45C774.172 315.7 773.609 318.287 773.609 321.212C773.609 324.305 774.509 326.752 776.309 328.551C778.165 330.351 780.724 331.251 783.986 331.251ZM862.64 281.56C869.84 281.56 876.055 282.853 881.285 285.44C886.572 288.028 890.594 291.655 893.35 296.324C896.105 300.936 897.483 306.335 897.483 312.522C897.483 317.696 896.584 322.562 894.784 327.117C893.04 331.617 890.565 335.245 887.36 338C884.21 340.7 880.61 342.05 876.561 342.05C873.636 342.05 871.218 341.544 869.305 340.531C867.449 339.519 866.156 338.057 865.424 336.144C861.825 340.081 857.016 342.05 850.998 342.05C847.736 342.05 844.783 341.319 842.139 339.857C839.552 338.394 837.499 336.313 835.981 333.613C834.462 330.857 833.703 327.68 833.703 324.08C833.703 319.637 834.659 315.531 836.571 311.763C838.54 307.994 841.211 305.013 844.586 302.82C848.017 300.57 851.841 299.445 856.06 299.445C862.303 299.445 866.718 301.667 869.305 306.11L870.571 300.036H882.044L876.561 327.455C876.392 328.186 876.308 328.833 876.308 329.395C876.308 331.645 877.461 332.77 879.767 332.77C881.623 332.77 883.254 331.757 884.66 329.733C886.066 327.652 887.135 325.092 887.866 322.055C888.597 318.962 888.963 315.953 888.963 313.028C888.963 305.66 886.628 299.923 881.96 295.818C877.292 291.655 870.458 289.574 861.459 289.574C854.316 289.574 847.989 291.149 842.477 294.299C837.021 297.449 832.775 301.779 829.738 307.291C826.7 312.747 825.182 318.849 825.182 325.599C825.182 330.604 826.222 335.02 828.303 338.844C830.384 342.612 833.422 345.537 837.415 347.618C841.408 349.699 846.189 350.74 851.757 350.74C857.438 350.74 862.753 349.671 867.702 347.534L869.558 355.295C866.971 356.364 864.018 357.208 860.7 357.826C857.438 358.501 854.232 358.839 851.082 358.839C843.883 358.839 837.612 357.461 832.269 354.705C826.925 351.949 822.82 348.096 819.951 343.147C817.139 338.254 815.733 332.629 815.733 326.274C815.733 317.781 817.73 310.132 821.723 303.326C825.716 296.521 831.256 291.205 838.343 287.381C845.486 283.5 853.585 281.56 862.64 281.56ZM854.541 332.348C856.96 332.348 859.097 331.729 860.953 330.492C862.809 329.255 864.243 327.567 865.256 325.43C866.324 323.293 866.859 320.959 866.859 318.428C866.859 315.503 866.015 313.253 864.328 311.678C862.697 310.047 860.419 309.232 857.494 309.232C853.951 309.232 851.054 310.497 848.804 313.028C846.555 315.503 845.43 318.849 845.43 323.068C845.43 326.049 846.245 328.355 847.876 329.986C849.507 331.561 851.729 332.348 854.541 332.348ZM920.266 325.43C920.153 325.88 920.097 326.499 920.097 327.286C920.097 330.211 921.7 331.673 924.906 331.673C926.649 331.673 928.421 331.139 930.221 330.07L932.161 339.435C929.236 341.234 925.468 342.134 920.856 342.134C916.582 342.134 913.151 341.01 910.563 338.76C907.976 336.51 906.683 333.417 906.683 329.48C906.683 328.355 906.823 327.033 907.104 325.514L910.732 307.207H903.73L905.755 297.083H912.757L914.951 286.031H928.112L925.918 297.083H937.223L935.198 307.207H923.893L920.266 325.43ZM974.477 295.396C979.539 295.396 983.56 296.746 986.541 299.445C989.522 302.145 991.012 305.97 991.012 310.919C991.012 312.719 990.815 314.519 990.422 316.318L985.36 341.459H972.199L977.092 317.162C977.317 316.206 977.429 315.165 977.429 314.041C977.429 311.678 976.783 309.878 975.489 308.641C974.195 307.404 972.255 306.785 969.668 306.785C966.293 306.785 963.481 307.769 961.231 309.738C959.038 311.65 957.547 314.547 956.76 318.428L952.204 341.459H939.043L951.529 278.86H964.69L960.472 300.205C964.353 296.999 969.021 295.396 974.477 295.396ZM1047.14 315.39C1047.14 317.471 1046.88 319.777 1046.38 322.308H1011.62C1012.07 328.495 1015.98 331.589 1023.35 331.589C1025.65 331.589 1027.85 331.223 1029.93 330.492C1032.06 329.761 1033.92 328.72 1035.49 327.37L1040.98 336.06C1038.45 338.085 1035.55 339.603 1032.29 340.616C1029.03 341.628 1025.6 342.134 1022 342.134C1017.33 342.134 1013.22 341.319 1009.68 339.688C1006.19 338 1003.49 335.61 1001.58 332.517C999.724 329.423 998.796 325.852 998.796 321.802C998.796 316.796 999.921 312.297 1002.17 308.304C1004.48 304.254 1007.65 301.104 1011.7 298.855C1015.75 296.549 1020.36 295.396 1025.54 295.396C1029.93 295.396 1033.72 296.211 1036.93 297.842C1040.19 299.473 1042.69 301.807 1044.44 304.845C1046.24 307.882 1047.14 311.397 1047.14 315.39ZM1024.95 305.266C1021.86 305.266 1019.24 306.11 1017.1 307.797C1014.97 309.429 1013.45 311.706 1012.55 314.631H1035.07C1035.07 311.706 1034.14 309.429 1032.29 307.797C1030.49 306.11 1028.04 305.266 1024.95 305.266ZM1105.93 296.071L1096.91 341.459H1084.42L1085.26 336.988C1081.5 340.419 1076.86 342.134 1071.34 342.134C1067.8 342.134 1064.54 341.319 1061.56 339.688C1058.58 338.057 1056.19 335.723 1054.39 332.685C1052.64 329.592 1051.77 325.964 1051.77 321.802C1051.77 316.796 1052.87 312.297 1055.06 308.304C1057.31 304.254 1060.35 301.104 1064.17 298.855C1068 296.549 1072.22 295.396 1076.83 295.396C1083.8 295.396 1088.72 297.674 1091.59 302.229L1092.77 296.071H1105.93ZM1075.39 331.251C1077.98 331.251 1080.29 330.633 1082.31 329.395C1084.34 328.102 1085.91 326.33 1087.04 324.08C1088.16 321.83 1088.72 319.243 1088.72 316.318C1088.72 313.225 1087.8 310.778 1085.94 308.979C1084.14 307.179 1081.61 306.279 1078.35 306.279C1075.76 306.279 1073.45 306.926 1071.43 308.219C1069.4 309.457 1067.83 311.2 1066.7 313.45C1065.58 315.7 1065.02 318.287 1065.02 321.212C1065.02 324.305 1065.92 326.752 1067.72 328.551C1069.57 330.351 1072.13 331.251 1075.39 331.251ZM1129.51 301.47C1131.48 299.333 1133.84 297.786 1136.6 296.83C1139.41 295.874 1142.7 295.396 1146.47 295.396L1144.1 307.544C1142.53 307.432 1141.52 307.376 1141.07 307.376C1137.07 307.376 1133.87 308.36 1131.45 310.328C1129.09 312.297 1127.48 315.362 1126.64 319.524L1122.25 341.459H1109.09L1118.12 296.071H1130.61L1129.51 301.47ZM1161.8 342.134C1157.86 342.134 1154.12 341.713 1150.58 340.869C1147.09 339.969 1144.36 338.816 1142.39 337.41L1147.45 327.877C1149.42 329.17 1151.81 330.211 1154.63 330.998C1157.49 331.786 1160.36 332.179 1163.23 332.179C1166.21 332.179 1168.43 331.814 1169.9 331.082C1171.36 330.295 1172.09 329.198 1172.09 327.792C1172.09 326.667 1171.44 325.852 1170.15 325.346C1168.85 324.839 1166.77 324.305 1163.91 323.743C1160.64 323.124 1157.94 322.449 1155.81 321.718C1153.73 320.987 1151.9 319.806 1150.32 318.174C1148.8 316.487 1148.04 314.209 1148.04 311.341C1148.04 306.335 1150.13 302.426 1154.29 299.614C1158.51 296.802 1164.02 295.396 1170.82 295.396C1173.97 295.396 1177.04 295.733 1180.02 296.408C1183 297.083 1185.53 298.011 1187.61 299.192L1182.89 308.81C1179.18 306.504 1174.7 305.351 1169.47 305.351C1166.61 305.351 1164.41 305.773 1162.89 306.616C1161.43 307.46 1160.7 308.529 1160.7 309.822C1160.7 311.003 1161.35 311.875 1162.64 312.438C1163.93 312.944 1166.1 313.506 1169.14 314.125C1172.34 314.744 1174.96 315.419 1176.98 316.15C1179.06 316.825 1180.86 317.978 1182.38 319.609C1183.9 321.24 1184.66 323.461 1184.66 326.274C1184.66 331.336 1182.52 335.245 1178.25 338C1174.03 340.756 1168.55 342.134 1161.8 342.134ZM1225.51 295.396C1230.58 295.396 1234.6 296.746 1237.58 299.445C1240.56 302.145 1242.05 305.97 1242.05 310.919C1242.05 312.719 1241.85 314.519 1241.46 316.318L1236.4 341.459H1223.24L1228.13 317.162C1228.35 316.206 1228.47 315.165 1228.47 314.041C1228.47 311.678 1227.82 309.878 1226.53 308.641C1225.23 307.404 1223.29 306.785 1220.7 306.785C1217.33 306.785 1214.52 307.769 1212.27 309.738C1210.07 311.65 1208.58 314.547 1207.8 318.428L1203.24 341.459H1190.08L1202.57 278.86H1215.73L1211.51 300.205C1215.39 296.999 1220.06 295.396 1225.51 295.396ZM1304 296.071L1294.97 341.459H1282.48L1283.33 336.988C1279.56 340.419 1274.92 342.134 1269.41 342.134C1265.86 342.134 1262.6 341.319 1259.62 339.688C1256.64 338.057 1254.25 335.723 1252.45 332.685C1250.71 329.592 1249.83 325.964 1249.83 321.802C1249.83 316.796 1250.93 312.297 1253.12 308.304C1255.37 304.254 1258.41 301.104 1262.24 298.855C1266.06 296.549 1270.28 295.396 1274.89 295.396C1281.86 295.396 1286.79 297.674 1289.65 302.229L1290.84 296.071H1304ZM1273.46 331.251C1276.04 331.251 1278.35 330.633 1280.37 329.395C1282.4 328.102 1283.97 326.33 1285.1 324.08C1286.22 321.83 1286.79 319.243 1286.79 316.318C1286.79 313.225 1285.86 310.778 1284 308.979C1282.2 307.179 1279.67 306.279 1276.41 306.279C1273.82 306.279 1271.52 306.926 1269.49 308.219C1267.47 309.457 1265.89 311.2 1264.77 313.45C1263.64 315.7 1263.08 318.287 1263.08 321.212C1263.08 324.305 1263.98 326.752 1265.78 328.551C1267.63 330.351 1270.19 331.251 1273.46 331.251ZM1373.13 295.396C1378.08 295.396 1382.01 296.746 1384.94 299.445C1387.86 302.089 1389.33 305.857 1389.33 310.75C1389.33 312.55 1389.13 314.406 1388.74 316.318L1383.76 341.459H1370.6L1375.41 317.246C1375.63 316.122 1375.74 314.969 1375.74 313.787C1375.74 311.481 1375.12 309.738 1373.89 308.557C1372.71 307.376 1370.93 306.785 1368.57 306.785C1362.22 306.785 1358.25 310.582 1356.68 318.174L1352.04 341.459H1338.88L1343.68 317.246C1343.91 316.122 1344.02 314.997 1344.02 313.872C1344.02 311.566 1343.4 309.822 1342.17 308.641C1340.98 307.404 1339.21 306.785 1336.85 306.785C1330.5 306.785 1326.5 310.638 1324.87 318.343L1320.32 341.459H1307.15L1316.18 296.071H1328.67L1327.66 300.795C1331.59 297.195 1336.34 295.396 1341.91 295.396C1345.06 295.396 1347.85 296.042 1350.27 297.336C1352.74 298.573 1354.6 300.401 1355.83 302.82C1358.03 300.401 1360.59 298.573 1363.51 297.336C1366.44 296.042 1369.64 295.396 1373.13 295.396ZM1401.63 342.134C1399.38 342.134 1397.52 341.431 1396.06 340.025C1394.6 338.563 1393.87 336.735 1393.87 334.541C1393.87 331.954 1394.71 329.845 1396.4 328.214C1398.09 326.583 1400.17 325.767 1402.64 325.767C1404.89 325.767 1406.72 326.47 1408.13 327.877C1409.59 329.283 1410.32 331.111 1410.32 333.36C1410.32 335.891 1409.45 338 1407.7 339.688C1406.02 341.319 1403.99 342.134 1401.63 342.134ZM1441.1 342.134C1436.43 342.134 1432.36 341.291 1428.87 339.603C1425.38 337.916 1422.68 335.554 1420.77 332.517C1418.91 329.423 1417.99 325.852 1417.99 321.802C1417.99 316.796 1419.17 312.297 1421.53 308.304C1423.89 304.31 1427.18 301.161 1431.4 298.855C1435.62 296.549 1440.37 295.396 1445.66 295.396C1450.5 295.396 1454.66 296.408 1458.14 298.433C1461.69 300.401 1464.33 303.214 1466.08 306.869L1454.94 312.438C1452.97 308.332 1449.6 306.279 1444.82 306.279C1442.23 306.279 1439.89 306.926 1437.81 308.219C1435.79 309.457 1434.18 311.2 1433 313.45C1431.88 315.7 1431.32 318.259 1431.32 321.127C1431.32 324.221 1432.24 326.695 1434.1 328.551C1435.96 330.351 1438.54 331.251 1441.86 331.251C1446.7 331.251 1450.41 329.226 1453 325.177L1462.7 331.251C1460.51 334.682 1457.5 337.354 1453.67 339.266C1449.91 341.178 1445.71 342.134 1441.1 342.134ZM1490.12 342.134C1485.56 342.134 1481.54 341.291 1478.05 339.603C1474.62 337.916 1471.95 335.554 1470.04 332.517C1468.18 329.423 1467.26 325.852 1467.26 321.802C1467.26 316.796 1468.44 312.297 1470.8 308.304C1473.16 304.31 1476.42 301.161 1480.58 298.855C1484.75 296.549 1489.44 295.396 1494.67 295.396C1499.29 295.396 1503.31 296.239 1506.74 297.927C1510.17 299.614 1512.81 302.004 1514.67 305.098C1516.58 308.135 1517.54 311.678 1517.54 315.728C1517.54 320.734 1516.36 325.233 1513.99 329.226C1511.69 333.22 1508.43 336.369 1504.21 338.675C1500.05 340.981 1495.35 342.134 1490.12 342.134ZM1490.96 331.251C1493.49 331.251 1495.77 330.633 1497.8 329.395C1499.82 328.102 1501.4 326.33 1502.52 324.08C1503.64 321.83 1504.21 319.243 1504.21 316.318C1504.21 313.225 1503.31 310.778 1501.51 308.979C1499.71 307.179 1497.18 306.279 1493.91 306.279C1491.33 306.279 1489.02 306.926 1487 308.219C1484.97 309.457 1483.4 311.2 1482.27 313.45C1481.15 315.7 1480.58 318.287 1480.58 321.212C1480.58 324.305 1481.48 326.752 1483.28 328.551C1485.14 330.351 1487.7 331.251 1490.96 331.251ZM1587.59 295.396C1592.54 295.396 1596.47 296.746 1599.4 299.445C1602.32 302.089 1603.78 305.857 1603.78 310.75C1603.78 312.55 1603.59 314.406 1603.19 316.318L1598.22 341.459H1585.05L1589.86 317.246C1590.09 316.122 1590.2 314.969 1590.2 313.787C1590.2 311.481 1589.58 309.738 1588.35 308.557C1587.16 307.376 1585.39 306.785 1583.03 306.785C1576.67 306.785 1572.71 310.582 1571.13 318.174L1566.49 341.459H1553.33L1558.14 317.246C1558.37 316.122 1558.48 314.997 1558.48 313.872C1558.48 311.566 1557.86 309.822 1556.62 308.641C1555.44 307.404 1553.67 306.785 1551.31 306.785C1544.95 306.785 1540.96 310.638 1539.33 318.343L1534.77 341.459H1521.61L1530.64 296.071H1543.13L1542.11 300.795C1546.05 297.195 1550.8 295.396 1556.37 295.396C1559.52 295.396 1562.3 296.042 1564.72 297.336C1567.2 298.573 1569.05 300.401 1570.29 302.82C1572.48 300.401 1575.04 298.573 1577.97 297.336C1580.89 296.042 1584.1 295.396 1587.59 295.396Z" fill="white"/>
<path d="M681.33 179.626L678.799 192.45H706.218L704.109 203.08H676.605L673.906 216.747H706.133L703.856 227.715H658.129L669.94 168.659H714.57L712.292 179.626H681.33ZM779.861 181.651C784.81 181.651 788.747 183.001 791.672 185.701C794.597 188.344 796.059 192.112 796.059 197.006C796.059 198.805 795.862 200.662 795.468 202.574L790.491 227.715H777.33L782.139 203.502C782.364 202.377 782.476 201.224 782.476 200.043C782.476 197.737 781.857 195.993 780.62 194.812C779.439 193.631 777.667 193.04 775.305 193.04C768.949 193.04 764.984 196.837 763.409 204.43L758.769 227.715H745.608L750.417 203.502C750.642 202.377 750.754 201.252 750.754 200.127C750.754 197.821 750.136 196.078 748.898 194.896C747.717 193.659 745.946 193.04 743.583 193.04C737.228 193.04 733.234 196.893 731.603 204.599L727.048 227.715H713.887L722.914 182.326H735.4L734.387 187.05C738.325 183.451 743.077 181.651 748.645 181.651C751.795 181.651 754.579 182.298 756.998 183.591C759.472 184.829 761.328 186.657 762.566 189.075C764.759 186.657 767.318 184.829 770.243 183.591C773.168 182.298 776.374 181.651 779.861 181.651ZM857.957 182.326L848.93 227.715H836.444L837.288 223.243C833.519 226.674 828.879 228.39 823.367 228.39C819.824 228.39 816.562 227.574 813.581 225.943C810.6 224.312 808.209 221.978 806.41 218.941C804.666 215.847 803.794 212.22 803.794 208.058C803.794 203.052 804.891 198.552 807.085 194.559C809.334 190.509 812.371 187.36 816.196 185.11C820.021 182.804 824.239 181.651 828.851 181.651C835.825 181.651 840.747 183.929 843.615 188.485L844.796 182.326H857.957ZM827.417 217.507C830.004 217.507 832.31 216.888 834.335 215.651C836.36 214.357 837.934 212.585 839.059 210.335C840.184 208.086 840.747 205.498 840.747 202.574C840.747 199.48 839.819 197.034 837.962 195.234C836.163 193.434 833.632 192.534 830.37 192.534C827.782 192.534 825.476 193.181 823.452 194.475C821.427 195.712 819.852 197.456 818.727 199.705C817.602 201.955 817.04 204.542 817.04 207.467C817.04 210.56 817.94 213.007 819.739 214.807C821.595 216.607 824.155 217.507 827.417 217.507ZM870.142 182.326H883.219L874.192 227.715H861.115L870.142 182.326ZM878.916 175.999C876.666 175.999 874.81 175.352 873.348 174.058C871.942 172.708 871.239 171.077 871.239 169.165C871.239 166.915 872.026 165.059 873.601 163.597C875.232 162.078 877.341 161.319 879.929 161.319C882.235 161.319 884.091 161.966 885.497 163.259C886.959 164.497 887.69 166.043 887.69 167.899C887.69 170.318 886.875 172.286 885.244 173.805C883.613 175.267 881.503 175.999 878.916 175.999ZM898.894 165.115H912.056L899.569 227.715H886.408L898.894 165.115ZM923.848 198.102C921.599 198.102 919.742 197.399 918.28 195.993C916.818 194.531 916.087 192.703 916.087 190.509C916.087 187.922 916.93 185.813 918.618 184.182C920.305 182.551 922.386 181.735 924.861 181.735C927.11 181.735 928.938 182.438 930.344 183.845C931.807 185.251 932.538 187.079 932.538 189.328C932.538 191.859 931.666 193.968 929.923 195.656C928.235 197.287 926.211 198.102 923.848 198.102ZM917.774 228.39C915.524 228.39 913.668 227.687 912.206 226.281C910.743 224.818 910.012 222.99 910.012 220.797C910.012 218.21 910.856 216.1 912.543 214.469C914.231 212.838 916.312 212.023 918.786 212.023C921.036 212.023 922.864 212.726 924.27 214.132C925.732 215.538 926.464 217.366 926.464 219.616C926.464 222.147 925.592 224.256 923.848 225.943C922.161 227.574 920.136 228.39 917.774 228.39Z" fill="white"/>
<path d="M700.682 704.999H673.178L665.501 717.654H650.906L689.123 658.598H702.622L717.133 717.654H703.466L700.682 704.999ZM698.404 694.622L693.426 671.844L679.506 694.622H698.404ZM742.833 677.665C744.801 675.528 747.164 673.981 749.92 673.025C752.732 672.069 756.022 671.59 759.79 671.59L757.428 683.739C755.853 683.627 754.841 683.57 754.391 683.57C750.398 683.57 747.192 684.555 744.773 686.523C742.411 688.492 740.808 691.557 739.964 695.719L735.577 717.654H722.416L731.443 672.265H743.93L742.833 677.665ZM775.121 718.329C771.184 718.329 767.443 717.907 763.9 717.064C760.413 716.164 757.685 715.011 755.716 713.605L760.778 704.071C762.747 705.365 765.137 706.406 767.95 707.193C770.818 707.98 773.686 708.374 776.555 708.374C779.536 708.374 781.757 708.008 783.22 707.277C784.682 706.49 785.413 705.393 785.413 703.987C785.413 702.862 784.766 702.047 783.473 701.54C782.179 701.034 780.098 700.5 777.23 699.937C773.968 699.319 771.268 698.644 769.131 697.913C767.05 697.181 765.222 696 763.647 694.369C762.128 692.682 761.369 690.404 761.369 687.536C761.369 682.53 763.45 678.621 767.612 675.809C771.83 672.997 777.342 671.59 784.148 671.59C787.297 671.59 790.363 671.928 793.344 672.603C796.325 673.278 798.856 674.206 800.937 675.387L796.212 685.005C792.5 682.699 788.029 681.546 782.798 681.546C779.929 681.546 777.736 681.968 776.217 682.811C774.755 683.655 774.024 684.723 774.024 686.017C774.024 687.198 774.671 688.07 775.964 688.632C777.258 689.139 779.423 689.701 782.46 690.32C785.666 690.938 788.282 691.613 790.306 692.345C792.388 693.019 794.187 694.172 795.706 695.804C797.224 697.435 797.984 699.656 797.984 702.468C797.984 707.53 795.847 711.439 791.572 714.195C787.354 716.951 781.87 718.329 775.121 718.329ZM838.838 671.59C843.9 671.59 847.921 672.94 850.902 675.64C853.883 678.34 855.374 682.164 855.374 687.114C855.374 688.914 855.177 690.713 854.783 692.513L849.721 717.654H836.56L841.453 693.357C841.678 692.401 841.791 691.36 841.791 690.235C841.791 687.873 841.144 686.073 839.85 684.836C838.557 683.599 836.616 682.98 834.029 682.98C830.654 682.98 827.842 683.964 825.593 685.933C823.399 687.845 821.909 690.742 821.121 694.622L816.565 717.654H803.404L815.89 655.055H829.052L824.833 676.399C828.714 673.193 833.382 671.59 838.838 671.59ZM917.321 672.265L908.294 717.654H895.807L896.651 713.183C892.883 716.614 888.243 718.329 882.731 718.329C879.187 718.329 875.925 717.514 872.944 715.883C869.963 714.252 867.573 711.917 865.773 708.88C864.03 705.787 863.158 702.159 863.158 697.997C863.158 692.991 864.255 688.492 866.448 684.498C868.698 680.449 871.735 677.299 875.56 675.05C879.384 672.744 883.602 671.59 888.214 671.59C895.189 671.59 900.11 673.868 902.979 678.424L904.16 672.265H917.321ZM886.78 707.446C889.367 707.446 891.673 706.827 893.698 705.59C895.723 704.296 897.298 702.525 898.423 700.275C899.548 698.025 900.11 695.438 900.11 692.513C900.11 689.42 899.182 686.973 897.326 685.173C895.526 683.374 892.995 682.474 889.733 682.474C887.146 682.474 884.84 683.121 882.815 684.414C880.79 685.651 879.215 687.395 878.091 689.645C876.966 691.895 876.403 694.482 876.403 697.406C876.403 700.5 877.303 702.947 879.103 704.746C880.959 706.546 883.518 707.446 886.78 707.446ZM986.453 671.59C991.402 671.59 995.339 672.94 998.264 675.64C1001.19 678.284 1002.65 682.052 1002.65 686.945C1002.65 688.745 1002.46 690.601 1002.06 692.513L997.083 717.654H983.922L988.731 693.441C988.956 692.316 989.068 691.163 989.068 689.982C989.068 687.676 988.449 685.933 987.212 684.752C986.031 683.57 984.259 682.98 981.897 682.98C975.541 682.98 971.576 686.776 970.001 694.369L965.361 717.654H952.2L957.009 693.441C957.234 692.316 957.346 691.192 957.346 690.067C957.346 687.761 956.728 686.017 955.49 684.836C954.309 683.599 952.538 682.98 950.175 682.98C943.82 682.98 939.826 686.833 938.195 694.538L933.64 717.654H920.479L929.506 672.265H941.992L940.979 676.99C944.917 673.39 949.669 671.59 955.237 671.59C958.387 671.59 961.171 672.237 963.59 673.531C966.064 674.768 967.92 676.596 969.158 679.015C971.351 676.596 973.91 674.768 976.835 673.531C979.76 672.237 982.966 671.59 986.453 671.59ZM1054.29 718.667C1049.62 718.667 1045.15 718.048 1040.87 716.811C1036.6 715.573 1033.17 713.998 1030.58 712.086L1036.15 701.54C1038.85 703.509 1041.88 705.028 1045.26 706.096C1048.63 707.165 1052.09 707.699 1055.64 707.699C1059.4 707.699 1062.39 707.08 1064.58 705.843C1066.77 704.606 1067.87 702.918 1067.87 700.781C1067.87 699.038 1067 697.716 1065.25 696.816C1063.51 695.86 1060.73 694.847 1056.9 693.779C1053.08 692.654 1049.96 691.585 1047.54 690.573C1045.12 689.504 1043.01 687.929 1041.21 685.848C1039.47 683.767 1038.59 681.011 1038.59 677.58C1038.59 673.587 1039.69 670.072 1041.88 667.035C1044.13 663.998 1047.28 661.663 1051.33 660.032C1055.44 658.401 1060.19 657.586 1065.59 657.586C1069.58 657.586 1073.35 658.036 1076.9 658.936C1080.44 659.779 1083.48 661.017 1086.01 662.648L1080.86 673.109C1078.67 671.59 1076.19 670.466 1073.44 669.734C1070.68 668.947 1067.81 668.553 1064.83 668.553C1060.95 668.553 1057.89 669.228 1055.64 670.578C1053.39 671.928 1052.26 673.672 1052.26 675.809C1052.26 677.102 1052.74 678.199 1053.7 679.099C1054.65 679.943 1055.86 680.646 1057.32 681.208C1058.79 681.714 1060.84 682.333 1063.48 683.064C1067.25 684.077 1070.34 685.117 1072.76 686.186C1075.18 687.198 1077.23 688.717 1078.92 690.742C1080.66 692.71 1081.54 695.325 1081.54 698.588C1081.54 702.637 1080.41 706.181 1078.16 709.218C1075.91 712.199 1072.73 714.533 1068.63 716.22C1064.52 717.851 1059.74 718.667 1054.29 718.667ZM1122.09 671.59C1127.15 671.59 1131.17 672.94 1134.16 675.64C1137.14 678.34 1138.63 682.164 1138.63 687.114C1138.63 688.914 1138.43 690.713 1138.04 692.513L1132.97 717.654H1119.81L1124.71 693.357C1124.93 692.401 1125.04 691.36 1125.04 690.235C1125.04 687.873 1124.4 686.073 1123.1 684.836C1121.81 683.599 1119.87 682.98 1117.28 682.98C1113.91 682.98 1111.1 683.964 1108.85 685.933C1106.65 687.845 1105.16 690.742 1104.37 694.622L1099.82 717.654H1086.66L1099.14 655.055H1112.3L1108.09 676.399C1111.97 673.193 1116.64 671.59 1122.09 671.59ZM1154.02 672.265H1167.09L1158.07 717.654H1144.99L1154.02 672.265ZM1162.79 665.938C1160.54 665.938 1158.68 665.291 1157.22 663.998C1155.82 662.648 1155.11 661.017 1155.11 659.104C1155.11 656.855 1155.9 654.999 1157.47 653.536C1159.11 652.018 1161.21 651.258 1163.8 651.258C1166.11 651.258 1167.96 651.905 1169.37 653.199C1170.83 654.436 1171.56 655.983 1171.56 657.839C1171.56 660.257 1170.75 662.226 1169.12 663.744C1167.49 665.207 1165.38 665.938 1162.79 665.938ZM1190.7 677.665C1192.67 675.528 1195.03 673.981 1197.79 673.025C1200.6 672.069 1203.89 671.59 1207.66 671.59L1205.29 683.739C1203.72 683.627 1202.71 683.57 1202.26 683.57C1198.26 683.57 1195.06 684.555 1192.64 686.523C1190.28 688.492 1188.67 691.557 1187.83 695.719L1183.44 717.654H1170.28L1179.31 672.265H1191.8L1190.7 677.665ZM1240.12 692.007L1255.72 717.654H1240.45L1229.65 700.022L1221.64 706.687L1219.45 717.654H1206.29L1218.77 655.055H1231.93L1224.93 690.067L1246.7 672.265H1263.82L1240.12 692.007ZM1282.39 718.329C1277.84 718.329 1273.81 717.486 1270.33 715.798C1266.9 714.111 1264.22 711.749 1262.31 708.712C1260.46 705.618 1259.53 702.047 1259.53 697.997C1259.53 692.991 1260.71 688.492 1263.07 684.498C1265.43 680.505 1268.7 677.356 1272.86 675.05C1277.02 672.744 1281.72 671.59 1286.95 671.59C1291.56 671.59 1295.58 672.434 1299.01 674.121C1302.44 675.809 1305.09 678.199 1306.94 681.293C1308.85 684.33 1309.81 687.873 1309.81 691.923C1309.81 696.928 1308.63 701.428 1306.27 705.421C1303.96 709.415 1300.7 712.564 1296.48 714.87C1292.32 717.176 1287.62 718.329 1282.39 718.329ZM1283.24 707.446C1285.77 707.446 1288.04 706.827 1290.07 705.59C1292.09 704.296 1293.67 702.525 1294.79 700.275C1295.92 698.025 1296.48 695.438 1296.48 692.513C1296.48 689.42 1295.58 686.973 1293.78 685.173C1291.98 683.374 1289.45 682.474 1286.19 682.474C1283.6 682.474 1281.29 683.121 1279.27 684.414C1277.25 685.651 1275.67 687.395 1274.55 689.645C1273.42 691.895 1272.86 694.482 1272.86 697.406C1272.86 700.5 1273.76 702.947 1275.56 704.746C1277.41 706.546 1279.97 707.446 1283.24 707.446ZM1368.64 672.265L1359.61 717.654H1347.13L1348.05 712.761C1346.08 714.617 1343.83 716.023 1341.3 716.979C1338.77 717.879 1336.1 718.329 1333.29 718.329C1328.34 718.329 1324.37 716.979 1321.39 714.28C1318.47 711.58 1317.01 707.783 1317.01 702.89C1317.01 701.034 1317.2 699.206 1317.6 697.406L1322.57 672.265H1335.74L1330.93 696.563C1330.7 697.631 1330.59 698.728 1330.59 699.853C1330.59 704.578 1333.12 706.94 1338.18 706.94C1341.5 706.94 1344.23 705.984 1346.37 704.071C1348.56 702.103 1350.05 699.178 1350.84 695.297L1355.48 672.265H1368.64ZM1407.24 671.59C1412.3 671.59 1416.32 672.94 1419.3 675.64C1422.28 678.34 1423.77 682.164 1423.77 687.114C1423.77 688.914 1423.58 690.713 1423.18 692.513L1418.12 717.654H1404.96L1409.85 693.357C1410.08 692.401 1410.19 691.36 1410.19 690.235C1410.19 687.873 1409.54 686.073 1408.25 684.836C1406.96 683.599 1405.02 682.98 1402.43 682.98C1399.05 682.98 1396.24 683.964 1393.99 685.933C1391.8 687.845 1390.31 690.742 1389.52 694.622L1384.97 717.654H1371.8L1384.29 655.055H1397.45L1393.23 676.399C1397.11 673.193 1401.78 671.59 1407.24 671.59ZM1439.16 672.265H1452.24L1443.21 717.654H1430.14L1439.16 672.265ZM1447.94 665.938C1445.69 665.938 1443.83 665.291 1442.37 663.998C1440.96 662.648 1440.26 661.017 1440.26 659.104C1440.26 656.855 1441.05 654.999 1442.62 653.536C1444.25 652.018 1446.36 651.258 1448.95 651.258C1451.26 651.258 1453.11 651.905 1454.52 653.199C1455.98 654.436 1456.71 655.983 1456.71 657.839C1456.71 660.257 1455.9 662.226 1454.26 663.744C1452.63 665.207 1450.52 665.938 1447.94 665.938Z" fill="white"/>
<path d="M674.164 553.008H687.917L678.299 600.928H707.911L705.633 612.064H662.354L674.164 553.008ZM721.453 566.675H734.53L725.503 612.064H712.426L721.453 566.675ZM730.228 560.348C727.978 560.348 726.122 559.701 724.659 558.407C723.253 557.057 722.549 555.426 722.549 553.514C722.549 551.264 723.337 549.408 724.911 547.946C726.544 546.427 728.653 545.668 731.24 545.668C733.546 545.668 735.401 546.315 736.807 547.608C738.269 548.846 739.002 550.392 739.002 552.249C739.002 554.667 738.186 556.636 736.555 558.154C734.924 559.616 732.815 560.348 730.228 560.348ZM773.153 566C778.215 566 782.237 567.35 785.218 570.05C788.199 572.693 789.689 576.49 789.689 581.439C789.689 583.295 789.492 585.123 789.098 586.923L784.036 612.064H770.875L775.768 587.767C775.993 586.81 776.106 585.77 776.106 584.645C776.106 582.283 775.459 580.483 774.166 579.246C772.872 578.008 770.932 577.39 768.344 577.39C764.97 577.39 762.158 578.374 759.908 580.342C757.714 582.255 756.223 585.151 755.435 589.032L750.88 612.064H737.719L746.747 566.675H759.232L758.221 571.568C762.27 567.856 767.248 566 773.153 566ZM829.882 586.417L845.489 612.064H830.219L819.419 594.431L811.405 601.096L809.211 612.064H796.051L808.536 549.464H821.698L814.695 584.476L836.461 566.675H853.588L829.882 586.417ZM897.719 585.995C897.719 588.076 897.467 590.382 896.96 592.913H862.202C862.652 599.1 866.559 602.193 873.927 602.193C876.233 602.193 878.427 601.828 880.508 601.096C882.645 600.365 884.502 599.325 886.077 597.975L891.56 606.665C889.029 608.689 886.132 610.208 882.87 611.22C879.608 612.233 876.177 612.739 872.578 612.739C867.909 612.739 863.805 611.923 860.26 610.292C856.773 608.605 854.074 606.215 852.161 603.121C850.305 600.028 849.378 596.456 849.378 592.407C849.378 587.401 850.503 582.901 852.753 578.908C855.059 574.859 858.236 571.709 862.286 569.459C866.336 567.153 870.948 566 876.122 566C880.509 566 884.305 566.816 887.51 568.447C890.772 570.078 893.276 572.412 895.02 575.449C896.82 578.486 897.719 582.002 897.719 585.995ZM875.531 575.871C872.438 575.871 869.823 576.715 867.685 578.402C865.548 580.033 864.029 582.311 863.13 585.236H885.655C885.655 582.311 884.726 580.033 882.87 578.402C881.07 576.715 878.625 575.871 875.531 575.871ZM960.06 549.464L947.573 612.064H935.088L936.016 607.508C932.19 610.995 927.55 612.739 922.094 612.739C918.551 612.739 915.29 611.923 912.309 610.292C909.328 608.661 906.938 606.327 905.138 603.29C903.394 600.196 902.523 596.569 902.523 592.407C902.523 587.401 903.618 582.901 905.812 578.908C908.062 574.859 911.1 571.709 914.924 569.459C918.749 567.153 922.966 566 927.578 566C930.897 566 933.793 566.563 936.268 567.687C938.799 568.812 940.796 570.472 942.258 572.665L946.898 549.464H960.06ZM926.145 601.856C928.732 601.856 931.038 601.237 933.062 600C935.087 598.706 936.663 596.934 937.788 594.685C938.912 592.435 939.474 589.848 939.474 586.923C939.474 583.829 938.546 581.383 936.69 579.583C934.891 577.783 932.36 576.883 929.098 576.883C926.511 576.883 924.204 577.53 922.18 578.824C920.155 580.061 918.58 581.805 917.455 584.054C916.33 586.304 915.768 588.891 915.768 591.816C915.768 594.91 916.668 597.356 918.468 599.156C920.324 600.956 922.883 601.856 926.145 601.856ZM968.866 566.675H981.943L972.916 612.064H959.839L968.866 566.675ZM977.641 560.348C975.391 560.348 973.535 559.701 972.072 558.407C970.666 557.057 969.963 555.426 969.963 553.514C969.963 551.264 970.751 549.408 972.325 547.946C973.957 546.427 976.066 545.668 978.653 545.668C980.959 545.668 982.815 546.315 984.221 547.608C985.683 548.846 986.414 550.392 986.414 552.249C986.414 554.667 985.599 556.636 983.968 558.154C982.337 559.616 980.228 560.348 977.641 560.348ZM1020.57 566C1025.63 566 1029.65 567.35 1032.63 570.05C1035.61 572.693 1037.1 576.49 1037.1 581.439C1037.1 583.295 1036.91 585.123 1036.51 586.923L1031.45 612.064H1018.29L1023.18 587.767C1023.41 586.81 1023.52 585.77 1023.52 584.645C1023.52 582.283 1022.87 580.483 1021.58 579.246C1020.29 578.008 1018.34 577.39 1015.76 577.39C1012.38 577.39 1009.57 578.374 1007.32 580.342C1005.13 582.255 1003.64 585.151 1002.85 589.032L998.294 612.064H985.133L994.159 566.675H1006.65L1005.63 571.568C1009.68 567.856 1014.66 566 1020.57 566ZM1055.53 582.452C1053.28 582.452 1051.42 581.748 1049.96 580.342C1048.5 578.88 1047.77 577.052 1047.77 574.859C1047.77 572.271 1048.61 570.162 1050.3 568.531C1051.98 566.9 1054.07 566.085 1056.54 566.085C1058.79 566.085 1060.62 566.788 1062.02 568.194C1063.49 569.6 1064.22 571.428 1064.22 573.677C1064.22 576.208 1063.35 578.318 1061.6 580.005C1059.92 581.636 1057.89 582.452 1055.53 582.452ZM1049.45 612.739C1047.2 612.739 1045.35 612.036 1043.89 610.63C1042.42 609.167 1041.69 607.339 1041.69 605.146C1041.69 602.559 1042.54 600.45 1044.22 598.819C1045.91 597.187 1047.99 596.372 1050.47 596.372C1052.72 596.372 1054.54 597.075 1055.95 598.481C1057.41 599.887 1058.14 601.715 1058.14 603.965C1058.14 606.496 1057.27 608.605 1055.53 610.292C1053.84 611.923 1051.82 612.739 1049.45 612.739Z" fill="white"/>
<path d="M682.394 1064.01H654.891L647.214 1076.66H632.619L670.836 1017.6H684.335L698.846 1076.66H685.178L682.394 1064.01ZM680.117 1053.63L675.139 1030.85L661.219 1053.63H680.117ZM724.546 1036.67C726.514 1034.53 728.877 1032.99 731.632 1032.03C734.445 1031.08 737.735 1030.6 741.503 1030.6L739.141 1042.75C737.566 1042.63 736.554 1042.58 736.104 1042.58C732.111 1042.58 728.905 1043.56 726.486 1045.53C724.124 1047.5 722.521 1050.56 721.677 1054.73L717.29 1076.66H704.129L713.156 1031.27H725.643L724.546 1036.67ZM756.834 1077.34C752.896 1077.34 749.156 1076.91 745.613 1076.07C742.126 1075.17 739.398 1074.02 737.429 1072.61L742.491 1063.08C744.46 1064.37 746.85 1065.41 749.662 1066.2C752.531 1066.99 755.399 1067.38 758.268 1067.38C761.249 1067.38 763.47 1067.02 764.933 1066.28C766.395 1065.5 767.126 1064.4 767.126 1062.99C767.126 1061.87 766.479 1061.05 765.186 1060.55C763.892 1060.04 761.811 1059.51 758.943 1058.94C755.681 1058.33 752.981 1057.65 750.844 1056.92C748.762 1056.19 746.935 1055.01 745.36 1053.38C743.841 1051.69 743.082 1049.41 743.082 1046.54C743.082 1041.54 745.163 1037.63 749.325 1034.82C753.543 1032 759.055 1030.6 765.861 1030.6C769.01 1030.6 772.076 1030.93 775.057 1031.61C778.037 1032.28 780.568 1033.21 782.649 1034.39L777.925 1044.01C774.213 1041.71 769.741 1040.55 764.511 1040.55C761.642 1040.55 759.449 1040.97 757.93 1041.82C756.468 1042.66 755.737 1043.73 755.737 1045.02C755.737 1046.21 756.384 1047.08 757.677 1047.64C758.971 1048.15 761.136 1048.71 764.173 1049.33C767.379 1049.95 769.995 1050.62 772.019 1051.35C774.1 1052.03 775.9 1053.18 777.419 1054.81C778.937 1056.44 779.697 1058.66 779.697 1061.48C779.697 1066.54 777.559 1070.45 773.285 1073.2C769.067 1075.96 763.583 1077.34 756.834 1077.34ZM820.551 1030.6C825.613 1030.6 829.634 1031.95 832.615 1034.65C835.596 1037.35 837.087 1041.17 837.087 1046.12C837.087 1047.92 836.89 1049.72 836.496 1051.52L831.434 1076.66H818.273L823.166 1052.36C823.391 1051.41 823.504 1050.37 823.504 1049.24C823.504 1046.88 822.857 1045.08 821.563 1043.84C820.27 1042.61 818.329 1041.99 815.742 1041.99C812.367 1041.99 809.555 1042.97 807.305 1044.94C805.112 1046.85 803.621 1049.75 802.834 1053.63L798.278 1076.66H785.117L797.603 1014.06H810.764L806.546 1035.41C810.427 1032.2 815.095 1030.6 820.551 1030.6ZM899.034 1031.27L890.006 1076.66H877.52L878.364 1072.19C874.596 1075.62 869.955 1077.34 864.444 1077.34C860.9 1077.34 857.638 1076.52 854.657 1074.89C851.676 1073.26 849.286 1070.92 847.486 1067.89C845.742 1064.79 844.871 1061.17 844.871 1057C844.871 1052 845.967 1047.5 848.161 1043.51C850.411 1039.46 853.448 1036.31 857.272 1034.06C861.097 1031.75 865.315 1030.6 869.927 1030.6C876.902 1030.6 881.823 1032.88 884.691 1037.43L885.873 1031.27H899.034ZM868.493 1066.45C871.08 1066.45 873.386 1065.83 875.411 1064.6C877.436 1063.3 879.011 1061.53 880.136 1059.28C881.261 1057.03 881.823 1054.44 881.823 1051.52C881.823 1048.43 880.895 1045.98 879.039 1044.18C877.239 1042.38 874.708 1041.48 871.446 1041.48C868.859 1041.48 866.553 1042.13 864.528 1043.42C862.503 1044.66 860.928 1046.4 859.803 1048.65C858.679 1050.9 858.116 1053.49 858.116 1056.41C858.116 1059.51 859.016 1061.95 860.816 1063.75C862.672 1065.55 865.231 1066.45 868.493 1066.45ZM968.166 1030.6C973.115 1030.6 977.052 1031.95 979.977 1034.65C982.901 1037.29 984.364 1041.06 984.364 1045.95C984.364 1047.75 984.167 1049.61 983.773 1051.52L978.796 1076.66H965.635L970.443 1052.45C970.668 1051.32 970.781 1050.17 970.781 1048.99C970.781 1046.68 970.162 1044.94 968.925 1043.76C967.744 1042.58 965.972 1041.99 963.61 1041.99C957.254 1041.99 953.289 1045.78 951.714 1053.38L947.074 1076.66H933.913L938.722 1052.45C938.947 1051.32 939.059 1050.2 939.059 1049.07C939.059 1046.77 938.441 1045.02 937.203 1043.84C936.022 1042.61 934.25 1041.99 931.888 1041.99C925.533 1041.99 921.539 1045.84 919.908 1053.54L915.352 1076.66H902.191L911.219 1031.27H923.705L922.692 1036C926.629 1032.4 931.382 1030.6 936.95 1030.6C940.1 1030.6 942.884 1031.24 945.302 1032.54C947.777 1033.78 949.633 1035.6 950.871 1038.02C953.064 1035.6 955.623 1033.78 958.548 1032.54C961.473 1031.24 964.678 1030.6 968.166 1030.6ZM1031.11 1077.34C1027.17 1077.34 1023.43 1076.91 1019.89 1076.07C1016.4 1075.17 1013.67 1074.02 1011.7 1072.61L1016.76 1063.08C1018.73 1064.37 1021.12 1065.41 1023.94 1066.2C1026.8 1066.99 1029.67 1067.38 1032.54 1067.38C1035.52 1067.38 1037.74 1067.02 1039.21 1066.28C1040.67 1065.5 1041.4 1064.4 1041.4 1062.99C1041.4 1061.87 1040.75 1061.05 1039.46 1060.55C1038.16 1060.04 1036.08 1059.51 1033.22 1058.94C1029.95 1058.33 1027.25 1057.65 1025.12 1056.92C1023.04 1056.19 1021.21 1055.01 1019.63 1053.38C1018.11 1051.69 1017.35 1049.41 1017.35 1046.54C1017.35 1041.54 1019.44 1037.63 1023.6 1034.82C1027.82 1032 1033.33 1030.6 1040.13 1030.6C1043.28 1030.6 1046.35 1030.93 1049.33 1031.61C1052.31 1032.28 1054.84 1033.21 1056.92 1034.39L1052.2 1044.01C1048.49 1041.71 1044.01 1040.55 1038.78 1040.55C1035.92 1040.55 1033.72 1040.97 1032.2 1041.82C1030.74 1042.66 1030.01 1043.73 1030.01 1045.02C1030.01 1046.21 1030.66 1047.08 1031.95 1047.64C1033.24 1048.15 1035.41 1048.71 1038.45 1049.33C1041.65 1049.95 1044.27 1050.62 1046.29 1051.35C1048.37 1052.03 1050.17 1053.18 1051.69 1054.81C1053.21 1056.44 1053.97 1058.66 1053.97 1061.48C1053.97 1066.54 1051.83 1070.45 1047.56 1073.2C1043.34 1075.96 1037.86 1077.34 1031.11 1077.34ZM1094.82 1030.6C1099.89 1030.6 1103.91 1031.95 1106.89 1034.65C1109.87 1037.35 1111.36 1041.17 1111.36 1046.12C1111.36 1047.92 1111.16 1049.72 1110.77 1051.52L1105.71 1076.66H1092.55L1097.44 1052.36C1097.66 1051.41 1097.78 1050.37 1097.78 1049.24C1097.78 1046.88 1097.13 1045.08 1095.84 1043.84C1094.54 1042.61 1092.6 1041.99 1090.01 1041.99C1086.64 1041.99 1083.83 1042.97 1081.58 1044.94C1079.38 1046.85 1077.89 1049.75 1077.11 1053.63L1072.55 1076.66H1059.39L1071.88 1014.06H1085.04L1080.82 1035.41C1084.7 1032.2 1089.37 1030.6 1094.82 1030.6ZM1126.75 1031.27H1139.82L1130.8 1076.66H1117.72L1126.75 1031.27ZM1135.52 1024.94C1133.27 1024.94 1131.42 1024.3 1129.95 1023C1128.55 1021.65 1127.84 1020.02 1127.84 1018.11C1127.84 1015.86 1128.63 1014.01 1130.21 1012.54C1131.84 1011.02 1133.95 1010.27 1136.53 1010.27C1138.84 1010.27 1140.7 1010.91 1142.1 1012.21C1143.57 1013.44 1144.3 1014.99 1144.3 1016.85C1144.3 1019.26 1143.48 1021.23 1141.85 1022.75C1140.22 1024.21 1138.11 1024.94 1135.52 1024.94ZM1163.43 1036.67C1165.4 1034.53 1167.76 1032.99 1170.52 1032.03C1173.33 1031.08 1176.62 1030.6 1180.39 1030.6L1178.03 1042.75C1176.45 1042.63 1175.44 1042.58 1174.99 1042.58C1171 1042.58 1167.79 1043.56 1165.37 1045.53C1163.01 1047.5 1161.41 1050.56 1160.56 1054.73L1156.18 1076.66H1143.01L1152.04 1031.27H1164.53L1163.43 1036.67ZM1212.85 1051.01L1228.46 1076.66H1213.19L1202.39 1059.03L1194.37 1065.69L1192.18 1076.66H1179.02L1191.5 1014.06H1204.67L1197.66 1049.07L1219.43 1031.27H1236.56L1212.85 1051.01ZM1255.12 1077.34C1250.57 1077.34 1246.55 1076.49 1243.06 1074.81C1239.63 1073.12 1236.96 1070.76 1235.04 1067.72C1233.19 1064.62 1232.26 1061.05 1232.26 1057C1232.26 1052 1233.44 1047.5 1235.8 1043.51C1238.17 1039.51 1241.43 1036.36 1245.59 1034.06C1249.75 1031.75 1254.45 1030.6 1259.68 1030.6C1264.29 1030.6 1268.31 1031.44 1271.74 1033.13C1275.18 1034.82 1277.82 1037.21 1279.67 1040.3C1281.59 1043.34 1282.54 1046.88 1282.54 1050.93C1282.54 1055.94 1281.36 1060.43 1279 1064.43C1276.69 1068.42 1273.43 1071.57 1269.21 1073.88C1265.05 1076.18 1260.35 1077.34 1255.12 1077.34ZM1255.97 1066.45C1258.5 1066.45 1260.78 1065.83 1262.8 1064.6C1264.83 1063.3 1266.4 1061.53 1267.53 1059.28C1268.65 1057.03 1269.21 1054.44 1269.21 1051.52C1269.21 1048.43 1268.31 1045.98 1266.51 1044.18C1264.71 1042.38 1262.18 1041.48 1258.92 1041.48C1256.33 1041.48 1254.03 1042.13 1252 1043.42C1249.98 1044.66 1248.4 1046.4 1247.28 1048.65C1246.15 1050.9 1245.59 1053.49 1245.59 1056.41C1245.59 1059.51 1246.49 1061.95 1248.29 1063.75C1250.15 1065.55 1252.71 1066.45 1255.97 1066.45ZM1341.37 1031.27L1332.34 1076.66H1319.86L1320.79 1071.77C1318.82 1073.62 1316.57 1075.03 1314.04 1075.99C1311.51 1076.89 1308.83 1077.34 1306.02 1077.34C1301.07 1077.34 1297.11 1075.99 1294.13 1073.29C1291.2 1070.59 1289.74 1066.79 1289.74 1061.9C1289.74 1060.04 1289.94 1058.21 1290.33 1056.41L1295.31 1031.27H1308.47L1303.66 1055.57C1303.43 1056.64 1303.32 1057.74 1303.32 1058.86C1303.32 1063.58 1305.85 1065.95 1310.91 1065.95C1314.23 1065.95 1316.96 1064.99 1319.1 1063.08C1321.29 1061.11 1322.78 1058.18 1323.57 1054.3L1328.21 1031.27H1341.37ZM1379.97 1030.6C1385.03 1030.6 1389.05 1031.95 1392.03 1034.65C1395.02 1037.35 1396.51 1041.17 1396.51 1046.12C1396.51 1047.92 1396.31 1049.72 1395.92 1051.52L1390.85 1076.66H1377.69L1382.59 1052.36C1382.81 1051.41 1382.92 1050.37 1382.92 1049.24C1382.92 1046.88 1382.28 1045.08 1380.98 1043.84C1379.69 1042.61 1377.75 1041.99 1375.16 1041.99C1371.79 1041.99 1368.97 1042.97 1366.73 1044.94C1364.53 1046.85 1363.04 1049.75 1362.25 1053.63L1357.7 1076.66H1344.54L1357.02 1014.06H1370.18L1365.97 1035.41C1369.85 1032.2 1374.51 1030.6 1379.97 1030.6ZM1411.9 1031.27H1424.97L1415.94 1076.66H1402.87L1411.9 1031.27ZM1420.67 1024.94C1418.42 1024.94 1416.56 1024.3 1415.1 1023C1413.69 1021.65 1412.99 1020.02 1412.99 1018.11C1412.99 1015.86 1413.78 1014.01 1415.35 1012.54C1416.99 1011.02 1419.09 1010.27 1421.68 1010.27C1423.99 1010.27 1425.84 1010.91 1427.25 1012.21C1428.71 1013.44 1429.44 1014.99 1429.44 1016.85C1429.44 1019.26 1428.63 1021.23 1427 1022.75C1425.37 1024.21 1423.26 1024.94 1420.67 1024.94Z" fill="white"/>
<path d="M667.351 922.982L664.229 938.59H691.648L689.37 949.557H662.12L657.817 971.071H644.066L655.877 912.015H700.507L698.229 922.982H667.351ZM751.042 925.682L742.015 971.071H729.528L730.372 966.599C726.604 970.03 721.964 971.746 716.452 971.746C712.908 971.746 709.646 970.93 706.665 969.299C703.684 967.668 701.294 965.334 699.494 962.297C697.751 959.203 696.879 955.576 696.879 951.414C696.879 946.408 697.976 941.908 700.169 937.915C702.419 933.865 705.456 930.716 709.281 928.466C713.105 926.16 717.323 925.007 721.935 925.007C728.91 925.007 733.831 927.285 736.7 931.841L737.881 925.682H751.042ZM720.501 960.863C723.088 960.863 725.394 960.244 727.419 959.006C729.444 957.713 731.019 955.941 732.144 953.691C733.269 951.442 733.831 948.854 733.831 945.93C733.831 942.836 732.903 940.39 731.047 938.59C729.247 936.79 726.716 935.89 723.454 935.89C720.867 935.89 718.561 936.537 716.536 937.831C714.511 939.068 712.936 940.812 711.812 943.061C710.687 945.311 710.124 947.898 710.124 950.823C710.124 953.916 711.024 956.363 712.824 958.163C714.68 959.963 717.239 960.863 720.501 960.863ZM778.159 971.746C773.491 971.746 769.414 970.902 765.926 969.215C762.439 967.527 759.74 965.165 757.827 962.128C755.971 959.035 755.043 955.463 755.043 951.414C755.043 946.408 756.224 941.908 758.587 937.915C760.949 933.922 764.239 930.772 768.457 928.466C772.676 926.16 777.428 925.007 782.715 925.007C787.552 925.007 791.714 926.019 795.201 928.044C798.745 930.013 801.388 932.825 803.132 936.481L791.995 942.049C790.027 937.943 786.652 935.89 781.872 935.89C779.284 935.89 776.95 936.537 774.869 937.831C772.844 939.068 771.241 940.812 770.06 943.061C768.935 945.311 768.373 947.87 768.373 950.739C768.373 953.832 769.301 956.307 771.157 958.163C773.013 959.963 775.6 960.863 778.919 960.863C783.756 960.863 787.468 958.838 790.055 954.788L799.757 960.863C797.564 964.293 794.555 966.965 790.73 968.877C786.962 970.79 782.771 971.746 778.159 971.746ZM852.738 945.002C852.738 947.083 852.485 949.389 851.978 951.92H817.22C817.67 958.107 821.578 961.2 828.946 961.2C831.252 961.2 833.446 960.834 835.527 960.103C837.664 959.372 839.52 958.332 841.095 956.982L846.579 965.671C844.048 967.696 841.151 969.215 837.889 970.227C834.627 971.24 831.196 971.746 827.597 971.746C822.928 971.746 818.823 970.93 815.279 969.299C811.792 967.612 809.092 965.221 807.18 962.128C805.324 959.035 804.396 955.463 804.396 951.414C804.396 946.408 805.521 941.908 807.771 937.915C810.077 933.865 813.254 930.716 817.304 928.466C821.353 926.16 825.965 925.007 831.14 925.007C835.527 925.007 839.323 925.823 842.529 927.454C845.791 929.085 848.294 931.419 850.038 934.456C851.838 937.493 852.738 941.008 852.738 945.002ZM830.549 934.878C827.456 934.878 824.841 935.721 822.703 937.409C820.566 939.04 819.047 941.318 818.148 944.242H840.673C840.673 941.318 839.745 939.04 837.889 937.409C836.089 935.721 833.643 934.878 830.549 934.878ZM890.949 925.007C894.493 925.007 897.755 925.823 900.736 927.454C903.773 929.085 906.163 931.447 907.907 934.54C909.707 937.578 910.607 941.177 910.607 945.339C910.607 950.345 909.482 954.873 907.232 958.922C905.039 962.915 902.03 966.065 898.205 968.371C894.38 970.621 890.134 971.746 885.466 971.746C881.922 971.746 878.857 971.127 876.27 969.89C873.683 968.652 871.686 966.796 870.28 964.322L868.93 971.071H856.444L868.93 908.471H882.091L877.873 929.563C881.529 926.526 885.887 925.007 890.949 925.007ZM883.947 960.863C886.534 960.863 888.84 960.244 890.865 959.006C892.89 957.713 894.465 955.941 895.59 953.691C896.714 951.442 897.277 948.854 897.277 945.93C897.277 942.836 896.349 940.39 894.493 938.59C892.693 936.79 890.162 935.89 886.9 935.89C884.369 935.89 882.091 936.537 880.066 937.831C878.041 939.068 876.467 940.812 875.342 943.061C874.217 945.311 873.654 947.898 873.654 950.823C873.654 953.916 874.554 956.363 876.354 958.163C878.154 959.963 880.685 960.863 883.947 960.863ZM938.399 971.746C933.844 971.746 929.822 970.902 926.335 969.215C922.904 967.527 920.233 965.165 918.32 962.128C916.464 959.035 915.536 955.463 915.536 951.414C915.536 946.408 916.717 941.908 919.08 937.915C921.442 933.922 924.704 930.772 928.866 928.466C933.028 926.16 937.724 925.007 942.955 925.007C947.567 925.007 951.589 925.851 955.019 927.538C958.45 929.225 961.094 931.616 962.95 934.709C964.862 937.746 965.818 941.29 965.818 945.339C965.818 950.345 964.637 954.844 962.275 958.838C959.969 962.831 956.707 965.981 952.488 968.287C948.326 970.593 943.63 971.746 938.399 971.746ZM939.243 960.863C941.774 960.863 944.052 960.244 946.077 959.006C948.101 957.713 949.676 955.941 950.801 953.691C951.926 951.442 952.488 948.854 952.488 945.93C952.488 942.836 951.589 940.39 949.789 938.59C947.989 936.79 945.458 935.89 942.196 935.89C939.609 935.89 937.303 936.537 935.278 937.831C933.253 939.068 931.678 940.812 930.553 943.061C929.428 945.311 928.866 947.898 928.866 950.823C928.866 953.916 929.766 956.363 931.566 958.163C933.422 959.963 935.981 960.863 939.243 960.863ZM993.6 971.746C989.044 971.746 985.023 970.902 981.535 969.215C978.104 967.527 975.433 965.165 973.521 962.128C971.665 959.035 970.737 955.463 970.737 951.414C970.737 946.408 971.918 941.908 974.28 937.915C976.642 933.922 979.904 930.772 984.066 928.466C988.228 926.16 992.925 925.007 998.155 925.007C1002.77 925.007 1006.79 925.851 1010.22 927.538C1013.65 929.225 1016.3 931.616 1018.15 934.709C1020.06 937.746 1021.02 941.29 1021.02 945.339C1021.02 950.345 1019.84 954.844 1017.48 958.838C1015.17 962.831 1011.91 965.981 1007.69 968.287C1003.53 970.593 998.83 971.746 993.6 971.746ZM994.443 960.863C996.974 960.863 999.252 960.244 1001.28 959.006C1003.3 957.713 1004.88 955.941 1006 953.691C1007.13 951.442 1007.69 948.854 1007.69 945.93C1007.69 942.836 1006.79 940.39 1004.99 938.59C1003.19 936.79 1000.66 935.89 997.396 935.89C994.809 935.89 992.503 936.537 990.478 937.831C988.453 939.068 986.879 940.812 985.754 943.061C984.629 945.311 984.066 947.898 984.066 950.823C984.066 953.916 984.966 956.363 986.766 958.163C988.622 959.963 991.181 960.863 994.443 960.863ZM1058.92 945.424L1074.53 971.071H1059.26L1048.46 953.438L1040.45 960.103L1038.26 971.071H1025.09L1037.58 908.471H1050.74L1043.74 943.483L1065.51 925.682H1082.63L1058.92 945.424ZM1091.54 941.458C1089.29 941.458 1087.43 940.755 1085.97 939.349C1084.5 937.887 1083.77 936.059 1083.77 933.865C1083.77 931.278 1084.62 929.169 1086.3 927.538C1087.99 925.907 1090.07 925.091 1092.55 925.091C1094.8 925.091 1096.63 925.794 1098.03 927.201C1099.49 928.607 1100.22 930.435 1100.22 932.684C1100.22 935.215 1099.35 937.324 1097.61 939.012C1095.92 940.643 1093.9 941.458 1091.54 941.458ZM1085.46 971.746C1083.21 971.746 1081.35 971.043 1079.89 969.637C1078.43 968.174 1077.7 966.346 1077.7 964.153C1077.7 961.566 1078.54 959.456 1080.23 957.825C1081.92 956.194 1084 955.379 1086.47 955.379C1088.72 955.379 1090.55 956.082 1091.96 957.488C1093.42 958.894 1094.15 960.722 1094.15 962.972C1094.15 965.503 1093.28 967.612 1091.54 969.299C1089.85 970.93 1087.82 971.746 1085.46 971.746Z" fill="white"/>
<path d="M662.952 1749.29L653.925 1794.68H641.438L642.282 1790.2C638.514 1793.64 633.874 1795.35 628.362 1795.35C624.818 1795.35 621.556 1794.54 618.575 1792.9C615.594 1791.27 613.204 1788.94 611.404 1785.9C609.661 1782.81 608.789 1779.18 608.789 1775.02C608.789 1770.01 609.886 1765.51 612.079 1761.52C614.329 1757.47 617.366 1754.32 621.191 1752.07C625.015 1749.76 629.233 1748.61 633.845 1748.61C640.82 1748.61 645.741 1750.89 648.61 1755.45L649.791 1749.29H662.952ZM632.411 1784.47C634.998 1784.47 637.304 1783.85 639.329 1782.61C641.354 1781.32 642.929 1779.55 644.054 1777.3C645.179 1775.05 645.741 1772.46 645.741 1769.53C645.741 1766.44 644.813 1763.99 642.957 1762.19C641.157 1760.4 638.626 1759.5 635.364 1759.5C632.777 1759.5 630.471 1760.14 628.446 1761.44C626.421 1762.67 624.846 1764.42 623.722 1766.67C622.597 1768.92 622.034 1771.5 622.034 1774.43C622.034 1777.52 622.934 1779.97 624.734 1781.77C626.59 1783.57 629.149 1784.47 632.411 1784.47ZM686.526 1754.69C688.495 1752.55 690.857 1751 693.613 1750.05C696.425 1749.09 699.715 1748.61 703.484 1748.61L701.121 1760.76C699.547 1760.65 698.534 1760.59 698.084 1760.59C694.091 1760.59 690.885 1761.58 688.466 1763.54C686.104 1765.51 684.501 1768.58 683.658 1772.74L679.271 1794.68H666.11L675.137 1749.29H687.623L686.526 1754.69ZM718.814 1795.35C714.877 1795.35 711.137 1794.93 707.593 1794.09C704.106 1793.19 701.378 1792.03 699.41 1790.63L704.472 1781.09C706.44 1782.39 708.831 1783.43 711.643 1784.21C714.511 1785 717.38 1785.4 720.248 1785.4C723.229 1785.4 725.451 1785.03 726.913 1784.3C728.375 1783.51 729.106 1782.41 729.106 1781.01C729.106 1779.88 728.46 1779.07 727.166 1778.56C725.872 1778.06 723.791 1777.52 720.923 1776.96C717.661 1776.34 714.961 1775.67 712.824 1774.93C710.743 1774.2 708.915 1773.02 707.34 1771.39C705.821 1769.7 705.062 1767.43 705.062 1764.56C705.062 1759.55 707.143 1755.64 711.305 1752.83C715.524 1750.02 721.035 1748.61 727.841 1748.61C730.991 1748.61 734.056 1748.95 737.037 1749.62C740.018 1750.3 742.549 1751.23 744.63 1752.41L739.905 1762.03C736.193 1759.72 731.722 1758.57 726.491 1758.57C723.623 1758.57 721.429 1758.99 719.911 1759.83C718.448 1760.68 717.717 1761.74 717.717 1763.04C717.717 1764.22 718.364 1765.09 719.657 1765.65C720.951 1766.16 723.116 1766.72 726.154 1767.34C729.36 1767.96 731.975 1768.63 734 1769.37C736.081 1770.04 737.881 1771.19 739.399 1772.83C740.918 1774.46 741.677 1776.68 741.677 1779.49C741.677 1784.55 739.54 1788.46 735.265 1791.22C731.047 1793.97 725.563 1795.35 718.814 1795.35ZM782.531 1748.61C787.593 1748.61 791.615 1749.96 794.596 1752.66C797.576 1755.36 799.067 1759.19 799.067 1764.14C799.067 1765.94 798.87 1767.73 798.476 1769.53L793.414 1794.68H780.253L785.147 1770.38C785.372 1769.42 785.484 1768.38 785.484 1767.26C785.484 1764.89 784.837 1763.09 783.544 1761.86C782.25 1760.62 780.31 1760 777.722 1760C774.348 1760 771.536 1760.99 769.286 1762.95C767.092 1764.87 765.602 1767.76 764.814 1771.64L760.259 1794.68H747.098L759.584 1732.08H772.745L768.526 1753.42C772.407 1750.21 777.076 1748.61 782.531 1748.61ZM861.014 1749.29L851.987 1794.68H839.501L840.344 1790.2C836.576 1793.64 831.936 1795.35 826.424 1795.35C822.881 1795.35 819.618 1794.54 816.637 1792.9C813.657 1791.27 811.266 1788.94 809.466 1785.9C807.723 1782.81 806.851 1779.18 806.851 1775.02C806.851 1770.01 807.948 1765.51 810.141 1761.52C812.391 1757.47 815.428 1754.32 819.253 1752.07C823.077 1749.76 827.296 1748.61 831.908 1748.61C838.882 1748.61 843.803 1750.89 846.672 1755.45L847.853 1749.29H861.014ZM830.473 1784.47C833.061 1784.47 835.367 1783.85 837.391 1782.61C839.416 1781.32 840.991 1779.55 842.116 1777.3C843.241 1775.05 843.803 1772.46 843.803 1769.53C843.803 1766.44 842.875 1763.99 841.019 1762.19C839.219 1760.4 836.688 1759.5 833.426 1759.5C830.839 1759.5 828.533 1760.14 826.508 1761.44C824.483 1762.67 822.909 1764.42 821.784 1766.67C820.659 1768.92 820.096 1771.5 820.096 1774.43C820.096 1777.52 820.996 1779.97 822.796 1781.77C824.652 1783.57 827.211 1784.47 830.473 1784.47ZM930.146 1748.61C935.095 1748.61 939.032 1749.96 941.957 1752.66C944.882 1755.31 946.344 1759.07 946.344 1763.97C946.344 1765.77 946.147 1767.62 945.754 1769.53L940.776 1794.68H927.615L932.424 1770.46C932.649 1769.34 932.761 1768.18 932.761 1767C932.761 1764.7 932.143 1762.95 930.905 1761.77C929.724 1760.59 927.952 1760 925.59 1760C919.235 1760 915.269 1763.8 913.695 1771.39L909.054 1794.68H895.893L900.702 1770.46C900.927 1769.34 901.04 1768.21 901.04 1767.09C901.04 1764.78 900.421 1763.04 899.184 1761.86C898.002 1760.62 896.231 1760 893.869 1760C887.513 1760 883.52 1763.85 881.889 1771.56L877.333 1794.68H864.172L873.199 1749.29H885.685L884.673 1754.01C888.61 1750.41 893.362 1748.61 898.93 1748.61C902.08 1748.61 904.864 1749.26 907.283 1750.55C909.757 1751.79 911.613 1753.62 912.851 1756.04C915.044 1753.62 917.603 1751.79 920.528 1750.55C923.453 1749.26 926.659 1748.61 930.146 1748.61ZM982.813 1735.62L971.002 1794.68H957.335L966.952 1746.59H955.141L957.335 1735.62H982.813ZM1007.75 1795.69C1001.17 1795.69 995.969 1793.72 992.144 1789.78C988.32 1785.79 986.407 1780.31 986.407 1773.33C986.407 1766.24 987.701 1759.75 990.288 1753.84C992.932 1747.94 996.588 1743.27 1001.26 1739.84C1005.92 1736.35 1011.24 1734.61 1017.2 1734.61C1023.78 1734.61 1028.98 1736.6 1032.81 1740.6C1036.63 1744.53 1038.55 1749.99 1038.55 1756.96C1038.55 1764.05 1037.22 1770.55 1034.58 1776.45C1031.99 1782.36 1028.37 1787.05 1023.7 1790.54C1019.03 1793.97 1013.71 1795.69 1007.75 1795.69ZM1009.02 1784.13C1012.28 1784.13 1015.09 1782.72 1017.45 1779.91C1019.87 1777.1 1021.7 1773.61 1022.94 1769.45C1024.18 1765.23 1024.79 1761.18 1024.79 1757.3C1024.79 1753.53 1024.01 1750.75 1022.43 1748.95C1020.91 1747.09 1018.75 1746.17 1015.94 1746.17C1012.67 1746.17 1009.83 1747.57 1007.41 1750.38C1005.05 1753.2 1003.25 1756.71 1002.02 1760.93C1000.78 1765.09 1000.16 1769.11 1000.16 1772.99C1000.16 1776.76 1000.92 1779.57 1002.44 1781.43C1004.01 1783.23 1006.21 1784.13 1009.02 1784.13Z" fill="white"/>
<path d="M658.454 1658.63H670.94L666.047 1682.93C663.066 1685.23 659.607 1687 655.67 1688.24C651.733 1689.48 647.655 1690.1 643.437 1690.1C637.531 1690.1 632.385 1689.03 627.998 1686.89C623.611 1684.75 620.208 1681.75 617.789 1677.86C615.427 1673.98 614.246 1669.51 614.246 1664.45C614.246 1657.76 615.793 1651.71 618.886 1646.31C621.98 1640.91 626.338 1636.69 631.963 1633.66C637.587 1630.56 644.055 1629.02 651.367 1629.02C656.991 1629.02 661.857 1629.89 665.962 1631.63C670.124 1633.38 673.471 1635.93 676.002 1639.31L666.215 1647.24C664.247 1644.93 662.025 1643.27 659.551 1642.26C657.076 1641.19 654.151 1640.66 650.776 1640.66C646.277 1640.66 642.312 1641.67 638.881 1643.7C635.45 1645.67 632.778 1648.39 630.866 1651.88C629.01 1655.37 628.082 1659.28 628.082 1663.61C628.082 1668.16 629.544 1671.79 632.469 1674.49C635.45 1677.13 639.696 1678.46 645.208 1678.46C648.695 1678.46 651.958 1677.75 654.995 1676.35L658.454 1658.63ZM685.66 1643.7H698.737L689.71 1689.09H676.633L685.66 1643.7ZM694.435 1637.37C692.185 1637.37 690.329 1636.72 688.866 1635.43C687.46 1634.08 686.757 1632.45 686.757 1630.54C686.757 1628.29 687.545 1626.43 689.119 1624.97C690.751 1623.45 692.86 1622.69 695.447 1622.69C697.753 1622.69 699.609 1623.34 701.015 1624.63C702.477 1625.87 703.209 1627.41 703.209 1629.27C703.209 1631.69 702.393 1633.66 700.762 1635.18C699.131 1636.64 697.022 1637.37 694.435 1637.37ZM719.812 1673.06C719.7 1673.51 719.643 1674.12 719.643 1674.91C719.643 1677.84 721.246 1679.3 724.452 1679.3C726.196 1679.3 727.968 1678.76 729.767 1677.7L731.708 1687.06C728.783 1688.86 725.015 1689.76 720.403 1689.76C716.128 1689.76 712.697 1688.64 710.11 1686.39C707.523 1684.14 706.229 1681.04 706.229 1677.11C706.229 1675.98 706.37 1674.66 706.651 1673.14L710.279 1654.83H703.276L705.301 1644.71H712.304L714.497 1633.66H727.658L725.465 1644.71H736.77L734.745 1654.83H723.44L719.812 1673.06ZM774.023 1643.02C779.085 1643.02 783.107 1644.37 786.088 1647.07C789.068 1649.77 790.559 1653.6 790.559 1658.54C790.559 1660.34 790.362 1662.14 789.968 1663.94L784.906 1689.09H771.745L776.639 1664.79C776.864 1663.83 776.976 1662.79 776.976 1661.67C776.976 1659.3 776.329 1657.5 775.036 1656.27C773.742 1655.03 771.802 1654.41 769.214 1654.41C765.84 1654.41 763.028 1655.4 760.778 1657.36C758.584 1659.28 757.094 1662.17 756.306 1666.05L751.751 1689.09H738.59L751.076 1626.49H764.237L760.018 1647.83C763.899 1644.62 768.568 1643.02 774.023 1643.02ZM851.674 1643.7L842.647 1689.09H830.161L831.089 1684.19C829.12 1686.05 826.871 1687.45 824.34 1688.41C821.809 1689.31 819.137 1689.76 816.325 1689.76C811.375 1689.76 807.41 1688.41 804.429 1685.71C801.505 1683.01 800.042 1679.21 800.042 1674.32C800.042 1672.47 800.239 1670.64 800.633 1668.84L805.61 1643.7H818.771L813.963 1667.99C813.738 1669.06 813.625 1670.16 813.625 1671.28C813.625 1676.01 816.156 1678.37 821.218 1678.37C824.536 1678.37 827.264 1677.41 829.402 1675.5C831.595 1673.53 833.086 1670.61 833.873 1666.73L838.513 1643.7H851.674ZM889.346 1643.02C892.889 1643.02 896.151 1643.84 899.132 1645.47C902.169 1647.1 904.56 1649.46 906.303 1652.55C908.103 1655.59 909.003 1659.19 909.003 1663.35C909.003 1668.36 907.878 1672.89 905.628 1676.94C903.435 1680.93 900.426 1684.08 896.601 1686.39C892.776 1688.64 888.53 1689.76 883.862 1689.76C880.318 1689.76 877.253 1689.14 874.666 1687.9C872.079 1686.67 870.082 1684.81 868.676 1682.34L867.326 1689.09H854.84L867.326 1626.49H880.487L876.269 1647.58C879.925 1644.54 884.284 1643.02 889.346 1643.02ZM882.343 1678.88C884.93 1678.88 887.236 1678.26 889.261 1677.02C891.286 1675.73 892.861 1673.96 893.986 1671.71C895.111 1669.46 895.673 1666.87 895.673 1663.94C895.673 1660.85 894.745 1658.4 892.889 1656.6C891.089 1654.8 888.558 1653.9 885.296 1653.9C882.765 1653.9 880.487 1654.55 878.462 1655.85C876.438 1657.08 874.863 1658.83 873.738 1661.08C872.613 1663.33 872.051 1665.91 872.051 1668.84C872.051 1671.93 872.95 1674.38 874.75 1676.18C876.55 1677.98 879.081 1678.88 882.343 1678.88ZM925.153 1659.47C922.903 1659.47 921.047 1658.77 919.585 1657.36C918.122 1655.9 917.391 1654.07 917.391 1651.88C917.391 1649.29 918.235 1647.18 919.922 1645.55C921.61 1643.92 923.691 1643.11 926.165 1643.11C928.415 1643.11 930.243 1643.81 931.649 1645.22C933.111 1646.62 933.843 1648.45 933.843 1650.7C933.843 1653.23 932.971 1655.34 931.227 1657.03C929.54 1658.66 927.515 1659.47 925.153 1659.47ZM919.079 1689.76C916.829 1689.76 914.973 1689.06 913.51 1687.65C912.048 1686.19 911.317 1684.36 911.317 1682.17C911.317 1679.58 912.161 1677.47 913.848 1675.84C915.535 1674.21 917.616 1673.39 920.091 1673.39C922.341 1673.39 924.169 1674.1 925.575 1675.5C927.037 1676.91 927.768 1678.74 927.768 1680.99C927.768 1683.52 926.896 1685.63 925.153 1687.31C923.466 1688.94 921.441 1689.76 919.079 1689.76Z" fill="white"/>
<path d="M437.044 171.382L439.037 166.632L441.029 161.883L516.003 193.337L590.977 224.792L588.984 229.541L586.991 234.291L581.041 231.795C575.97 229.667 574.95 229.634 574.136 231.575C573.611 232.826 572.398 233.841 571.441 233.829C570.106 233.812 569.978 234.243 570.89 235.681C572.7 238.535 567.63 240.133 562.969 238.177C557.781 236.001 554.817 237.593 552.127 244.003L549.85 249.43L543.9 246.934L537.95 244.437L535.459 250.375L532.968 256.312L527.018 253.815L521.067 251.319L518.577 257.256L516.086 263.193L510.135 260.697L504.185 258.2L501.196 265.325L498.207 272.449L505.347 275.445L512.488 278.441L514.979 272.504L517.469 266.566L523.42 269.063L529.37 271.559L531.861 265.622L534.352 259.685L540.302 262.181L546.252 264.678L549.241 257.553L552.23 250.429L557.67 252.711C561.165 254.177 564.119 254.583 565.93 253.845C567.98 253.009 568.402 252.393 567.477 251.585C566.778 250.973 566.86 248.916 567.66 247.011C569.071 243.646 569.283 243.619 575.063 246.044L581.013 248.54L565.57 285.35L550.127 322.16L476.854 291.419C414.936 265.442 403.426 260.305 402.592 258.268C401.781 256.294 404.136 249.82 415.623 222.441C431.169 185.385 431.015 185.61 438.717 188.841L442.966 190.624L440.476 196.561L437.985 202.498L442.235 204.281C447.476 206.48 448.944 209.735 446.896 214.615C444.849 219.496 446.317 222.751 451.558 224.95C455.638 226.661 455.737 226.903 454.029 230.973C451.835 236.202 453.075 239.551 457.967 241.603C462.858 243.655 464.098 247.003 461.904 252.232L460.125 256.472L466.076 258.969L472.026 261.465L469.535 267.402L467.044 273.339L480.135 278.832L493.225 284.324L495.503 278.896C498.79 271.059 497.686 269.438 485.602 264.368L475.402 260.089L477.181 255.849C479.565 250.166 478.125 247.267 471.543 244.506L466.103 242.223L468.594 236.286L471.085 230.349L465.135 227.853L459.184 225.356L461.675 219.419L464.166 213.482L458.216 210.986L452.265 208.49L454.543 203.062C457.298 196.494 456.288 193.42 450.593 191.031L446.343 189.248L448.834 183.311L451.325 177.374L444.184 174.378L437.044 171.382Z" fill="#F8CC14"/>
<path fill-rule="evenodd" clip-rule="evenodd" d="M401.607 586.787L402.25 589.187L399.85 589.831L397.449 590.474L418.032 667.288L438.614 744.103L441.015 743.46L443.415 742.817L444.058 745.217L444.702 747.618L521.516 727.035L598.331 706.453L597.688 704.052L597.045 701.652L599.445 701.009L601.846 700.366L581.263 623.551L560.681 546.736L558.28 547.379L555.88 548.022L555.237 545.622L554.593 543.222L477.779 563.804L400.964 584.386L401.607 586.787ZM451.891 601.614L453.177 606.415L455.578 605.772L457.978 605.129L458.621 607.529L459.264 609.93L456.864 610.573L454.463 611.216L455.75 616.017L457.036 620.818L452.235 622.104L447.434 623.391L448.078 625.791L448.721 628.192L446.32 628.835L443.92 629.478L443.277 627.078L442.634 624.677L437.833 625.964L433.032 627.25L430.459 617.648L427.886 608.046L430.287 607.403L432.687 606.76L432.044 604.359L431.401 601.959L441.002 599.386L450.604 596.813L451.891 601.614ZM527.465 614.811L528.108 617.211L535.31 615.282L542.511 613.352L543.154 615.752L543.798 618.153L546.198 617.51L548.598 616.866L549.885 621.667L551.171 626.468L553.572 625.825L555.972 625.182L564.334 656.388L572.695 687.594L560.693 690.81L548.691 694.026L541.616 667.621L534.54 641.216L532.14 641.859L529.739 642.502L529.096 640.102L528.453 637.701L518.851 640.274L509.249 642.847L510.536 647.648L511.822 652.449L509.422 653.092L507.021 653.735L513.453 677.74L519.885 701.744L507.883 704.96L495.881 708.176L485.589 669.769L475.298 631.362L487.301 628.146L499.303 624.93L500.589 629.73L501.876 634.531L504.276 633.888L506.677 633.245L506.033 630.845L505.39 628.444L507.791 627.801L510.191 627.158L509.548 624.757L508.905 622.357L513.706 621.07L518.507 619.784L517.863 617.383L517.22 614.983L522.021 613.697L526.822 612.41L527.465 614.811ZM471.187 673.628L481.478 712.035L469.476 715.251L457.473 718.468L447.182 680.06L436.891 641.653L448.893 638.437L460.895 635.221L471.187 673.628Z" fill="#F8CC14"/>
<path d="M667.902 1309.88L663.729 1331H649.647L653.906 1309.27L638.259 1270.15H652.342L663.208 1297.27L685.027 1270.15H699.545L667.902 1309.88ZM711.646 1331.7C706.952 1331.7 702.808 1330.83 699.215 1329.09C695.68 1327.35 692.927 1324.91 690.957 1321.79C689.044 1318.6 688.088 1314.92 688.088 1310.75C688.088 1305.59 689.305 1300.95 691.739 1296.84C694.173 1292.72 697.535 1289.48 701.823 1287.1C706.112 1284.72 710.951 1283.54 716.34 1283.54C721.093 1283.54 725.236 1284.41 728.771 1286.14C732.307 1287.88 735.03 1290.35 736.943 1293.53C738.913 1296.66 739.898 1300.31 739.898 1304.49C739.898 1309.64 738.681 1314.28 736.247 1318.4C733.871 1322.51 730.51 1325.76 726.164 1328.13C721.875 1330.51 717.036 1331.7 711.646 1331.7ZM712.516 1320.48C715.123 1320.48 717.471 1319.84 719.557 1318.57C721.643 1317.24 723.266 1315.41 724.425 1313.09C725.584 1310.77 726.164 1308.11 726.164 1305.09C726.164 1301.91 725.236 1299.39 723.382 1297.53C721.527 1295.68 718.919 1294.75 715.558 1294.75C712.892 1294.75 710.516 1295.42 708.43 1296.75C706.343 1298.02 704.721 1299.82 703.562 1302.14C702.403 1304.46 701.823 1307.12 701.823 1310.14C701.823 1313.32 702.75 1315.85 704.605 1317.7C706.517 1319.55 709.154 1320.48 712.516 1320.48ZM800.514 1284.23L791.213 1331H778.347L779.304 1325.96C777.275 1327.87 774.957 1329.32 772.349 1330.3C769.741 1331.23 766.988 1331.7 764.091 1331.7C758.991 1331.7 754.905 1330.3 751.834 1327.52C748.82 1324.74 747.313 1320.83 747.313 1315.79C747.313 1313.87 747.516 1311.99 747.922 1310.14L753.051 1284.23H766.612L761.657 1309.27C761.425 1310.37 761.309 1311.5 761.309 1312.66C761.309 1317.53 763.917 1319.96 769.133 1319.96C772.552 1319.96 775.363 1318.97 777.565 1317C779.825 1314.98 781.361 1311.96 782.172 1307.96L786.953 1284.23H800.514ZM822.206 1314.48C822.09 1314.95 822.032 1315.58 822.032 1316.4C822.032 1319.41 823.683 1320.92 826.987 1320.92C828.783 1320.92 830.609 1320.37 832.463 1319.26L834.463 1328.91C831.449 1330.77 827.566 1331.7 822.814 1331.7C818.41 1331.7 814.874 1330.54 812.209 1328.22C809.543 1325.9 808.21 1322.71 808.21 1318.66C808.21 1317.5 808.355 1316.13 808.644 1314.57L812.382 1295.71H805.167L807.254 1285.27H814.469L816.729 1273.89H830.29L828.03 1285.27H839.678L837.592 1295.71H825.944L822.206 1314.48ZM897.971 1284.23L888.67 1331H875.804L876.76 1325.96C874.732 1327.87 872.414 1329.32 869.806 1330.3C867.198 1331.23 864.445 1331.7 861.548 1331.7C856.448 1331.7 852.362 1330.3 849.29 1327.52C846.277 1324.74 844.77 1320.83 844.77 1315.79C844.77 1313.87 844.973 1311.99 845.379 1310.14L850.507 1284.23H864.068L859.113 1309.27C858.882 1310.37 858.766 1311.5 858.766 1312.66C858.766 1317.53 861.374 1319.96 866.589 1319.96C870.009 1319.96 872.819 1318.97 875.022 1317C877.282 1314.98 878.818 1311.96 879.629 1307.96L884.41 1284.23H897.971ZM936.787 1283.54C940.439 1283.54 943.8 1284.38 946.871 1286.06C950.001 1287.74 952.464 1290.17 954.26 1293.36C956.115 1296.49 957.042 1300.2 957.042 1304.49C957.042 1309.64 955.883 1314.31 953.565 1318.48C951.305 1322.6 948.204 1325.84 944.263 1328.22C940.323 1330.54 935.947 1331.7 931.137 1331.7C927.486 1331.7 924.327 1331.06 921.662 1329.78C918.996 1328.51 916.938 1326.6 915.49 1324.05L914.099 1331H901.233L914.099 1266.5H927.66L923.313 1288.23C927.08 1285.1 931.572 1283.54 936.787 1283.54ZM929.572 1320.48C932.238 1320.48 934.614 1319.84 936.701 1318.57C938.787 1317.24 940.41 1315.41 941.569 1313.09C942.728 1310.77 943.307 1308.11 943.307 1305.09C943.307 1301.91 942.351 1299.39 940.439 1297.53C938.584 1295.68 935.976 1294.75 932.615 1294.75C930.007 1294.75 927.66 1295.42 925.573 1296.75C923.487 1298.02 921.864 1299.82 920.705 1302.14C919.546 1304.46 918.967 1307.12 918.967 1310.14C918.967 1313.32 919.894 1315.85 921.749 1317.7C923.603 1319.55 926.211 1320.48 929.572 1320.48ZM1012.02 1304.14C1012.02 1306.28 1011.76 1308.66 1011.24 1311.27H975.422C975.885 1317.64 979.913 1320.83 987.505 1320.83C989.881 1320.83 992.141 1320.45 994.286 1319.7C996.488 1318.95 998.4 1317.87 1000.02 1316.48L1005.67 1325.44C1003.07 1327.52 1000.08 1329.09 996.72 1330.13C993.358 1331.17 989.823 1331.7 986.114 1331.7C981.304 1331.7 977.073 1330.86 973.422 1329.17C969.829 1327.44 967.047 1324.97 965.077 1321.79C963.165 1318.6 962.208 1314.92 962.208 1310.75C962.208 1305.59 963.367 1300.95 965.686 1296.84C968.062 1292.66 971.336 1289.42 975.509 1287.1C979.681 1284.72 984.433 1283.54 989.765 1283.54C994.286 1283.54 998.197 1284.38 1001.5 1286.06C1004.86 1287.74 1007.44 1290.14 1009.24 1293.27C1011.09 1296.4 1012.02 1300.02 1012.02 1304.14ZM989.157 1293.71C985.969 1293.71 983.274 1294.58 981.072 1296.31C978.87 1298 977.305 1300.34 976.378 1303.36H999.588C999.588 1300.34 998.632 1298 996.72 1296.31C994.865 1294.58 992.344 1293.71 989.157 1293.71ZM1028.27 1300.49C1025.95 1300.49 1024.04 1299.76 1022.53 1298.31C1021.02 1296.81 1020.27 1294.92 1020.27 1292.66C1020.27 1290 1021.14 1287.82 1022.88 1286.14C1024.62 1284.46 1026.76 1283.62 1029.31 1283.62C1031.63 1283.62 1033.51 1284.35 1034.96 1285.8C1036.47 1287.25 1037.22 1289.13 1037.22 1291.45C1037.22 1294.05 1036.32 1296.23 1034.53 1297.97C1032.79 1299.65 1030.7 1300.49 1028.27 1300.49ZM1022.01 1331.7C1019.69 1331.7 1017.78 1330.97 1016.27 1329.52C1014.77 1328.02 1014.01 1326.13 1014.01 1323.87C1014.01 1321.21 1014.88 1319.03 1016.62 1317.35C1018.36 1315.67 1020.5 1314.83 1023.05 1314.83C1025.37 1314.83 1027.25 1315.56 1028.7 1317C1030.21 1318.45 1030.96 1320.34 1030.96 1322.65C1030.96 1325.26 1030.07 1327.44 1028.27 1329.17C1026.53 1330.86 1024.44 1331.7 1022.01 1331.7Z" fill="white"/>
<path d="M654.94 1384.6H637.036L639.194 1374.05H687.951L685.793 1384.6H667.969L658.856 1430H645.908L654.94 1384.6ZM716.499 1386.36C721.295 1386.36 725.105 1387.64 727.929 1390.19C730.753 1392.75 732.165 1396.38 732.165 1401.07C732.165 1402.77 731.979 1404.48 731.606 1406.18L726.81 1430H714.341L718.977 1406.98C719.19 1406.07 719.297 1405.09 719.297 1404.02C719.297 1401.78 718.684 1400.08 717.458 1398.91C716.233 1397.73 714.394 1397.15 711.943 1397.15C708.746 1397.15 706.082 1398.08 703.95 1399.95C701.872 1401.76 700.46 1404.5 699.714 1408.18L695.398 1430H682.929L694.758 1370.69H707.227L703.231 1390.91C706.908 1387.88 711.33 1386.36 716.499 1386.36ZM785.34 1405.3C785.34 1407.27 785.1 1409.46 784.621 1411.86H751.69C752.116 1417.72 755.819 1420.65 762.8 1420.65C764.985 1420.65 767.063 1420.3 769.034 1419.61C771.059 1418.92 772.818 1417.93 774.31 1416.65L779.505 1424.88C777.107 1426.8 774.363 1428.24 771.272 1429.2C768.182 1430.16 764.931 1430.64 761.521 1430.64C757.098 1430.64 753.208 1429.87 749.851 1428.32C746.547 1426.72 743.99 1424.46 742.178 1421.53C740.419 1418.6 739.54 1415.21 739.54 1411.38C739.54 1406.63 740.606 1402.37 742.737 1398.59C744.922 1394.75 747.933 1391.77 751.769 1389.64C755.606 1387.45 759.976 1386.36 764.878 1386.36C769.034 1386.36 772.631 1387.13 775.669 1388.68C778.759 1390.22 781.13 1392.43 782.782 1395.31C784.488 1398.19 785.34 1401.52 785.34 1405.3ZM764.318 1395.71C761.388 1395.71 758.91 1396.51 756.885 1398.11C754.86 1399.65 753.421 1401.81 752.569 1404.58H773.91C773.91 1401.81 773.031 1399.65 771.272 1398.11C769.567 1396.51 767.249 1395.71 764.318 1395.71ZM852.092 1418.01H826.035L818.761 1430H804.934L841.142 1374.05H853.931L867.679 1430H854.73L852.092 1418.01ZM849.934 1408.18L845.218 1386.6L832.03 1408.18H849.934ZM892.027 1392.11C893.892 1390.09 896.13 1388.62 898.741 1387.72C901.406 1386.81 904.523 1386.36 908.093 1386.36L905.855 1397.87C904.363 1397.76 903.404 1397.71 902.978 1397.71C899.194 1397.71 896.157 1398.64 893.866 1400.51C891.628 1402.37 890.109 1405.27 889.31 1409.22L885.153 1430H872.684L881.237 1387H893.066L892.027 1392.11ZM922.617 1430.64C918.887 1430.64 915.344 1430.24 911.987 1429.44C908.683 1428.59 906.098 1427.5 904.233 1426.16L909.029 1417.13C910.894 1418.36 913.159 1419.34 915.823 1420.09C918.541 1420.83 921.259 1421.21 923.976 1421.21C926.8 1421.21 928.905 1420.86 930.291 1420.17C931.676 1419.42 932.369 1418.38 932.369 1417.05C932.369 1415.99 931.756 1415.21 930.53 1414.73C929.305 1414.25 927.333 1413.75 924.616 1413.21C921.525 1412.63 918.967 1411.99 916.942 1411.3C914.971 1410.6 913.239 1409.48 911.747 1407.94C910.308 1406.34 909.589 1404.18 909.589 1401.46C909.589 1396.72 911.56 1393.02 915.504 1390.35C919.5 1387.69 924.722 1386.36 931.17 1386.36C934.154 1386.36 937.058 1386.68 939.882 1387.32C942.706 1387.96 945.104 1388.84 947.076 1389.96L942.6 1399.07C939.083 1396.88 934.847 1395.79 929.891 1395.79C927.173 1395.79 925.095 1396.19 923.656 1396.99C922.271 1397.79 921.578 1398.8 921.578 1400.03C921.578 1401.15 922.191 1401.97 923.417 1402.5C924.642 1402.98 926.694 1403.52 929.571 1404.1C932.609 1404.69 935.086 1405.33 937.005 1406.02C938.976 1406.66 940.682 1407.75 942.12 1409.3C943.559 1410.84 944.278 1412.95 944.278 1415.61C944.278 1420.41 942.253 1424.11 938.204 1426.72C934.207 1429.33 929.012 1430.64 922.617 1430.64ZM982.985 1386.36C987.78 1386.36 991.59 1387.64 994.414 1390.19C997.239 1392.75 998.651 1396.38 998.651 1401.07C998.651 1402.77 998.464 1404.48 998.091 1406.18L993.295 1430H980.826L985.462 1406.98C985.675 1406.07 985.782 1405.09 985.782 1404.02C985.782 1401.78 985.169 1400.08 983.944 1398.91C982.718 1397.73 980.88 1397.15 978.428 1397.15C975.231 1397.15 972.567 1398.08 970.435 1399.95C968.357 1401.76 966.945 1404.5 966.199 1408.18L961.883 1430H949.414L961.244 1370.69H973.713L969.716 1390.91C973.393 1387.88 977.816 1386.36 982.985 1386.36ZM1057.34 1387L1048.79 1430H1036.96L1037.76 1425.76C1034.19 1429.01 1029.79 1430.64 1024.57 1430.64C1021.21 1430.64 1018.12 1429.87 1015.3 1428.32C1012.47 1426.78 1010.21 1424.56 1008.5 1421.69C1006.85 1418.76 1006.03 1415.32 1006.03 1411.38C1006.03 1406.63 1007.06 1402.37 1009.14 1398.59C1011.27 1394.75 1014.15 1391.77 1017.78 1389.64C1021.4 1387.45 1025.4 1386.36 1029.76 1386.36C1036.37 1386.36 1041.03 1388.52 1043.75 1392.83L1044.87 1387H1057.34ZM1028.41 1420.33C1030.86 1420.33 1033.04 1419.74 1034.96 1418.57C1036.88 1417.34 1038.37 1415.67 1039.44 1413.53C1040.5 1411.4 1041.03 1408.95 1041.03 1406.18C1041.03 1403.25 1040.16 1400.93 1038.4 1399.23C1036.69 1397.52 1034.29 1396.67 1031.2 1396.67C1028.75 1396.67 1026.57 1397.28 1024.65 1398.51C1022.73 1399.68 1021.24 1401.33 1020.17 1403.46C1019.11 1405.59 1018.57 1408.05 1018.57 1410.82C1018.57 1413.75 1019.43 1416.07 1021.13 1417.77C1022.89 1419.48 1025.32 1420.33 1028.41 1420.33ZM1122.84 1386.36C1127.53 1386.36 1131.26 1387.64 1134.03 1390.19C1136.8 1392.7 1138.18 1396.27 1138.18 1400.91C1138.18 1402.61 1138 1404.37 1137.62 1406.18L1132.91 1430H1120.44L1125 1407.06C1125.21 1405.99 1125.32 1404.9 1125.32 1403.78C1125.32 1401.6 1124.73 1399.95 1123.56 1398.83C1122.44 1397.71 1120.76 1397.15 1118.52 1397.15C1112.5 1397.15 1108.74 1400.75 1107.25 1407.94L1102.86 1430H1090.39L1094.94 1407.06C1095.16 1405.99 1095.26 1404.93 1095.26 1403.86C1095.26 1401.68 1094.68 1400.03 1093.5 1398.91C1092.38 1397.73 1090.71 1397.15 1088.47 1397.15C1082.45 1397.15 1078.66 1400.8 1077.12 1408.1L1072.8 1430H1060.33L1068.88 1387H1080.71L1079.76 1391.47C1083.49 1388.06 1087.99 1386.36 1093.26 1386.36C1096.25 1386.36 1098.89 1386.97 1101.18 1388.2C1103.52 1389.37 1105.28 1391.1 1106.45 1393.39C1108.53 1391.1 1110.95 1389.37 1113.73 1388.2C1116.5 1386.97 1119.53 1386.36 1122.84 1386.36Z" fill="white"/>
</svg>
