<svg width="461" height="934" viewBox="0 0 461 934" fill="none" xmlns="http://www.w3.org/2000/svg">
<rect width="461" height="934" fill="#F9CC14"/>
<path d="M77.125 846.039V821.137H87.0859V846.039H82.1055V851.02H77.125V856H67.1641V851.02H62.1836V846.039H57.2031V821.137H67.1641V846.039H77.125ZM92.0664 856V821.137H102.027V856H92.0664ZM126.93 826.117H116.969V851.02H126.93V826.117ZM107.008 856V821.137H131.91V826.117H136.891V851.02H131.91V856H107.008ZM141.871 856V821.137H166.773V826.117H151.832V836.078H166.773V841.059H151.832V851.02H166.773V856H141.871ZM191.676 826.117H181.715V851.02H191.676V826.117ZM176.734 851.02H171.754V826.117H176.734V821.137H196.656V826.117H201.637V851.02H196.656V856H176.734V851.02ZM226.539 851.642V856H211.598V851.02H206.617V826.117H211.598V821.137H236.5V831.098H231.52V826.117H216.578V851.02H225.917L226.539 850.397V841.059H221.559V836.078H236.5V856H231.52V851.02H227.162L226.539 851.642ZM261.402 826.117H251.441V836.078H261.402V826.117ZM266.383 841.059H271.363V856H261.402V841.059H251.441V856H241.48V821.137H266.383V826.117H271.363V836.078H266.383V841.059ZM296.266 841.059V826.117H286.305V841.059H296.266ZM286.305 846.039V856H276.344V826.117H281.324V821.137H301.246V826.117H306.227V856H296.266V846.039H286.305ZM331.129 826.117H321.168V836.078H331.129V826.117ZM336.109 836.078V841.059H321.168V856H311.207V821.137H336.109V826.117H341.09V836.078H336.109ZM365.992 821.137H375.953V856H365.992V841.059H356.031V856H346.07V821.137H356.031V836.078H365.992V821.137ZM400.855 836.078V821.137H410.816V836.078H405.836V841.059H400.855V856H390.895V841.059H385.914V836.078H380.934V821.137H390.895V836.078H400.855Z" fill="white"/>
<path d="M77.125 846.039V821.137H87.0859V846.039H82.1055V851.02H77.125V856H67.1641V851.02H62.1836V846.039H57.2031V821.137H67.1641V846.039H77.125ZM92.0664 856V821.137H102.027V856H92.0664ZM126.93 826.117H116.969V851.02H126.93V826.117ZM107.008 856V821.137H131.91V826.117H136.891V851.02H131.91V856H107.008ZM141.871 856V821.137H166.773V826.117H151.832V836.078H166.773V841.059H151.832V851.02H166.773V856H141.871ZM191.676 826.117H181.715V851.02H191.676V826.117ZM176.734 851.02H171.754V826.117H176.734V821.137H196.656V826.117H201.637V851.02H196.656V856H176.734V851.02ZM226.539 851.642V856H211.598V851.02H206.617V826.117H211.598V821.137H236.5V831.098H231.52V826.117H216.578V851.02H225.917L226.539 850.397V841.059H221.559V836.078H236.5V856H231.52V851.02H227.162L226.539 851.642ZM261.402 826.117H251.441V836.078H261.402V826.117ZM266.383 841.059H271.363V856H261.402V841.059H251.441V856H241.48V821.137H266.383V826.117H271.363V836.078H266.383V841.059ZM296.266 841.059V826.117H286.305V841.059H296.266ZM286.305 846.039V856H276.344V826.117H281.324V821.137H301.246V826.117H306.227V856H296.266V846.039H286.305ZM331.129 826.117H321.168V836.078H331.129V826.117ZM336.109 836.078V841.059H321.168V856H311.207V821.137H336.109V826.117H341.09V836.078H336.109ZM365.992 821.137H375.953V856H365.992V841.059H356.031V856H346.07V821.137H356.031V836.078H365.992V821.137ZM400.855 836.078V821.137H410.816V836.078H405.836V841.059H400.855V856H390.895V841.059H385.914V836.078H380.934V821.137H390.895V836.078H400.855Z" fill="black"/>
<path fill-rule="evenodd" clip-rule="evenodd" d="M260.509 142.441V181.881H270.213H279.917V191.797V201.712H250.364H220.812V192.017V182.322H211.108H201.404V172.407V162.492H211.108H220.812V152.576V142.661H201.183H181.555V152.576V162.492H171.631H161.707V172.186V181.881H152.011H142.316L142.197 172.076L142.078 162.271H132.154H122.23L122.115 181.992L122 201.712H141.854H161.707V211.627V221.542H171.631H181.555V231.458V241.373H191.259H200.963V260.983V280.593H210.887H220.812V290.508V300.424H240.44H260.068V310.119V319.814H250.364H240.66V379.076V438.339L230.846 438.458L221.032 438.576L220.921 527.263L220.809 615.949H210.886H200.963V635.559V655.169H181.335H161.707V665.085V675H201.183H240.66V645.475V615.949H250.585H260.509V566.593V517.237H270.433H280.358V487.712V458.186H290.061H299.765V497.627V537.068H309.69H319.614V576.508V615.949H329.538H339.463V625.644V635.339H329.538H319.614V655.169V675H339.198H358.783L358.937 652.415C359.021 639.994 359.021 604.497 358.935 573.534L358.78 517.237H349.121H339.463V438.356V359.475H329.538H319.614V349.788V340.102L329.428 339.983L339.242 339.864L339.355 300.314L339.467 260.763H349.169H358.87V241.153V221.542H349.166H339.463V211.627V201.712H329.538H319.614V172.186V142.661H329.538H339.463V132.746V122.831H329.538H319.614V112.915V103H290.061H260.509V142.441ZM240.66 241.153V260.763H230.736H220.812V251.068V241.373H211.108H201.404V231.458V221.542H221.032H240.66V241.153Z" fill="#007AE0"/>
<rect x="318" y="337" width="21" height="36" fill="#007AE0"/>
<rect x="181" y="241" width="21" height="21" fill="#007AE0"/>
<rect x="122" y="142" width="62" height="43" fill="#007AE0"/>
<rect x="107" y="156" width="20" height="26" fill="#007AE0"/>
<rect x="176" y="125" width="24" height="24" fill="#007AE0"/>
</svg>
