<svg width="3010" height="1757" viewBox="0 0 3010 1757" fill="none" xmlns="http://www.w3.org/2000/svg">
<rect y="137" width="3010" height="1620" fill="#F9CC14"/>
<path d="M0 1757L3010 1267.5V1757H0Z" fill="#007AE0"/>
<path d="M480.462 415L387.432 562H354.042L319.812 415H354.882L378.612 519.79L445.182 415H480.462ZM492.735 415H526.965L497.565 562H463.335L492.735 415ZM561.641 415H623.171C638.151 415 651.031 417.52 661.811 422.56C672.731 427.46 681.061 434.53 686.801 443.77C692.681 453.01 695.621 463.86 695.621 476.32C695.621 493.4 691.771 508.45 684.071 521.47C676.371 534.35 665.591 544.36 651.731 551.5C638.011 558.5 622.121 562 604.061 562H532.241L561.641 415ZM605.111 534.07C616.591 534.07 626.531 531.69 634.931 526.93C643.471 522.03 649.981 515.38 654.461 506.98C658.941 498.44 661.181 488.85 661.181 478.21C661.181 467.15 657.611 458.54 650.471 452.38C643.331 446.08 632.971 442.93 619.391 442.93H590.201L571.931 534.07H605.111ZM763.487 442.3L757.187 474.22H825.437L820.187 500.68H751.727L745.007 534.7H825.227L819.557 562H705.737L735.137 415H846.227L840.557 442.3H763.487ZM922.446 564.52C907.746 564.52 895.006 561.86 884.226 556.54C873.446 551.22 865.186 543.73 859.446 534.07C853.706 524.41 850.836 513.28 850.836 500.68C850.836 484.02 854.616 469.04 862.176 455.74C869.876 442.3 880.586 431.73 894.306 424.03C908.166 416.33 923.986 412.48 941.766 412.48C956.466 412.48 969.206 415.14 979.986 420.46C990.766 425.78 999.026 433.27 1004.77 442.93C1010.51 452.59 1013.38 463.72 1013.38 476.32C1013.38 492.98 1009.53 508.03 1001.83 521.47C994.266 534.77 983.556 545.27 969.696 552.97C955.976 560.67 940.226 564.52 922.446 564.52ZM925.386 535.54C936.166 535.54 945.616 532.95 953.736 527.77C961.856 522.59 968.086 515.66 972.426 506.98C976.766 498.3 978.936 488.71 978.936 478.21C978.936 467.01 975.436 458.12 968.436 451.54C961.436 444.82 951.566 441.46 938.826 441.46C928.046 441.46 918.596 444.05 910.476 449.23C902.356 454.41 896.126 461.34 891.786 470.02C887.446 478.7 885.276 488.29 885.276 498.79C885.276 509.99 888.776 518.95 895.776 525.67C902.776 532.25 912.646 535.54 925.386 535.54ZM1160.16 564.52C1145.46 564.52 1132.58 561.86 1121.52 556.54C1110.6 551.22 1102.2 543.73 1096.32 534.07C1090.44 524.41 1087.5 513.28 1087.5 500.68C1087.5 484.02 1091.28 469.04 1098.84 455.74C1106.54 442.3 1117.32 431.73 1131.18 424.03C1145.04 416.33 1160.93 412.48 1178.85 412.48C1192.01 412.48 1203.63 414.72 1213.71 419.2C1223.79 423.68 1231.42 430.12 1236.6 438.52L1212.03 458.68C1204.19 447.2 1192.36 441.46 1176.54 441.46C1165.76 441.46 1156.24 443.98 1147.98 449.02C1139.72 454.06 1133.28 460.92 1128.66 469.6C1124.18 478.28 1121.94 487.94 1121.94 498.58C1121.94 509.92 1125.51 518.95 1132.65 525.67C1139.93 532.25 1150.08 535.54 1163.1 535.54C1178.64 535.54 1191.66 529.87 1202.16 518.53L1222.32 539.11C1207.76 556.05 1187.04 564.52 1160.16 564.52ZM1310.04 564.52C1295.34 564.52 1282.6 561.86 1271.82 556.54C1261.04 551.22 1252.78 543.73 1247.04 534.07C1241.3 524.41 1238.43 513.28 1238.43 500.68C1238.43 484.02 1242.21 469.04 1249.77 455.74C1257.47 442.3 1268.18 431.73 1281.9 424.03C1295.76 416.33 1311.58 412.48 1329.36 412.48C1344.06 412.48 1356.8 415.14 1367.58 420.46C1378.36 425.78 1386.62 433.27 1392.36 442.93C1398.1 452.59 1400.97 463.72 1400.97 476.32C1400.97 492.98 1397.12 508.03 1389.42 521.47C1381.86 534.77 1371.15 545.27 1357.29 552.97C1343.57 560.67 1327.82 564.52 1310.04 564.52ZM1312.98 535.54C1323.76 535.54 1333.21 532.95 1341.33 527.77C1349.45 522.59 1355.68 515.66 1360.02 506.98C1364.36 498.3 1366.53 488.71 1366.53 478.21C1366.53 467.01 1363.03 458.12 1356.03 451.54C1349.03 444.82 1339.16 441.46 1326.42 441.46C1315.64 441.46 1306.19 444.05 1298.07 449.23C1289.95 454.41 1283.72 461.34 1279.38 470.02C1275.04 478.7 1272.87 488.29 1272.87 498.79C1272.87 509.99 1276.37 518.95 1283.37 525.67C1290.37 532.25 1300.24 535.54 1312.98 535.54ZM1605.88 415L1576.69 562H1544.77L1561.99 474.64L1505.92 546.46H1490.8L1460.56 473.8L1442.92 562H1411L1440.4 415H1468.12L1504.87 506.56L1576.69 415H1605.88ZM1640.97 415H1675.2L1645.8 562H1611.57L1640.97 415ZM1844.69 415L1815.29 562H1787.36L1732.55 470.02L1714.07 562H1680.47L1709.87 415H1738.01L1792.82 507.19L1811.09 415H1844.69ZM1964.73 486.19H1995.81L1983.63 546.67C1976.21 552.41 1967.6 556.82 1957.8 559.9C1948 562.98 1937.85 564.52 1927.35 564.52C1912.65 564.52 1899.84 561.86 1888.92 556.54C1878 551.22 1869.53 543.73 1863.51 534.07C1857.63 524.41 1854.69 513.28 1854.69 500.68C1854.69 484.02 1858.54 468.97 1866.24 455.53C1873.94 442.09 1884.79 431.59 1898.79 424.03C1912.79 416.33 1928.89 412.48 1947.09 412.48C1961.09 412.48 1973.2 414.65 1983.42 418.99C1993.78 423.33 2002.11 429.7 2008.41 438.1L1984.05 457.84C1979.15 452.1 1973.62 447.97 1967.46 445.45C1961.3 442.79 1954.02 441.46 1945.62 441.46C1934.42 441.46 1924.55 443.98 1916.01 449.02C1907.47 453.92 1900.82 460.71 1896.06 469.39C1891.44 478.07 1889.13 487.8 1889.13 498.58C1889.13 509.92 1892.77 518.95 1900.05 525.67C1907.47 532.25 1918.04 535.54 1931.76 535.54C1940.44 535.54 1948.56 533.79 1956.12 530.29L1964.73 486.19ZM2122.8 564.52C2111.18 564.52 2100.05 562.98 2089.41 559.9C2078.77 556.82 2070.23 552.9 2063.79 548.14L2077.65 521.89C2084.37 526.79 2091.93 530.57 2100.33 533.23C2108.73 535.89 2117.34 537.22 2126.16 537.22C2135.54 537.22 2142.96 535.68 2148.42 532.6C2153.88 529.52 2156.61 525.32 2156.61 520C2156.61 515.66 2154.44 512.37 2150.1 510.13C2145.76 507.75 2138.83 505.23 2129.31 502.57C2119.79 499.77 2112.02 497.11 2106 494.59C2099.98 491.93 2094.73 488.01 2090.25 482.83C2085.91 477.65 2083.74 470.79 2083.74 462.25C2083.74 452.31 2086.47 443.56 2091.93 436C2097.53 428.44 2105.37 422.63 2115.45 418.57C2125.67 414.51 2137.5 412.48 2150.94 412.48C2160.88 412.48 2170.26 413.6 2179.08 415.84C2187.9 417.94 2195.46 421.02 2201.76 425.08L2188.95 451.12C2183.49 447.34 2177.33 444.54 2170.47 442.72C2163.61 440.76 2156.47 439.78 2149.05 439.78C2139.39 439.78 2131.76 441.46 2126.16 444.82C2120.56 448.18 2117.76 452.52 2117.76 457.84C2117.76 461.06 2118.95 463.79 2121.33 466.03C2123.71 468.13 2126.72 469.88 2130.36 471.28C2134 472.54 2139.11 474.08 2145.69 475.9C2155.07 478.42 2162.77 481.01 2168.79 483.67C2174.81 486.19 2179.92 489.97 2184.12 495.01C2188.46 499.91 2190.63 506.42 2190.63 514.54C2190.63 524.62 2187.83 533.44 2182.23 541C2176.63 548.42 2168.72 554.23 2158.5 558.43C2148.28 562.49 2136.38 564.52 2122.8 564.52ZM2281.7 564.52C2267 564.52 2254.26 561.86 2243.48 556.54C2232.7 551.22 2224.44 543.73 2218.7 534.07C2212.96 524.41 2210.09 513.28 2210.09 500.68C2210.09 484.02 2213.87 469.04 2221.43 455.74C2229.13 442.3 2239.84 431.73 2253.56 424.03C2267.42 416.33 2283.24 412.48 2301.02 412.48C2315.72 412.48 2328.46 415.14 2339.24 420.46C2350.02 425.78 2358.28 433.27 2364.02 442.93C2369.76 452.59 2372.63 463.72 2372.63 476.32C2372.63 492.98 2368.78 508.03 2361.08 521.47C2353.52 534.77 2342.81 545.27 2328.95 552.97C2315.23 560.67 2299.48 564.52 2281.7 564.52ZM2284.64 535.54C2295.42 535.54 2304.87 532.95 2312.99 527.77C2321.11 522.59 2327.34 515.66 2331.68 506.98C2336.02 498.3 2338.19 488.71 2338.19 478.21C2338.19 467.01 2334.69 458.12 2327.69 451.54C2320.69 444.82 2310.82 441.46 2298.08 441.46C2287.3 441.46 2277.85 444.05 2269.73 449.23C2261.61 454.41 2255.38 461.34 2251.04 470.02C2246.7 478.7 2244.53 488.29 2244.53 498.79C2244.53 509.99 2248.03 518.95 2255.03 525.67C2262.03 532.25 2271.9 535.54 2284.64 535.54ZM2458.89 564.52C2444.19 564.52 2431.45 561.86 2420.67 556.54C2409.89 551.22 2401.63 543.73 2395.89 534.07C2390.15 524.41 2387.28 513.28 2387.28 500.68C2387.28 484.02 2391.06 469.04 2398.62 455.74C2406.32 442.3 2417.03 431.73 2430.75 424.03C2444.61 416.33 2460.43 412.48 2478.21 412.48C2492.91 412.48 2505.65 415.14 2516.43 420.46C2527.21 425.78 2535.47 433.27 2541.21 442.93C2546.95 452.59 2549.82 463.72 2549.82 476.32C2549.82 492.98 2545.97 508.03 2538.27 521.47C2530.71 534.77 2520 545.27 2506.14 552.97C2492.42 560.67 2476.67 564.52 2458.89 564.52ZM2461.83 535.54C2472.61 535.54 2482.06 532.95 2490.18 527.77C2498.3 522.59 2504.53 515.66 2508.87 506.98C2513.21 498.3 2515.38 488.71 2515.38 478.21C2515.38 467.01 2511.88 458.12 2504.88 451.54C2497.88 444.82 2488.01 441.46 2475.27 441.46C2464.49 441.46 2455.04 444.05 2446.92 449.23C2438.8 454.41 2432.57 461.34 2428.23 470.02C2423.89 478.7 2421.72 488.29 2421.72 498.79C2421.72 509.99 2425.22 518.95 2432.22 525.67C2439.22 532.25 2449.09 535.54 2461.83 535.54ZM2724.07 415L2694.67 562H2666.74L2611.93 470.02L2593.45 562H2559.85L2589.25 415H2617.39L2672.2 507.19L2690.47 415H2724.07Z" fill="black"/>
<path d="M390.832 776.932C381.923 776.932 373.39 775.751 365.233 773.39C357.076 771.029 350.528 768.023 345.591 764.374L356.217 744.249C361.369 748.006 367.165 750.904 373.605 752.943C380.045 754.982 386.646 756.002 393.408 756.002C400.599 756.002 406.288 754.821 410.474 752.46C414.66 750.099 416.753 746.879 416.753 742.8C416.753 739.473 415.089 736.95 411.762 735.233C408.435 733.408 403.122 731.476 395.823 729.437C388.524 727.29 382.567 725.251 377.952 723.319C373.337 721.28 369.312 718.274 365.877 714.303C362.55 710.332 360.886 705.072 360.886 698.525C360.886 690.904 362.979 684.196 367.165 678.4C371.458 672.604 377.469 668.15 385.197 665.037C393.032 661.924 402.102 660.368 412.406 660.368C420.027 660.368 427.218 661.227 433.98 662.944C440.742 664.554 446.538 666.915 451.368 670.028L441.547 689.992C437.361 687.094 432.638 684.947 427.379 683.552C422.12 682.049 416.646 681.298 410.957 681.298C403.551 681.298 397.701 682.586 393.408 685.162C389.115 687.738 386.968 691.065 386.968 695.144C386.968 697.613 387.88 699.706 389.705 701.423C391.53 703.033 393.837 704.375 396.628 705.448C399.419 706.414 403.336 707.595 408.381 708.99C415.572 710.922 421.476 712.908 426.091 714.947C430.706 716.879 434.624 719.777 437.844 723.641C441.171 727.398 442.835 732.389 442.835 738.614C442.835 746.342 440.688 753.104 436.395 758.9C432.102 764.589 426.037 769.043 418.202 772.263C410.367 775.376 401.243 776.932 390.832 776.932ZM497.848 776.288C489.154 776.288 481.48 774.678 474.825 771.458C468.278 768.238 463.179 763.73 459.53 757.934C455.988 752.031 454.217 745.215 454.217 737.487C454.217 727.934 456.471 719.348 460.979 711.727C465.487 704.106 471.712 698.096 479.655 693.695C487.598 689.294 496.56 687.094 506.542 687.094C515.343 687.094 523.018 688.704 529.565 691.924C536.112 695.144 541.157 699.706 544.699 705.609C548.348 711.405 550.173 718.167 550.173 725.895C550.173 735.448 547.919 744.034 543.411 751.655C539.01 759.276 532.785 765.286 524.735 769.687C516.792 774.088 507.83 776.288 497.848 776.288ZM499.458 755.519C504.288 755.519 508.635 754.338 512.499 751.977C516.363 749.508 519.368 746.127 521.515 741.834C523.662 737.541 524.735 732.603 524.735 727.022C524.735 721.119 523.018 716.45 519.583 713.015C516.148 709.58 511.318 707.863 505.093 707.863C500.156 707.863 495.755 709.097 491.891 711.566C488.027 713.927 485.022 717.255 482.875 721.548C480.728 725.841 479.655 730.779 479.655 736.36C479.655 742.263 481.372 746.932 484.807 750.367C488.349 753.802 493.233 755.519 499.458 755.519ZM596.911 698.686C600.667 694.607 605.175 691.656 610.435 689.831C615.801 688.006 622.08 687.094 629.272 687.094L624.764 710.278C621.758 710.063 619.826 709.956 618.968 709.956C611.347 709.956 605.229 711.834 600.614 715.591C596.106 719.348 593.047 725.197 591.437 733.14L583.065 775H557.949L575.176 688.382H599.004L596.911 698.686ZM665.619 698.686C669.375 694.607 673.883 691.656 679.143 689.831C684.509 688.006 690.788 687.094 697.98 687.094L693.472 710.278C690.466 710.063 688.534 709.956 687.676 709.956C680.055 709.956 673.937 711.834 669.322 715.591C664.814 719.348 661.755 725.197 660.145 733.14L651.773 775H626.657L643.884 688.382H667.712L665.619 698.686ZM801.553 688.382L743.915 780.796C737.69 790.885 731.625 797.862 725.722 801.726C719.926 805.59 712.788 807.522 704.309 807.522C699.801 807.522 695.4 806.824 691.107 805.429C686.706 804.034 683.272 802.209 680.803 799.955L692.395 781.923C696.259 785.465 700.874 787.236 706.241 787.236C709.461 787.236 712.252 786.431 714.613 784.821C716.974 783.211 719.389 780.474 721.858 776.61L722.663 775.161L702.699 688.382H727.815L740.695 747.308L776.759 688.382H801.553ZM898.935 674.053C895.071 674.053 892.012 675.126 889.758 677.273C887.612 679.312 886.109 682.586 885.25 687.094L884.606 690.314H906.663L902.799 709.634H881.386L868.345 775H843.229L856.27 709.634H842.746L846.61 690.314H860.134L861.1 685.323C863.14 675.663 867.326 668.096 873.658 662.622C880.098 657.041 888.47 654.25 898.774 654.25C902.638 654.25 906.288 654.679 909.722 655.538C913.264 656.397 916.27 657.577 918.738 659.08L908.917 677.112C906.234 675.073 902.907 674.053 898.935 674.053ZM946.572 776.288C937.878 776.288 930.204 774.678 923.549 771.458C917.002 768.238 911.904 763.73 908.254 757.934C904.712 752.031 902.941 745.215 902.941 737.487C902.941 727.934 905.195 719.348 909.703 711.727C914.211 704.106 920.437 698.096 928.379 693.695C936.322 689.294 945.284 687.094 955.266 687.094C964.068 687.094 971.742 688.704 978.289 691.924C984.837 695.144 989.881 699.706 993.423 705.609C997.073 711.405 998.897 718.167 998.897 725.895C998.897 735.448 996.643 744.034 992.135 751.655C987.735 759.276 981.509 765.286 973.459 769.687C965.517 774.088 956.554 776.288 946.572 776.288ZM948.182 755.519C953.012 755.519 957.359 754.338 961.223 751.977C965.087 749.508 968.093 746.127 970.239 741.834C972.386 737.541 973.459 732.603 973.459 727.022C973.459 721.119 971.742 716.45 968.307 713.015C964.873 709.58 960.043 707.863 953.817 707.863C948.88 707.863 944.479 709.097 940.615 711.566C936.751 713.927 933.746 717.255 931.599 721.548C929.453 725.841 928.379 730.779 928.379 736.36C928.379 742.263 930.097 746.932 933.531 750.367C937.073 753.802 941.957 755.519 948.182 755.519ZM1045.64 698.686C1049.39 694.607 1053.9 691.656 1059.16 689.831C1064.53 688.006 1070.8 687.094 1078 687.094L1073.49 710.278C1070.48 710.063 1068.55 709.956 1067.69 709.956C1060.07 709.956 1053.95 711.834 1049.34 715.591C1044.83 719.348 1041.77 725.197 1040.16 733.14L1031.79 775H1006.67L1023.9 688.382H1047.73L1045.64 698.686ZM1155.74 744.41C1155.52 745.269 1155.42 746.449 1155.42 747.952C1155.42 753.533 1158.47 756.324 1164.59 756.324C1167.92 756.324 1171.3 755.304 1174.74 753.265L1178.44 771.136C1172.86 774.571 1165.67 776.288 1156.86 776.288C1148.71 776.288 1142.16 774.141 1137.22 769.848C1132.29 765.555 1129.82 759.651 1129.82 752.138C1129.82 749.991 1130.09 747.469 1130.62 744.571L1137.54 709.634H1124.18L1128.05 690.314H1141.41L1145.59 669.223H1170.71L1166.52 690.314H1188.1L1184.23 709.634H1162.66L1155.74 744.41ZM1259.19 687.094C1268.85 687.094 1276.53 689.67 1282.21 694.822C1287.9 699.974 1290.75 707.273 1290.75 716.718C1290.75 720.153 1290.37 723.587 1289.62 727.022L1279.96 775H1254.84L1264.18 728.632C1264.61 726.807 1264.83 724.822 1264.83 722.675C1264.83 718.167 1263.59 714.732 1261.12 712.371C1258.66 710.01 1254.95 708.829 1250.01 708.829C1243.57 708.829 1238.21 710.707 1233.91 714.464C1229.73 718.113 1226.88 723.641 1225.38 731.047L1216.69 775H1191.57L1215.4 655.538H1240.52L1232.47 696.271C1239.87 690.153 1248.78 687.094 1259.19 687.094ZM1397.86 725.251C1397.86 729.222 1397.37 733.623 1396.41 738.453H1330.07C1330.93 750.26 1338.39 756.163 1352.45 756.163C1356.85 756.163 1361.04 755.465 1365.01 754.07C1369.09 752.675 1372.63 750.689 1375.64 748.113L1386.1 764.696C1381.27 768.56 1375.74 771.458 1369.52 773.39C1363.29 775.322 1356.75 776.288 1349.88 776.288C1340.97 776.288 1333.13 774.732 1326.37 771.619C1319.72 768.399 1314.56 763.837 1310.92 757.934C1307.37 752.031 1305.6 745.215 1305.6 737.487C1305.6 727.934 1307.75 719.348 1312.04 711.727C1316.44 703.999 1322.51 697.988 1330.24 693.695C1337.96 689.294 1346.76 687.094 1356.64 687.094C1365.01 687.094 1372.26 688.65 1378.37 691.763C1384.6 694.876 1389.38 699.33 1392.7 705.126C1396.14 710.922 1397.86 717.63 1397.86 725.251ZM1355.51 705.931C1349.61 705.931 1344.62 707.541 1340.54 710.761C1336.46 713.874 1333.56 718.221 1331.85 723.802H1374.83C1374.83 718.221 1373.06 713.874 1369.52 710.761C1366.08 707.541 1361.42 705.931 1355.51 705.931ZM1467.75 688.382H1492.71L1475.48 775H1450.52L1467.75 688.382ZM1484.49 676.307C1480.2 676.307 1476.66 675.073 1473.87 672.604C1471.19 670.028 1469.84 666.915 1469.84 663.266C1469.84 658.973 1471.35 655.431 1474.35 652.64C1477.46 649.742 1481.49 648.293 1486.43 648.293C1490.83 648.293 1494.37 649.527 1497.05 651.996C1499.84 654.357 1501.24 657.309 1501.24 660.851C1501.24 665.466 1499.68 669.223 1496.57 672.121C1493.46 674.912 1489.43 676.307 1484.49 676.307ZM1566.41 687.094C1576.07 687.094 1583.75 689.67 1589.44 694.822C1595.12 699.867 1597.97 707.112 1597.97 716.557C1597.97 720.099 1597.59 723.587 1596.84 727.022L1587.18 775H1562.07L1571.4 728.632C1571.83 726.807 1572.05 724.822 1572.05 722.675C1572.05 718.167 1570.81 714.732 1568.34 712.371C1565.88 710.01 1562.17 708.829 1557.24 708.829C1550.8 708.829 1545.43 710.707 1541.14 714.464C1536.95 718.113 1534.11 723.641 1532.6 731.047L1523.91 775H1498.79L1516.02 688.382H1539.85L1537.92 697.72C1545.64 690.636 1555.14 687.094 1566.41 687.094ZM1656.78 776.288C1647.87 776.288 1640.09 774.678 1633.43 771.458C1626.78 768.238 1621.62 763.73 1617.98 757.934C1614.43 752.031 1612.66 745.215 1612.66 737.487C1612.66 727.934 1614.92 719.348 1619.42 711.727C1623.93 704.106 1630.21 698.096 1638.26 693.695C1646.31 689.294 1655.38 687.094 1665.47 687.094C1674.7 687.094 1682.64 689.026 1689.3 692.89C1696.06 696.647 1701.1 702.013 1704.43 708.99L1683.18 719.616C1679.42 711.781 1672.98 707.863 1663.86 707.863C1658.92 707.863 1654.47 709.097 1650.5 711.566C1646.63 713.927 1643.57 717.255 1641.32 721.548C1639.17 725.841 1638.1 730.725 1638.1 736.199C1638.1 742.102 1639.87 746.825 1643.41 750.367C1646.96 753.802 1651.89 755.519 1658.23 755.519C1667.46 755.519 1674.54 751.655 1679.48 743.927L1697.99 755.519C1693.81 762.066 1688.06 767.165 1680.77 770.814C1673.57 774.463 1665.58 776.288 1656.78 776.288ZM1750.31 776.288C1741.62 776.288 1733.95 774.678 1727.29 771.458C1720.74 768.238 1715.65 763.73 1712 757.934C1708.45 752.031 1706.68 745.215 1706.68 737.487C1706.68 727.934 1708.94 719.348 1713.45 711.727C1717.95 704.106 1724.18 698.096 1732.12 693.695C1740.06 689.294 1749.03 687.094 1759.01 687.094C1767.81 687.094 1775.48 688.704 1782.03 691.924C1788.58 695.144 1793.62 699.706 1797.17 705.609C1800.81 711.405 1802.64 718.167 1802.64 725.895C1802.64 735.448 1800.39 744.034 1795.88 751.655C1791.48 759.276 1785.25 765.286 1777.2 769.687C1769.26 774.088 1760.3 776.288 1750.31 776.288ZM1751.92 755.519C1756.75 755.519 1761.1 754.338 1764.97 751.977C1768.83 749.508 1771.83 746.127 1773.98 741.834C1776.13 737.541 1777.2 732.603 1777.2 727.022C1777.2 721.119 1775.48 716.45 1772.05 713.015C1768.61 709.58 1763.78 707.863 1757.56 707.863C1752.62 707.863 1748.22 709.097 1744.36 711.566C1740.49 713.927 1737.49 717.255 1735.34 721.548C1733.19 725.841 1732.12 730.779 1732.12 736.36C1732.12 742.263 1733.84 746.932 1737.27 750.367C1740.82 753.802 1745.7 755.519 1751.92 755.519ZM1878.04 687.094C1887.7 687.094 1895.37 689.67 1901.06 694.822C1906.75 699.867 1909.59 707.112 1909.59 716.557C1909.59 720.099 1909.22 723.587 1908.46 727.022L1898.8 775H1873.69L1883.03 728.632C1883.46 726.807 1883.67 724.822 1883.67 722.675C1883.67 718.167 1882.44 714.732 1879.97 712.371C1877.5 710.01 1873.8 708.829 1868.86 708.829C1862.42 708.829 1857.05 710.707 1852.76 714.464C1848.57 718.113 1845.73 723.641 1844.23 731.047L1835.53 775H1810.42L1827.64 688.382H1851.47L1849.54 697.72C1857.27 690.636 1866.77 687.094 1878.04 687.094ZM2023.36 688.382L1969.59 775H1943.67L1924.51 688.382H1949.3L1961.86 747.469L1998.24 688.382H2023.36ZM2108.05 725.251C2108.05 729.222 2107.56 733.623 2106.6 738.453H2040.27C2041.13 750.26 2048.59 756.163 2062.65 756.163C2067.05 756.163 2071.23 755.465 2075.2 754.07C2079.28 752.675 2082.82 750.689 2085.83 748.113L2096.29 764.696C2091.46 768.56 2085.94 771.458 2079.71 773.39C2073.49 775.322 2066.94 776.288 2060.07 776.288C2051.16 776.288 2043.33 774.732 2036.56 771.619C2029.91 768.399 2024.76 763.837 2021.11 757.934C2017.57 752.031 2015.79 745.215 2015.79 737.487C2015.79 727.934 2017.94 719.348 2022.23 711.727C2026.64 703.999 2032.7 697.988 2040.43 693.695C2048.16 689.294 2056.96 687.094 2066.83 687.094C2075.2 687.094 2082.45 688.65 2088.57 691.763C2094.79 694.876 2099.57 699.33 2102.9 705.126C2106.33 710.922 2108.05 717.63 2108.05 725.251ZM2065.7 705.931C2059.8 705.931 2054.81 707.541 2050.73 710.761C2046.65 713.874 2043.76 718.221 2042.04 723.802H2085.02C2085.02 718.221 2083.25 713.874 2079.71 710.761C2076.28 707.541 2071.61 705.931 2065.7 705.931ZM2182.74 687.094C2192.4 687.094 2200.07 689.67 2205.76 694.822C2211.45 699.867 2214.3 707.112 2214.3 716.557C2214.3 720.099 2213.92 723.587 2213.17 727.022L2203.51 775H2178.39L2187.73 728.632C2188.16 726.807 2188.38 724.822 2188.38 722.675C2188.38 718.167 2187.14 714.732 2184.67 712.371C2182.2 710.01 2178.5 708.829 2173.56 708.829C2167.12 708.829 2161.76 710.707 2157.46 714.464C2153.28 718.113 2150.43 723.641 2148.93 731.047L2140.24 775H2115.12L2132.35 688.382H2156.18L2154.24 697.72C2161.97 690.636 2171.47 687.094 2182.74 687.094ZM2243.66 688.382H2268.62L2251.39 775H2226.44L2243.66 688.382ZM2260.41 676.307C2256.11 676.307 2252.57 675.073 2249.78 672.604C2247.1 670.028 2245.76 666.915 2245.76 663.266C2245.76 658.973 2247.26 655.431 2250.26 652.64C2253.38 649.742 2257.4 648.293 2262.34 648.293C2266.74 648.293 2270.28 649.527 2272.97 651.996C2275.76 654.357 2277.15 657.309 2277.15 660.851C2277.15 665.466 2275.6 669.223 2272.48 672.121C2269.37 674.912 2265.35 676.307 2260.41 676.307ZM2368.73 725.251C2368.73 729.222 2368.25 733.623 2367.28 738.453H2300.95C2301.81 750.26 2309.27 756.163 2323.33 756.163C2327.73 756.163 2331.91 755.465 2335.89 754.07C2339.96 752.675 2343.51 750.689 2346.51 748.113L2356.98 764.696C2352.15 768.56 2346.62 771.458 2340.39 773.39C2334.17 775.322 2327.62 776.288 2320.75 776.288C2311.84 776.288 2304.01 774.732 2297.25 771.619C2290.59 768.399 2285.44 763.837 2281.79 757.934C2278.25 752.031 2276.48 745.215 2276.48 737.487C2276.48 727.934 2278.62 719.348 2282.92 711.727C2287.32 703.999 2293.38 697.988 2301.11 693.695C2308.84 689.294 2317.64 687.094 2327.51 687.094C2335.89 687.094 2343.13 688.65 2349.25 691.763C2355.47 694.876 2360.25 699.33 2363.58 705.126C2367.01 710.922 2368.73 717.63 2368.73 725.251ZM2326.39 705.931C2320.48 705.931 2315.49 707.541 2311.41 710.761C2307.33 713.874 2304.44 718.221 2302.72 723.802H2345.71C2345.71 718.221 2343.94 713.874 2340.39 710.761C2336.96 707.541 2332.29 705.931 2326.39 705.931ZM2443.42 687.094C2453.08 687.094 2460.76 689.67 2466.45 694.822C2472.13 699.867 2474.98 707.112 2474.98 716.557C2474.98 720.099 2474.6 723.587 2473.85 727.022L2464.19 775H2439.08L2448.41 728.632C2448.84 726.807 2449.06 724.822 2449.06 722.675C2449.06 718.167 2447.82 714.732 2445.35 712.371C2442.89 710.01 2439.18 708.829 2434.25 708.829C2427.81 708.829 2422.44 710.707 2418.15 714.464C2413.96 718.113 2411.11 723.641 2409.61 731.047L2400.92 775H2375.8L2393.03 688.382H2416.86L2414.93 697.72C2422.65 690.636 2432.15 687.094 2443.42 687.094ZM2533.79 776.288C2524.88 776.288 2517.1 774.678 2510.44 771.458C2503.79 768.238 2498.63 763.73 2494.98 757.934C2491.44 752.031 2489.67 745.215 2489.67 737.487C2489.67 727.934 2491.93 719.348 2496.43 711.727C2500.94 704.106 2507.22 698.096 2515.27 693.695C2523.32 689.294 2532.39 687.094 2542.48 687.094C2551.71 687.094 2559.65 689.026 2566.31 692.89C2573.07 696.647 2578.11 702.013 2581.44 708.99L2560.19 719.616C2556.43 711.781 2549.99 707.863 2540.87 707.863C2535.93 707.863 2531.48 709.097 2527.51 711.566C2523.64 713.927 2520.58 717.255 2518.33 721.548C2516.18 725.841 2515.11 730.725 2515.11 736.199C2515.11 742.102 2516.88 746.825 2520.42 750.367C2523.96 753.802 2528.9 755.519 2535.23 755.519C2544.47 755.519 2551.55 751.655 2556.49 743.927L2575 755.519C2570.82 762.066 2565.07 767.165 2557.77 770.814C2550.58 774.463 2542.59 776.288 2533.79 776.288ZM2676.11 725.251C2676.11 729.222 2675.62 733.623 2674.66 738.453H2608.33C2609.19 750.26 2616.64 756.163 2630.71 756.163C2635.11 756.163 2639.29 755.465 2643.26 754.07C2647.34 752.675 2650.88 750.689 2653.89 748.113L2664.35 764.696C2659.52 768.56 2654 771.458 2647.77 773.39C2641.55 775.322 2635 776.288 2628.13 776.288C2619.22 776.288 2611.39 774.732 2604.62 771.619C2597.97 768.399 2592.82 763.837 2589.17 757.934C2585.63 752.031 2583.85 745.215 2583.85 737.487C2583.85 727.934 2586 719.348 2590.29 711.727C2594.7 703.999 2600.76 697.988 2608.49 693.695C2616.22 689.294 2625.02 687.094 2634.89 687.094C2643.26 687.094 2650.51 688.65 2656.63 691.763C2662.85 694.876 2667.63 699.33 2670.96 705.126C2674.39 710.922 2676.11 717.63 2676.11 725.251ZM2633.76 705.931C2627.86 705.931 2622.87 707.541 2618.79 710.761C2614.71 713.874 2611.81 718.221 2610.1 723.802H2653.08C2653.08 718.221 2651.31 713.874 2647.77 710.761C2644.34 707.541 2639.67 705.931 2633.76 705.931Z" fill="black"/>
<path d="M2511.56 1347.2L2802.97 1300.47L2628.98 1156.77L2484.61 1351.52L2511.56 1347.2Z" fill="#007AE0"/>
<path d="M1942.88 1438.4L2234.28 1391.67L2060.3 1247.96L1915.92 1442.72L1942.88 1438.4Z" fill="#007AE0"/>
<path d="M2273.17 1386.82L2442.37 1359.68L2341.35 1276.24L2257.52 1389.33L2273.17 1386.82Z" fill="#007AE0"/>
<path d="M2379.57 1234.13L2548.77 1207L2464.94 1320.08L2363.91 1236.64L2379.57 1234.13Z" fill="#007AE0"/>
<path d="M2337.55 1193.81L2596.06 1152.36L2441.71 1024.88L2313.64 1197.65L2337.55 1193.81Z" fill="#007AE0"/>
<path d="M2047.12 1189.12L2246.91 1354.14L2228.33 1141.83L2028.63 1173.85L2047.12 1189.12Z" fill="#007AE0"/>
</svg>
