<svg width="547" height="821" viewBox="0 0 547 821" fill="none" xmlns="http://www.w3.org/2000/svg">
<path d="M0.163086 820.214H546.527V114.972H0.163086V820.214Z" fill="#F9CC14"/>
<path d="M391.683 115.135L499.082 115.549L447.177 60.246L381.747 115.097L391.683 115.135Z" fill="#F9CC14"/>
<path d="M182.547 115.078L289.946 115.491L238.042 60.1882L172.612 115.039L182.547 115.078Z" fill="#F9CC14"/>
<path d="M304.177 115.99L366.538 116.23L336.4 84.1187L298.408 115.968L304.177 115.99Z" fill="#F9CC14"/>
<path d="M353.049 72.6287L415.41 72.8685L377.418 104.718L347.28 72.6065L353.049 72.6287Z" fill="#F9CC14"/>
<path d="M340.916 57.4727L436.189 57.8392L390.145 8.78052L332.102 57.4388L340.916 57.4727Z" fill="#F9CC14"/>
<path d="M237.524 40.6135L297.127 104.118L305.611 35.0217L269.209 34.7386L232.01 34.7386L237.524 40.6135Z" fill="#F9CC14"/>
<path d="M103 250.4H109.194L103.874 277H97.6801L103 250.4ZM131.323 277.304C129.22 277.304 127.383 276.924 125.813 276.164C124.242 275.404 123.026 274.34 122.165 272.972C121.329 271.579 120.911 269.97 120.911 268.146C120.911 265.891 121.443 263.865 122.507 262.066C123.571 260.267 125.053 258.849 126.953 257.81C128.853 256.771 130.993 256.252 133.375 256.252C135.553 256.252 137.428 256.708 138.999 257.62C140.595 258.507 141.785 259.773 142.571 261.42L137.555 263.928C136.668 262.079 135.148 261.154 132.995 261.154C131.829 261.154 130.778 261.445 129.841 262.028C128.929 262.585 128.207 263.371 127.675 264.384C127.168 265.397 126.915 266.55 126.915 267.842C126.915 269.235 127.333 270.35 128.169 271.186C129.005 271.997 130.17 272.402 131.665 272.402C133.843 272.402 135.515 271.49 136.681 269.666L141.051 272.402C140.063 273.947 138.707 275.151 136.985 276.012C135.287 276.873 133.4 277.304 131.323 277.304ZM167.536 256.556L163.47 277H157.846L158.226 274.986C156.529 276.531 154.439 277.304 151.956 277.304C150.36 277.304 148.891 276.937 147.548 276.202C146.205 275.467 145.129 274.416 144.318 273.048C143.533 271.655 143.14 270.021 143.14 268.146C143.14 265.891 143.634 263.865 144.622 262.066C145.635 260.242 147.003 258.823 148.726 257.81C150.449 256.771 152.349 256.252 154.426 256.252C157.567 256.252 159.784 257.278 161.076 259.33L161.608 256.556H167.536ZM153.78 272.402C154.945 272.402 155.984 272.123 156.896 271.566C157.808 270.983 158.517 270.185 159.024 269.172C159.531 268.159 159.784 266.993 159.784 265.676C159.784 264.283 159.366 263.181 158.53 262.37C157.719 261.559 156.579 261.154 155.11 261.154C153.945 261.154 152.906 261.445 151.994 262.028C151.082 262.585 150.373 263.371 149.866 264.384C149.359 265.397 149.106 266.563 149.106 267.88C149.106 269.273 149.511 270.375 150.322 271.186C151.158 271.997 152.311 272.402 153.78 272.402ZM184.918 256.252C187.198 256.252 189.01 256.86 190.352 258.076C191.695 259.267 192.366 260.977 192.366 263.206C192.366 264.042 192.278 264.865 192.1 265.676L189.82 277H183.892L186.096 266.056C186.198 265.625 186.248 265.157 186.248 264.65C186.248 263.586 185.957 262.775 185.374 262.218C184.792 261.661 183.918 261.382 182.752 261.382C181.232 261.382 179.966 261.825 178.952 262.712C177.964 263.573 177.293 264.878 176.938 266.626L174.886 277H168.958L173.024 256.556H178.648L178.192 258.76C180.016 257.088 182.258 256.252 184.918 256.252ZM232.403 248.804L226.779 277H221.155L221.573 274.948C219.851 276.519 217.761 277.304 215.303 277.304C213.707 277.304 212.238 276.937 210.895 276.202C209.553 275.467 208.476 274.416 207.665 273.048C206.88 271.655 206.487 270.021 206.487 268.146C206.487 265.891 206.981 263.865 207.969 262.066C208.983 260.242 210.351 258.823 212.073 257.81C213.796 256.771 215.696 256.252 217.773 256.252C219.268 256.252 220.573 256.505 221.687 257.012C222.827 257.519 223.727 258.266 224.385 259.254L226.475 248.804H232.403ZM217.127 272.402C218.293 272.402 219.331 272.123 220.243 271.566C221.155 270.983 221.865 270.185 222.371 269.172C222.878 268.159 223.131 266.993 223.131 265.676C223.131 264.283 222.713 263.181 221.877 262.37C221.067 261.559 219.927 261.154 218.457 261.154C217.292 261.154 216.253 261.445 215.341 262.028C214.429 262.585 213.72 263.371 213.213 264.384C212.707 265.397 212.453 266.563 212.453 267.88C212.453 269.273 212.859 270.375 213.669 271.186C214.505 271.997 215.658 272.402 217.127 272.402ZM254.496 265.258C254.496 266.195 254.382 267.234 254.154 268.374H238.498C238.701 271.161 240.461 272.554 243.78 272.554C244.819 272.554 245.807 272.389 246.744 272.06C247.707 271.731 248.543 271.262 249.252 270.654L251.722 274.568C250.582 275.48 249.277 276.164 247.808 276.62C246.339 277.076 244.793 277.304 243.172 277.304C241.069 277.304 239.22 276.937 237.624 276.202C236.053 275.442 234.837 274.365 233.976 272.972C233.14 271.579 232.722 269.97 232.722 268.146C232.722 265.891 233.229 263.865 234.242 262.066C235.281 260.242 236.712 258.823 238.536 257.81C240.36 256.771 242.437 256.252 244.768 256.252C246.744 256.252 248.454 256.619 249.898 257.354C251.367 258.089 252.495 259.14 253.28 260.508C254.091 261.876 254.496 263.459 254.496 265.258ZM244.502 260.698C243.109 260.698 241.931 261.078 240.968 261.838C240.005 262.573 239.321 263.599 238.916 264.916H249.062C249.062 263.599 248.644 262.573 247.808 261.838C246.997 261.078 245.895 260.698 244.502 260.698ZM280.152 256.556L267.46 277H261.342L256.82 256.556H262.672L265.636 270.502L274.224 256.556H280.152ZM300.141 265.258C300.141 266.195 300.027 267.234 299.799 268.374H284.143C284.345 271.161 286.106 272.554 289.425 272.554C290.463 272.554 291.451 272.389 292.389 272.06C293.351 271.731 294.187 271.262 294.897 270.654L297.367 274.568C296.227 275.48 294.922 276.164 293.453 276.62C291.983 277.076 290.438 277.304 288.817 277.304C286.714 277.304 284.865 276.937 283.269 276.202C281.698 275.442 280.482 274.365 279.621 272.972C278.785 271.579 278.367 269.97 278.367 268.146C278.367 265.891 278.873 263.865 279.887 262.066C280.925 260.242 282.357 258.823 284.181 257.81C286.005 256.771 288.082 256.252 290.413 256.252C292.389 256.252 294.099 256.619 295.543 257.354C297.012 258.089 298.139 259.14 298.925 260.508C299.735 261.876 300.141 263.459 300.141 265.258ZM290.147 260.698C288.753 260.698 287.575 261.078 286.613 261.838C285.65 262.573 284.966 263.599 284.561 264.916H294.707C294.707 263.599 294.289 262.573 293.453 261.838C292.642 261.078 291.54 260.698 290.147 260.698ZM307.434 248.804H313.362L307.738 277H301.81L307.434 248.804ZM323.918 277.304C321.866 277.304 320.054 276.924 318.484 276.164C316.938 275.404 315.735 274.34 314.874 272.972C314.038 271.579 313.62 269.97 313.62 268.146C313.62 265.891 314.152 263.865 315.216 262.066C316.28 260.267 317.749 258.849 319.624 257.81C321.498 256.771 323.614 256.252 325.97 256.252C328.047 256.252 329.858 256.632 331.404 257.392C332.949 258.152 334.14 259.229 334.976 260.622C335.837 261.99 336.268 263.586 336.268 265.41C336.268 267.665 335.736 269.691 334.672 271.49C333.633 273.289 332.164 274.707 330.264 275.746C328.389 276.785 326.274 277.304 323.918 277.304ZM324.298 272.402C325.438 272.402 326.464 272.123 327.376 271.566C328.288 270.983 328.997 270.185 329.504 269.172C330.01 268.159 330.264 266.993 330.264 265.676C330.264 264.283 329.858 263.181 329.048 262.37C328.237 261.559 327.097 261.154 325.628 261.154C324.462 261.154 323.424 261.445 322.512 262.028C321.6 262.585 320.89 263.371 320.384 264.384C319.877 265.397 319.624 266.563 319.624 267.88C319.624 269.273 320.029 270.375 320.84 271.186C321.676 271.997 322.828 272.402 324.298 272.402ZM353.645 256.252C355.241 256.252 356.71 256.619 358.053 257.354C359.421 258.089 360.498 259.153 361.283 260.546C362.094 261.914 362.499 263.535 362.499 265.41C362.499 267.665 361.992 269.704 360.979 271.528C359.991 273.327 358.636 274.745 356.913 275.784C355.19 276.797 353.278 277.304 351.175 277.304C348.059 277.304 345.855 276.291 344.563 274.264L342.549 284.372H336.621L342.169 256.556H347.793L347.375 258.57C349.072 257.025 351.162 256.252 353.645 256.252ZM350.491 272.402C351.656 272.402 352.695 272.123 353.607 271.566C354.519 270.983 355.228 270.185 355.735 269.172C356.242 268.159 356.495 266.993 356.495 265.676C356.495 264.283 356.077 263.181 355.241 262.37C354.43 261.559 353.29 261.154 351.821 261.154C350.681 261.154 349.655 261.445 348.743 262.028C347.831 262.585 347.122 263.371 346.615 264.384C346.108 265.397 345.855 266.563 345.855 267.88C345.855 269.273 346.26 270.375 347.071 271.186C347.882 271.997 349.022 272.402 350.491 272.402ZM399.915 256.556L395.849 277H390.225L390.605 274.986C388.908 276.531 386.818 277.304 384.335 277.304C382.739 277.304 381.27 276.937 379.927 276.202C378.584 275.467 377.508 274.416 376.697 273.048C375.912 271.655 375.519 270.021 375.519 268.146C375.519 265.891 376.013 263.865 377.001 262.066C378.014 260.242 379.382 258.823 381.105 257.81C382.828 256.771 384.728 256.252 386.805 256.252C389.946 256.252 392.163 257.278 393.455 259.33L393.987 256.556H399.915ZM386.159 272.402C387.324 272.402 388.363 272.123 389.275 271.566C390.187 270.983 390.896 270.185 391.403 269.172C391.91 268.159 392.163 266.993 392.163 265.676C392.163 264.283 391.745 263.181 390.909 262.37C390.098 261.559 388.958 261.154 387.489 261.154C386.324 261.154 385.285 261.445 384.373 262.028C383.461 262.585 382.752 263.371 382.245 264.384C381.738 265.397 381.485 266.563 381.485 267.88C381.485 269.273 381.89 270.375 382.701 271.186C383.537 271.997 384.69 272.402 386.159 272.402ZM417.297 256.252C419.577 256.252 421.389 256.86 422.731 258.076C424.074 259.267 424.745 260.977 424.745 263.206C424.745 264.042 424.657 264.865 424.479 265.676L422.199 277H416.271L418.475 266.056C418.577 265.625 418.627 265.157 418.627 264.65C418.627 263.586 418.336 262.775 417.753 262.218C417.171 261.661 416.297 261.382 415.131 261.382C413.611 261.382 412.345 261.825 411.331 262.712C410.343 263.573 409.672 264.878 409.317 266.626L407.265 277H401.337L405.403 256.556H411.027L410.571 258.76C412.395 257.088 414.637 256.252 417.297 256.252ZM454.243 248.804L448.619 277H442.995L443.413 274.948C441.691 276.519 439.601 277.304 437.143 277.304C435.547 277.304 434.078 276.937 432.735 276.202C431.393 275.467 430.316 274.416 429.505 273.048C428.72 271.655 428.327 270.021 428.327 268.146C428.327 265.891 428.821 263.865 429.809 262.066C430.823 260.242 432.191 258.823 433.913 257.81C435.636 256.771 437.536 256.252 439.613 256.252C441.108 256.252 442.413 256.505 443.527 257.012C444.667 257.519 445.567 258.266 446.225 259.254L448.315 248.804H454.243ZM438.967 272.402C440.133 272.402 441.171 272.123 442.083 271.566C442.995 270.983 443.705 270.185 444.211 269.172C444.718 268.159 444.971 266.993 444.971 265.676C444.971 264.283 444.553 263.181 443.717 262.37C442.907 261.559 441.767 261.154 440.297 261.154C439.132 261.154 438.093 261.445 437.181 262.028C436.269 262.585 435.56 263.371 435.053 264.384C434.547 265.397 434.293 266.563 434.293 267.88C434.293 269.273 434.699 270.375 435.509 271.186C436.345 271.997 437.498 272.402 438.967 272.402ZM100.999 294.804L95.3752 323H89.7512L90.1692 320.948C88.4465 322.519 86.3565 323.304 83.8992 323.304C82.3032 323.304 80.8339 322.937 79.4912 322.202C78.1485 321.467 77.0719 320.416 76.2612 319.048C75.4759 317.655 75.0832 316.021 75.0832 314.146C75.0832 311.891 75.5772 309.865 76.5652 308.066C77.5785 306.242 78.9465 304.823 80.6692 303.81C82.3919 302.771 84.2919 302.252 86.3692 302.252C87.8639 302.252 89.1685 302.505 90.2832 303.012C91.4232 303.519 92.3225 304.266 92.9812 305.254L95.0712 294.804H100.999ZM85.7232 318.402C86.8885 318.402 87.9272 318.123 88.8392 317.566C89.7512 316.983 90.4605 316.185 90.9672 315.172C91.4739 314.159 91.7272 312.993 91.7272 311.676C91.7272 310.283 91.3092 309.181 90.4732 308.37C89.6625 307.559 88.5225 307.154 87.0532 307.154C85.8879 307.154 84.8492 307.445 83.9372 308.028C83.0252 308.585 82.3159 309.371 81.8092 310.384C81.3025 311.397 81.0492 312.563 81.0492 313.88C81.0492 315.273 81.4545 316.375 82.2652 317.186C83.1012 317.997 84.2539 318.402 85.7232 318.402ZM123.092 311.258C123.092 312.195 122.978 313.234 122.75 314.374H107.094C107.296 317.161 109.057 318.554 112.376 318.554C113.414 318.554 114.402 318.389 115.34 318.06C116.302 317.731 117.138 317.262 117.848 316.654L120.318 320.568C119.178 321.48 117.873 322.164 116.404 322.62C114.934 323.076 113.389 323.304 111.768 323.304C109.665 323.304 107.816 322.937 106.22 322.202C104.649 321.442 103.433 320.365 102.572 318.972C101.736 317.579 101.318 315.97 101.318 314.146C101.318 311.891 101.824 309.865 102.838 308.066C103.876 306.242 105.308 304.823 107.132 303.81C108.956 302.771 111.033 302.252 113.364 302.252C115.34 302.252 117.05 302.619 118.494 303.354C119.963 304.089 121.09 305.14 121.876 306.508C122.686 307.876 123.092 309.459 123.092 311.258ZM113.098 306.698C111.704 306.698 110.526 307.078 109.564 307.838C108.601 308.573 107.917 309.599 107.512 310.916H117.658C117.658 309.599 117.24 308.573 116.404 307.838C115.593 307.078 114.491 306.698 113.098 306.698ZM132.209 323.304C130.436 323.304 128.751 323.114 127.155 322.734C125.584 322.329 124.356 321.809 123.469 321.176L125.749 316.882C126.636 317.465 127.712 317.933 128.979 318.288C130.271 318.643 131.563 318.82 132.855 318.82C134.198 318.82 135.198 318.655 135.857 318.326C136.516 317.971 136.845 317.477 136.845 316.844C136.845 316.337 136.554 315.97 135.971 315.742C135.388 315.514 134.451 315.273 133.159 315.02C131.69 314.741 130.474 314.437 129.511 314.108C128.574 313.779 127.75 313.247 127.041 312.512C126.357 311.752 126.015 310.726 126.015 309.434C126.015 307.179 126.952 305.419 128.827 304.152C130.727 302.885 133.21 302.252 136.275 302.252C137.694 302.252 139.074 302.404 140.417 302.708C141.76 303.012 142.9 303.43 143.837 303.962L141.709 308.294C140.037 307.255 138.023 306.736 135.667 306.736C134.375 306.736 133.387 306.926 132.703 307.306C132.044 307.686 131.715 308.167 131.715 308.75C131.715 309.282 132.006 309.675 132.589 309.928C133.172 310.156 134.147 310.409 135.515 310.688C136.959 310.967 138.137 311.271 139.049 311.6C139.986 311.904 140.797 312.423 141.481 313.158C142.165 313.893 142.507 314.893 142.507 316.16C142.507 318.44 141.544 320.201 139.619 321.442C137.719 322.683 135.249 323.304 132.209 323.304ZM149.015 302.556H154.905L150.839 323H144.949L149.015 302.556ZM152.967 299.706C151.953 299.706 151.117 299.415 150.459 298.832C149.825 298.224 149.509 297.489 149.509 296.628C149.509 295.615 149.863 294.779 150.573 294.12C151.307 293.436 152.257 293.094 153.423 293.094C154.461 293.094 155.297 293.385 155.931 293.968C156.589 294.525 156.919 295.222 156.919 296.058C156.919 297.147 156.551 298.034 155.817 298.718C155.082 299.377 154.132 299.706 152.967 299.706ZM181.497 302.556L178.115 319.58C177.355 323.431 175.886 326.243 173.707 328.016C171.554 329.789 168.666 330.676 165.043 330.676C163.067 330.676 161.243 330.448 159.571 329.992C157.924 329.536 156.506 328.865 155.315 327.978L158.127 323.684C158.938 324.368 159.976 324.9 161.243 325.28C162.535 325.685 163.89 325.888 165.309 325.888C167.31 325.888 168.83 325.445 169.869 324.558C170.908 323.697 171.617 322.379 171.997 320.606L172.149 319.732C170.502 321.252 168.425 322.012 165.917 322.012C164.22 322.012 162.687 321.67 161.319 320.986C159.951 320.277 158.862 319.276 158.051 317.984C157.266 316.692 156.873 315.172 156.873 313.424C156.873 311.347 157.367 309.459 158.355 307.762C159.343 306.065 160.698 304.722 162.421 303.734C164.169 302.746 166.12 302.252 168.273 302.252C169.869 302.252 171.262 302.556 172.453 303.164C173.669 303.747 174.581 304.659 175.189 305.9L175.835 302.556H181.497ZM167.513 317.148C169.236 317.148 170.654 316.591 171.769 315.476C172.884 314.361 173.441 312.93 173.441 311.182C173.441 309.941 173.036 308.965 172.225 308.256C171.414 307.521 170.287 307.154 168.843 307.154C167.095 307.154 165.651 307.711 164.511 308.826C163.396 309.941 162.839 311.372 162.839 313.12C162.839 314.361 163.257 315.349 164.093 316.084C164.929 316.793 166.069 317.148 167.513 317.148ZM198.909 302.252C201.189 302.252 203 302.86 204.343 304.076C205.685 305.267 206.357 306.977 206.357 309.206C206.357 310.042 206.268 310.865 206.091 311.676L203.811 323H197.883L200.087 312.056C200.188 311.625 200.239 311.157 200.239 310.65C200.239 309.586 199.947 308.775 199.365 308.218C198.782 307.661 197.908 307.382 196.743 307.382C195.223 307.382 193.956 307.825 192.943 308.712C191.955 309.573 191.283 310.878 190.929 312.626L188.877 323H182.949L187.015 302.556H192.639L192.183 304.76C194.007 303.088 196.249 302.252 198.909 302.252ZM244.342 302.556L230.738 324.368C229.268 326.749 227.837 328.396 226.444 329.308C225.076 330.22 223.391 330.676 221.39 330.676C220.326 330.676 219.287 330.511 218.274 330.182C217.235 329.853 216.424 329.422 215.842 328.89L218.578 324.634C219.49 325.47 220.579 325.888 221.846 325.888C222.606 325.888 223.264 325.698 223.822 325.318C224.379 324.938 224.949 324.292 225.532 323.38L225.722 323.038L221.01 302.556H226.938L229.978 316.464L238.49 302.556H244.342ZM252.816 323.304C250.764 323.304 248.953 322.924 247.382 322.164C245.837 321.404 244.633 320.34 243.772 318.972C242.936 317.579 242.518 315.97 242.518 314.146C242.518 311.891 243.05 309.865 244.114 308.066C245.178 306.267 246.647 304.849 248.522 303.81C250.397 302.771 252.512 302.252 254.868 302.252C256.945 302.252 258.757 302.632 260.302 303.392C261.847 304.152 263.038 305.229 263.874 306.622C264.735 307.99 265.166 309.586 265.166 311.41C265.166 313.665 264.634 315.691 263.57 317.49C262.531 319.289 261.062 320.707 259.162 321.746C257.287 322.785 255.172 323.304 252.816 323.304ZM253.196 318.402C254.336 318.402 255.362 318.123 256.274 317.566C257.186 316.983 257.895 316.185 258.402 315.172C258.909 314.159 259.162 312.993 259.162 311.676C259.162 310.283 258.757 309.181 257.946 308.37C257.135 307.559 255.995 307.154 254.526 307.154C253.361 307.154 252.322 307.445 251.41 308.028C250.498 308.585 249.789 309.371 249.282 310.384C248.775 311.397 248.522 312.563 248.522 313.88C248.522 315.273 248.927 316.375 249.738 317.186C250.574 317.997 251.727 318.402 253.196 318.402ZM291.663 302.556L287.597 323H281.973L282.391 320.796C281.505 321.632 280.491 322.265 279.351 322.696C278.211 323.101 277.008 323.304 275.741 323.304C273.512 323.304 271.726 322.696 270.383 321.48C269.066 320.264 268.407 318.554 268.407 316.35C268.407 315.514 268.496 314.691 268.673 313.88L270.915 302.556H276.843L274.677 313.5C274.576 313.981 274.525 314.475 274.525 314.982C274.525 317.11 275.665 318.174 277.945 318.174C279.44 318.174 280.669 317.743 281.631 316.882C282.619 315.995 283.291 314.678 283.645 312.93L285.735 302.556H291.663ZM302.285 304.988C303.172 304.025 304.236 303.329 305.477 302.898C306.744 302.467 308.226 302.252 309.923 302.252L308.859 307.724C308.15 307.673 307.694 307.648 307.491 307.648C305.693 307.648 304.249 308.091 303.159 308.978C302.095 309.865 301.373 311.245 300.993 313.12L299.017 323H293.089L297.155 302.556H302.779L302.285 304.988ZM357.38 302.556L346.094 323H340.242L337.886 310.27L330.856 323H325.08L321.47 302.556H326.866L329.108 316.312L336.784 302.556H341.876L344.194 316.312L351.794 302.556H357.38ZM377.625 311.258C377.625 312.195 377.511 313.234 377.283 314.374H361.627C361.83 317.161 363.59 318.554 366.909 318.554C367.948 318.554 368.936 318.389 369.873 318.06C370.836 317.731 371.672 317.262 372.381 316.654L374.851 320.568C373.711 321.48 372.406 322.164 370.937 322.62C369.468 323.076 367.922 323.304 366.301 323.304C364.198 323.304 362.349 322.937 360.753 322.202C359.182 321.442 357.966 320.365 357.105 318.972C356.269 317.579 355.851 315.97 355.851 314.146C355.851 311.891 356.358 309.865 357.371 308.066C358.41 306.242 359.841 304.823 361.665 303.81C363.489 302.771 365.566 302.252 367.897 302.252C369.873 302.252 371.583 302.619 373.027 303.354C374.496 304.089 375.624 305.14 376.409 306.508C377.22 307.876 377.625 309.459 377.625 311.258ZM367.631 306.698C366.238 306.698 365.06 307.078 364.097 307.838C363.134 308.573 362.45 309.599 362.045 310.916H372.191C372.191 309.599 371.773 308.573 370.937 307.838C370.126 307.078 369.024 306.698 367.631 306.698ZM394.836 302.252C396.432 302.252 397.902 302.619 399.244 303.354C400.612 304.089 401.689 305.153 402.474 306.546C403.285 307.914 403.69 309.535 403.69 311.41C403.69 313.665 403.184 315.704 402.17 317.528C401.182 319.327 399.827 320.745 398.104 321.784C396.382 322.797 394.469 323.304 392.366 323.304C390.77 323.304 389.39 323.025 388.224 322.468C387.059 321.911 386.16 321.075 385.526 319.96L384.918 323H379.294L384.918 294.804H390.846L388.946 304.304C390.593 302.936 392.556 302.252 394.836 302.252ZM391.682 318.402C392.848 318.402 393.886 318.123 394.798 317.566C395.71 316.983 396.42 316.185 396.926 315.172C397.433 314.159 397.686 312.993 397.686 311.676C397.686 310.283 397.268 309.181 396.432 308.37C395.622 307.559 394.482 307.154 393.012 307.154C391.872 307.154 390.846 307.445 389.934 308.028C389.022 308.585 388.313 309.371 387.806 310.384C387.3 311.397 387.046 312.563 387.046 313.88C387.046 315.273 387.452 316.375 388.262 317.186C389.073 317.997 390.213 318.402 391.682 318.402ZM412.979 323.304C411.205 323.304 409.521 323.114 407.925 322.734C406.354 322.329 405.125 321.809 404.239 321.176L406.519 316.882C407.405 317.465 408.482 317.933 409.749 318.288C411.041 318.643 412.333 318.82 413.625 318.82C414.967 318.82 415.968 318.655 416.627 318.326C417.285 317.971 417.615 317.477 417.615 316.844C417.615 316.337 417.323 315.97 416.741 315.742C416.158 315.514 415.221 315.273 413.929 315.02C412.459 314.741 411.243 314.437 410.281 314.108C409.343 313.779 408.52 313.247 407.811 312.512C407.127 311.752 406.785 310.726 406.785 309.434C406.785 307.179 407.722 305.419 409.597 304.152C411.497 302.885 413.979 302.252 417.045 302.252C418.463 302.252 419.844 302.404 421.187 302.708C422.529 303.012 423.669 303.43 424.607 303.962L422.479 308.294C420.807 307.255 418.793 306.736 416.437 306.736C415.145 306.736 414.157 306.926 413.473 307.306C412.814 307.686 412.485 308.167 412.485 308.75C412.485 309.282 412.776 309.675 413.359 309.928C413.941 310.156 414.917 310.409 416.285 310.688C417.729 310.967 418.907 311.271 419.819 311.6C420.756 311.904 421.567 312.423 422.251 313.158C422.935 313.893 423.277 314.893 423.277 316.16C423.277 318.44 422.314 320.201 420.389 321.442C418.489 322.683 416.019 323.304 412.979 323.304ZM429.784 302.556H435.674L431.608 323H425.718L429.784 302.556ZM433.736 299.706C432.723 299.706 431.887 299.415 431.228 298.832C430.595 298.224 430.278 297.489 430.278 296.628C430.278 295.615 430.633 294.779 431.342 294.12C432.077 293.436 433.027 293.094 434.192 293.094C435.231 293.094 436.067 293.385 436.7 293.968C437.359 294.525 437.688 295.222 437.688 296.058C437.688 297.147 437.321 298.034 436.586 298.718C435.851 299.377 434.901 299.706 433.736 299.706ZM445.167 315.78C445.116 315.983 445.091 316.261 445.091 316.616C445.091 317.933 445.813 318.592 447.257 318.592C448.042 318.592 448.84 318.351 449.651 317.87L450.525 322.088C449.207 322.899 447.51 323.304 445.433 323.304C443.507 323.304 441.962 322.797 440.797 321.784C439.631 320.771 439.049 319.377 439.049 317.604C439.049 317.097 439.112 316.502 439.239 315.818L440.873 307.572H437.719L438.631 303.012H441.785L442.773 298.034H448.701L447.713 303.012H452.805L451.893 307.572H446.801L445.167 315.78ZM475.185 311.258C475.185 312.195 475.071 313.234 474.843 314.374H459.187C459.39 317.161 461.151 318.554 464.469 318.554C465.508 318.554 466.496 318.389 467.433 318.06C468.396 317.731 469.232 317.262 469.941 316.654L472.411 320.568C471.271 321.48 469.967 322.164 468.497 322.62C467.028 323.076 465.483 323.304 463.861 323.304C461.759 323.304 459.909 322.937 458.313 322.202C456.743 321.442 455.527 320.365 454.665 318.972C453.829 317.579 453.411 315.97 453.411 314.146C453.411 311.891 453.918 309.865 454.931 308.066C455.97 306.242 457.401 304.823 459.225 303.81C461.049 302.771 463.127 302.252 465.457 302.252C467.433 302.252 469.143 302.619 470.587 303.354C472.057 304.089 473.184 305.14 473.969 306.508C474.78 307.876 475.185 309.459 475.185 311.258ZM465.191 306.698C463.798 306.698 462.62 307.078 461.657 307.838C460.695 308.573 460.011 309.599 459.605 310.916H469.751C469.751 309.599 469.333 308.573 468.497 307.838C467.687 307.078 466.585 306.698 465.191 306.698ZM68.8098 345.174C67.8978 345.174 67.1758 345.427 66.6438 345.934C66.1371 346.415 65.7824 347.188 65.5798 348.252L65.4278 349.012H70.6338L69.7218 353.572H64.6678L61.5898 369H55.6618L58.7398 353.572H55.5478L56.4598 349.012H59.6518L59.8798 347.834C60.3611 345.554 61.3491 343.768 62.8438 342.476C64.3638 341.159 66.3398 340.5 68.7718 340.5C69.6838 340.5 70.5451 340.601 71.3558 340.804C72.1918 341.007 72.9011 341.285 73.4838 341.64L71.1658 345.896C70.5324 345.415 69.7471 345.174 68.8098 345.174ZM80.0533 369.304C78.0013 369.304 76.19 368.924 74.6193 368.164C73.074 367.404 71.8707 366.34 71.0093 364.972C70.1733 363.579 69.7553 361.97 69.7553 360.146C69.7553 357.891 70.2873 355.865 71.3513 354.066C72.4153 352.267 73.8847 350.849 75.7593 349.81C77.634 348.771 79.7493 348.252 82.1053 348.252C84.1827 348.252 85.994 348.632 87.5393 349.392C89.0847 350.152 90.2753 351.229 91.1113 352.622C91.9727 353.99 92.4033 355.586 92.4033 357.41C92.4033 359.665 91.8713 361.691 90.8073 363.49C89.7687 365.289 88.2993 366.707 86.3993 367.746C84.5247 368.785 82.4093 369.304 80.0533 369.304ZM80.4333 364.402C81.5733 364.402 82.5993 364.123 83.5113 363.566C84.4233 362.983 85.1327 362.185 85.6393 361.172C86.146 360.159 86.3993 358.993 86.3993 357.676C86.3993 356.283 85.994 355.181 85.1833 354.37C84.3727 353.559 83.2327 353.154 81.7633 353.154C80.598 353.154 79.5593 353.445 78.6473 354.028C77.7353 354.585 77.026 355.371 76.5193 356.384C76.0127 357.397 75.7593 358.563 75.7593 359.88C75.7593 361.273 76.1647 362.375 76.9753 363.186C77.8113 363.997 78.964 364.402 80.4333 364.402ZM103.435 350.988C104.321 350.025 105.385 349.329 106.627 348.898C107.893 348.467 109.375 348.252 111.073 348.252L110.009 353.724C109.299 353.673 108.843 353.648 108.641 353.648C106.842 353.648 105.398 354.091 104.309 354.978C103.245 355.865 102.523 357.245 102.143 359.12L100.167 369H94.2386L98.3046 348.556H103.929L103.435 350.988ZM145.724 348.556L132.12 370.368C130.65 372.749 129.219 374.396 127.826 375.308C126.458 376.22 124.773 376.676 122.772 376.676C121.708 376.676 120.669 376.511 119.656 376.182C118.617 375.853 117.806 375.422 117.224 374.89L119.96 370.634C120.872 371.47 121.961 371.888 123.228 371.888C123.988 371.888 124.646 371.698 125.204 371.318C125.761 370.938 126.331 370.292 126.914 369.38L127.104 369.038L122.392 348.556H128.32L131.36 362.464L139.872 348.556H145.724ZM154.198 369.304C152.146 369.304 150.335 368.924 148.764 368.164C147.219 367.404 146.015 366.34 145.154 364.972C144.318 363.579 143.9 361.97 143.9 360.146C143.9 357.891 144.432 355.865 145.496 354.066C146.56 352.267 148.029 350.849 149.904 349.81C151.779 348.771 153.894 348.252 156.25 348.252C158.327 348.252 160.139 348.632 161.684 349.392C163.229 350.152 164.42 351.229 165.256 352.622C166.117 353.99 166.548 355.586 166.548 357.41C166.548 359.665 166.016 361.691 164.952 363.49C163.913 365.289 162.444 366.707 160.544 367.746C158.669 368.785 156.554 369.304 154.198 369.304ZM154.578 364.402C155.718 364.402 156.744 364.123 157.656 363.566C158.568 362.983 159.277 362.185 159.784 361.172C160.291 360.159 160.544 358.993 160.544 357.676C160.544 356.283 160.139 355.181 159.328 354.37C158.517 353.559 157.377 353.154 155.908 353.154C154.743 353.154 153.704 353.445 152.792 354.028C151.88 354.585 151.171 355.371 150.664 356.384C150.157 357.397 149.904 358.563 149.904 359.88C149.904 361.273 150.309 362.375 151.12 363.186C151.956 363.997 153.109 364.402 154.578 364.402ZM193.045 348.556L188.979 369H183.355L183.773 366.796C182.886 367.632 181.873 368.265 180.733 368.696C179.593 369.101 178.39 369.304 177.123 369.304C174.894 369.304 173.108 368.696 171.765 367.48C170.448 366.264 169.789 364.554 169.789 362.35C169.789 361.514 169.878 360.691 170.055 359.88L172.297 348.556H178.225L176.059 359.5C175.958 359.981 175.907 360.475 175.907 360.982C175.907 363.11 177.047 364.174 179.327 364.174C180.822 364.174 182.05 363.743 183.013 362.882C184.001 361.995 184.672 360.678 185.027 358.93L187.117 348.556H193.045ZM219.103 345.174C218.191 345.174 217.469 345.427 216.937 345.934C216.43 346.415 216.075 347.188 215.873 348.252L215.721 349.012H220.927L220.015 353.572H214.961L211.883 369H205.955L209.033 353.572H205.841L206.753 349.012H209.945L210.173 347.834C210.654 345.554 211.642 343.768 213.137 342.476C214.657 341.159 216.633 340.5 219.065 340.5C219.977 340.5 220.838 340.601 221.649 340.804C222.485 341.007 223.194 341.285 223.777 341.64L221.459 345.896C220.825 345.415 220.04 345.174 219.103 345.174ZM230.346 369.304C228.294 369.304 226.483 368.924 224.912 368.164C223.367 367.404 222.164 366.34 221.302 364.972C220.466 363.579 220.048 361.97 220.048 360.146C220.048 357.891 220.58 355.865 221.644 354.066C222.708 352.267 224.178 350.849 226.052 349.81C227.927 348.771 230.042 348.252 232.398 348.252C234.476 348.252 236.287 348.632 237.832 349.392C239.378 350.152 240.568 351.229 241.404 352.622C242.266 353.99 242.696 355.586 242.696 357.41C242.696 359.665 242.164 361.691 241.1 363.49C240.062 365.289 238.592 366.707 236.692 367.746C234.818 368.785 232.702 369.304 230.346 369.304ZM230.726 364.402C231.866 364.402 232.892 364.123 233.804 363.566C234.716 362.983 235.426 362.185 235.932 361.172C236.439 360.159 236.692 358.993 236.692 357.676C236.692 356.283 236.287 355.181 235.476 354.37C234.666 353.559 233.526 353.154 232.056 353.154C230.891 353.154 229.852 353.445 228.94 354.028C228.028 354.585 227.319 355.371 226.812 356.384C226.306 357.397 226.052 358.563 226.052 359.88C226.052 361.273 226.458 362.375 227.268 363.186C228.104 363.997 229.257 364.402 230.726 364.402ZM274.248 348.252C276.477 348.252 278.25 348.86 279.568 350.076C280.885 351.267 281.544 352.964 281.544 355.168C281.544 355.979 281.455 356.815 281.278 357.676L279.036 369H273.108L275.274 358.094C275.375 357.587 275.426 357.068 275.426 356.536C275.426 355.497 275.147 354.712 274.59 354.18C274.058 353.648 273.26 353.382 272.196 353.382C269.333 353.382 267.547 355.092 266.838 358.512L264.748 369H258.82L260.986 358.094C261.087 357.587 261.138 357.081 261.138 356.574C261.138 355.535 260.859 354.75 260.302 354.218C259.77 353.661 258.972 353.382 257.908 353.382C255.045 353.382 253.246 355.117 252.512 358.588L250.46 369H244.532L248.598 348.556H254.222L253.766 350.684C255.539 349.063 257.68 348.252 260.188 348.252C261.606 348.252 262.86 348.543 263.95 349.126C265.064 349.683 265.9 350.507 266.458 351.596C267.446 350.507 268.598 349.683 269.916 349.126C271.233 348.543 272.677 348.252 274.248 348.252ZM302.597 369.304C300.823 369.304 299.139 369.114 297.543 368.734C295.972 368.329 294.743 367.809 293.857 367.176L296.137 362.882C297.023 363.465 298.1 363.933 299.367 364.288C300.659 364.643 301.951 364.82 303.243 364.82C304.585 364.82 305.586 364.655 306.245 364.326C306.903 363.971 307.233 363.477 307.233 362.844C307.233 362.337 306.941 361.97 306.359 361.742C305.776 361.514 304.839 361.273 303.547 361.02C302.077 360.741 300.861 360.437 299.899 360.108C298.961 359.779 298.138 359.247 297.429 358.512C296.745 357.752 296.403 356.726 296.403 355.434C296.403 353.179 297.34 351.419 299.215 350.152C301.115 348.885 303.597 348.252 306.663 348.252C308.081 348.252 309.462 348.404 310.805 348.708C312.147 349.012 313.287 349.43 314.225 349.962L312.097 354.294C310.425 353.255 308.411 352.736 306.055 352.736C304.763 352.736 303.775 352.926 303.091 353.306C302.432 353.686 302.103 354.167 302.103 354.75C302.103 355.282 302.394 355.675 302.977 355.928C303.559 356.156 304.535 356.409 305.903 356.688C307.347 356.967 308.525 357.271 309.437 357.6C310.374 357.904 311.185 358.423 311.869 359.158C312.553 359.893 312.895 360.893 312.895 362.16C312.895 364.44 311.932 366.201 310.007 367.442C308.107 368.683 305.637 369.304 302.597 369.304ZM326.128 369.304C324.026 369.304 322.189 368.924 320.618 368.164C319.048 367.404 317.832 366.34 316.97 364.972C316.134 363.579 315.716 361.97 315.716 360.146C315.716 357.891 316.248 355.865 317.312 354.066C318.376 352.267 319.858 350.849 321.758 349.81C323.658 348.771 325.799 348.252 328.18 348.252C330.359 348.252 332.234 348.708 333.804 349.62C335.4 350.507 336.591 351.773 337.376 353.42L332.36 355.928C331.474 354.079 329.954 353.154 327.8 353.154C326.635 353.154 325.584 353.445 324.646 354.028C323.734 354.585 323.012 355.371 322.48 356.384C321.974 357.397 321.72 358.55 321.72 359.842C321.72 361.235 322.138 362.35 322.974 363.186C323.81 363.997 324.976 364.402 326.47 364.402C328.649 364.402 330.321 363.49 331.486 361.666L335.856 364.402C334.868 365.947 333.513 367.151 331.79 368.012C330.093 368.873 328.206 369.304 326.128 369.304ZM346.983 350.988C347.87 350.025 348.934 349.329 350.175 348.898C351.442 348.467 352.924 348.252 354.621 348.252L353.557 353.724C352.848 353.673 352.392 353.648 352.189 353.648C350.391 353.648 348.947 354.091 347.857 354.978C346.793 355.865 346.071 357.245 345.691 359.12L343.715 369H337.787L341.853 348.556H347.477L346.983 350.988ZM378.633 348.556L374.567 369H368.943L369.323 366.986C367.625 368.531 365.535 369.304 363.053 369.304C361.457 369.304 359.987 368.937 358.645 368.202C357.302 367.467 356.225 366.416 355.415 365.048C354.629 363.655 354.237 362.021 354.237 360.146C354.237 357.891 354.731 355.865 355.719 354.066C356.732 352.242 358.1 350.823 359.823 349.81C361.545 348.771 363.445 348.252 365.523 348.252C368.664 348.252 370.881 349.278 372.173 351.33L372.705 348.556H378.633ZM364.877 364.402C366.042 364.402 367.081 364.123 367.993 363.566C368.905 362.983 369.614 362.185 370.121 361.172C370.627 360.159 370.881 358.993 370.881 357.676C370.881 356.283 370.463 355.181 369.627 354.37C368.816 353.559 367.676 353.154 366.207 353.154C365.041 353.154 364.003 353.445 363.091 354.028C362.179 354.585 361.469 355.371 360.963 356.384C360.456 357.397 360.203 358.563 360.203 359.88C360.203 361.273 360.608 362.375 361.419 363.186C362.255 363.997 363.407 364.402 364.877 364.402ZM388.111 361.78C388.06 361.983 388.035 362.261 388.035 362.616C388.035 363.933 388.757 364.592 390.201 364.592C390.986 364.592 391.784 364.351 392.595 363.87L393.469 368.088C392.152 368.899 390.454 369.304 388.377 369.304C386.452 369.304 384.906 368.797 383.741 367.784C382.576 366.771 381.993 365.377 381.993 363.604C381.993 363.097 382.056 362.502 382.183 361.818L383.817 353.572H380.663L381.575 349.012H384.729L385.717 344.034H391.645L390.657 349.012H395.749L394.837 353.572H389.745L388.111 361.78ZM406.73 369.304C404.627 369.304 402.79 368.924 401.22 368.164C399.649 367.404 398.433 366.34 397.572 364.972C396.736 363.579 396.318 361.97 396.318 360.146C396.318 357.891 396.85 355.865 397.914 354.066C398.978 352.267 400.46 350.849 402.36 349.81C404.26 348.771 406.4 348.252 408.782 348.252C410.96 348.252 412.835 348.708 414.406 349.62C416.002 350.507 417.192 351.773 417.978 353.42L412.962 355.928C412.075 354.079 410.555 353.154 408.402 353.154C407.236 353.154 406.185 353.445 405.248 354.028C404.336 354.585 403.614 355.371 403.082 356.384C402.575 357.397 402.322 358.55 402.322 359.842C402.322 361.235 402.74 362.35 403.576 363.186C404.412 363.997 405.577 364.402 407.072 364.402C409.25 364.402 410.922 363.49 412.088 361.666L416.458 364.402C415.47 365.947 414.114 367.151 412.392 368.012C410.694 368.873 408.807 369.304 406.73 369.304ZM434.201 348.252C436.481 348.252 438.292 348.86 439.635 350.076C440.977 351.292 441.649 353.015 441.649 355.244C441.649 356.055 441.56 356.865 441.383 357.676L439.103 369H433.175L435.379 358.056C435.48 357.625 435.531 357.157 435.531 356.65C435.531 355.586 435.239 354.775 434.657 354.218C434.074 353.661 433.2 353.382 432.035 353.382C430.515 353.382 429.248 353.825 428.235 354.712C427.247 355.573 426.575 356.878 426.221 358.626L424.169 369H418.241L423.865 340.804H429.793L427.893 350.418C429.641 348.974 431.743 348.252 434.201 348.252ZM465.954 369.304C463.902 369.304 462.09 368.924 460.52 368.164C458.974 367.404 457.771 366.34 456.91 364.972C456.074 363.579 455.656 361.97 455.656 360.146C455.656 357.891 456.188 355.865 457.252 354.066C458.316 352.267 459.785 350.849 461.66 349.81C463.534 348.771 465.65 348.252 468.006 348.252C470.083 348.252 471.894 348.632 473.44 349.392C474.985 350.152 476.176 351.229 477.012 352.622C477.873 353.99 478.304 355.586 478.304 357.41C478.304 359.665 477.772 361.691 476.708 363.49C475.669 365.289 474.2 366.707 472.3 367.746C470.425 368.785 468.31 369.304 465.954 369.304ZM466.334 364.402C467.474 364.402 468.5 364.123 469.412 363.566C470.324 362.983 471.033 362.185 471.54 361.172C472.046 360.159 472.3 358.993 472.3 357.676C472.3 356.283 471.894 355.181 471.084 354.37C470.273 353.559 469.133 353.154 467.664 353.154C466.498 353.154 465.46 353.445 464.548 354.028C463.636 354.585 462.926 355.371 462.42 356.384C461.913 357.397 461.66 358.563 461.66 359.88C461.66 361.273 462.065 362.375 462.876 363.186C463.712 363.997 464.864 364.402 466.334 364.402ZM489.335 350.988C490.222 350.025 491.286 349.329 492.527 348.898C493.794 348.467 495.276 348.252 496.973 348.252L495.909 353.724C495.2 353.673 494.744 353.648 494.541 353.648C492.742 353.648 491.298 354.091 490.209 354.978C489.145 355.865 488.423 357.245 488.043 359.12L486.067 369H480.139L484.205 348.556H489.829L489.335 350.988ZM124.845 391.174C123.933 391.174 123.211 391.427 122.679 391.934C122.172 392.415 121.818 393.188 121.615 394.252L121.463 395.012H126.669L125.757 399.572H120.703L117.625 415H111.697L114.775 399.572H111.583L112.495 395.012H115.687L115.915 393.834C116.396 391.554 117.384 389.768 118.879 388.476C120.399 387.159 122.375 386.5 124.807 386.5C125.719 386.5 126.58 386.601 127.391 386.804C128.227 387.007 128.936 387.285 129.519 387.64L127.201 391.896C126.568 391.415 125.782 391.174 124.845 391.174ZM137.909 396.988C138.796 396.025 139.86 395.329 141.101 394.898C142.368 394.467 143.85 394.252 145.547 394.252L144.483 399.724C143.774 399.673 143.318 399.648 143.115 399.648C141.317 399.648 139.873 400.091 138.783 400.978C137.719 401.865 136.997 403.245 136.617 405.12L134.641 415H128.713L132.779 394.556H138.403L137.909 396.988ZM155.422 415.304C153.37 415.304 151.559 414.924 149.988 414.164C148.443 413.404 147.24 412.34 146.378 410.972C145.542 409.579 145.124 407.97 145.124 406.146C145.124 403.891 145.656 401.865 146.72 400.066C147.784 398.267 149.254 396.849 151.128 395.81C153.003 394.771 155.118 394.252 157.474 394.252C159.552 394.252 161.363 394.632 162.908 395.392C164.454 396.152 165.644 397.229 166.48 398.622C167.342 399.99 167.772 401.586 167.772 403.41C167.772 405.665 167.24 407.691 166.176 409.49C165.138 411.289 163.668 412.707 161.768 413.746C159.894 414.785 157.778 415.304 155.422 415.304ZM155.802 410.402C156.942 410.402 157.968 410.123 158.88 409.566C159.792 408.983 160.502 408.185 161.008 407.172C161.515 406.159 161.768 404.993 161.768 403.676C161.768 402.283 161.363 401.181 160.552 400.37C159.742 399.559 158.602 399.154 157.132 399.154C155.967 399.154 154.928 399.445 154.016 400.028C153.104 400.585 152.395 401.371 151.888 402.384C151.382 403.397 151.128 404.563 151.128 405.88C151.128 407.273 151.534 408.375 152.344 409.186C153.18 409.997 154.333 410.402 155.802 410.402ZM199.324 394.252C201.553 394.252 203.326 394.86 204.644 396.076C205.961 397.267 206.62 398.964 206.62 401.168C206.62 401.979 206.531 402.815 206.354 403.676L204.112 415H198.184L200.35 404.094C200.451 403.587 200.502 403.068 200.502 402.536C200.502 401.497 200.223 400.712 199.666 400.18C199.134 399.648 198.336 399.382 197.272 399.382C194.409 399.382 192.623 401.092 191.914 404.512L189.824 415H183.896L186.062 404.094C186.163 403.587 186.214 403.081 186.214 402.574C186.214 401.535 185.935 400.75 185.378 400.218C184.846 399.661 184.048 399.382 182.984 399.382C180.121 399.382 178.322 401.117 177.588 404.588L175.536 415H169.608L173.674 394.556H179.298L178.842 396.684C180.615 395.063 182.756 394.252 185.264 394.252C186.682 394.252 187.936 394.543 189.026 395.126C190.14 395.683 190.976 396.507 191.534 397.596C192.522 396.507 193.674 395.683 194.992 395.126C196.309 394.543 197.753 394.252 199.324 394.252ZM245.039 394.556L240.973 415H235.349L235.729 412.986C234.032 414.531 231.942 415.304 229.459 415.304C227.863 415.304 226.394 414.937 225.051 414.202C223.708 413.467 222.632 412.416 221.821 411.048C221.036 409.655 220.643 408.021 220.643 406.146C220.643 403.891 221.137 401.865 222.125 400.066C223.138 398.242 224.506 396.823 226.229 395.81C227.952 394.771 229.852 394.252 231.929 394.252C235.07 394.252 237.287 395.278 238.579 397.33L239.111 394.556H245.039ZM231.283 410.402C232.448 410.402 233.487 410.123 234.399 409.566C235.311 408.983 236.02 408.185 236.527 407.172C237.034 406.159 237.287 404.993 237.287 403.676C237.287 402.283 236.869 401.181 236.033 400.37C235.222 399.559 234.082 399.154 232.613 399.154C231.448 399.154 230.409 399.445 229.497 400.028C228.585 400.585 227.876 401.371 227.369 402.384C226.862 403.397 226.609 404.563 226.609 405.88C226.609 407.273 227.014 408.375 227.825 409.186C228.661 409.997 229.814 410.402 231.283 410.402ZM265.279 407.78C265.228 407.983 265.203 408.261 265.203 408.616C265.203 409.933 265.925 410.592 267.369 410.592C268.154 410.592 268.952 410.351 269.763 409.87L270.637 414.088C269.32 414.899 267.622 415.304 265.545 415.304C263.62 415.304 262.074 414.797 260.909 413.784C259.744 412.771 259.161 411.377 259.161 409.604C259.161 409.097 259.224 408.502 259.351 407.818L260.985 399.572H257.831L258.743 395.012H261.897L262.885 390.034H268.813L267.825 395.012H272.917L272.005 399.572H266.913L265.279 407.78ZM295.298 403.258C295.298 404.195 295.184 405.234 294.956 406.374H279.3C279.502 409.161 281.263 410.554 284.582 410.554C285.62 410.554 286.608 410.389 287.546 410.06C288.508 409.731 289.344 409.262 290.054 408.654L292.524 412.568C291.384 413.48 290.079 414.164 288.61 414.62C287.14 415.076 285.595 415.304 283.974 415.304C281.871 415.304 280.022 414.937 278.426 414.202C276.855 413.442 275.639 412.365 274.778 410.972C273.942 409.579 273.524 407.97 273.524 406.146C273.524 403.891 274.03 401.865 275.044 400.066C276.082 398.242 277.514 396.823 279.338 395.81C281.162 394.771 283.239 394.252 285.57 394.252C287.546 394.252 289.256 394.619 290.7 395.354C292.169 396.089 293.296 397.14 294.082 398.508C294.892 399.876 295.298 401.459 295.298 403.258ZM285.304 398.698C283.91 398.698 282.732 399.078 281.77 399.838C280.807 400.573 280.123 401.599 279.718 402.916H289.864C289.864 401.599 289.446 400.573 288.61 399.838C287.799 399.078 286.697 398.698 285.304 398.698ZM326.683 394.252C328.912 394.252 330.686 394.86 332.003 396.076C333.32 397.267 333.979 398.964 333.979 401.168C333.979 401.979 333.89 402.815 333.713 403.676L331.471 415H325.543L327.709 404.094C327.81 403.587 327.861 403.068 327.861 402.536C327.861 401.497 327.582 400.712 327.025 400.18C326.493 399.648 325.695 399.382 324.631 399.382C321.768 399.382 319.982 401.092 319.273 404.512L317.183 415H311.255L313.421 404.094C313.522 403.587 313.573 403.081 313.573 402.574C313.573 401.535 313.294 400.75 312.737 400.218C312.205 399.661 311.407 399.382 310.343 399.382C307.48 399.382 305.682 401.117 304.947 404.588L302.895 415H296.967L301.033 394.556H306.657L306.201 396.684C307.974 395.063 310.115 394.252 312.623 394.252C314.042 394.252 315.296 394.543 316.385 395.126C317.5 395.683 318.336 396.507 318.893 397.596C319.881 396.507 321.034 395.683 322.351 395.126C323.668 394.543 325.112 394.252 326.683 394.252ZM352.365 394.252C353.961 394.252 355.43 394.619 356.773 395.354C358.141 396.089 359.217 397.153 360.003 398.546C360.813 399.914 361.219 401.535 361.219 403.41C361.219 405.665 360.712 407.704 359.699 409.528C358.711 411.327 357.355 412.745 355.633 413.784C353.91 414.797 351.997 415.304 349.895 415.304C346.779 415.304 344.575 414.291 343.283 412.264L341.269 422.372H335.341L340.889 394.556H346.513L346.095 396.57C347.792 395.025 349.882 394.252 352.365 394.252ZM349.211 410.402C350.376 410.402 351.415 410.123 352.327 409.566C353.239 408.983 353.948 408.185 354.455 407.172C354.961 406.159 355.215 404.993 355.215 403.676C355.215 402.283 354.797 401.181 353.961 400.37C353.15 399.559 352.01 399.154 350.541 399.154C349.401 399.154 348.375 399.445 347.463 400.028C346.551 400.585 345.841 401.371 345.335 402.384C344.828 403.397 344.575 404.563 344.575 405.88C344.575 407.273 344.98 408.375 345.791 409.186C346.601 409.997 347.741 410.402 349.211 410.402ZM368.683 386.804H374.611L368.987 415H363.059L368.683 386.804ZM399.303 394.556L395.237 415H389.613L389.993 412.986C388.295 414.531 386.205 415.304 383.723 415.304C382.127 415.304 380.657 414.937 379.315 414.202C377.972 413.467 376.895 412.416 376.085 411.048C375.299 409.655 374.907 408.021 374.907 406.146C374.907 403.891 375.401 401.865 376.389 400.066C377.402 398.242 378.77 396.823 380.493 395.81C382.215 394.771 384.115 394.252 386.193 394.252C389.334 394.252 391.551 395.278 392.843 397.33L393.375 394.556H399.303ZM385.547 410.402C386.712 410.402 387.751 410.123 388.663 409.566C389.575 408.983 390.284 408.185 390.791 407.172C391.297 406.159 391.551 404.993 391.551 403.676C391.551 402.283 391.133 401.181 390.297 400.37C389.486 399.559 388.346 399.154 386.877 399.154C385.711 399.154 384.673 399.445 383.761 400.028C382.849 400.585 382.139 401.371 381.633 402.384C381.126 403.397 380.873 404.563 380.873 405.88C380.873 407.273 381.278 408.375 382.089 409.186C382.925 409.997 384.077 410.402 385.547 410.402ZM408.781 407.78C408.73 407.983 408.705 408.261 408.705 408.616C408.705 409.933 409.427 410.592 410.871 410.592C411.656 410.592 412.454 410.351 413.265 409.87L414.139 414.088C412.822 414.899 411.124 415.304 409.047 415.304C407.122 415.304 405.576 414.797 404.411 413.784C403.246 412.771 402.663 411.377 402.663 409.604C402.663 409.097 402.726 408.502 402.853 407.818L404.487 399.572H401.333L402.245 395.012H405.399L406.387 390.034H412.315L411.327 395.012H416.419L415.507 399.572H410.415L408.781 407.78ZM438.8 403.258C438.8 404.195 438.686 405.234 438.458 406.374H422.802C423.004 409.161 424.765 410.554 428.084 410.554C429.122 410.554 430.11 410.389 431.048 410.06C432.01 409.731 432.846 409.262 433.556 408.654L436.026 412.568C434.886 413.48 433.581 414.164 432.112 414.62C430.642 415.076 429.097 415.304 427.476 415.304C425.373 415.304 423.524 414.937 421.928 414.202C420.357 413.442 419.141 412.365 418.28 410.972C417.444 409.579 417.026 407.97 417.026 406.146C417.026 403.891 417.532 401.865 418.546 400.066C419.584 398.242 421.016 396.823 422.84 395.81C424.664 394.771 426.741 394.252 429.072 394.252C431.048 394.252 432.758 394.619 434.202 395.354C435.671 396.089 436.798 397.14 437.584 398.508C438.394 399.876 438.8 401.459 438.8 403.258ZM428.806 398.698C427.412 398.698 426.234 399.078 425.272 399.838C424.309 400.573 423.625 401.599 423.22 402.916H433.366C433.366 401.599 432.948 400.573 432.112 399.838C431.301 399.078 430.199 398.698 428.806 398.698Z" fill="black"/>
<path d="M208.635 164L186.435 206H176.055L172.395 177.74L157.215 206H146.775L141.435 164H151.035L154.755 193.52L170.535 164H179.535L183.135 193.76L198.975 164H208.635ZM237.639 187.46C237.639 188.94 237.459 190.58 237.099 192.38H212.379C212.699 196.78 215.479 198.98 220.719 198.98C222.359 198.98 223.919 198.72 225.399 198.2C226.919 197.68 228.239 196.94 229.359 195.98L233.259 202.16C231.459 203.6 229.399 204.68 227.079 205.4C224.759 206.12 222.319 206.48 219.759 206.48C216.439 206.48 213.519 205.9 210.999 204.74C208.519 203.54 206.599 201.84 205.239 199.64C203.919 197.44 203.259 194.9 203.259 192.02C203.259 188.46 204.059 185.26 205.659 182.42C207.299 179.54 209.559 177.3 212.439 175.7C215.319 174.06 218.599 173.24 222.279 173.24C225.399 173.24 228.099 173.82 230.379 174.98C232.699 176.14 234.479 177.8 235.719 179.96C236.999 182.12 237.639 184.62 237.639 187.46ZM221.859 180.26C219.659 180.26 217.799 180.86 216.279 182.06C214.759 183.22 213.679 184.84 213.039 186.92H229.059C229.059 184.84 228.399 183.22 227.079 182.06C225.799 180.86 224.059 180.26 221.859 180.26ZM264.815 173.24C267.335 173.24 269.655 173.82 271.775 174.98C273.935 176.14 275.635 177.82 276.875 180.02C278.155 182.18 278.795 184.74 278.795 187.7C278.795 191.26 277.995 194.48 276.395 197.36C274.835 200.2 272.695 202.44 269.975 204.08C267.255 205.68 264.235 206.48 260.915 206.48C258.395 206.48 256.215 206.04 254.375 205.16C252.535 204.28 251.115 202.96 250.115 201.2L249.155 206H240.275L249.155 161.48H258.515L255.515 176.48C258.115 174.32 261.215 173.24 264.815 173.24ZM259.835 198.74C261.675 198.74 263.315 198.3 264.755 197.42C266.195 196.5 267.315 195.24 268.115 193.64C268.915 192.04 269.315 190.2 269.315 188.12C269.315 185.92 268.655 184.18 267.335 182.9C266.055 181.62 264.255 180.98 261.935 180.98C260.135 180.98 258.515 181.44 257.075 182.36C255.635 183.24 254.515 184.48 253.715 186.08C252.915 187.68 252.515 189.52 252.515 191.6C252.515 193.8 253.155 195.54 254.435 196.82C255.715 198.1 257.515 198.74 259.835 198.74ZM340.393 161.48L331.513 206H322.633L323.293 202.76C320.573 205.24 317.273 206.48 313.393 206.48C310.873 206.48 308.553 205.9 306.433 204.74C304.313 203.58 302.613 201.92 301.333 199.76C300.093 197.56 299.473 194.98 299.473 192.02C299.473 188.46 300.253 185.26 301.813 182.42C303.413 179.54 305.573 177.3 308.293 175.7C311.013 174.06 314.013 173.24 317.293 173.24C319.653 173.24 321.713 173.64 323.473 174.44C325.273 175.24 326.693 176.42 327.733 177.98L331.033 161.48H340.393ZM316.273 198.74C318.113 198.74 319.753 198.3 321.193 197.42C322.633 196.5 323.753 195.24 324.553 193.64C325.353 192.04 325.753 190.2 325.753 188.12C325.753 185.92 325.093 184.18 323.773 182.9C322.493 181.62 320.693 180.98 318.373 180.98C316.533 180.98 314.893 181.44 313.453 182.36C312.013 183.24 310.893 184.48 310.093 186.08C309.293 187.68 308.893 189.52 308.893 191.6C308.893 193.8 309.533 195.54 310.813 196.82C312.133 198.1 313.953 198.74 316.273 198.74ZM375.276 187.46C375.276 188.94 375.096 190.58 374.736 192.38H350.016C350.336 196.78 353.116 198.98 358.356 198.98C359.996 198.98 361.556 198.72 363.036 198.2C364.556 197.68 365.876 196.94 366.996 195.98L370.896 202.16C369.096 203.6 367.036 204.68 364.716 205.4C362.396 206.12 359.956 206.48 357.396 206.48C354.076 206.48 351.156 205.9 348.636 204.74C346.156 203.54 344.236 201.84 342.876 199.64C341.556 197.44 340.896 194.9 340.896 192.02C340.896 188.46 341.696 185.26 343.296 182.42C344.936 179.54 347.196 177.3 350.076 175.7C352.956 174.06 356.236 173.24 359.916 173.24C363.036 173.24 365.736 173.82 368.016 174.98C370.336 176.14 372.116 177.8 373.356 179.96C374.636 182.12 375.276 184.62 375.276 187.46ZM359.496 180.26C357.296 180.26 355.436 180.86 353.916 182.06C352.396 183.22 351.316 184.84 350.676 186.92H366.696C366.696 184.84 366.036 183.22 364.716 182.06C363.436 180.86 361.696 180.26 359.496 180.26ZM415.786 173.72L395.746 206H386.086L378.946 173.72H388.186L392.866 195.74L406.426 173.72H415.786Z" fill="black"/>
<rect x="250.516" y="515.873" width="154.41" height="140.786" transform="rotate(9.36717 250.516 515.873)" fill="white"/>
<path d="M200.276 666.959L189.742 730.813L137.652 722.22L148.185 658.367L169.469 661.878L171.04 652.356L160.398 650.6L162.338 638.838L151.696 637.082L169.251 530.66L179.893 532.416L181.834 520.653L192.476 522.409L197.558 491.602L240.687 498.717L214.169 659.47L224.251 661.133L222.68 670.655L200.276 666.959Z" fill="#292929"/>
<path fill-rule="evenodd" clip-rule="evenodd" d="M214.17 659.47L240.688 498.717L422.165 528.654L395.647 689.407L214.17 659.47ZM365.476 672.883L367.052 663.327L377.727 665.088L395.437 557.732L384.761 555.971L386.523 545.292L258.421 524.16L237.374 651.751L365.476 672.883Z" fill="#393939"/>
<path d="M189.65 731.373L200.368 666.399L404.25 700.032L393.532 765.005L189.65 731.373Z" fill="#393939"/>
<rect x="224.437" y="660.013" width="152.14" height="11.3537" transform="rotate(9.36717 224.437 660.013)" fill="#393939"/>
<rect x="260.493" y="567" width="34.0611" height="12.4891" transform="rotate(9.36717 260.493 567)" fill="#007AE0"/>
<rect x="303.062" y="574.022" width="12.4891" height="12.4891" transform="rotate(9.36717 303.062 574.022)" fill="#007AE0"/>
<rect x="329.162" y="555.313" width="12.4891" height="12.4891" transform="rotate(9.36717 329.162 555.313)" fill="#007AE0"/>
<rect x="285.473" y="548.106" width="34.0611" height="12.4891" transform="rotate(9.36717 285.473 548.106)" fill="#007AE0"/>
<rect x="263.068" y="544.41" width="12.4891" height="12.4891" transform="rotate(9.36717 263.068 544.41)" fill="#007AE0"/>
<rect x="165.643" y="549.052" width="35.1965" height="14.7598" transform="rotate(9.36717 165.643 549.052)" fill="#AEAEAE"/>
<rect x="165.643" y="549.052" width="35.1965" height="14.7598" transform="rotate(9.36717 165.643 549.052)" fill="#363636"/>
<rect x="161.393" y="574.817" width="35.1965" height="14.7598" transform="rotate(9.36717 161.393 574.817)" fill="#AEAEAE"/>
<rect x="161.393" y="574.817" width="35.1965" height="14.7598" transform="rotate(9.36717 161.393 574.817)" fill="#363636"/>
<rect x="157.142" y="600.583" width="35.1965" height="14.7598" transform="rotate(9.36717 157.142 600.583)" fill="#AEAEAE"/>
<rect x="157.142" y="600.583" width="35.1965" height="14.7598" transform="rotate(9.36717 157.142 600.583)" fill="#363636"/>
<path d="M212.606 712.863L221.98 714.409L223.445 705.529L214.071 703.983L212.606 712.863Z" fill="#007AE0"/>
<path d="M232.34 716.118L241.713 717.664L243.178 708.784L233.805 707.238L232.34 716.118Z" fill="#007AE0"/>
<path d="M240.248 726.544L249.128 728.009L250.593 719.129L241.713 717.664L240.248 726.544Z" fill="#007AE0"/>
<path d="M250.1 719.048L259.473 720.594L260.938 711.714L251.565 710.168L250.1 719.048Z" fill="#007AE0"/>
<path d="M242.685 708.703L252.058 710.249L253.523 701.369L244.149 699.823L242.685 708.703Z" fill="#007AE0"/>
<path d="M223.938 705.61L233.311 707.156L234.776 698.276L225.403 696.73L223.938 705.61Z" fill="#007AE0"/>
<path d="M235.269 698.358L244.643 699.904L246.108 691.024L236.734 689.478L235.269 698.358Z" fill="#007AE0"/>
<path d="M254.016 701.45L263.389 702.997L264.854 694.117L255.481 692.57L254.016 701.45Z" fill="#007AE0"/>
<path d="M215.536 695.103L224.909 696.649L226.374 687.769L217.001 686.223L215.536 695.103Z" fill="#007AE0"/>
<rect x="222.474" y="714.49" width="10" height="9" transform="rotate(9.36717 222.474 714.49)" fill="#007AE0"/>
<rect x="304.814" y="700.708" width="82" height="12" transform="rotate(9.36717 304.814 700.708)" fill="#007AE0"/>
</svg>
