<svg width="547" height="618" viewBox="0 0 547 618" fill="none" xmlns="http://www.w3.org/2000/svg">
<path d="M103 102.4H109.194L103.874 129H97.6801L103 102.4ZM131.323 129.304C129.22 129.304 127.383 128.924 125.813 128.164C124.242 127.404 123.026 126.34 122.165 124.972C121.329 123.579 120.911 121.97 120.911 120.146C120.911 117.891 121.443 115.865 122.507 114.066C123.571 112.267 125.053 110.849 126.953 109.81C128.853 108.771 130.993 108.252 133.375 108.252C135.553 108.252 137.428 108.708 138.999 109.62C140.595 110.507 141.785 111.773 142.571 113.42L137.555 115.928C136.668 114.079 135.148 113.154 132.995 113.154C131.829 113.154 130.778 113.445 129.841 114.028C128.929 114.585 128.207 115.371 127.675 116.384C127.168 117.397 126.915 118.55 126.915 119.842C126.915 121.235 127.333 122.35 128.169 123.186C129.005 123.997 130.17 124.402 131.665 124.402C133.843 124.402 135.515 123.49 136.681 121.666L141.051 124.402C140.063 125.947 138.707 127.151 136.985 128.012C135.287 128.873 133.4 129.304 131.323 129.304ZM167.536 108.556L163.47 129H157.846L158.226 126.986C156.529 128.531 154.439 129.304 151.956 129.304C150.36 129.304 148.891 128.937 147.548 128.202C146.205 127.467 145.129 126.416 144.318 125.048C143.533 123.655 143.14 122.021 143.14 120.146C143.14 117.891 143.634 115.865 144.622 114.066C145.635 112.242 147.003 110.823 148.726 109.81C150.449 108.771 152.349 108.252 154.426 108.252C157.567 108.252 159.784 109.278 161.076 111.33L161.608 108.556H167.536ZM153.78 124.402C154.945 124.402 155.984 124.123 156.896 123.566C157.808 122.983 158.517 122.185 159.024 121.172C159.531 120.159 159.784 118.993 159.784 117.676C159.784 116.283 159.366 115.181 158.53 114.37C157.719 113.559 156.579 113.154 155.11 113.154C153.945 113.154 152.906 113.445 151.994 114.028C151.082 114.585 150.373 115.371 149.866 116.384C149.359 117.397 149.106 118.563 149.106 119.88C149.106 121.273 149.511 122.375 150.322 123.186C151.158 123.997 152.311 124.402 153.78 124.402ZM184.918 108.252C187.198 108.252 189.01 108.86 190.352 110.076C191.695 111.267 192.366 112.977 192.366 115.206C192.366 116.042 192.278 116.865 192.1 117.676L189.82 129H183.892L186.096 118.056C186.198 117.625 186.248 117.157 186.248 116.65C186.248 115.586 185.957 114.775 185.374 114.218C184.792 113.661 183.918 113.382 182.752 113.382C181.232 113.382 179.966 113.825 178.952 114.712C177.964 115.573 177.293 116.878 176.938 118.626L174.886 129H168.958L173.024 108.556H178.648L178.192 110.76C180.016 109.088 182.258 108.252 184.918 108.252ZM232.403 100.804L226.779 129H221.155L221.573 126.948C219.851 128.519 217.761 129.304 215.303 129.304C213.707 129.304 212.238 128.937 210.895 128.202C209.553 127.467 208.476 126.416 207.665 125.048C206.88 123.655 206.487 122.021 206.487 120.146C206.487 117.891 206.981 115.865 207.969 114.066C208.983 112.242 210.351 110.823 212.073 109.81C213.796 108.771 215.696 108.252 217.773 108.252C219.268 108.252 220.573 108.505 221.687 109.012C222.827 109.519 223.727 110.266 224.385 111.254L226.475 100.804H232.403ZM217.127 124.402C218.293 124.402 219.331 124.123 220.243 123.566C221.155 122.983 221.865 122.185 222.371 121.172C222.878 120.159 223.131 118.993 223.131 117.676C223.131 116.283 222.713 115.181 221.877 114.37C221.067 113.559 219.927 113.154 218.457 113.154C217.292 113.154 216.253 113.445 215.341 114.028C214.429 114.585 213.72 115.371 213.213 116.384C212.707 117.397 212.453 118.563 212.453 119.88C212.453 121.273 212.859 122.375 213.669 123.186C214.505 123.997 215.658 124.402 217.127 124.402ZM254.496 117.258C254.496 118.195 254.382 119.234 254.154 120.374H238.498C238.701 123.161 240.461 124.554 243.78 124.554C244.819 124.554 245.807 124.389 246.744 124.06C247.707 123.731 248.543 123.262 249.252 122.654L251.722 126.568C250.582 127.48 249.277 128.164 247.808 128.62C246.339 129.076 244.793 129.304 243.172 129.304C241.069 129.304 239.22 128.937 237.624 128.202C236.053 127.442 234.837 126.365 233.976 124.972C233.14 123.579 232.722 121.97 232.722 120.146C232.722 117.891 233.229 115.865 234.242 114.066C235.281 112.242 236.712 110.823 238.536 109.81C240.36 108.771 242.437 108.252 244.768 108.252C246.744 108.252 248.454 108.619 249.898 109.354C251.367 110.089 252.495 111.14 253.28 112.508C254.091 113.876 254.496 115.459 254.496 117.258ZM244.502 112.698C243.109 112.698 241.931 113.078 240.968 113.838C240.005 114.573 239.321 115.599 238.916 116.916H249.062C249.062 115.599 248.644 114.573 247.808 113.838C246.997 113.078 245.895 112.698 244.502 112.698ZM280.152 108.556L267.46 129H261.342L256.82 108.556H262.672L265.636 122.502L274.224 108.556H280.152ZM300.141 117.258C300.141 118.195 300.027 119.234 299.799 120.374H284.143C284.345 123.161 286.106 124.554 289.425 124.554C290.463 124.554 291.451 124.389 292.389 124.06C293.351 123.731 294.187 123.262 294.897 122.654L297.367 126.568C296.227 127.48 294.922 128.164 293.453 128.62C291.983 129.076 290.438 129.304 288.817 129.304C286.714 129.304 284.865 128.937 283.269 128.202C281.698 127.442 280.482 126.365 279.621 124.972C278.785 123.579 278.367 121.97 278.367 120.146C278.367 117.891 278.873 115.865 279.887 114.066C280.925 112.242 282.357 110.823 284.181 109.81C286.005 108.771 288.082 108.252 290.413 108.252C292.389 108.252 294.099 108.619 295.543 109.354C297.012 110.089 298.139 111.14 298.925 112.508C299.735 113.876 300.141 115.459 300.141 117.258ZM290.147 112.698C288.753 112.698 287.575 113.078 286.613 113.838C285.65 114.573 284.966 115.599 284.561 116.916H294.707C294.707 115.599 294.289 114.573 293.453 113.838C292.642 113.078 291.54 112.698 290.147 112.698ZM307.434 100.804H313.362L307.738 129H301.81L307.434 100.804ZM323.918 129.304C321.866 129.304 320.054 128.924 318.484 128.164C316.938 127.404 315.735 126.34 314.874 124.972C314.038 123.579 313.62 121.97 313.62 120.146C313.62 117.891 314.152 115.865 315.216 114.066C316.28 112.267 317.749 110.849 319.624 109.81C321.498 108.771 323.614 108.252 325.97 108.252C328.047 108.252 329.858 108.632 331.404 109.392C332.949 110.152 334.14 111.229 334.976 112.622C335.837 113.99 336.268 115.586 336.268 117.41C336.268 119.665 335.736 121.691 334.672 123.49C333.633 125.289 332.164 126.707 330.264 127.746C328.389 128.785 326.274 129.304 323.918 129.304ZM324.298 124.402C325.438 124.402 326.464 124.123 327.376 123.566C328.288 122.983 328.997 122.185 329.504 121.172C330.01 120.159 330.264 118.993 330.264 117.676C330.264 116.283 329.858 115.181 329.048 114.37C328.237 113.559 327.097 113.154 325.628 113.154C324.462 113.154 323.424 113.445 322.512 114.028C321.6 114.585 320.89 115.371 320.384 116.384C319.877 117.397 319.624 118.563 319.624 119.88C319.624 121.273 320.029 122.375 320.84 123.186C321.676 123.997 322.828 124.402 324.298 124.402ZM353.645 108.252C355.241 108.252 356.71 108.619 358.053 109.354C359.421 110.089 360.498 111.153 361.283 112.546C362.094 113.914 362.499 115.535 362.499 117.41C362.499 119.665 361.992 121.704 360.979 123.528C359.991 125.327 358.636 126.745 356.913 127.784C355.19 128.797 353.278 129.304 351.175 129.304C348.059 129.304 345.855 128.291 344.563 126.264L342.549 136.372H336.621L342.169 108.556H347.793L347.375 110.57C349.072 109.025 351.162 108.252 353.645 108.252ZM350.491 124.402C351.656 124.402 352.695 124.123 353.607 123.566C354.519 122.983 355.228 122.185 355.735 121.172C356.242 120.159 356.495 118.993 356.495 117.676C356.495 116.283 356.077 115.181 355.241 114.37C354.43 113.559 353.29 113.154 351.821 113.154C350.681 113.154 349.655 113.445 348.743 114.028C347.831 114.585 347.122 115.371 346.615 116.384C346.108 117.397 345.855 118.563 345.855 119.88C345.855 121.273 346.26 122.375 347.071 123.186C347.882 123.997 349.022 124.402 350.491 124.402ZM399.915 108.556L395.849 129H390.225L390.605 126.986C388.908 128.531 386.818 129.304 384.335 129.304C382.739 129.304 381.27 128.937 379.927 128.202C378.584 127.467 377.508 126.416 376.697 125.048C375.912 123.655 375.519 122.021 375.519 120.146C375.519 117.891 376.013 115.865 377.001 114.066C378.014 112.242 379.382 110.823 381.105 109.81C382.828 108.771 384.728 108.252 386.805 108.252C389.946 108.252 392.163 109.278 393.455 111.33L393.987 108.556L399.915 108.556ZM386.159 124.402C387.324 124.402 388.363 124.123 389.275 123.566C390.187 122.983 390.896 122.185 391.403 121.172C391.91 120.159 392.163 118.993 392.163 117.676C392.163 116.283 391.745 115.181 390.909 114.37C390.098 113.559 388.958 113.154 387.489 113.154C386.324 113.154 385.285 113.445 384.373 114.028C383.461 114.585 382.752 115.371 382.245 116.384C381.738 117.397 381.485 118.563 381.485 119.88C381.485 121.273 381.89 122.375 382.701 123.186C383.537 123.997 384.69 124.402 386.159 124.402ZM417.297 108.252C419.577 108.252 421.389 108.86 422.731 110.076C424.074 111.267 424.745 112.977 424.745 115.206C424.745 116.042 424.657 116.865 424.479 117.676L422.199 129H416.271L418.475 118.056C418.577 117.625 418.627 117.157 418.627 116.65C418.627 115.586 418.336 114.775 417.753 114.218C417.171 113.661 416.297 113.382 415.131 113.382C413.611 113.382 412.345 113.825 411.331 114.712C410.343 115.573 409.672 116.878 409.317 118.626L407.265 129H401.337L405.403 108.556H411.027L410.571 110.76C412.395 109.088 414.637 108.252 417.297 108.252ZM454.243 100.804L448.619 129H442.995L443.413 126.948C441.691 128.519 439.601 129.304 437.143 129.304C435.547 129.304 434.078 128.937 432.735 128.202C431.393 127.467 430.316 126.416 429.505 125.048C428.72 123.655 428.327 122.021 428.327 120.146C428.327 117.891 428.821 115.865 429.809 114.066C430.823 112.242 432.191 110.823 433.913 109.81C435.636 108.771 437.536 108.252 439.613 108.252C441.108 108.252 442.413 108.505 443.527 109.012C444.667 109.519 445.567 110.266 446.225 111.254L448.315 100.804H454.243ZM438.967 124.402C440.133 124.402 441.171 124.123 442.083 123.566C442.995 122.983 443.705 122.185 444.211 121.172C444.718 120.159 444.971 118.993 444.971 117.676C444.971 116.283 444.553 115.181 443.717 114.37C442.907 113.559 441.767 113.154 440.297 113.154C439.132 113.154 438.093 113.445 437.181 114.028C436.269 114.585 435.56 115.371 435.053 116.384C434.547 117.397 434.293 118.563 434.293 119.88C434.293 121.273 434.699 122.375 435.509 123.186C436.345 123.997 437.498 124.402 438.967 124.402ZM100.999 146.804L95.3752 175H89.7512L90.1692 172.948C88.4465 174.519 86.3565 175.304 83.8992 175.304C82.3032 175.304 80.8339 174.937 79.4912 174.202C78.1485 173.467 77.0719 172.416 76.2612 171.048C75.4759 169.655 75.0832 168.021 75.0832 166.146C75.0832 163.891 75.5772 161.865 76.5652 160.066C77.5785 158.242 78.9465 156.823 80.6692 155.81C82.3919 154.771 84.2919 154.252 86.3692 154.252C87.8639 154.252 89.1685 154.505 90.2832 155.012C91.4232 155.519 92.3225 156.266 92.9812 157.254L95.0712 146.804H100.999ZM85.7232 170.402C86.8885 170.402 87.9272 170.123 88.8392 169.566C89.7512 168.983 90.4605 168.185 90.9672 167.172C91.4739 166.159 91.7272 164.993 91.7272 163.676C91.7272 162.283 91.3092 161.181 90.4732 160.37C89.6625 159.559 88.5225 159.154 87.0532 159.154C85.8879 159.154 84.8492 159.445 83.9372 160.028C83.0252 160.585 82.3159 161.371 81.8092 162.384C81.3025 163.397 81.0492 164.563 81.0492 165.88C81.0492 167.273 81.4545 168.375 82.2652 169.186C83.1012 169.997 84.2539 170.402 85.7232 170.402ZM123.092 163.258C123.092 164.195 122.978 165.234 122.75 166.374H107.094C107.296 169.161 109.057 170.554 112.376 170.554C113.414 170.554 114.402 170.389 115.34 170.06C116.302 169.731 117.138 169.262 117.848 168.654L120.318 172.568C119.178 173.48 117.873 174.164 116.404 174.62C114.934 175.076 113.389 175.304 111.768 175.304C109.665 175.304 107.816 174.937 106.22 174.202C104.649 173.442 103.433 172.365 102.572 170.972C101.736 169.579 101.318 167.97 101.318 166.146C101.318 163.891 101.824 161.865 102.838 160.066C103.876 158.242 105.308 156.823 107.132 155.81C108.956 154.771 111.033 154.252 113.364 154.252C115.34 154.252 117.05 154.619 118.494 155.354C119.963 156.089 121.09 157.14 121.876 158.508C122.686 159.876 123.092 161.459 123.092 163.258ZM113.098 158.698C111.704 158.698 110.526 159.078 109.564 159.838C108.601 160.573 107.917 161.599 107.512 162.916H117.658C117.658 161.599 117.24 160.573 116.404 159.838C115.593 159.078 114.491 158.698 113.098 158.698ZM132.209 175.304C130.436 175.304 128.751 175.114 127.155 174.734C125.584 174.329 124.356 173.809 123.469 173.176L125.749 168.882C126.636 169.465 127.712 169.933 128.979 170.288C130.271 170.643 131.563 170.82 132.855 170.82C134.198 170.82 135.198 170.655 135.857 170.326C136.516 169.971 136.845 169.477 136.845 168.844C136.845 168.337 136.554 167.97 135.971 167.742C135.388 167.514 134.451 167.273 133.159 167.02C131.69 166.741 130.474 166.437 129.511 166.108C128.574 165.779 127.75 165.247 127.041 164.512C126.357 163.752 126.015 162.726 126.015 161.434C126.015 159.179 126.952 157.419 128.827 156.152C130.727 154.885 133.21 154.252 136.275 154.252C137.694 154.252 139.074 154.404 140.417 154.708C141.76 155.012 142.9 155.43 143.837 155.962L141.709 160.294C140.037 159.255 138.023 158.736 135.667 158.736C134.375 158.736 133.387 158.926 132.703 159.306C132.044 159.686 131.715 160.167 131.715 160.75C131.715 161.282 132.006 161.675 132.589 161.928C133.172 162.156 134.147 162.409 135.515 162.688C136.959 162.967 138.137 163.271 139.049 163.6C139.986 163.904 140.797 164.423 141.481 165.158C142.165 165.893 142.507 166.893 142.507 168.16C142.507 170.44 141.544 172.201 139.619 173.442C137.719 174.683 135.249 175.304 132.209 175.304ZM149.015 154.556H154.905L150.839 175H144.949L149.015 154.556ZM152.967 151.706C151.953 151.706 151.117 151.415 150.459 150.832C149.825 150.224 149.509 149.489 149.509 148.628C149.509 147.615 149.863 146.779 150.573 146.12C151.307 145.436 152.257 145.094 153.423 145.094C154.461 145.094 155.297 145.385 155.931 145.968C156.589 146.525 156.919 147.222 156.919 148.058C156.919 149.147 156.551 150.034 155.817 150.718C155.082 151.377 154.132 151.706 152.967 151.706ZM181.497 154.556L178.115 171.58C177.355 175.431 175.886 178.243 173.707 180.016C171.554 181.789 168.666 182.676 165.043 182.676C163.067 182.676 161.243 182.448 159.571 181.992C157.924 181.536 156.506 180.865 155.315 179.978L158.127 175.684C158.938 176.368 159.976 176.9 161.243 177.28C162.535 177.685 163.89 177.888 165.309 177.888C167.31 177.888 168.83 177.445 169.869 176.558C170.908 175.697 171.617 174.379 171.997 172.606L172.149 171.732C170.502 173.252 168.425 174.012 165.917 174.012C164.22 174.012 162.687 173.67 161.319 172.986C159.951 172.277 158.862 171.276 158.051 169.984C157.266 168.692 156.873 167.172 156.873 165.424C156.873 163.347 157.367 161.459 158.355 159.762C159.343 158.065 160.698 156.722 162.421 155.734C164.169 154.746 166.12 154.252 168.273 154.252C169.869 154.252 171.262 154.556 172.453 155.164C173.669 155.747 174.581 156.659 175.189 157.9L175.835 154.556H181.497ZM167.513 169.148C169.236 169.148 170.654 168.591 171.769 167.476C172.884 166.361 173.441 164.93 173.441 163.182C173.441 161.941 173.036 160.965 172.225 160.256C171.414 159.521 170.287 159.154 168.843 159.154C167.095 159.154 165.651 159.711 164.511 160.826C163.396 161.941 162.839 163.372 162.839 165.12C162.839 166.361 163.257 167.349 164.093 168.084C164.929 168.793 166.069 169.148 167.513 169.148ZM198.909 154.252C201.189 154.252 203 154.86 204.343 156.076C205.685 157.267 206.357 158.977 206.357 161.206C206.357 162.042 206.268 162.865 206.091 163.676L203.811 175H197.883L200.087 164.056C200.188 163.625 200.239 163.157 200.239 162.65C200.239 161.586 199.947 160.775 199.365 160.218C198.782 159.661 197.908 159.382 196.743 159.382C195.223 159.382 193.956 159.825 192.943 160.712C191.955 161.573 191.283 162.878 190.929 164.626L188.877 175H182.949L187.015 154.556H192.639L192.183 156.76C194.007 155.088 196.249 154.252 198.909 154.252ZM244.342 154.556L230.738 176.368C229.268 178.749 227.837 180.396 226.444 181.308C225.076 182.22 223.391 182.676 221.39 182.676C220.326 182.676 219.287 182.511 218.274 182.182C217.235 181.853 216.424 181.422 215.842 180.89L218.578 176.634C219.49 177.47 220.579 177.888 221.846 177.888C222.606 177.888 223.264 177.698 223.822 177.318C224.379 176.938 224.949 176.292 225.532 175.38L225.722 175.038L221.01 154.556H226.938L229.978 168.464L238.49 154.556H244.342ZM252.816 175.304C250.764 175.304 248.953 174.924 247.382 174.164C245.837 173.404 244.633 172.34 243.772 170.972C242.936 169.579 242.518 167.97 242.518 166.146C242.518 163.891 243.05 161.865 244.114 160.066C245.178 158.267 246.647 156.849 248.522 155.81C250.397 154.771 252.512 154.252 254.868 154.252C256.945 154.252 258.757 154.632 260.302 155.392C261.847 156.152 263.038 157.229 263.874 158.622C264.735 159.99 265.166 161.586 265.166 163.41C265.166 165.665 264.634 167.691 263.57 169.49C262.531 171.289 261.062 172.707 259.162 173.746C257.287 174.785 255.172 175.304 252.816 175.304ZM253.196 170.402C254.336 170.402 255.362 170.123 256.274 169.566C257.186 168.983 257.895 168.185 258.402 167.172C258.909 166.159 259.162 164.993 259.162 163.676C259.162 162.283 258.757 161.181 257.946 160.37C257.135 159.559 255.995 159.154 254.526 159.154C253.361 159.154 252.322 159.445 251.41 160.028C250.498 160.585 249.789 161.371 249.282 162.384C248.775 163.397 248.522 164.563 248.522 165.88C248.522 167.273 248.927 168.375 249.738 169.186C250.574 169.997 251.727 170.402 253.196 170.402ZM291.663 154.556L287.597 175H281.973L282.391 172.796C281.505 173.632 280.491 174.265 279.351 174.696C278.211 175.101 277.008 175.304 275.741 175.304C273.512 175.304 271.726 174.696 270.383 173.48C269.066 172.264 268.407 170.554 268.407 168.35C268.407 167.514 268.496 166.691 268.673 165.88L270.915 154.556H276.843L274.677 165.5C274.576 165.981 274.525 166.475 274.525 166.982C274.525 169.11 275.665 170.174 277.945 170.174C279.44 170.174 280.669 169.743 281.631 168.882C282.619 167.995 283.291 166.678 283.645 164.93L285.735 154.556H291.663ZM302.285 156.988C303.172 156.025 304.236 155.329 305.477 154.898C306.744 154.467 308.226 154.252 309.923 154.252L308.859 159.724C308.15 159.673 307.694 159.648 307.491 159.648C305.693 159.648 304.249 160.091 303.159 160.978C302.095 161.865 301.373 163.245 300.993 165.12L299.017 175H293.089L297.155 154.556H302.779L302.285 156.988ZM357.38 154.556L346.094 175H340.242L337.886 162.27L330.856 175H325.08L321.47 154.556H326.866L329.108 168.312L336.784 154.556H341.876L344.194 168.312L351.794 154.556H357.38ZM377.625 163.258C377.625 164.195 377.511 165.234 377.283 166.374H361.627C361.83 169.161 363.59 170.554 366.909 170.554C367.948 170.554 368.936 170.389 369.873 170.06C370.836 169.731 371.672 169.262 372.381 168.654L374.851 172.568C373.711 173.48 372.406 174.164 370.937 174.62C369.468 175.076 367.922 175.304 366.301 175.304C364.198 175.304 362.349 174.937 360.753 174.202C359.182 173.442 357.966 172.365 357.105 170.972C356.269 169.579 355.851 167.97 355.851 166.146C355.851 163.891 356.358 161.865 357.371 160.066C358.41 158.242 359.841 156.823 361.665 155.81C363.489 154.771 365.566 154.252 367.897 154.252C369.873 154.252 371.583 154.619 373.027 155.354C374.496 156.089 375.624 157.14 376.409 158.508C377.22 159.876 377.625 161.459 377.625 163.258ZM367.631 158.698C366.238 158.698 365.06 159.078 364.097 159.838C363.134 160.573 362.45 161.599 362.045 162.916H372.191C372.191 161.599 371.773 160.573 370.937 159.838C370.126 159.078 369.024 158.698 367.631 158.698ZM394.836 154.252C396.432 154.252 397.902 154.619 399.244 155.354C400.612 156.089 401.689 157.153 402.474 158.546C403.285 159.914 403.69 161.535 403.69 163.41C403.69 165.665 403.184 167.704 402.17 169.528C401.182 171.327 399.827 172.745 398.104 173.784C396.382 174.797 394.469 175.304 392.366 175.304C390.77 175.304 389.39 175.025 388.224 174.468C387.059 173.911 386.16 173.075 385.526 171.96L384.918 175H379.294L384.918 146.804H390.846L388.946 156.304C390.593 154.936 392.556 154.252 394.836 154.252ZM391.682 170.402C392.848 170.402 393.886 170.123 394.798 169.566C395.71 168.983 396.42 168.185 396.926 167.172C397.433 166.159 397.686 164.993 397.686 163.676C397.686 162.283 397.268 161.181 396.432 160.37C395.622 159.559 394.482 159.154 393.012 159.154C391.872 159.154 390.846 159.445 389.934 160.028C389.022 160.585 388.313 161.371 387.806 162.384C387.3 163.397 387.046 164.563 387.046 165.88C387.046 167.273 387.452 168.375 388.262 169.186C389.073 169.997 390.213 170.402 391.682 170.402ZM412.979 175.304C411.205 175.304 409.521 175.114 407.925 174.734C406.354 174.329 405.125 173.809 404.239 173.176L406.519 168.882C407.405 169.465 408.482 169.933 409.749 170.288C411.041 170.643 412.333 170.82 413.625 170.82C414.967 170.82 415.968 170.655 416.627 170.326C417.285 169.971 417.615 169.477 417.615 168.844C417.615 168.337 417.323 167.97 416.741 167.742C416.158 167.514 415.221 167.273 413.929 167.02C412.459 166.741 411.243 166.437 410.281 166.108C409.343 165.779 408.52 165.247 407.811 164.512C407.127 163.752 406.785 162.726 406.785 161.434C406.785 159.179 407.722 157.419 409.597 156.152C411.497 154.885 413.979 154.252 417.045 154.252C418.463 154.252 419.844 154.404 421.187 154.708C422.529 155.012 423.669 155.43 424.607 155.962L422.479 160.294C420.807 159.255 418.793 158.736 416.437 158.736C415.145 158.736 414.157 158.926 413.473 159.306C412.814 159.686 412.485 160.167 412.485 160.75C412.485 161.282 412.776 161.675 413.359 161.928C413.941 162.156 414.917 162.409 416.285 162.688C417.729 162.967 418.907 163.271 419.819 163.6C420.756 163.904 421.567 164.423 422.251 165.158C422.935 165.893 423.277 166.893 423.277 168.16C423.277 170.44 422.314 172.201 420.389 173.442C418.489 174.683 416.019 175.304 412.979 175.304ZM429.784 154.556H435.674L431.608 175L425.718 175L429.784 154.556ZM433.736 151.706C432.723 151.706 431.887 151.415 431.228 150.832C430.595 150.224 430.278 149.489 430.278 148.628C430.278 147.615 430.633 146.779 431.342 146.12C432.077 145.436 433.027 145.094 434.192 145.094C435.231 145.094 436.067 145.385 436.7 145.968C437.359 146.525 437.688 147.222 437.688 148.058C437.688 149.147 437.321 150.034 436.586 150.718C435.851 151.377 434.901 151.706 433.736 151.706ZM445.167 167.78C445.116 167.983 445.091 168.261 445.091 168.616C445.091 169.933 445.813 170.592 447.257 170.592C448.042 170.592 448.84 170.351 449.651 169.87L450.525 174.088C449.207 174.899 447.51 175.304 445.433 175.304C443.507 175.304 441.962 174.797 440.797 173.784C439.631 172.771 439.049 171.377 439.049 169.604C439.049 169.097 439.112 168.502 439.239 167.818L440.873 159.572H437.719L438.631 155.012H441.785L442.773 150.034H448.701L447.713 155.012H452.805L451.893 159.572H446.801L445.167 167.78ZM475.185 163.258C475.185 164.195 475.071 165.234 474.843 166.374H459.187C459.39 169.161 461.151 170.554 464.469 170.554C465.508 170.554 466.496 170.389 467.433 170.06C468.396 169.731 469.232 169.262 469.941 168.654L472.411 172.568C471.271 173.48 469.967 174.164 468.497 174.62C467.028 175.076 465.483 175.304 463.861 175.304C461.759 175.304 459.909 174.937 458.313 174.202C456.743 173.442 455.527 172.365 454.665 170.972C453.829 169.579 453.411 167.97 453.411 166.146C453.411 163.891 453.918 161.865 454.931 160.066C455.97 158.242 457.401 156.823 459.225 155.81C461.049 154.771 463.127 154.252 465.457 154.252C467.433 154.252 469.143 154.619 470.587 155.354C472.057 156.089 473.184 157.14 473.969 158.508C474.78 159.876 475.185 161.459 475.185 163.258ZM465.191 158.698C463.798 158.698 462.62 159.078 461.657 159.838C460.695 160.573 460.011 161.599 459.605 162.916H469.751C469.751 161.599 469.333 160.573 468.497 159.838C467.687 159.078 466.585 158.698 465.191 158.698ZM68.8098 197.174C67.8978 197.174 67.1758 197.427 66.6438 197.934C66.1371 198.415 65.7824 199.188 65.5798 200.252L65.4278 201.012H70.6338L69.7218 205.572H64.6678L61.5898 221H55.6618L58.7398 205.572H55.5478L56.4598 201.012H59.6518L59.8798 199.834C60.3611 197.554 61.3491 195.768 62.8438 194.476C64.3638 193.159 66.3398 192.5 68.7718 192.5C69.6838 192.5 70.5451 192.601 71.3558 192.804C72.1918 193.007 72.9011 193.285 73.4838 193.64L71.1658 197.896C70.5324 197.415 69.7471 197.174 68.8098 197.174ZM80.0533 221.304C78.0013 221.304 76.19 220.924 74.6193 220.164C73.074 219.404 71.8707 218.34 71.0093 216.972C70.1733 215.579 69.7553 213.97 69.7553 212.146C69.7553 209.891 70.2873 207.865 71.3513 206.066C72.4153 204.267 73.8847 202.849 75.7593 201.81C77.634 200.771 79.7493 200.252 82.1053 200.252C84.1827 200.252 85.994 200.632 87.5393 201.392C89.0847 202.152 90.2753 203.229 91.1113 204.622C91.9727 205.99 92.4033 207.586 92.4033 209.41C92.4033 211.665 91.8713 213.691 90.8073 215.49C89.7687 217.289 88.2993 218.707 86.3993 219.746C84.5247 220.785 82.4093 221.304 80.0533 221.304ZM80.4333 216.402C81.5733 216.402 82.5993 216.123 83.5113 215.566C84.4233 214.983 85.1327 214.185 85.6393 213.172C86.146 212.159 86.3993 210.993 86.3993 209.676C86.3993 208.283 85.994 207.181 85.1833 206.37C84.3727 205.559 83.2327 205.154 81.7633 205.154C80.598 205.154 79.5593 205.445 78.6473 206.028C77.7353 206.585 77.026 207.371 76.5193 208.384C76.0127 209.397 75.7593 210.563 75.7593 211.88C75.7593 213.273 76.1647 214.375 76.9753 215.186C77.8113 215.997 78.964 216.402 80.4333 216.402ZM103.435 202.988C104.321 202.025 105.385 201.329 106.627 200.898C107.893 200.467 109.375 200.252 111.073 200.252L110.009 205.724C109.299 205.673 108.843 205.648 108.641 205.648C106.842 205.648 105.398 206.091 104.309 206.978C103.245 207.865 102.523 209.245 102.143 211.12L100.167 221H94.2386L98.3046 200.556H103.929L103.435 202.988ZM145.724 200.556L132.12 222.368C130.65 224.749 129.219 226.396 127.826 227.308C126.458 228.22 124.773 228.676 122.772 228.676C121.708 228.676 120.669 228.511 119.656 228.182C118.617 227.853 117.806 227.422 117.224 226.89L119.96 222.634C120.872 223.47 121.961 223.888 123.228 223.888C123.988 223.888 124.646 223.698 125.204 223.318C125.761 222.938 126.331 222.292 126.914 221.38L127.104 221.038L122.392 200.556H128.32L131.36 214.464L139.872 200.556H145.724ZM154.198 221.304C152.146 221.304 150.335 220.924 148.764 220.164C147.219 219.404 146.015 218.34 145.154 216.972C144.318 215.579 143.9 213.97 143.9 212.146C143.9 209.891 144.432 207.865 145.496 206.066C146.56 204.267 148.029 202.849 149.904 201.81C151.779 200.771 153.894 200.252 156.25 200.252C158.327 200.252 160.139 200.632 161.684 201.392C163.229 202.152 164.42 203.229 165.256 204.622C166.117 205.99 166.548 207.586 166.548 209.41C166.548 211.665 166.016 213.691 164.952 215.49C163.913 217.289 162.444 218.707 160.544 219.746C158.669 220.785 156.554 221.304 154.198 221.304ZM154.578 216.402C155.718 216.402 156.744 216.123 157.656 215.566C158.568 214.983 159.277 214.185 159.784 213.172C160.291 212.159 160.544 210.993 160.544 209.676C160.544 208.283 160.139 207.181 159.328 206.37C158.517 205.559 157.377 205.154 155.908 205.154C154.743 205.154 153.704 205.445 152.792 206.028C151.88 206.585 151.171 207.371 150.664 208.384C150.157 209.397 149.904 210.563 149.904 211.88C149.904 213.273 150.309 214.375 151.12 215.186C151.956 215.997 153.109 216.402 154.578 216.402ZM193.045 200.556L188.979 221H183.355L183.773 218.796C182.886 219.632 181.873 220.265 180.733 220.696C179.593 221.101 178.39 221.304 177.123 221.304C174.894 221.304 173.108 220.696 171.765 219.48C170.448 218.264 169.789 216.554 169.789 214.35C169.789 213.514 169.878 212.691 170.055 211.88L172.297 200.556H178.225L176.059 211.5C175.958 211.981 175.907 212.475 175.907 212.982C175.907 215.11 177.047 216.174 179.327 216.174C180.822 216.174 182.05 215.743 183.013 214.882C184.001 213.995 184.672 212.678 185.027 210.93L187.117 200.556H193.045ZM219.103 197.174C218.191 197.174 217.469 197.427 216.937 197.934C216.43 198.415 216.075 199.188 215.873 200.252L215.721 201.012H220.927L220.015 205.572H214.961L211.883 221H205.955L209.033 205.572H205.841L206.753 201.012H209.945L210.173 199.834C210.654 197.554 211.642 195.768 213.137 194.476C214.657 193.159 216.633 192.5 219.065 192.5C219.977 192.5 220.838 192.601 221.649 192.804C222.485 193.007 223.194 193.285 223.777 193.64L221.459 197.896C220.825 197.415 220.04 197.174 219.103 197.174ZM230.346 221.304C228.294 221.304 226.483 220.924 224.912 220.164C223.367 219.404 222.164 218.34 221.302 216.972C220.466 215.579 220.048 213.97 220.048 212.146C220.048 209.891 220.58 207.865 221.644 206.066C222.708 204.267 224.178 202.849 226.052 201.81C227.927 200.771 230.042 200.252 232.398 200.252C234.476 200.252 236.287 200.632 237.832 201.392C239.378 202.152 240.568 203.229 241.404 204.622C242.266 205.99 242.696 207.586 242.696 209.41C242.696 211.665 242.164 213.691 241.1 215.49C240.062 217.289 238.592 218.707 236.692 219.746C234.818 220.785 232.702 221.304 230.346 221.304ZM230.726 216.402C231.866 216.402 232.892 216.123 233.804 215.566C234.716 214.983 235.426 214.185 235.932 213.172C236.439 212.159 236.692 210.993 236.692 209.676C236.692 208.283 236.287 207.181 235.476 206.37C234.666 205.559 233.526 205.154 232.056 205.154C230.891 205.154 229.852 205.445 228.94 206.028C228.028 206.585 227.319 207.371 226.812 208.384C226.306 209.397 226.052 210.563 226.052 211.88C226.052 213.273 226.458 214.375 227.268 215.186C228.104 215.997 229.257 216.402 230.726 216.402ZM274.248 200.252C276.477 200.252 278.25 200.86 279.568 202.076C280.885 203.267 281.544 204.964 281.544 207.168C281.544 207.979 281.455 208.815 281.278 209.676L279.036 221H273.108L275.274 210.094C275.375 209.587 275.426 209.068 275.426 208.536C275.426 207.497 275.147 206.712 274.59 206.18C274.058 205.648 273.26 205.382 272.196 205.382C269.333 205.382 267.547 207.092 266.838 210.512L264.748 221H258.82L260.986 210.094C261.087 209.587 261.138 209.081 261.138 208.574C261.138 207.535 260.859 206.75 260.302 206.218C259.77 205.661 258.972 205.382 257.908 205.382C255.045 205.382 253.246 207.117 252.512 210.588L250.46 221H244.532L248.598 200.556H254.222L253.766 202.684C255.539 201.063 257.68 200.252 260.188 200.252C261.606 200.252 262.86 200.543 263.95 201.126C265.064 201.683 265.9 202.507 266.458 203.596C267.446 202.507 268.598 201.683 269.916 201.126C271.233 200.543 272.677 200.252 274.248 200.252ZM302.597 221.304C300.823 221.304 299.139 221.114 297.543 220.734C295.972 220.329 294.743 219.809 293.857 219.176L296.137 214.882C297.023 215.465 298.1 215.933 299.367 216.288C300.659 216.643 301.951 216.82 303.243 216.82C304.585 216.82 305.586 216.655 306.245 216.326C306.903 215.971 307.233 215.477 307.233 214.844C307.233 214.337 306.941 213.97 306.359 213.742C305.776 213.514 304.839 213.273 303.547 213.02C302.077 212.741 300.861 212.437 299.899 212.108C298.961 211.779 298.138 211.247 297.429 210.512C296.745 209.752 296.403 208.726 296.403 207.434C296.403 205.179 297.34 203.419 299.215 202.152C301.115 200.885 303.597 200.252 306.663 200.252C308.081 200.252 309.462 200.404 310.805 200.708C312.147 201.012 313.287 201.43 314.225 201.962L312.097 206.294C310.425 205.255 308.411 204.736 306.055 204.736C304.763 204.736 303.775 204.926 303.091 205.306C302.432 205.686 302.103 206.167 302.103 206.75C302.103 207.282 302.394 207.675 302.977 207.928C303.559 208.156 304.535 208.409 305.903 208.688C307.347 208.967 308.525 209.271 309.437 209.6C310.374 209.904 311.185 210.423 311.869 211.158C312.553 211.893 312.895 212.893 312.895 214.16C312.895 216.44 311.932 218.201 310.007 219.442C308.107 220.683 305.637 221.304 302.597 221.304ZM326.128 221.304C324.026 221.304 322.189 220.924 320.618 220.164C319.048 219.404 317.832 218.34 316.97 216.972C316.134 215.579 315.716 213.97 315.716 212.146C315.716 209.891 316.248 207.865 317.312 206.066C318.376 204.267 319.858 202.849 321.758 201.81C323.658 200.771 325.799 200.252 328.18 200.252C330.359 200.252 332.234 200.708 333.804 201.62C335.4 202.507 336.591 203.773 337.376 205.42L332.36 207.928C331.474 206.079 329.954 205.154 327.8 205.154C326.635 205.154 325.584 205.445 324.646 206.028C323.734 206.585 323.012 207.371 322.48 208.384C321.974 209.397 321.72 210.55 321.72 211.842C321.72 213.235 322.138 214.35 322.974 215.186C323.81 215.997 324.976 216.402 326.47 216.402C328.649 216.402 330.321 215.49 331.486 213.666L335.856 216.402C334.868 217.947 333.513 219.151 331.79 220.012C330.093 220.873 328.206 221.304 326.128 221.304ZM346.983 202.988C347.87 202.025 348.934 201.329 350.175 200.898C351.442 200.467 352.924 200.252 354.621 200.252L353.557 205.724C352.848 205.673 352.392 205.648 352.189 205.648C350.391 205.648 348.947 206.091 347.857 206.978C346.793 207.865 346.071 209.245 345.691 211.12L343.715 221H337.787L341.853 200.556H347.477L346.983 202.988ZM378.633 200.556L374.567 221H368.943L369.323 218.986C367.625 220.531 365.535 221.304 363.053 221.304C361.457 221.304 359.987 220.937 358.645 220.202C357.302 219.467 356.225 218.416 355.415 217.048C354.629 215.655 354.237 214.021 354.237 212.146C354.237 209.891 354.731 207.865 355.719 206.066C356.732 204.242 358.1 202.823 359.823 201.81C361.545 200.771 363.445 200.252 365.523 200.252C368.664 200.252 370.881 201.278 372.173 203.33L372.705 200.556H378.633ZM364.877 216.402C366.042 216.402 367.081 216.123 367.993 215.566C368.905 214.983 369.614 214.185 370.121 213.172C370.627 212.159 370.881 210.993 370.881 209.676C370.881 208.283 370.463 207.181 369.627 206.37C368.816 205.559 367.676 205.154 366.207 205.154C365.041 205.154 364.003 205.445 363.091 206.028C362.179 206.585 361.469 207.371 360.963 208.384C360.456 209.397 360.203 210.563 360.203 211.88C360.203 213.273 360.608 214.375 361.419 215.186C362.255 215.997 363.407 216.402 364.877 216.402ZM388.111 213.78C388.06 213.983 388.035 214.261 388.035 214.616C388.035 215.933 388.757 216.592 390.201 216.592C390.986 216.592 391.784 216.351 392.595 215.87L393.469 220.088C392.152 220.899 390.454 221.304 388.377 221.304C386.452 221.304 384.906 220.797 383.741 219.784C382.576 218.771 381.993 217.377 381.993 215.604C381.993 215.097 382.056 214.502 382.183 213.818L383.817 205.572H380.663L381.575 201.012H384.729L385.717 196.034H391.645L390.657 201.012H395.749L394.837 205.572H389.745L388.111 213.78ZM406.73 221.304C404.627 221.304 402.79 220.924 401.22 220.164C399.649 219.404 398.433 218.34 397.572 216.972C396.736 215.579 396.318 213.97 396.318 212.146C396.318 209.891 396.85 207.865 397.914 206.066C398.978 204.267 400.46 202.849 402.36 201.81C404.26 200.771 406.4 200.252 408.782 200.252C410.96 200.252 412.835 200.708 414.406 201.62C416.002 202.507 417.192 203.773 417.978 205.42L412.962 207.928C412.075 206.079 410.555 205.154 408.402 205.154C407.236 205.154 406.185 205.445 405.248 206.028C404.336 206.585 403.614 207.371 403.082 208.384C402.575 209.397 402.322 210.55 402.322 211.842C402.322 213.235 402.74 214.35 403.576 215.186C404.412 215.997 405.577 216.402 407.072 216.402C409.25 216.402 410.922 215.49 412.088 213.666L416.458 216.402C415.47 217.947 414.114 219.151 412.392 220.012C410.694 220.873 408.807 221.304 406.73 221.304ZM434.201 200.252C436.481 200.252 438.292 200.86 439.635 202.076C440.977 203.292 441.649 205.015 441.649 207.244C441.649 208.055 441.56 208.865 441.383 209.676L439.103 221H433.175L435.379 210.056C435.48 209.625 435.531 209.157 435.531 208.65C435.531 207.586 435.239 206.775 434.657 206.218C434.074 205.661 433.2 205.382 432.035 205.382C430.515 205.382 429.248 205.825 428.235 206.712C427.247 207.573 426.575 208.878 426.221 210.626L424.169 221H418.241L423.865 192.804H429.793L427.893 202.418C429.641 200.974 431.743 200.252 434.201 200.252ZM465.954 221.304C463.902 221.304 462.09 220.924 460.52 220.164C458.974 219.404 457.771 218.34 456.91 216.972C456.074 215.579 455.656 213.97 455.656 212.146C455.656 209.891 456.188 207.865 457.252 206.066C458.316 204.267 459.785 202.849 461.66 201.81C463.534 200.771 465.65 200.252 468.006 200.252C470.083 200.252 471.894 200.632 473.44 201.392C474.985 202.152 476.176 203.229 477.012 204.622C477.873 205.99 478.304 207.586 478.304 209.41C478.304 211.665 477.772 213.691 476.708 215.49C475.669 217.289 474.2 218.707 472.3 219.746C470.425 220.785 468.31 221.304 465.954 221.304ZM466.334 216.402C467.474 216.402 468.5 216.123 469.412 215.566C470.324 214.983 471.033 214.185 471.54 213.172C472.046 212.159 472.3 210.993 472.3 209.676C472.3 208.283 471.894 207.181 471.084 206.37C470.273 205.559 469.133 205.154 467.664 205.154C466.498 205.154 465.46 205.445 464.548 206.028C463.636 206.585 462.926 207.371 462.42 208.384C461.913 209.397 461.66 210.563 461.66 211.88C461.66 213.273 462.065 214.375 462.876 215.186C463.712 215.997 464.864 216.402 466.334 216.402ZM489.335 202.988C490.222 202.025 491.286 201.329 492.527 200.898C493.794 200.467 495.276 200.252 496.973 200.252L495.909 205.724C495.2 205.673 494.744 205.648 494.541 205.648C492.742 205.648 491.298 206.091 490.209 206.978C489.145 207.865 488.423 209.245 488.043 211.12L486.067 221H480.139L484.205 200.556H489.829L489.335 202.988ZM124.845 243.174C123.933 243.174 123.211 243.427 122.679 243.934C122.172 244.415 121.818 245.188 121.615 246.252L121.463 247.012H126.669L125.757 251.572H120.703L117.625 267H111.697L114.775 251.572H111.583L112.495 247.012H115.687L115.915 245.834C116.396 243.554 117.384 241.768 118.879 240.476C120.399 239.159 122.375 238.5 124.807 238.5C125.719 238.5 126.58 238.601 127.391 238.804C128.227 239.007 128.936 239.285 129.519 239.64L127.201 243.896C126.568 243.415 125.782 243.174 124.845 243.174ZM137.909 248.988C138.796 248.025 139.86 247.329 141.101 246.898C142.368 246.467 143.85 246.252 145.547 246.252L144.483 251.724C143.774 251.673 143.318 251.648 143.115 251.648C141.317 251.648 139.873 252.091 138.783 252.978C137.719 253.865 136.997 255.245 136.617 257.12L134.641 267H128.713L132.779 246.556H138.403L137.909 248.988ZM155.422 267.304C153.37 267.304 151.559 266.924 149.988 266.164C148.443 265.404 147.24 264.34 146.378 262.972C145.542 261.579 145.124 259.97 145.124 258.146C145.124 255.891 145.656 253.865 146.72 252.066C147.784 250.267 149.254 248.849 151.128 247.81C153.003 246.771 155.118 246.252 157.474 246.252C159.552 246.252 161.363 246.632 162.908 247.392C164.454 248.152 165.644 249.229 166.48 250.622C167.342 251.99 167.772 253.586 167.772 255.41C167.772 257.665 167.24 259.691 166.176 261.49C165.138 263.289 163.668 264.707 161.768 265.746C159.894 266.785 157.778 267.304 155.422 267.304ZM155.802 262.402C156.942 262.402 157.968 262.123 158.88 261.566C159.792 260.983 160.502 260.185 161.008 259.172C161.515 258.159 161.768 256.993 161.768 255.676C161.768 254.283 161.363 253.181 160.552 252.37C159.742 251.559 158.602 251.154 157.132 251.154C155.967 251.154 154.928 251.445 154.016 252.028C153.104 252.585 152.395 253.371 151.888 254.384C151.382 255.397 151.128 256.563 151.128 257.88C151.128 259.273 151.534 260.375 152.344 261.186C153.18 261.997 154.333 262.402 155.802 262.402ZM199.324 246.252C201.553 246.252 203.326 246.86 204.644 248.076C205.961 249.267 206.62 250.964 206.62 253.168C206.62 253.979 206.531 254.815 206.354 255.676L204.112 267H198.184L200.35 256.094C200.451 255.587 200.502 255.068 200.502 254.536C200.502 253.497 200.223 252.712 199.666 252.18C199.134 251.648 198.336 251.382 197.272 251.382C194.409 251.382 192.623 253.092 191.914 256.512L189.824 267H183.896L186.062 256.094C186.163 255.587 186.214 255.081 186.214 254.574C186.214 253.535 185.935 252.75 185.378 252.218C184.846 251.661 184.048 251.382 182.984 251.382C180.121 251.382 178.322 253.117 177.588 256.588L175.536 267H169.608L173.674 246.556H179.298L178.842 248.684C180.615 247.063 182.756 246.252 185.264 246.252C186.682 246.252 187.936 246.543 189.026 247.126C190.14 247.683 190.976 248.507 191.534 249.596C192.522 248.507 193.674 247.683 194.992 247.126C196.309 246.543 197.753 246.252 199.324 246.252ZM245.039 246.556L240.973 267H235.349L235.729 264.986C234.032 266.531 231.942 267.304 229.459 267.304C227.863 267.304 226.394 266.937 225.051 266.202C223.708 265.467 222.632 264.416 221.821 263.048C221.036 261.655 220.643 260.021 220.643 258.146C220.643 255.891 221.137 253.865 222.125 252.066C223.138 250.242 224.506 248.823 226.229 247.81C227.952 246.771 229.852 246.252 231.929 246.252C235.07 246.252 237.287 247.278 238.579 249.33L239.111 246.556H245.039ZM231.283 262.402C232.448 262.402 233.487 262.123 234.399 261.566C235.311 260.983 236.02 260.185 236.527 259.172C237.034 258.159 237.287 256.993 237.287 255.676C237.287 254.283 236.869 253.181 236.033 252.37C235.222 251.559 234.082 251.154 232.613 251.154C231.448 251.154 230.409 251.445 229.497 252.028C228.585 252.585 227.876 253.371 227.369 254.384C226.862 255.397 226.609 256.563 226.609 257.88C226.609 259.273 227.014 260.375 227.825 261.186C228.661 261.997 229.814 262.402 231.283 262.402ZM265.279 259.78C265.228 259.983 265.203 260.261 265.203 260.616C265.203 261.933 265.925 262.592 267.369 262.592C268.154 262.592 268.952 262.351 269.763 261.87L270.637 266.088C269.32 266.899 267.622 267.304 265.545 267.304C263.62 267.304 262.074 266.797 260.909 265.784C259.744 264.771 259.161 263.377 259.161 261.604C259.161 261.097 259.224 260.502 259.351 259.818L260.985 251.572H257.831L258.743 247.012H261.897L262.885 242.034H268.813L267.825 247.012H272.917L272.005 251.572H266.913L265.279 259.78ZM295.298 255.258C295.298 256.195 295.184 257.234 294.956 258.374H279.3C279.502 261.161 281.263 262.554 284.582 262.554C285.62 262.554 286.608 262.389 287.546 262.06C288.508 261.731 289.344 261.262 290.054 260.654L292.524 264.568C291.384 265.48 290.079 266.164 288.61 266.62C287.14 267.076 285.595 267.304 283.974 267.304C281.871 267.304 280.022 266.937 278.426 266.202C276.855 265.442 275.639 264.365 274.778 262.972C273.942 261.579 273.524 259.97 273.524 258.146C273.524 255.891 274.03 253.865 275.044 252.066C276.082 250.242 277.514 248.823 279.338 247.81C281.162 246.771 283.239 246.252 285.57 246.252C287.546 246.252 289.256 246.619 290.7 247.354C292.169 248.089 293.296 249.14 294.082 250.508C294.892 251.876 295.298 253.459 295.298 255.258ZM285.304 250.698C283.91 250.698 282.732 251.078 281.77 251.838C280.807 252.573 280.123 253.599 279.718 254.916H289.864C289.864 253.599 289.446 252.573 288.61 251.838C287.799 251.078 286.697 250.698 285.304 250.698ZM326.683 246.252C328.912 246.252 330.686 246.86 332.003 248.076C333.32 249.267 333.979 250.964 333.979 253.168C333.979 253.979 333.89 254.815 333.713 255.676L331.471 267H325.543L327.709 256.094C327.81 255.587 327.861 255.068 327.861 254.536C327.861 253.497 327.582 252.712 327.025 252.18C326.493 251.648 325.695 251.382 324.631 251.382C321.768 251.382 319.982 253.092 319.273 256.512L317.183 267H311.255L313.421 256.094C313.522 255.587 313.573 255.081 313.573 254.574C313.573 253.535 313.294 252.75 312.737 252.218C312.205 251.661 311.407 251.382 310.343 251.382C307.48 251.382 305.682 253.117 304.947 256.588L302.895 267H296.967L301.033 246.556L306.657 246.556L306.201 248.684C307.974 247.063 310.115 246.252 312.623 246.252C314.042 246.252 315.296 246.543 316.385 247.126C317.5 247.683 318.336 248.507 318.893 249.596C319.881 248.507 321.034 247.683 322.351 247.126C323.668 246.543 325.112 246.252 326.683 246.252ZM352.365 246.252C353.961 246.252 355.43 246.619 356.773 247.354C358.141 248.089 359.217 249.153 360.003 250.546C360.813 251.914 361.219 253.535 361.219 255.41C361.219 257.665 360.712 259.704 359.699 261.528C358.711 263.327 357.355 264.745 355.633 265.784C353.91 266.797 351.997 267.304 349.895 267.304C346.779 267.304 344.575 266.291 343.283 264.264L341.269 274.372H335.341L340.889 246.556H346.513L346.095 248.57C347.792 247.025 349.882 246.252 352.365 246.252ZM349.211 262.402C350.376 262.402 351.415 262.123 352.327 261.566C353.239 260.983 353.948 260.185 354.455 259.172C354.961 258.159 355.215 256.993 355.215 255.676C355.215 254.283 354.797 253.181 353.961 252.37C353.15 251.559 352.01 251.154 350.541 251.154C349.401 251.154 348.375 251.445 347.463 252.028C346.551 252.585 345.841 253.371 345.335 254.384C344.828 255.397 344.575 256.563 344.575 257.88C344.575 259.273 344.98 260.375 345.791 261.186C346.601 261.997 347.741 262.402 349.211 262.402ZM368.683 238.804H374.611L368.987 267H363.059L368.683 238.804ZM399.303 246.556L395.237 267H389.613L389.993 264.986C388.295 266.531 386.205 267.304 383.723 267.304C382.127 267.304 380.657 266.937 379.315 266.202C377.972 265.467 376.895 264.416 376.085 263.048C375.299 261.655 374.907 260.021 374.907 258.146C374.907 255.891 375.401 253.865 376.389 252.066C377.402 250.242 378.77 248.823 380.493 247.81C382.215 246.771 384.115 246.252 386.193 246.252C389.334 246.252 391.551 247.278 392.843 249.33L393.375 246.556H399.303ZM385.547 262.402C386.712 262.402 387.751 262.123 388.663 261.566C389.575 260.983 390.284 260.185 390.791 259.172C391.297 258.159 391.551 256.993 391.551 255.676C391.551 254.283 391.133 253.181 390.297 252.37C389.486 251.559 388.346 251.154 386.877 251.154C385.711 251.154 384.673 251.445 383.761 252.028C382.849 252.585 382.139 253.371 381.633 254.384C381.126 255.397 380.873 256.563 380.873 257.88C380.873 259.273 381.278 260.375 382.089 261.186C382.925 261.997 384.077 262.402 385.547 262.402ZM408.781 259.78C408.73 259.983 408.705 260.261 408.705 260.616C408.705 261.933 409.427 262.592 410.871 262.592C411.656 262.592 412.454 262.351 413.265 261.87L414.139 266.088C412.822 266.899 411.124 267.304 409.047 267.304C407.122 267.304 405.576 266.797 404.411 265.784C403.246 264.771 402.663 263.377 402.663 261.604C402.663 261.097 402.726 260.502 402.853 259.818L404.487 251.572H401.333L402.245 247.012H405.399L406.387 242.034H412.315L411.327 247.012H416.419L415.507 251.572H410.415L408.781 259.78ZM438.8 255.258C438.8 256.195 438.686 257.234 438.458 258.374H422.802C423.004 261.161 424.765 262.554 428.084 262.554C429.122 262.554 430.11 262.389 431.048 262.06C432.01 261.731 432.846 261.262 433.556 260.654L436.026 264.568C434.886 265.48 433.581 266.164 432.112 266.62C430.642 267.076 429.097 267.304 427.476 267.304C425.373 267.304 423.524 266.937 421.928 266.202C420.357 265.442 419.141 264.365 418.28 262.972C417.444 261.579 417.026 259.97 417.026 258.146C417.026 255.891 417.532 253.865 418.546 252.066C419.584 250.242 421.016 248.823 422.84 247.81C424.664 246.771 426.741 246.252 429.072 246.252C431.048 246.252 432.758 246.619 434.202 247.354C435.671 248.089 436.798 249.14 437.584 250.508C438.394 251.876 438.8 253.459 438.8 255.258ZM428.806 250.698C427.412 250.698 426.234 251.078 425.272 251.838C424.309 252.573 423.625 253.599 423.22 254.916H433.366C433.366 253.599 432.948 252.573 432.112 251.838C431.301 251.078 430.199 250.698 428.806 250.698Z" fill="black"/>
<path d="M208.635 16L186.435 58H176.055L172.395 29.74L157.215 58H146.775L141.435 16L151.035 16L154.755 45.52L170.535 16L179.535 16L183.135 45.76L198.975 16L208.635 16ZM237.639 39.46C237.639 40.94 237.459 42.58 237.099 44.38H212.379C212.699 48.78 215.479 50.98 220.719 50.98C222.359 50.98 223.919 50.72 225.399 50.2C226.919 49.68 228.239 48.94 229.359 47.98L233.259 54.16C231.459 55.6 229.399 56.68 227.079 57.4C224.759 58.12 222.319 58.48 219.759 58.48C216.439 58.48 213.519 57.9 210.999 56.74C208.519 55.54 206.599 53.84 205.239 51.64C203.919 49.44 203.259 46.9 203.259 44.02C203.259 40.46 204.059 37.26 205.659 34.42C207.299 31.54 209.559 29.3 212.439 27.7C215.319 26.06 218.599 25.24 222.279 25.24C225.399 25.24 228.099 25.82 230.379 26.98C232.699 28.14 234.479 29.8 235.719 31.96C236.999 34.12 237.639 36.62 237.639 39.46ZM221.859 32.26C219.659 32.26 217.799 32.86 216.279 34.06C214.759 35.22 213.679 36.84 213.039 38.92H229.059C229.059 36.84 228.399 35.22 227.079 34.06C225.799 32.86 224.059 32.26 221.859 32.26ZM264.815 25.24C267.335 25.24 269.655 25.82 271.775 26.98C273.935 28.14 275.635 29.82 276.875 32.02C278.155 34.18 278.795 36.74 278.795 39.7C278.795 43.26 277.995 46.48 276.395 49.36C274.835 52.2 272.695 54.44 269.975 56.08C267.255 57.68 264.235 58.48 260.915 58.48C258.395 58.48 256.215 58.04 254.375 57.16C252.535 56.28 251.115 54.96 250.115 53.2L249.155 58H240.275L249.155 13.48H258.515L255.515 28.48C258.115 26.32 261.215 25.24 264.815 25.24ZM259.835 50.74C261.675 50.74 263.315 50.3 264.755 49.42C266.195 48.5 267.315 47.24 268.115 45.64C268.915 44.04 269.315 42.2 269.315 40.12C269.315 37.92 268.655 36.18 267.335 34.9C266.055 33.62 264.255 32.98 261.935 32.98C260.135 32.98 258.515 33.44 257.075 34.36C255.635 35.24 254.515 36.48 253.715 38.08C252.915 39.68 252.515 41.52 252.515 43.6C252.515 45.8 253.155 47.54 254.435 48.82C255.715 50.1 257.515 50.74 259.835 50.74ZM340.393 13.48L331.513 58H322.633L323.293 54.76C320.573 57.24 317.273 58.48 313.393 58.48C310.873 58.48 308.553 57.9 306.433 56.74C304.313 55.58 302.613 53.92 301.333 51.76C300.093 49.56 299.473 46.98 299.473 44.02C299.473 40.46 300.253 37.26 301.813 34.42C303.413 31.54 305.573 29.3 308.293 27.7C311.013 26.06 314.013 25.24 317.293 25.24C319.653 25.24 321.713 25.64 323.473 26.44C325.273 27.24 326.693 28.42 327.733 29.98L331.033 13.48L340.393 13.48ZM316.273 50.74C318.113 50.74 319.753 50.3 321.193 49.42C322.633 48.5 323.753 47.24 324.553 45.64C325.353 44.04 325.753 42.2 325.753 40.12C325.753 37.92 325.093 36.18 323.773 34.9C322.493 33.62 320.693 32.98 318.373 32.98C316.533 32.98 314.893 33.44 313.453 34.36C312.013 35.24 310.893 36.48 310.093 38.08C309.293 39.68 308.893 41.52 308.893 43.6C308.893 45.8 309.533 47.54 310.813 48.82C312.133 50.1 313.953 50.74 316.273 50.74ZM375.276 39.46C375.276 40.94 375.096 42.58 374.736 44.38H350.016C350.336 48.78 353.116 50.98 358.356 50.98C359.996 50.98 361.556 50.72 363.036 50.2C364.556 49.68 365.876 48.94 366.996 47.98L370.896 54.16C369.096 55.6 367.036 56.68 364.716 57.4C362.396 58.12 359.956 58.48 357.396 58.48C354.076 58.48 351.156 57.9 348.636 56.74C346.156 55.54 344.236 53.84 342.876 51.64C341.556 49.44 340.896 46.9 340.896 44.02C340.896 40.46 341.696 37.26 343.296 34.42C344.936 31.54 347.196 29.3 350.076 27.7C352.956 26.06 356.236 25.24 359.916 25.24C363.036 25.24 365.736 25.82 368.016 26.98C370.336 28.14 372.116 29.8 373.356 31.96C374.636 34.12 375.276 36.62 375.276 39.46ZM359.496 32.26C357.296 32.26 355.436 32.86 353.916 34.06C352.396 35.22 351.316 36.84 350.676 38.92H366.696C366.696 36.84 366.036 35.22 364.716 34.06C363.436 32.86 361.696 32.26 359.496 32.26ZM415.786 25.72L395.746 58H386.086L378.946 25.72H388.186L392.866 47.74L406.426 25.72H415.786Z" fill="black"/>
<rect x="250.516" y="367.873" width="154.41" height="140.786" transform="rotate(9.36717 250.516 367.873)" fill="white"/>
<path d="M200.276 518.959L189.742 582.813L137.652 574.22L148.185 510.367L169.469 513.878L171.04 504.356L160.398 502.6L162.338 490.838L151.696 489.082L169.251 382.66L179.893 384.416L181.834 372.653L192.476 374.409L197.558 343.602L240.687 350.717L214.169 511.47L224.251 513.133L222.68 522.655L200.276 518.959Z" fill="#292929"/>
<path fill-rule="evenodd" clip-rule="evenodd" d="M214.17 511.47L240.688 350.717L422.165 380.654L395.647 541.407L214.17 511.47ZM365.476 524.883L367.052 515.327L377.727 517.088L395.437 409.732L384.761 407.971L386.523 397.292L258.421 376.16L237.374 503.751L365.476 524.883Z" fill="#393939"/>
<path d="M189.65 583.373L200.368 518.399L404.25 552.032L393.532 617.005L189.65 583.373Z" fill="#393939"/>
<rect x="224.437" y="512.013" width="152.14" height="11.3537" transform="rotate(9.36717 224.437 512.013)" fill="#393939"/>
<rect x="260.493" y="419" width="34.0611" height="12.4891" transform="rotate(9.36717 260.493 419)" fill="#007AE0"/>
<rect x="303.062" y="426.022" width="12.4891" height="12.4891" transform="rotate(9.36717 303.062 426.022)" fill="#007AE0"/>
<rect x="329.162" y="407.313" width="12.4891" height="12.4891" transform="rotate(9.36717 329.162 407.313)" fill="#007AE0"/>
<rect x="285.473" y="400.106" width="34.0611" height="12.4891" transform="rotate(9.36717 285.473 400.106)" fill="#007AE0"/>
<rect x="263.068" y="396.41" width="12.4891" height="12.4891" transform="rotate(9.36717 263.068 396.41)" fill="#007AE0"/>
<rect x="165.643" y="401.052" width="35.1965" height="14.7598" transform="rotate(9.36717 165.643 401.052)" fill="#AEAEAE"/>
<rect x="165.643" y="401.052" width="35.1965" height="14.7598" transform="rotate(9.36717 165.643 401.052)" fill="#363636"/>
<rect x="161.393" y="426.817" width="35.1965" height="14.7598" transform="rotate(9.36717 161.393 426.817)" fill="#AEAEAE"/>
<rect x="161.393" y="426.817" width="35.1965" height="14.7598" transform="rotate(9.36717 161.393 426.817)" fill="#363636"/>
<rect x="157.142" y="452.583" width="35.1965" height="14.7598" transform="rotate(9.36717 157.142 452.583)" fill="#AEAEAE"/>
<rect x="157.142" y="452.583" width="35.1965" height="14.7598" transform="rotate(9.36717 157.142 452.583)" fill="#363636"/>
<path d="M212.606 564.863L221.98 566.409L223.445 557.529L214.071 555.983L212.606 564.863Z" fill="#007AE0"/>
<path d="M232.34 568.118L241.713 569.664L243.178 560.784L233.805 559.238L232.34 568.118Z" fill="#007AE0"/>
<path d="M240.248 578.544L249.128 580.009L250.593 571.129L241.713 569.664L240.248 578.544Z" fill="#007AE0"/>
<path d="M250.1 571.048L259.473 572.594L260.938 563.714L251.565 562.168L250.1 571.048Z" fill="#007AE0"/>
<path d="M242.685 560.703L252.058 562.249L253.523 553.369L244.149 551.823L242.685 560.703Z" fill="#007AE0"/>
<path d="M223.938 557.61L233.311 559.156L234.776 550.276L225.403 548.73L223.938 557.61Z" fill="#007AE0"/>
<path d="M235.269 550.358L244.643 551.904L246.108 543.024L236.734 541.478L235.269 550.358Z" fill="#007AE0"/>
<path d="M254.016 553.45L263.389 554.997L264.854 546.117L255.481 544.57L254.016 553.45Z" fill="#007AE0"/>
<path d="M215.536 547.103L224.909 548.649L226.374 539.769L217.001 538.223L215.536 547.103Z" fill="#007AE0"/>
<rect x="222.474" y="566.49" width="10" height="9" transform="rotate(9.36717 222.474 566.49)" fill="#007AE0"/>
<rect x="304.814" y="552.708" width="82" height="12" transform="rotate(9.36717 304.814 552.708)" fill="#007AE0"/>
</svg>
