<svg width="336" height="336" viewBox="0 0 336 336" fill="none" xmlns="http://www.w3.org/2000/svg">
<rect width="336" height="336" fill="#F9CC14"/>
<path d="M84.6826 143.431H87.8855V145.032H86.2841V146.634H79.8784V145.032H78.277V137.025H79.8784V135.424H86.2841V137.025H87.8855V138.627H84.6826V137.025H81.4798V145.032H84.6826V143.431ZM95.8925 137.025H92.6897V140.228H97.4939V141.83H99.0953V145.032H97.4939V146.634H91.0883V145.032H89.4869V143.431H92.6897V145.032H95.8925V141.83H91.0883V140.228H89.4869V137.025H91.0883V135.424H97.4939V137.025H99.0953V138.627H95.8925V137.025ZM107.102 137.025H103.9V140.228H108.704V141.83H110.305V145.032H108.704V146.634H102.298V145.032H100.697V143.431H103.9V145.032H107.102V141.83H102.298V140.228H100.697V137.025H102.298V135.424H108.704V137.025H110.305V138.627H107.102V137.025Z" fill="black"/>
<path fill-rule="evenodd" clip-rule="evenodd" d="M59 56.2857V70.5714H60.5H62V86.2857V102H63.5H65V107.714V113.429H66.5H68V114.857V116.286H72.5H77V117.714V119.143H83H89V120.571V122H95H101V120.571V119.143H107H113V117.714V116.286H117.5H122V114.857V113.429H123.5H125V107.714V102H126.5H128V86.2857V70.5714H129.5H131V56.2857V42H95H59V56.2857ZM119 60.5714V64.8571H117.5H116V66.2857V67.7143H111.5H107V69.1429V70.5714H104H101V72V73.4286H108.5H116V84.8571V96.2857H114.5H113V99.1429V102H110H107V103.429V104.857H102.5H98V106.286V107.714H95H92V106.286V104.857H87.5H83V103.429V102H80H77V100.571V99.1429H75.5H74V93.4286V87.7143H78.5H83V90.5714V93.4286H84.5H86V94.8571V96.2857H95H104V94.8571V93.4286H105.5H107V87.7143V82H90.5H74V77.7143V73.4286H77H80V72V70.5714H83H86V69.1429V67.7143H90.5H95V66.2857V64.8571H83H71V60.5714V56.2857H95H119V60.5714Z" fill="#007AE0"/>
<path fill-rule="evenodd" clip-rule="evenodd" d="M209 55.8571V68.7143H210.44H211.88V85.8571V103H213.32H214.76V110.143V117.286H219.08H223.4V118.714V120.143H229.16H234.92V121.571V123H243.56H252.2V121.571V120.143H257.96H263.72V118.714V117.286H268.04H272.36V115.857V114.429H273.8H275.24V98.7143V83H276.68H278.12V67.2857V51.5714H279.56H281V47.2857V43H245H209V55.8571ZM266.6 61.5714V65.8571H249.32H232.04V71.5714V77.2857H247.88H263.72V90.1429V103H262.28H260.84V104.429V105.857H255.08H249.32V107.286V108.714H243.56H237.8V107.286V105.857H233.48H229.16V104.429V103H227.72H226.28V98.7143V94.4286H224.84H223.4V91.5714V88.7143H227.72H232.04V90.1429V91.5714H233.48H234.92V94.4286V97.2857H237.8H240.68V98.7143V100.143H243.56H246.44V98.7143V97.2857H250.76H255.08V91.5714V85.8571H239.24H223.4V74.4286V63H221.96H220.52V60.1429V57.2857H243.56H266.6V61.5714Z" fill="#007AE0"/>
<path d="M228.078 134.424H231.281V145.634H228.078V140.83H224.875V145.634H221.672V134.424H224.875V139.228H228.078V134.424ZM242.49 134.424V136.025H239.288V145.634H236.085V136.025H232.882V134.424H242.49ZM245.693 140.83V145.634H244.092V134.424H247.295V137.627H252.099V134.424H255.302V145.634H252.099V140.83H250.497V144.032H247.295V140.83H245.693ZM264.91 143.632V145.634H256.903V134.424H260.106V143.632H264.91Z" fill="black"/>
<path d="M73.4728 286.481H70.27V289.684H73.4728V286.481ZM67.0671 296.089V284.879H75.0742V286.481H76.6756V289.684H75.0742V291.285H76.6756V294.488H75.0742V296.089H67.0671ZM73.4728 294.488V291.285H70.27V294.488H73.4728ZM84.6826 284.879H87.8855V296.089H79.8784V294.488H78.277V284.879H81.4798V294.488H84.6826V284.879ZM97.4939 294.088V296.089H89.4869V284.879H92.6897V294.088H97.4939ZM100.697 291.285V296.089H99.0953V284.879H102.298V288.082H107.102V284.879H110.305V296.089H107.102V291.285H105.501V294.488H102.298V291.285H100.697ZM118.312 291.285V286.481H115.109V291.285H118.312ZM115.109 292.887V296.089H111.907V286.481H113.508V284.879H119.914V286.481H121.515V296.089H118.312V292.887H115.109Z" fill="black"/>
<path fill-rule="evenodd" clip-rule="evenodd" d="M93.3333 176.846V178.692H91.5H89.6667V180.538V182.385H87.8333H86V184.231V186.077H84.1667H82.3333V187.923V189.769H80.5H78.6667V191.615V193.462H76.8333H75V195.308V197.154H73.1667H71.3333V199V200.846H69.5H67.6667V211.923V223H65.8333H64V234.077V245.154H65.8333H67.6667V247V248.846H69.5H71.3333V250.692V252.538H73.1667H75V254.385V256.231H76.8333H78.6667V258.077V259.923H80.5H82.3333V261.769V263.615H84.1667H86V265.462V267.308H87.8333H89.6667V269.154V271H95.1667H100.667V269.154V267.308H102.5H104.333V265.462V263.615H108H111.667V261.769V259.923H113.5H115.333V258.077V256.231H119H122.667V254.385V252.538H124.5H126.333V250.692V248.846H128.167H130V247V245.154H128.167H126.333V243.308V241.462H124.5H122.667V239.615V237.769H120.833H119V235.923V234.077H117.167H115.333V232.231V230.385H113.5H111.667V228.538V226.692H109.833H108V223V219.308H109.833H111.667V217.462V215.615H113.5H115.333V213.769V211.923H117.167H119V210.077V208.231H120.833H122.667V204.538V200.846H120.833H119V199V197.154H117.167H115.333V195.308V193.462H113.5H111.667V191.615V189.769H109.833H108V187.923V186.077H106.167H104.333V184.231V182.385H102.5H100.667V180.538V178.692H98.8333H97V176.846V175H95.1667H93.3333V176.846Z" fill="#007AE0"/>
<path d="M200.053 279.481H196.85V282.684H200.053V279.481ZM193.647 289.089V277.879H201.654V279.481H203.256V282.684H201.654V284.285H203.256V287.488H201.654V289.089H193.647ZM200.053 287.488V284.285H196.85V287.488H200.053ZM211.263 279.481H208.06V287.488H211.263V279.481ZM206.459 287.488H204.857V279.481H206.459V277.879H212.864V279.481H214.466V287.488H212.864V289.089H206.459V287.488ZM222.473 279.481H219.27V287.488H222.473V279.481ZM217.669 287.488H216.067V279.481H217.669V277.879H224.074V279.481H225.676V287.488H224.074V289.089H217.669V287.488ZM236.885 277.879V279.481H233.683V289.089H230.48V279.481H227.277V277.879H236.885ZM244.893 279.481H241.69V282.684H246.494V284.285H248.095V287.488H246.494V289.089H240.088V287.488H238.487V285.887H241.69V287.488H244.893V284.285H240.088V282.684H238.487V279.481H240.088V277.879H246.494V279.481H248.095V281.082H244.893V279.481ZM259.305 277.879V279.481H256.102V289.089H252.9V279.481H249.697V277.879H259.305ZM267.312 279.481H264.109V282.684H267.312V279.481ZM268.914 284.285H270.515V289.089H267.312V284.285H264.109V289.089H260.907V277.879H268.914V279.481H270.515V282.684H268.914V284.285ZM278.522 284.285V279.481H275.319V284.285H278.522ZM275.319 285.887V289.089H272.116V279.481H273.718V277.879H280.124V279.481H281.725V289.089H278.522V285.887H275.319ZM289.732 279.481H286.529V282.684H289.732V279.481ZM291.333 282.684V284.285H286.529V289.089H283.326V277.879H291.333V279.481H292.935V282.684H291.333Z" fill="black"/>
<path fill-rule="evenodd" clip-rule="evenodd" d="M208.43 184.107V186.215H206.322H204.215V188.322V190.43H202.107H200V224.148V257.867H202.107H204.215V259.975V262.082H206.322H208.43V263.541V265H240.041H271.652V263.541V262.082H275.867H280.082V257.867V253.652H281.541H283V222.041V190.43H281.541H280.082V188.322V186.215H277.975H275.867V184.107V182H242.148H208.43V184.107ZM254.793 200.967V203.074H256.9H259.008V211.504V219.934H256.9H254.793V222.041V224.148H256.9H259.008V226.256V228.363H261.115H263.223V234.686V241.008H261.115H259.008V243.115V245.223H256.9H254.793V247.33V249.438H237.934H221.074V224.148V198.859H237.934H254.793V200.967ZM229.504 213.611V219.934H240.041H250.578V213.611V207.289H240.041H229.504V213.611ZM229.504 234.686V241.008H240.041H250.578V238.9V236.793H252.686H254.793V232.578V228.363H242.148H229.504V234.686Z" fill="#007AE0"/>
</svg>
