<svg width="336" height="411" viewBox="0 0 336 411" fill="none" xmlns="http://www.w3.org/2000/svg">
<path d="M160.353 335.533L222.647 335.653L191.12 371.357L154.59 335.522L160.353 335.533Z" fill="#F9CC14"/>
<path d="M38.7825 335.299L101.077 335.419L69.5495 371.123L33.0196 335.288L38.7825 335.299Z" fill="#F9CC14"/>
<path d="M109.344 335.146L145.514 335.216L127.208 355.947L105.997 335.14L109.344 335.146Z" fill="#F9CC14"/>
<path d="M136.567 363.464L172.738 363.534L151.527 342.726L133.22 363.458L136.567 363.464Z" fill="#F9CC14"/>
<path d="M129.139 373.257L184.4 373.363L156.432 405.037L124.027 373.247L129.139 373.257Z" fill="#F9CC14"/>
<path d="M68.7439 383.826L104.947 342.826L108.085 387.701L65.3947 387.619L68.7439 383.826Z" fill="#F9CC14"/>
<rect width="336" height="336" fill="#F9CC14"/>
<path d="M116.438 280.5V271.125H119.562V293H113.312V286.75H103.938V293H97.6875V271.125H103.938V280.5H107.062V274.25H113.312V280.5H116.438ZM122.688 293V271.125H138.312V274.25H128.938V280.5H138.312V283.625H128.938V289.875H138.312V293H122.688ZM153.938 274.25H147.688V280.5H153.938V274.25ZM141.438 293V271.125H157.062V274.25H160.188V280.5H157.062V283.625H160.188V289.875H157.062V293H141.438ZM153.938 289.875V283.625H147.688V289.875H153.938ZM188.312 274.25H182.062V289.875H188.312V274.25ZM175.812 293V271.125H191.438V274.25H194.562V289.875H191.438V293H175.812ZM197.688 293V271.125H213.312V274.25H203.938V280.5H213.312V283.625H203.938V289.875H213.312V293H197.688ZM228.938 286.75V271.125H235.188V286.75H232.062V289.875H228.938V293H222.688V289.875H219.562V286.75H216.438V271.125H222.688V286.75H228.938Z" fill="black"/>
<rect x="144.004" y="54.3999" width="107.47" height="97.9871" transform="rotate(9.36717 144.004 54.3999)" fill="white"/>
<path d="M109.041 159.557L101.71 203.998L65.4551 198.018L72.7862 153.576L87.6002 156.02L88.6934 149.392L81.2864 148.171L82.6369 139.984L75.2299 138.762L87.4485 64.6923L94.8555 65.9142L96.206 57.7275L103.613 58.9494L107.15 37.5082L137.168 42.4599L118.711 154.344L125.728 155.502L124.635 162.129L109.041 159.557Z" fill="#292929"/>
<path fill-rule="evenodd" clip-rule="evenodd" d="M118.71 154.344L137.166 42.46L263.474 63.2958L245.018 175.18L118.71 154.344ZM224.019 163.679L225.116 157.028L232.546 158.254L244.872 83.5341L237.442 82.3085L238.668 74.8756L149.51 60.168L134.861 148.971L224.019 163.679Z" fill="#393939"/>
<path d="M101.648 204.389L109.107 159.167L251.009 182.575L243.55 227.797L101.648 204.389Z" fill="#393939"/>
<rect x="125.855" y="154.722" width="105.889" height="7.90218" transform="rotate(9.36717 125.855 154.722)" fill="#393939"/>
<rect x="150.951" y="89.9844" width="23.7065" height="8.6924" transform="rotate(9.36717 150.951 89.9844)" fill="#007AE0"/>
<rect x="180.578" y="94.8716" width="8.6924" height="8.6924" transform="rotate(9.36717 180.578 94.8716)" fill="#007AE0"/>
<rect x="198.746" y="81.8511" width="8.6924" height="8.6924" transform="rotate(9.36717 198.746 81.8511)" fill="#007AE0"/>
<rect x="168.338" y="76.8354" width="23.7065" height="8.6924" transform="rotate(9.36717 168.338 76.8354)" fill="#007AE0"/>
<rect x="152.744" y="74.2622" width="8.6924" height="8.6924" transform="rotate(9.36717 152.744 74.2622)" fill="#007AE0"/>
<rect x="84.9355" y="77.4927" width="24.4968" height="10.2728" transform="rotate(9.36717 84.9355 77.4927)" fill="#AEAEAE"/>
<rect x="84.9355" y="77.4927" width="24.4968" height="10.2728" transform="rotate(9.36717 84.9355 77.4927)" fill="#363636"/>
<rect x="81.9785" y="95.4248" width="24.4968" height="10.2728" transform="rotate(9.36717 81.9785 95.4248)" fill="#AEAEAE"/>
<rect x="81.9785" y="95.4248" width="24.4968" height="10.2728" transform="rotate(9.36717 81.9785 95.4248)" fill="#363636"/>
<rect x="79.0195" y="113.358" width="24.4968" height="10.2728" transform="rotate(9.36717 79.0195 113.358)" fill="#AEAEAE"/>
<rect x="79.0195" y="113.358" width="24.4968" height="10.2728" transform="rotate(9.36717 79.0195 113.358)" fill="#363636"/>
<path d="M117.623 191.505L124.147 192.581L125.166 186.401L118.643 185.325L117.623 191.505Z" fill="#007AE0"/>
<path d="M131.357 193.771L137.881 194.847L138.901 188.667L132.377 187.59L131.357 193.771Z" fill="#007AE0"/>
<path d="M136.862 201.028L143.042 202.047L144.062 195.867L137.881 194.847L136.862 201.028Z" fill="#007AE0"/>
<path d="M143.718 195.81L150.242 196.886L151.262 190.706L144.738 189.63L143.718 195.81Z" fill="#007AE0"/>
<path d="M138.557 188.61L145.081 189.686L146.101 183.506L139.577 182.43L138.557 188.61Z" fill="#007AE0"/>
<path d="M125.51 186.458L132.034 187.534L133.053 181.353L126.529 180.277L125.51 186.458Z" fill="#007AE0"/>
<path d="M133.396 181.41L139.92 182.486L140.94 176.306L134.416 175.229L133.396 181.41Z" fill="#007AE0"/>
<path d="M146.444 183.562L152.968 184.638L153.988 178.458L147.464 177.382L146.444 183.562Z" fill="#007AE0"/>
<path d="M119.662 179.144L126.186 180.221L127.205 174.04L120.682 172.964L119.662 179.144Z" fill="#007AE0"/>
<rect x="124.49" y="192.638" width="6.96" height="6.264" transform="rotate(9.36717 124.49 192.638)" fill="#007AE0"/>
<rect x="181.799" y="183.045" width="57.072" height="8.352" transform="rotate(9.36717 181.799 183.045)" fill="#007AE0"/>
</svg>
