<svg width="336" height="480" viewBox="0 0 336 480" fill="none" xmlns="http://www.w3.org/2000/svg">
<path d="M160.353 404.533L222.647 404.653L191.12 440.357L154.59 404.522L160.353 404.533Z" fill="#F9CC14"/>
<path d="M38.7825 404.299L101.077 404.419L69.5495 440.123L33.0196 404.288L38.7825 404.299Z" fill="#F9CC14"/>
<path d="M109.344 404.146L145.514 404.216L127.208 424.947L105.997 404.14L109.344 404.146Z" fill="#F9CC14"/>
<path d="M136.567 432.464L172.738 432.534L151.527 411.726L133.22 432.458L136.567 432.464Z" fill="#F9CC14"/>
<path d="M129.139 442.257L184.4 442.363L156.432 474.037L124.027 442.247L129.139 442.257Z" fill="#F9CC14"/>
<path d="M68.7439 452.826L104.947 411.826L108.085 456.701L65.3947 456.619L68.7439 452.826Z" fill="#F9CC14"/>
<rect y="69" width="336" height="336" fill="#F9CC14"/>
<path d="M116.438 349.5V340.125H119.562V362H113.312V355.75H103.938V362H97.6875V340.125H103.938V349.5H107.062V343.25H113.312V349.5H116.438ZM122.688 362V340.125H138.312V343.25H128.938V349.5H138.312V352.625H128.938V358.875H138.312V362H122.688ZM153.938 343.25H147.688V349.5H153.938V343.25ZM141.438 362V340.125H157.062V343.25H160.188V349.5H157.062V352.625H160.188V358.875H157.062V362H141.438ZM153.938 358.875V352.625H147.688V358.875H153.938ZM188.312 343.25H182.062V358.875H188.312V343.25ZM175.812 362V340.125H191.438V343.25H194.562V358.875H191.438V362H175.812ZM197.688 362V340.125H213.312V343.25H203.938V349.5H213.312V352.625H203.938V358.875H213.312V362H197.688ZM228.938 355.75V340.125H235.188V355.75H232.062V358.875H228.938V362H222.688V358.875H219.562V355.75H216.438V340.125H222.688V355.75H228.938Z" fill="black"/>
<rect x="144.004" y="123.4" width="107.47" height="97.9871" transform="rotate(9.36717 144.004 123.4)" fill="white"/>
<path d="M109.041 228.557L101.71 272.998L65.4551 267.018L72.7862 222.576L87.6002 225.02L88.6934 218.392L81.2864 217.171L82.6369 208.984L75.2299 207.762L87.4485 133.692L94.8555 134.914L96.206 126.728L103.613 127.949L107.15 106.508L137.168 111.46L118.711 223.344L125.728 224.502L124.635 231.129L109.041 228.557Z" fill="#292929"/>
<path fill-rule="evenodd" clip-rule="evenodd" d="M118.71 223.344L137.166 111.46L263.474 132.296L245.018 244.18L118.71 223.344ZM224.019 232.679L225.116 226.028L232.546 227.254L244.872 152.534L237.442 151.308L238.668 143.876L149.51 129.168L134.861 217.971L224.019 232.679Z" fill="#393939"/>
<path d="M101.648 273.389L109.107 228.167L251.009 251.575L243.55 296.797L101.648 273.389Z" fill="#393939"/>
<rect x="125.855" y="223.722" width="105.889" height="7.90218" transform="rotate(9.36717 125.855 223.722)" fill="#393939"/>
<rect x="150.951" y="158.984" width="23.7065" height="8.6924" transform="rotate(9.36717 150.951 158.984)" fill="#007AE0"/>
<rect x="180.578" y="163.872" width="8.6924" height="8.6924" transform="rotate(9.36717 180.578 163.872)" fill="#007AE0"/>
<rect x="198.746" y="150.851" width="8.6924" height="8.6924" transform="rotate(9.36717 198.746 150.851)" fill="#007AE0"/>
<rect x="168.338" y="145.835" width="23.7065" height="8.6924" transform="rotate(9.36717 168.338 145.835)" fill="#007AE0"/>
<rect x="152.744" y="143.262" width="8.6924" height="8.6924" transform="rotate(9.36717 152.744 143.262)" fill="#007AE0"/>
<rect x="84.9355" y="146.493" width="24.4968" height="10.2728" transform="rotate(9.36717 84.9355 146.493)" fill="#AEAEAE"/>
<rect x="84.9355" y="146.493" width="24.4968" height="10.2728" transform="rotate(9.36717 84.9355 146.493)" fill="#363636"/>
<rect x="81.9785" y="164.425" width="24.4968" height="10.2728" transform="rotate(9.36717 81.9785 164.425)" fill="#AEAEAE"/>
<rect x="81.9785" y="164.425" width="24.4968" height="10.2728" transform="rotate(9.36717 81.9785 164.425)" fill="#363636"/>
<rect x="79.0195" y="182.358" width="24.4968" height="10.2728" transform="rotate(9.36717 79.0195 182.358)" fill="#AEAEAE"/>
<rect x="79.0195" y="182.358" width="24.4968" height="10.2728" transform="rotate(9.36717 79.0195 182.358)" fill="#363636"/>
<path d="M117.623 260.505L124.147 261.581L125.166 255.401L118.643 254.325L117.623 260.505Z" fill="#007AE0"/>
<path d="M131.357 262.771L137.881 263.847L138.901 257.667L132.377 256.59L131.357 262.771Z" fill="#007AE0"/>
<path d="M136.862 270.028L143.042 271.047L144.062 264.867L137.881 263.847L136.862 270.028Z" fill="#007AE0"/>
<path d="M143.718 264.81L150.242 265.886L151.262 259.706L144.738 258.63L143.718 264.81Z" fill="#007AE0"/>
<path d="M138.557 257.61L145.081 258.686L146.101 252.506L139.577 251.43L138.557 257.61Z" fill="#007AE0"/>
<path d="M125.51 255.458L132.034 256.534L133.053 250.353L126.529 249.277L125.51 255.458Z" fill="#007AE0"/>
<path d="M133.396 250.41L139.92 251.486L140.94 245.306L134.416 244.229L133.396 250.41Z" fill="#007AE0"/>
<path d="M146.444 252.562L152.968 253.638L153.988 247.458L147.464 246.382L146.444 252.562Z" fill="#007AE0"/>
<path d="M119.662 248.144L126.186 249.221L127.205 243.04L120.682 241.964L119.662 248.144Z" fill="#007AE0"/>
<rect x="124.49" y="261.638" width="6.96" height="6.264" transform="rotate(9.36717 124.49 261.638)" fill="#007AE0"/>
<rect x="181.799" y="252.045" width="57.072" height="8.352" transform="rotate(9.36717 181.799 252.045)" fill="#007AE0"/>
</svg>
