<svg width="274" height="296" viewBox="0 0 274 296" fill="none" xmlns="http://www.w3.org/2000/svg">
<path d="M191.166 57.9264L241.171 121.254L245.692 56.9801L186.54 52.0679L191.166 57.9264Z" fill="#007AE0"/>
<path d="M33.7279 117.088L55.367 55.0237L12.3456 76.0824L31.7261 122.829L33.7279 117.088Z" fill="#007AE0"/>
<path d="M153.001 249.571L94.5786 261.323L132.4 289.581L158.406 248.484L153.001 249.571Z" fill="#007AE0"/>
<path d="M167.963 35.8125L236.681 126.686L198.493 236.809L91.5862 256.058L22.8679 165.184L61.0562 55.0613L167.963 35.8125Z" fill="#007AE0"/>
<path fill-rule="evenodd" clip-rule="evenodd" d="M63.2657 121.284L64.0739 124.481L60.743 125.323L57.4121 126.165L58.254 129.496L59.0959 132.827L55.8982 133.635L52.7005 134.443L60.0753 163.622L67.4501 192.801L70.6478 191.992L73.8455 191.184L74.6873 194.515L75.5292 197.846L78.8601 197.004L82.191 196.162L82.9992 199.36L83.8074 202.558L138.967 188.616L194.127 174.675L193.318 171.477L192.51 168.279L195.841 167.438L199.172 166.596L198.33 163.265L197.488 159.934L200.686 159.126L203.884 158.318L196.509 129.139L189.134 99.9602L185.936 100.768L182.739 101.577L181.897 98.2457L181.055 94.9148L177.724 95.7567L174.393 96.5986L173.585 93.4009L172.777 90.2033L117.617 104.145L62.4575 118.086L63.2657 121.284ZM113.749 129.219L114.557 132.417L120.895 130.815C126.211 129.472 127.272 129.236 127.472 129.355C127.665 129.471 127.861 130.094 128.504 132.638L129.298 135.779L132.496 134.97L135.693 134.162L136.501 137.36L137.31 140.558L140.507 139.749L143.705 138.941L144.547 142.272L145.389 145.603L142.191 146.411L138.993 147.219L139.802 150.417L140.61 153.615L137.412 154.423L134.214 155.231L135.008 158.372C135.651 160.916 135.775 161.557 135.66 161.751C135.54 161.951 134.495 162.248 129.179 163.591L122.841 165.193L123.649 168.391L124.458 171.588L121.127 172.43L117.796 173.272L112.037 150.489L106.279 127.705L109.61 126.864L112.941 126.022L113.749 129.219Z" fill="white"/>
</svg>
