<svg width="210" height="187" viewBox="0 0 210 187" fill="none" xmlns="http://www.w3.org/2000/svg">
<g filter="url(#filter0_d)">
<path fill-rule="evenodd" clip-rule="evenodd" d="M32.0889 4.23622V8.47244H27.6762H23.2635V12.8852V17.2979H19.0272H14.791V55.9534V94.6089H19.0272H23.2635V99.0216V103.434H27.6762H32.0889V107.671V111.907H105.164H178.238V107.671V103.434H182.651H187.064V99.0216V94.6089H191.3H195.536V55.9534V17.2979H191.3H187.064V12.8852V8.47244H182.651H178.238V4.23622V0L105.164 0L32.0889 0V4.23622ZM92.455 30.0066V34.2428H100.852C107.894 34.2428 109.289 34.2836 109.501 34.495C109.705 34.6992 109.753 35.5371 109.753 38.9077V43.0682H113.989H118.225V47.3045V51.5407H122.462H126.698V55.9534V60.3661H122.462H118.225V64.6024V68.8386H113.989H109.753V72.9991C109.753 76.3697 109.705 77.2076 109.501 77.4118C109.289 77.6233 107.894 77.664 100.852 77.664H92.455V81.9002V86.1365H88.0423H83.6296V55.9534V25.7703H88.0423H92.455V30.0066Z" fill="#F8CC14"/>
</g>
<g filter="url(#filter1_d)">
<path d="M31.5706 155.297L29.654 165H23.1853L25.1419 155.017L17.9545 137.049H24.4231L29.4144 149.507L39.4368 137.049H46.1051L31.5706 155.297ZM51.6638 165.319C49.5076 165.319 47.6043 164.92 45.9538 164.122C44.33 163.323 43.0656 162.205 42.1605 160.767C41.282 159.303 40.8428 157.613 40.8428 155.696C40.8428 153.327 41.4018 151.198 42.5198 149.308C43.6379 147.417 45.1818 145.927 47.1517 144.835C49.1216 143.744 51.3444 143.198 53.82 143.198C56.0029 143.198 57.9062 143.598 59.53 144.396C61.1538 145.195 62.405 146.326 63.2834 147.79C64.1885 149.228 64.6411 150.905 64.6411 152.821C64.6411 155.191 64.082 157.32 62.964 159.21C61.8726 161.1 60.3286 162.591 58.3321 163.682C56.3622 164.774 54.1395 165.319 51.6638 165.319ZM52.0631 160.168C53.261 160.168 54.3391 159.876 55.2974 159.29C56.2558 158.678 57.0011 157.839 57.5335 156.774C58.0659 155.71 58.3321 154.485 58.3321 153.101C58.3321 151.637 57.9062 150.479 57.0544 149.627C56.2025 148.775 55.0046 148.349 53.4607 148.349C52.2361 148.349 51.1447 148.655 50.1864 149.268C49.2281 149.853 48.4827 150.678 47.9503 151.743C47.4179 152.808 47.1517 154.033 47.1517 155.417C47.1517 156.881 47.5776 158.039 48.4295 158.891C49.3079 159.743 50.5192 160.168 52.0631 160.168ZM92.4841 143.518L88.2116 165H82.302L82.7412 162.684C81.8095 163.563 80.7447 164.228 79.5468 164.681C78.3489 165.106 77.0845 165.319 75.7535 165.319C73.4109 165.319 71.5342 164.681 70.1233 163.403C68.7391 162.125 68.047 160.328 68.047 158.012C68.047 157.134 68.1401 156.269 68.3265 155.417L70.6824 143.518H76.9114L74.6354 155.017C74.5289 155.523 74.4757 156.042 74.4757 156.575C74.4757 158.811 75.6736 159.929 78.0694 159.929C79.64 159.929 80.9311 159.476 81.9426 158.571C82.9808 157.64 83.6862 156.255 84.0589 154.419L86.2551 143.518H92.4841ZM102.11 142.32H93.1658L94.2439 137.049H118.601L117.523 142.32H108.619L104.067 165H97.598L102.11 142.32ZM141.539 143.518L137.266 165H131.357L131.796 162.684C130.864 163.563 129.799 164.228 128.601 164.681C127.404 165.106 126.139 165.319 124.808 165.319C122.466 165.319 120.589 164.681 119.178 163.403C117.794 162.125 117.102 160.328 117.102 158.012C117.102 157.134 117.195 156.269 117.381 155.417L119.737 143.518H125.966L123.69 155.017C123.584 155.523 123.53 156.042 123.53 156.575C123.53 158.811 124.728 159.929 127.124 159.929C128.695 159.929 129.986 159.476 130.997 158.571C132.035 157.64 132.741 156.255 133.114 154.419L135.31 143.518H141.539ZM159.368 143.198C161.045 143.198 162.589 143.584 164 144.356C165.438 145.128 166.569 146.246 167.394 147.71C168.246 149.148 168.672 150.851 168.672 152.821C168.672 155.191 168.14 157.333 167.075 159.25C166.037 161.14 164.613 162.631 162.802 163.722C160.992 164.787 158.982 165.319 156.773 165.319C155.096 165.319 153.645 165.027 152.421 164.441C151.196 163.855 150.251 162.977 149.586 161.806L148.947 165H143.037L148.947 135.372H155.176L153.179 145.354C154.91 143.917 156.973 143.198 159.368 143.198ZM156.054 160.168C157.279 160.168 158.37 159.876 159.329 159.29C160.287 158.678 161.032 157.839 161.565 156.774C162.097 155.71 162.363 154.485 162.363 153.101C162.363 151.637 161.924 150.479 161.045 149.627C160.194 148.775 158.996 148.349 157.452 148.349C156.254 148.349 155.176 148.655 154.217 149.268C153.259 149.853 152.514 150.678 151.981 151.743C151.449 152.808 151.183 154.033 151.183 155.417C151.183 156.881 151.609 158.039 152.461 158.891C153.312 159.743 154.51 160.168 156.054 160.168ZM193.925 152.662C193.925 153.647 193.805 154.738 193.566 155.936H177.115C177.327 158.864 179.178 160.328 182.665 160.328C183.756 160.328 184.794 160.155 185.779 159.809C186.791 159.463 187.669 158.971 188.415 158.332L191.01 162.444C189.812 163.403 188.441 164.122 186.897 164.601C185.353 165.08 183.73 165.319 182.026 165.319C179.816 165.319 177.873 164.933 176.196 164.161C174.546 163.363 173.268 162.232 172.363 160.767C171.484 159.303 171.045 157.613 171.045 155.696C171.045 153.327 171.578 151.198 172.642 149.308C173.734 147.391 175.238 145.9 177.154 144.835C179.071 143.744 181.254 143.198 183.703 143.198C185.779 143.198 187.576 143.584 189.094 144.356C190.637 145.128 191.822 146.233 192.647 147.67C193.499 149.108 193.925 150.772 193.925 152.662ZM183.423 147.87C181.959 147.87 180.722 148.269 179.71 149.068C178.698 149.84 177.98 150.918 177.554 152.302H188.215C188.215 150.918 187.776 149.84 186.897 149.068C186.046 148.269 184.888 147.87 183.423 147.87Z" fill="#F8CC14"/>
</g>
<defs>
<filter id="filter0_d" x="14.791" y="0" width="186.745" height="117.907" filterUnits="userSpaceOnUse" color-interpolation-filters="sRGB">
<feFlood flood-opacity="0" result="BackgroundImageFix"/>
<feColorMatrix in="SourceAlpha" type="matrix" values="0 0 0 0 0 0 0 0 0 0 0 0 0 0 0 0 0 0 127 0"/>
<feOffset dx="6" dy="6"/>
<feColorMatrix type="matrix" values="0 0 0 0 0 0 0 0 0 0.478431 0 0 0 0 0.878431 0 0 0 1 0"/>
<feBlend mode="normal" in2="BackgroundImageFix" result="effect1_dropShadow"/>
<feBlend mode="normal" in="SourceGraphic" in2="effect1_dropShadow" result="shape"/>
</filter>
<filter id="filter1_d" x="17.9551" y="135.372" width="181.971" height="35.9475" filterUnits="userSpaceOnUse" color-interpolation-filters="sRGB">
<feFlood flood-opacity="0" result="BackgroundImageFix"/>
<feColorMatrix in="SourceAlpha" type="matrix" values="0 0 0 0 0 0 0 0 0 0 0 0 0 0 0 0 0 0 127 0"/>
<feOffset dx="6" dy="6"/>
<feColorMatrix type="matrix" values="0 0 0 0 0 0 0 0 0 0.478431 0 0 0 0 0.878431 0 0 0 1 0"/>
<feBlend mode="normal" in2="BackgroundImageFix" result="effect1_dropShadow"/>
<feBlend mode="normal" in="SourceGraphic" in2="effect1_dropShadow" result="shape"/>
</filter>
</defs>
</svg>
